<svg xmlns="http://www.w3.org/2000/svg" width="505" height="461.545" viewBox="0 0 505 461.545">
  <g id="Presentation" transform="translate(-48.823 -119.915)">
    <g id="Background_00000024704308785993170000000008091701309493225370_" transform="translate(65.922 136.486)">
      <g id="Grupo_1162455" data-name="Grupo 1162455">
        <g id="Grupo_1162454" data-name="Grupo 1162454">
          <path id="Trazado_997198" data-name="Trazado 997198" d="M323.917,379.705c-10.073-20.21-3.543-44.243,1.1-66.341a358.726,358.726,0,0,0,7.579-65.749c.234-10.493-.154-21.58-5.664-30.512-5.392-8.742-14.831-14.034-23.974-18.715-35.833-18.349-78.329-33.245-115.521-17.838-25.87,10.717-45,36.193-48.086,64.025s10.013,56.877,32.911,72.995c12.675,8.922,28,14.121,39.12,24.915,18.294,17.752,20.1,49.8,3.914,69.5-11.979,14.575-30.7,21.335-46.948,30.93a141.511,141.511,0,0,0-56.793,63.626c-6.81,15.24-10.524,34.048-1.2,47.891,15.321,22.734,51.233,14.4,73.439-1.681s43.871-38.515,71.258-37.281c16.761.756,31.539,10.526,46.078,18.9a330.21,330.21,0,0,0,88.042,35c23.517,5.609,48.264,8.594,71.8,3.069s45.769-20.738,54.875-43.134c12.162-29.911-2.588-66.219-28.768-85.118C443.472,412.694,352.005,436.06,323.917,379.705Z" transform="translate(-104.771 -174.136)" fill="#b3f00d"/>
        </g>
      </g>
      <g id="Grupo_1162457" data-name="Grupo 1162457" transform="translate(267.179 10.051)">
        <g id="Grupo_1162456" data-name="Grupo 1162456">
          <path id="Trazado_997199" data-name="Trazado 997199" d="M981.107,316.3c1.564,21.267,9.268,42.916,25.236,57.049,20.6,18.229,50.363,20.771,77.861,21.343,23.381.486,40.49-.569,56.424-8.2,15.354-7.353,19.3-14.794,20.425-17.159,6.57-13.829,1.377-32.591-9.756-41.345-4.188-3.293-12.659-4.6-29.432-7.068-18.413-2.714-26-2.452-38.77-7.179-13.72-5.079-16.3-9.579-17.093-11.2-3.277-6.7.316-12.6,3.471-24.12,2.67-9.744,9.127-33.308.065-51.326-1.8-3.58-7.875-14.22-19.466-18.376-23.307-8.358-48.633,16.77-50.4,18.571C971.159,256.318,980.064,302.129,981.107,316.3Z" transform="translate(-978.979 -207.024)" fill="#f5f3e3"/>
        </g>
      </g>
    </g>
    <g id="Phone_00000076605647417782557710000016566492456597360003_" transform="translate(184.026 206.552)">
      <g id="Grupo_1162459" data-name="Grupo 1162459" transform="translate(0)">
        <g id="Grupo_1162458" data-name="Grupo 1162458">
          <path id="Trazado_997200" data-name="Trazado 997200" d="M663.25,778.3H518.6a27.4,27.4,0,0,1-27.4-27.4V430.789a27.4,27.4,0,0,1,27.4-27.4H663.249a27.4,27.4,0,0,1,27.4,27.4V750.9A27.394,27.394,0,0,1,663.25,778.3Z" transform="translate(-491.207 -403.392)" fill="#6595f7"/>
        </g>
      </g>
      <g id="Grupo_1162461" data-name="Grupo 1162461" transform="translate(10.849 10.651)">
        <g id="Grupo_1162460" data-name="Grupo 1162460">
          <path id="Trazado_997201" data-name="Trazado 997201" d="M679.325,791.846h-127.5A25.118,25.118,0,0,1,526.7,766.728V463.361a25.118,25.118,0,0,1,25.118-25.118h127.5a25.118,25.118,0,0,1,25.118,25.118V766.729A25.116,25.116,0,0,1,679.325,791.846Z" transform="translate(-526.704 -438.243)" fill="#fff"/>
        </g>
      </g>
      <g id="Grupo_1162463" data-name="Grupo 1162463" transform="translate(24.308 37.915)">
        <g id="Grupo_1162462" data-name="Grupo 1162462">
          <rect id="Rectángulo_411936" data-name="Rectángulo 411936" width="149.673" height="51.029" fill="#015566"/>
        </g>
      </g>
      <g id="Grupo_1162465" data-name="Grupo 1162465" transform="translate(24.308 234.722)">
        <g id="Grupo_1162464" data-name="Grupo 1162464" transform="translate(0 0)">
          <rect id="Rectángulo_411937" data-name="Rectángulo 411937" width="63.184" height="51.029" fill="#6445f1"/>
        </g>
      </g>
      <g id="Grupo_1162467" data-name="Grupo 1162467" transform="translate(110.798 234.722)">
        <g id="Grupo_1162466" data-name="Grupo 1162466" transform="translate(0 0)">
          <rect id="Rectángulo_411938" data-name="Rectángulo 411938" width="63.184" height="51.029" fill="#015566"/>
        </g>
      </g>
      <g id="Grupo_1162469" data-name="Grupo 1162469" transform="translate(24.308 297.589)">
        <g id="Grupo_1162468" data-name="Grupo 1162468">
          <rect id="Rectángulo_411939" data-name="Rectángulo 411939" width="63.184" height="51.029" fill="#015566"/>
        </g>
      </g>
      <g id="Grupo_1162471" data-name="Grupo 1162471" transform="translate(110.798 297.589)">
        <g id="Grupo_1162470" data-name="Grupo 1162470">
          <rect id="Rectángulo_411940" data-name="Rectángulo 411940" width="63.184" height="51.029" fill="#6445f1"/>
        </g>
      </g>
      <g id="Grupo_1162473" data-name="Grupo 1162473" transform="translate(24.308 116.961)">
        <g id="Grupo_1162472" data-name="Grupo 1162472">
          <rect id="Rectángulo_411941" data-name="Rectángulo 411941" width="149.673" height="20.455" fill="#6445f1"/>
        </g>
      </g>
      <g id="Grupo_1162475" data-name="Grupo 1162475" transform="translate(24.308 148.145)">
        <g id="Grupo_1162474" data-name="Grupo 1162474">
          <rect id="Rectángulo_411942" data-name="Rectángulo 411942" width="149.673" height="20.455" fill="#015566"/>
        </g>
      </g>
      <g id="Grupo_1162477" data-name="Grupo 1162477" transform="translate(24.308 179.329)">
        <g id="Grupo_1162476" data-name="Grupo 1162476">
          <rect id="Rectángulo_411943" data-name="Rectángulo 411943" width="149.673" height="20.455" fill="#015566"/>
        </g>
      </g>
      <g id="Grupo_1162479" data-name="Grupo 1162479" transform="translate(24.308 25.068)">
        <g id="Grupo_1162478" data-name="Grupo 1162478">
          <rect id="Rectángulo_411944" data-name="Rectángulo 411944" width="112.171" height="3.674" fill="#6445f1"/>
        </g>
      </g>
      <g id="Grupo_1162481" data-name="Grupo 1162481" transform="translate(39.858 102.813)">
        <g id="Grupo_1162480" data-name="Grupo 1162480">
          <rect id="Rectángulo_411945" data-name="Rectángulo 411945" width="112.171" height="3.674" fill="#015566"/>
        </g>
      </g>
      <g id="Grupo_1162483" data-name="Grupo 1162483" transform="translate(24.308 208.566)">
        <g id="Grupo_1162482" data-name="Grupo 1162482">
          <rect id="Rectángulo_411946" data-name="Rectángulo 411946" width="112.171" height="3.675" fill="#6445f1"/>
        </g>
      </g>
      <g id="Grupo_1162485" data-name="Grupo 1162485" transform="translate(24.308 221.048)">
        <g id="Grupo_1162484" data-name="Grupo 1162484">
          <rect id="Rectángulo_411947" data-name="Rectángulo 411947" width="68.026" height="3.674" fill="#015566"/>
        </g>
      </g>
    </g>
    <g id="Gear_00000080204891444535856490000015614010100347782301_" transform="translate(341.251 155.772)">
      <g id="Grupo_1162487" data-name="Grupo 1162487" transform="translate(0 5.859)">
        <g id="Grupo_1162486" data-name="Grupo 1162486">
          <path id="Trazado_997202" data-name="Trazado 997202" d="M1072.5,279.4a4.542,4.542,0,0,1-1.182-4.254l3.264-12.507-12.594-5.631-7.144,10.772a4.541,4.541,0,0,1-3.958,1.956h-.052a4.536,4.536,0,0,1-3.871-2.174l-6.536-11.151-12.886,4.924L1030.108,274a4.534,4.534,0,0,1-1.436,4.2l-.038.035a4.542,4.542,0,0,1-4.254,1.182l-12.507-3.264-5.631,12.594,10.772,7.144a4.541,4.541,0,0,1,1.956,3.958c0,.017,0,.035,0,.052a4.535,4.535,0,0,1-2.173,3.872l-11.152,6.536,4.924,12.886,12.668-2.566a4.537,4.537,0,0,1,4.2,1.436l.036.038a4.541,4.541,0,0,1,1.182,4.254l-3.264,12.507,12.594,5.63,7.144-10.772a4.541,4.541,0,0,1,3.958-1.956h.052a4.537,4.537,0,0,1,3.871,2.174l6.535,11.151,12.887-4.924-2.566-12.668a4.536,4.536,0,0,1,1.436-4.2l.038-.036a4.542,4.542,0,0,1,4.254-1.182l12.507,3.264,5.63-12.594-10.772-7.144a4.542,4.542,0,0,1-1.956-3.958c0-.018,0-.035,0-.052a4.535,4.535,0,0,1,2.173-3.871l11.151-6.536-4.924-12.887-12.668,2.566a4.537,4.537,0,0,1-4.2-1.436A.294.294,0,0,1,1072.5,279.4Zm-13.068,25.576a10.346,10.346,0,1,1-5.223-13.668A10.346,10.346,0,0,1,1059.433,304.974Z" transform="translate(-1005.645 -256.409)" fill="#015566"/>
        </g>
      </g>
      <g id="Grupo_1162489" data-name="Grupo 1162489" transform="translate(63.284)">
        <g id="Grupo_1162488" data-name="Grupo 1162488">
          <path id="Trazado_997203" data-name="Trazado 997203" d="M1253.853,251.387a2.8,2.8,0,0,1-.728-2.618l2.009-7.7-7.75-3.465-4.4,6.629a2.8,2.8,0,0,1-2.436,1.2h-.032a2.792,2.792,0,0,1-2.383-1.338l-4.022-6.862-7.93,3.03,1.579,7.8a2.79,2.79,0,0,1-.884,2.585l-.023.022a2.8,2.8,0,0,1-2.618.727l-7.7-2.009-3.465,7.75,6.629,4.4a2.8,2.8,0,0,1,1.2,2.436c0,.011,0,.021,0,.032a2.791,2.791,0,0,1-1.337,2.382l-6.862,4.022,3.03,7.93,7.8-1.579a2.792,2.792,0,0,1,2.586.884l.022.023a2.8,2.8,0,0,1,.727,2.618l-2.009,7.7,7.75,3.465,4.4-6.629a2.8,2.8,0,0,1,2.436-1.2h.032a2.791,2.791,0,0,1,2.382,1.338l4.022,6.862,7.93-3.03-1.579-7.8a2.792,2.792,0,0,1,.883-2.585l.023-.022a2.8,2.8,0,0,1,2.618-.727l7.7,2.009,3.465-7.75-6.629-4.4a2.8,2.8,0,0,1-1.2-2.436c0-.011,0-.021,0-.032a2.791,2.791,0,0,1,1.337-2.382l6.862-4.022-3.03-7.93-7.8,1.579a2.79,2.79,0,0,1-2.585-.884C1253.868,251.4,1253.859,251.395,1253.853,251.387Zm-8.041,15.739a6.367,6.367,0,1,1-3.214-8.411A6.367,6.367,0,0,1,1245.812,267.126Z" transform="translate(-1212.71 -237.239)" fill="#6445f1"/>
        </g>
      </g>
    </g>
    <g id="Popup_1_00000075143614770241179890000014779470968655688841_" transform="translate(125.911 119.915)">
      <g id="Grupo_1162491" data-name="Grupo 1162491" transform="translate(0 0)">
        <g id="Grupo_1162490" data-name="Grupo 1162490">
          <path id="Trazado_997204" data-name="Trazado 997204" d="M428.6,218.659H305.965a4.915,4.915,0,0,1-4.909-4.91V124.824a4.915,4.915,0,0,1,4.909-4.909H428.6a4.915,4.915,0,0,1,4.909,4.909V213.75A4.915,4.915,0,0,1,428.6,218.659ZM305.965,121.752a3.076,3.076,0,0,0-3.072,3.072V213.75a3.076,3.076,0,0,0,3.072,3.072H428.6a3.076,3.076,0,0,0,3.072-3.072V124.824a3.076,3.076,0,0,0-3.072-3.072Z" transform="translate(-301.056 -119.915)" fill="#6595f7"/>
        </g>
      </g>
      <g id="Grupo_1162493" data-name="Grupo 1162493" transform="translate(9.958 9.958)">
        <g id="Grupo_1162492" data-name="Grupo 1162492">
          <path id="Trazado_997205" data-name="Trazado 997205" d="M464.255,156.487v88.926a3.992,3.992,0,0,1-3.991,3.991H337.628a3.992,3.992,0,0,1-3.991-3.991V156.487a3.992,3.992,0,0,1,3.991-3.991H460.264A3.992,3.992,0,0,1,464.255,156.487Z" transform="translate(-333.637 -152.496)" fill="#6445f1"/>
        </g>
      </g>
      <g id="Grupo_1162495" data-name="Grupo 1162495" transform="translate(43.685 34.521)">
        <g id="Grupo_1162494" data-name="Grupo 1162494">
          <path id="Trazado_997206" data-name="Trazado 997206" d="M495.927,282.859h-39.8a12.134,12.134,0,0,1-12.134-12.134V245a12.134,12.134,0,0,1,12.134-12.134h39.8A12.134,12.134,0,0,1,508.061,245v25.724A12.134,12.134,0,0,1,495.927,282.859Z" transform="translate(-443.994 -232.867)" fill="#fff"/>
        </g>
      </g>
      <g id="Grupo_1162497" data-name="Grupo 1162497" transform="translate(51.275 49.415)">
        <g id="Grupo_1162496" data-name="Grupo 1162496">
          <path id="Trazado_997207" data-name="Trazado 997207" d="M468.829,293.609v-3.357l16.439-8.651v3.681l-8.1,3.992-5.114,2.555v.2l5.114,2.555,8.1,3.992v3.681Z" transform="translate(-468.829 -281.601)"/>
        </g>
      </g>
      <g id="Grupo_1162499" data-name="Grupo 1162499" transform="translate(69.465 42.055)">
        <g id="Grupo_1162498" data-name="Grupo 1162498">
          <path id="Trazado_997208" data-name="Trazado 997208" d="M538.576,257.52h2.277l-10.23,34.922h-2.278Z" transform="translate(-528.345 -257.52)"/>
        </g>
      </g>
      <g id="Grupo_1162501" data-name="Grupo 1162501" transform="translate(83.723 49.643)">
        <g id="Grupo_1162500" data-name="Grupo 1162500">
          <path id="Trazado_997209" data-name="Trazado 997209" d="M575,299.326l8.1-3.992,5.114-2.555v-.2l-5.114-2.555-8.1-3.992v-3.681L591.437,291v3.357L575,303.006Z" transform="translate(-574.998 -282.347)"/>
        </g>
      </g>
      <g id="Grupo_1162503" data-name="Grupo 1162503" transform="translate(9.958 9.958)">
        <g id="Grupo_1162502" data-name="Grupo 1162502">
          <path id="Trazado_997210" data-name="Trazado 997210" d="M464.255,156.487V167.6H333.637V156.487a3.992,3.992,0,0,1,3.991-3.991H460.264A3.992,3.992,0,0,1,464.255,156.487Z" transform="translate(-333.637 -152.496)" fill="#015566"/>
        </g>
      </g>
      <g id="Grupo_1162505" data-name="Grupo 1162505" transform="translate(14.583 14.184)">
        <g id="Grupo_1162504" data-name="Grupo 1162504" transform="translate(0 0)">
          <circle id="Elipse_12206" data-name="Elipse 12206" cx="2.252" cy="2.252" r="2.252" transform="translate(0 3.184) rotate(-45)" fill="#fff"/>
        </g>
      </g>
      <g id="Grupo_1162507" data-name="Grupo 1162507" transform="translate(22.908 14.667)">
        <g id="Grupo_1162506" data-name="Grupo 1162506" transform="translate(0 0)">
          <circle id="Elipse_12207" data-name="Elipse 12207" cx="2.252" cy="2.252" r="2.252" transform="translate(0 4.382) rotate(-76.714)" fill="#fff"/>
        </g>
      </g>
      <g id="Grupo_1162509" data-name="Grupo 1162509" transform="translate(30.752 14.668)">
        <g id="Grupo_1162508" data-name="Grupo 1162508" transform="translate(0 0)">
          <circle id="Elipse_12208" data-name="Elipse 12208" cx="2.252" cy="2.252" r="2.252" transform="translate(0 4.382) rotate(-76.714)" fill="#fff"/>
        </g>
      </g>
      <g id="Grupo_1162511" data-name="Grupo 1162511" transform="translate(15.517 31.386)">
        <g id="Grupo_1162510" data-name="Grupo 1162510">
          <rect id="Rectángulo_411948" data-name="Rectángulo 411948" width="22.541" height="4.649" fill="#fff"/>
        </g>
      </g>
      <g id="Grupo_1162513" data-name="Grupo 1162513" transform="translate(15.517 92.482)">
        <g id="Grupo_1162512" data-name="Grupo 1162512">
          <rect id="Rectángulo_411949" data-name="Rectángulo 411949" width="118.903" height="3.006" fill="#fff"/>
        </g>
      </g>
      <g id="Grupo_1162515" data-name="Grupo 1162515" transform="translate(15.517 98.244)">
        <g id="Grupo_1162514" data-name="Grupo 1162514">
          <rect id="Rectángulo_411950" data-name="Rectángulo 411950" width="69.86" height="3.006" fill="#fff"/>
        </g>
      </g>
    </g>
    <g id="Human_1_00000101786655610596354390000017310056409738122423_" transform="translate(320.505 203.045)">
      <g id="Grupo_1162517" data-name="Grupo 1162517" transform="translate(154.675 337.306)">
        <g id="Grupo_1162516" data-name="Grupo 1162516">
          <path id="Trazado_997211" data-name="Trazado 997211" d="M1468.771,1505.864V1495.58H1443.86l.275,11.134Z" transform="translate(-1443.86 -1495.58)" fill="#f59060"/>
        </g>
      </g>
      <g id="Grupo_1162519" data-name="Grupo 1162519" transform="translate(154.675 337.306)">
        <g id="Grupo_1162518" data-name="Grupo 1162518">
          <path id="Trazado_997212" data-name="Trazado 997212" d="M1468.771,1495.58l-24.814,2.57-.1-2.57Z" transform="translate(-1443.86 -1495.58)" fill="#090909"/>
        </g>
      </g>
      <g id="Grupo_1162523" data-name="Grupo 1162523" transform="translate(135.472 347.59)">
        <g id="Grupo_1162522" data-name="Grupo 1162522">
          <g id="Grupo_1162521" data-name="Grupo 1162521">
            <g id="Grupo_1162520" data-name="Grupo 1162520">
              <path id="Trazado_997213" data-name="Trazado 997213" d="M1427.337,1556.839,1427.3,1560l-46.276.055a13.122,13.122,0,0,1,.379-3.159,11.389,11.389,0,0,1,6.8-8.063,15.905,15.905,0,0,0,2.816-1.4c8.92-5.586,8.909-18.174,8.909-18.174l25.214-.03Z" transform="translate(-1381.028 -1529.228)" fill="#fcb913"/>
            </g>
          </g>
        </g>
      </g>
      <g id="Grupo_1162527" data-name="Grupo 1162527" transform="translate(135.472 375.2)">
        <g id="Grupo_1162526" data-name="Grupo 1162526">
          <g id="Grupo_1162525" data-name="Grupo 1162525">
            <g id="Grupo_1162524" data-name="Grupo 1162524">
              <path id="Trazado_997214" data-name="Trazado 997214" d="M1427.337,1619.57l-.033,3.158-46.276.055a13.12,13.12,0,0,1,.379-3.159Z" transform="translate(-1381.028 -1619.57)" fill="#090909"/>
            </g>
          </g>
        </g>
      </g>
      <g id="Grupo_1162531" data-name="Grupo 1162531" transform="translate(145.466 345.103)">
        <g id="Grupo_1162530" data-name="Grupo 1162530">
          <g id="Grupo_1162529" data-name="Grupo 1162529">
            <g id="Grupo_1162528" data-name="Grupo 1162528">
              <path id="Trazado_997215" data-name="Trazado 997215" d="M1427.924,1526.024c-1.176,6.089-5.081,21.156-14.2,15.759,8.92-5.586,8.908-18.174,8.908-18.174s.786-3.544,3.318-2.221a3.848,3.848,0,0,1,1.809,2.215A4.792,4.792,0,0,1,1427.924,1526.024Z" transform="translate(-1413.727 -1521.092)" fill="#fff"/>
            </g>
          </g>
        </g>
      </g>
      <g id="Grupo_1162535" data-name="Grupo 1162535" transform="translate(147.441 363.776)">
        <g id="Grupo_1162534" data-name="Grupo 1162534">
          <g id="Grupo_1162533" data-name="Grupo 1162533">
            <g id="Grupo_1162532" data-name="Grupo 1162532">
              <path id="Trazado_997216" data-name="Trazado 997216" d="M1426.765,1585.656a.265.265,0,0,0,.227-.137.331.331,0,0,0-.076-.425c-1.845-1.382-6.191-2.83-6.375-2.891a.27.27,0,0,0-.339.208.314.314,0,0,0,.185.381c.044.015,4.45,1.483,6.227,2.813A.242.242,0,0,0,1426.765,1585.656Z" transform="translate(-1420.191 -1582.19)" fill="#090909"/>
            </g>
          </g>
        </g>
      </g>
      <g id="Grupo_1162539" data-name="Grupo 1162539" transform="translate(150.767 359.57)">
        <g id="Grupo_1162538" data-name="Grupo 1162538">
          <g id="Grupo_1162537" data-name="Grupo 1162537">
            <g id="Grupo_1162536" data-name="Grupo 1162536">
              <path id="Trazado_997217" data-name="Trazado 997217" d="M1439.282,1570.324a.268.268,0,0,0,.237-.155.328.328,0,0,0-.1-.418c-2.5-1.6-7.857-1.305-8.084-1.292a.3.3,0,0,0-.258.322.286.286,0,0,0,.287.29c.054,0,5.429-.3,7.786,1.212A.244.244,0,0,0,1439.282,1570.324Z" transform="translate(-1431.074 -1568.429)" fill="#090909"/>
            </g>
          </g>
        </g>
      </g>
      <g id="Grupo_1162543" data-name="Grupo 1162543" transform="translate(152.966 353.759)">
        <g id="Grupo_1162542" data-name="Grupo 1162542">
          <g id="Grupo_1162541" data-name="Grupo 1162541">
            <g id="Grupo_1162540" data-name="Grupo 1162540">
              <path id="Trazado_997218" data-name="Trazado 997218" d="M1438.541,1550.664a.234.234,0,0,0,.057-.007,22.443,22.443,0,0,1,7.04-.506.28.28,0,0,0,.305-.265.3.3,0,0,0-.235-.344,22.458,22.458,0,0,0-7.225.516.309.309,0,0,0-.209.364A.283.283,0,0,0,1438.541,1550.664Z" transform="translate(-1438.268 -1549.416)" fill="#090909"/>
            </g>
          </g>
        </g>
      </g>
      <g id="Grupo_1162547" data-name="Grupo 1162547" transform="translate(154.062 348.03)">
        <g id="Grupo_1162546" data-name="Grupo 1162546">
          <g id="Grupo_1162545" data-name="Grupo 1162545">
            <g id="Grupo_1162544" data-name="Grupo 1162544">
              <path id="Trazado_997219" data-name="Trazado 997219" d="M1449.208,1531.483a.28.28,0,0,0,.262-.225.313.313,0,0,0-.19-.377c-1.49-.463-6.944-.021-7.175,0a.3.3,0,0,0-.252.328.287.287,0,0,0,.292.284c.056,0,5.591-.454,6.99-.019A.252.252,0,0,0,1449.208,1531.483Z" transform="translate(-1441.853 -1530.67)" fill="#090909"/>
            </g>
          </g>
        </g>
      </g>
      <g id="Grupo_1162551" data-name="Grupo 1162551" transform="translate(148.806 342.81)">
        <g id="Grupo_1162550" data-name="Grupo 1162550">
          <g id="Grupo_1162549" data-name="Grupo 1162549">
            <g id="Grupo_1162548" data-name="Grupo 1162548">
              <path id="Trazado_997220" data-name="Trazado 997220" d="M1424.921,1517.458a2.677,2.677,0,0,1,.1-2.5c.433-.918.981-1.385,1.645-1.369,2.075.031,4.305,4.936,4.552,5.495l.193.436-.433.008h-.1C1430.172,1519.53,1426,1519.448,1424.921,1517.458Zm.584-2.213a2.025,2.025,0,0,0-.119,1.892c.744,1.369,3.638,1.73,5.139,1.773-.782-1.63-2.523-4.688-3.865-4.708h-.013C1426.211,1514.2,1425.835,1514.546,1425.505,1515.245Z" transform="translate(-1424.658 -1513.588)" fill="#090909"/>
            </g>
          </g>
        </g>
      </g>
      <g id="Grupo_1162555" data-name="Grupo 1162555" transform="translate(150.988 348.208)">
        <g id="Grupo_1162554" data-name="Grupo 1162554">
          <g id="Grupo_1162553" data-name="Grupo 1162553">
            <g id="Grupo_1162552" data-name="Grupo 1162552">
              <path id="Trazado_997221" data-name="Trazado 997221" d="M1432.123,1534.846a1.9,1.9,0,0,1-.185-1.775c.7-1.523,3.715-1.766,4.057-1.789l.432-.028-.163.451c-.143.4-1.444,3.872-2.891,4.016-.033,0-.065,0-.1,0C1432.838,1535.727,1432.45,1535.43,1432.123,1534.846Zm.3-1.495a1.26,1.26,0,0,0,.161,1.167c.352.628.645.6.741.59.751-.074,1.7-1.825,2.253-3.168C1434.559,1532.074,1432.826,1532.475,1432.426,1533.352Z" transform="translate(-1431.795 -1531.253)" fill="#090909"/>
            </g>
          </g>
        </g>
      </g>
      <g id="Grupo_1162559" data-name="Grupo 1162559" transform="translate(154.912 348.244)">
        <g id="Grupo_1162558" data-name="Grupo 1162558">
          <g id="Grupo_1162557" data-name="Grupo 1162557">
            <g id="Grupo_1162556" data-name="Grupo 1162556">
              <path id="Trazado_997222" data-name="Trazado 997222" d="M1445.724,1541.308a.262.262,0,0,0,.212-.114c.118-.164,2.863-4.044.786-6.456-1.74-2.02-1.536-2.965-1.533-2.975a.321.321,0,0,0-.178-.38.262.262,0,0,0-.337.181c-.04.125-.336,1.285,1.658,3.6,1.741,2.022-.793,5.607-.819,5.643a.334.334,0,0,0,.041.431A.261.261,0,0,0,1445.724,1541.308Z" transform="translate(-1444.635 -1531.369)" fill="#090909"/>
            </g>
          </g>
        </g>
      </g>
      <g id="Grupo_1162561" data-name="Grupo 1162561" transform="translate(90.298 337.306)">
        <g id="Grupo_1162560" data-name="Grupo 1162560">
          <path id="Trazado_997223" data-name="Trazado 997223" d="M1260.17,1505.864l2.118-10.284h-27.072l-2,11.134Z" transform="translate(-1233.22 -1495.58)" fill="#f59060"/>
        </g>
      </g>
      <g id="Grupo_1162563" data-name="Grupo 1162563" transform="translate(92.294 337.306)">
        <g id="Grupo_1162562" data-name="Grupo 1162562">
          <path id="Trazado_997224" data-name="Trazado 997224" d="M1266.822,1495.58l-.532,2.57-26.54-2.57Z" transform="translate(-1239.75 -1495.58)" fill="#090909"/>
        </g>
      </g>
      <g id="Grupo_1162567" data-name="Grupo 1162567" transform="translate(62.959 347.59)">
        <g id="Grupo_1162566" data-name="Grupo 1162566">
          <g id="Grupo_1162565" data-name="Grupo 1162565">
            <g id="Grupo_1162564" data-name="Grupo 1162564">
              <path id="Trazado_997225" data-name="Trazado 997225" d="M1194.752,1556.839l-.687,3.158-50.3.055a13.858,13.858,0,0,1,1.062-3.159,15.618,15.618,0,0,1,9.048-8.063,22.472,22.472,0,0,0,3.348-1.4c10.844-5.586,13.423-18.174,13.423-18.174l27.406-.03Z" transform="translate(-1143.767 -1529.228)" fill="#fcb913"/>
            </g>
          </g>
        </g>
      </g>
      <g id="Grupo_1162571" data-name="Grupo 1162571" transform="translate(62.959 375.2)">
        <g id="Grupo_1162570" data-name="Grupo 1162570">
          <g id="Grupo_1162569" data-name="Grupo 1162569">
            <g id="Grupo_1162568" data-name="Grupo 1162568">
              <path id="Trazado_997226" data-name="Trazado 997226" d="M1194.752,1619.57l-.687,3.158-50.3.055a13.87,13.87,0,0,1,1.062-3.159Z" transform="translate(-1143.767 -1619.57)" fill="#090909"/>
            </g>
          </g>
        </g>
      </g>
      <g id="Grupo_1162575" data-name="Grupo 1162575" transform="translate(76.418 345.103)">
        <g id="Grupo_1162574" data-name="Grupo 1162574">
          <g id="Grupo_1162573" data-name="Grupo 1162573">
            <g id="Grupo_1162572" data-name="Grupo 1162572">
              <path id="Trazado_997227" data-name="Trazado 997227" d="M1206.475,1526.024c-2.531,6.089-9.878,21.156-18.673,15.759,10.844-5.586,13.423-18.174,13.423-18.174s1.584-3.544,4.063-2.221a2.97,2.97,0,0,1,1.509,2.215A4.439,4.439,0,0,1,1206.475,1526.024Z" transform="translate(-1187.802 -1521.092)" fill="#fff"/>
            </g>
          </g>
        </g>
      </g>
      <g id="Grupo_1162579" data-name="Grupo 1162579" transform="translate(78.912 363.776)">
        <g id="Grupo_1162578" data-name="Grupo 1162578">
          <g id="Grupo_1162577" data-name="Grupo 1162577">
            <g id="Grupo_1162576" data-name="Grupo 1162576">
              <path id="Trazado_997228" data-name="Trazado 997228" d="M1202.463,1585.656a.371.371,0,0,0,.275-.137.3.3,0,0,0,.005-.425c-1.721-1.382-6.145-2.83-6.332-2.891a.364.364,0,0,0-.411.208.259.259,0,0,0,.122.381c.045.015,4.531,1.483,6.187,2.813A.231.231,0,0,0,1202.463,1585.656Z" transform="translate(-1195.963 -1582.19)" fill="#090909"/>
            </g>
          </g>
        </g>
      </g>
      <g id="Grupo_1162583" data-name="Grupo 1162583" transform="translate(83.387 359.57)">
        <g id="Grupo_1162582" data-name="Grupo 1162582">
          <g id="Grupo_1162581" data-name="Grupo 1162581">
            <g id="Grupo_1162580" data-name="Grupo 1162580">
              <path id="Trazado_997229" data-name="Trazado 997229" d="M1219.209,1570.324a.373.373,0,0,0,.289-.155.288.288,0,0,0-.024-.418c-2.383-1.6-8.269-1.305-8.519-1.292a.392.392,0,0,0-.347.322.236.236,0,0,0,.251.29c.059,0,5.961-.3,8.211,1.212A.241.241,0,0,0,1219.209,1570.324Z" transform="translate(-1210.604 -1568.429)" fill="#090909"/>
            </g>
          </g>
        </g>
      </g>
      <g id="Grupo_1162587" data-name="Grupo 1162587" transform="translate(86.846 353.759)">
        <g id="Grupo_1162586" data-name="Grupo 1162586">
          <g id="Grupo_1162585" data-name="Grupo 1162585">
            <g id="Grupo_1162584" data-name="Grupo 1162584">
              <path id="Trazado_997230" data-name="Trazado 997230" d="M1222.165,1550.664a.292.292,0,0,0,.064-.007,27.762,27.762,0,0,1,7.755-.506.38.38,0,0,0,.386-.265.245.245,0,0,0-.185-.344,27.769,27.769,0,0,0-7.958.516.392.392,0,0,0-.3.364A.234.234,0,0,0,1222.165,1550.664Z" transform="translate(-1221.925 -1549.416)" fill="#090909"/>
            </g>
          </g>
        </g>
      </g>
      <g id="Grupo_1162591" data-name="Grupo 1162591" transform="translate(89.307 348.03)">
        <g id="Grupo_1162590" data-name="Grupo 1162590">
          <g id="Grupo_1162589" data-name="Grupo 1162589">
            <g id="Grupo_1162588" data-name="Grupo 1162588">
              <path id="Trazado_997231" data-name="Trazado 997231" d="M1237.913,1531.483a.386.386,0,0,0,.332-.225.257.257,0,0,0-.129-.377c-1.524-.463-7.541-.021-7.8,0a.393.393,0,0,0-.342.328.238.238,0,0,0,.259.284c.062,0,6.169-.454,7.6-.019A.259.259,0,0,0,1237.913,1531.483Z" transform="translate(-1229.974 -1530.67)" fill="#090909"/>
            </g>
          </g>
        </g>
      </g>
      <g id="Grupo_1162595" data-name="Grupo 1162595" transform="translate(84.157 342.81)">
        <g id="Grupo_1162594" data-name="Grupo 1162594">
          <g id="Grupo_1162593" data-name="Grupo 1162593">
            <g id="Grupo_1162592" data-name="Grupo 1162592">
              <path id="Trazado_997232" data-name="Trazado 997232" d="M1213.24,1517.458a2.671,2.671,0,0,1,.626-2.5,2.635,2.635,0,0,1,2.069-1.369c2.249.031,3.662,4.936,3.815,5.495l.12.436-.472.008h-.105C1218.521,1519.53,1214.007,1519.448,1213.24,1517.458Zm1.091-2.213a2.043,2.043,0,0,0-.519,1.892c.527,1.369,3.6,1.73,5.22,1.773-.514-1.63-1.776-4.688-3.23-4.708h-.014C1215.312,1514.2,1214.835,1514.546,1214.331,1515.245Z" transform="translate(-1213.125 -1513.588)" fill="#090909"/>
            </g>
          </g>
        </g>
      </g>
      <g id="Grupo_1162599" data-name="Grupo 1162599" transform="translate(85.497 348.208)">
        <g id="Grupo_1162598" data-name="Grupo 1162598">
          <g id="Grupo_1162597" data-name="Grupo 1162597">
            <g id="Grupo_1162596" data-name="Grupo 1162596">
              <path id="Trazado_997233" data-name="Trazado 997233" d="M1217.672,1534.846a1.771,1.771,0,0,1,.165-1.775c1.069-1.523,4.4-1.766,4.777-1.789l.475-.028-.27.451c-.237.4-2.366,3.872-3.968,4.016-.036,0-.072,0-.107,0C1218.268,1535.727,1217.907,1535.43,1217.672,1534.846Zm.635-1.495a1.156,1.156,0,0,0-.065,1.167c.253.628.578.6.684.59.831-.074,2.228-1.825,3.1-3.168C1220.887,1532.074,1218.922,1532.475,1218.307,1533.352Z" transform="translate(-1217.51 -1531.253)" fill="#090909"/>
            </g>
          </g>
        </g>
      </g>
      <g id="Grupo_1162603" data-name="Grupo 1162603" transform="translate(89.194 348.244)">
        <g id="Grupo_1162602" data-name="Grupo 1162602">
          <g id="Grupo_1162601" data-name="Grupo 1162601">
            <g id="Grupo_1162600" data-name="Grupo 1162600">
              <path id="Trazado_997234" data-name="Trazado 997234" d="M1229.846,1541.308a.367.367,0,0,0,.254-.114c.162-.164,3.944-4.044,2.184-6.456-1.475-2.02-1.058-2.965-1.054-2.975a.264.264,0,0,0-.116-.38.351.351,0,0,0-.4.181c-.069.125-.63,1.285,1.06,3.6,1.476,2.022-2.016,5.607-2.052,5.643a.313.313,0,0,0-.045.431A.252.252,0,0,0,1229.846,1541.308Z" transform="translate(-1229.606 -1531.369)" fill="#090909"/>
            </g>
          </g>
        </g>
      </g>
      <g id="Grupo_1162605" data-name="Grupo 1162605" transform="translate(91.253 144.297)">
        <g id="Grupo_1162604" data-name="Grupo 1162604">
          <path id="Trazado_997235" data-name="Trazado 997235" d="M1339.934,865.947s9.4,30,0,54.092-12.833,137.027-12.833,137.027h-32.6l4.142-154.026L1266.6,1057.066h-30.252l27.044-193.009Z" transform="translate(-1236.344 -864.057)" fill="#015566"/>
        </g>
      </g>
      <g id="Grupo_1162607" data-name="Grupo 1162607" transform="translate(174.045 149.388)">
        <g id="Grupo_1162606" data-name="Grupo 1162606">
          <path id="Trazado_997236" data-name="Trazado 997236" d="M1507.238,1068.632c0-.914-.241-91.81,9.578-130.034,5.105-19.873,5.341-34.477,4.641-43.229-.759-9.479-2.75-14.323-2.77-14.37l.678-.284c.083.2,2.048,4.968,2.821,14.547.711,8.815.48,23.521-4.658,43.52-9.8,38.133-9.558,128.935-9.555,129.848Z" transform="translate(-1507.237 -880.715)" fill="#090909"/>
        </g>
      </g>
      <g id="Grupo_1162611" data-name="Grupo 1162611" transform="translate(144.605 3.639)">
        <g id="Grupo_1162610" data-name="Grupo 1162610">
          <g id="Grupo_1162609" data-name="Grupo 1162609">
            <g id="Grupo_1162608" data-name="Grupo 1162608">
              <path id="Trazado_997237" data-name="Trazado 997237" d="M1411,427.24c.429,5.395,2.5,10.277,8,12.14l-.583,7.208a6.429,6.429,0,0,0,6,6.937c.3.018.6.023.893.011a8.481,8.481,0,0,0,8.126-8.557l.449-11.9,4.328-.8a4.779,4.779,0,0,0,3.737-3.208c.03-.1.06-.208.086-.317l.278-1.183a4.8,4.8,0,0,0-4.746-5.9s0-.064-.007-.18c-.078-1.92-1.1-18.553-13.226-17.632a13.614,13.614,0,0,0-12.119,10.638,48.271,48.271,0,0,0-1.3,10.354C1410.907,425.655,1410.935,426.452,1411,427.24Z" transform="translate(-1410.911 -403.824)" fill="#f59060"/>
            </g>
          </g>
        </g>
      </g>
      <g id="Grupo_1162615" data-name="Grupo 1162615" transform="translate(149.33 21.177)">
        <g id="Grupo_1162614" data-name="Grupo 1162614">
          <g id="Grupo_1162613" data-name="Grupo 1162613">
            <g id="Grupo_1162612" data-name="Grupo 1162612">
              <path id="Trazado_997238" data-name="Trazado 997238" d="M1427.584,469.271a1.151,1.151,0,0,1-.8-.373c-1.275-1.41.77-6.477,1.192-7.478a.347.347,0,0,1,.638.27c-.912,2.161-2.076,5.9-1.317,6.744.058.064.234.259.846.071a.346.346,0,1,1,.2.662A2.079,2.079,0,0,1,1427.584,469.271Z" transform="translate(-1426.371 -461.209)" fill="#090909"/>
            </g>
          </g>
        </g>
      </g>
      <g id="Grupo_1162619" data-name="Grupo 1162619" transform="translate(153.678 25.006)">
        <g id="Grupo_1162618" data-name="Grupo 1162618">
          <g id="Grupo_1162617" data-name="Grupo 1162617">
            <g id="Grupo_1162616" data-name="Grupo 1162616">
              <path id="Trazado_997239" data-name="Trazado 997239" d="M1440.6,475.249c-.039.9,1.245,1.693,2.867,1.763s2.97-.6,3.01-1.508-1.245-1.693-2.868-1.763S1440.638,474.346,1440.6,475.249Z" transform="translate(-1440.597 -473.736)" fill="#fc6d6d"/>
            </g>
          </g>
        </g>
      </g>
      <g id="Grupo_1162623" data-name="Grupo 1162623" transform="translate(144.605 24.165)">
        <g id="Grupo_1162622" data-name="Grupo 1162622">
          <g id="Grupo_1162621" data-name="Grupo 1162621">
            <g id="Grupo_1162620" data-name="Grupo 1162620">
              <path id="Trazado_997240" data-name="Trazado 997240" d="M1411,473.875a4.188,4.188,0,0,0,1.8.142c1.482-.185,2.6-1.007,2.5-1.831s-1.394-1.347-2.875-1.163a4.425,4.425,0,0,0-1.509.465C1410.907,472.291,1410.935,473.088,1411,473.875Z" transform="translate(-1410.91 -470.986)" fill="#fc6d6d"/>
            </g>
          </g>
        </g>
      </g>
      <g id="Grupo_1162627" data-name="Grupo 1162627" transform="translate(152.542 37.182)">
        <g id="Grupo_1162626" data-name="Grupo 1162626">
          <g id="Grupo_1162625" data-name="Grupo 1162625">
            <g id="Grupo_1162624" data-name="Grupo 1162624">
              <path id="Trazado_997241" data-name="Trazado 997241" d="M1437.027,515.59s3.348,1,7.157-2.013a7.812,7.812,0,0,1-7.3,3.822Z" transform="translate(-1436.88 -513.577)" fill="#090909"/>
            </g>
          </g>
        </g>
      </g>
      <g id="Grupo_1162633" data-name="Grupo 1162633" transform="translate(143.784)">
        <g id="Grupo_1162632" data-name="Grupo 1162632">
          <g id="Grupo_1162629" data-name="Grupo 1162629" transform="translate(23.577 31.365)">
            <g id="Grupo_1162628" data-name="Grupo 1162628">
              <path id="Trazado_997242" data-name="Trazado 997242" d="M1489.93,495.267a4.983,4.983,0,0,0,1.812-.724c-2.264,3.8-4.983,7.106-6.372,7.128l.213-5.6,4.332-.8A.124.124,0,0,0,1489.93,495.267Z" transform="translate(-1485.37 -494.543)" fill="#671e24"/>
            </g>
          </g>
          <g id="Grupo_1162631" data-name="Grupo 1162631">
            <g id="Grupo_1162630" data-name="Grupo 1162630">
              <path id="Trazado_997243" data-name="Trazado 997243" d="M1440.941,403.386a20.214,20.214,0,0,1-.4,15.31,4.8,4.8,0,0,0-4.828-5.291h-.018s-7.143,5.346-19.4-8.984a19.113,19.113,0,0,1-6.776,6.177h0c-.081.048-.162.1-.25.143a1.225,1.225,0,0,1-.667.126c-.655-.163-1.328-14.641,6.12-18.189,1.232-.587,2.553-.627,5.2-.709,4.137-.127,9.476-.291,14.409,3.071A18.55,18.55,0,0,1,1440.941,403.386Z" transform="translate(-1408.226 -391.917)" fill="#671e24"/>
            </g>
          </g>
        </g>
      </g>
      <g id="Grupo_1162637" data-name="Grupo 1162637" transform="translate(153.405 17.723)">
        <g id="Grupo_1162636" data-name="Grupo 1162636">
          <g id="Grupo_1162635" data-name="Grupo 1162635">
            <g id="Grupo_1162634" data-name="Grupo 1162634">
              <path id="Trazado_997244" data-name="Trazado 997244" d="M1446.766,451.7a9.047,9.047,0,0,0-1.561-.594,8.319,8.319,0,0,0-1.633-.291,5.776,5.776,0,0,0-1.6.128,4.427,4.427,0,0,0-1.4.636l-.031.02a.538.538,0,1,1-.59-.9l.024-.015a5.435,5.435,0,0,1,1.805-.689,6.679,6.679,0,0,1,1.877-.036,9.126,9.126,0,0,1,1.777.429,9.659,9.659,0,0,1,1.655.752.321.321,0,0,1-.3.566Z" transform="translate(-1439.704 -449.907)" fill="#671e24"/>
            </g>
          </g>
        </g>
      </g>
      <g id="Grupo_1162641" data-name="Grupo 1162641" transform="translate(142.844 17.777)">
        <g id="Grupo_1162640" data-name="Grupo 1162640">
          <g id="Grupo_1162639" data-name="Grupo 1162639">
            <g id="Grupo_1162638" data-name="Grupo 1162638">
              <path id="Trazado_997245" data-name="Trazado 997245" d="M1405.333,450.969a9.674,9.674,0,0,1,1.714-.606,9.126,9.126,0,0,1,1.808-.274,6.683,6.683,0,0,1,1.867.2,5.432,5.432,0,0,1,1.739.843.538.538,0,1,1-.62.878l-.021-.016-.031-.024a4.414,4.414,0,0,0-1.344-.755,5.783,5.783,0,0,0-1.581-.266,8.341,8.341,0,0,0-1.652.148,9.058,9.058,0,0,0-1.607.457l-.016.006a.322.322,0,0,1-.417-.18A.326.326,0,0,1,1405.333,450.969Z" transform="translate(-1405.149 -450.085)" fill="#671e24"/>
            </g>
          </g>
        </g>
      </g>
      <g id="Grupo_1162645" data-name="Grupo 1162645" transform="translate(155.538 20.797)">
        <g id="Grupo_1162644" data-name="Grupo 1162644">
          <g id="Grupo_1162643" data-name="Grupo 1162643">
            <g id="Grupo_1162642" data-name="Grupo 1162642">
              <path id="Trazado_997246" data-name="Trazado 997246" d="M1446.686,461.17c-.03.685.311,1.255.761,1.275s.839-.52.868-1.2-.311-1.255-.761-1.275S1446.714,460.486,1446.686,461.17Z" transform="translate(-1446.684 -459.965)" fill="#090909"/>
            </g>
          </g>
        </g>
      </g>
      <g id="Grupo_1162649" data-name="Grupo 1162649" transform="translate(146.211 20.392)">
        <g id="Grupo_1162648" data-name="Grupo 1162648">
          <g id="Grupo_1162647" data-name="Grupo 1162647">
            <g id="Grupo_1162646" data-name="Grupo 1162646">
              <path id="Trazado_997247" data-name="Trazado 997247" d="M1416.166,459.846c-.03.685.311,1.255.761,1.275s.839-.52.868-1.2-.311-1.255-.761-1.275S1416.2,459.162,1416.166,459.846Z" transform="translate(-1416.164 -458.641)" fill="#090909"/>
            </g>
          </g>
        </g>
      </g>
      <g id="Grupo_1162653" data-name="Grupo 1162653" transform="translate(170.439 23.544)">
        <g id="Grupo_1162652" data-name="Grupo 1162652">
          <g id="Grupo_1162651" data-name="Grupo 1162651">
            <g id="Grupo_1162650" data-name="Grupo 1162650">
              <path id="Trazado_997248" data-name="Trazado 997248" d="M1498.586,474.646l-.653-.231c.544-1.538.534-2.734-.028-3.556a3.41,3.41,0,0,0-2.463-1.214l.018-.692a4.046,4.046,0,0,1,3.013,1.51C1499.172,471.478,1499.209,472.885,1498.586,474.646Z" transform="translate(-1495.441 -468.953)" fill="#090909"/>
            </g>
          </g>
        </g>
      </g>
      <g id="Grupo_1162655" data-name="Grupo 1162655" transform="translate(150.64 31.234)">
        <g id="Grupo_1162654" data-name="Grupo 1162654">
          <path id="Trazado_997249" data-name="Trazado 997249" d="M1435.463,494.136a.5.5,0,0,1,.62.622,3.27,3.27,0,0,1-2.5,2.347,3.232,3.232,0,0,1-2.775-.828.5.5,0,0,1,.21-.835Z" transform="translate(-1430.657 -494.116)" fill="#e52039"/>
        </g>
      </g>
      <g id="Grupo_1162657" data-name="Grupo 1162657" transform="translate(175.83 2.825)">
        <g id="Grupo_1162656" data-name="Grupo 1162656">
          <path id="Trazado_997250" data-name="Trazado 997250" d="M1513.749,409.8c.216-.606,2.4-6.43,8.512-8.176a12.509,12.509,0,0,1,10.454,1.724c1.606,1.129,5.841,4.463,5.875,16.615.089,32.089-9.921,38.338-9.921,38.338a68.285,68.285,0,0,1-2.705-9.484c-3.442-16.516.732-27.462-4.659-31.014-1.034-.682-2.883-1.4-6.222-.684C1515.084,417.124,1511.674,411.462,1513.749,409.8Z" transform="translate(-1513.079 -401.161)" fill="#671e24"/>
        </g>
      </g>
      <g id="Grupo_1162659" data-name="Grupo 1162659" transform="translate(176.206 11.085)">
        <g id="Grupo_1162658" data-name="Grupo 1162658">
          <path id="Trazado_997251" data-name="Trazado 997251" d="M1515.024,428.349c1.263,1.692,2.976,4.919,1.365,8.578a.4.4,0,0,1-.761-.1c-.257-1.92-.786-5.668-1.31-8.159A.4.4,0,0,1,1515.024,428.349Z" transform="translate(-1514.308 -428.188)" fill="#6595f7"/>
        </g>
      </g>
      <g id="Grupo_1162661" data-name="Grupo 1162661" transform="translate(148.669 40.247)">
        <g id="Grupo_1162660" data-name="Grupo 1162660">
          <path id="Trazado_997252" data-name="Trazado 997252" d="M1442.985,523.606h-16.3a2.48,2.48,0,0,0-2.48,2.48v4.991h21.259v-4.991A2.482,2.482,0,0,0,1442.985,523.606Z" transform="translate(-1424.207 -523.606)" fill="#fcb913"/>
        </g>
      </g>
      <g id="Grupo_1162663" data-name="Grupo 1162663" transform="translate(25.251 46.874)">
        <g id="Grupo_1162662" data-name="Grupo 1162662">
          <path id="Trazado_997253" data-name="Trazado 997253" d="M1212.555,635.468a77.44,77.44,0,0,1-14.683.647,39.528,39.528,0,0,1-6.342-.889c-.687-.162-1.36-.342-2.01-.544l.459,9.921s-11.28,5.519-28.131,7.051a90.62,90.62,0,0,1-32.691-2.884,88.952,88.952,0,0,1-15.727-6.059V598.67l-.011.011c-.463.489-15.329,16.127-27.028,25.177a16.027,16.027,0,0,1-15.789,2.234c-11.42-4.564-32.94-14.605-50.217-31.092l11-17.008s29.792,11.339,40.333,17.953c0,0,21.947-31.008,37.842-42.376a24.93,24.93,0,0,1,9.722-4.193c4.185-.819,11.75-2.146,20.988-3.061a188.628,188.628,0,0,1,27.051-.86,115.509,115.509,0,0,1,20.286,2.6,25.144,25.144,0,0,1,13.172,7.9c7.911,8.925,21.785,28.068,27.33,57.32C1230.128,623.909,1222.985,634.12,1212.555,635.468Z" transform="translate(-1020.386 -545.288)" fill="#fcb913"/>
        </g>
      </g>
      <g id="Grupo_1162665" data-name="Grupo 1162665" transform="translate(138.649 48.411)">
        <g id="Grupo_1162664" data-name="Grupo 1162664">
          <path id="Trazado_997254" data-name="Trazado 997254" d="M1391.971,653.5l-.549-.042c.247-3.214.446-6.384.661-9.9l3.13-51.011c.328-5.355.668-10.893,1.465-16.352a97.7,97.7,0,0,1,7.55-25.882l.5.226a97.155,97.155,0,0,0-7.508,25.736c-.794,5.436-1.133,10.962-1.46,16.306l-3.131,51.011C1392.418,647.113,1392.219,650.285,1391.971,653.5Z" transform="translate(-1391.422 -550.318)" fill="#fff"/>
        </g>
      </g>
      <g id="Grupo_1162667" data-name="Grupo 1162667" transform="translate(144.031 49.329)">
        <g id="Grupo_1162666" data-name="Grupo 1162666">
          <path id="Trazado_997255" data-name="Trazado 997255" d="M1409.141,656.59c-.251-15.7-.23-34.255,1.821-52.779,2.128-19.212,6.156-35.727,12.317-50.489l.508.212c-12.582,30.15-14.734,63-14.1,103.047Z" transform="translate(-1409.031 -553.322)" fill="#fff"/>
        </g>
      </g>
      <g id="Grupo_1162669" data-name="Grupo 1162669" transform="translate(153.144 48.872)">
        <g id="Grupo_1162668" data-name="Grupo 1162668">
          <path id="Trazado_997256" data-name="Trazado 997256" d="M1439.4,656.482l-.55-.035,1.587-25.033c1.665-26.308,3.387-53.512,10-79.589l.534.135c-6.6,26.027-8.319,53.205-9.983,79.488Z" transform="translate(-1438.85 -551.825)" fill="#fff"/>
        </g>
      </g>
      <g id="Grupo_1162671" data-name="Grupo 1162671" transform="translate(159.856 46.8)">
        <g id="Grupo_1162670" data-name="Grupo 1162670">
          <path id="Trazado_997257" data-name="Trazado 997257" d="M1461.362,651.882l-.549-.047.331-3.866q3-34.96,6.011-69.919c.183-2.129.34-4.3.508-6.6.656-9.014,1.334-18.335,3.576-26.406l.531.147c-2.228,8.018-2.9,17.311-3.558,26.3-.167,2.3-.325,4.47-.508,6.6q-3.009,34.959-6.011,69.919Z" transform="translate(-1460.813 -545.048)" fill="#fff"/>
        </g>
      </g>
      <g id="Grupo_1162673" data-name="Grupo 1162673" transform="translate(159.556 47.04)">
        <g id="Grupo_1162672" data-name="Grupo 1162672">
          <path id="Trazado_997258" data-name="Trazado 997258" d="M1517.693,635.846a77.441,77.441,0,0,1-14.683.647,36.5,36.5,0,0,1-8.352-1.433q3.48,25.981,6.959,51.963c-19.25,9.921-41.789,0-41.789,0a304.314,304.314,0,0,0,7.158-34.991c1.955-13.786,2.973-29.141.65-41.068-5.3-27.245,4.086-62.442,4.825-65.132a115.515,115.515,0,0,1,20.286,2.6,25.145,25.145,0,0,1,13.172,7.9c7.911,8.925,21.785,28.068,27.33,57.32C1535.267,624.286,1528.124,634.5,1517.693,635.846Z" transform="translate(-1459.829 -545.832)" fill="#ff4655"/>
        </g>
      </g>
      <g id="Grupo_1162677" data-name="Grupo 1162677" transform="translate(0 54.402)">
        <g id="Grupo_1162676" data-name="Grupo 1162676">
          <g id="Grupo_1162675" data-name="Grupo 1162675">
            <g id="Grupo_1162674" data-name="Grupo 1162674">
              <path id="Trazado_997259" data-name="Trazado 997259" d="M979.251,600.372s-10.635-5.386-19.37-26.186a.763.763,0,0,0-1.44.084,34.487,34.487,0,0,0-1.26,10.816.4.4,0,0,1-.684.3c-2.29-2.383-9.109-9.614-12.958-15.138a.763.763,0,0,0-1.367.615,27.914,27.914,0,0,0,5.3,10.154.377.377,0,0,1-.529.531,67.193,67.193,0,0,1-7.473-6.749.762.762,0,0,0-1.274.789,27.221,27.221,0,0,0,6.551,9.385.378.378,0,0,1-.443.6,36.993,36.993,0,0,1-5.293-3.453.762.762,0,0,0-1.122,1,25.748,25.748,0,0,0,6.911,7.15.379.379,0,0,1-.282.685,15.476,15.476,0,0,1-3.447-1.084.761.761,0,0,0-.9,1.184c3.9,4.548,12.975,13.378,31.435,23.9Z" transform="translate(-937.764 -569.921)" fill="#f59060"/>
            </g>
          </g>
        </g>
      </g>
      <g id="Grupo_1162681" data-name="Grupo 1162681" transform="translate(11.256 72.349)">
        <g id="Grupo_1162680" data-name="Grupo 1162680">
          <g id="Grupo_1162679" data-name="Grupo 1162679">
            <g id="Grupo_1162678" data-name="Grupo 1162678">
              <path id="Trazado_997260" data-name="Trazado 997260" d="M982.8,639.651c-1.732-4.582.68-10.517.705-10.576l.17-.412-.445-.018c-.187-.008-4.618-.117-8.632,6.193l.525.334c3.078-4.838,6.434-5.714,7.629-5.871-.552,1.527-2.086,6.467-.535,10.57Z" transform="translate(-974.593 -628.643)" fill="#090909"/>
            </g>
          </g>
        </g>
      </g>
      <g id="Grupo_1162683" data-name="Grupo 1162683" transform="translate(25.294 47.899)">
        <g id="Grupo_1162682" data-name="Grupo 1162682">
          <path id="Trazado_997261" data-name="Trazado 997261" d="M1132.721,602.994c2.587,8.458-.084,29.292-3.424,48.1-3.38,19.026-7.44,35.987-7.44,35.987s-9.447,5.67-20.312,3.307L1113.571,601l-.011.011c-.463.489-15.33,16.127-27.028,25.177a16.027,16.027,0,0,1-15.789,2.234c-11.42-4.563-32.941-14.605-50.218-31.092l11-17.009s29.792,11.339,40.333,17.953c0,0,21.947-31.008,37.842-42.376a24.933,24.933,0,0,1,9.722-4.193c4.185-.819,11.75-2.146,20.988-3.061C1140.411,548.643,1127.526,585.989,1132.721,602.994Z" transform="translate(-1020.525 -548.642)" fill="#ff4655"/>
        </g>
      </g>
      <g id="Grupo_1162685" data-name="Grupo 1162685" transform="translate(117.93 79.812)">
        <g id="Grupo_1162684" data-name="Grupo 1162684">
          <rect id="Rectángulo_411951" data-name="Rectángulo 411951" width="0.735" height="20.442" fill="#090909"/>
        </g>
      </g>
      <g id="Grupo_1162687" data-name="Grupo 1162687" transform="translate(93.458 90.684)">
        <g id="Grupo_1162686" data-name="Grupo 1162686">
          <path id="Trazado_997262" data-name="Trazado 997262" d="M1301.8,729.588h-47.274a7.973,7.973,0,0,1-7.7-6.9l-3.218-27.157a6,6,0,0,1,6.065-6.9h47.275a7.973,7.973,0,0,1,7.7,6.9l3.218,27.157A6,6,0,0,1,1301.8,729.588Z" transform="translate(-1243.557 -688.635)" fill="#090909"/>
        </g>
      </g>
      <g id="Grupo_1162689" data-name="Grupo 1162689" transform="translate(91.253 90.684)">
        <g id="Grupo_1162688" data-name="Grupo 1162688">
          <path id="Trazado_997263" data-name="Trazado 997263" d="M1294.586,729.588h-47.275a7.973,7.973,0,0,1-7.7-6.9l-3.218-27.157a6,6,0,0,1,6.065-6.9h47.275a7.973,7.973,0,0,1,7.7,6.9l3.218,27.157A6,6,0,0,1,1294.586,729.588Z" transform="translate(-1236.345 -688.635)" fill="#6595f7"/>
        </g>
      </g>
      <g id="Grupo_1162691" data-name="Grupo 1162691" transform="translate(115.31 103.66)">
        <g id="Grupo_1162690" data-name="Grupo 1162690" transform="translate(0 0)">
          <ellipse id="Elipse_12209" data-name="Elipse 12209" cx="5.752" cy="6.502" rx="5.752" ry="6.502" transform="translate(0 2.221) rotate(-11.134)" fill="#fff"/>
        </g>
      </g>
      <g id="Grupo_1162695" data-name="Grupo 1162695" transform="translate(123.918 102.962)">
        <g id="Grupo_1162694" data-name="Grupo 1162694">
          <g id="Grupo_1162693" data-name="Grupo 1162693">
            <g id="Grupo_1162692" data-name="Grupo 1162692">
              <path id="Trazado_997264" data-name="Trazado 997264" d="M1390.58,757.4q-4.355.127-8.2.07c-15.013-.2-24.258-2.286-28.979-3.763a.761.761,0,0,1,.136-1.481,15.382,15.382,0,0,0,3.5-.908.38.38,0,0,0-.121-.731,25.7,25.7,0,0,1-9.649-2.4.762.762,0,0,1,.422-1.44,36.994,36.994,0,0,0,6.32.125.378.378,0,0,0,.055-.746,27.219,27.219,0,0,1-10.527-4.49.762.762,0,0,1,.661-1.345,67.047,67.047,0,0,0,9.914,1.767.378.378,0,0,0,.169-.731,27.927,27.927,0,0,1-9.873-5.805.763.763,0,0,1,.834-1.246c6.191,2.645,15.8,5.166,19.008,5.975a.4.4,0,0,0,.423-.617,34.474,34.474,0,0,1-4.663-9.84.762.762,0,0,1,1.176-.834c8.723,6.162,15.976,9.167,21.2,10.623a37.648,37.648,0,0,0,6.184,1.22Z" transform="translate(-1343.224 -728.807)" fill="#f59060"/>
            </g>
          </g>
        </g>
      </g>
      <g id="Grupo_1162697" data-name="Grupo 1162697" transform="translate(163.074 109.503)">
        <g id="Grupo_1162696" data-name="Grupo 1162696">
          <path id="Trazado_997265" data-name="Trazado 997265" d="M1479.9,775.22l-8.557-1.2V750.991l5.523-.779.663,5.446,2.014,16.6Z" transform="translate(-1471.34 -750.212)" fill="#ff4655"/>
        </g>
      </g>
      <g id="Grupo_1162699" data-name="Grupo 1162699" transform="translate(162.707 107.789)">
        <g id="Grupo_1162698" data-name="Grupo 1162698">
          <path id="Trazado_997266" data-name="Trazado 997266" d="M1501.147,773.451c-11.858,0-30.5-2.93-30.695-2.961l-.31-.049V746.813l.274-.072c6.7-1.763,40.465-2.123,41.9-2.138l.008.735c-.346,0-34.205.364-41.445,2.046v22.428c2.538.39,20,3.007,30.939,2.9l.007.735C1501.6,773.45,1501.376,773.451,1501.147,773.451Z" transform="translate(-1470.142 -744.603)" fill="#090909"/>
        </g>
      </g>
      <g id="Grupo_1162701" data-name="Grupo 1162701" transform="translate(187.176 79.691)">
        <g id="Grupo_1162700" data-name="Grupo 1162700" transform="translate(0 0)">
          <rect id="Rectángulo_411952" data-name="Rectángulo 411952" width="0.735" height="29.397" transform="matrix(0.964, -0.265, 0.265, 0.964, 0, 0.195)" fill="#090909"/>
        </g>
      </g>
      <g id="Grupo_1162703" data-name="Grupo 1162703" transform="translate(153.187 165.084)">
        <g id="Grupo_1162702" data-name="Grupo 1162702">
          <rect id="Rectángulo_411953" data-name="Rectángulo 411953" width="0.735" height="18.196" fill="#090909"/>
        </g>
      </g>
      <g id="Grupo_1162705" data-name="Grupo 1162705" transform="translate(113.117 167.608)">
        <g id="Grupo_1162704" data-name="Grupo 1162704" transform="translate(0 0)">
          <rect id="Rectángulo_411954" data-name="Rectángulo 411954" width="174.295" height="0.735" transform="matrix(0.23, -0.973, 0.973, 0.23, 0, 169.624)" fill="#090909"/>
        </g>
      </g>
      <g id="Grupo_1162707" data-name="Grupo 1162707" transform="translate(148.551 46.725)">
        <g id="Grupo_1162706" data-name="Grupo 1162706">
          <path id="Trazado_997267" data-name="Trazado 997267" d="M1435.029,547.923a38.958,38.958,0,0,1-11.207-1.779l.234-.7c.128.043,12.87,4.228,20.953-.646l.379.63A20.074,20.074,0,0,1,1435.029,547.923Z" transform="translate(-1423.822 -544.801)" fill="#090909"/>
        </g>
      </g>
      <g id="Grupo_1162709" data-name="Grupo 1162709" transform="translate(183.535 152.092)">
        <g id="Grupo_1162708" data-name="Grupo 1162708">
          <path id="Trazado_997268" data-name="Trazado 997268" d="M1549.291,912.172a8.637,8.637,0,0,1-6.071-2.293c-5.829-5.388-4.9-18.263-4.853-18.808l.024-.308,12.763-1.2.069.732-12.142,1.145c-.105,2-.448,13.2,4.638,17.9a8.445,8.445,0,0,0,7.412,1.946l.115.726A12.557,12.557,0,0,1,1549.291,912.172Z" transform="translate(-1538.289 -889.56)" fill="#090909"/>
        </g>
      </g>
      <g id="Grupo_1162711" data-name="Grupo 1162711" transform="translate(110.621 146.217)">
        <g id="Grupo_1162710" data-name="Grupo 1162710">
          <path id="Trazado_997269" data-name="Trazado 997269" d="M1299.982,893.564l-.268-.684c4.713-1.844,7.487-18.552,7.964-21.655l-6.629,1.064-.116-.725,7.615-1.223-.069.492C1308.365,871.671,1305.553,891.385,1299.982,893.564Z" transform="translate(-1299.714 -870.34)" fill="#090909"/>
        </g>
      </g>
      <g id="Grupo_1162713" data-name="Grupo 1162713" transform="translate(24.626 80.316)">
        <g id="Grupo_1162712" data-name="Grupo 1162712">
          <path id="Trazado_997270" data-name="Trazado 997270" d="M1029.529,654.71l-11.189,13.529,1.724,1.1Z" transform="translate(-1018.34 -654.71)" fill="#090909"/>
        </g>
      </g>
      <g id="Grupo_1162715" data-name="Grupo 1162715" transform="translate(95.638 94.693)">
        <g id="Grupo_1162714" data-name="Grupo 1162714">
          <circle id="Elipse_12210" data-name="Elipse 12210" cx="1.339" cy="1.339" r="1.339" fill="#090909"/>
        </g>
      </g>
      <g id="Grupo_1162717" data-name="Grupo 1162717" transform="translate(99.968 94.693)">
        <g id="Grupo_1162716" data-name="Grupo 1162716">
          <path id="Trazado_997271" data-name="Trazado 997271" d="M1267.537,703.092a1.339,1.339,0,1,1-1.339-1.339A1.339,1.339,0,0,1,1267.537,703.092Z" transform="translate(-1264.86 -701.753)" fill="#090909"/>
        </g>
      </g>
    </g>
    <g id="Human_2_00000162349932953817084980000006352603485578182312_" transform="translate(48.823 204.427)">
      <g id="Grupo_1162762" data-name="Grupo 1162762" transform="translate(0 334.427)">
        <g id="Grupo_1162719" data-name="Grupo 1162719" transform="translate(27.749)">
          <g id="Grupo_1162718" data-name="Grupo 1162718">
            <path id="Trazado_997272" data-name="Trazado 997272" d="M167.127,1502.44l4.207-11.76H142.793l-3.176,12.7Z" transform="translate(-139.617 -1490.68)" fill="#f59060"/>
          </g>
        </g>
        <g id="Grupo_1162721" data-name="Grupo 1162721" transform="translate(30.925)">
          <g id="Grupo_1162720" data-name="Grupo 1162720">
            <path id="Trazado_997273" data-name="Trazado 997273" d="M178.549,1490.68l-1.08,3.02-27.461-3.02Z" transform="translate(-150.008 -1490.68)" fill="#090909"/>
          </g>
        </g>
        <g id="Grupo_1162725" data-name="Grupo 1162725" transform="translate(0.001 11.761)">
          <g id="Grupo_1162724" data-name="Grupo 1162724">
            <g id="Grupo_1162723" data-name="Grupo 1162723">
              <g id="Grupo_1162722" data-name="Grupo 1162722">
                <path id="Trazado_997274" data-name="Trazado 997274" d="M96.323,1557.065l-1.09,2.893-46.408.05a12.608,12.608,0,0,1,.989-2.892,15.069,15.069,0,0,1,8.667-7.644,22.114,22.114,0,0,0,3.255-1.365c10.822-5.577,14.449-18.91,14.449-18.91l27.9-.033Z" transform="translate(-48.825 -1529.163)" fill="#6445f1"/>
              </g>
            </g>
          </g>
        </g>
        <g id="Grupo_1162729" data-name="Grupo 1162729" transform="translate(0 39.664)">
          <g id="Grupo_1162728" data-name="Grupo 1162728">
            <g id="Grupo_1162727" data-name="Grupo 1162727">
              <g id="Grupo_1162726" data-name="Grupo 1162726">
                <path id="Trazado_997275" data-name="Trazado 997275" d="M96.321,1620.46l-1.09,2.893-46.408.05a12.593,12.593,0,0,1,.989-2.892Z" transform="translate(-48.823 -1620.46)" fill="#090909"/>
              </g>
            </g>
          </g>
        </g>
        <g id="Grupo_1162733" data-name="Grupo 1162733" transform="translate(12.911 8.987)">
          <g id="Grupo_1162732" data-name="Grupo 1162732">
            <g id="Grupo_1162731" data-name="Grupo 1162731">
              <g id="Grupo_1162730" data-name="Grupo 1162730">
                <path id="Trazado_997276" data-name="Trazado 997276" d="M110.6,1525.537c-3.149,6.482-11.45,21.47-19.529,16.265,10.822-5.577,14.449-18.91,14.449-18.91s1.96-3.959,4.371-2.47a2.946,2.946,0,0,1,1.3,2.464A5.529,5.529,0,0,1,110.6,1525.537Z" transform="translate(-91.069 -1520.087)" fill="#fff"/>
              </g>
            </g>
          </g>
        </g>
        <g id="Grupo_1162737" data-name="Grupo 1162737" transform="translate(15.382 28.712)">
          <g id="Grupo_1162736" data-name="Grupo 1162736">
            <g id="Grupo_1162735" data-name="Grupo 1162735">
              <g id="Grupo_1162734" data-name="Grupo 1162734">
                <path id="Trazado_997277" data-name="Trazado 997277" d="M105.21,1588.033a.381.381,0,0,0,.272-.133.3.3,0,0,0,.034-.414c-1.558-1.354-5.735-2.785-5.913-2.846a.367.367,0,0,0-.407.206.251.251,0,0,0,.1.377c.043.015,4.273,1.461,5.772,2.76A.227.227,0,0,0,105.21,1588.033Z" transform="translate(-99.153 -1584.627)" fill="#090909"/>
              </g>
            </g>
          </g>
        </g>
        <g id="Grupo_1162741" data-name="Grupo 1162741" transform="translate(19.963 24.477)">
          <g id="Grupo_1162740" data-name="Grupo 1162740">
            <g id="Grupo_1162739" data-name="Grupo 1162739">
              <g id="Grupo_1162738" data-name="Grupo 1162738">
                <path id="Trazado_997278" data-name="Trazado 997278" d="M122.415,1572.692a.4.4,0,0,0,.3-.156.3.3,0,0,0,.014-.423c-2.186-1.629-7.972-1.326-8.217-1.313a.424.424,0,0,0-.36.329.222.222,0,0,0,.227.3c.058,0,5.846-.3,7.909,1.227A.213.213,0,0,0,122.415,1572.692Z" transform="translate(-114.14 -1570.77)" fill="#090909"/>
              </g>
            </g>
          </g>
        </g>
        <g id="Grupo_1162745" data-name="Grupo 1162745" transform="translate(23.743 18.431)">
          <g id="Grupo_1162744" data-name="Grupo 1162744">
            <g id="Grupo_1162743" data-name="Grupo 1162743">
              <g id="Grupo_1162742" data-name="Grupo 1162742">
                <path id="Trazado_997279" data-name="Trazado 997279" d="M126.73,1552.306a.3.3,0,0,0,.064-.007,26.586,26.586,0,0,1,7.755-.533.428.428,0,0,0,.412-.28c.073-.177.007-.34-.149-.363a26.624,26.624,0,0,0-7.973.545.45.45,0,0,0-.329.385A.219.219,0,0,0,126.73,1552.306Z" transform="translate(-126.509 -1550.988)" fill="#090909"/>
              </g>
            </g>
          </g>
        </g>
        <g id="Grupo_1162749" data-name="Grupo 1162749" transform="translate(26.726 12.246)">
          <g id="Grupo_1162748" data-name="Grupo 1162748">
            <g id="Grupo_1162747" data-name="Grupo 1162747">
              <g id="Grupo_1162746" data-name="Grupo 1162746">
                <path id="Trazado_997280" data-name="Trazado 997280" d="M144.3,1531.641a.45.45,0,0,0,.362-.247c.1-.179.059-.365-.087-.414-1.5-.51-7.657-.023-7.919,0a.461.461,0,0,0-.376.361.233.233,0,0,0,.237.311c.063-.005,6.3-.5,7.705-.021A.218.218,0,0,0,144.3,1531.641Z" transform="translate(-136.27 -1530.748)" fill="#090909"/>
              </g>
            </g>
          </g>
        </g>
        <g id="Grupo_1162753" data-name="Grupo 1162753" transform="translate(21.684 6.396)">
          <g id="Grupo_1162752" data-name="Grupo 1162752">
            <g id="Grupo_1162751" data-name="Grupo 1162751">
              <g id="Grupo_1162750" data-name="Grupo 1162750">
                <path id="Trazado_997281" data-name="Trazado 997281" d="M119.849,1515.964a3.34,3.34,0,0,1,.829-2.8c.752-1.04,1.5-1.573,2.246-1.553,2.324.035,3.314,5.535,3.418,6.151l.08.478-.479.008h-.107C125.053,1518.25,120.482,1518.161,119.849,1515.964Zm1.285-2.475a2.56,2.56,0,0,0-.677,2.121c.433,1.517,3.526,1.914,5.171,1.962-.374-1.8-1.395-5.24-2.894-5.262h-.015C122.227,1512.309,121.708,1512.7,121.134,1513.488Z" transform="translate(-119.773 -1511.608)" fill="#090909"/>
              </g>
            </g>
          </g>
        </g>
        <g id="Grupo_1162757" data-name="Grupo 1162757" transform="translate(22.674 12.441)">
          <g id="Grupo_1162756" data-name="Grupo 1162756">
            <g id="Grupo_1162755" data-name="Grupo 1162755">
              <g id="Grupo_1162754" data-name="Grupo 1162754">
                <path id="Trazado_997282" data-name="Trazado 997282" d="M123.123,1535.291a2.08,2.08,0,0,1,.3-1.917c1.2-1.662,4.606-1.93,4.99-1.955l.486-.031-.317.495c-.278.433-2.73,4.191-4.345,4.344-.036,0-.072.005-.108.005C123.653,1536.232,123.315,1535.917,123.123,1535.291Zm.753-1.611a1.353,1.353,0,0,0-.157,1.261c.205.675.533.643.64.633.84-.079,2.394-1.967,3.4-3.431C126.591,1532.286,124.569,1532.724,123.876,1533.68Z" transform="translate(-123.013 -1531.387)" fill="#090909"/>
              </g>
            </g>
          </g>
        </g>
        <g id="Grupo_1162761" data-name="Grupo 1162761" transform="translate(25.807 12.478)">
          <g id="Grupo_1162760" data-name="Grupo 1162760">
            <g id="Grupo_1162759" data-name="Grupo 1162759">
              <g id="Grupo_1162758" data-name="Grupo 1162758">
                <path id="Trazado_997283" data-name="Trazado 997283" d="M133.481,1542.083a.383.383,0,0,0,.259-.117c.173-.169,4.279-4.223,2.755-6.8-1.3-2.186-.785-3.219-.78-3.229.091-.174.057-.362-.082-.417a.376.376,0,0,0-.427.2c-.082.137-.756,1.4.733,3.906,1.281,2.153-2.5,5.9-2.542,5.938a.341.341,0,0,0-.08.445A.2.2,0,0,0,133.481,1542.083Z" transform="translate(-133.264 -1531.508)" fill="#090909"/>
              </g>
            </g>
          </g>
        </g>
      </g>
      <g id="Grupo_1162764" data-name="Grupo 1162764" transform="translate(4.222 157.725)">
        <g id="Grupo_1162763" data-name="Grupo 1162763">
          <path id="Trazado_997284" data-name="Trazado 997284" d="M84.448,912.514c-19.406,0-29.11,23.477-15.367,37.178l50.766,50.616L86.5,1090.969l31.262,3.647,69.192-133.31a79.721,79.721,0,0,0,8.963-36.726V912.514H84.448Zm47.223,60.769L115.678,947.33h27.346Z" transform="translate(-62.639 -912.514)" fill="#fcb913"/>
        </g>
      </g>
      <g id="Grupo_1162771" data-name="Grupo 1162771" transform="translate(50.701 157.725)">
        <g id="Grupo_1162766" data-name="Grupo 1162766" transform="translate(77.315)">
          <g id="Grupo_1162765" data-name="Grupo 1162765">
            <rect id="Rectángulo_411955" data-name="Rectángulo 411955" width="0.735" height="2.432" fill="#090909"/>
          </g>
        </g>
        <g id="Grupo_1162768" data-name="Grupo 1162768" transform="translate(3.335 7.18)">
          <g id="Grupo_1162767" data-name="Grupo 1162767">
            <path id="Trazado_997285" data-name="Trazado 997285" d="M226.277,1103.776l-.65-.344,2.22-4.2.65.344Zm4.44-8.4-.65-.344,2.22-4.2.65.344Zm4.439-8.392-.65-.344,2.22-4.2.65.344Zm4.439-8.4-.65-.344,2.22-4.2.65.344Zm4.439-8.4-.65-.344,2.22-4.2.65.344Zm4.439-8.392-.65-.344,2.22-4.2.65.344Zm4.439-8.4-.65-.344,2.22-4.2.65.344Zm4.439-8.392-.65-.344,2.22-4.2.65.344Zm4.44-8.4-.649-.344,2.22-4.2.649.344Zm4.439-8.392-.65-.344,2.22-4.2.65.344Zm4.439-8.4-.65-.344,2.22-4.2.649.344Zm4.44-8.4-.649-.344,2.22-4.2.65.344Zm4.439-8.392-.649-.344,2.22-4.2.649.344Zm4.44-8.4-.65-.344,2.22-4.2.65.344Zm4.439-8.392-.65-.344,2.22-4.2.649.344Zm4.348-8.463-.667-.309c.66-1.423,1.286-2.885,1.861-4.344l.684.27C294.077,974.886,293.445,976.359,292.779,977.8Zm3.5-8.869-.7-.229c.489-1.491.941-3.015,1.342-4.531l.71.188C297.225,965.885,296.77,967.422,296.276,968.926Zm2.438-9.215-.72-.146c.312-1.538.583-3.1.8-4.657l.728.1C299.3,956.579,299.029,958.159,298.714,959.711Zm1.346-9.438-.732-.061c.131-1.563.216-3.15.255-4.719l.735.018C300.278,947.094,300.192,948.7,300.06,950.273Zm.282-9.519h-.735v-4.748h.735Z" transform="translate(-225.627 -936.006)" fill="#090909"/>
          </g>
        </g>
        <g id="Grupo_1162770" data-name="Grupo 1162770" transform="translate(0 178.809)">
          <g id="Grupo_1162769" data-name="Grupo 1162769" transform="translate(0 0)">
            <rect id="Rectángulo_411956" data-name="Rectángulo 411956" width="2.432" height="0.735" transform="translate(0 2.15) rotate(-62.136)" fill="#090909"/>
          </g>
        </g>
      </g>
      <g id="Grupo_1162773" data-name="Grupo 1162773" transform="translate(41.979 61.088)">
        <g id="Grupo_1162772" data-name="Grupo 1162772">
          <path id="Trazado_997286" data-name="Trazado 997286" d="M280.455,649.807l1.244,43.147s-5.3,1.277-13.171,2.6l-.6.1a209.756,209.756,0,0,1-22.309,2.529c-.288.016-.579.032-.867.045-12.826.632-26.041-.316-34.26-5.268V641.284H186.178s.721-7.44,2.192-15.635c.041-.247.085-.49.134-.737.49-2.7,1.066-5.447,1.722-8.024a19.118,19.118,0,0,1,7.157-10.662c.166-.126.332-.247.5-.365a19.151,19.151,0,0,1,5.033-2.476,151.6,151.6,0,0,1,20.271-4.928l.786-.134a135.68,135.68,0,0,1,46.648.041c.328.061.657.126.989.19A112.821,112.821,0,0,1,285.6,602.19c.3.1.6.195.9.3.855.292,1.714.592,2.569.908a18.977,18.977,0,0,1,10.978,10.613q.565,1.374,1.179,2.93c.077.19.154.385.227.583.754,1.921,1.544,4.016,2.322,6.221l.243.681a118.264,118.264,0,0,1,5.3,19.817L280.4,647.886l.036,1.22Z" transform="translate(-186.178 -596.318)" fill="#6445f1"/>
        </g>
      </g>
      <g id="Grupo_1162791" data-name="Grupo 1162791" transform="translate(44.171 63.094)">
        <g id="Grupo_1162776" data-name="Grupo 1162776" transform="translate(53.278 0.04)">
          <g id="Grupo_1162775" data-name="Grupo 1162775">
            <g id="Grupo_1162774" data-name="Grupo 1162774">
              <path id="Trazado_997287" data-name="Trazado 997287" d="M430.044,629.071c-8.5-1.925-18.135.993-27.46,4.624-9.653,3.757-22.868,8.907-33.944,3.89l-.121-.053-.045-.126c-1.961-5.8-.251-12.952,4.458-18.662,4.328-5.244,10.472-8.786,15.886-11.692q3.884-2.085,7.833-4.04c.328.061.656.126.989.19q-4.3,2.115-8.535,4.385c-5.366,2.881-11.444,6.387-15.7,11.546-4.547,5.5-6.221,12.372-4.393,17.953,10.82,4.818,23.841-.256,33.356-3.959,9.284-3.615,18.884-6.524,27.435-4.737Z" transform="translate(-367.675 -603.013)" fill="#fff"/>
            </g>
          </g>
        </g>
        <g id="Grupo_1162781" data-name="Grupo 1162781" transform="translate(9.532)">
          <g id="Grupo_1162778" data-name="Grupo 1162778">
            <g id="Grupo_1162777" data-name="Grupo 1162777">
              <path id="Trazado_997288" data-name="Trazado 997288" d="M225.956,645.842h-1.418a79.179,79.179,0,0,0,28.392-22.261c3.992-4.985,5.362-9.284,4.073-12.79-.9-2.452-3.027-4.259-4.9-5.848l-2.274-1.929.786-.134,1.88,1.6c1.836,1.56,4.121,3.5,5.082,6.1,1.366,3.72-.036,8.219-4.17,13.381A79.759,79.759,0,0,1,225.956,645.842Z" transform="translate(-224.538 -602.881)" fill="#fff"/>
            </g>
          </g>
          <g id="Grupo_1162780" data-name="Grupo 1162780" transform="translate(12.59 69.585)">
            <g id="Grupo_1162779" data-name="Grupo 1162779">
              <path id="Trazado_997289" data-name="Trazado 997289" d="M300.862,860.832c-.288.016-.579.032-.867.045,6.764-7.347,13.548-14.974,11.732-24.173-.275-1.406-1.054-3.919-3.149-4.977a8.68,8.68,0,0,0-4.851-.409,110.713,110.713,0,0,0-34.191,9.617q-1.909.887-3.8,1.844V842.1c1.175-.588,2.359-1.163,3.542-1.714a111.373,111.373,0,0,1,34.382-9.669,9.164,9.164,0,0,1,5.191.47c2.326,1.171,3.177,3.886,3.473,5.4C314.158,845.894,307.589,853.513,300.862,860.832Z" transform="translate(-265.734 -830.563)" fill="#fff"/>
            </g>
          </g>
        </g>
        <g id="Grupo_1162784" data-name="Grupo 1162784" transform="translate(69.101 45.465)">
          <g id="Grupo_1162783" data-name="Grupo 1162783">
            <g id="Grupo_1162782" data-name="Grupo 1162782">
              <path id="Trazado_997290" data-name="Trazado 997290" d="M420.136,760.642c-.361,3.445.612,7,1.467,10.139l8.9,32.623-.6.1-8.887-32.558c-.871-3.189-1.86-6.808-1.491-10.366.417-3.979,2.671-7.295,5.746-8.441,3.226-1.2,6.829,0,9.925,1.337q3.684,1.587,7.214,3.485l.02.7q-3.653-1.982-7.477-3.631c-2.987-1.284-6.443-2.452-9.467-1.321C422.628,753.773,420.525,756.89,420.136,760.642Z" transform="translate(-419.449 -751.641)" fill="#fff"/>
            </g>
          </g>
        </g>
        <g id="Grupo_1162787" data-name="Grupo 1162787" transform="translate(0 7.538)">
          <g id="Grupo_1162786" data-name="Grupo 1162786">
            <g id="Grupo_1162785" data-name="Grupo 1162785">
              <path id="Trazado_997291" data-name="Trazado 997291" d="M196.706,645.656q-1.666.869-3.356,1.678c.041-.247.085-.49.134-.737q1.483-.717,2.942-1.479c3.793-1.978,10.042-6.144,9.264-11.805a8.608,8.608,0,0,0-3.327-5.4c.166-.126.332-.247.5-.365a9.123,9.123,0,0,1,3.425,5.686C207.121,639.261,200.641,643.606,196.706,645.656Z" transform="translate(-193.35 -627.546)" fill="#fff"/>
            </g>
          </g>
        </g>
        <g id="Grupo_1162790" data-name="Grupo 1162790" transform="translate(85.042 3.866)">
          <g id="Grupo_1162789" data-name="Grupo 1162789">
            <g id="Grupo_1162788" data-name="Grupo 1162788">
              <path id="Trazado_997292" data-name="Trazado 997292" d="M499.646,630.863a77.412,77.412,0,0,1-10.431.794,42.69,42.69,0,0,1-12.336-1.674c-3.088-.924-4.835-2.375-5.2-4.3-.535-2.837,2.144-5.045,4.482-6.395a63.255,63.255,0,0,1,7.639-3.753c.3.1.6.195.9.3a63.1,63.1,0,0,0-8.231,3.984c-2.168,1.252-4.656,3.266-4.186,5.755.32,1.69,1.929,2.979,4.778,3.834,7.254,2.176,14.82,1.9,22.366.879C499.5,630.469,499.573,630.664,499.646,630.863Z" transform="translate(-471.606 -615.532)" fill="#fff"/>
            </g>
          </g>
        </g>
      </g>
      <g id="Grupo_1162795" data-name="Grupo 1162795" transform="translate(79.337 12.338)">
        <g id="Grupo_1162794" data-name="Grupo 1162794">
          <g id="Grupo_1162793" data-name="Grupo 1162793">
            <g id="Grupo_1162792" data-name="Grupo 1162792">
              <path id="Trazado_997293" data-name="Trazado 997293" d="M343.962,458.762c.02.124.034.249.047.374.078.671.135,1.34.164,2,.011.112.016.226.02.34.016.354.023.7.018,1.048,0,.789-.022,1.576-.093,2.34-.438,4.849-2.448,9.136-7.314,11.479l1.654,8.091a7.346,7.346,0,0,1,.094,2.411,1.946,1.946,0,0,1-.612,1.173c-3,2.774-8.468,3.015-14.645,1.124a6.362,6.362,0,0,1-4.52-6.231l.29-11.648-5.018-.314a5.444,5.444,0,0,1-4.675-3.119,3.624,3.624,0,0,1-.143-.347l-.477-1.3a5.485,5.485,0,0,1,4.562-7.349s-.009-.072-.016-.2c-.179-2.193-1.319-21.185,12.551-21.814a15.537,15.537,0,0,1,15.207,10.383A54.945,54.945,0,0,1,343.962,458.762Z" transform="translate(-308.413 -436.807)" fill="#f59060"/>
            </g>
          </g>
        </g>
      </g>
      <g id="Grupo_1162799" data-name="Grupo 1162799" transform="translate(107.141 33.436)">
        <g id="Grupo_1162798" data-name="Grupo 1162798">
          <g id="Grupo_1162797" data-name="Grupo 1162797">
            <g id="Grupo_1162796" data-name="Grupo 1162796">
              <path id="Trazado_997294" data-name="Trazado 997294" d="M401.312,514.747a1.082,1.082,0,0,0,.308-.244c1.317-1.5-1.086-7.311-1.581-8.459a.339.339,0,0,0-.623.268c1.081,2.508,2.5,6.828,1.693,7.744-.052.059-.209.239-.743.089a.339.339,0,0,0-.184.653A1.489,1.489,0,0,0,401.312,514.747Z" transform="translate(-399.388 -505.839)" fill="#090909"/>
            </g>
          </g>
        </g>
      </g>
      <g id="Grupo_1162803" data-name="Grupo 1162803" transform="translate(98.679 36.717)">
        <g id="Grupo_1162802" data-name="Grupo 1162802">
          <g id="Grupo_1162801" data-name="Grupo 1162801">
            <g id="Grupo_1162800" data-name="Grupo 1162800">
              <path id="Trazado_997295" data-name="Trazado 997295" d="M378.418,518.387c.018,1.032-1.471,1.9-3.326,1.927s-3.373-.779-3.39-1.811,1.471-1.9,3.326-1.927S378.4,517.355,378.418,518.387Z" transform="translate(-371.702 -516.575)" fill="#fc6d6d"/>
            </g>
          </g>
        </g>
      </g>
      <g id="Grupo_1162807" data-name="Grupo 1162807" transform="translate(111.456 36.661)">
        <g id="Grupo_1162806" data-name="Grupo 1162806">
          <g id="Grupo_1162805" data-name="Grupo 1162805">
            <g id="Grupo_1162804" data-name="Grupo 1162804">
              <path id="Trazado_997296" data-name="Trazado 997296" d="M417.149,516.4c.011.112.016.226.02.34.016.354.023.7.018,1.048,0,.789-.022,1.576-.093,2.34l0,0c-1.947.094-3.57-.736-3.586-1.806-.016-1.035,1.47-1.9,3.324-1.928C416.938,516.392,417.04,516.4,417.149,516.4Z" transform="translate(-413.507 -516.394)" fill="#fc6d6d"/>
            </g>
          </g>
        </g>
      </g>
      <g id="Grupo_1162811" data-name="Grupo 1162811" transform="translate(99.342 50.582)">
        <g id="Grupo_1162810" data-name="Grupo 1162810">
          <g id="Grupo_1162809" data-name="Grupo 1162809">
            <g id="Grupo_1162808" data-name="Grupo 1162808">
              <path id="Trazado_997297" data-name="Trazado 997297" d="M382.259,563.236s-3.657,1.591-8.391-1.293a8.921,8.921,0,0,0,8.807,3.324Z" transform="translate(-373.868 -561.943)" fill="#090909"/>
            </g>
          </g>
        </g>
      </g>
      <g id="Grupo_1162815" data-name="Grupo 1162815" transform="translate(99.403 28.852)">
        <g id="Grupo_1162814" data-name="Grupo 1162814">
          <g id="Grupo_1162813" data-name="Grupo 1162813">
            <g id="Grupo_1162812" data-name="Grupo 1162812">
              <path id="Trazado_997298" data-name="Trazado 997298" d="M374.565,492.477a7.247,7.247,0,0,1,1.45-.545,6.1,6.1,0,0,1,1.513-.2,4.005,4.005,0,0,1,1.425.277,3.574,3.574,0,0,1,1.16.8l.038.036a.55.55,0,1,0,.754-.8l-.022-.02a4.623,4.623,0,0,0-1.588-.942,4.946,4.946,0,0,0-1.791-.227,6.912,6.912,0,0,0-1.708.345,7.878,7.878,0,0,0-1.567.715.329.329,0,0,0,.319.574Z" transform="translate(-374.069 -490.843)" fill="#090909"/>
            </g>
          </g>
        </g>
      </g>
      <g id="Grupo_1162819" data-name="Grupo 1162819" transform="translate(108.59 28.719)">
        <g id="Grupo_1162818" data-name="Grupo 1162818">
          <g id="Grupo_1162817" data-name="Grupo 1162817">
            <g id="Grupo_1162816" data-name="Grupo 1162816">
              <path id="Trazado_997299" data-name="Trazado 997299" d="M410.655,491.735a7.263,7.263,0,0,0-1.422-.823,6.224,6.224,0,0,0-1.6-.467,4.411,4.411,0,0,0-1.73.11,4.311,4.311,0,0,0-1.56.833.55.55,0,0,0,.67.873l.022-.018.045-.039a3.267,3.267,0,0,1,1.118-.7,3.474,3.474,0,0,1,1.345-.179,5.4,5.4,0,0,1,1.4.306,6.611,6.611,0,0,1,1.316.639l.016.01a.329.329,0,0,0,.375-.539Z" transform="translate(-404.129 -490.405)" fill="#090909"/>
            </g>
          </g>
        </g>
      </g>
      <g id="Grupo_1162823" data-name="Grupo 1162823" transform="translate(102.304 32.519)">
        <g id="Grupo_1162822" data-name="Grupo 1162822">
          <g id="Grupo_1162821" data-name="Grupo 1162821">
            <g id="Grupo_1162820" data-name="Grupo 1162820">
              <path id="Trazado_997300" data-name="Trazado 997300" d="M385.425,504.151c.085.778-.26,1.454-.771,1.51s-.995-.529-1.08-1.307.26-1.454.771-1.51S385.34,503.373,385.425,504.151Z" transform="translate(-383.561 -502.841)" fill="#090909"/>
            </g>
          </g>
        </g>
      </g>
      <g id="Grupo_1162827" data-name="Grupo 1162827" transform="translate(111.469 32.386)">
        <g id="Grupo_1162826" data-name="Grupo 1162826">
          <g id="Grupo_1162825" data-name="Grupo 1162825">
            <g id="Grupo_1162824" data-name="Grupo 1162824">
              <path id="Trazado_997301" data-name="Trazado 997301" d="M414.972,503.66c.081.735-.169,1.366-.557,1.408s-.769-.519-.849-1.254.169-1.365.557-1.408S414.891,502.925,414.972,503.66Z" transform="translate(-413.55 -502.404)" fill="#090909"/>
            </g>
          </g>
        </g>
      </g>
      <g id="Grupo_1162831" data-name="Grupo 1162831" transform="translate(81.855 36.618)">
        <g id="Grupo_1162830" data-name="Grupo 1162830">
          <g id="Grupo_1162829" data-name="Grupo 1162829">
            <g id="Grupo_1162828" data-name="Grupo 1162828">
              <path id="Trazado_997302" data-name="Trazado 997302" d="M318.151,522.77c-.833-1.677-.988-3.043-.459-4.06a3.919,3.919,0,0,1,2.645-1.731l-.108-.727a4.6,4.6,0,0,0-3.186,2.113c-.646,1.238-.5,2.83.45,4.732Z" transform="translate(-316.651 -516.252)" fill="#090909"/>
            </g>
          </g>
        </g>
      </g>
      <g id="Grupo_1162835" data-name="Grupo 1162835" transform="translate(78.095)">
        <g id="Grupo_1162834" data-name="Grupo 1162834">
          <g id="Grupo_1162833" data-name="Grupo 1162833">
            <g id="Grupo_1162832" data-name="Grupo 1162832">
              <path id="Trazado_997303" data-name="Trazado 997303" d="M310.492,430.806a9.152,9.152,0,0,1,3.194,1.082c1.623.923,1.946,1.8,2.592,1.87,1.032.107,2.648-1.891,5.25-10.62,1.858.6,10.51,3.184,17.582-1.374a15.783,15.783,0,0,0,4.083-3.8c4.1-5.554,2.925-12.114,2.673-13.529a19.73,19.73,0,0,0-3.408-8,67.365,67.365,0,0,1-28.289,14.677,12.436,12.436,0,0,0-7.794,4.748c-3.087,4.385-2.654,10.958,1.341,16.063Z" transform="translate(-304.348 -396.438)" fill="#090909"/>
            </g>
          </g>
        </g>
      </g>
      <g id="Grupo_1162839" data-name="Grupo 1162839" transform="translate(85.946 46.542)">
        <g id="Grupo_1162838" data-name="Grupo 1162838">
          <g id="Grupo_1162837" data-name="Grupo 1162837">
            <g id="Grupo_1162836" data-name="Grupo 1162836">
              <path id="Trazado_997304" data-name="Trazado 997304" d="M330.039,548.724l3.909,5.716.137-5.466Z" transform="translate(-330.039 -548.724)" fill="#090909"/>
            </g>
          </g>
        </g>
      </g>
      <g id="Grupo_1162841" data-name="Grupo 1162841" transform="translate(102.237 43.856)">
        <g id="Grupo_1162840" data-name="Grupo 1162840">
          <path id="Trazado_997305" data-name="Trazado 997305" d="M389.187,541.5a11.309,11.309,0,0,1-5.384-1.529.313.313,0,0,0-.445.376c.531,1.57,2.177,4.861,6.033,1.709A.314.314,0,0,0,389.187,541.5Z" transform="translate(-383.341 -539.936)" fill="#fff"/>
        </g>
      </g>
      <g id="Grupo_1162843" data-name="Grupo 1162843" transform="translate(61.107 178.676)">
        <g id="Grupo_1162842" data-name="Grupo 1162842" transform="translate(0)">
          <rect id="Rectángulo_411957" data-name="Rectángulo 411957" width="72.796" height="0.735" transform="matrix(0.401, -0.916, 0.916, 0.401, 0, 66.696)" fill="#090909"/>
        </g>
      </g>
      <g id="Grupo_1162845" data-name="Grupo 1162845" transform="translate(84.763 109.302)">
        <g id="Grupo_1162844" data-name="Grupo 1162844">
          <path id="Trazado_997306" data-name="Trazado 997306" d="M404.2,754.072s2.678,11.273,4.852,22.646A16.274,16.274,0,0,1,390.794,795.9l-64.626-10.426,2.588-20.974,49.038-.462-.191-6.615Z" transform="translate(-326.168 -754.072)" fill="#f59060"/>
        </g>
      </g>
      <g id="Grupo_1162846" data-name="Grupo 1162846" transform="translate(136.2 109.302)">
        <path id="Trazado_997307" data-name="Trazado 997307" d="M494.467,757.427l27.249-.529-.656-2.826Z" transform="translate(-494.467 -754.072)" fill="#090909"/>
      </g>
      <g id="Grupo_1162848" data-name="Grupo 1162848" transform="translate(14.343 95.54)">
        <g id="Grupo_1162847" data-name="Grupo 1162847">
          <path id="Trazado_997308" data-name="Trazado 997308" d="M159.987,754.21h-52.14a8.794,8.794,0,0,1-8.492-7.608l-3.549-29.951a6.613,6.613,0,0,1,6.689-7.608h52.14a8.794,8.794,0,0,1,8.492,7.608l3.549,29.951A6.613,6.613,0,0,1,159.987,754.21Z" transform="translate(-95.752 -709.043)" fill="#090909"/>
        </g>
      </g>
      <g id="Grupo_1162850" data-name="Grupo 1162850" transform="translate(11.911 95.54)">
        <g id="Grupo_1162849" data-name="Grupo 1162849">
          <path id="Trazado_997309" data-name="Trazado 997309" d="M152.031,754.21H99.891A8.794,8.794,0,0,1,91.4,746.6L87.85,716.651a6.613,6.613,0,0,1,6.689-7.608h52.14a8.794,8.794,0,0,1,8.492,7.608L158.72,746.6A6.613,6.613,0,0,1,152.031,754.21Z" transform="translate(-87.796 -709.043)" fill="#6595f7"/>
        </g>
      </g>
      <g id="Grupo_1162852" data-name="Grupo 1162852" transform="translate(39.66 110.98)">
        <g id="Grupo_1162851" data-name="Grupo 1162851">
          <path id="Trazado_997310" data-name="Trazado 997310" d="M191.194,765.482c.765,3.886-1.4,7.585-4.84,8.261s-6.844-1.925-7.609-5.811,1.4-7.585,4.84-8.261S190.43,761.6,191.194,765.482Z" transform="translate(-178.592 -759.564)" fill="#fff"/>
        </g>
      </g>
      <g id="Grupo_1162856" data-name="Grupo 1162856" transform="translate(47.937 109.08)">
        <g id="Grupo_1162855" data-name="Grupo 1162855">
          <g id="Grupo_1162854" data-name="Grupo 1162854">
            <g id="Grupo_1162853" data-name="Grupo 1162853">
              <path id="Trazado_997311" data-name="Trazado 997311" d="M257.9,784.879q-4.8.14-9.041.077c-16.558-.223-26.754-2.521-31.962-4.15a.84.84,0,0,1,.15-1.633,16.974,16.974,0,0,0,3.858-1,.419.419,0,0,0-.134-.806,28.341,28.341,0,0,1-10.642-2.65.84.84,0,0,1,.466-1.589,40.816,40.816,0,0,0,6.97.138.417.417,0,0,0,.061-.823,30.019,30.019,0,0,1-11.611-4.952.84.84,0,0,1,.729-1.483,73.952,73.952,0,0,0,10.934,1.949.417.417,0,0,0,.186-.807,30.8,30.8,0,0,1-10.889-6.4.841.841,0,0,1,.92-1.374c6.829,2.918,17.43,5.7,20.964,6.589a.44.44,0,0,0,.466-.681,38.018,38.018,0,0,1-5.143-10.853.84.84,0,0,1,1.3-.92c9.621,6.8,17.62,10.111,23.379,11.716a41.481,41.481,0,0,0,6.82,1.345Z" transform="translate(-205.671 -753.348)" fill="#f59060"/>
            </g>
          </g>
        </g>
      </g>
      <g id="Grupo_1162858" data-name="Grupo 1162858" transform="translate(16.748 99.962)">
        <g id="Grupo_1162857" data-name="Grupo 1162857">
          <path id="Trazado_997312" data-name="Trazado 997312" d="M106.574,724.988a1.476,1.476,0,1,1-1.476-1.476A1.476,1.476,0,0,1,106.574,724.988Z" transform="translate(-103.622 -723.512)" fill="#090909"/>
        </g>
      </g>
      <g id="Grupo_1162860" data-name="Grupo 1162860" transform="translate(21.524 99.962)">
        <g id="Grupo_1162859" data-name="Grupo 1162859">
          <path id="Trazado_997313" data-name="Trazado 997313" d="M122.2,724.988a1.476,1.476,0,1,1-1.476-1.476A1.476,1.476,0,0,1,122.2,724.988Z" transform="translate(-119.249 -723.512)" fill="#090909"/>
        </g>
      </g>
      <g id="Grupo_1162863" data-name="Grupo 1162863" transform="translate(9.097 112.965)">
        <g id="Grupo_1162862" data-name="Grupo 1162862">
          <g id="Grupo_1162861" data-name="Grupo 1162861">
            <path id="Trazado_997314" data-name="Trazado 997314" d="M82.848,768.381l7.778-2.3a.4.4,0,0,1,.506.495,7.554,7.554,0,0,1-4.175,4.976.4.4,0,0,0-.06.714c1.5.9,5.237,2.725,9.038,1.156a.4.4,0,0,1,.462.644c-1.247,1.323-3.9,3.012-9.123,2.377a.4.4,0,0,0-.382.625c.851,1.221,3.294,3.376,9.431,1.7a.4.4,0,0,1,.438.624,7.292,7.292,0,0,1-7.972,2.965.4.4,0,0,0-.384.686,8.907,8.907,0,0,0,7.048,1.988.4.4,0,0,1,.33.688,5.8,5.8,0,0,1-6.465,1.1.4.4,0,0,0-.44.655,7.006,7.006,0,0,0,3.351,2.061.4.4,0,0,1,.044.772c-1.078.419-2.937.647-5.652-.68-4.634-2.267-13.109-10.711-3.971-21.112A.423.423,0,0,1,82.848,768.381Z" transform="translate(-78.587 -766.06)" fill="#f59060"/>
          </g>
        </g>
      </g>
      <g id="Grupo_1162865" data-name="Grupo 1162865" transform="translate(129.845 87.029)">
        <g id="Grupo_1162864" data-name="Grupo 1162864" transform="translate(0 0)">
          <rect id="Rectángulo_411958" data-name="Rectángulo 411958" width="0.735" height="26.224" transform="matrix(0.974, -0.228, 0.228, 0.974, 0, 0.168)" fill="#090909"/>
        </g>
      </g>
      <g id="Grupo_1162867" data-name="Grupo 1162867" transform="translate(64.71 85.562)">
        <g id="Grupo_1162866" data-name="Grupo 1162866">
          <rect id="Rectángulo_411959" data-name="Rectángulo 411959" width="0.735" height="9.977" fill="#090909"/>
        </g>
      </g>
      <g id="Grupo_1162869" data-name="Grupo 1162869" transform="translate(136.39 118.904)">
        <g id="Grupo_1162868" data-name="Grupo 1162868">
          <rect id="Rectángulo_411960" data-name="Rectángulo 411960" width="15.701" height="0.735" fill="#090909"/>
        </g>
      </g>
      <g id="Grupo_1162871" data-name="Grupo 1162871" transform="translate(46.317 183.195)">
        <g id="Grupo_1162870" data-name="Grupo 1162870">
          <path id="Trazado_997315" data-name="Trazado 997315" d="M222.364,1041.915l-1.772-3.027.634-.371,1.772,3.027Zm-4.23-7.225-2.457-4.2.634-.371,2.457,4.2Zm-4.915-8.393-2.457-4.2.634-.371,2.457,4.2Zm-4.914-8.392-2.457-4.2.634-.371,2.457,4.2Zm-4.914-8.392-2.458-4.2.637-.366.029.05,2.426,4.144Zm-2.317-8.97-.7-.217a6.381,6.381,0,0,1,3.247-3.829l.325.659A5.641,5.641,0,0,0,201.074,1000.543Zm41.518-3.956h-4.863v-.735h4.863Zm-9.726,0H228v-.735h4.863Zm-9.726,0h-4.863v-.735h4.863Zm-9.726,0h-4.863v-.735h4.863Z" transform="translate(-200.372 -995.852)" fill="#090909"/>
        </g>
      </g>
      <g id="Grupo_1162873" data-name="Grupo 1162873" transform="translate(29.573 336.453)">
        <g id="Grupo_1162872" data-name="Grupo 1162872">
          <path id="Trazado_997316" data-name="Trazado 997316" d="M173.547,1500.684h-27.96l.844-3.374Z" transform="translate(-145.587 -1497.31)" fill="#090909"/>
        </g>
      </g>
    </g>
    <g id="Popup_2_00000003818940111473446420000013679707733341553556_" transform="translate(251.413 341.014)">
      <g id="Grupo_1162875" data-name="Grupo 1162875" transform="translate(49.08)">
        <g id="Grupo_1162874" data-name="Grupo 1162874">
          <path id="Trazado_997317" data-name="Trazado 997317" d="M1004.557,988.821H882.6c-5.691,0-10.321-3.824-10.321-8.524V851.874c0-4.7,4.63-8.524,10.321-8.524h121.952c5.691,0,10.321,3.824,10.321,8.524V980.3C1014.878,985,1010.248,988.821,1004.557,988.821ZM882.6,845.386c-4.569,0-8.285,2.911-8.285,6.488V980.3c0,3.578,3.717,6.488,8.285,6.488h121.952c4.568,0,8.285-2.91,8.285-6.488V851.874c0-3.578-3.717-6.488-8.285-6.488H882.6Z" transform="translate(-872.284 -843.35)" fill="#004751"/>
        </g>
      </g>
      <g id="Grupo_1162877" data-name="Grupo 1162877" transform="translate(34.021 17.094)">
        <g id="Grupo_1162876" data-name="Grupo 1162876">
          <path id="Trazado_997318" data-name="Trazado 997318" d="M963.57,906.789v128.423c0,4.145-4.169,7.506-9.3,7.506H832.314c-5.139,0-9.3-3.362-9.3-7.506V906.789c0-4.145,4.164-7.506,9.3-7.506H954.266C959.4,899.283,963.57,902.645,963.57,906.789Z" transform="translate(-823.011 -899.283)" fill="#090909"/>
        </g>
      </g>
      <g id="Grupo_1162879" data-name="Grupo 1162879" transform="translate(34.021 17.094)">
        <g id="Grupo_1162878" data-name="Grupo 1162878">
          <path id="Trazado_997319" data-name="Trazado 997319" d="M963.57,906.817V921.5H823.011V906.811a7.529,7.529,0,0,1,7.528-7.529h125.5A7.535,7.535,0,0,1,963.57,906.817Z" transform="translate(-823.011 -899.283)" fill="#6445f1"/>
        </g>
      </g>
      <g id="Grupo_1162881" data-name="Grupo 1162881" transform="translate(41.516 24.316)">
        <g id="Grupo_1162880" data-name="Grupo 1162880" transform="translate(0 0)">
          <circle id="Elipse_12211" data-name="Elipse 12211" cx="2.699" cy="2.699" r="2.699" transform="translate(0 2.066) rotate(-22.5)" fill="#ff4655"/>
        </g>
      </g>
      <g id="Grupo_1162883" data-name="Grupo 1162883" transform="translate(49.363 24.62)">
        <g id="Grupo_1162882" data-name="Grupo 1162882" transform="translate(0 0)">
          <circle id="Elipse_12212" data-name="Elipse 12212" cx="2.699" cy="2.699" r="2.699" transform="translate(0 5.253) rotate(-76.714)" fill="#6595f7"/>
        </g>
      </g>
      <g id="Grupo_1162885" data-name="Grupo 1162885" transform="translate(56.674 24.316)">
        <g id="Grupo_1162884" data-name="Grupo 1162884" transform="translate(0 0)">
          <circle id="Elipse_12213" data-name="Elipse 12213" cx="2.699" cy="2.699" r="2.699" transform="translate(0 2.066) rotate(-22.5)" fill="#090909"/>
        </g>
      </g>
      <g id="Grupo_1162887" data-name="Grupo 1162887" transform="translate(60.644 66.892)">
        <g id="Grupo_1162886" data-name="Grupo 1162886">
          <rect id="Rectángulo_411961" data-name="Rectángulo 411961" width="19.844" height="3.264" fill="#ff4655"/>
        </g>
      </g>
      <g id="Grupo_1162889" data-name="Grupo 1162889" transform="translate(84.62 66.892)">
        <g id="Grupo_1162888" data-name="Grupo 1162888">
          <rect id="Rectángulo_411962" data-name="Rectángulo 411962" width="12.3" height="3.264" fill="#6445f1"/>
        </g>
      </g>
      <g id="Grupo_1162891" data-name="Grupo 1162891" transform="translate(101.618 66.892)">
        <g id="Grupo_1162890" data-name="Grupo 1162890">
          <rect id="Rectángulo_411963" data-name="Rectángulo 411963" width="12.3" height="3.264" fill="#fff"/>
        </g>
      </g>
      <g id="Grupo_1162893" data-name="Grupo 1162893" transform="translate(118.061 66.892)">
        <g id="Grupo_1162892" data-name="Grupo 1162892">
          <rect id="Rectángulo_411964" data-name="Rectángulo 411964" width="14.609" height="3.264" fill="#6445f1"/>
        </g>
      </g>
      <g id="Grupo_1162895" data-name="Grupo 1162895" transform="translate(135.711 66.892)">
        <g id="Grupo_1162894" data-name="Grupo 1162894">
          <rect id="Rectángulo_411965" data-name="Rectángulo 411965" width="9.055" height="3.264" fill="#fff"/>
        </g>
      </g>
      <g id="Grupo_1162897" data-name="Grupo 1162897" transform="translate(118.061 117.653)">
        <g id="Grupo_1162896" data-name="Grupo 1162896">
          <rect id="Rectángulo_411966" data-name="Rectángulo 411966" width="14.609" height="3.264" fill="#015566"/>
        </g>
      </g>
      <g id="Grupo_1162899" data-name="Grupo 1162899" transform="translate(135.711 117.653)">
        <g id="Grupo_1162898" data-name="Grupo 1162898">
          <rect id="Rectángulo_411967" data-name="Rectángulo 411967" width="9.055" height="3.264" fill="#ff4655"/>
        </g>
      </g>
      <g id="Grupo_1162901" data-name="Grupo 1162901" transform="translate(98.66 79.581)">
        <g id="Grupo_1162900" data-name="Grupo 1162900">
          <rect id="Rectángulo_411968" data-name="Rectángulo 411968" width="14.609" height="3.264" fill="#6445f1"/>
        </g>
      </g>
      <g id="Grupo_1162903" data-name="Grupo 1162903" transform="translate(116.31 79.581)">
        <g id="Grupo_1162902" data-name="Grupo 1162902">
          <rect id="Rectángulo_411969" data-name="Rectángulo 411969" width="9.055" height="3.264" fill="#fff"/>
        </g>
      </g>
      <g id="Grupo_1162905" data-name="Grupo 1162905" transform="translate(148.226 66.892)">
        <g id="Grupo_1162904" data-name="Grupo 1162904">
          <rect id="Rectángulo_411970" data-name="Rectángulo 411970" width="9.055" height="3.264" fill="#ff4655"/>
        </g>
      </g>
      <g id="Grupo_1162907" data-name="Grupo 1162907" transform="translate(60.644 54.141)">
        <g id="Grupo_1162906" data-name="Grupo 1162906">
          <rect id="Rectángulo_411971" data-name="Rectángulo 411971" width="104.675" height="3.385" fill="#ff4655"/>
        </g>
      </g>
      <g id="Grupo_1162909" data-name="Grupo 1162909" transform="translate(60.644 60.63)">
        <g id="Grupo_1162908" data-name="Grupo 1162908">
          <rect id="Rectángulo_411972" data-name="Rectángulo 411972" width="61.501" height="3.385" fill="#015566"/>
        </g>
      </g>
      <g id="Grupo_1162911" data-name="Grupo 1162911" transform="translate(60.644 92.274)">
        <g id="Grupo_1162910" data-name="Grupo 1162910">
          <rect id="Rectángulo_411973" data-name="Rectángulo 411973" width="19.844" height="3.264" fill="#015566"/>
        </g>
      </g>
      <g id="Grupo_1162913" data-name="Grupo 1162913" transform="translate(84.62 92.274)">
        <g id="Grupo_1162912" data-name="Grupo 1162912">
          <rect id="Rectángulo_411974" data-name="Rectángulo 411974" width="12.3" height="3.264" fill="#fff"/>
        </g>
      </g>
      <g id="Grupo_1162915" data-name="Grupo 1162915" transform="translate(101.618 92.274)">
        <g id="Grupo_1162914" data-name="Grupo 1162914">
          <rect id="Rectángulo_411975" data-name="Rectángulo 411975" width="12.3" height="3.264" fill="#6445f1"/>
        </g>
      </g>
      <g id="Grupo_1162917" data-name="Grupo 1162917" transform="translate(96.921 111.391)">
        <g id="Grupo_1162916" data-name="Grupo 1162916">
          <rect id="Rectángulo_411976" data-name="Rectángulo 411976" width="12.3" height="3.264" fill="#ff4655"/>
        </g>
      </g>
      <g id="Grupo_1162919" data-name="Grupo 1162919" transform="translate(113.916 111.391)">
        <g id="Grupo_1162918" data-name="Grupo 1162918">
          <rect id="Rectángulo_411977" data-name="Rectángulo 411977" width="12.3" height="3.264" fill="#fff"/>
        </g>
      </g>
      <g id="Grupo_1162921" data-name="Grupo 1162921" transform="translate(60.644 79.523)">
        <g id="Grupo_1162920" data-name="Grupo 1162920">
          <rect id="Rectángulo_411978" data-name="Rectángulo 411978" width="34.168" height="3.385" fill="#ff4655"/>
        </g>
      </g>
      <g id="Grupo_1162923" data-name="Grupo 1162923" transform="translate(60.644 86.012)">
        <g id="Grupo_1162922" data-name="Grupo 1162922">
          <rect id="Rectángulo_411979" data-name="Rectángulo 411979" width="81.364" height="3.385" fill="#015566"/>
        </g>
      </g>
      <g id="Grupo_1162925" data-name="Grupo 1162925" transform="translate(60.644 117.653)">
        <g id="Grupo_1162924" data-name="Grupo 1162924">
          <rect id="Rectángulo_411980" data-name="Rectángulo 411980" width="19.844" height="3.264" fill="#015566"/>
        </g>
      </g>
      <g id="Grupo_1162927" data-name="Grupo 1162927" transform="translate(84.62 117.653)">
        <g id="Grupo_1162926" data-name="Grupo 1162926">
          <rect id="Rectángulo_411981" data-name="Rectángulo 411981" width="12.3" height="3.264" fill="#fff"/>
        </g>
      </g>
      <g id="Grupo_1162929" data-name="Grupo 1162929" transform="translate(101.618 117.653)">
        <g id="Grupo_1162928" data-name="Grupo 1162928">
          <rect id="Rectángulo_411982" data-name="Rectángulo 411982" width="12.3" height="3.264" fill="#fff"/>
        </g>
      </g>
      <g id="Grupo_1162931" data-name="Grupo 1162931" transform="translate(60.644 104.902)">
        <g id="Grupo_1162930" data-name="Grupo 1162930">
          <rect id="Rectángulo_411983" data-name="Rectángulo 411983" width="83.058" height="3.385" fill="#6445f1"/>
        </g>
      </g>
      <g id="Grupo_1162933" data-name="Grupo 1162933" transform="translate(60.644 111.391)">
        <g id="Grupo_1162932" data-name="Grupo 1162932">
          <rect id="Rectángulo_411984" data-name="Rectángulo 411984" width="33.134" height="3.385" fill="#015566"/>
        </g>
      </g>
      <g id="Grupo_1162935" data-name="Grupo 1162935" transform="translate(60.644 143.035)">
        <g id="Grupo_1162934" data-name="Grupo 1162934">
          <rect id="Rectángulo_411985" data-name="Rectángulo 411985" width="19.844" height="3.264" fill="#015566"/>
        </g>
      </g>
      <g id="Grupo_1162937" data-name="Grupo 1162937" transform="translate(43.762 54.202)">
        <g id="Grupo_1162936" data-name="Grupo 1162936">
          <rect id="Rectángulo_411986" data-name="Rectángulo 411986" width="12.3" height="3.264" fill="#ff4655"/>
        </g>
      </g>
      <g id="Grupo_1162939" data-name="Grupo 1162939" transform="translate(43.762 79.581)">
        <g id="Grupo_1162938" data-name="Grupo 1162938">
          <rect id="Rectángulo_411987" data-name="Rectángulo 411987" width="12.3" height="3.264" fill="#ff4655"/>
        </g>
      </g>
      <g id="Grupo_1162941" data-name="Grupo 1162941" transform="translate(43.762 104.964)">
        <g id="Grupo_1162940" data-name="Grupo 1162940">
          <rect id="Rectángulo_411988" data-name="Rectángulo 411988" width="12.3" height="3.264" fill="#6445f1"/>
        </g>
      </g>
      <g id="Grupo_1162943" data-name="Grupo 1162943" transform="translate(43.762 130.346)">
        <g id="Grupo_1162942" data-name="Grupo 1162942">
          <rect id="Rectángulo_411989" data-name="Rectángulo 411989" width="12.3" height="3.264" fill="#fff"/>
        </g>
      </g>
      <g id="Grupo_1162945" data-name="Grupo 1162945" transform="translate(101.618 143.035)">
        <g id="Grupo_1162944" data-name="Grupo 1162944">
          <rect id="Rectángulo_411990" data-name="Rectángulo 411990" width="12.3" height="3.264" fill="#ff4655"/>
        </g>
      </g>
      <g id="Grupo_1162947" data-name="Grupo 1162947" transform="translate(84.62 143.035)">
        <g id="Grupo_1162946" data-name="Grupo 1162946">
          <rect id="Rectángulo_411991" data-name="Rectángulo 411991" width="12.3" height="3.264" fill="#6445f1"/>
        </g>
      </g>
      <g id="Grupo_1162949" data-name="Grupo 1162949" transform="translate(60.644 130.284)">
        <g id="Grupo_1162948" data-name="Grupo 1162948">
          <rect id="Rectángulo_411992" data-name="Rectángulo 411992" width="104.675" height="3.385" fill="#fff"/>
        </g>
      </g>
      <g id="Grupo_1162951" data-name="Grupo 1162951" transform="translate(60.644 136.773)">
        <g id="Grupo_1162950" data-name="Grupo 1162950">
          <rect id="Rectángulo_411993" data-name="Rectángulo 411993" width="61.501" height="3.385" fill="#6445f1"/>
        </g>
      </g>
      <g id="Grupo_1162953" data-name="Grupo 1162953" transform="translate(0 129.328)">
        <g id="Grupo_1162952" data-name="Grupo 1162952">
          <path id="Trazado_997320" data-name="Trazado 997320" d="M774.7,1305.242H731.062a19.388,19.388,0,0,1-19.366-19.366,19.708,19.708,0,0,1,5.513-13.678,17.822,17.822,0,0,1,12.7-5.688h15.692a1.018,1.018,0,1,1,0,2.035H729.914c-8.62,0-16.182,8.1-16.182,17.33a17.35,17.35,0,0,0,17.33,17.331H774.7a1.018,1.018,0,1,1,0,2.035Z" transform="translate(-711.696 -1266.511)" fill="#004751"/>
        </g>
      </g>
      <g id="Grupo_1162955" data-name="Grupo 1162955" transform="translate(78.959 164.697)">
        <g id="Grupo_1162954" data-name="Grupo 1162954">
          <circle id="Elipse_12214" data-name="Elipse 12214" cx="2.345" cy="2.345" r="2.345" fill="#004751"/>
        </g>
      </g>
      <g id="Grupo_1162957" data-name="Grupo 1162957" transform="translate(72.252 164.697)">
        <g id="Grupo_1162956" data-name="Grupo 1162956">
          <circle id="Elipse_12215" data-name="Elipse 12215" cx="2.345" cy="2.345" r="2.345" fill="#004751"/>
        </g>
      </g>
      <g id="Grupo_1162959" data-name="Grupo 1162959" transform="translate(65.545 164.697)">
        <g id="Grupo_1162958" data-name="Grupo 1162958">
          <circle id="Elipse_12216" data-name="Elipse 12216" cx="2.345" cy="2.345" r="2.345" fill="#004751"/>
        </g>
      </g>
    </g>
  </g>
</svg>
