<svg xmlns="http://www.w3.org/2000/svg" xmlns:xlink="http://www.w3.org/1999/xlink" width="113" height="113" viewBox="0 0 113 113">
  <defs>
    <filter id="Trazado_982547" x="0" y="0" width="113" height="113" filterUnits="userSpaceOnUse">
      <feOffset dy="3" input="SourceAlpha"/>
      <feGaussianBlur stdDeviation="3" result="blur"/>
      <feFlood flood-opacity="0.161"/>
      <feComposite operator="in" in2="blur"/>
      <feComposite in="SourceGraphic"/>
    </filter>
  </defs>
  <g id="Grupo_1164347" data-name="Grupo 1164347" transform="translate(-745 -4007)">
    <g id="Grupo_1164022" data-name="Grupo 1164022" transform="translate(754 4013)">
      <g id="Grupo_1158168" data-name="Grupo 1158168" transform="translate(0)">
        <g id="Grupo_1152576" data-name="Grupo 1152576">
          <g id="Grupo_1148633" data-name="Grupo 1148633">
            <g id="Grupo_1148525" data-name="Grupo 1148525">
              <g transform="matrix(1, 0, 0, 1, -9, -6)" filter="url(#Trazado_982547)">
                <g id="Trazado_982547-2" data-name="Trazado 982547" transform="translate(9 6)" fill="#f0ebfe">
                  <path d="M 47.5 93.5 C 41.28937149047852 93.5 35.26533508300781 92.28397369384766 29.59518623352051 89.88570404052734 C 24.11771965026855 87.56893157958984 19.19813346862793 84.25196075439453 14.97309303283691 80.02691650390625 C 10.74804019927979 75.80186462402344 7.431066513061523 70.88229370117188 5.114293098449707 65.40481567382812 C 2.716026782989502 59.73468017578125 1.5 53.71062850952148 1.5 47.5 C 1.5 41.28937149047852 2.716026782989502 35.26533508300781 5.114293098449707 29.59518623352051 C 7.431066513061523 24.11771965026855 10.74804019927979 19.19813346862793 14.97309303283691 14.97309303283691 C 19.19813346862793 10.74804019927979 24.11771965026855 7.431066513061523 29.59518623352051 5.114293098449707 C 35.26533508300781 2.716026782989502 41.28937149047852 1.5 47.5 1.5 C 53.71062850952148 1.5 59.73468017578125 2.716026782989502 65.40481567382812 5.114293098449707 C 70.88229370117188 7.431066513061523 75.80186462402344 10.74804019927979 80.02691650390625 14.97309303283691 C 84.25196075439453 19.19813346862793 87.56893157958984 24.11771965026855 89.88570404052734 29.59518623352051 C 92.28397369384766 35.26533508300781 93.5 41.28937149047852 93.5 47.5 C 93.5 53.71062850952148 92.28397369384766 59.73468017578125 89.88570404052734 65.40481567382812 C 87.56893157958984 70.88229370117188 84.25196075439453 75.80186462402344 80.02691650390625 80.02691650390625 C 75.80186462402344 84.25196075439453 70.88229370117188 87.56893157958984 65.40481567382812 89.88570404052734 C 59.73468017578125 92.28397369384766 53.71062850952148 93.5 47.5 93.5 Z" stroke="none"/>
                  <path d="M 47.5 3 C 41.49121475219727 3 35.66376876831055 4.176155090332031 30.17950439453125 6.495796203613281 C 24.88084411621094 8.736953735351562 20.12152099609375 11.94598388671875 16.03375244140625 16.03375244140625 C 11.94598388671875 20.12152099609375 8.736953735351562 24.88084411621094 6.495796203613281 30.17950439453125 C 4.176155090332031 35.66376876831055 3 41.49121475219727 3 47.5 C 3 53.50878524780273 4.176155090332031 59.33623123168945 6.495796203613281 64.82049560546875 C 8.736953735351562 70.11915588378906 11.94598388671875 74.87847900390625 16.03375244140625 78.96624755859375 C 20.12152099609375 83.05401611328125 24.88084411621094 86.26304626464844 30.17950439453125 88.50419616699219 C 35.66376876831055 90.82384490966797 41.49121475219727 92 47.5 92 C 53.50878524780273 92 59.33623123168945 90.82384490966797 64.82049560546875 88.50419616699219 C 70.11915588378906 86.26304626464844 74.87847900390625 83.05401611328125 78.96624755859375 78.96624755859375 C 83.05401611328125 74.87847900390625 86.26304626464844 70.11915588378906 88.50419616699219 64.82049560546875 C 90.82384490966797 59.33623123168945 92 53.50878524780273 92 47.5 C 92 41.49121475219727 90.82384490966797 35.66376876831055 88.50419616699219 30.17950439453125 C 86.26304626464844 24.88084411621094 83.05401611328125 20.12152099609375 78.96624755859375 16.03375244140625 C 74.87847900390625 11.94598388671875 70.11915588378906 8.736953735351562 64.82049560546875 6.495796203613281 C 59.33623123168945 4.176155090332031 53.50878524780273 3 47.5 3 M 47.5 0 C 73.7335205078125 0 95 21.2664794921875 95 47.5 C 95 73.7335205078125 73.7335205078125 95 47.5 95 C 21.2664794921875 95 0 73.7335205078125 0 47.5 C 0 21.2664794921875 21.2664794921875 0 47.5 0 Z" stroke="none" fill="#7145fe"/>
                </g>
              </g>
            </g>
          </g>
        </g>
      </g>
    </g>
    <g id="servidor-en-la-nube" transform="translate(773 4032)">
      <path id="Trazado_1000005" data-name="Trazado 1000005" d="M52.333,20.955c0-.02,0-.04,0-.061a13.4,13.4,0,0,0-25.961-4.648,5.364,5.364,0,0,0-8.044,4.648c0,.008,0,.017,0,.025A11.583,11.583,0,0,0,7.5,32.477h0A11.583,11.583,0,0,0,19.083,44.06H51.141A11.583,11.583,0,0,0,62.724,32.477h0A11.585,11.585,0,0,0,52.333,20.955Z" transform="translate(-6.667 -6.666)" fill="#d1e7f8"/>
      <path id="Trazado_1000006" data-name="Trazado 1000006" d="M7.5,396.821H62.724v9.8l-2.168,2.168H9.668L7.5,406.618Z" transform="translate(-6.667 -352.728)" fill="#787680"/>
      <g id="Grupo_1164342" data-name="Grupo 1164342" transform="translate(7.285 47.59)">
        <circle id="Elipse_12307" data-name="Elipse 12307" cx="2.485" cy="2.485" r="2.485" transform="translate(7.637)" fill="#57565c"/>
        <circle id="Elipse_12308" data-name="Elipse 12308" cx="2.485" cy="2.485" r="2.485" transform="translate(15.275)" fill="#57565c"/>
        <circle id="Elipse_12309" data-name="Elipse 12309" cx="2.485" cy="2.485" r="2.485" fill="#57565c"/>
      </g>
      <circle id="Elipse_12310" data-name="Elipse 12310" cx="2.485" cy="2.485" r="2.485" transform="translate(12.7 47.59)" fill="#ffe477"/>
      <circle id="Elipse_12311" data-name="Elipse 12311" cx="2.485" cy="2.485" r="2.485" transform="translate(20.338 47.59)" fill="#91dc5a"/>
      <circle id="Elipse_12312" data-name="Elipse 12312" cx="2.485" cy="2.485" r="2.485" transform="translate(5.063 47.59)" fill="#ff7956"/>
      <rect id="Rectángulo_412323" data-name="Rectángulo 412323" width="4.779" height="6.698" transform="translate(26.056 37.394)" fill="#57a4ff"/>
      <g id="Grupo_1164343" data-name="Grupo 1164343" transform="translate(0.833 0.833)">
        <path id="Trazado_1000007" data-name="Trazado 1000007" d="M180.28,15.528a5.338,5.338,0,0,1,2.678.717,13.409,13.409,0,0,1,10.9-8.644,13.414,13.414,0,0,0-13.949,7.939C180.032,15.533,180.155,15.528,180.28,15.528Z" transform="translate(-160.752 -7.499)" fill="#b3d8f4"/>
        <path id="Trazado_1000008" data-name="Trazado 1000008" d="M10.833,96.711h0a11.583,11.583,0,0,1,10.83-11.558c0-.008,0-.017,0-.025a5.368,5.368,0,0,1,3.7-5.1,5.367,5.367,0,0,0-7.031,5.1c0,.008,0,.017,0,.025A11.583,11.583,0,0,0,7.5,96.711h0a11.583,11.583,0,0,0,11.583,11.583h3.333A11.583,11.583,0,0,1,10.833,96.711Z" transform="translate(-7.5 -71.733)" fill="#b3d8f4"/>
      </g>
      <path id="Trazado_1000009" data-name="Trazado 1000009" d="M10.833,406.618v-9.8H7.5v9.8l2.168,2.168H13Z" transform="translate(-6.667 -352.728)" fill="#57565c"/>
      <path id="Trazado_1000010" data-name="Trazado 1000010" d="M116.518,430.779a2.485,2.485,0,0,1,1.374-2.224,2.485,2.485,0,1,0,0,4.447A2.485,2.485,0,0,1,116.518,430.779Z" transform="translate(-101.596 -380.704)" fill="#ffb655"/>
      <path id="Trazado_1000011" data-name="Trazado 1000011" d="M185.251,430.779a2.485,2.485,0,0,1,1.374-2.224,2.485,2.485,0,1,0,0,4.447A2.485,2.485,0,0,1,185.251,430.779Z" transform="translate(-162.692 -380.704)" fill="#64c37d"/>
      <path id="Trazado_1000012" data-name="Trazado 1000012" d="M47.785,430.779a2.485,2.485,0,0,1,1.374-2.224,2.485,2.485,0,1,0,0,4.447A2.485,2.485,0,0,1,47.785,430.779Z" transform="translate(-40.5 -380.704)" fill="#ff3f62"/>
      <rect id="Rectángulo_412324" data-name="Rectángulo 412324" width="2.222" height="6.698" transform="translate(26.056 37.394)" fill="#006df0"/>
      <rect id="Rectángulo_412325" data-name="Rectángulo 412325" width="1.667" height="1.667" transform="translate(26.204 33.783)"/>
      <rect id="Rectángulo_412326" data-name="Rectángulo 412326" width="1.667" height="1.667" transform="translate(28.982 33.783)"/>
      <rect id="Rectángulo_412327" data-name="Rectángulo 412327" width="1.667" height="1.667" transform="translate(23.426 33.783)"/>
      <rect id="Rectángulo_412328" data-name="Rectángulo 412328" width="1.667" height="1.667" transform="translate(31.76 33.783)"/>
      <rect id="Rectángulo_412329" data-name="Rectángulo 412329" width="6.132" height="1.667" transform="translate(46.409 52.446)"/>
      <path id="Trazado_1000013" data-name="Trazado 1000013" d="M12.416,38.228H44.474a12.417,12.417,0,0,0,2.011-24.671A14.231,14.231,0,0,0,19.267,8.448a6.2,6.2,0,0,0-8.394,5.043,12.417,12.417,0,0,0,1.543,24.737Zm-.722-23.141h4.787V13.42H12.57A4.53,4.53,0,0,1,19.29,10.3l.855.494.343-.926a12.564,12.564,0,0,1,24.346,4.359l0,.813.751.077a10.75,10.75,0,0,1-1.108,21.443H12.416a10.749,10.749,0,0,1-.722-21.475Z"/>
      <g id="Grupo_1164344" data-name="Grupo 1164344" transform="translate(44.474 25.811)">
        <path id="Trazado_1000014" data-name="Trazado 1000014" d="M472.536,232.3h-1.667a8.012,8.012,0,0,1-.141,1.5l1.637.313A9.682,9.682,0,0,0,472.536,232.3Z" transform="translate(-462.897 -232.295)" fill="#fff"/>
        <path id="Trazado_1000015" data-name="Trazado 1000015" d="M465.236,255.068l-1.584-.518a7.949,7.949,0,0,1-.6,1.38l1.458.808A9.632,9.632,0,0,0,465.236,255.068Z" transform="translate(-456.073 -252.077)" fill="#fff"/>
        <path id="Trazado_1000016" data-name="Trazado 1000016" d="M408.035,275.578l-1.345-.985a8.009,8.009,0,0,1-6.435,3.272v1.667A9.681,9.681,0,0,0,408.035,275.578Z" transform="translate(-400.255 -269.893)" fill="#fff"/>
      </g>
      <path id="Trazado_1000017" data-name="Trazado 1000017" d="M0,400.3l2.656,2.656H54.234l2.656-2.656V389.321H0Zm1.667-9.308H55.224v8.618l-1.68,1.68H3.347l-1.68-1.68Z" transform="translate(0 -346.062)"/>
      <g id="Grupo_1164345" data-name="Grupo 1164345" transform="translate(39.279 46.037)">
        <rect id="Rectángulo_412330" data-name="Rectángulo 412330" width="8.445" height="1.667" fill="#fff"/>
        <rect id="Rectángulo_412331" data-name="Rectángulo 412331" width="1.667" height="1.667" transform="translate(9.556)" fill="#fff"/>
        <rect id="Rectángulo_412332" data-name="Rectángulo 412332" width="1.667" height="1.667" transform="translate(12.334)" fill="#fff"/>
      </g>
      <path id="Trazado_1000018" data-name="Trazado 1000018" d="M110.115,427.431a3.319,3.319,0,1,0-3.319-3.319A3.322,3.322,0,0,0,110.115,427.431Zm0-4.97a1.652,1.652,0,1,1-1.652,1.652A1.654,1.654,0,0,1,110.115,422.461Z" transform="translate(-94.929 -374.038)"/>
      <path id="Trazado_1000019" data-name="Trazado 1000019" d="M178.848,427.431a3.319,3.319,0,1,0-3.319-3.319A3.322,3.322,0,0,0,178.848,427.431Zm0-4.97a1.652,1.652,0,1,1-1.652,1.652A1.654,1.654,0,0,1,178.848,422.461Z" transform="translate(-156.025 -374.038)"/>
      <path id="Trazado_1000020" data-name="Trazado 1000020" d="M41.382,427.431a3.319,3.319,0,1,0-3.319-3.319A3.322,3.322,0,0,0,41.382,427.431Zm0-4.97a1.652,1.652,0,1,1-1.652,1.652A1.654,1.654,0,0,1,41.382,422.461Z" transform="translate(-33.834 -374.038)"/>
      <rect id="Rectángulo_412333" data-name="Rectángulo 412333" width="1.667" height="1.667" transform="translate(28.793 49.242)"/>
      <rect id="Rectángulo_412334" data-name="Rectángulo 412334" width="1.667" height="1.667" transform="translate(34.349 49.242)"/>
      <rect id="Rectángulo_412335" data-name="Rectángulo 412335" width="1.667" height="1.667" transform="translate(31.571 49.242)"/>
      <rect id="Rectángulo_412336" data-name="Rectángulo 412336" width="1.667" height="3.365" transform="translate(25.223 39.061)"/>
      <rect id="Rectángulo_412337" data-name="Rectángulo 412337" width="1.667" height="3.365" transform="translate(30.001 39.061)"/>
      <g id="Grupo_1164346" data-name="Grupo 1164346" transform="translate(32.272 2.778)">
        <path id="Trazado_1000021" data-name="Trazado 1000021" d="M339.315,48.716l1.667,0a11.5,11.5,0,0,0-5.729-9.9l-.835,1.442A9.829,9.829,0,0,1,339.315,48.716Z" transform="translate(-329.531 -37.276)" fill="#fff"/>
        <path id="Trazado_1000022" data-name="Trazado 1000022" d="M292.232,25.14a11.54,11.54,0,0,0-1.789-.14v1.667a9.854,9.854,0,0,1,1.53.119Z" transform="translate(-290.443 -25)" fill="#fff"/>
        <path id="Trazado_1000023" data-name="Trazado 1000023" d="M315.335,29.1a11.392,11.392,0,0,0-1.694-.6l-.431,1.61a9.728,9.728,0,0,1,1.445.513Z" transform="translate(-310.68 -28.107)" fill="#fff"/>
      </g>
      <path id="Trazado_1000024" data-name="Trazado 1000024" d="M34.639,241.934v-1.667a7.981,7.981,0,0,1-7.972-7.972H25A9.65,9.65,0,0,0,34.639,241.934Z" transform="translate(-22.222 -206.484)"/>
      <rect id="Rectángulo_412338" data-name="Rectángulo 412338" width="1.667" height="1.667" transform="translate(1.667 35.358)"/>
      <rect id="Rectángulo_412339" data-name="Rectángulo 412339" width="1.667" height="1.667" transform="translate(1.667 40.913)"/>
      <rect id="Rectángulo_412340" data-name="Rectángulo 412340" width="1.667" height="1.667" transform="translate(1.667 38.136)"/>
      <rect id="Rectángulo_412341" data-name="Rectángulo 412341" width="1.667" height="1.667" transform="translate(53.556 35.358)"/>
      <rect id="Rectángulo_412342" data-name="Rectángulo 412342" width="1.667" height="1.667" transform="translate(53.556 38.136)"/>
      <rect id="Rectángulo_412343" data-name="Rectángulo 412343" width="1.667" height="1.667" transform="translate(53.556 40.913)"/>
      <rect id="Rectángulo_412344" data-name="Rectángulo 412344" width="1.667" height="2.852" transform="translate(27.612 39.335)"/>
    </g>
  </g>
</svg>
