<svg xmlns="http://www.w3.org/2000/svg" xmlns:xlink="http://www.w3.org/1999/xlink" width="110" height="110" viewBox="0 0 110 110">
  <defs>
    <filter id="Trazado_982547" x="0" y="0" width="110" height="110" filterUnits="userSpaceOnUse">
      <feOffset dy="3" input="SourceAlpha"/>
      <feGaussianBlur stdDeviation="3" result="blur"/>
      <feFlood flood-opacity="0.161"/>
      <feComposite operator="in" in2="blur"/>
      <feComposite in="SourceGraphic"/>
    </filter>
  </defs>
  <g id="Grupo_1164548" data-name="Grupo 1164548" transform="translate(-800 -897)">
    <g id="Grupo_1163994" data-name="Grupo 1163994" transform="translate(0 -70)">
      <g id="Grupo_1162100" data-name="Grupo 1162100" transform="translate(0 -3371)">
        <g id="Grupo_1157015" data-name="Grupo 1157015" transform="translate(0 3549)">
          <g id="Grupo_1155792" data-name="Grupo 1155792" transform="translate(-1 -3894.666)">
            <g id="Grupo_1154703" data-name="Grupo 1154703" transform="translate(0 1465.666)">
              <g id="Grupo_1150789" data-name="Grupo 1150789" transform="translate(3 2320)">
                <g id="Grupo_1154212" data-name="Grupo 1154212" transform="translate(-236 -5809)">
                  <g id="Grupo_1152583" data-name="Grupo 1152583" transform="translate(1043 6713)">
                    <g id="Grupo_1146973" data-name="Grupo 1146973" transform="translate(0 0)">
                      <g id="Grupo_1146954" data-name="Grupo 1146954">
                        <g transform="matrix(1, 0, 0, 1, -9, -6)" filter="url(#Trazado_982547)">
                          <g id="Trazado_982547-2" data-name="Trazado 982547" transform="translate(9 6)" fill="#f0ebfe">
                            <path d="M 46 90.49987030029297 C 39.99187850952148 90.49987030029297 34.16426849365234 89.32350921630859 28.67905426025391 87.00345611572266 C 23.38019943237305 84.76224517822266 18.62104034423828 81.55341339111328 14.53374671936035 77.46613311767578 C 10.44646644592285 73.37885284423828 7.237639904022217 68.61969757080078 4.996413230895996 63.32085418701172 C 2.676359891891479 57.83565521240234 1.5 52.008056640625 1.5 45.99993515014648 C 1.5 39.99181365966797 2.676359891891479 34.16421508789062 4.996413230895996 28.67901420593262 C 7.237639904022217 23.38017463684082 10.44646644592285 18.62101554870605 14.53374671936035 14.53373527526855 C 18.62104034423828 10.44645500183105 23.38019943237305 7.23762845993042 28.67905426025391 4.996415138244629 C 34.16426849365234 2.676361799240112 39.99187850952148 1.500001788139343 46 1.500001788139343 C 52.00812149047852 1.500001788139343 57.83573150634766 2.676361799240112 63.32094573974609 4.996415138244629 C 68.61979675292969 7.23762845993042 73.37895965576172 10.44645500183105 77.46625518798828 14.53373527526855 C 81.55353546142578 18.62101554870605 84.76235961914062 23.38017463684082 87.00358581542969 28.67901420593262 C 89.32363891601562 34.16421508789062 90.5 39.99181365966797 90.5 45.99993515014648 C 90.5 52.008056640625 89.32363891601562 57.83565521240234 87.00358581542969 63.32085418701172 C 84.76235961914062 68.61969757080078 81.55353546142578 73.37885284423828 77.46625518798828 77.46613311767578 C 73.37895965576172 81.55341339111328 68.61979675292969 84.76224517822266 63.32094573974609 87.00345611572266 C 57.83573150634766 89.32350921630859 52.00812149047852 90.49987030029297 46 90.49987030029297 Z" stroke="none"/>
                            <path d="M 46 2.999992370605469 C 40.1937141418457 2.999992370605469 34.56269836425781 4.136489868164062 29.26337051391602 6.377906799316406 C 24.14332580566406 8.543502807617188 19.54441070556641 11.64437866210938 15.59439849853516 15.59437561035156 C 11.64440155029297 19.54439544677734 8.54351806640625 24.14329528808594 6.377914428710938 29.26333618164062 C 4.136497497558594 34.56264877319336 3 40.19366455078125 3 45.99993515014648 C 3 51.80620574951172 4.136497497558594 57.43720626831055 6.377914428710938 62.73651885986328 C 8.54351806640625 67.8565673828125 11.64440155029297 72.45545959472656 15.59439849853516 76.40547943115234 C 19.54441070556641 80.35547637939453 24.14332580566406 83.45635223388672 29.26337051391602 85.6219482421875 C 34.56269836425781 87.86336517333984 40.1937141418457 88.99986267089844 46 88.99986267089844 C 51.8062858581543 88.99986267089844 57.43730163574219 87.86336517333984 62.73661422729492 85.6219482421875 C 67.85667419433594 83.45635223388672 72.45557403564453 80.35547637939453 76.40558624267578 76.40547943115234 C 80.35559844970703 72.45545959472656 83.45647430419922 67.8565673828125 85.6220703125 62.73651885986328 C 87.86350250244141 57.43720626831055 89 51.80620574951172 89 45.99993515014648 C 89 40.19366455078125 87.86350250244141 34.56264877319336 85.6220703125 29.26333618164062 C 83.45647430419922 24.14329528808594 80.35559844970703 19.54439544677734 76.40558624267578 15.59437561035156 C 72.45557403564453 11.64437866210938 67.85667419433594 8.543502807617188 62.73661422729492 6.377906799316406 C 57.43730163574219 4.136489868164062 51.8062858581543 2.999992370605469 46 2.999992370605469 M 46 -7.62939453125e-06 C 71.40509033203125 -7.62939453125e-06 92 20.59486389160156 92 45.99993515014648 C 92 71.40499114990234 71.40509033203125 91.99986267089844 46 91.99986267089844 C 20.59490203857422 91.99986267089844 0 71.40499114990234 0 45.99993515014648 C 0 20.59486389160156 20.59490203857422 -7.62939453125e-06 46 -7.62939453125e-06 Z" stroke="none" fill="#7145fe"/>
                          </g>
                        </g>
                      </g>
                    </g>
                  </g>
                </g>
              </g>
            </g>
          </g>
        </g>
      </g>
    </g>
    <g id="desarrollo-de-aplicaciones_1_" data-name="desarrollo-de-aplicaciones (1)" transform="translate(826 920)">
      <rect id="Rectángulo_412322" data-name="Rectángulo 412322" width="54" height="43" rx="2" transform="translate(2 1.544)" fill="#e2e7f6"/>
      <path id="Trazado_999944" data-name="Trazado 999944" d="M3.792,2A1.792,1.792,0,0,0,2,3.792V42.314H50.377a1.792,1.792,0,0,0,1.792-1.792V2Z" transform="translate(-0.104 -0.104)" fill="#f7fafd"/>
      <path id="Trazado_999945" data-name="Trazado 999945" d="M53.96,2H3.792A1.792,1.792,0,0,0,2,3.792V9.167H55.752V3.792A1.792,1.792,0,0,0,53.96,2Z" transform="translate(-0.104 -0.104)" fill="#5e87ca"/>
      <path id="Trazado_999946" data-name="Trazado 999946" d="M52.168,2H3.792A1.792,1.792,0,0,0,2,3.792V9.167H52.168Z" transform="translate(-0.104 -0.104)" fill="#78a0d4"/>
      <path id="Trazado_999947" data-name="Trazado 999947" d="M53.96,49.167H3.792A1.792,1.792,0,0,1,2,47.375V42H55.752v5.375A1.792,1.792,0,0,1,53.96,49.167Z" transform="translate(-0.104 -4.27)" fill="#5e87ca"/>
      <path id="Trazado_999948" data-name="Trazado 999948" d="M2,42v4.479H50.377a1.792,1.792,0,0,0,1.792-1.792V42Z" transform="translate(-0.104 -4.27)" fill="#78a0d4"/>
      <path id="Trazado_999949" data-name="Trazado 999949" d="M5,45h7.167v1.792H5Z" transform="translate(-0.417 -4.582)" fill="#f7fafd"/>
      <path id="Trazado_999950" data-name="Trazado 999950" d="M15,45h1.792v1.792H15Z" transform="translate(-1.458 -4.582)" fill="#f7fafd"/>
      <path id="Trazado_999951" data-name="Trazado 999951" d="M42.56,58H17.9a1.792,1.792,0,0,0-1.6.991L15,61.583H45.459l-1.3-2.593A1.792,1.792,0,0,0,42.56,58Z" transform="translate(-1.458 -5.936)" fill="#3b5892"/>
      <path id="Trazado_999952" data-name="Trazado 999952" d="M38.334,57.167,36.542,50H25.792L24,57.167Z" transform="translate(-2.395 -5.103)" fill="#c8cded"/>
      <path id="Trazado_999953" data-name="Trazado 999953" d="M41.98,58.9V58H18a1.792,1.792,0,0,0-1.6.991l-.4.8H41.084A.9.9,0,0,0,41.98,58.9Z" transform="translate(-1.562 -5.936)" fill="#4c6cb5"/>
      <g id="Grupo_1164320" data-name="Grupo 1164320" transform="translate(23.397 4.583)">
        <path id="Trazado_999954" data-name="Trazado 999954" d="M30,5h3.583V6.792H30Z" transform="translate(-26.417 -5)" fill="#f7fafd"/>
        <path id="Trazado_999955" data-name="Trazado 999955" d="M36,5h1.792V6.792H36Z" transform="translate(-27.041 -5)" fill="#f7fafd"/>
        <path id="Trazado_999956" data-name="Trazado 999956" d="M26,5h1.792V6.792H26Z" transform="translate(-26 -5)" fill="#f7fafd"/>
      </g>
      <path id="Trazado_999957" data-name="Trazado 999957" d="M23.917,26.75V23.167H21.891a7.138,7.138,0,0,0-.763-1.844l1.433-1.433-2.534-2.534L18.594,18.79a7.138,7.138,0,0,0-1.844-.763V16H13.167v2.026a7.138,7.138,0,0,0-1.844.763L9.89,17.356,7.357,19.891l1.433,1.433a7.138,7.138,0,0,0-.764,1.843H6V26.75H8.026a7.138,7.138,0,0,0,.763,1.844L7.356,30.027,9.89,32.561l1.433-1.433a7.138,7.138,0,0,0,1.844.763v2.026H16.75V31.891a7.138,7.138,0,0,0,1.844-.763l1.433,1.433,2.534-2.534-1.433-1.433a7.138,7.138,0,0,0,.763-1.844Z" transform="translate(-0.521 -1.562)" fill="#939393"/>
      <circle id="Elipse_12302" data-name="Elipse 12302" cx="3.5" cy="3.5" r="3.5" transform="translate(11 19.544)" fill="#f2f2f2"/>
      <path id="Trazado_999958" data-name="Trazado 999958" d="M16.75,16H13.167v2.026a7.138,7.138,0,0,0-1.844.763L9.89,17.356,7.357,19.891l1.433,1.433a7.138,7.138,0,0,0-.764,1.843H6V26.75H8.026a7.138,7.138,0,0,0,.763,1.844l-.648.648a8.869,8.869,0,0,0,10.325-8.8,8.959,8.959,0,0,0-.184-1.807,7.12,7.12,0,0,0-1.533-.608Z" transform="translate(-0.521 -1.562)" fill="#b5b5b5"/>
      <path id="Trazado_999959" data-name="Trazado 999959" d="M40,14H56.126v5.375H40Z" transform="translate(-4.061 -1.354)" fill="#f0ae42"/>
      <path id="Trazado_999960" data-name="Trazado 999960" d="M54.334,16.688V14H40v3.583H53.438A.9.9,0,0,0,54.334,16.688Z" transform="translate(-4.061 -1.354)" fill="#f9d266"/>
      <path id="Trazado_999961" data-name="Trazado 999961" d="M40,24H56.126v3.583H40Z" transform="translate(-4.061 -2.395)" fill="#f0ae42"/>
      <path id="Trazado_999962" data-name="Trazado 999962" d="M54.334,24.9V24H40v1.792H53.438A.9.9,0,0,0,54.334,24.9Z" transform="translate(-4.061 -2.395)" fill="#f9d266"/>
      <path id="Trazado_999963" data-name="Trazado 999963" d="M40,32H56.126v5.375H40Z" transform="translate(-4.061 -3.228)" fill="#f0ae42"/>
      <path id="Trazado_999964" data-name="Trazado 999964" d="M54.334,34.688V32H40v3.583H53.438A.9.9,0,0,0,54.334,34.688Z" transform="translate(-4.061 -3.228)" fill="#f9d266"/>
      <path id="Trazado_999965" data-name="Trazado 999965" d="M38.542,17.792V16H31.375a.9.9,0,0,0-.9.9v7.167H26v1.792h4.479v7.167a.9.9,0,0,0,.9.9h7.167V32.126H32.271V25.855h6.271V24.063H32.271V17.792Z" transform="translate(-2.603 -1.562)" fill="#3b5892"/>
      <path id="Trazado_999966" data-name="Trazado 999966" d="M18.666,23.786a3.574,3.574,0,1,0-4.3,5.154,8.938,8.938,0,0,0,4.3-5.154Z" transform="translate(-1.145 -2.187)" fill="#f7fafd"/>
      <path id="Trazado_999967" data-name="Trazado 999967" d="M53.856,1H3.688A2.688,2.688,0,0,0,1,3.688V43.106a2.688,2.688,0,0,0,2.688,2.688H22.249l-1.344,5.375H16.441a2.672,2.672,0,0,0-2.4,1.485l-1.3,2.594a.9.9,0,0,0,.8,1.3H44a.9.9,0,0,0,.806-1.3l-1.3-2.594A2.672,2.672,0,0,0,41.1,51.168H36.638l-1.344-5.375H53.856a2.688,2.688,0,0,0,2.688-2.688V3.688A2.688,2.688,0,0,0,53.856,1ZM3.688,2.792H53.856a.9.9,0,0,1,.9.9V8.167H2.792V3.688A.9.9,0,0,1,3.688,2.792ZM54.752,9.959V36.835H2.792V9.959ZM41.9,53.456l.649,1.3H14.992l.649-1.3a.89.89,0,0,1,.8-.5H41.1a.89.89,0,0,1,.8.5Zm-7.112-2.287H22.752L24.1,45.793h9.351ZM53.856,44H3.688a.9.9,0,0,1-.9-.9V38.626h51.96v4.479A.9.9,0,0,1,53.856,44Z"/>
      <path id="Trazado_999968" data-name="Trazado 999968" d="M30,5h3.583V6.792H30Z" transform="translate(-3.02 -0.417)"/>
      <path id="Trazado_999969" data-name="Trazado 999969" d="M36,5h1.792V6.792H36Z" transform="translate(-3.645 -0.417)"/>
      <path id="Trazado_999970" data-name="Trazado 999970" d="M26,5h1.792V6.792H26Z" transform="translate(-2.603 -0.417)"/>
      <path id="Trazado_999971" data-name="Trazado 999971" d="M5,45h7.167v1.792H5Z" transform="translate(-0.417 -4.582)"/>
      <path id="Trazado_999972" data-name="Trazado 999972" d="M15,45h1.792v1.792H15Z" transform="translate(-1.458 -4.582)"/>
      <path id="Trazado_999973" data-name="Trazado 999973" d="M5.9,27.334H7.259a8.3,8.3,0,0,0,.324.782l-.964.965a.9.9,0,0,0,0,1.267l2.534,2.534a.9.9,0,0,0,1.267,0l.965-.964a8.3,8.3,0,0,0,.782.324V33.6a.9.9,0,0,0,.9.9h3.583a.9.9,0,0,0,.9-.9V32.241a8.3,8.3,0,0,0,.782-.324l.965.964a.9.9,0,0,0,1.267,0l2.534-2.534a.9.9,0,0,0,0-1.267l-.964-.965a8.3,8.3,0,0,0,.324-.782h1.364a.9.9,0,0,0,.9-.9v-.9h3.583v7.167a.9.9,0,0,0,.9.9h6.271V35.4a.9.9,0,0,0,.9.9H52.481a.9.9,0,0,0,.9-.9V30.021a.9.9,0,0,0-.9-.9H36.355a.9.9,0,0,0-.9.9v1.792H30.084V25.542h5.375v.9a.9.9,0,0,0,.9.9H52.481a.9.9,0,0,0,.9-.9V22.855a.9.9,0,0,0-.9-.9H36.355a.9.9,0,0,0-.9.9v.9H30.084V17.479h5.375v1.792a.9.9,0,0,0,.9.9H52.481a.9.9,0,0,0,.9-.9V13.9a.9.9,0,0,0-.9-.9H36.355a.9.9,0,0,0-.9.9v1.792H29.188a.9.9,0,0,0-.9.9V23.75H24.709v-.9a.9.9,0,0,0-.9-.9H22.45a8.3,8.3,0,0,0-.324-.782l.964-.965a.9.9,0,0,0,0-1.267l-2.534-2.534a.9.9,0,0,0-1.267,0l-.965.964a8.3,8.3,0,0,0-.782-.324V15.688a.9.9,0,0,0-.9-.9H13.063a.9.9,0,0,0-.9.9v1.364a8.3,8.3,0,0,0-.782.324l-.965-.964a.9.9,0,0,0-1.267,0L6.62,18.945a.9.9,0,0,0,0,1.267l.964.965a8.3,8.3,0,0,0-.324.782H5.9a.9.9,0,0,0-.9.9v3.583A.9.9,0,0,0,5.9,27.334Zm31.355,3.583H51.585V34.5H37.251Zm0-7.167H51.585v1.792H37.251Zm0-8.959H51.585v3.583H37.251ZM6.792,23.75H7.922a.9.9,0,0,0,.867-.672,6.271,6.271,0,0,1,.667-1.613.9.9,0,0,0-.138-1.089l-.8-.8,1.267-1.267.8.8a.9.9,0,0,0,1.089.138,6.271,6.271,0,0,1,1.613-.667.9.9,0,0,0,.672-.867v-1.13h1.792v1.131a.9.9,0,0,0,.672.867,6.271,6.271,0,0,1,1.613.667.9.9,0,0,0,1.089-.138l.8-.8,1.267,1.267-.8.8a.9.9,0,0,0-.138,1.089,6.271,6.271,0,0,1,.667,1.613.9.9,0,0,0,.867.672h1.129v1.792H21.787a.9.9,0,0,0-.867.672,6.271,6.271,0,0,1-.667,1.613.9.9,0,0,0,.138,1.089l.8.8-1.267,1.267-.8-.8a.9.9,0,0,0-1.089-.138,6.271,6.271,0,0,1-1.613.667.9.9,0,0,0-.672.867v1.129H13.959V31.578a.9.9,0,0,0-.672-.867,6.271,6.271,0,0,1-1.613-.667.9.9,0,0,0-1.089.138l-.8.8L8.52,29.714l.8-.8a.9.9,0,0,0,.138-1.089,6.271,6.271,0,0,1-.667-1.613.9.9,0,0,0-.867-.671H6.792Z" transform="translate(-0.417 -1.25)"/>
      <path id="Trazado_999974" data-name="Trazado 999974" d="M15.479,29.959A4.479,4.479,0,1,0,11,25.479a4.479,4.479,0,0,0,4.479,4.479Zm0-7.167a2.688,2.688,0,1,1-2.688,2.688A2.688,2.688,0,0,1,15.479,22.792Z" transform="translate(-1.041 -2.083)"/>
    </g>
  </g>
</svg>
