<svg xmlns="http://www.w3.org/2000/svg" xmlns:xlink="http://www.w3.org/1999/xlink" width="113" height="113" viewBox="0 0 113 113">
  <defs>
    <filter id="Trazado_982547" x="0" y="0" width="113" height="113" filterUnits="userSpaceOnUse">
      <feOffset dy="3" input="SourceAlpha"/>
      <feGaussianBlur stdDeviation="3" result="blur"/>
      <feFlood flood-opacity="0.161"/>
      <feComposite operator="in" in2="blur"/>
      <feComposite in="SourceGraphic"/>
    </filter>
  </defs>
  <g id="Grupo_1163006" data-name="Grupo 1163006" transform="translate(-272 -2478)">
    <g id="Grupo_1158168" data-name="Grupo 1158168" transform="translate(281 2484)">
      <g id="Grupo_1152576" data-name="Grupo 1152576" transform="translate(0)">
        <g id="Grupo_1148633" data-name="Grupo 1148633">
          <g id="Grupo_1148525" data-name="Grupo 1148525">
            <g transform="matrix(1, 0, 0, 1, -9, -6)" filter="url(#Trazado_982547)">
              <g id="Trazado_982547-2" data-name="Trazado 982547" transform="translate(9 6)" fill="#f0ebfe">
                <path d="M 47.5 93.5 C 41.28937149047852 93.5 35.26533508300781 92.28397369384766 29.59518623352051 89.88570404052734 C 24.11771965026855 87.56893157958984 19.19813346862793 84.25196075439453 14.97309303283691 80.02691650390625 C 10.74804019927979 75.80186462402344 7.431066513061523 70.88229370117188 5.114293098449707 65.40481567382812 C 2.716026782989502 59.73468017578125 1.5 53.71062850952148 1.5 47.5 C 1.5 41.28937149047852 2.716026782989502 35.26533508300781 5.114293098449707 29.59518623352051 C 7.431066513061523 24.11771965026855 10.74804019927979 19.19813346862793 14.97309303283691 14.97309303283691 C 19.19813346862793 10.74804019927979 24.11771965026855 7.431066513061523 29.59518623352051 5.114293098449707 C 35.26533508300781 2.716026782989502 41.28937149047852 1.5 47.5 1.5 C 53.71062850952148 1.5 59.73468017578125 2.716026782989502 65.40481567382812 5.114293098449707 C 70.88229370117188 7.431066513061523 75.80186462402344 10.74804019927979 80.02691650390625 14.97309303283691 C 84.25196075439453 19.19813346862793 87.56893157958984 24.11771965026855 89.88570404052734 29.59518623352051 C 92.28397369384766 35.26533508300781 93.5 41.28937149047852 93.5 47.5 C 93.5 53.71062850952148 92.28397369384766 59.73468017578125 89.88570404052734 65.40481567382812 C 87.56893157958984 70.88229370117188 84.25196075439453 75.80186462402344 80.02691650390625 80.02691650390625 C 75.80186462402344 84.25196075439453 70.88229370117188 87.56893157958984 65.40481567382812 89.88570404052734 C 59.73468017578125 92.28397369384766 53.71062850952148 93.5 47.5 93.5 Z" stroke="none"/>
                <path d="M 47.5 3 C 41.49121475219727 3 35.66376876831055 4.176155090332031 30.17950439453125 6.495796203613281 C 24.88084411621094 8.736953735351562 20.12152099609375 11.94598388671875 16.03375244140625 16.03375244140625 C 11.94598388671875 20.12152099609375 8.736953735351562 24.88084411621094 6.495796203613281 30.17950439453125 C 4.176155090332031 35.66376876831055 3 41.49121475219727 3 47.5 C 3 53.50878524780273 4.176155090332031 59.33623123168945 6.495796203613281 64.82049560546875 C 8.736953735351562 70.11915588378906 11.94598388671875 74.87847900390625 16.03375244140625 78.96624755859375 C 20.12152099609375 83.05401611328125 24.88084411621094 86.26304626464844 30.17950439453125 88.50419616699219 C 35.66376876831055 90.82384490966797 41.49121475219727 92 47.5 92 C 53.50878524780273 92 59.33623123168945 90.82384490966797 64.82049560546875 88.50419616699219 C 70.11915588378906 86.26304626464844 74.87847900390625 83.05401611328125 78.96624755859375 78.96624755859375 C 83.05401611328125 74.87847900390625 86.26304626464844 70.11915588378906 88.50419616699219 64.82049560546875 C 90.82384490966797 59.33623123168945 92 53.50878524780273 92 47.5 C 92 41.49121475219727 90.82384490966797 35.66376876831055 88.50419616699219 30.17950439453125 C 86.26304626464844 24.88084411621094 83.05401611328125 20.12152099609375 78.96624755859375 16.03375244140625 C 74.87847900390625 11.94598388671875 70.11915588378906 8.736953735351562 64.82049560546875 6.495796203613281 C 59.33623123168945 4.176155090332031 53.50878524780273 3 47.5 3 M 47.5 0 C 73.7335205078125 0 95 21.2664794921875 95 47.5 C 95 73.7335205078125 73.7335205078125 95 47.5 95 C 21.2664794921875 95 0 73.7335205078125 0 47.5 C 0 21.2664794921875 21.2664794921875 0 47.5 0 Z" stroke="none" fill="#7145fe"/>
              </g>
            </g>
          </g>
        </g>
      </g>
    </g>
    <g id="representacion" transform="translate(297.852 2502)">
      <g id="Grupo_1163004" data-name="Grupo 1163004" transform="translate(1.037 0.89)">
        <path id="Trazado_997435" data-name="Trazado 997435" d="M66.475,100.041v32.7a1.779,1.779,0,0,1-1.779,1.779H9.422a1.779,1.779,0,0,1-1.779-1.779v-32.7a1.779,1.779,0,0,1,1.779-1.779H64.7a1.779,1.779,0,0,1,1.779,1.779Z" transform="translate(-7.643 -87.499)" fill="#99e6fc"/>
        <path id="Trazado_997436" data-name="Trazado 997436" d="M12.386,134.515H9.422a1.779,1.779,0,0,1-1.779-1.779v-32.7a1.779,1.779,0,0,1,1.779-1.779h2.965a1.779,1.779,0,0,0-1.779,1.779v32.7A1.779,1.779,0,0,0,12.386,134.515Z" transform="translate(-7.643 -87.499)" fill="#62dbfb"/>
        <path id="Trazado_997437" data-name="Trazado 997437" d="M210.567,368.763h10.7V380.58h-10.7Z" transform="translate(-186.503 -325.922)" fill="#a8d3d8"/>
        <path id="Trazado_997438" data-name="Trazado 997438" d="M210.563,368.762h2.965v11.817h-2.965Z" transform="translate(-186.499 -325.921)" fill="#8ebac5"/>
        <path id="Trazado_997439" data-name="Trazado 997439" d="M66.475,333.372v6.593a1.779,1.779,0,0,1-1.779,1.779H9.422a1.779,1.779,0,0,1-1.779-1.779v-6.593a2.134,2.134,0,0,0,2.135,2.135H64.339a2.134,2.134,0,0,0,2.135-2.135Z" transform="translate(-7.643 -294.728)" fill="#eef5f6"/>
        <path id="Trazado_997440" data-name="Trazado 997440" d="M114.114,8.925V40.614a1.423,1.423,0,0,1-1.423,1.423H71.516a1.423,1.423,0,0,1-1.423-1.423V8.925A1.423,1.423,0,0,1,71.516,7.5h41.174a1.423,1.423,0,0,1,1.423,1.423Z" transform="translate(-62.687 -7.502)" fill="#eef5f6"/>
        <path id="Trazado_997441" data-name="Trazado 997441" d="M74.481,42.037H71.516a1.423,1.423,0,0,1-1.423-1.423V8.925A1.423,1.423,0,0,1,71.516,7.5h2.965a1.423,1.423,0,0,0-1.423,1.423V40.614A1.423,1.423,0,0,0,74.481,42.037Z" transform="translate(-62.687 -7.502)" fill="#cbe5e8"/>
        <path id="Trazado_997442" data-name="Trazado 997442" d="M192.279,85.712V96.821a.238.238,0,0,1-.119.205l-9.621,5.555a.241.241,0,0,1-.117.031h0a.233.233,0,0,1-.119-.031l-9.621-5.555a.237.237,0,0,1-.119-.205V85.712a.24.24,0,0,1,.032-.119.236.236,0,0,1,.087-.088l9.621-5.555a.241.241,0,0,1,.237,0l9.621,5.555a.237.237,0,0,1,.087.088A.24.24,0,0,1,192.279,85.712Z" transform="translate(-153.006 -71.332)" fill="#fe7ab6"/>
        <path id="Trazado_997443" data-name="Trazado 997443" d="M185.107,81.433a.241.241,0,0,0-.237,0l-9.621,5.555a.236.236,0,0,0-.087.088.24.24,0,0,0-.032.119V98.3a.238.238,0,0,0,.119.205l-2.567-1.482a.238.238,0,0,1-.119-.205V85.712a.24.24,0,0,1,.032-.119.236.236,0,0,1,.087-.088l9.621-5.555a.241.241,0,0,1,.237,0Z" transform="translate(-153.006 -71.332)" fill="#fe5ca7"/>
        <path id="Trazado_997444" data-name="Trazado 997444" d="M182.422,133.435V144.78a.233.233,0,0,1-.119-.031l-9.621-5.555a.238.238,0,0,1-.119-.205V127.881a.24.24,0,0,1,.032-.119Z" transform="translate(-153.006 -113.501)" fill="#bbf49b"/>
        <path id="Trazado_997445" data-name="Trazado 997445" d="M265.56,127.881V138.99a.238.238,0,0,1-.119.205l-9.621,5.555a.241.241,0,0,1-.117.031V133.434l9.825-5.672A.24.24,0,0,1,265.56,127.881Z" transform="translate(-226.286 -113.501)" fill="#bd80e1"/>
        <path id="Trazado_997446" data-name="Trazado 997446" d="M180.921,464.805H159.864a.949.949,0,0,1-.949-.949v-3.362a.949.949,0,0,1,.949-.949h21.057a.949.949,0,0,1,.949.949v3.362A.949.949,0,0,1,180.921,464.805Z" transform="translate(-140.976 -405.94)" fill="#eef5f6"/>
        <path id="Trazado_997447" data-name="Trazado 997447" d="M114.114,8.925v3.91H70.093V8.925A1.423,1.423,0,0,1,71.516,7.5h41.174A1.423,1.423,0,0,1,114.114,8.925Z" transform="translate(-62.687 -7.502)" fill="#fe7ab6"/>
        <circle id="Elipse_12224" data-name="Elipse 12224" cx="9.963" cy="9.963" r="9.963" transform="translate(35.481 3.5)" fill="#bbf49b"/>
        <path id="Trazado_997448" data-name="Trazado 997448" d="M318.288,56.828a9.963,9.963,0,1,1,0-19.706,9.964,9.964,0,0,0,0,19.706Z" transform="translate(-271.362 -33.513)" fill="#9be69d"/>
        <path id="Trazado_997449" data-name="Trazado 997449" d="M12.386,341.744H9.422a1.779,1.779,0,0,1-1.779-1.779v-6.593a2.134,2.134,0,0,0,2.135,2.135h.83v4.459A1.779,1.779,0,0,0,12.386,341.744Z" transform="translate(-7.643 -294.728)" fill="#cbe5e8"/>
        <path id="Trazado_997450" data-name="Trazado 997450" d="M162.826,464.8h-2.965a.948.948,0,0,1-.949-.949v-3.362a.949.949,0,0,1,.949-.949h2.965a.949.949,0,0,0-.949.949v3.362A.948.948,0,0,0,162.826,464.8Z" transform="translate(-140.974 -405.936)" fill="#cbe5e8"/>
        <path id="Trazado_997451" data-name="Trazado 997451" d="M74.481,7.5a1.423,1.423,0,0,0-1.423,1.423v3.91H70.093V8.925A1.423,1.423,0,0,1,71.516,7.5Z" transform="translate(-62.687 -7.502)" fill="#fe5ca7"/>
        <path id="Trazado_997452" data-name="Trazado 997452" d="M175.249,140.677l-2.567-1.482a.238.238,0,0,1-.119-.205V127.881a.24.24,0,0,1,.032-.119l2.567,1.482a.24.24,0,0,0-.032.119v11.109A.238.238,0,0,0,175.249,140.677Z" transform="translate(-153.006 -113.501)" fill="#9be69d"/>
        <path id="Trazado_997453" data-name="Trazado 997453" d="M175.249,140.677l-2.567-1.482a.238.238,0,0,1-.119-.205V127.881a.24.24,0,0,1,.032-.119l2.567,1.482a.24.24,0,0,0-.032.119v11.109A.238.238,0,0,0,175.249,140.677Z" transform="translate(-153.006 -113.501)" fill="#9be69d"/>
        <path id="Trazado_997454" data-name="Trazado 997454" d="M258.27,163.092v11.383l-2.45,1.415a.241.241,0,0,1-.117.031V164.574Z" transform="translate(-226.286 -144.641)" fill="#af66da"/>
      </g>
      <g id="Grupo_1163005" data-name="Grupo 1163005" transform="translate(0.148)">
        <path id="Trazado_997455" data-name="Trazado 997455" d="M118.4,77.318a.889.889,0,0,0,.889-.889V74.323h2.106a.889.889,0,1,0,0-1.779h-2.758a1.128,1.128,0,0,0-1.127,1.127v2.758a.889.889,0,0,0,.889.889Z" transform="translate(-103.592 -63.941)"/>
        <path id="Trazado_997456" data-name="Trazado 997456" d="M118.636,243.6h2.758a.889.889,0,1,0,0-1.779h-2.106v-2.106a.889.889,0,1,0-1.779,0v2.758A1.128,1.128,0,0,0,118.636,243.6Z" transform="translate(-103.592 -210.504)"/>
        <path id="Trazado_997457" data-name="Trazado 997457" d="M354.511,243.6h2.758a1.128,1.128,0,0,0,1.127-1.127v-2.758a.889.889,0,1,0-1.779,0v2.106h-2.106a.889.889,0,1,0,0,1.779Z" transform="translate(-311.705 -210.504)"/>
        <path id="Trazado_997458" data-name="Trazado 997458" d="M58.089,10.763H56.722a10.893,10.893,0,0,0-3.368-4.8V2.312A2.315,2.315,0,0,0,51.041,0H15.423a.889.889,0,0,0,0,1.779H51.041a.534.534,0,0,1,.534.534v2.46a10.831,10.831,0,0,0-11.123.561H9.331V2.312a.534.534,0,0,1,.534-.534h1.408a.889.889,0,0,0,0-1.779H9.865A2.315,2.315,0,0,0,7.553,2.312v8.45H2.816A2.671,2.671,0,0,0,.148,13.431v32.7A2.671,2.671,0,0,0,2.816,48.8h21.4v4.811H19.924a1.84,1.84,0,0,0-1.838,1.838v3.362a1.84,1.84,0,0,0,1.838,1.838H40.981a1.84,1.84,0,0,0,1.838-1.838V55.445a1.84,1.84,0,0,0-1.838-1.838H36.694V48.8h14.17a.889.889,0,1,0,0-1.779H2.816a.89.89,0,0,1-.889-.889v-3.84a3,3,0,0,0,1.245.269H57.734a3.006,3.006,0,0,0,1.245-.269v3.84a.89.89,0,0,1-.889.889H55.014a.889.889,0,1,0,0,1.779h3.075a2.671,2.671,0,0,0,2.668-2.668v-32.7a2.671,2.671,0,0,0-2.668-2.668ZM41.04,55.445v3.362a.059.059,0,0,1-.059.059H19.924a.059.059,0,0,1-.059-.059V55.445a.059.059,0,0,1,.059-.059H40.981A.059.059,0,0,1,41.04,55.445Zm-6.125-1.838H25.99V48.8h8.925ZM55.554,14.352A9.073,9.073,0,1,1,46.48,5.279,9.084,9.084,0,0,1,55.554,14.352Zm-25.1-3.884,5.211,3.008q-.035.434-.035.876a10.851,10.851,0,0,0,.249,2.313L30.453,19.8l-8.079-4.664Zm-8.969,6.2,8.079,4.665v9.329L21.484,26Zm9.858,4.665,5.073-2.929a10.9,10.9,0,0,0,3.006,4.179V26l-8.079,4.664ZM38.4,7.113a10.842,10.842,0,0,0-2.423,4.493L31.018,8.741a1.126,1.126,0,0,0-1.129,0l-9.613,5.55a1.126,1.126,0,0,0-.571.98V26.379a1.131,1.131,0,0,0,.563.975l9.619,5.553a1.127,1.127,0,0,0,1.129,0l9.622-5.555a1.13,1.13,0,0,0,.562-.975V23.83a10.832,10.832,0,0,0,10.374.1V34a.534.534,0,0,1-.534.534H9.865A.534.534,0,0,1,9.331,34V7.113Zm19.33,33.666H3.172a1.247,1.247,0,0,1-1.245-1.245v-26.1a.89.89,0,0,1,.889-.889H7.553V34a2.315,2.315,0,0,0,2.312,2.312H51.041A2.315,2.315,0,0,0,53.353,34V22.744a10.843,10.843,0,0,0,3.827-10.2h.909a.89.89,0,0,1,.889.889v26.1a1.247,1.247,0,0,1-1.245,1.245Z" transform="translate(-0.148)"/>
        <path id="Trazado_997459" data-name="Trazado 997459" d="M346.463,95.311a1.127,1.127,0,0,0,1.593,0l6.045-6.045a.889.889,0,0,0-1.258-1.258l-5.584,5.584-2.726-2.726a.889.889,0,1,0-1.258,1.258Z" transform="translate(-302.357 -77.342)"/>
      </g>
    </g>
  </g>
</svg>
