<svg xmlns="http://www.w3.org/2000/svg" xmlns:xlink="http://www.w3.org/1999/xlink" width="113" height="113" viewBox="0 0 113 113">
  <defs>
    <filter id="Trazado_982547" x="0" y="0" width="113" height="113" filterUnits="userSpaceOnUse">
      <feOffset dy="3" input="SourceAlpha"/>
      <feGaussianBlur stdDeviation="3" result="blur"/>
      <feFlood flood-opacity="0.161"/>
      <feComposite operator="in" in2="blur"/>
      <feComposite in="SourceGraphic"/>
    </filter>
  </defs>
  <g id="Grupo_1163021" data-name="Grupo 1163021" transform="translate(-587 -2478)">
    <g id="Grupo_1161819" data-name="Grupo 1161819" transform="translate(596 2484)">
      <g id="Grupo_1152576" data-name="Grupo 1152576" transform="translate(0)">
        <g id="Grupo_1148633" data-name="Grupo 1148633">
          <g id="Grupo_1148525" data-name="Grupo 1148525">
            <g transform="matrix(1, 0, 0, 1, -9, -6)" filter="url(#Trazado_982547)">
              <g id="Trazado_982547-2" data-name="Trazado 982547" transform="translate(9 6)" fill="#f0ebfe">
                <path d="M 47.5 93.5 C 41.28937149047852 93.5 35.26533508300781 92.28397369384766 29.59518623352051 89.88570404052734 C 24.11771965026855 87.56893157958984 19.19813346862793 84.25196075439453 14.97309303283691 80.02691650390625 C 10.74804019927979 75.80186462402344 7.431066513061523 70.88229370117188 5.114293098449707 65.40481567382812 C 2.716026782989502 59.73468017578125 1.5 53.71062850952148 1.5 47.5 C 1.5 41.28937149047852 2.716026782989502 35.26533508300781 5.114293098449707 29.59518623352051 C 7.431066513061523 24.11771965026855 10.74804019927979 19.19813346862793 14.97309303283691 14.97309303283691 C 19.19813346862793 10.74804019927979 24.11771965026855 7.431066513061523 29.59518623352051 5.114293098449707 C 35.26533508300781 2.716026782989502 41.28937149047852 1.5 47.5 1.5 C 53.71062850952148 1.5 59.73468017578125 2.716026782989502 65.40481567382812 5.114293098449707 C 70.88229370117188 7.431066513061523 75.80186462402344 10.74804019927979 80.02691650390625 14.97309303283691 C 84.25196075439453 19.19813346862793 87.56893157958984 24.11771965026855 89.88570404052734 29.59518623352051 C 92.28397369384766 35.26533508300781 93.5 41.28937149047852 93.5 47.5 C 93.5 53.71062850952148 92.28397369384766 59.73468017578125 89.88570404052734 65.40481567382812 C 87.56893157958984 70.88229370117188 84.25196075439453 75.80186462402344 80.02691650390625 80.02691650390625 C 75.80186462402344 84.25196075439453 70.88229370117188 87.56893157958984 65.40481567382812 89.88570404052734 C 59.73468017578125 92.28397369384766 53.71062850952148 93.5 47.5 93.5 Z" stroke="none"/>
                <path d="M 47.5 3 C 41.49121475219727 3 35.66376876831055 4.176155090332031 30.17950439453125 6.495796203613281 C 24.88084411621094 8.736953735351562 20.12152099609375 11.94598388671875 16.03375244140625 16.03375244140625 C 11.94598388671875 20.12152099609375 8.736953735351562 24.88084411621094 6.495796203613281 30.17950439453125 C 4.176155090332031 35.66376876831055 3 41.49121475219727 3 47.5 C 3 53.50878524780273 4.176155090332031 59.33623123168945 6.495796203613281 64.82049560546875 C 8.736953735351562 70.11915588378906 11.94598388671875 74.87847900390625 16.03375244140625 78.96624755859375 C 20.12152099609375 83.05401611328125 24.88084411621094 86.26304626464844 30.17950439453125 88.50419616699219 C 35.66376876831055 90.82384490966797 41.49121475219727 92 47.5 92 C 53.50878524780273 92 59.33623123168945 90.82384490966797 64.82049560546875 88.50419616699219 C 70.11915588378906 86.26304626464844 74.87847900390625 83.05401611328125 78.96624755859375 78.96624755859375 C 83.05401611328125 74.87847900390625 86.26304626464844 70.11915588378906 88.50419616699219 64.82049560546875 C 90.82384490966797 59.33623123168945 92 53.50878524780273 92 47.5 C 92 41.49121475219727 90.82384490966797 35.66376876831055 88.50419616699219 30.17950439453125 C 86.26304626464844 24.88084411621094 83.05401611328125 20.12152099609375 78.96624755859375 16.03375244140625 C 74.87847900390625 11.94598388671875 70.11915588378906 8.736953735351562 64.82049560546875 6.495796203613281 C 59.33623123168945 4.176155090332031 53.50878524780273 3 47.5 3 M 47.5 0 C 73.7335205078125 0 95 21.2664794921875 95 47.5 C 95 73.7335205078125 73.7335205078125 95 47.5 95 C 21.2664794921875 95 0 73.7335205078125 0 47.5 C 0 21.2664794921875 21.2664794921875 0 47.5 0 Z" stroke="none" fill="#7145fe"/>
              </g>
            </g>
          </g>
        </g>
      </g>
    </g>
    <g id="innovacion_3_" data-name="innovacion (3)" transform="translate(612 2500)">
      <g id="Grupo_1163019" data-name="Grupo 1163019">
        <g id="Grupo_1163007" data-name="Grupo 1163007">
          <path id="Trazado_997460" data-name="Trazado 997460" d="M36,56v2a4,4,0,1,1-8,0V56Z" fill="#aab2bd"/>
        </g>
        <g id="Grupo_1163008" data-name="Grupo 1163008">
          <path id="Trazado_997461" data-name="Trazado 997461" d="M36,52a2.006,2.006,0,0,1,2,2,2.015,2.015,0,0,1-2,2H28a2.006,2.006,0,0,1-2-2,2.015,2.015,0,0,1,2-2Z" fill="#ccd1d9"/>
        </g>
        <g id="Grupo_1163009" data-name="Grupo 1163009">
          <path id="Trazado_997462" data-name="Trazado 997462" d="M36,52H26a2.006,2.006,0,0,1-2-2,2.015,2.015,0,0,1,2-2H38a2.006,2.006,0,0,1,2,2,2.015,2.015,0,0,1-2,2Z" fill="#ccd1d9"/>
        </g>
        <g id="Grupo_1163010" data-name="Grupo 1163010">
          <path id="Trazado_997463" data-name="Trazado 997463" d="M49,28a17,17,0,0,1-9,15v1a2.015,2.015,0,0,1,2,2,2.006,2.006,0,0,1-2,2H24a2,2,0,0,1,0-4V43a17.1,17.1,0,0,1-7-7,16.851,16.851,0,0,1-2-8A16.954,16.954,0,0,1,30.04,11.11,17.014,17.014,0,0,1,49,28Z" fill="#ffeaa7"/>
        </g>
        <g id="Grupo_1163011" data-name="Grupo 1163011">
          <path id="Trazado_997464" data-name="Trazado 997464" d="M44,25v6l-1.6.57a11.578,11.578,0,0,1-.53,1.26l.74,1.53-4.25,4.25-1.53-.74a11.577,11.577,0,0,1-1.26.53L35,40H29l-.57-1.6a11.578,11.578,0,0,1-1.26-.53l-1.53.74-4.25-4.25.74-1.53a11.578,11.578,0,0,1-.53-1.26L20,31V25l1.6-.57a11.577,11.577,0,0,1,.53-1.26l-.74-1.53,4.25-4.25,1.53.74a11.578,11.578,0,0,1,1.26-.53L29,16h6l.57,1.6a11.577,11.577,0,0,1,1.26.53l1.53-.74,4.25,4.25-.74,1.53a11.577,11.577,0,0,1,.53,1.26Zm-5,3a7,7,0,1,0-7,7A6.995,6.995,0,0,0,39,28Z" fill="#ffc729"/>
        </g>
        <g id="Grupo_1163012" data-name="Grupo 1163012">
          <path id="Trazado_997465" data-name="Trazado 997465" d="M32,21a7,7,0,1,1-7,7A6.995,6.995,0,0,1,32,21Zm3,7a3,3,0,1,0-3,3A3,3,0,0,0,35,28Z" fill="#fcd770"/>
        </g>
        <g id="Grupo_1163013" data-name="Grupo 1163013">
          <path id="Trazado_997466" data-name="Trazado 997466" d="M62,2V14H58V2Z" fill="#b4dd7f"/>
        </g>
        <g id="Grupo_1163014" data-name="Grupo 1163014">
          <path id="Trazado_997467" data-name="Trazado 997467" d="M54,6v8H50V6Z" fill="#b4dd7f"/>
        </g>
        <g id="Grupo_1163015" data-name="Grupo 1163015">
          <path id="Trazado_997468" data-name="Trazado 997468" d="M58,4V14H54V4Z" fill="#b4dd7f"/>
        </g>
        <g id="Grupo_1163016" data-name="Grupo 1163016">
          <path id="Trazado_997469" data-name="Trazado 997469" d="M20,52v8a2.006,2.006,0,0,1-2,2H4a2.006,2.006,0,0,1-2-2V52a2.006,2.006,0,0,1,2-2h9l1.66-3.32a1.236,1.236,0,0,1,2.34.56V50h1A2.006,2.006,0,0,1,20,52Z" fill="#b4dd7f"/>
        </g>
        <g id="Grupo_1163017" data-name="Grupo 1163017">
          <circle id="Elipse_12225" data-name="Elipse 12225" cx="8" cy="8" r="8" transform="translate(2 2)" fill="#ff826e"/>
        </g>
        <g id="Grupo_1163018" data-name="Grupo 1163018">
          <circle id="Elipse_12226" data-name="Elipse 12226" cx="8" cy="8" r="8" transform="translate(46 46)" fill="#ff826e"/>
        </g>
      </g>
      <g id="Grupo_1163020" data-name="Grupo 1163020">
        <path id="Trazado_997470" data-name="Trazado 997470" d="M50.707,54.293l-1.414,1.414L52,58.414l6.707-6.707-1.414-1.414L52,55.586Z"/>
        <path id="Trazado_997471" data-name="Trazado 997471" d="M13.293,6.293,8,11.586,6.707,10.293,5.293,11.707,8,14.414l6.707-6.707Z"/>
        <path id="Trazado_997472" data-name="Trazado 997472" d="M32,20a8,8,0,1,0,8,8A8.009,8.009,0,0,0,32,20Zm0,14a6,6,0,1,1,6-6A6.006,6.006,0,0,1,32,34Z"/>
        <path id="Trazado_997473" data-name="Trazado 997473" d="M32,24a4,4,0,1,0,4,4A4,4,0,0,0,32,24Zm0,6a2,2,0,1,1,2-2A2,2,0,0,1,32,30Z"/>
        <path id="Trazado_997474" data-name="Trazado 997474" d="M42.978,23.177l.836-1.748-5.242-5.244-1.749.836c-.155-.069-.313-.134-.471-.2L35.708,15H28.292l-.644,1.826q-.237.093-.471.2l-1.749-.836L20.186,21.43l.836,1.748c-.069.157-.135.314-.2.471L19,24.292v7.415l1.826.645q.093.236.2.471l-.836,1.749,5.242,5.242,1.749-.836c.156.069.313.135.471.2L28.292,41h7.416l.644-1.826q.236-.093.471-.2l1.749.836,5.242-5.242-.836-1.749c.069-.157.135-.314.2-.471L45,31.708V24.293l-1.826-.645q-.093-.235-.2-.471ZM43,30.292l-1.393.491-.156.458a9.84,9.84,0,0,1-.477,1.146l-.214.435.639,1.334L38.157,37.4l-1.335-.639-.436.214a9.643,9.643,0,0,1-1.145.477l-.459.156L34.292,39H29.708l-.491-1.393-.459-.156a9.643,9.643,0,0,1-1.145-.477l-.436-.214-1.335.639L22.6,34.157l.639-1.334-.214-.435a9.84,9.84,0,0,1-.477-1.146l-.156-.458L21,30.292V25.707l1.393-.491.156-.458a9.84,9.84,0,0,1,.477-1.146l.214-.435L22.6,21.843,25.843,18.6l1.335.638.436-.214a9.742,9.742,0,0,1,1.146-.477l.458-.157L29.708,17h4.584l.491,1.392.458.157a9.742,9.742,0,0,1,1.146.477l.436.214,1.335-.638L41.4,21.844l-.639,1.334.214.435a9.84,9.84,0,0,1,.477,1.146l.156.458L43,25.708Z"/>
        <path id="Trazado_997475" data-name="Trazado 997475" d="M5,53H17v2H5Z"/>
        <path id="Trazado_997476" data-name="Trazado 997476" d="M15,57h2v2H15Z"/>
        <path id="Trazado_997477" data-name="Trazado 997477" d="M5,57h8v2H5Z"/>
        <path id="Trazado_997478" data-name="Trazado 997478" d="M50.414,15H63V1H57V3H53V5H49v8.586l-3.064,3.063a17.977,17.977,0,0,0-31.8,9.09c-.052.422-.086.842-.109,1.261H12a1,1,0,0,1-1-1V18.941a9,9,0,1,0-2,0V26a3,3,0,0,0,3,3h2.04a18.01,18.01,0,0,0,1.376,6H11a3,3,0,0,0-3,3V49H4a3,3,0,0,0-3,3v8a3,3,0,0,0,3,3H18a3,3,0,0,0,3-3V52a3,3,0,0,0-3-3V47.236a2.236,2.236,0,0,0-4.236-1L12.382,49H10V38a1,1,0,0,1,1-1h5.4a17.943,17.943,0,0,0,6.2,6.348,2.99,2.99,0,0,0,.622,5.536,2.975,2.975,0,0,0,2,4A2.973,2.973,0,0,0,27,56.816V58a5,5,0,1,0,10,0V56.816a2.973,2.973,0,0,0,1.78-3.932,2.975,2.975,0,0,0,2-4,2.99,2.99,0,0,0,.62-5.536A17.973,17.973,0,0,0,49.967,29H52a1,1,0,0,1,1,1V45.059a9,9,0,1,0,2,0V30a3,3,0,0,0-3-3H49.947a18,18,0,0,0-2.822-8.711ZM59,3h2V13H59ZM57,5v8H55V5ZM51,7h2v6H51ZM3,10a7,7,0,1,1,7,7A7.008,7.008,0,0,1,3,10ZM13.618,51l1.934-3.868a.245.245,0,0,1,.448.1V51h2a1,1,0,0,1,1,1v8a1,1,0,0,1-1,1H4a1,1,0,0,1-1-1V52a1,1,0,0,1,1-1ZM61,54a7,7,0,1,1-7-7A7.009,7.009,0,0,1,61,54ZM32,61a3,3,0,0,1-3-3V57h6v1A3,3,0,0,1,32,61Zm4-6H28a1,1,0,0,1,0-2h8a1,1,0,0,1,0,2Zm2-4H26a1,1,0,0,1,0-2H38a1,1,0,0,1,0,2Zm1.528-8.884L39,42.4V45h1a1,1,0,0,1,0,2H24a1,1,0,1,1,0-2h1V42.4l-.528-.282a16,16,0,1,1,15.056,0Z"/>
      </g>
    </g>
  </g>
</svg>
