<svg xmlns="http://www.w3.org/2000/svg" xmlns:xlink="http://www.w3.org/1999/xlink" width="113" height="113" viewBox="0 0 113 113">
  <defs>
    <filter id="Trazado_982547" x="0" y="0" width="113" height="113" filterUnits="userSpaceOnUse">
      <feOffset dy="3" input="SourceAlpha"/>
      <feGaussianBlur stdDeviation="3" result="blur"/>
      <feFlood flood-opacity="0.161"/>
      <feComposite operator="in" in2="blur"/>
      <feComposite in="SourceGraphic"/>
    </filter>
  </defs>
  <g id="Grupo_1163028" data-name="Grupo 1163028" transform="translate(-902.234 -2478.467)">
    <g id="Grupo_1161820" data-name="Grupo 1161820" transform="translate(911.234 2484.467)">
      <g id="Grupo_1152576" data-name="Grupo 1152576" transform="translate(0)">
        <g id="Grupo_1148633" data-name="Grupo 1148633">
          <g id="Grupo_1148525" data-name="Grupo 1148525">
            <g transform="matrix(1, 0, 0, 1, -9, -6)" filter="url(#Trazado_982547)">
              <g id="Trazado_982547-2" data-name="Trazado 982547" transform="translate(9 6)" fill="#f0ebfe">
                <path d="M 47.5 93.5 C 41.28937149047852 93.5 35.26533508300781 92.28397369384766 29.59518623352051 89.88570404052734 C 24.11771965026855 87.56893157958984 19.19813346862793 84.25196075439453 14.97309303283691 80.02691650390625 C 10.74804019927979 75.80186462402344 7.431066513061523 70.88229370117188 5.114293098449707 65.40481567382812 C 2.716026782989502 59.73468017578125 1.5 53.71062850952148 1.5 47.5 C 1.5 41.28937149047852 2.716026782989502 35.26533508300781 5.114293098449707 29.59518623352051 C 7.431066513061523 24.11771965026855 10.74804019927979 19.19813346862793 14.97309303283691 14.97309303283691 C 19.19813346862793 10.74804019927979 24.11771965026855 7.431066513061523 29.59518623352051 5.114293098449707 C 35.26533508300781 2.716026782989502 41.28937149047852 1.5 47.5 1.5 C 53.71062850952148 1.5 59.73468017578125 2.716026782989502 65.40481567382812 5.114293098449707 C 70.88229370117188 7.431066513061523 75.80186462402344 10.74804019927979 80.02691650390625 14.97309303283691 C 84.25196075439453 19.19813346862793 87.56893157958984 24.11771965026855 89.88570404052734 29.59518623352051 C 92.28397369384766 35.26533508300781 93.5 41.28937149047852 93.5 47.5 C 93.5 53.71062850952148 92.28397369384766 59.73468017578125 89.88570404052734 65.40481567382812 C 87.56893157958984 70.88229370117188 84.25196075439453 75.80186462402344 80.02691650390625 80.02691650390625 C 75.80186462402344 84.25196075439453 70.88229370117188 87.56893157958984 65.40481567382812 89.88570404052734 C 59.73468017578125 92.28397369384766 53.71062850952148 93.5 47.5 93.5 Z" stroke="none"/>
                <path d="M 47.5 3 C 41.49121475219727 3 35.66376876831055 4.176155090332031 30.17950439453125 6.495796203613281 C 24.88084411621094 8.736953735351562 20.12152099609375 11.94598388671875 16.03375244140625 16.03375244140625 C 11.94598388671875 20.12152099609375 8.736953735351562 24.88084411621094 6.495796203613281 30.17950439453125 C 4.176155090332031 35.66376876831055 3 41.49121475219727 3 47.5 C 3 53.50878524780273 4.176155090332031 59.33623123168945 6.495796203613281 64.82049560546875 C 8.736953735351562 70.11915588378906 11.94598388671875 74.87847900390625 16.03375244140625 78.96624755859375 C 20.12152099609375 83.05401611328125 24.88084411621094 86.26304626464844 30.17950439453125 88.50419616699219 C 35.66376876831055 90.82384490966797 41.49121475219727 92 47.5 92 C 53.50878524780273 92 59.33623123168945 90.82384490966797 64.82049560546875 88.50419616699219 C 70.11915588378906 86.26304626464844 74.87847900390625 83.05401611328125 78.96624755859375 78.96624755859375 C 83.05401611328125 74.87847900390625 86.26304626464844 70.11915588378906 88.50419616699219 64.82049560546875 C 90.82384490966797 59.33623123168945 92 53.50878524780273 92 47.5 C 92 41.49121475219727 90.82384490966797 35.66376876831055 88.50419616699219 30.17950439453125 C 86.26304626464844 24.88084411621094 83.05401611328125 20.12152099609375 78.96624755859375 16.03375244140625 C 74.87847900390625 11.94598388671875 70.11915588378906 8.736953735351562 64.82049560546875 6.495796203613281 C 59.33623123168945 4.176155090332031 53.50878524780273 3 47.5 3 M 47.5 0 C 73.7335205078125 0 95 21.2664794921875 95 47.5 C 95 73.7335205078125 73.7335205078125 95 47.5 95 C 21.2664794921875 95 0 73.7335205078125 0 47.5 C 0 21.2664794921875 21.2664794921875 0 47.5 0 Z" stroke="none" fill="#7145fe"/>
              </g>
            </g>
          </g>
        </g>
      </g>
    </g>
    <g id="diseno-grafico" transform="translate(928.067 2501.3)">
      <path id="Trazado_997479" data-name="Trazado 997479" d="M63.446,53.6H11.115a3.6,3.6,0,0,0-3.6,3.6V84.812H67.047V57.206A3.6,3.6,0,0,0,63.446,53.6Z" transform="translate(-6.614 -47.184)" fill="#80d8ff"/>
      <path id="Trazado_997480" data-name="Trazado 997480" d="M35.6,82.41V57.02L33.552,53.6h-7.9L23.6,57.02V53.6H11.116a3.621,3.621,0,0,0-.72.072V82.41H7.515v2.4H67.048v-2.4Z" transform="translate(-6.615 -47.183)" fill="#40c4ff"/>
      <g id="Grupo_1163022" data-name="Grupo 1163022" transform="translate(0.9 37.628)">
        <path id="Trazado_997481" data-name="Trazado 997481" d="M162.171,464.407H138.166a2.4,2.4,0,0,0-2.4,2.4v2.4h28.806v-2.4A2.4,2.4,0,0,0,162.171,464.407Z" transform="translate(-120.402 -446.403)" fill="#d8d7da"/>
        <rect id="Rectángulo_411994" data-name="Rectángulo 411994" width="16.804" height="8.402" transform="translate(21.365 9.602)" fill="#d8d7da"/>
        <path id="Trazado_997482" data-name="Trazado 997482" d="M7.515,320.114a3.6,3.6,0,0,0,3.6,3.6H63.447a3.6,3.6,0,0,0,3.6-3.6v-6H7.515Z" transform="translate(-7.515 -314.113)" fill="#d8d7da"/>
      </g>
      <g id="Grupo_1163023" data-name="Grupo 1163023" transform="translate(0.9 41.229)">
        <rect id="Rectángulo_411995" data-name="Rectángulo 411995" width="16.804" height="2.401" transform="translate(21.365 6.001)" fill="#acabb1"/>
        <rect id="Rectángulo_411996" data-name="Rectángulo 411996" width="16.804" height="2.401" transform="translate(21.365 12.003)" fill="#acabb1"/>
        <rect id="Rectángulo_411997" data-name="Rectángulo 411997" width="28.806" height="2.401" transform="translate(15.363 16.804)" fill="#acabb1"/>
        <path id="Trazado_997483" data-name="Trazado 997483" d="M63.446,347.773H11.115a3.6,3.6,0,0,1-3.6-3.6v2.4a3.6,3.6,0,0,0,3.6,3.6H63.446a3.6,3.6,0,0,0,3.6-3.6v-2.4A3.6,3.6,0,0,1,63.446,347.773Z" transform="translate(-7.514 -344.172)" fill="#acabb1"/>
      </g>
      <g id="Grupo_1163024" data-name="Grupo 1163024" transform="translate(6.181 0.9)">
        <rect id="Rectángulo_411998" data-name="Rectángulo 411998" width="8.402" height="36.728" fill="#fdd835"/>
        <rect id="Rectángulo_411999" data-name="Rectángulo 411999" width="7.202" height="4.801" transform="translate(13.203 31.927)" fill="#fdd835"/>
      </g>
      <path id="Trazado_997484" data-name="Trazado 997484" d="M165.417,89.831l-3.6-2.16V110h7.2V87.671Z" transform="translate(-142.432 -77.169)" fill="#ed593b"/>
      <path id="Trazado_997485" data-name="Trazado 997485" d="M169.018,43.574l-3.6-6-3.6,6,3.6,2.16Z" transform="translate(-142.432 -33.072)" fill="#fdd8a8"/>
      <rect id="Rectángulo_412000" data-name="Rectángulo 412000" width="19.204" height="8.402" transform="translate(37.628 10.022)" fill="#b0ef60"/>
      <g id="Grupo_1163025" data-name="Grupo 1163025" transform="translate(37.628 22.025)">
        <rect id="Rectángulo_412001" data-name="Rectángulo 412001" width="7.802" height="4.801" fill="#fdd835"/>
        <rect id="Rectángulo_412002" data-name="Rectángulo 412002" width="7.802" height="4.801" transform="translate(11.403)" fill="#fdd835"/>
      </g>
      <g id="Grupo_1163026" data-name="Grupo 1163026" transform="translate(37.628 24.425)">
        <rect id="Rectángulo_412003" data-name="Rectángulo 412003" width="7.802" height="2.401" fill="#fbc02d"/>
        <rect id="Rectángulo_412004" data-name="Rectángulo 412004" width="7.802" height="2.401" transform="translate(11.403)" fill="#fbc02d"/>
      </g>
      <rect id="Rectángulo_412005" data-name="Rectángulo 412005" width="19.204" height="2.401" transform="translate(37.628 16.023)" fill="#64dd17"/>
      <rect id="Rectángulo_412006" data-name="Rectángulo 412006" width="7.202" height="2.401" transform="translate(19.384 35.228)" fill="#fbc02d"/>
      <rect id="Rectángulo_412007" data-name="Rectángulo 412007" width="7.202" height="2.401" transform="translate(19.384 30.427)" fill="#e23423"/>
      <rect id="Rectángulo_412008" data-name="Rectángulo 412008" width="8.402" height="2.401" transform="translate(6.181 35.228)" fill="#fbc02d"/>
      <path id="Trazado_997486" data-name="Trazado 997486" d="M163.051,70.488l-1.235,2.058,3.6,2.16,3.6-2.16-1.235-2.058-2.366,1.419Z" transform="translate(-142.432 -62.044)" fill="#ffc477"/>
      <path id="Trazado_997487" data-name="Trazado 997487" d="M56.833,5.521H27.666v1.8H56.833a2.7,2.7,0,0,1,2.7,2.7V36.728H27.486V10.253l-4.5-7.5-4.5,7.5V36.728h-3V0H5.281V36.728H1.8V10.022A2.718,2.718,0,0,1,3.53,7.5l-.648-1.68A4.53,4.53,0,0,0,0,10.022V43.63a4.506,4.506,0,0,0,4.5,4.5H21.365v6.6h-2.7a3.3,3.3,0,0,0-3.3,3.3v3.3H45.97v-3.3a3.3,3.3,0,0,0-3.3-3.3h-2.7v-6.6H56.833a4.506,4.506,0,0,0,4.5-4.5V10.022A4.506,4.506,0,0,0,56.833,5.521Zm-33.847.73,2.366,3.943-2.366,1.419-2.366-1.419Zm-2.7,5.841,2.7,1.62,2.7-1.62V31.927h-5.4V12.092Zm0,21.635h5.4v3h-5.4Zm-13.2.84h4.381v-1.8H7.082v-1.8H9.542v-1.8H7.082v-1.8h4.381v-1.8H7.082v-1.8H9.542v-1.8H7.082v-1.8h4.381v-1.8H7.082v-1.8H9.542v-1.8H7.082v-1.8h4.381v-1.8H7.082v-1.8H9.542v-1.8H7.082v-1.8h4.381v-1.8H7.082V1.8h6.6V36.728h-6.6ZM42.669,56.532a1.5,1.5,0,0,1,1.5,1.5v1.5H17.164v-1.5a1.5,1.5,0,0,1,1.5-1.5Zm-19.5-1.8v-6.6h15v6.6Zm36.368-11.1a2.7,2.7,0,0,1-2.7,2.7H4.5a2.7,2.7,0,0,1-2.7-2.7v-5.1H59.533v5.1Z"/>
      <path id="Trazado_997488" data-name="Trazado 997488" d="M327.6,76.149h-21v10.2h21v-10.2Zm-1.8,8.4H308.4v-6.6h17.4Z" transform="translate(-269.871 -67.027)"/>
      <path id="Trazado_997489" data-name="Trazado 997489" d="M306.6,182.945h9.6v-6.6h-9.6Zm1.8-4.8h6v3h-6Z" transform="translate(-269.871 -155.219)"/>
      <path id="Trazado_997490" data-name="Trazado 997490" d="M411.386,182.945v-6.6h-9.6v6.6Zm-7.8-4.8h6v3h-6Z" transform="translate(-353.654 -155.219)"/>
      <path id="Trazado_997491" data-name="Trazado 997491" d="M244.978,100.154v1.8h5.4v-1.8h-1.8v-22.2h1.8v-1.8h-5.4v1.8h1.8v22.2Z" transform="translate(-215.632 -67.027)"/>
      <g id="Grupo_1163027" data-name="Grupo 1163027" transform="translate(22.085 15.663)">
        <path id="Trazado_997492" data-name="Trazado 997492" d="M227.429,348.477h-1.8v-1.8h1.8Zm-3.6,0h-1.8v-1.8h1.8Zm-3.6,0h-1.8v-1.8h1.8Z" transform="translate(-214.346 -320.811)" fill="#fff"/>
        <path id="Trazado_997493" data-name="Trazado 997493" d="M186.16,145.158h-1.8v-3h1.8Zm0-4.8h-1.8v-1.8h1.8Zm0-3.6h-1.8v-6h1.8Z" transform="translate(-184.36 -130.755)" fill="#fff"/>
        <path id="Trazado_997494" data-name="Trazado 997494" d="M321.915,253.292h-1.8v-1.8h1.8Zm-3.6,0h-4.2v-1.8h4.2Z" transform="translate(-298.57 -237.029)" fill="#fff"/>
        <path id="Trazado_997495" data-name="Trazado 997495" d="M417.1,253.292h-1.8v-1.8h1.8Zm-3.6,0h-4.2v-1.8h4.2Z" transform="translate(-382.354 -237.029)" fill="#fff"/>
      </g>
    </g>
  </g>
</svg>
