<svg xmlns="http://www.w3.org/2000/svg" xmlns:xlink="http://www.w3.org/1999/xlink" width="113" height="113" viewBox="0 0 113 113">
  <defs>
    <filter id="Trazado_982547" x="0" y="0" width="113" height="113" filterUnits="userSpaceOnUse">
      <feOffset dy="3" input="SourceAlpha"/>
      <feGaussianBlur stdDeviation="3" result="blur"/>
      <feFlood flood-opacity="0.161"/>
      <feComposite operator="in" in2="blur"/>
      <feComposite in="SourceGraphic"/>
    </filter>
  </defs>
  <g id="Grupo_1163031" data-name="Grupo 1163031" transform="translate(-1217 -2478)">
    <g id="Grupo_1161821" data-name="Grupo 1161821" transform="translate(1226 2484)">
      <g id="Grupo_1152576" data-name="Grupo 1152576" transform="translate(0)">
        <g id="Grupo_1148633" data-name="Grupo 1148633">
          <g id="Grupo_1148525" data-name="Grupo 1148525">
            <g transform="matrix(1, 0, 0, 1, -9, -6)" filter="url(#Trazado_982547)">
              <g id="Trazado_982547-2" data-name="Trazado 982547" transform="translate(9 6)" fill="#f0ebfe">
                <path d="M 47.5 93.5 C 41.28937149047852 93.5 35.26533508300781 92.28397369384766 29.59518623352051 89.88570404052734 C 24.11771965026855 87.56893157958984 19.19813346862793 84.25196075439453 14.97309303283691 80.02691650390625 C 10.74804019927979 75.80186462402344 7.431066513061523 70.88229370117188 5.114293098449707 65.40481567382812 C 2.716026782989502 59.73468017578125 1.5 53.71062850952148 1.5 47.5 C 1.5 41.28937149047852 2.716026782989502 35.26533508300781 5.114293098449707 29.59518623352051 C 7.431066513061523 24.11771965026855 10.74804019927979 19.19813346862793 14.97309303283691 14.97309303283691 C 19.19813346862793 10.74804019927979 24.11771965026855 7.431066513061523 29.59518623352051 5.114293098449707 C 35.26533508300781 2.716026782989502 41.28937149047852 1.5 47.5 1.5 C 53.71062850952148 1.5 59.73468017578125 2.716026782989502 65.40481567382812 5.114293098449707 C 70.88229370117188 7.431066513061523 75.80186462402344 10.74804019927979 80.02691650390625 14.97309303283691 C 84.25196075439453 19.19813346862793 87.56893157958984 24.11771965026855 89.88570404052734 29.59518623352051 C 92.28397369384766 35.26533508300781 93.5 41.28937149047852 93.5 47.5 C 93.5 53.71062850952148 92.28397369384766 59.73468017578125 89.88570404052734 65.40481567382812 C 87.56893157958984 70.88229370117188 84.25196075439453 75.80186462402344 80.02691650390625 80.02691650390625 C 75.80186462402344 84.25196075439453 70.88229370117188 87.56893157958984 65.40481567382812 89.88570404052734 C 59.73468017578125 92.28397369384766 53.71062850952148 93.5 47.5 93.5 Z" stroke="none"/>
                <path d="M 47.5 3 C 41.49121475219727 3 35.66376876831055 4.176155090332031 30.17950439453125 6.495796203613281 C 24.88084411621094 8.736953735351562 20.12152099609375 11.94598388671875 16.03375244140625 16.03375244140625 C 11.94598388671875 20.12152099609375 8.736953735351562 24.88084411621094 6.495796203613281 30.17950439453125 C 4.176155090332031 35.66376876831055 3 41.49121475219727 3 47.5 C 3 53.50878524780273 4.176155090332031 59.33623123168945 6.495796203613281 64.82049560546875 C 8.736953735351562 70.11915588378906 11.94598388671875 74.87847900390625 16.03375244140625 78.96624755859375 C 20.12152099609375 83.05401611328125 24.88084411621094 86.26304626464844 30.17950439453125 88.50419616699219 C 35.66376876831055 90.82384490966797 41.49121475219727 92 47.5 92 C 53.50878524780273 92 59.33623123168945 90.82384490966797 64.82049560546875 88.50419616699219 C 70.11915588378906 86.26304626464844 74.87847900390625 83.05401611328125 78.96624755859375 78.96624755859375 C 83.05401611328125 74.87847900390625 86.26304626464844 70.11915588378906 88.50419616699219 64.82049560546875 C 90.82384490966797 59.33623123168945 92 53.50878524780273 92 47.5 C 92 41.49121475219727 90.82384490966797 35.66376876831055 88.50419616699219 30.17950439453125 C 86.26304626464844 24.88084411621094 83.05401611328125 20.12152099609375 78.96624755859375 16.03375244140625 C 74.87847900390625 11.94598388671875 70.11915588378906 8.736953735351562 64.82049560546875 6.495796203613281 C 59.33623123168945 4.176155090332031 53.50878524780273 3 47.5 3 M 47.5 0 C 73.7335205078125 0 95 21.2664794921875 95 47.5 C 95 73.7335205078125 73.7335205078125 95 47.5 95 C 21.2664794921875 95 0 73.7335205078125 0 47.5 C 0 21.2664794921875 21.2664794921875 0 47.5 0 Z" stroke="none" fill="#7145fe"/>
              </g>
            </g>
          </g>
        </g>
      </g>
    </g>
    <g id="modular" transform="translate(1243 2501.842)">
      <g id="Grupo_1163029" data-name="Grupo 1163029" transform="translate(0.89 1.048)">
        <path id="Trazado_997496" data-name="Trazado 997496" d="M45.139,336.641V325.712l-9.465-5.464-9.465,5.464v10.929l9.465,5.464Z" transform="translate(-23.988 -283.134)" fill="#6ce79a"/>
        <path id="Trazado_997497" data-name="Trazado 997497" d="M87.061,320.248l-2.541,1.467,9.03,5.407.274,11.078,2.7-1.56V325.712Z" transform="translate(-75.375 -283.134)" fill="#00d8a2"/>
        <path id="Trazado_997498" data-name="Trazado 997498" d="M204.569,336.641V325.712l-9.465-5.464-9.465,5.464v10.929l9.465,5.464Z" transform="translate(-164.489 -283.134)" fill="#ffab56"/>
        <path id="Trazado_997499" data-name="Trazado 997499" d="M246.491,320.248l-2.541,1.467,9.03,5.407.274,11.078,2.7-1.56V325.712Z" transform="translate(-215.876 -283.134)" fill="#ff982a"/>
        <path id="Trazado_997500" data-name="Trazado 997500" d="M364,336.641V325.712l-9.464-5.464-9.464,5.464v10.929l9.464,5.464Z" transform="translate(-304.99 -283.134)" fill="#6ce79a"/>
        <path id="Trazado_997501" data-name="Trazado 997501" d="M405.921,320.248l-2.541,1.467,9.03,5.407.274,11.078,2.7-1.56V325.712Z" transform="translate(-356.377 -283.134)" fill="#00d8a2"/>
        <path id="Trazado_997502" data-name="Trazado 997502" d="M26.428,24.05V13.121L16.964,7.657,7.5,13.121V24.05l9.465,5.464Z" transform="translate(-7.499 -7.657)" fill="#6ce79a"/>
        <path id="Trazado_997503" data-name="Trazado 997503" d="M68.351,7.657,65.81,9.124l9.03,5.407.274,11.079,2.7-1.56V13.121Z" transform="translate(-58.887 -7.657)" fill="#00d8a2"/>
        <path id="Trazado_997504" data-name="Trazado 997504" d="M284.284,198.747V187.818l-9.465-5.464-9.464,5.464v10.929l9.464,5.464Z" transform="translate(-234.74 -161.612)" fill="#a2dbff"/>
        <path id="Trazado_997505" data-name="Trazado 997505" d="M326.206,182.354l-2.541,1.467,9.03,5.407.274,11.079,2.7-1.56V187.818Z" transform="translate(-286.127 -161.612)" fill="#64caff"/>
      </g>
      <g id="Grupo_1163030" data-name="Grupo 1163030" transform="translate(0 0.158)">
        <path id="Trazado_997506" data-name="Trazado 997506" d="M76.833,196.811,67.813,191.6v-3.371a.89.89,0,1,0-1.781,0V191.6l-7.684,4.436v-8.655l7.684-4.673v2.077a.89.89,0,1,0,1.781,0V181.21a.891.891,0,0,0-.445-.771L57.9,174.974a.89.89,0,0,0-.89,0l-9.465,5.464a.891.891,0,0,0-.445.771V191.6l-8.574,4.95-9.019-5.207a.89.89,0,0,0-.89,0l-9.464,5.464a.89.89,0,0,0-.445.771V208.51a.891.891,0,0,0,.445.771l9.465,5.464a.89.89,0,0,0,.89,0l3.562-2.057a.89.89,0,1,0-.89-1.542l-2.227,1.285v-8.676l7.684-4.673V208l-2.472,1.427a.89.89,0,0,0,.89,1.542l2.472-1.428,9.019,5.207a.89.89,0,0,0,.89,0l9.019-5.207,9.019,5.207a.89.89,0,0,0,.89,0l9.465-5.464a.891.891,0,0,0,.445-.771V197.582A.891.891,0,0,0,76.833,196.811Zm-9.91,5.4-7.631-4.641,7.649-4.416,7.631,4.406Zm-18.947-9.057,7.649,4.416-7.631,4.641-7.649-4.651Zm8.592-5.772v8.655L48.884,191.6v-8.892Zm-7.684,16.372,7.684-4.673V208l-7.684,4.436Zm8.574-26.982,7.649,4.416-7.649,4.652L49.81,181.19ZM29.065,193.146l7.649,4.416-7.649,4.651-7.649-4.651Zm-8.574,5.938,7.684,4.673v8.676L20.491,208Zm18.929,0,7.684,4.673v8.676L39.42,208Zm18.929,0,7.684,4.673v8.676L58.349,208Zm9.465,13.349v-8.676l7.684-4.673V208Z" transform="translate(-16.489 -154.113)"/>
        <path id="Trazado_997507" data-name="Trazado 997507" d="M121.274,218.45a.891.891,0,0,0-.224,1.239l1.091,1.573a5.266,5.266,0,0,1-4.826-5.451.89.89,0,0,0-1.78-.071,7.051,7.051,0,0,0,5.9,7.228l-1.318,1a.89.89,0,1,0,1.073,1.421l3.241-2.447a.891.891,0,0,0,.2-1.218l-2.112-3.046A.891.891,0,0,0,121.274,218.45Z" transform="translate(-101.813 -189.391)"/>
        <path id="Trazado_997508" data-name="Trazado 997508" d="M10.355,23.8a.89.89,0,0,0,.445-.119l9.465-5.464a.891.891,0,0,0,.445-.771V6.513a.891.891,0,0,0-.445-.771L10.8.277a.89.89,0,0,0-.89,0L7.645,1.585a.89.89,0,1,0,.89,1.542l1.819-1.051L18,6.493l-7.649,4.652L2.706,6.493,5.49,4.885A.89.89,0,1,0,4.6,3.343L.445,5.742A.891.891,0,0,0,0,6.513V17.441a.891.891,0,0,0,.445.771L9.91,23.677a.888.888,0,0,0,.445.119Zm.89-2.433V12.687l7.684-4.673v8.913ZM1.781,8.015l7.683,4.673v8.676L1.781,16.927Z" transform="translate(0 -0.158)"/>
      </g>
    </g>
  </g>
</svg>
