<svg xmlns="http://www.w3.org/2000/svg" xmlns:xlink="http://www.w3.org/1999/xlink" width="610" height="326" viewBox="0 0 610 326">
  <defs>
    <clipPath id="clip-path">
      <rect id="Rectángulo_412128" data-name="Rectángulo 412128" width="610" height="326" transform="translate(810 2829)" fill="#fff" stroke="#707070" stroke-width="1"/>
    </clipPath>
  </defs>
  <g id="Enmascarar_grupo_1098781" data-name="Enmascarar grupo 1098781" transform="translate(-810 -2829)" clip-path="url(#clip-path)">
    <g id="Grupo_1163058" data-name="Grupo 1163058" transform="translate(-108.092 -64.828)">
      <g id="OBJECTS" transform="translate(930.092 2893.5)">
        <g id="Grupo_1163057" data-name="Grupo 1163057" transform="translate(0 0)">
          <path id="Trazado_997509" data-name="Trazado 997509" d="M443.5,102.94c-16.4-10.556-39.835-9.056-57.121-1.537a70.774,70.774,0,0,0-26.663,20.366c-7.971,9.866-10.694,22.5-17.3,33.274-9.657,15.764-26.218,28.132-44.876,30.18-17.861,1.961-34.814-5.184-51.27-11.043-17.763-6.325-35.14-9.809-54.076-8.684-27.473,1.632-54.021,14.612-67.361,39.525a74.717,74.717,0,0,0-8,42.8c2.108,20.829,21.842,37.055,15.829,58.957-4.7,17.121-21.382,28.233-29.038,44.253-7.4,15.475-5.47,34.619,5.631,47.832a44.809,44.809,0,0,0,43.192,14.572H629.8c11.979,0,18.2-13.613,22.173-22.928,9.174-21.517,13.952-45.2,11.226-68.6-2-17.162-8.093-36.29-21.474-47.913-11.587-10.064-25.459-12.525-40.128-14.752C573.625,255,566.03,235.093,567.2,208.851c1.092-24.579,8.717-58.58-17.96-72.8-6.742-3.593-14.719-4.312-22.305-3.41-14.132,1.679-27.182,9.273-41.769,6.138-14.877-3.2-22.985-16.945-32.238-27.647A43.638,43.638,0,0,0,443.5,102.94Z" transform="translate(-99.212 -92.543)" fill="#c5b4fe" opacity="0.56"/>
          <g id="Grupo_1163032" data-name="Grupo 1163032" transform="translate(124.141 96.561)">
            <rect id="Rectángulo_412010" data-name="Rectángulo 412010" width="119.122" height="5.575" transform="translate(85.074 217.78)" fill="#aeb8ff"/>
            <path id="Trazado_997510" data-name="Trazado 997510" d="M516.49,353.652H225.323V203.077a12.486,12.486,0,0,1,12.486-12.486H504a12.486,12.486,0,0,1,12.486,12.486V353.652Z" transform="translate(-225.323 -190.591)" fill="#401cc6"/>
            <path id="Trazado_997511" data-name="Trazado 997511" d="M504.056,384.147h-266.3a12.434,12.434,0,0,1-12.434-12.434V356.239H516.49v15.474A12.434,12.434,0,0,1,504.056,384.147Z" transform="translate(-225.323 -193.178)" fill="#9fa8ff"/>
            <path id="Trazado_997512" data-name="Trazado 997512" d="M505.918,200.153H236.237V343.7H505.918Z" transform="translate(-225.493 -190.74)" fill="#d4d7ff"/>
            <rect id="Rectángulo_412011" data-name="Rectángulo 412011" width="53.852" height="6.745" transform="translate(118.935 173.613)" fill="#401cc6"/>
            <path id="Trazado_997513" data-name="Trazado 997513" d="M408.8,411.4H336.486l3.8-26.812H405Z" transform="translate(-227.059 -193.621)" fill="#95a1f9"/>
            <path id="Trazado_997514" data-name="Trazado 997514" d="M396.529,343.784H364.667l-86.731-144.24H309.8Z" transform="translate(-226.145 -190.731)" fill="#fff" opacity="0.63"/>
            <path id="Trazado_997515" data-name="Trazado 997515" d="M466.638,343.784H434.776l-86.731-144.24h31.862Z" transform="translate(-227.24 -190.731)" fill="#fff" opacity="0.63"/>
          </g>
          <rect id="Rectángulo_412012" data-name="Rectángulo 412012" width="530.755" height="6.034" transform="translate(7.611 319.917)" fill="#5523e2"/>
          <g id="Grupo_1163033" data-name="Grupo 1163033" transform="translate(232.194 150.22)">
            <path id="Trazado_997516" data-name="Trazado 997516" d="M465.648,245.1H342.434a7.365,7.365,0,0,0-7.343,7.343v62.015a7.365,7.365,0,0,0,7.343,7.343H465.648a7.365,7.365,0,0,0,7.343-7.343V252.445A7.365,7.365,0,0,0,465.648,245.1Z" transform="translate(-335.091 -245.102)" fill="#5523e2"/>
            <rect id="Rectángulo_412013" data-name="Rectángulo 412013" width="128.518" height="59.159" transform="translate(4.692 12.647)" fill="#e3e6ff"/>
            <rect id="Rectángulo_412014" data-name="Rectángulo 412014" width="52.108" height="2.04" transform="translate(9.995 21.623)" fill="#fff"/>
            <rect id="Rectángulo_412015" data-name="Rectángulo 412015" width="52.108" height="2.04" transform="translate(9.995 26.519)" fill="#fff"/>
            <rect id="Rectángulo_412016" data-name="Rectángulo 412016" width="52.108" height="2.04" transform="translate(9.995 31.416)" fill="#fff"/>
            <rect id="Rectángulo_412017" data-name="Rectángulo 412017" width="52.108" height="2.04" transform="translate(9.995 36.311)" fill="#fff"/>
            <rect id="Rectángulo_412018" data-name="Rectángulo 412018" width="52.108" height="2.04" transform="translate(9.995 41.207)" fill="#fff"/>
            <rect id="Rectángulo_412019" data-name="Rectángulo 412019" width="25.439" height="2.04" transform="translate(9.995 49.979)" fill="#fff"/>
            <rect id="Rectángulo_412020" data-name="Rectángulo 412020" width="25.439" height="2.04" transform="translate(9.995 53.384)" fill="#fff"/>
            <rect id="Rectángulo_412021" data-name="Rectángulo 412021" width="25.439" height="2.04" transform="translate(9.995 56.789)" fill="#fff"/>
            <rect id="Rectángulo_412022" data-name="Rectángulo 412022" width="25.439" height="2.04" transform="translate(9.995 60.194)" fill="#fff"/>
            <rect id="Rectángulo_412023" data-name="Rectángulo 412023" width="25.439" height="2.04" transform="translate(36.665 49.979)" fill="#fff"/>
            <rect id="Rectángulo_412024" data-name="Rectángulo 412024" width="25.439" height="2.04" transform="translate(36.665 53.384)" fill="#fff"/>
            <rect id="Rectángulo_412025" data-name="Rectángulo 412025" width="25.439" height="2.04" transform="translate(36.665 56.789)" fill="#fff"/>
            <rect id="Rectángulo_412026" data-name="Rectángulo 412026" width="25.439" height="2.04" transform="translate(36.665 60.194)" fill="#fff"/>
            <circle id="Elipse_12227" data-name="Elipse 12227" cx="1.938" cy="1.938" r="1.938" transform="translate(8.057 5.099)" fill="#ffb600"/>
            <path id="Trazado_997517" data-name="Trazado 997517" d="M355.546,252.22a1.938,1.938,0,1,1-1.938-1.938A1.938,1.938,0,0,1,355.546,252.22Z" transform="translate(-335.35 -245.183)" fill="#ffb600"/>
            <circle id="Elipse_12228" data-name="Elipse 12228" cx="1.938" cy="1.938" r="1.938" transform="translate(24.581 5.099)" fill="#ffb600"/>
            <rect id="Rectángulo_412027" data-name="Rectángulo 412027" width="18.768" height="45.695" transform="translate(73.234 18.767)" fill="#ffb600"/>
            <rect id="Rectángulo_412028" data-name="Rectángulo 412028" width="18.767" height="22.847" transform="translate(100.57 19.991)" fill="#ff2951"/>
            <rect id="Rectángulo_412029" data-name="Rectángulo 412029" width="18.767" height="16.602" transform="translate(100.57 46.102)" fill="#ff2951"/>
          </g>
          <g id="Grupo_1163036" data-name="Grupo 1163036" transform="translate(457.144 182.842)">
            <g id="Grupo_1163035" data-name="Grupo 1163035">
              <g id="Grupo_1163034" data-name="Grupo 1163034">
                <path id="Trazado_997518" data-name="Trazado 997518" d="M610.555,278.241H573.073a9.463,9.463,0,0,0-9.463,9.463v91.467a9.463,9.463,0,0,0,9.463,9.463h37.482a9.463,9.463,0,0,0,9.463-9.463V287.7A9.463,9.463,0,0,0,610.555,278.241Z" transform="translate(-563.61 -278.241)" fill="#5523e2"/>
                <rect id="Rectángulo_412030" data-name="Rectángulo 412030" width="51.78" height="90.505" transform="translate(2.313 9.254)" fill="#e6e6fc"/>
                <rect id="Rectángulo_412031" data-name="Rectángulo 412031" width="12.78" height="1.102" transform="translate(21.814 4.628)" fill="#8050ff"/>
                <circle id="Elipse_12229" data-name="Elipse 12229" cx="3.48" cy="3.48" r="3.48" transform="translate(24.724 101.23)" fill="#ffb600"/>
              </g>
            </g>
            <rect id="Rectángulo_412032" data-name="Rectángulo 412032" width="12.148" height="55.165" transform="translate(9.666 26.925)" fill="#ff2951"/>
            <rect id="Rectángulo_412033" data-name="Rectángulo 412033" width="17.469" height="17.469" transform="translate(30.041 31.616)" fill="#fff"/>
            <rect id="Rectángulo_412034" data-name="Rectángulo 412034" width="17.469" height="17.469" transform="translate(30.041 58.874)" fill="#fff"/>
          </g>
          <g id="Grupo_1163038" data-name="Grupo 1163038" transform="translate(378.468 219.342)">
            <path id="Trazado_997519" data-name="Trazado 997519" d="M533.2,315.32H491.2a7.539,7.539,0,0,0-7.517,7.517v41.993a7.539,7.539,0,0,0,7.517,7.517H533.2a7.539,7.539,0,0,0,7.517-7.517V322.837A7.538,7.538,0,0,0,533.2,315.32Z" transform="translate(-483.686 -315.32)" fill="#5523e2"/>
            <rect id="Rectángulo_412035" data-name="Rectángulo 412035" width="48.024" height="39.644" transform="translate(4.502 11.323)" fill="#ff2951"/>
            <g id="Grupo_1163037" data-name="Grupo 1163037" transform="translate(16.403 16.203)">
              <path id="Trazado_997520" data-name="Trazado 997520" d="M518.786,338.182a6.4,6.4,0,1,1-6.4-6.4A6.4,6.4,0,0,1,518.786,338.182Z" transform="translate(-500.437 -331.78)" fill="#fff"/>
              <path id="Trazado_997521" data-name="Trazado 997521" d="M524.57,362.522H500.349v-5.828a10.716,10.716,0,0,1,10.716-10.716h2.79a10.716,10.716,0,0,1,10.716,10.716v5.828Z" transform="translate(-500.349 -332.002)" fill="#fff"/>
            </g>
            <path id="Trazado_997522" data-name="Trazado 997522" d="M491.115,321.322a1.428,1.428,0,1,1-1.428-1.428A1.429,1.429,0,0,1,491.115,321.322Z" transform="translate(-483.757 -315.391)" fill="#ffc154"/>
            <path id="Trazado_997523" data-name="Trazado 997523" d="M496.5,321.322a1.428,1.428,0,1,1-1.428-1.428A1.429,1.429,0,0,1,496.5,321.322Z" transform="translate(-483.842 -315.391)" fill="#ffc154"/>
            <path id="Trazado_997524" data-name="Trazado 997524" d="M501.883,321.322a1.428,1.428,0,1,1-1.428-1.428A1.429,1.429,0,0,1,501.883,321.322Z" transform="translate(-483.926 -315.391)" fill="#ffc154"/>
          </g>
          <g id="Grupo_1163040" data-name="Grupo 1163040" transform="translate(477.815 36.577)">
            <path id="Trazado_997526" data-name="Trazado 997526" d="M677.949,184.439l15.2-4.037-5.4-20.345-15.2,4.037a38.741,38.741,0,0,0-5.678-7.431l7.895-13.6-18.207-10.565-7.894,13.6a38.776,38.776,0,0,0-9.27-1.242l-4.037-15.2-20.344,5.4,4.037,15.2a38.884,38.884,0,0,0-7.431,5.678l-13.6-7.894-10.565,18.207,13.6,7.894a38.769,38.769,0,0,0-1.242,9.269l-15.2,4.037,5.4,20.345,15.2-4.037a38.774,38.774,0,0,0,5.678,7.431L603,224.791,621.2,235.357l7.894-13.6a38.768,38.768,0,0,0,9.269,1.242l4.037,15.2,20.345-5.4-4.037-15.2a38.883,38.883,0,0,0,7.431-5.678l13.6,7.894L690.312,201.6l-13.6-7.894A38.9,38.9,0,0,0,677.949,184.439ZM643.306,200.6a17.249,17.249,0,1,1,12.245-21.1A17.249,17.249,0,0,1,643.306,200.6Z" transform="translate(-584.609 -129.655)" fill="#9fa8ff"/>
          </g>
          <g id="Grupo_1163041" data-name="Grupo 1163041" transform="translate(429.601 118.03)">
            <path id="Trazado_997527" data-name="Trazado 997527" d="M590.634,244.685l8.957-2.379-3.184-11.989L587.45,232.7a22.871,22.871,0,0,0-3.346-4.38l4.652-8.017-10.729-6.226-4.652,8.017a22.882,22.882,0,0,0-5.462-.732l-2.379-8.957-11.989,3.184,2.379,8.957a22.833,22.833,0,0,0-4.379,3.346l-8.017-4.652L537.3,233.965l8.017,4.652a22.871,22.871,0,0,0-.732,5.462l-8.957,2.379,3.185,11.989,8.957-2.379a22.874,22.874,0,0,0,3.346,4.38l-4.652,8.016,10.729,6.226,4.652-8.017a22.874,22.874,0,0,0,5.462.732l2.379,8.957,11.989-3.184-2.379-8.957a22.831,22.831,0,0,0,4.378-3.346l8.017,4.652,6.226-10.729-8.017-4.652A22.874,22.874,0,0,0,590.634,244.685Zm-20.414,9.522a10.165,10.165,0,1,1,7.216-12.434A10.165,10.165,0,0,1,570.22,254.207Z" transform="translate(-535.63 -212.401)" fill="#ffb600"/>
          </g>
          <g id="Grupo_1163042" data-name="Grupo 1163042" transform="translate(476.173)">
            <path id="Trazado_997528" data-name="Trazado 997528" d="M611.043,108.99l4.576-1.216-1.627-6.125-4.576,1.216a11.648,11.648,0,0,0-1.71-2.238l2.376-4.1L604.6,93.352l-2.376,4.1a11.682,11.682,0,0,0-2.791-.374L598.219,92.5l-6.125,1.627,1.216,4.575a11.723,11.723,0,0,0-2.237,1.709l-4.1-2.376-3.181,5.481,4.095,2.376a11.685,11.685,0,0,0-.374,2.791l-4.576,1.216,1.626,6.125,4.576-1.216a11.68,11.68,0,0,0,1.709,2.237l-2.376,4.1,5.481,3.181,2.376-4.1a11.676,11.676,0,0,0,2.791.374l1.216,4.576,6.125-1.627-1.216-4.575a11.687,11.687,0,0,0,2.237-1.71l4.1,2.376,3.181-5.481-4.1-2.376A11.585,11.585,0,0,0,611.043,108.99Zm-10.43,4.865A5.193,5.193,0,1,1,604.3,107.5,5.193,5.193,0,0,1,600.614,113.855Z" transform="translate(-582.941 -92.498)" fill="#9fa8ff"/>
          </g>
          <g id="Grupo_1163043" data-name="Grupo 1163043" transform="translate(211.098 5.816)">
            <path id="Trazado_997533" data-name="Trazado 997533" d="M348.467,118.835l5.668-1.505-2.015-7.587-5.668,1.505a14.471,14.471,0,0,0-2.117-2.771l2.943-5.073-6.789-3.939-2.943,5.073a14.455,14.455,0,0,0-3.456-.464l-1.505-5.668L325,100.421l1.505,5.668a14.471,14.471,0,0,0-2.771,2.117l-5.072-2.943-3.94,6.789L319.792,115a14.456,14.456,0,0,0-.464,3.456l-5.668,1.505,2.015,7.587,5.668-1.505a14.471,14.471,0,0,0,2.117,2.771l-2.943,5.073,6.789,3.939,2.943-5.073a14.5,14.5,0,0,0,3.456.464l1.505,5.668,7.587-2.015-1.505-5.668a14.471,14.471,0,0,0,2.771-2.117l5.073,2.943,3.94-6.789L348,122.291A14.465,14.465,0,0,0,348.467,118.835Zm-12.918,6.024a6.432,6.432,0,1,1,4.565-7.867A6.433,6.433,0,0,1,335.549,124.859Z" transform="translate(-313.66 -98.406)" fill="#ffb600"/>
          </g>
          <g id="Grupo_1163044" data-name="Grupo 1163044" transform="translate(21.184 231.645)">
            <path id="Trazado_997534" data-name="Trazado 997534" d="M180.182,362.711l9.681-2.571-3.441-12.958-9.68,2.571a24.709,24.709,0,0,0-3.617-4.733l5.028-8.665-11.6-6.729-5.028,8.665a24.7,24.7,0,0,0-5.9-.791l-2.571-9.681L140.1,331.259l2.571,9.68a24.708,24.708,0,0,0-4.733,3.617l-8.665-5.028-6.729,11.6,8.665,5.028a24.707,24.707,0,0,0-.791,5.9l-9.681,2.571,3.441,12.957,9.68-2.571a24.71,24.71,0,0,0,3.617,4.733l-5.028,8.665,11.6,6.729,5.028-8.665a24.706,24.706,0,0,0,5.9.791l2.571,9.68,12.957-3.441-2.571-9.68a24.707,24.707,0,0,0,4.733-3.617l8.665,5.028,6.729-11.6-8.665-5.028A24.721,24.721,0,0,0,180.182,362.711ZM158.117,373a10.987,10.987,0,1,1,7.8-13.439A10.986,10.986,0,0,1,158.117,373Z" transform="translate(-120.733 -327.818)" fill="#ffb600"/>
          </g>
          <path id="Trazado_997535" data-name="Trazado 997535" d="M201.942,187.534h-22.68V357.916H224.6" transform="translate(-100.463 -93.982)" fill="none" stroke="#5523e2" stroke-miterlimit="10" stroke-width="2" stroke-dasharray="4"/>
          <path id="Trazado_997536" data-name="Trazado 997536" d="M165.539,244.89H130.577v43.626h34.962" transform="translate(-99.702 -94.878)" fill="none" stroke="#5523e2" stroke-miterlimit="10" stroke-width="2" stroke-dasharray="4"/>
          <g id="Grupo_1163047" data-name="Grupo 1163047" transform="translate(62.674 131.869)">
            <g id="Grupo_1163045" data-name="Grupo 1163045" transform="translate(0 43.108)">
              <rect id="Rectángulo_412036" data-name="Rectángulo 412036" width="138.174" height="37.322" transform="translate(138.174 37.322) rotate(180)" fill="#ff2951"/>
              <rect id="Rectángulo_412037" data-name="Rectángulo 412037" width="86.748" height="4.102" transform="translate(127.787 12.006) rotate(180)" fill="#fff"/>
              <rect id="Rectángulo_412038" data-name="Rectángulo 412038" width="86.748" height="4.102" transform="translate(127.787 20.21) rotate(180)" fill="#fff"/>
              <rect id="Rectángulo_412039" data-name="Rectángulo 412039" width="45.216" height="4.27" transform="translate(86.329 28.414) rotate(180)" fill="#fff"/>
              <rect id="Rectángulo_412040" data-name="Rectángulo 412040" width="22.863" height="22.863" transform="translate(31.179 29.574) rotate(180)" fill="#fff"/>
            </g>
            <g id="Grupo_1163046" data-name="Grupo 1163046" transform="translate(0)">
              <rect id="Rectángulo_412041" data-name="Rectángulo 412041" width="138.174" height="37.322" transform="translate(138.174 37.322) rotate(180)" fill="#ffb600"/>
              <rect id="Rectángulo_412042" data-name="Rectángulo 412042" width="86.748" height="4.102" transform="translate(127.787 12.006) rotate(180)" fill="#fff"/>
              <rect id="Rectángulo_412043" data-name="Rectángulo 412043" width="86.748" height="4.102" transform="translate(127.787 20.21) rotate(180)" fill="#fff"/>
              <rect id="Rectángulo_412044" data-name="Rectángulo 412044" width="45.216" height="4.27" transform="translate(86.329 28.414) rotate(180)" fill="#fff"/>
              <rect id="Rectángulo_412045" data-name="Rectángulo 412045" width="22.863" height="22.863" transform="translate(31.179 29.574) rotate(180)" fill="#fff"/>
            </g>
          </g>
          <path id="Trazado_997537" data-name="Trazado 997537" d="M225.323,166.221V151H353.51v27.672" transform="translate(-101.182 -93.412)" fill="none" stroke="#5523e2" stroke-miterlimit="10" stroke-width="2" stroke-dasharray="4"/>
          <g id="Grupo_1163049" data-name="Grupo 1163049" transform="translate(223.979 85.261)">
            <path id="Trazado_997538" data-name="Trazado 997538" d="M376.254,179.112H334.262a7.539,7.539,0,0,0-7.517,7.517v41.993a7.539,7.539,0,0,0,7.517,7.517h41.993a7.539,7.539,0,0,0,7.517-7.517V186.629A7.539,7.539,0,0,0,376.254,179.112Z" transform="translate(-326.745 -179.112)" fill="#5523e2"/>
            <rect id="Rectángulo_412046" data-name="Rectángulo 412046" width="48.024" height="39.643" transform="translate(4.501 11.323)" fill="#ffb600"/>
            <g id="Grupo_1163048" data-name="Grupo 1163048" transform="translate(16.403 16.203)">
              <path id="Trazado_997539" data-name="Trazado 997539" d="M361.845,201.974a6.4,6.4,0,1,1-6.4-6.4A6.4,6.4,0,0,1,361.845,201.974Z" transform="translate(-343.496 -195.572)" fill="#fff"/>
              <path id="Trazado_997540" data-name="Trazado 997540" d="M367.629,226.314H343.408v-5.828a10.716,10.716,0,0,1,10.716-10.716h2.79a10.716,10.716,0,0,1,10.716,10.716v5.828Z" transform="translate(-343.408 -195.794)" fill="#fff"/>
            </g>
            <path id="Trazado_997541" data-name="Trazado 997541" d="M334.174,185.114a1.428,1.428,0,1,1-1.428-1.428A1.429,1.429,0,0,1,334.174,185.114Z" transform="translate(-326.816 -179.183)" fill="#ffc154"/>
            <path id="Trazado_997542" data-name="Trazado 997542" d="M339.558,185.114a1.428,1.428,0,1,1-1.428-1.428A1.429,1.429,0,0,1,339.558,185.114Z" transform="translate(-326.901 -179.183)" fill="#ffc154"/>
            <circle id="Elipse_12230" data-name="Elipse 12230" cx="1.428" cy="1.428" r="1.428" transform="translate(15.1 4.503)" fill="#ffc154"/>
          </g>
          <g id="Grupo_1163053" data-name="Grupo 1163053" transform="translate(101.479 70.83)">
            <path id="Trazado_997543" data-name="Trazado 997543" d="M244.672,164.452H208.735a6.452,6.452,0,0,0-6.433,6.433v35.937a6.452,6.452,0,0,0,6.433,6.433h35.937a6.452,6.452,0,0,0,6.433-6.433V170.885A6.452,6.452,0,0,0,244.672,164.452Z" transform="translate(-202.302 -164.452)" fill="#5523e2"/>
            <rect id="Rectángulo_412047" data-name="Rectángulo 412047" width="41.099" height="33.927" transform="translate(3.852 9.69)" fill="#ededfc"/>
            <circle id="Elipse_12231" data-name="Elipse 12231" cx="1.223" cy="1.223" r="1.223" transform="translate(3.851 3.853)" fill="#ffc154"/>
            <path id="Trazado_997544" data-name="Trazado 997544" d="M213.267,169.589a1.223,1.223,0,1,1-1.223-1.223A1.223,1.223,0,0,1,213.267,169.589Z" transform="translate(-202.435 -164.513)" fill="#ffc154"/>
            <circle id="Elipse_12232" data-name="Elipse 12232" cx="1.223" cy="1.223" r="1.223" transform="translate(12.922 3.853)" fill="#ffc154"/>
            <g id="Grupo_1163050" data-name="Grupo 1163050" transform="translate(8.309 18.744)">
              <path id="Trazado_997545" data-name="Trazado 997545" d="M219.37,200.865l-8.627-8.627,8.745-8.745,1.467,1.466-7.279,7.279,7.16,7.161Z" transform="translate(-210.743 -183.493)" fill="#5523e2"/>
            </g>
            <g id="Grupo_1163051" data-name="Grupo 1163051" transform="translate(30.282 18.744)">
              <path id="Trazado_997546" data-name="Trazado 997546" d="M234.53,200.865l-1.466-1.466,7.279-7.279-7.161-7.161,1.467-1.466,8.626,8.627Z" transform="translate(-233.064 -183.493)" fill="#5523e2"/>
            </g>
            <g id="Grupo_1163052" data-name="Grupo 1163052" transform="translate(20.277 19.744)">
              <rect id="Rectángulo_412048" data-name="Rectángulo 412048" width="16.499" height="2.073" transform="translate(0 15.242) rotate(-67.492)" fill="#5523e2"/>
            </g>
          </g>
          <line id="Línea_1678" data-name="Línea 1678" x2="160.153" transform="translate(150.282 77.262)" fill="none" stroke="#5523e2" stroke-miterlimit="10" stroke-width="2" stroke-dasharray="4"/>
          <g id="Grupo_1163054" data-name="Grupo 1163054" transform="translate(309.518 55.2)">
            <path id="Trazado_997547" data-name="Trazado 997547" d="M544.2,148.574H420.985a7.365,7.365,0,0,0-7.343,7.343v62.015a7.365,7.365,0,0,0,7.343,7.343H544.2a7.365,7.365,0,0,0,7.344-7.343V155.917A7.366,7.366,0,0,0,544.2,148.574Z" transform="translate(-413.642 -148.574)" fill="#5523e2"/>
            <rect id="Rectángulo_412049" data-name="Rectángulo 412049" width="128.518" height="59.159" transform="translate(4.692 12.648)" fill="#e3e6ff"/>
            <circle id="Elipse_12233" data-name="Elipse 12233" cx="1.938" cy="1.938" r="1.938" transform="translate(8.057 5.1)" fill="#ffb600"/>
            <path id="Trazado_997548" data-name="Trazado 997548" d="M434.1,155.693a1.938,1.938,0,1,1-1.938-1.938A1.938,1.938,0,0,1,434.1,155.693Z" transform="translate(-413.901 -148.655)" fill="#ffb600"/>
            <circle id="Elipse_12234" data-name="Elipse 12234" cx="1.938" cy="1.938" r="1.938" transform="translate(24.581 5.1)" fill="#ffb600"/>
            <text id="CMS" transform="translate(16.158 56.579)" fill="#ff2951" font-size="43" font-family="SegoeUI, Segoe UI"><tspan x="0" y="0">CMS</tspan></text>
          </g>
          <path id="Trazado_997549" data-name="Trazado 997549" d="M450.069,224.6c-.2.593,0,26.319,0,26.319" transform="translate(-104.691 -94.561)" fill="none" stroke="#5523e2" stroke-miterlimit="10" stroke-width="2" stroke-dasharray="4"/>
          <path id="Trazado_997550" data-name="Trazado 997550" d="M473.133,288h25.489v26.894" transform="translate(-105.053 -95.552)" fill="none" stroke="#5523e2" stroke-miterlimit="10" stroke-width="2" stroke-dasharray="4"/>
          <path id="Trazado_997551" data-name="Trazado 997551" d="M513.844,369.928v31.41H651.837V339.264h-32.6" transform="translate(-105.689 -96.352)" fill="none" stroke="#5523e2" stroke-miterlimit="10" stroke-width="2" stroke-dasharray="4"/>
          <path id="Trazado_997552" data-name="Trazado 997552" d="M564.013,301.583h-35.93V225.4" transform="translate(-105.911 -94.574)" fill="none" stroke="#5523e2" stroke-miterlimit="10" stroke-width="2" stroke-dasharray="4"/>
          <g id="Grupo_1163056" data-name="Grupo 1163056" transform="translate(111.557 199.2)">
            <g id="Grupo_1163055" data-name="Grupo 1163055" transform="translate(0)">
              <path id="Trazado_997553" data-name="Trazado 997553" d="M298.7,325.192l-14.625-11.843,11.709-18.4c-7.139-.576-16.58,1.565-21.174,7.238-6.544,8.082-5.975,19.743.661,28.214L214.3,402.414a7.9,7.9,0,0,0,12.286,9.949l57.748-74.588c9.668,4.734,21.2,2.845,27.75-5.239,4.594-5.673,4.249-15.334,2.2-22.2Zm-76.956,85.788a3.934,3.934,0,1,1,2.651-4.891A3.934,3.934,0,0,1,221.741,410.979Z" transform="translate(-212.54 -294.859)" fill="#5523e2"/>
            </g>
            <path id="Trazado_997554" data-name="Trazado 997554" d="M218.359,412.683a7.9,7.9,0,0,1-1.168-11.118l60.966-72.012c-6.636-8.472-7.2-20.133-.661-28.214,2.409-2.975,6.556-4.621,9.975-5.9-4.561,1.022-9.792,2.962-12.863,6.755-6.544,8.082-5.975,19.743.661,28.214L214.3,402.423a7.9,7.9,0,0,0,9.8,11.981A7.875,7.875,0,0,1,218.359,412.683Z" transform="translate(-212.54 -294.868)" fill="#421dcc"/>
          </g>
          <path id="Trazado_997555" data-name="Trazado 997555" d="M340.316,384.59h64.706l2.166,15.263H338.174Z" transform="translate(-102.945 -97.06)" fill="#5f7aff"/>
        </g>
      </g>
    </g>
  </g>
</svg>
