<svg xmlns="http://www.w3.org/2000/svg" xmlns:xlink="http://www.w3.org/1999/xlink" width="505" height="398" viewBox="0 0 505 398">
  <defs>
    <clipPath id="clip-path">
      <rect id="Rectángulo_409765" data-name="Rectángulo 409765" width="505" height="398" transform="translate(0 0)" fill="#fff" stroke="#707070" stroke-width="1"/>
    </clipPath>
    <clipPath id="clip-path-2">
      <rect id="Rectángulo_409692" data-name="Rectángulo 409692" width="949" height="534"/>
    </clipPath>
    <clipPath id="clip-path-4">
      <rect id="Rectángulo_409693" data-name="Rectángulo 409693" width="671.756" height="447.837"/>
    </clipPath>
    <clipPath id="clip-path-5">
      <rect id="Rectángulo_409694" data-name="Rectángulo 409694" width="671.75" height="447.833" transform="translate(0 0)"/>
    </clipPath>
    <linearGradient id="linear-gradient" x1="1.213" y1="1.599" x2="1.213" y2="0.557" gradientUnits="objectBoundingBox">
      <stop offset="0" stop-color="#dbccff"/>
      <stop offset="1" stop-color="#d1bbff"/>
    </linearGradient>
    <linearGradient id="linear-gradient-2" x1="1.24" y1="1.603" x2="1.24" y2="0.561" gradientUnits="objectBoundingBox">
      <stop offset="0" stop-color="#b5a6e7"/>
      <stop offset="1" stop-color="#7760bf"/>
    </linearGradient>
    <linearGradient id="linear-gradient-3" x1="2.315" y1="2.38" x2="2.315" y2="1.336" xlink:href="#linear-gradient-2"/>
    <linearGradient id="linear-gradient-4" x1="4.682" y1="10.747" x2="3.578" y2="10.747" gradientUnits="objectBoundingBox">
      <stop offset="0" stop-color="#8b8be0"/>
      <stop offset="1" stop-color="#a177b7"/>
    </linearGradient>
    <linearGradient id="linear-gradient-5" x1="2.548" y1="4.539" x2="2.548" y2="4.021" gradientUnits="objectBoundingBox">
      <stop offset="0" stop-color="#fff"/>
      <stop offset="1" stop-color="#a177b7"/>
    </linearGradient>
    <linearGradient id="linear-gradient-6" x1="2.899" y1="2.366" x2="2.899" y2="1.285" gradientUnits="objectBoundingBox">
      <stop offset="0"/>
      <stop offset="1" stop-color="#fff"/>
    </linearGradient>
    <linearGradient id="linear-gradient-7" x1="0.5" y1="1" x2="0.5" gradientUnits="objectBoundingBox">
      <stop offset="0" stop-color="#6456c0"/>
      <stop offset="1" stop-color="#5f2c95"/>
    </linearGradient>
    <radialGradient id="radial-gradient" cx="0.5" cy="0.5" r="0.198" gradientTransform="matrix(-2.171, 0.225, 1.294, 2.518, 4.802, -0.206)" gradientUnits="objectBoundingBox">
      <stop offset="0" stop-color="#4b474b"/>
      <stop offset="1"/>
    </radialGradient>
    <radialGradient id="radial-gradient-2" cx="0.5" cy="0.5" r="0.2" gradientTransform="matrix(-2.027, -0.27, -1.467, 2.488, 2.455, 0.245)" xlink:href="#radial-gradient"/>
    <linearGradient id="linear-gradient-8" x1="1" y1="0.5" x2="0" y2="0.5" gradientUnits="objectBoundingBox">
      <stop offset="0" stop-color="#9e8cef"/>
      <stop offset="1" stop-color="#caafee"/>
    </linearGradient>
    <linearGradient id="linear-gradient-9" x1="12.751" y1="0.5" x2="11.751" y2="0.5" xlink:href="#linear-gradient-8"/>
    <linearGradient id="linear-gradient-10" x1="0.5" y1="1" x2="0.5" gradientUnits="objectBoundingBox">
      <stop offset="0" stop-color="#ccf"/>
      <stop offset="1" stop-color="#755cbb"/>
    </linearGradient>
    <linearGradient id="linear-gradient-12" x1="0.5" x2="0.5" y2="0" xlink:href="#linear-gradient-10"/>
    <linearGradient id="linear-gradient-13" x1="0.5" y1="1" x2="0.5" gradientUnits="objectBoundingBox">
      <stop offset="0" stop-color="#d5cdf8"/>
      <stop offset="1" stop-color="#f3edfb"/>
    </linearGradient>
    <linearGradient id="linear-gradient-14" x1="1" y1="0.5" x2="0" y2="0.5" xlink:href="#linear-gradient-10"/>
    <linearGradient id="linear-gradient-15" x1="0.5" y1="1" x2="0.5" y2="0" xlink:href="#linear-gradient-8"/>
    <linearGradient id="linear-gradient-17" x1="0.5" y1="1" x2="0.5" gradientUnits="objectBoundingBox">
      <stop offset="0" stop-color="#9e8cef"/>
      <stop offset="1" stop-color="#dac7f3"/>
    </linearGradient>
    <linearGradient id="linear-gradient-18" x1="1" y1="0.5" x2="0" y2="0.5" gradientUnits="objectBoundingBox">
      <stop offset="0" stop-color="#a999f1"/>
      <stop offset="1" stop-color="#dac7f3"/>
    </linearGradient>
    <linearGradient id="linear-gradient-19" x1="0.5" y1="1" x2="0.5" gradientUnits="objectBoundingBox">
      <stop offset="0.016" stop-color="#ffc2a9"/>
      <stop offset="1" stop-color="#ff9595"/>
    </linearGradient>
    <linearGradient id="linear-gradient-20" x1="0.5" y1="1" x2="0.5" gradientUnits="objectBoundingBox">
      <stop offset="0" stop-color="#ffeadb"/>
      <stop offset="0.994" stop-color="#c27cb6"/>
    </linearGradient>
    <linearGradient id="linear-gradient-22" x1="1" y1="0.5" x2="0" y2="0.5" gradientUnits="objectBoundingBox">
      <stop offset="0.016" stop-color="#d1a1d6"/>
      <stop offset="0.994" stop-color="#bd89c4"/>
    </linearGradient>
    <linearGradient id="linear-gradient-23" x1="0.5" y1="1" x2="0.5" y2="0" xlink:href="#linear-gradient-19"/>
    <linearGradient id="linear-gradient-25" x1="0.5" y1="1" x2="0.5" gradientUnits="objectBoundingBox">
      <stop offset="0" stop-color="#ffb0b0"/>
      <stop offset="0.984" stop-color="#ffc2a9"/>
    </linearGradient>
    <linearGradient id="linear-gradient-26" x1="0.5" y1="1" x2="0.5" y2="0" xlink:href="#linear-gradient-25"/>
    <linearGradient id="linear-gradient-27" x1="1" y1="0.5" x2="0" y2="0.5" xlink:href="#linear-gradient-22"/>
    <linearGradient id="linear-gradient-30" x1="1" y1="0.5" x2="0" y2="0.5" gradientUnits="objectBoundingBox">
      <stop offset="0" stop-color="#ccedff"/>
      <stop offset="1" stop-color="#755cbb"/>
    </linearGradient>
    <linearGradient id="linear-gradient-32" x1="1" y1="0.5" x2="0" y2="0.5" xlink:href="#linear-gradient-30"/>
    <linearGradient id="linear-gradient-33" x1="0.5" y1="1" x2="0.5" y2="0" xlink:href="#linear-gradient-30"/>
    <linearGradient id="linear-gradient-34" x1="0.5" y1="1" x2="0.5" y2="0" xlink:href="#linear-gradient-30"/>
    <linearGradient id="linear-gradient-36" x1="1" y1="0.5" x2="0" y2="0.5" xlink:href="#linear-gradient-30"/>
    <linearGradient id="linear-gradient-37" x1="0.5" x2="0.5" y2="0" xlink:href="#linear-gradient-10"/>
    <linearGradient id="linear-gradient-38" x1="0.5" x2="0.5" y2="0" xlink:href="#linear-gradient-10"/>
    <linearGradient id="linear-gradient-39" x1="0.5" x2="0.5" y2="0" xlink:href="#linear-gradient-10"/>
    <linearGradient id="linear-gradient-40" x1="0.5" y1="1" x2="0.5" y2="0" xlink:href="#linear-gradient-30"/>
    <linearGradient id="linear-gradient-44" x1="1" y1="0.5" x2="0" y2="0.5" gradientUnits="objectBoundingBox">
      <stop offset="0" stop-color="#8642a0"/>
      <stop offset="1" stop-color="#6456c0"/>
    </linearGradient>
    <linearGradient id="linear-gradient-50" x1="0.5" y1="1" x2="0.5" y2="0" xlink:href="#linear-gradient-19"/>
    <linearGradient id="linear-gradient-51" x1="0.5" y1="1" x2="0.5" y2="0" xlink:href="#linear-gradient-19"/>
    <linearGradient id="linear-gradient-52" x1="0.53" y1="0.933" x2="0.483" y2="0.115" gradientUnits="objectBoundingBox">
      <stop offset="0" stop-color="#e1616a"/>
      <stop offset="1" stop-color="#ff8883"/>
    </linearGradient>
    <linearGradient id="linear-gradient-54" x1="0.5" y1="1" x2="0.5" gradientUnits="objectBoundingBox">
      <stop offset="0" stop-color="#cf6074"/>
      <stop offset="1" stop-color="#f37270"/>
    </linearGradient>
    <linearGradient id="linear-gradient-55" x1="0.5" y1="1" x2="0.5" gradientUnits="objectBoundingBox">
      <stop offset="0" stop-color="#cf6074"/>
      <stop offset="1" stop-color="#ff817f"/>
    </linearGradient>
    <linearGradient id="linear-gradient-56" x1="0.5" y1="1" x2="0.5" y2="0" xlink:href="#linear-gradient-20"/>
    <linearGradient id="linear-gradient-57" x1="0.5" y1="1" x2="0.5" gradientUnits="objectBoundingBox">
      <stop offset="0" stop-color="#2e33a0"/>
      <stop offset="1" stop-color="#0665a5"/>
    </linearGradient>
    <linearGradient id="linear-gradient-58" x1="0.499" y1="1" x2="0.499" gradientUnits="objectBoundingBox">
      <stop offset="0" stop-color="#ffeadb"/>
      <stop offset="0.994" stop-color="#8860c7"/>
    </linearGradient>
    <linearGradient id="linear-gradient-59" x1="0.5" y1="1" x2="0.5" gradientUnits="objectBoundingBox">
      <stop offset="0" stop-color="#ccc2db"/>
      <stop offset="0.994" stop-color="#8860c7"/>
    </linearGradient>
    <linearGradient id="linear-gradient-60" x1="0.5" y1="1" x2="0.5" gradientUnits="objectBoundingBox">
      <stop offset="0" stop-color="#776d7e"/>
      <stop offset="1" stop-color="#9d68c2"/>
    </linearGradient>
    <linearGradient id="linear-gradient-61" x1="0.5" y1="1" x2="0.5" gradientUnits="objectBoundingBox">
      <stop offset="0" stop-color="#1f77d1"/>
      <stop offset="1" stop-color="#0686c9"/>
    </linearGradient>
    <linearGradient id="linear-gradient-62" x1="0.5" y1="1" x2="0.5" y2="0" xlink:href="#linear-gradient-61"/>
    <linearGradient id="linear-gradient-64" x1="0.195" y1="0.799" x2="1.137" y2="0.078" gradientUnits="objectBoundingBox">
      <stop offset="0" stop-color="#ffeadb"/>
      <stop offset="0.994" stop-color="#b060f4"/>
    </linearGradient>
    <linearGradient id="linear-gradient-65" x1="0.039" y1="0.812" x2="1.003" y2="0.231" xlink:href="#linear-gradient-64"/>
    <linearGradient id="linear-gradient-66" x1="1" y1="0.5" x2="0" y2="0.5" xlink:href="#linear-gradient-61"/>
    <linearGradient id="linear-gradient-67" x1="0.999" y1="0.5" x2="0" y2="0.5" xlink:href="#linear-gradient-61"/>
    <linearGradient id="linear-gradient-68" x1="1" y1="0.5" x2="0" y2="0.5" xlink:href="#linear-gradient-61"/>
    <linearGradient id="linear-gradient-69" x1="1" y1="0.5" x2="0" y2="0.5" gradientUnits="objectBoundingBox">
      <stop offset="0" stop-color="#9d68c2"/>
      <stop offset="1" stop-color="#aec2ff"/>
    </linearGradient>
    <linearGradient id="linear-gradient-70" x1="0.5" y1="1" x2="0.5" gradientUnits="objectBoundingBox">
      <stop offset="0" stop-color="#ccedff"/>
      <stop offset="1" stop-color="#9d68c2"/>
    </linearGradient>
    <linearGradient id="linear-gradient-71" x1="0.5" x2="0.5" y2="0" xlink:href="#linear-gradient-70"/>
    <linearGradient id="linear-gradient-72" x1="0.5" x2="0.5" y2="0" xlink:href="#linear-gradient-70"/>
    <linearGradient id="linear-gradient-74" x1="0.5" y1="1" x2="0.5" gradientUnits="objectBoundingBox">
      <stop offset="0" stop-color="#d93de3"/>
      <stop offset="1" stop-color="#ff6dba"/>
    </linearGradient>
    <linearGradient id="linear-gradient-75" x1="0.5" y1="1" x2="0.5" gradientUnits="objectBoundingBox">
      <stop offset="0" stop-color="#a242ea"/>
      <stop offset="1" stop-color="#fe117e"/>
    </linearGradient>
    <linearGradient id="linear-gradient-76" x1="0.566" y1="1.055" x2="0.452" y2="-0.06" gradientUnits="objectBoundingBox">
      <stop offset="0" stop-color="#067eff"/>
      <stop offset="1" stop-color="#3e37a0"/>
    </linearGradient>
    <linearGradient id="linear-gradient-77" x1="0.5" y1="1" x2="0.5" gradientUnits="objectBoundingBox">
      <stop offset="0" stop-color="#459fff"/>
      <stop offset="1" stop-color="#a96dff"/>
    </linearGradient>
    <linearGradient id="linear-gradient-78" x1="0.5" y1="1" x2="0.5" y2="0" xlink:href="#linear-gradient-77"/>
    <clipPath id="clip-path-13">
      <rect id="Rectángulo_409742" data-name="Rectángulo 409742" width="671.756" height="447.837" transform="translate(0 0)"/>
    </clipPath>
    <linearGradient id="linear-gradient-79" x1="0.5" y1="1" x2="0.5" gradientUnits="objectBoundingBox">
      <stop offset="0" stop-color="#b31a8f"/>
      <stop offset="1" stop-color="#fe117e"/>
    </linearGradient>
    <linearGradient id="linear-gradient-80" x1="0.5" y1="1" x2="0.5" y2="0" xlink:href="#linear-gradient-79"/>
    <linearGradient id="linear-gradient-81" x1="0.5" y1="1" x2="0.5" y2="0" xlink:href="#linear-gradient-44"/>
    <linearGradient id="linear-gradient-82" x1="0.5" y1="1" x2="0.5" y2="0" xlink:href="#linear-gradient-44"/>
    <linearGradient id="linear-gradient-83" x1="0.5" y1="1" x2="0.5" gradientUnits="objectBoundingBox">
      <stop offset="0" stop-color="#d906e3"/>
      <stop offset="1" stop-color="#ff6df9"/>
    </linearGradient>
    <linearGradient id="linear-gradient-85" x1="-0.387" y1="-0.742" x2="-0.22" y2="-1.755" gradientUnits="objectBoundingBox">
      <stop offset="0" stop-color="#1852a0"/>
      <stop offset="1" stop-color="#067ed3"/>
    </linearGradient>
    <linearGradient id="linear-gradient-86" x1="-0.202" y1="-0.631" x2="-0.202" y2="-1.605" xlink:href="#linear-gradient-85"/>
    <linearGradient id="linear-gradient-87" x1="0.085" y1="-1.175" x2="0.192" y2="-1.826" gradientUnits="objectBoundingBox">
      <stop offset="0" stop-color="#188dc1"/>
      <stop offset="1" stop-color="#06bfe7"/>
    </linearGradient>
    <linearGradient id="linear-gradient-88" x1="0.647" y1="1.113" x2="0.39" y2="-0.137" xlink:href="#linear-gradient-87"/>
    <linearGradient id="linear-gradient-89" x1="1.938" y1="0.969" x2="-1.115" y2="0.036" xlink:href="#linear-gradient-85"/>
    <linearGradient id="linear-gradient-90" x1="2.026" y1="1.113" x2="1.769" y2="-0.137" xlink:href="#linear-gradient-87"/>
    <linearGradient id="linear-gradient-91" x1="39.779" y1="0.969" x2="36.726" y2="0.036" xlink:href="#linear-gradient-85"/>
  </defs>
  <g id="Enmascarar_grupo_1098658" data-name="Enmascarar grupo 1098658" clip-path="url(#clip-path)">
    <g id="Grupo_1158399" data-name="Grupo 1158399" transform="translate(-13 -136)">
      <g id="Grupo_1158398" data-name="Grupo 1158398" transform="translate(0 0)" clip-path="url(#clip-path-2)">
        <g id="Grupo_1158345" data-name="Grupo 1158345" transform="translate(-33.051 86.163)" clip-path="url(#clip-path-4)">
          <path id="Trazado_992348" data-name="Trazado 992348" d="M975.356,617.649q-.013-.411-.4-.4l-7.51.228a5.614,5.614,0,0,0-1.889.34,3.157,3.157,0,0,0-1.242.837,3.107,3.107,0,0,0-.663,1.272,5.715,5.715,0,0,0-.17,1.651l.063,2.063a5.715,5.715,0,0,0,.269,1.637,3.088,3.088,0,0,0,.739,1.231,3.179,3.179,0,0,0,1.291.76,5.652,5.652,0,0,0,1.906.224l4.043-.124.838-2.365.109,0,.071,2.338,2.834-.086Zm-2.622,7.086-4.8.146a1.555,1.555,0,0,1-1.166-.322,1.817,1.817,0,0,1-.381-1.255l-.051-1.678a1.78,1.78,0,0,1,.3-1.282,1.619,1.619,0,0,1,1.145-.372l4.595-.14a.2.2,0,0,1,.153.057.21.21,0,0,1,.059.143Z" transform="translate(-469.535 -398.102)" fill="#f1f1f4"/>
          <path id="Trazado_992349" data-name="Trazado 992349" d="M998.812,622.355l.1,0,.091,3a.169.169,0,0,1-.186.2l-8.445.257.079,2.6,11.073-.336a.358.358,0,0,0,.386-.424l-.279-9.189a.359.359,0,0,0-.412-.4l-10.755.327a.365.365,0,0,0-.4.424l.079,2.6,2.657.9.11,0-.041-1.334c0-.1.041-.153.133-.156l5.68-.172a.151.151,0,0,1,.146.057.272.272,0,0,1,.037.13l.037,1.251-4.676.142.062,2.037,3.921-.119Z" transform="translate(-508.928 -398.51)" fill="#f1f1f4"/>
          <path id="Trazado_992350" data-name="Trazado 992350" d="M1018.249,622.616l.11,0-.034-1.1a.146.146,0,0,1,.16-.17l5.282-.161a.426.426,0,0,1,.524.466l.008.248a.5.5,0,0,1-.085.375.78.78,0,0,1-.369.135l-6.19,1.055a4.171,4.171,0,0,0-1,.285,1.9,1.9,0,0,0-.66.474,1.608,1.608,0,0,0-.35.706,3.76,3.76,0,0,0-.081.979l.024.8a3.6,3.6,0,0,0,.185,1.089,1.845,1.845,0,0,0,.52.783,2.182,2.182,0,0,0,.922.46,5.038,5.038,0,0,0,1.394.123l8.913-.271-.079-2.6-7.99.243a.64.64,0,0,1-.479-.117.7.7,0,0,1-.131-.457l-.008-.274a.566.566,0,0,1,.078-.368.542.542,0,0,1,.347-.142l5.974-.938a4.773,4.773,0,0,0,1.031-.279,1.978,1.978,0,0,0,.695-.462,1.6,1.6,0,0,0,.378-.686,3.21,3.21,0,0,0,.094-.953l-.021-.7a2.326,2.326,0,0,0-.628-1.667,2.6,2.6,0,0,0-1.945-.54l-8.9.27a.383.383,0,0,0-.413.453l.062,2.064Z" transform="translate(-547.136 -398.959)" fill="#f1f1f4"/>
          <path id="Trazado_992351" data-name="Trazado 992351" d="M1045.048,629.618l-.3-10.012-2.834.086.3,10.013Z" transform="translate(-577.695 -399.294)" fill="#f1f1f4"/>
          <path id="Trazado_992352" data-name="Trazado 992352" d="M1053.129,625.976c0-.147,0-.3.008-.462s.02-.3.035-.421l0-.124-2.806.085.149,4.91c.008.257.127.381.355.375l7.536-.228a5.658,5.658,0,0,0,1.89-.34,3.155,3.155,0,0,0,1.241-.837,3.1,3.1,0,0,0,.664-1.273,5.727,5.727,0,0,0,.17-1.65l-.062-2.064a5.75,5.75,0,0,0-.27-1.637,3.108,3.108,0,0,0-.739-1.23,3.166,3.166,0,0,0-1.29-.759,5.634,5.634,0,0,0-1.907-.224l-7.495.227a.359.359,0,0,0-.387.424l.066,2.16,2.657.884.11,0-.03-.963c0-.092.036-.139.119-.141l4.785-.145a2.729,2.729,0,0,1,.7.055.982.982,0,0,1,.47.247,1.1,1.1,0,0,1,.275.487,3.044,3.044,0,0,1,.107.761l.052,1.761a1.82,1.82,0,0,1-.3,1.276,1.558,1.558,0,0,1-1.146.392l-4.745.144c-.1,0-.152-.05-.155-.161Z" transform="translate(-599.125 -399.541)" fill="#f1f1f4"/>
          <path id="Trazado_992353" data-name="Trazado 992353" d="M1084.415,620.813a.785.785,0,0,0-.445.11.9.9,0,0,0-.231.309l-3.578,7.309a.291.291,0,0,1-.256.173l-.151.005a.2.2,0,0,1-.227-.215l-.228-7.537-2.571.078.292,9.615q.011.4.4.386l4.073-.124a.879.879,0,0,0,.428-.1.754.754,0,0,0,.26-.325l3.715-7.3a.274.274,0,0,1,.256-.173l.138,0a.194.194,0,0,1,.226.213l.228,7.524,2.573-.079-.292-9.6c-.009-.274-.14-.408-.4-.4Z" transform="translate(-639.168 -399.84)" fill="#f1f1f4"/>
        </g>
        <g id="Grupo_1158346" data-name="Grupo 1158346" transform="translate(388.611 679.948) rotate(-135)" clip-path="url(#clip-path-5)">
          <circle id="Elipse_11961" data-name="Elipse 11961" cx="173.556" cy="173.556" r="173.556" transform="translate(127.668 55.365)" fill="#e0f3ff"/>
        </g>
        <g id="Grupo_1158348" data-name="Grupo 1158348" transform="translate(-33.051 86.163)" clip-path="url(#clip-path-4)">
          <path id="Trazado_992354" data-name="Trazado 992354" d="M944.114,583.686a26.641,26.641,0,0,1,11.816-10.371l2.632,1.229L952.635,585.3a11.528,11.528,0,0,0,3.626,6.4l.008-.017a11.525,11.525,0,0,0,7.239-1.328l4.445-11.446,2.632,1.229a26.646,26.646,0,0,1-.373,15.718s-1.122,2.591-1.316,2.817c-1.043,1.217-3.763,2.622-9.019,2.3L941.734,635.58A9.487,9.487,0,1,1,931.927,631l14.9-36.1c-3.545-3.742-4.295-6.689-4.026-8.391C942.855,586.143,944.114,583.686,944.114,583.686ZM929.2,643.372,934,645.617l4.347-3.038-.459-5.283-4.806-2.245-4.346,3.038Z" transform="translate(-446.003 -375.88)" fill="url(#linear-gradient)"/>
          <path id="Trazado_992355" data-name="Trazado 992355" d="M946.777,589.387a26.644,26.644,0,0,1,11.816-10.372l2.632,1.23L955.3,591a11.528,11.528,0,0,0,3.626,6.4l.008-.018a11.525,11.525,0,0,0,7.238-1.328l4.444-11.445,2.632,1.23a26.646,26.646,0,0,1-.373,15.717s-4.1,5.5-10.335,5.114L944.4,641.281a9.487,9.487,0,1,1-9.806-4.581l14.9-36.1C945.192,596.062,946.777,589.387,946.777,589.387Zm-14.923,59.686,4.806,2.245,4.346-3.038L940.547,643l-4.806-2.245-4.347,3.038Z" transform="translate(-449.982 -378.763)" fill="url(#linear-gradient-2)"/>
          <rect id="Rectángulo_409695" data-name="Rectángulo 409695" width="2.905" height="3.11" transform="translate(523.259 207.075) rotate(-154.957)" fill="#e5e2ff"/>
          <rect id="Rectángulo_409696" data-name="Rectángulo 409696" width="2.905" height="3.11" transform="translate(511.238 201.487) rotate(-154.957)" fill="#e5e2ff"/>
          <rect id="Rectángulo_409697" data-name="Rectángulo 409697" width="5.304" height="3.11" transform="translate(486.671 272.551) rotate(-154.957)" fill="#e5e2ff"/>
          <g id="Grupo_1158347" data-name="Grupo 1158347" transform="translate(488.105 226.409)">
            <path id="Trazado_992356" data-name="Trazado 992356" d="M978.867,636.042,964.216,664.2a7.169,7.169,0,0,1-5.915-2.764l11.927-29.431A11.247,11.247,0,0,1,978.867,636.042Zm-19.436,25.625a8.338,8.338,0,0,0,1.9,1.241,7.083,7.083,0,0,0,2.022.6l14.674-27.58a15.155,15.155,0,0,0-3.527-2.316,12.352,12.352,0,0,0-3.627-1.069Z" transform="translate(-958.301 -631.972)" fill="url(#linear-gradient-3)"/>
            <path id="Trazado_992357" data-name="Trazado 992357" d="M989.08,691.8l-1.131-.23a6.34,6.34,0,0,0,5.915,2.763l-.865-.688A8,8,0,0,1,989.08,691.8Z" transform="translate(-987.949 -662.101)" fill="#e5e2ff"/>
            <path id="Trazado_992358" data-name="Trazado 992358" d="M966.94,636.014l-.843-.11a13.664,13.664,0,0,0-7.154-3.385l-.642-.541a11,11,0,0,1,8.639,4.036Z" transform="translate(-946.374 -631.943)" opacity="0.62" fill="url(#linear-gradient-4)"/>
          </g>
          <path id="Trazado_992359" data-name="Trazado 992359" d="M965.4,628.759a32.356,32.356,0,0,1-13.053-6.077L950.44,627.3s2.161-2.138,6.9-.206c5.547,2.26,5.243,6.723,5.243,6.723Z" transform="translate(-452.841 -400.85)" opacity="0.62" fill="url(#linear-gradient-5)"/>
          <path id="Trazado_992360" data-name="Trazado 992360" d="M987.832,631a5.709,5.709,0,0,1,2.9-1L976.55,664.253l-1.709-1.766Z" transform="translate(-490.233 -404.551)" opacity="0.5" fill="url(#linear-gradient-6)"/>
          <path id="Trazado_992361" data-name="Trazado 992361" d="M982.984,632.025s1.488,4.577-2.784,6.748Z" transform="translate(-485.385 -405.576)" fill="#fff"/>
        </g>
        <g id="Grupo_1158356" data-name="Grupo 1158356" transform="translate(-33.051 86.163)" clip-path="url(#clip-path-4)">
          <g id="Grupo_1158351" data-name="Grupo 1158351" transform="translate(284.12 347.957)">
            <path id="Trazado_992362" data-name="Trazado 992362" d="M1113.95,977.775h52.622c5.508-30.587,18.317-70.389,18.317-70.389,3.112-1.847,9.192.425,9.192.425l19.232,69.963h48.075c2.553-43.172-21.071-92.176-21.071-92.176l.011-.011a5.3,5.3,0,0,0,.627-2.676,6.371,6.371,0,0,0-1.791-2.083c-1.3-1.187-2.844-2.374-2.844-2.374l-89.691-.56s-.907.459-2.06,1.153h-.011c-1.959,1.187-4.613,3.023-4.613,4.366a6.121,6.121,0,0,0,.907,3.314l.045.056C1121.669,923.08,1113.95,977.775,1113.95,977.775Z" transform="translate(-1113.95 -877.895)" fill="url(#linear-gradient-7)"/>
            <path id="Trazado_992363" data-name="Trazado 992363" d="M1122.045,959.905c6.437,27.9,20.411,48.5,31.21,46.01s14.336-27.131,7.9-55.033-20.411-48.5-31.21-46.01S1115.606,932.005,1122.045,959.905Z" transform="translate(-1019.148 -891.437)" opacity="0.5" fill="url(#radial-gradient)"/>
            <path id="Trazado_992364" data-name="Trazado 992364" d="M1309.646,949.48c-7.727,27.573-5.339,52.35,5.333,55.341s25.588-16.938,33.314-44.51,5.339-52.35-5.333-55.341S1317.37,921.907,1309.646,949.48Z" transform="translate(-1299.668 -891.439)" opacity="0.5" fill="url(#radial-gradient-2)"/>
            <g id="Grupo_1158349" data-name="Grupo 1158349" transform="translate(79.947 29.703)">
              <path id="Trazado_992365" data-name="Trazado 992365" d="M1223.546,1008.219l.552-.094c-6.119-36.05-21.651-66.285-21.806-66.586l-.064-.082L1198.272,938l-.369.422,3.916,3.423C1202.518,943.21,1217.552,972.924,1223.546,1008.219Z" transform="translate(-1197.903 -937.998)" fill="url(#linear-gradient-8)"/>
            </g>
            <g id="Grupo_1158350" data-name="Grupo 1158350" transform="translate(44.925 29.705)">
              <path id="Trazado_992366" data-name="Trazado 992366" d="M1269.315,1008.221c6-35.325,21.45-65.324,22.145-66.658l3.5-3.144-.374-.418-3.6,3.256c-.16.3-16.1,30.819-22.223,66.869Z" transform="translate(-1268.764 -938.002)" fill="url(#linear-gradient-9)"/>
            </g>
            <path id="Trazado_992367" data-name="Trazado 992367" d="M1152.332,883.415a6.123,6.123,0,0,0,.907,3.314l.045.056c18.675,4.221,32.882,21.653,32.882,21.653-10.177,19.526-27.15,69.336-27.15,69.336h19.94c5.508-30.587,18.316-70.389,18.316-70.389,3.112-1.847,9.192.425,9.192.425l19.231,69.964h12.45c-4.456-29.311-17.611-65.093-17.611-65.093,12.931-15.059,32.166-27.083,32.166-27.083l.011-.011,2.284-1.433-1.657-1.243c-8.319,7.983-35.144,18.406-35.972,18.731l34.181-20.813c-1.3-1.187-2.844-2.374-2.844-2.374l-89.691-.56s-.907.459-2.06,1.153l24.5,13.48Z" transform="translate(-1126.333 -877.895)" opacity="0.76" fill="url(#linear-gradient-10)"/>
            <path id="Trazado_992368" data-name="Trazado 992368" d="M1279.607,930.617l-10.467-6.792,2.486,6.792,1.824,20.449Z" transform="translate(-1208.67 -901.127)" opacity="0.76" fill="url(#linear-gradient-10)"/>
            <path id="Trazado_992369" data-name="Trazado 992369" d="M1181.23,921.355l10.907-6.169,23.346-10.514-29.731,19.648-1.769,7.042Z" transform="translate(-1101.101 -891.439)" opacity="0.76" fill="url(#linear-gradient-12)"/>
          </g>
          <path id="Trazado_992370" data-name="Trazado 992370" d="M1228.841,480.65c-.067.481-.123.739-.123.739a64.125,64.125,0,0,0,1.859,6.337,51.5,51.5,0,0,0,6.975,13.57,26.683,26.683,0,0,0,3.045,3.56c16.335-5.128,24.385-21.1,27.475-29.053a.41.41,0,0,0,.045-.123c.594-1.5.986-2.709,1.232-3.493v-.011c.19-.627.28-.974.28-.974-.067-.134-.134-.28-.2-.414l-.034-.056c-.269-.56-.537-1.131-.784-1.679a79.7,79.7,0,0,1-4.478-12.506c-.8-2.934-1.22-5.195-1.422-6.393-.1-.616-.146-.952-.146-.952l-7.613,4.019L1228.718,467.1a43.225,43.225,0,0,1,.56,6.65c.022,1.4-.022,2.653-.1,3.717-.078,1.3-.212,2.329-.313,3v.011A1.124,1.124,0,0,1,1228.841,480.65Z" transform="translate(-894.595 -313.103)" fill="#fe9083"/>
          <path id="Trazado_992371" data-name="Trazado 992371" d="M1236.872,528.7a22.507,22.507,0,0,0,5.419,3.964.855.855,0,0,0,.134.079s.056-.034.157-.089l.011-.011c.571-.347,2.519-1.545,5.139-3.516,6.852-5.161,18.294-15.6,21.563-29.658.011-.022.011-.034.022-.056a34.9,34.9,0,0,0,.784-5.139v-.011c.033-.459.067-.918.078-1.388a72.164,72.164,0,0,1-6.214,11.107c-4.635,6.785-11.588,14.185-19.9,14.23-7.188.045-10.871-4.87-12.741-9.4a25.632,25.632,0,0,1-1.511-5.15.035.035,0,0,1-.011-.022c-.079-.4-.134-.762-.19-1.064v-.011c-.022-.157-.045-.291-.056-.414-.067-.5-.09-.795-.09-.795S1226.716,518.55,1236.872,528.7Z" transform="translate(-895.351 -335.194)" fill="url(#linear-gradient-13)"/>
          <path id="Trazado_992372" data-name="Trazado 992372" d="M1236.872,528.7a22.507,22.507,0,0,0,5.419,3.964h.134l.157-.011.011-.011c.571-.347,2.519-1.545,5.139-3.516,6.852-5.161,18.294-15.6,21.563-29.658.011-.022.011-.034.022-.056a34.9,34.9,0,0,0,.784-5.139v-.011c.033-.459.067-.918.078-1.388a72.164,72.164,0,0,1-6.214,11.107s-4.523,12.428-14.308,18.585c-4.9,3.079-8.621,2.631-11.353.817s-4.5-4.948-5.542-7.322a17.228,17.228,0,0,1-1.433-6.247q-.017-.554,0-1.008a25.631,25.631,0,0,1-1.511-5.15.035.035,0,0,1-.011-.022c-.079-.4-.134-.762-.19-1.064v-.011c-.022-.157-.045-.291-.056-.414-.067-.5-.09-.795-.09-.795S1226.716,518.549,1236.872,528.7Z" transform="translate(-895.351 -335.194)" opacity="0.5" fill="url(#linear-gradient-14)"/>
          <path id="Trazado_992373" data-name="Trazado 992373" d="M1062.011,628.464a1.915,1.915,0,0,1,.179.089c.918.112,3.773-.515,7.512-3.75l.011-.011c0-.011.011-.022.034-.034s.022-.034.045-.045c3.135-2.743,6.9-7.322,10.647-14.823,7.5-14.991,9.651-25,10-26.747l.045-.269,4.378,6.941c2.967,8.923,8.587,45.847,8.486,47.437s-4.982,9.337-4.881,10.289a.034.034,0,0,0,.011.022c.134.963,2.329,3.079,2.956,5.385.425,1.534-2.552,6.371-4.646,9.987v.011a14.7,14.7,0,0,0-1.926,4.008c0,1.691,5.307,9.964,5.307,9.964v4.456l.078.079.246.224.2.168c2.016,1.59,10.558,6.8,37.249,8.229,31.629,1.691,52.7-8.486,52.7-8.486l-1.59-4.355s1.478-1.265,1.59-1.9-1.164-2.127-1.164-2.127,3.18-1.691,3.18-3.818-6.371-8.688-6.158-14.32,5.094-10.6,5.732-13.782-8.274-11.028-8.274-11.028c7.636-24.183,9.125-56.64,9.125-56.64l1.478-1.7s9.125,20.791,17.4,30.968c.985,1.209,2.026,2.407,3.1,3.56a90.753,90.753,0,0,0,7.12,6.886c5.732,4.993,10.939,8.274,12.26,8.016,2.127-.426,10.614-17.186,10.222-34.371-.179-8.173-5.105-17.32-10.222-24.654-.549-.784-1.1-1.556-1.657-2.306a117.488,117.488,0,0,0-8.777-10.58c-.649-.694-1.019-1.063-1.019-1.063s1.164-3.75,1.959-7.009a1.845,1.845,0,0,1,.056-.235.407.407,0,0,1,.022-.112.376.376,0,0,1,.022-.078c.47-2,.761-3.74.493-4.165-.705-1.131-4.814-2.407-5.52-3.247s-3.672-15.137-5.934-16.693c-2.172-1.489-5.99-2.575-18.72-7.579-.627-.246-1.265-.493-1.937-.762-14.275-5.654-28.281-12.517-28.281-12.517l-5.374-6.605h-2.4l.784,1.679.034.056q-.571,2.553-1.31,4.893a.4.4,0,0,1-.045.123c-7.389,23.31-26.4,30.822-26.4,30.822-13.211-9.751-12.954-25.236-12.954-25.236v-2.127l-2.474.739-1.691,4.031s-2.866,4.456-14.219,9.449a67.441,67.441,0,0,0-6.236,3.191c-10.39,5.9-21.944,15.025-22.828,16.962a6.319,6.319,0,0,0-.3.963v.011c-1.22,4.792-3.728,22.739-6.057,29.143a14.662,14.662,0,0,1-5.441,7.345c-.011.011-.011.011-.022.011a8.522,8.522,0,0,1-2.172,1.131q-.269,1.478-.5,2.922C1050.669,606.173,1059.931,627.009,1062.011,628.464Z" transform="translate(-783.367 -333.418)" fill="url(#linear-gradient-15)"/>
          <path id="Trazado_992374" data-name="Trazado 992374" d="M1078.2,598.622l9.225,3.1,1.478-1.7s9.125,20.791,17.4,30.968c.985,1.209,2.026,2.407,3.1,3.56a90.7,90.7,0,0,0,7.12,6.886l7.031-30.308,3.572-23.008a117.552,117.552,0,0,0-8.777-10.58c-.65-.694-1.019-1.063-1.019-1.063s1.164-3.75,1.959-7.009a1.85,1.85,0,0,1,.056-.235.406.406,0,0,1,.022-.112.368.368,0,0,1,.022-.079c.47-2,.762-3.74.493-4.165-.705-1.131-4.814-2.407-5.52-3.247s-3.672-15.137-5.934-16.693c0,0,1.478,13.715-6.371,31.114l-3.818,5.374-11.173,8.979S1082.821,596.036,1078.2,598.622Z" transform="translate(-677.707 -361.526)" opacity="0.5" fill="url(#linear-gradient-14)"/>
          <path id="Trazado_992375" data-name="Trazado 992375" d="M1026.7,634.251c1.982,14.7,23.892,26.019,23.892,26.019,4.881,0,10.334-8.486,15.283-18.955s5.251-40.54,5.508-42.4,3.023-5.576,3.191-7.165-4.456-4.881-4.456-4.881l.033-.079.034-.079c.481-1.03,3.191-6.841,3-7.9-.213-1.164-5.4-3.706-5.4-3.706l-.325,5.721s-12.069-2.284-16.156-11.632l-.717-2.866-2.015,1.344v12.3s-.414,1.915-1.053,1.915-5.34-2.351-6.326-2.027-1.97,6.908-3.292,7.748-4.815,3.292-5.34,4.456a21.3,21.3,0,0,0-.28,4.646,47.446,47.446,0,0,1-.459,7.77C1031.08,607.761,1024.719,619.539,1026.7,634.251Z" transform="translate(-599.522 -372.344)" fill="url(#linear-gradient-17)"/>
          <path id="Trazado_992376" data-name="Trazado 992376" d="M1402.471,655c.985,1.556,5.934,4.815,7.21,6.091s0,5.453,0,5.453a171.689,171.689,0,0,0,44.649,34.192,1.94,1.94,0,0,1,.179.089c13.055-8.777,11.935-23.232,7.6-35.413a91.887,91.887,0,0,0-11.554-21.7l-.011-.011-.011-.011a27.321,27.321,0,0,0-6.628-1.836,4.021,4.021,0,0,0-2.452.762c-1.59.985-2.934,2.542-4.232,1.892-1.915-.963-6.191-11.073-9.091-11.353-2.027-.19-4.837,1.87-6.706,3.045-.817.515-1.455.862-1.769.772-1.064-.28-4.669-4.6-4.96-4.714s-1.926,1.086-1.926,1.086l1.153,1.433a39.167,39.167,0,0,1-7.569,17.04l-3.885-5.688S1401.473,653.447,1402.471,655Z" transform="translate(-1175.683 -405.692)" fill="url(#linear-gradient-18)"/>
          <path id="Trazado_992377" data-name="Trazado 992377" d="M1239.849,481.186c.022.145.045.291.056.437a8.586,8.586,0,0,0,.212.9.034.034,0,0,0,.011.022c1.332,4.938,6.718,9.987,13.513,7.557,7.423-2.653,21.552-32.58,21.552-32.58l-1.422-6.393-33.532,27.318-.37,2.586Z" transform="translate(-905.662 -314.076)" fill="#cb4d7a"/>
          <g id="Grupo_1158352" data-name="Grupo 1158352" transform="translate(438.391 123.78)">
            <path id="Trazado_992378" data-name="Trazado 992378" d="M1020.966,462.129s2.05-11.314,1.131-19.658a90.412,90.412,0,0,1,.237-17.819,4.548,4.548,0,0,1,3.511,0c1.485.849,4.95,9.475,3.394,16.4s-.353,23.546-.353,23.546h2.334l5.091-7,2.475-.707s14.248,13.435,14.036,21.425l-1.862,7.107-17.549-.6-11.455-13.081Z" transform="translate(-1013.512 -424.275)" fill="#ee8183"/>
            <path id="Trazado_992379" data-name="Trazado 992379" d="M1015.5,490.282a91.172,91.172,0,0,1-2.368,16.547,3.96,3.96,0,0,0,3.994,3.341l.9-1.008s.637,3.553,3.872,3.818l3.076-3.076-.8,2.546a4.354,4.354,0,0,0,4.031,2.6s4.879-3.818,5.2-8.8l-4.823-4.084v-3.129l-5.73-4.031-.106-2.28A13.457,13.457,0,0,0,1015.5,490.282Z" transform="translate(-990.227 -457.661)" fill="url(#linear-gradient-19)"/>
            <path id="Trazado_992380" data-name="Trazado 992380" d="M1046.685,456.249a7.987,7.987,0,0,0,2.079,3.031c1.22.849,4.754,1.5,4.754,1.5l.161,20h2.334l5.091-7s-2.581,4-2.74,7l2.015.99,1.75-5.993.829,4.313-.825,5.367a14.085,14.085,0,0,0-8.481-2.7l-.822,1.492s9.882,8.185,12.162,13.011c0,0-4.879-6.205-16.016-13.046l-1.061-3.288-1.408-7.85S1047.841,461.756,1046.685,456.249Z" transform="translate(-1038.302 -440.448)" opacity="0.6" fill="url(#linear-gradient-20)"/>
            <path id="Trazado_992381" data-name="Trazado 992381" d="M1024.617,496.92c.918,2.754,10.535,14.208,11.6,16.693a33.638,33.638,0,0,1,1.7,5.721c4.725,10.222,16.156,11.632,16.156,11.632l.526-9.226s6.147-3.538,7.188-5.475l.011-.034.123-.325a76.983,76.983,0,0,0,.045-8.486l-10.759-4.355c-4.669-6.046-16.021-13.043-16.021-13.043l-.526-3.168c8.151-4.008,6.785-16.134,5.407-17.623a6.041,6.041,0,0,0-3.918-1.478s-2.978,9.751-4.882,14.319S1023.7,494.165,1024.617,496.92Z" transform="translate(-1024.517 -446.267)" fill="url(#linear-gradient-19)"/>
            <path id="Trazado_992382" data-name="Trazado 992382" d="M1039.205,495.22s-1.2,11.137-4.72,16.44a25.944,25.944,0,0,0,4.826-14.16Z" transform="translate(-1006.681 -460.159)" fill="#e28183"/>
            <path id="Trazado_992383" data-name="Trazado 992383" d="M1029.585,507.99s-1.169,8.963-6.685,13.948c0,0,4.884-2.439,6.685-10.819Z" transform="translate(-991.229 -466.618)" fill="#e28183"/>
            <path id="Trazado_992384" data-name="Trazado 992384" d="M1039.643,555.742s12.13,11.778,19.875,10.5l-.526,9.226a20.468,20.468,0,0,1-16.867-14.5A34.782,34.782,0,0,0,1039.643,555.742Z" transform="translate(-1029.436 -490.771)" opacity="0.91" fill="url(#linear-gradient-22)"/>
          </g>
          <g id="Grupo_1158353" data-name="Grupo 1158353" transform="translate(191.087 162.451)">
            <path id="Trazado_992385" data-name="Trazado 992385" d="M1465.693,544.837s11.14,20.365,24.183,26.624h4.456l10.289,15.6s6.651-4.176,7.143-17.891a12.514,12.514,0,0,1-2.9-5.173s3.672-2.889,4.669-5,1.344-8.486,2.049-11.107,6.718-8.061,8.061-8.767,7.423-1.063,7.423-1.063.851-2.194,0-3.247-10.323-4.747-15.484-1.209a23.228,23.228,0,0,1-.918,4.109c-.571,1.41-5.094,6.427-5.8,6.427s-3.75-2.542-5.094-4.523c-1.287-1.9-8.128-16.648-9.785-21.63a.554.554,0,0,0-.045-.145c-.022-.079-.056-.157-.067-.224a1.058,1.058,0,0,1-.045-.145c-.011-.022-.022-.034-.022-.056-1.276-4.31-8.7-12.584-12.663-14.846,0,0-1.691-.426-2.609,1.691,0,0,3.18,9.058,6.5,14.432.56.907,1.164,1.97,1.792,3.112h.011c2.833,5.206,6.023,12.024,6.482,13.021l.056.123-1.769.907-4.781-4.534-4.9-4.646-11.252,11.879,1.108,1.41,3.516,4.512-1.78.325-4.142-4.579Z" transform="translate(-1464.611 -502.526)" fill="url(#linear-gradient-23)"/>
            <path id="Trazado_992386" data-name="Trazado 992386" d="M1511.388,564.98l3.559,5.231s19.54-15.069,23.783-16.345,5.8-.426,5.8-.426l4.378,5.587s-8.061,7.143-8.766,16.76c0,0,2.687-12.159,11.812-15.842-.705,0-3.75-2.542-5.094-4.523-1.287-1.9-8.128-16.648-9.785-21.63a5.553,5.553,0,0,1-.179,3.818c-.963,1.78-6.628.1-6.964,0h-.011l6.494,13.021.056.123-1.769.907-4.781-4.534,2.4,5.564-17.443,3.079,3.516,4.512-1.78.325Z" transform="translate(-1507.701 -518.34)" opacity="0.6" fill="url(#linear-gradient-20)"/>
            <path id="Trazado_992387" data-name="Trazado 992387" d="M1560.614,551.363s-3.394-.5-5.586,3.889l.495,1.414s-3.308.648-6.505,6.01a18.129,18.129,0,0,0,9.829,7.5s3.253-.919,3.818-3.677l-.637-1.768,2.546,1.909s3.041.919,4.384-3.606Z" transform="translate(-1543.302 -527.219)" fill="url(#linear-gradient-25)"/>
            <path id="Trazado_992388" data-name="Trazado 992388" d="M1581.7,579.791a5.245,5.245,0,0,1,2.758-5.374l6.718,7.425a3.468,3.468,0,0,1-3.111,2.9S1583.466,583.185,1581.7,579.791Z" transform="translate(-1581.637 -538.889)" fill="url(#linear-gradient-26)"/>
            <path id="Trazado_992389" data-name="Trazado 992389" d="M1521.141,616.777a49.825,49.825,0,0,1-19.2,12.472l4.921,7.459,10.269-13.04-.658-1.886S1520.578,618.694,1521.141,616.777Z" transform="translate(-1472.22 -560.315)" opacity="0.91" fill="url(#linear-gradient-27)"/>
            <path id="Trazado_992390" data-name="Trazado 992390" d="M1563.243,562.111s3.253,5.374,6.506,8.061l.637,1.768s-6.314-4.261-8.637-9.184A4.027,4.027,0,0,1,1563.243,562.111Z" transform="translate(-1551.021 -532.664)" fill="#e28183"/>
          </g>
          <path id="Trazado_992391" data-name="Trazado 992391" d="M1366.586,628.358c.985,1.556,5.934,4.814,7.21,6.09s0,5.452,0,5.452a171.687,171.687,0,0,0,44.649,34.193,1.96,1.96,0,0,1,.179.089c1.7.212,9.976-2.116,18.249-18.664,7.5-14.991,9.651-25,10-26.747l.045-.269-1.825-2.474-2.709-30.542-1.9,6.146c-7.21-8.7-14.006-22.056-14.006-22.056l-.3.963v.011c-1.22,4.792-3.728,22.739-6.057,29.143a14.663,14.663,0,0,1-5.441,7.345l-.011.022.011.011c6.639,6.057,9.931,14.768,11.554,21.7a60.114,60.114,0,0,1,1.59,11.23,75.487,75.487,0,0,0-7.636-18.989,40.846,40.846,0,0,0-8.207-9.908,65.926,65.926,0,0,0-6.4-5.128c-1.59.985-2.934,2.542-4.232,1.892,8.733,13.111,8.52,39.063.313,34.114s-10.072-15.452-10.072-15.452c1.937-12.8,1.359-27.23-.2-29.973-1.888.062-7.3,3.866-7.61,3.776a44.339,44.339,0,0,1-6.583,25.113l-4.669-7.221a44.8,44.8,0,0,0,6.292-22.6c-.28-.123-1.926,1.086-1.926,1.086l1.153,1.433a39.168,39.168,0,0,1-7.569,17.04l-3.885-5.688S1365.587,626.8,1366.586,628.358Z" transform="translate(-1139.798 -379.047)" opacity="0.5" fill="url(#linear-gradient-10)"/>
          <path id="Trazado_992392" data-name="Trazado 992392" d="M1026.322,717.221v4.456l.078.079.246.224.2.168c2.015,1.59,10.558,6.8,37.249,8.229,31.629,1.691,52.7-8.486,52.7-8.486l-1.59-4.355s1.478-1.265,1.59-1.9-1.164-2.127-1.164-2.127,3.18-1.691,3.18-3.818c0-1.914-5.195-7.456-6.035-12.663a7.544,7.544,0,0,1-.123-1.657c.213-5.6,5.049-10.558,5.721-13.737a.177.177,0,0,0,.011-.045c.638-3.18-8.274-11.028-8.274-11.028,7.636-24.183,9.125-56.64,9.125-56.64l1.478-1.7s9.125,20.791,17.4,30.968,20.365,18.888,22.481,18.462c4.881,0,10.334-8.486,15.283-18.955s5.251-40.54,5.508-42.4,3.023-5.576,3.191-7.165c-5.307,9.125-13.76,6.438-13.76,6.438,6.124.134,9.3-11.319,9.3-11.319l.034-.079.034-.078,2.989-7.893c-.336.381-7.333,8.207-14.1,3.381-6.93-4.948-10.5-14.532-10.5-14.532v12.3s-.414,1.915-1.053,1.915a150.22,150.22,0,0,0,3.067,19.358c3.146,14.7,7.457,28.9,7.457,28.9s-11.689-6.359-15.8-22.482a67.98,67.98,0,0,1-2.094-19.3,48.392,48.392,0,0,1,.941-8.072,1.822,1.822,0,0,1,.056-.235.411.411,0,0,1,.022-.112.467.467,0,0,1,.011-.056l-1.131,2.4-2.15,5.329c-2.5,20.69,2.653,51.871,2.653,51.871-7.5-9.337-9.058-29.983-8.733-35,.146-2.4.336-5.352.459-7.77.168-2.642.28-4.646.28-4.646l-15.35,9.158,2.833-8.979L1118.88,602.6s-10.043,12.092-20.365,13.5-48.221.571-48.221.571,32.95,2.116,42.567,4.948,11.453,6.08,11.453,6.08c-6.953,35.368-45.433,47.292-46.631,47.65,34.909-5.24,51.154-34.92,51.154-34.92s.571,16.693-2.116,23.052-18.529,21.922-38.895,25.168a46.809,46.809,0,0,1-5.072.515c-17.174.806-31.393-7.971-32.849-8.912a1.121,1.121,0,0,0-.123-.079s.011.022.034.056c.548.84,7.591,10.737,36.028,11.823,1.724.067,3.4.056,5.038-.011h.022c26.355-1.109,39.779-18.664,39.779-18.664s9.751,5.239,3.526,13.01c-.067.079-.134.168-.2.246-1.836,2.116-5.878,4.7-10.658,7.367-.135.079-.269.157-.392.224-5.777,3.191-12.551,6.482-17.79,9.2a.576.576,0,0,0-.079.034,66.362,66.362,0,0,0-7.3,4.176.011.011,0,0,0-.011.011c-1.478,1.075-1.78,1.769-.336,1.937,7.355.851,35.211-5.229,36.342-3.538s-1.377,6.08-1.377,6.08c-25.572,12.674-80.286,6.427-82.01,6.236,45.791,11.722,83.253-3.124,83.253-3.124l-1.243,4.389a163.833,163.833,0,0,1-44.437,7.636c-24.049.56-39.04-5.587-39.04-5.587Z" transform="translate(-709.521 -373.719)" opacity="0.5" fill="url(#linear-gradient-14)"/>
          <path id="Trazado_992393" data-name="Trazado 992393" d="M1338.889,665.131s-18.213.99-30.249,4.172l6.208,9.415A82.562,82.562,0,0,1,1338.889,665.131Z" transform="translate(-1003.354 -422.321)" opacity="0.5" fill="url(#linear-gradient-30)"/>
          <path id="Trazado_992394" data-name="Trazado 992394" d="M1253.116,766.713s11.362,9.479,22.534,13.863a75.436,75.436,0,0,0,21.921,4.808s-6.424,1.909-22.228-.636-21.212-11.105-21.212-11.105Z" transform="translate(-934.596 -473.701)" opacity="0.5" fill="url(#linear-gradient-30)"/>
          <path id="Trazado_992395" data-name="Trazado 992395" d="M1257.285,824.851v.011c21.026,5.43,47.717-2.362,47.493-3.314s-7.311.426-23.747-2.866c-15.932-3.191-21.709-8.856-22.056-9.2.134.963,2.329,3.079,2.956,5.385C1262.356,816.4,1259.375,821.235,1257.285,824.851Z" transform="translate(-943.865 -495.333)" opacity="0.5" fill="url(#linear-gradient-32)"/>
          <path id="Trazado_992396" data-name="Trazado 992396" d="M1111.326,644.349c17.958,1.825,22.795,6.829,22.795,6.829,5.049.638,16.391-12.293,16.391-12.293l1.478-1.7s9.125,20.791,17.4,30.968c.985,1.209,2.026,2.407,3.1,3.56l-1.176-2.643s-1.926-.918-2.485-11.028,4.243-25.168,4.277-27.217.739-12.416.739-12.416l-15.35,9.159,2.833-8.979-11.173,8.979s-4.378,6.583-15.428,12.069C1124.3,644.819,1112.616,644.4,1111.326,644.349Z" transform="translate(-740.796 -398.688)" opacity="0.5" fill="url(#linear-gradient-33)"/>
          <path id="Trazado_992397" data-name="Trazado 992397" d="M1182.941,654.97l-10.7-1.4a80.43,80.43,0,0,1-12.861,6.327l7.157,10.554s-2.839,15.046-10.99,23.525c0,0,21.632-12.015,24.673-22.117Z" transform="translate(-771.749 -416.475)" opacity="0.5" fill="url(#linear-gradient-34)"/>
          <path id="Trazado_992398" data-name="Trazado 992398" d="M1053.758,580.2l-3.057,8.05s-3.118,10.864-9.3,11.319-12.237-18.216-12.237-18.216v-12.3s6.581,14.11,13.688,15.7S1053.758,580.2,1053.758,580.2Z" transform="translate(-580.104 -373.72)" opacity="0.5" fill="url(#linear-gradient-34)"/>
          <path id="Trazado_992399" data-name="Trazado 992399" d="M1116.333,561.631s-5.515,11.026-12.3,14.421c0,0,8.072-19.589,6.369-31.114C1110.4,544.938,1113.368,546.786,1116.333,561.631Z" transform="translate(-679.68 -361.527)" opacity="0.5" fill="url(#linear-gradient-36)"/>
          <path id="Trazado_992400" data-name="Trazado 992400" d="M1370.069,611.771l-1.9,6.146-1.931,50.438a121.655,121.655,0,0,0,8.324-23.3l-1.784-2.743S1369.782,623.3,1370.069,611.771Z" transform="translate(-1067.486 -395.331)" opacity="0.76" fill="url(#linear-gradient-37)"/>
          <path id="Trazado_992401" data-name="Trazado 992401" d="M1502.64,641.811s1.077,24.777-9.452,26.919l-.523,2.649S1506.288,670.874,1502.64,641.811Z" transform="translate(-1258.669 -410.526)" opacity="0.5" fill="url(#linear-gradient-38)"/>
          <path id="Trazado_992402" data-name="Trazado 992402" d="M1412.678,655.12s.4.888,4.232-1.892c0,0,13.245,9.381,18.349,22.6,0,0-8.164-12.148-12.509-13.463s-5.393,3.534-5.393,3.534S1415.638,659.073,1412.678,655.12Z" transform="translate(-1151.138 -416.3)" opacity="0.3" fill="url(#linear-gradient-39)"/>
          <path id="Trazado_992403" data-name="Trazado 992403" d="M1040.909,617.774s-5.1,9.393-14.643,6.446c0,0,5.721,3.856,11.451.719C1037.717,624.939,1041.275,618.834,1040.909,617.774Z" transform="translate(-565.852 -398.368)" opacity="0.5" fill="url(#linear-gradient-40)"/>
          <path id="Trazado_992404" data-name="Trazado 992404" d="M1075.037,593.715s-7.007,26.2,11.272,45.877c0,0-11.873-6.093-14.563-20.2A43.377,43.377,0,0,1,1075.037,593.715Z" transform="translate(-633.358 -386.198)" opacity="0.5" fill="url(#linear-gradient-10)"/>
          <path id="Trazado_992405" data-name="Trazado 992405" d="M1301.667,551.346s.789,11.826,6.457,20.311,16.911,14.213,16.911,14.213-14.107-5.2-20.577-12.516S1301.667,551.346,1301.667,551.346Z" transform="translate(-985.538 -364.768)" opacity="0.5" fill="url(#linear-gradient-33)"/>
          <path id="Trazado_992406" data-name="Trazado 992406" d="M1230.924,515.343a74.771,74.771,0,0,1-3.182,19.965c-3.182,10.077-30.8,27.684-30.8,27.684s28.468-11.826,33.984-22.459S1230.924,515.343,1230.924,515.343Z" transform="translate(-842.637 -346.558)" opacity="0.5" fill="url(#linear-gradient-33)"/>
          <path id="Trazado_992407" data-name="Trazado 992407" d="M1280.826,610.618v16.1s-37.07-.3-78.636,2.454l-.949-14.5A724.644,724.644,0,0,1,1280.826,610.618Z" transform="translate(-892.214 -394.744)" fill="url(#linear-gradient-44)"/>
          <g id="Grupo_1158354" data-name="Grupo 1158354" transform="translate(313.477 219.147)">
            <path id="Trazado_992408" data-name="Trazado 992408" d="M1226.436,617.649q-.012-.411-.4-.4l-7.51.228a5.614,5.614,0,0,0-1.889.34,3.155,3.155,0,0,0-1.242.837,3.107,3.107,0,0,0-.663,1.272,5.719,5.719,0,0,0-.17,1.651l.063,2.063a5.713,5.713,0,0,0,.269,1.637,3.088,3.088,0,0,0,.739,1.231,3.181,3.181,0,0,0,1.291.76,5.654,5.654,0,0,0,1.906.224l4.043-.124.838-2.365.109,0,.071,2.338,2.834-.086Zm-2.624,7.086-4.8.146a1.555,1.555,0,0,1-1.166-.322,1.817,1.817,0,0,1-.382-1.255l-.051-1.678a1.78,1.78,0,0,1,.3-1.282,1.619,1.619,0,0,1,1.145-.372l4.595-.14a.2.2,0,0,1,.153.057.21.21,0,0,1,.059.143Z" transform="translate(-1158.174 -617.248)" fill="#ebefff"/>
            <path id="Trazado_992409" data-name="Trazado 992409" d="M1249.894,622.355l.1,0,.091,3a.169.169,0,0,1-.186.2l-8.445.257.079,2.6,11.073-.336a.358.358,0,0,0,.386-.424l-.279-9.189a.359.359,0,0,0-.412-.4l-10.755.327a.365.365,0,0,0-.4.424l.079,2.6,2.657.9.11,0-.041-1.334c0-.1.041-.153.133-.156l5.68-.172a.15.15,0,0,1,.146.057.271.271,0,0,1,.037.13l.038,1.251-4.676.142.062,2.037,3.921-.119Z" transform="translate(-1197.57 -617.657)" fill="#ebefff"/>
            <path id="Trazado_992410" data-name="Trazado 992410" d="M1269.329,622.616l.11,0-.033-1.1a.146.146,0,0,1,.159-.17l5.282-.161a.426.426,0,0,1,.524.466l.008.248a.5.5,0,0,1-.085.375.781.781,0,0,1-.369.135l-6.19,1.055a4.175,4.175,0,0,0-1,.285,1.908,1.908,0,0,0-.66.474,1.607,1.607,0,0,0-.35.706,3.76,3.76,0,0,0-.081.979l.024.8a3.565,3.565,0,0,0,.185,1.089,1.842,1.842,0,0,0,.52.783,2.183,2.183,0,0,0,.923.46,5.038,5.038,0,0,0,1.394.123l8.913-.271-.079-2.6-7.99.243a.64.64,0,0,1-.479-.117.693.693,0,0,1-.13-.457l-.008-.274a.564.564,0,0,1,.077-.368.542.542,0,0,1,.346-.142l5.974-.938a4.769,4.769,0,0,0,1.031-.279,1.979,1.979,0,0,0,.7-.462,1.6,1.6,0,0,0,.378-.686,3.234,3.234,0,0,0,.094-.953l-.021-.7a2.325,2.325,0,0,0-.628-1.667,2.6,2.6,0,0,0-1.945-.54l-8.9.27a.383.383,0,0,0-.413.453l.062,2.064Z" transform="translate(-1235.775 -618.105)" fill="#ebefff"/>
            <path id="Trazado_992411" data-name="Trazado 992411" d="M1296.128,629.618l-.3-10.012-2.834.086.3,10.013Z" transform="translate(-1266.334 -618.441)" fill="#ebefff"/>
            <path id="Trazado_992412" data-name="Trazado 992412" d="M1304.21,625.976c0-.147,0-.3.008-.462s.02-.3.035-.421l0-.124-2.806.085.149,4.91c.008.257.127.381.355.375l7.537-.228a5.659,5.659,0,0,0,1.89-.34,3.155,3.155,0,0,0,1.241-.837,3.1,3.1,0,0,0,.663-1.273,5.722,5.722,0,0,0,.17-1.65l-.062-2.064a5.729,5.729,0,0,0-.27-1.637,3.105,3.105,0,0,0-.739-1.23,3.165,3.165,0,0,0-1.29-.759,5.632,5.632,0,0,0-1.907-.224l-7.495.227a.359.359,0,0,0-.387.424l.066,2.16,2.657.884.11,0-.03-.963c0-.092.036-.139.119-.141l4.786-.145a2.727,2.727,0,0,1,.7.055.982.982,0,0,1,.47.247,1.1,1.1,0,0,1,.275.487,3.038,3.038,0,0,1,.107.761l.052,1.761a1.819,1.819,0,0,1-.3,1.276,1.558,1.558,0,0,1-1.146.392l-4.745.144c-.1,0-.152-.05-.155-.161Z" transform="translate(-1287.765 -618.688)" fill="#ebefff"/>
            <path id="Trazado_992413" data-name="Trazado 992413" d="M1335.495,620.813a.785.785,0,0,0-.445.11.908.908,0,0,0-.231.309l-3.578,7.309a.291.291,0,0,1-.256.173l-.151.005a.2.2,0,0,1-.227-.215l-.228-7.537-2.571.078.292,9.615q.011.4.4.386l4.073-.124a.878.878,0,0,0,.428-.1.756.756,0,0,0,.26-.325l3.715-7.3a.274.274,0,0,1,.256-.173l.138,0a.194.194,0,0,1,.226.213l.229,7.524,2.573-.079-.292-9.6c-.009-.274-.14-.408-.4-.4Z" transform="translate(-1327.807 -618.986)" fill="#ebefff"/>
          </g>
          <path id="Trazado_992414" data-name="Trazado 992414" d="M1215.129,504.347c.873,10.412,4.042,17.667,7.423,22.56,4.657,6.718,9.7,9.013,9.7,9.013a58.162,58.162,0,0,0,13.166-7.938,67.137,67.137,0,0,0,21.507-31.908c-6.74,16.279-16.637,26.143-24.139,31.7a48.439,48.439,0,0,1-10.535,6.18v-5.206a34.562,34.562,0,0,0,3.471-1.523c13.211-6.662,20.153-20.545,23.4-29.524.011-.022.011-.034.022-.056a63.762,63.762,0,0,0,2.441-8.274h-2.4l.784,1.679.034.056q-.571,2.553-1.31,4.893a.4.4,0,0,1-.045.123c-7.389,23.31-26.4,30.822-26.4,30.822-13.212-9.751-12.954-25.236-12.954-25.236v-2.127l-2.474.739Z" transform="translate(-885.173 -333.419)" opacity="0.5" fill="url(#linear-gradient-14)"/>
          <path id="Trazado_992415" data-name="Trazado 992415" d="M1482.778,634.17s3.592,11.73.2,29.973c0,0-1.7-23.123-2.97-25.138s-4.839-1.06-4.839-1.06A82.919,82.919,0,0,1,1482.778,634.17Z" transform="translate(-1231.197 -406.661)" opacity="0.3" fill="url(#linear-gradient-38)"/>
          <path id="Trazado_992416" data-name="Trazado 992416" d="M1377.787,670.343c3.135-2.743,6.9-7.322,10.647-14.823,7.5-14.991,9.651-25,10-26.747l-1.78-2.743-2.385-23.064-2.228-1.332a94.348,94.348,0,0,1-14.006-22.056,6.288,6.288,0,0,0-.3.963v.011c-1.22,4.792-3.728,22.739-6.057,29.143a14.664,14.664,0,0,1-5.441,7.345s13.782,20.444,14.454,35.032C1381.281,665.35,1378.321,669.672,1377.787,670.343Z" transform="translate(-1091.36 -379.048)" opacity="0.5" fill="url(#linear-gradient-10)"/>
          <path id="Trazado_992417" data-name="Trazado 992417" d="M1160.283,822.88s24.844-4.075,34.987-10.614a.011.011,0,0,0,.011-.011,7.543,7.543,0,0,1-.123-1.657c.213-5.6,5.049-10.557,5.721-13.737-.112.3-.84,1.982-4.366,5a74.936,74.936,0,0,1-10.658,7.367c-.134.079-.269.157-.392.224-7.165,4.232-13.334,7.1-17.79,9.2a.559.559,0,0,0-.078.034c-4.008,1.881-6.606,3.124-7.3,4.176A.011.011,0,0,0,1160.283,822.88Z" transform="translate(-792.027 -488.95)" opacity="0.5" fill="url(#linear-gradient-12)"/>
          <path id="Trazado_992418" data-name="Trazado 992418" d="M1257.289,809.479c.134.963,2.329,3.079,2.956,5.385,0,0,9.114,9.651,42.847,6.684-.224-.952-7.311.426-23.747-2.866C1263.412,815.492,1257.635,809.826,1257.289,809.479Z" transform="translate(-942.178 -495.333)" opacity="0.5" fill="url(#linear-gradient-10)"/>
          <path id="Trazado_992419" data-name="Trazado 992419" d="M1153.916,496.671l21.563,6.986,6.314,2.934.034.011,4.109.011,5.553.011,3.471.28,1.836.134,5.229.414,2.631.212,25.863-9.36,4.624-1.668,21.272-7.7c-.627-.246-1.265-.493-1.937-.762-14.275-5.654-28.281-12.517-28.281-12.517l-5.374-6.605h-2.4a79.726,79.726,0,0,1-4.478-12.506l-1.422-6.393c-.1-.616-.146-.952-.146-.952l-7.613,4.019L1179.1,473.753c.022,1.4-.022,2.653-.1,3.717l-.37,2.586c-.067-.5-.09-.795-.09-.795l-2.474.739-1.691,4.031s-2.866,4.456-14.219,9.45A67,67,0,0,0,1153.916,496.671Z" transform="translate(-844.415 -313.102)" fill="#7a4ac0" opacity="0.5"/>
          <g id="Grupo_1158355" data-name="Grupo 1158355" transform="translate(305.286 60.625)">
            <path id="Trazado_992420" data-name="Trazado 992420" d="M1259.625,417.465a35.122,35.122,0,0,0,21.149-3.112c11.1-5.374,20.421-21.216,20.993-25.168s-4.243-14.286-4.243-22.347,3.952-21.922-2.687-29.423-37.193-8.621-47.1,1c0,0-3.068,7.7-3.068,12.058a31.686,31.686,0,0,0,.47,4.378c.089.661.213,1.366.325,2.093.885,5.273,2.1,11.711,1.534,14.532a14.142,14.142,0,0,1-.885,2.754v.011c-1.22,2.821-3.034,5.072-3.359,7.512C1242.328,384.94,1246.608,407.568,1259.625,417.465Z" transform="translate(-1238.988 -314.193)" fill="url(#linear-gradient-50)"/>
            <path id="Trazado_992421" data-name="Trazado 992421" d="M1222.816,391.247s2.744-6.883,9.638-6.988c0,0,4.031,1.591,4.667,4.667,0,0-1.485,11.137-3.182,16.334s-7.921,4.446-7.921,4.446A26.382,26.382,0,0,1,1222.816,391.247Z" transform="translate(-1164.194 -340.88)" fill="url(#linear-gradient-51)"/>
            <path id="Trazado_992422" data-name="Trazado 992422" d="M1327.924,443.38s-2.3-.179-3.286.563-4.6,4.243-9.157,5.2-7.62-2.929-8.592-3.128-2.04,1.175-2.04,1.175a3.828,3.828,0,0,1,2.794-2.309s.962,3.658,7.572,2.406,9.422-4.19,9.422-4.19l.336-.6A17.6,17.6,0,0,1,1327.924,443.38Z" transform="translate(-1295.802 -370.335)" fill="url(#linear-gradient-52)"/>
            <path id="Trazado_992423" data-name="Trazado 992423" d="M1290.448,354.271l-.089-.707s-6.594-11.572-19.641-11.89-15.993,7.857-15.993,7.857l-2.416-3.668,5.505-11.189,38.331-.637,9.334,7.531L1306.658,360l-4.149,24.338-10.1,5.381-2.851-2.528c1.053-8.149,7.114-15.6,7.114-15.6l-4.42-3.068s-11.349,5.493-17.908,3.85c0,0-4.932-14.4-4.65-25.061C1269.7,347.319,1286.509,349.806,1290.448,354.271Z" transform="translate(-1248.57 -315.478)" opacity="0.6" fill="url(#linear-gradient-20)"/>
            <path id="Trazado_992424" data-name="Trazado 992424" d="M1305.806,367.231s-.635-4.169-7.673-5.836c-7.836-1.857-14.2-3.428-14.2-3.428s1.388,4.571,4,6.285c0,0,8.292-.3,12.489.653S1305.806,367.231,1305.806,367.231Z" transform="translate(-1263.345 -327.581)" fill="#38368e"/>
            <path id="Trazado_992425" data-name="Trazado 992425" d="M1344.379,365.389s3.979,3.067,6.684,10.386c0,0-2.6-3.394-4.985-3.341a1.363,1.363,0,0,0-1.373,1.652A15.3,15.3,0,0,1,1344.379,365.389Z" transform="translate(-1338.227 -331.335)" fill="#38368e"/>
            <path id="Trazado_992426" data-name="Trazado 992426" d="M1301.66,389.28s-.424-8.8-9.016-11.031a18.006,18.006,0,0,0-3.394,8.485S1293.812,385.886,1301.66,389.28Z" transform="translate(-1261.828 -337.84)" fill="url(#linear-gradient-54)"/>
            <path id="Trazado_992427" data-name="Trazado 992427" d="M1346.24,397.828s-.695-7.008-4.72-9.6c0,0-2.743,2.056-2.459,7.922C1339.059,396.152,1341.466,395.283,1346.24,397.828Z" transform="translate(-1331.014 -342.888)" fill="url(#linear-gradient-55)"/>
            <path id="Trazado_992428" data-name="Trazado 992428" d="M1301.211,397.848s-2.793,3.43-10.607,4.1c0,0-1.488-2.266-1.345-6.7C1289.262,395.248,1296.437,394.56,1301.211,397.848Z" transform="translate(-1261.379 -346.408)" fill="#ffebed"/>
            <path id="Trazado_992429" data-name="Trazado 992429" d="M1346.063,405.8v1.025s-1.2,2.51-5.515,2.935a12.024,12.024,0,0,1-1.507-5.679S1341.783,403.4,1346.063,405.8Z" transform="translate(-1330.837 -350.861)" fill="#ffebed"/>
            <path id="Trazado_992430" data-name="Trazado 992430" d="M1306.128,394.838a9.682,9.682,0,0,1,1.8,6.211,29.61,29.61,0,0,1-4.057.673,10.546,10.546,0,0,1-1.345-6.7A10.806,10.806,0,0,1,1306.128,394.838Z" transform="translate(-1274.648 -346.18)" fill="#7f9ec9"/>
            <path id="Trazado_992431" data-name="Trazado 992431" d="M1347.557,404.138s1.124,1.2,1.336,4.887a8.463,8.463,0,0,1-2.758.672,10.233,10.233,0,0,1-1.507-5.679A4.939,4.939,0,0,1,1347.557,404.138Z" transform="translate(-1336.428 -350.796)" fill="#7f9ec9"/>
            <path id="Trazado_992432" data-name="Trazado 992432" d="M1309.052,401.312s.709-4.757-2.013-6.576l-2.229.283a9.585,9.585,0,0,0,1.345,6.7S1308.37,401.469,1309.052,401.312Z" transform="translate(-1276.929 -346.179)" fill="#38368e"/>
            <path id="Trazado_992433" data-name="Trazado 992433" d="M1348.272,403.912a20.4,20.4,0,0,1,1.479,5.408,6.158,6.158,0,0,1-1.915.361,9.288,9.288,0,0,1-1.507-5.679A4.586,4.586,0,0,1,1348.272,403.912Z" transform="translate(-1338.127 -350.781)" fill="#38368e"/>
            <path id="Trazado_992434" data-name="Trazado 992434" d="M1303.3,397.53s-5.2-3.023-14.054-1.3l1.644-1.246A14.813,14.813,0,0,1,1303.3,397.53Z" transform="translate(-1263.472 -346.09)" fill="#131163"/>
            <path id="Trazado_992435" data-name="Trazado 992435" d="M1348.067,405.038A14.034,14.034,0,0,0,1339.04,404l2-1.483S1344.3,402.015,1348.067,405.038Z" transform="translate(-1332.842 -350.098)" fill="#131163"/>
            <path id="Trazado_992436" data-name="Trazado 992436" d="M1303.317,400.536a3.075,3.075,0,0,0-2.687.976A2.447,2.447,0,0,0,1303.317,400.536Z" transform="translate(-1269.109 -349.096)" fill="#fff"/>
            <path id="Trazado_992437" data-name="Trazado 992437" d="M1345.892,408.776s-2.217-.431-2.982.58C1342.912,409.356,1344.1,410.171,1345.892,408.776Z" transform="translate(-1332.579 -353.234)" fill="#fff"/>
            <path id="Trazado_992438" data-name="Trazado 992438" d="M1300.985,401.611a20.368,20.368,0,0,1-10.508,4.948l-.167-2.356.59.995S1297.12,404.83,1300.985,401.611Z" transform="translate(-1261.677 -349.657)" fill="#c6659c"/>
            <path id="Trazado_992439" data-name="Trazado 992439" d="M1345.021,409.728s-.719,2.581-5.981,3.747l.17-1.264.3.45S1343.242,412.185,1345.021,409.728Z" transform="translate(-1329.795 -353.762)" fill="#c6659c"/>
            <path id="Trazado_992440" data-name="Trazado 992440" d="M1333.134,430.425a18.732,18.732,0,0,0-5.569,0c-3.606.424-7.661,1.414-9.876,0,0,0,2.943,2.946,5.492,3.394s6.435-1.791,6.435-1.791l1.7.03A4.585,4.585,0,0,0,1333.134,430.425Z" transform="translate(-1307.357 -364.135)" fill="#cb5f7d"/>
            <path id="Trazado_992441" data-name="Trazado 992441" d="M1324.994,433.453a2.7,2.7,0,0,0-1.626-.426c-.743.141-1.5,1.223-1.5,1.223A7.391,7.391,0,0,1,1324.994,433.453Z" transform="translate(-1301.282 -365.535)" fill="#9f4a8b"/>
            <path id="Trazado_992442" data-name="Trazado 992442" d="M1327.215,420.446c-.942-.919,3.937-9.61,6.27-9.931s4.525,9.743,4.525,9.743-3.246.455-6.393.877S1327.215,420.446,1327.215,420.446Z" transform="translate(-1316.882 -354.156)" fill="#ffbcaf"/>
            <path id="Trazado_992443" data-name="Trazado 992443" d="M1339.6,375.25c1.321-.168,5.99,5.508,5.99,5.508s2.967,9.192,2.384,11.913-7.792,4.176-7.792,4.176l-.3-.481v-.011a14.133,14.133,0,0,0,.885-2.754c.571-2.821-.649-9.259-1.534-14.532a10.829,10.829,0,0,1-.325-2.093C1338.875,376.123,1339,375.317,1339.6,375.25Z" transform="translate(-1332.757 -336.321)" opacity="0.6" fill="url(#linear-gradient-56)"/>
            <path id="Trazado_992444" data-name="Trazado 992444" d="M1246.915,372.738c1.489-3.112.571-4.736,13.5-6.427,18.306-2.407,19.873,3.18,22.985,2.329a3.03,3.03,0,0,0,.37-.134c3.37-1.31,11.308-9.113,11.509-19.627.213-10.927-7.109-18.675-7.109-18.675,2.653-2.228,3.717-8.688.851-11.453s-7.748-2.116-19.727-.851-11.991.537-11.991.537c-3.807.974-5.99,4.546-6.605,5.688-.123.224-.179.358-.179.358l-1.489-1.377a19.5,19.5,0,0,0-3.292,12.192s-6.572-13.368-5.822-15.26c1.366-3.493,5.161-8.587,5.4-8.912l.011-.011s1.064-10.177,4.243-10.177,16.76,3.067,16.76,3.067a19.288,19.288,0,0,1-1.277-7.524l.056.056c4.434,3.974,8.767,4.411,14.9,7.255a15.517,15.517,0,0,1,5.744,4.165l.414.493.437.526c.425.537.862,1.086,1.388,1.646a.358.358,0,0,0,.067.067l.034.034a17.617,17.617,0,0,0,1.78,1.668c4.031,3.28,12.9,5.475,13.961,8.945s-1.344,8.2-2.62,13.077a26.577,26.577,0,0,0-.683,9.192,18.053,18.053,0,0,0-2.821,13.4c1.243,7.132,3.964,8.3,3.964,8.3a12.212,12.212,0,0,1,1.008,7.6c-3.918,15.585-20.13,24.866-20.13,24.866-14.42,5.374-23.9,3.034-23.9,3.034l-.011-.011c-10.491-6.841-14.085-29.479-14.241-30.531C1244.577,370.544,1246.524,373.567,1246.915,372.738Zm6.474,14.432c2.542-.425,3.079-6.863,3.919-7.714s5.452-.493,5.452-.493,4.243,4.814,5.934,4.948,10.748-3.538,8.789-9.046-8.789-6.225-8.789-6.225a16.572,16.572,0,0,1-8.834,3.314c-5.307.347-7.221-.627-7.849-.907s-4.053,1.265-3.963,6.08C1248.1,380.475,1250.834,387.6,1253.389,387.17Z" transform="translate(-1239.858 -296.482)" fill="url(#linear-gradient-57)"/>
            <path id="Trazado_992445" data-name="Trazado 992445" d="M1341.992,414.433s-4.571,5.676-4.135,7.81c.477,2.337,5.772,3.583,5.772,3.583s-4.245-1.464-5.114-3.583A28.138,28.138,0,0,1,1341.992,414.433Z" transform="translate(-1327.804 -356.142)" fill="#d2726c"/>
            <path id="Trazado_992446" data-name="Trazado 992446" d="M1357.161,350.277a19.5,19.5,0,0,1,3.292-12.192,32.577,32.577,0,0,1-3.706-11.991l-.011.011a41.111,41.111,0,0,0-1.724,7.949l-3.672.963C1350.588,336.909,1357.161,350.277,1357.161,350.277Z" transform="translate(-1351.275 -311.46)" opacity="0.6" fill="url(#linear-gradient-58)"/>
            <path id="Trazado_992447" data-name="Trazado 992447" d="M1239.857,324.127c.616-1.142,2.8-4.714,6.606-5.688,0,0,0,.739,11.991-.537s16.861-1.9,19.727.851,1.8,9.226-.851,11.453c0,0,7.322,7.748,7.109,18.675-.2,10.513-8.139,18.316-11.509,19.627l.157,1.164s-.594,24.071-6.449,25.986-17.981.918-19.111,2.049c-1.075,1.075.157,2.922.269,3.09l.011.011s9.483,2.34,23.9-3.034c0,0,16.212-9.282,20.13-24.866a12.214,12.214,0,0,0-1.008-7.6s-2.721-1.164-3.963-8.3a18.053,18.053,0,0,1,2.821-13.4,26.571,26.571,0,0,1,.683-9.192c1.277-4.881,3.683-9.617,2.62-13.077a15.267,15.267,0,0,1-11.24-2.474s-1.187-1.646-6.437-2.5-26.355,1.277-26.355,1.277a18.13,18.13,0,0,1,6.572-2.922c4.21-1.108,18.585.179,20.13.3-1.646-.291-17.947-3.09-19.806-2.53-1.97.582-9.024,3.818-9.024,3.818.638-3.236,6.953-11.028,6.953-11.028a99.028,99.028,0,0,1,14.745,1.377,19.07,19.07,0,0,1,8.621,3.963l-1.388-1.646-.437-.526-.414-.493-2.037-.347-10.233-4.132c-3.437-1.836-7.837-6.382-8.375-6.941l-.056-.056a19.288,19.288,0,0,0,1.277,7.524c-8.644-1.064-11.565-.526-11.565-.526C1239.99,309.046,1239.857,324.127,1239.857,324.127Z" transform="translate(-1229.014 -296.484)" opacity="0.6" fill="url(#linear-gradient-59)"/>
            <path id="Trazado_992448" data-name="Trazado 992448" d="M1307.823,500.431a53.9,53.9,0,0,0-13.295-.935c-8,.322-12.592.355-10.609,3.969C1283.924,503.465,1293.966,505.733,1307.823,500.431Z" transform="translate(-1265.13 -399.141)" opacity="0.5" fill="url(#linear-gradient-60)"/>
            <path id="Trazado_992449" data-name="Trazado 992449" d="M1323.067,307.757s-4.862-1.9-6.78-1.584a3.754,3.754,0,0,1,1.556-1.226c.8-.212,16.79,3.337,16.79,3.337S1324.663,307.121,1323.067,307.757Z" transform="translate(-1308.162 -300.759)" fill="url(#linear-gradient-61)"/>
            <path id="Trazado_992450" data-name="Trazado 992450" d="M1263.7,314.134s.381,5.293,2.071,7.21l19.806,2.53,5.814-1.025a14.606,14.606,0,0,1-4.721-3.845C1284.2,316.119,1271.285,313.285,1263.7,314.134Z" transform="translate(-1238.93 -305.333)" fill="url(#linear-gradient-62)"/>
            <path id="Trazado_992451" data-name="Trazado 992451" d="M1364.188,326.093a44.581,44.581,0,0,0-1.735,7.961l-3.672.963S1359.893,331.077,1364.188,326.093Z" transform="translate(-1358.717 -311.459)" fill="url(#linear-gradient-62)"/>
            <path id="Trazado_992452" data-name="Trazado 992452" d="M1225.077,404.625s1.392-6.681,4.806-9.988a8.025,8.025,0,0,1,7.3-2.245s-1.06,12.392-2.174,15.415-2.811,3.818-2.811,3.818a9.539,9.539,0,0,0,2.7-6.189c.318-4.1.425-9.88-.477-10.569s-4.546,2-4.546,2,1.151,1.41,1.84,5.062-1.856,6.3-2.811,6.251.053-4.225-.106-5.427S1226.525,401.814,1225.077,404.625Z" transform="translate(-1165.641 -344.912)" opacity="0.8" fill="url(#linear-gradient-64)"/>
            <path id="Trazado_992453" data-name="Trazado 992453" d="M1238.373,400.5a8.348,8.348,0,0,1,3.325,7.473c-.4,5.024-3.273,4.8-3.282,3.749s.547-3.769.255-5.3-2.769-.841-2.769-.841A36.955,36.955,0,0,1,1238.373,400.5Z" transform="translate(-1175.531 -349.097)" opacity="0.8" fill="url(#linear-gradient-65)"/>
            <path id="Trazado_992454" data-name="Trazado 992454" d="M1331.82,445.779s4.632,21.13,14.253,30.542C1346.073,476.321,1335.1,472.009,1331.82,445.779Z" transform="translate(-1327.278 -371.997)" fill="#34c7ff"/>
            <path id="Trazado_992455" data-name="Trazado 992455" d="M1354.823,304.955s-2.443,1.9-2.908,8.5,2.4,13.934,2.4,13.934-3.673-5.484-4.026-11.495S1352.89,305.715,1354.823,304.955Z" transform="translate(-1345.141 -300.768)" fill="#34c7ff"/>
          </g>
          <path id="Trazado_992456" data-name="Trazado 992456" d="M1309.7,332.6a57.162,57.162,0,0,1-11.855,2.475c-6.2.547-7.477.671-7.477.671s2.492-2.418,7.8-3.147A53.757,53.757,0,0,1,1309.7,332.6Z" transform="translate(-965.137 -253.964)" fill="url(#linear-gradient-66)"/>
          <path id="Trazado_992457" data-name="Trazado 992457" d="M1351.352,444.216s-2.7,0-3.77,3.394a28.208,28.208,0,0,0-1.083,5.038l-.958-3.721s1.25-4.712,2.549-5.772c.936-.764,2.547-1.539,3.315-1.353Z" transform="translate(-1034.107 -309.347)" fill="url(#linear-gradient-67)"/>
          <path id="Trazado_992458" data-name="Trazado 992458" d="M1337.224,439.839l-.457,4.031a14.387,14.387,0,0,1-5.477-.637l-.39-2.439A30.52,30.52,0,0,1,1337.224,439.839Z" transform="translate(-1012.689 -308.364)" fill="url(#linear-gradient-68)"/>
          <path id="Trazado_992459" data-name="Trazado 992459" d="M1390.012,545.256s-19.286,14.087-21.79,18.932-3.516,20.044-6.9,26.619c0,0,2.313-10.757,3.937-19.192s1.234-8.554,2.136-10.623S1382.7,548.93,1390.012,545.256Z" transform="translate(-1080.51 -361.688)" fill="#34c7ff"/>
          <path id="Trazado_992460" data-name="Trazado 992460" d="M1338.544,703.937s9.3,39.793,8.874,42.482-6.44,8.172-6.721,9.676c0,0,4.6,6.161,4.387,7.523s-8.06,9.992-7.849,12.658c.061.775,5.153,9.174,5.153,9.174s-5.754-8.256-6.036-9.573,7.049-12.344,7.264-13.465c.557-2.9-3.658-5.034-3.8-6.943s5.7-6.574,5.751-9.686S1338.544,703.937,1338.544,703.937Z" transform="translate(-1025.588 -441.949)" fill="#34c7ff"/>
          <path id="Trazado_992461" data-name="Trazado 992461" d="M1385.1,895.884s-20.1,45.495-26.951,90.99C1358.152,986.874,1359.293,942.475,1385.1,895.884Z" transform="translate(-1074.033 -539.037)" fill="#34c7ff"/>
          <path id="Trazado_992462" data-name="Trazado 992462" d="M1083.207,509.627s5.2-1.111,7.357-5.647.749-11.1.749-11.1-4.071,7.809-6.1,10.476S1082.638,509.061,1083.207,509.627Z" transform="translate(-644.715 -335.195)" fill="#ffbcaf"/>
        </g>
        <g id="Grupo_1158361" data-name="Grupo 1158361" transform="translate(-33.051 86.163)" clip-path="url(#clip-path-4)">
          <path id="Trazado_992463" data-name="Trazado 992463" d="M1623.237,469.523,1619.632,572.3a7.573,7.573,0,0,1-7.568,7.308H1435.021a7.573,7.573,0,0,1-7.571-7.393l-2.478-103.975a7.573,7.573,0,0,1,7.621-7.753l183.126,1.2A7.57,7.57,0,0,1,1623.237,469.523Z" transform="translate(-1345.196 -318.809)" fill="#36d1f7" opacity="0.6"/>
          <g id="Grupo_1158357" data-name="Grupo 1158357" transform="translate(79.495 141.394)">
            <path id="Trazado_992464" data-name="Trazado 992464" d="M1434.732,579.6h177.043a7.825,7.825,0,0,0,7.848-7.578l3.6-102.774a7.853,7.853,0,0,0-7.8-8.128l-183.126-1.2a7.909,7.909,0,0,0-5.653,2.348,7.787,7.787,0,0,0-2.25,5.692l2.477,103.975A7.808,7.808,0,0,0,1434.732,579.6Zm-2.481-119.122h.049l183.126,1.2a7.292,7.292,0,0,1,7.24,7.548L1619.063,572a7.266,7.266,0,0,1-7.288,7.038H1434.731a7.338,7.338,0,0,1-7.291-7.12l-2.477-103.975a7.294,7.294,0,0,1,7.289-7.467Z" transform="translate(-1424.401 -459.916)" fill="#744ca2"/>
          </g>
          <path id="Trazado_992465" data-name="Trazado 992465" d="M1623.411,474.828H1425.62l-.318-5.419a8.3,8.3,0,0,1,8.351-8.785l183.055,1.447a6.867,6.867,0,0,1,6.811,7Z" transform="translate(-1345.632 -318.88)" opacity="0.6" fill="url(#linear-gradient-69)"/>
          <path id="Trazado_992466" data-name="Trazado 992466" d="M1506.174,505.826V565.3H1445.63V505.514Z" transform="translate(-1238.338 -341.586)" opacity="0.3" fill="url(#linear-gradient-70)"/>
          <rect id="Rectángulo_409700" data-name="Rectángulo 409700" width="26.336" height="26.336" transform="translate(122.448 168.231)" opacity="0.3" fill="url(#linear-gradient-71)"/>
          <rect id="Rectángulo_409701" data-name="Rectángulo 409701" width="26.336" height="26.336" transform="translate(91.373 168.231)" opacity="0.3" fill="url(#linear-gradient-72)"/>
          <rect id="Rectángulo_409702" data-name="Rectángulo 409702" width="26.336" height="26.336" transform="translate(154.037 168.231)" opacity="0.3" fill="url(#linear-gradient-72)"/>
          <rect id="Rectángulo_409703" data-name="Rectángulo 409703" width="67.348" height="6.309" transform="translate(91.375 209.922)" fill="#d1d4fb"/>
          <rect id="Rectángulo_409704" data-name="Rectángulo 409704" width="84.191" height="1.953" transform="translate(91.373 219.522)" fill="#d1d4fb"/>
          <rect id="Rectángulo_409705" data-name="Rectángulo 409705" width="16.106" height="1.953" transform="translate(158.667 197.925)" fill="#d1d4fb"/>
          <rect id="Rectángulo_409706" data-name="Rectángulo 409706" width="16.106" height="1.953" transform="translate(127.562 197.925)" fill="#d1d4fb"/>
          <rect id="Rectángulo_409707" data-name="Rectángulo 409707" width="16.106" height="1.953" transform="translate(96.487 197.925)" fill="#d1d4fb"/>
          <rect id="Rectángulo_409708" data-name="Rectángulo 409708" width="27.083" height="1.953" transform="translate(153.29 222.695)" fill="#d1d4fb"/>
          <rect id="Rectángulo_409709" data-name="Rectángulo 409709" width="84.191" height="1.953" transform="translate(91.373 225.831)" fill="#d1d4fb"/>
          <rect id="Rectángulo_409710" data-name="Rectángulo 409710" width="89" height="1.953" transform="translate(91.373 228.966)" fill="#d1d4fb"/>
          <rect id="Rectángulo_409711" data-name="Rectángulo 409711" width="89" height="1.953" transform="translate(91.373 232.102)" fill="#d1d4fb"/>
          <rect id="Rectángulo_409712" data-name="Rectángulo 409712" width="84.191" height="1.953" transform="translate(91.373 244.78)" fill="#d1d4fb"/>
          <rect id="Rectángulo_409713" data-name="Rectángulo 409713" width="89" height="1.953" transform="translate(91.373 247.916)" fill="#d1d4fb"/>
          <rect id="Rectángulo_409714" data-name="Rectángulo 409714" width="89" height="1.953" transform="translate(91.373 251.052)" fill="#d1d4fb"/>
          <rect id="Rectángulo_409715" data-name="Rectángulo 409715" width="85.419" height="1.953" transform="translate(94.953 235.238)" fill="#d1d4fb"/>
          <rect id="Rectángulo_409716" data-name="Rectángulo 409716" width="84.191" height="1.953" transform="translate(91.373 238.374)" fill="#d1d4fb"/>
          <rect id="Rectángulo_409717" data-name="Rectángulo 409717" width="72.108" height="1.953" transform="translate(108.265 241.51)" fill="#d1d4fb"/>
          <g id="Grupo_1158358" data-name="Grupo 1158358" transform="translate(233.648 177.343)">
            <path id="Trazado_992467" data-name="Trazado 992467" d="M1462.33,567.106a17.224,17.224,0,1,0-17.222-17.223A17.243,17.243,0,0,0,1462.33,567.106Zm0-33.327a16.1,16.1,0,1,1-16.1,16.1A16.122,16.122,0,0,1,1462.33,533.779Z" transform="translate(-1445.108 -532.659)" fill="#e0ffff"/>
          </g>
          <ellipse id="Elipse_11962" data-name="Elipse 11962" cx="9.36" cy="9.36" rx="9.36" ry="9.36" transform="translate(241.515 185.207)" fill="#fff"/>
          <g id="Grupo_1158359" data-name="Grupo 1158359" transform="translate(190.069 146.704)">
            <path id="Trazado_992468" data-name="Trazado 992468" d="M1550.512,505.108a17.223,17.223,0,1,0-17.223-17.223A17.243,17.243,0,0,0,1550.512,505.108Zm0-33.327a16.1,16.1,0,1,1-16.1,16.1A16.122,16.122,0,0,1,1550.512,471.781Z" transform="translate(-1533.289 -470.661)" fill="#e0ffff"/>
          </g>
          <ellipse id="Elipse_11963" data-name="Elipse 11963" cx="8.807" cy="8.807" rx="8.807" ry="8.807" transform="translate(200.005 174.021) rotate(-98.94)" fill="#fff"/>
          <g id="Grupo_1158360" data-name="Grupo 1158360" transform="translate(262.612 145.969)">
            <path id="Trazado_992469" data-name="Trazado 992469" d="M1447.6,471.082l-1.26-1.908-6.805,5.965,1.043,1.454Z" transform="translate(-1439.357 -469.174)" fill="#fff"/>
            <path id="Trazado_992470" data-name="Trazado 992470" d="M1439.89,471.082l1.255-1.908,6.805,5.965-1.043,1.454Z" transform="translate(-1439.89 -469.174)" fill="#fff"/>
          </g>
          <rect id="Rectángulo_409718" data-name="Rectángulo 409718" width="60.953" height="3.056" transform="translate(84.772 147.264)" fill="#fff"/>
        </g>
        <g id="Grupo_1158362" data-name="Grupo 1158362" transform="translate(-33.051 86.163)" clip-path="url(#clip-path-4)">
          <path id="Trazado_992471" data-name="Trazado 992471" d="M1075.738,381.642v26.449l-31.633.27-.425-27.567Z" transform="translate(-609.26 -278.502)" fill="url(#linear-gradient-74)"/>
          <path id="Trazado_992472" data-name="Trazado 992472" d="M1109.756,380.794l-2.066,3.475,1.033,24.066,1.458.025Z" transform="translate(-675.336 -278.502)" fill="url(#linear-gradient-75)"/>
          <path id="Trazado_992473" data-name="Trazado 992473" d="M1073.825,396.234l-2.921-4.241-15.794,13.259,2.422,3.232Z" transform="translate(-612.996 -284.167)" fill="#fff"/>
          <path id="Trazado_992474" data-name="Trazado 992474" d="M1055.93,396.234l2.926-4.241,15.795,13.259-2.422,3.232Z" transform="translate(-614.226 -284.167)" fill="#fff"/>
        </g>
        <g id="Grupo_1158365" data-name="Grupo 1158365" transform="translate(-33.051 86.163)" clip-path="url(#clip-path-4)">
          <path id="Trazado_992475" data-name="Trazado 992475" d="M963.241,903.427h108.254a8.865,8.865,0,0,0,8.863-8.664l2.021-88.79a8.866,8.866,0,0,0-8.863-9.068H960.807a8.866,8.866,0,0,0-8.862,9.109l2.435,88.79A8.87,8.87,0,0,0,963.241,903.427Z" transform="translate(-570.566 -488.973)" opacity="0.81" fill="url(#linear-gradient-76)"/>
          <g id="Grupo_1158363" data-name="Grupo 1158363" transform="translate(381.095 307.649)">
            <path id="Trazado_992476" data-name="Trazado 992476" d="M962.953,903.413h108.254a9.2,9.2,0,0,0,9.143-8.937l2.021-88.79a9.145,9.145,0,0,0-9.143-9.355H960.52a9.147,9.147,0,0,0-9.143,9.4l2.435,88.791A9.1,9.1,0,0,0,962.953,903.413Zm110.275-106.522a8.586,8.586,0,0,1,8.583,8.782l-2.021,88.79a8.635,8.635,0,0,1-8.583,8.391H962.955a8.541,8.541,0,0,1-8.582-8.35l-2.435-88.791a8.587,8.587,0,0,1,8.583-8.821h112.708Z" transform="translate(-951.374 -796.331)" fill="#473da2"/>
          </g>
          <g id="Grupo_1158364" data-name="Grupo 1158364" transform="translate(425.702 326.091)">
            <rect id="Rectángulo_409721" data-name="Rectángulo 409721" width="56.931" height="2.437" fill="#fff"/>
            <rect id="Rectángulo_409722" data-name="Rectángulo 409722" width="28.466" height="2.437" transform="translate(28.465 5.929)" fill="#fff"/>
            <rect id="Rectángulo_409723" data-name="Rectángulo 409723" width="28.466" height="2.437" transform="translate(28.465 10.879)" fill="#fff"/>
            <rect id="Rectángulo_409724" data-name="Rectángulo 409724" width="22.648" height="2.437" transform="translate(2.625 10.879)" fill="#fff"/>
            <rect id="Rectángulo_409725" data-name="Rectángulo 409725" width="45.892" height="2.437" transform="translate(11.039 15.829)" fill="#fff"/>
            <rect id="Rectángulo_409726" data-name="Rectángulo 409726" width="16.334" height="2.437" transform="translate(40.597 20.778)" fill="#fff"/>
            <rect id="Rectángulo_409727" data-name="Rectángulo 409727" width="28.249" height="2.437" transform="translate(8.988 35.628)" fill="#fff"/>
            <rect id="Rectángulo_409728" data-name="Rectángulo 409728" width="51.195" height="2.437" transform="translate(5.736 25.728)" fill="#fff"/>
            <rect id="Rectángulo_409729" data-name="Rectángulo 409729" width="39.386" height="2.437" transform="translate(17.545 30.678)" fill="#fff"/>
            <rect id="Rectángulo_409730" data-name="Rectángulo 409730" width="18.526" height="2.437" transform="translate(38.404 35.628)" fill="#fff"/>
            <rect id="Rectángulo_409731" data-name="Rectángulo 409731" width="28.466" height="2.437" transform="translate(28.465 40.577)" fill="#fff"/>
            <rect id="Rectángulo_409732" data-name="Rectángulo 409732" width="8.167" height="2.437" transform="translate(48.764 45.527)" fill="#fff"/>
            <rect id="Rectángulo_409733" data-name="Rectángulo 409733" width="29.628" height="2.437" transform="translate(15.778 45.527)" fill="#fff"/>
            <rect id="Rectángulo_409734" data-name="Rectángulo 409734" width="28.249" height="2.437" transform="translate(8.988 50.331)" fill="#fff"/>
            <rect id="Rectángulo_409735" data-name="Rectángulo 409735" width="18.526" height="2.437" transform="translate(38.404 50.331)" fill="#fff"/>
            <rect id="Rectángulo_409736" data-name="Rectángulo 409736" width="28.466" height="2.437" transform="translate(28.465 55.28)" fill="#fff"/>
            <rect id="Rectángulo_409737" data-name="Rectángulo 409737" width="8.167" height="2.437" transform="translate(48.764 60.23)" fill="#fff"/>
            <rect id="Rectángulo_409738" data-name="Rectángulo 409738" width="29.628" height="2.437" transform="translate(15.778 60.23)" fill="#fff"/>
          </g>
        </g>
        <g id="Grupo_1158366" data-name="Grupo 1158366" transform="translate(-33.051 86.163)" clip-path="url(#clip-path-4)">
          <path id="Trazado_992477" data-name="Trazado 992477" d="M1760.542,415.261a5,5,0,1,0,5-5A5,5,0,0,0,1760.542,415.261Z" transform="translate(-1658.341 -293.405)" fill="url(#linear-gradient-77)"/>
        </g>
        <g id="Grupo_1158367" data-name="Grupo 1158367" transform="translate(-33.051 86.163)" clip-path="url(#clip-path-4)">
          <path id="Trazado_992478" data-name="Trazado 992478" d="M806.581,648.8a6.227,6.227,0,1,0,6.227-6.227A6.227,6.227,0,0,0,806.581,648.8Z" transform="translate(-682.566 -221.196)" fill="url(#linear-gradient-78)"/>
        </g>
        <g id="Grupo_1158368" data-name="Grupo 1158368" transform="translate(-33.051 86.163)" clip-path="url(#clip-path-13)">
          <ellipse id="Elipse_11964" data-name="Elipse 11964" cx="5.003" cy="5.003" rx="5.003" ry="5.003" transform="translate(87.506 116.853)" fill="url(#linear-gradient-79)"/>
        </g>
        <g id="Grupo_1158369" data-name="Grupo 1158369" transform="translate(-33.051 86.163)" clip-path="url(#clip-path-13)">
          <ellipse id="Elipse_11965" data-name="Elipse 11965" cx="3.537" cy="3.537" rx="3.537" ry="3.537" transform="translate(411.603 152.719)" fill="url(#linear-gradient-80)"/>
        </g>
        <g id="Grupo_1158370" data-name="Grupo 1158370" transform="translate(-33.051 86.163)" clip-path="url(#clip-path-4)">
          <ellipse id="Elipse_11966" data-name="Elipse 11966" cx="3.537" cy="3.537" rx="3.537" ry="3.537" transform="translate(174.636 308.833)" fill="url(#linear-gradient-81)"/>
        </g>
        <g id="Grupo_1158371" data-name="Grupo 1158371" transform="translate(-33.051 86.163)" clip-path="url(#clip-path-4)">
          <ellipse id="Elipse_11967" data-name="Elipse 11967" cx="3.163" cy="3.163" rx="3.163" ry="3.163" transform="translate(268.287 390.553)" fill="url(#linear-gradient-82)"/>
        </g>
        <g id="Grupo_1158376" data-name="Grupo 1158376" transform="translate(-33.051 86.163)" clip-path="url(#clip-path-4)">
          <path id="Trazado_992479" data-name="Trazado 992479" d="M871.641,760.951h54.635a8.154,8.154,0,0,0,8.15-7.879l1.213-35.935a8.154,8.154,0,0,0-8.15-8.43H870.542a8.154,8.154,0,0,0-8.15,8.4l1.1,35.935A8.155,8.155,0,0,0,871.641,760.951Z" transform="translate(-400.35 -444.362)" opacity="0.73" fill="url(#linear-gradient-83)"/>
          <g id="Grupo_1158372" data-name="Grupo 1158372" transform="translate(461.758 264.065)">
            <path id="Trazado_992480" data-name="Trazado 992480" d="M871.355,760.943H925.99a8.4,8.4,0,0,0,8.43-8.15l1.213-35.934a8.436,8.436,0,0,0-8.43-8.72H870.256a8.435,8.435,0,0,0-8.43,8.693l1.1,35.935A8.4,8.4,0,0,0,871.355,760.943ZM927.2,708.7a7.874,7.874,0,0,1,7.87,8.14l-1.213,35.934a7.843,7.843,0,0,1-7.87,7.61H871.354a7.839,7.839,0,0,1-7.871-7.634l-1.1-35.935a7.875,7.875,0,0,1,7.871-8.115H927.2Z" transform="translate(-861.822 -708.14)" fill="#953da2"/>
          </g>
          <g id="Grupo_1158373" data-name="Grupo 1158373" transform="translate(511.112 277.256)">
            <path id="Trazado_992481" data-name="Trazado 992481" d="M883.809,734.832l13.47,15.614-13.718,11.645v-6.01l7.936-6.87-7.37-8.333Z" transform="translate(-883.561 -734.832)" fill="#fff"/>
          </g>
          <g id="Grupo_1158374" data-name="Grupo 1158374" transform="translate(474.211 277.957)">
            <path id="Trazado_992482" data-name="Trazado 992482" d="M969.889,736.25l-13.47,15.615,13.718,11.645V757.5l-7.936-6.87,8.831-9.345Z" transform="translate(-956.419 -736.25)" fill="#fff"/>
          </g>
          <g id="Grupo_1158375" data-name="Grupo 1158375" transform="translate(491.172 278.658)">
            <path id="Trazado_992483" data-name="Trazado 992483" d="M934.009,763.526l-11.738-25.857h-5.515l13.294,25.857Z" transform="translate(-916.756 -737.669)" fill="#fff"/>
          </g>
        </g>
        <g id="Grupo_1158378" data-name="Grupo 1158378" transform="translate(-33.051 86.163)" clip-path="url(#clip-path-4)">
          <path id="Trazado_992484" data-name="Trazado 992484" d="M1585.28,897.166h68.348a10.2,10.2,0,0,0,10.2-9.857l1.518-44.953a10.2,10.2,0,0,0-10.2-10.545h-71.239a10.2,10.2,0,0,0-10.2,10.513l1.374,44.954A10.2,10.2,0,0,0,1585.28,897.166Z" transform="translate(-1460.807 -506.628)" opacity="0.73" fill="url(#linear-gradient-83)"/>
          <g id="Grupo_1158377" data-name="Grupo 1158377" transform="translate(112.619 324.903)">
            <path id="Trazado_992485" data-name="Trazado 992485" d="M1585,897.159h68.348a10.439,10.439,0,0,0,10.474-10.127l1.518-44.953a10.481,10.481,0,0,0-10.474-10.835h-71.239a10.482,10.482,0,0,0-10.476,10.8L1574.52,887A10.435,10.435,0,0,0,1585,897.159Zm69.87-65.355a9.921,9.921,0,0,1,9.914,10.256l-1.518,44.953a9.88,9.88,0,0,1-9.915,9.586H1585a9.876,9.876,0,0,1-9.917-9.618l-1.374-44.953a9.921,9.921,0,0,1,9.917-10.224h71.24Z" transform="translate(-1573.141 -831.244)" fill="#953da2"/>
          </g>
          <rect id="Rectángulo_409747" data-name="Rectángulo 409747" width="62.598" height="37.177" transform="translate(128.242 332.419)" fill="#d1d4fb"/>
          <path id="Trazado_992486" data-name="Trazado 992486" d="M1669.542,865.121v18.727l-15.992-10.221Z" transform="translate(-1504.46 -523.477)" fill="#fff"/>
          <rect id="Rectángulo_409748" data-name="Rectángulo 409748" width="62.598" height="3.4" transform="translate(128.242 376.449)" fill="#d1d4fb"/>
          <rect id="Rectángulo_409749" data-name="Rectángulo 409749" width="16.205" height="3.4" transform="translate(174.635 376.449)" fill="#fff"/>
        </g>
        <g id="Grupo_1158381" data-name="Grupo 1158381" transform="translate(-33.051 86.163)" clip-path="url(#clip-path-4)">
          <g id="Grupo_1158379" data-name="Grupo 1158379" transform="translate(223.279 306.614)">
            <path id="Trazado_992487" data-name="Trazado 992487" d="M1481.669,808.292l3.265,9.347C1483.132,812.473,1480.532,809.12,1481.669,808.292Zm3.262,9.347,3.274,9.345C1487.382,826.737,1486.744,822.8,1484.93,817.638Zm-3.262-9.347,3.265,9.347C1483.132,812.473,1480.532,809.12,1481.669,808.292Zm3.262,9.347,3.274,9.345C1487.382,826.737,1486.744,822.8,1484.93,817.638Zm-9.429,8.1-3.174,1.8-3.425-9.351,3.67-.614c-.065-.348-.131-.694-.176-1.038a24.063,24.063,0,0,1-.31-4.66l-3.839-2.409,1.75-8.237,3.679,3.519a10.663,10.663,0,0,1,1.881-2.743,7.308,7.308,0,0,1,.637-.621l-2.25-5.2,5.987-1.949h0l1.438,5.236a9.97,9.97,0,0,1,4.054.948l.66-4.949,6.592,4.99-1.523,4.386a24.962,24.962,0,0,1,3.216,4.682l3.176-1.791,3.425,9.351-3.671.614a25.414,25.414,0,0,1,.486,5.7l3.839,2.409-1.749,8.237-3.679-3.519a10.331,10.331,0,0,1-2.521,3.355l2.253,5.2-5.893,2.3-.912-3.319-.62-2.266a10,10,0,0,1-4.063-.946l-.651,4.947-6.593-4.989,1.523-4.386a24.4,24.4,0,0,1-2.593-3.587C1475.906,826.477,1475.709,826.111,1475.5,825.735Zm9.429-8.1c1.811,5.163,0,10.489,3.274,9.345s4.478-6.267,2.669-11.422-5.933-8.414-9.208-7.27S1483.132,812.473,1484.93,817.638Zm-3.262-9.347,3.265,9.347C1483.132,812.473,1480.532,809.12,1481.669,808.292Zm3.262,9.347,3.274,9.345C1487.382,826.737,1486.744,822.8,1484.93,817.638Z" transform="translate(-1468.247 -794.237)" fill-rule="evenodd" fill="url(#linear-gradient-85)"/>
          </g>
          <path id="Trazado_992488" data-name="Trazado 992488" d="M1458.29,824.36l-3.425-9.351,3.494-1.652.565-.264-.367-5.15-3.878-1.894,1.28-8,8.448-2.751-1.556,3.711-2.944-6,5.987-1.949,2.46-.8,5.9-2.3,1.1,4.026,5.135-2.44,6.592,4.989-2,5.395,6.164,17.09,3.045,11.1-5.853.64,1.905,4.4-5.9,2.3L1476,838.211l1.356-2.714.854-1.624-3.122,1.019-5.333,1.736-6.592-4.989,4.077-4.8-5.148-3.17Zm18.547-11.974c-1.811-5.163-5.933-8.414-9.208-7.27l3.265,9.347,3.274,9.345C1477.45,822.653,1478.646,817.541,1476.837,812.386Z" transform="translate(-1230.929 -484.448)" fill-rule="evenodd" fill="url(#linear-gradient-86)"/>
          <g id="Grupo_1158380" data-name="Grupo 1158380" transform="translate(231.727 303.512)">
            <path id="Trazado_992489" data-name="Trazado 992489" d="M1455.226,821.6l-3.423-9.351,3.673-.614a25.665,25.665,0,0,1-.489-5.691l-3.84-2.409,1.75-8.238,3.681,3.517a10.287,10.287,0,0,1,2.518-3.359l-2.253-5.2,5.9-2.3,1.528,5.582a10.025,10.025,0,0,1,4.057.946l.654-4.944,6.592,4.986-1.518,4.386a25.358,25.358,0,0,1,3.217,4.688l3.177-1.792,3.423,9.351-3.673.614a25.668,25.668,0,0,1,.489,5.691l3.84,2.409-1.75,8.238L1479.1,824.6a10.284,10.284,0,0,1-2.518,3.36l2.252,5.2-5.9,2.3-1.528-5.582a10.022,10.022,0,0,1-4.057-.946l-.654,4.943-6.592-4.987,1.518-4.386a25.351,25.351,0,0,1-3.217-4.689Zm15.883-.55c3.279-1.149,4.472-6.263,2.665-11.424s-5.932-8.413-9.211-7.264-4.473,6.263-2.665,11.424S1467.833,822.2,1471.109,821.053Z" transform="translate(-1451.146 -787.961)" fill-rule="evenodd" fill="url(#linear-gradient-87)"/>
          </g>
          <path id="Trazado_992490" data-name="Trazado 992490" d="M1510.92,822.232l8.451-2.75,3.84,2.409-8.451,2.75Z" transform="translate(-1287.641 -500.392)" fill="#601734" fill-rule="evenodd" opacity="0.5"/>
          <path id="Trazado_992491" data-name="Trazado 992491" d="M1497.5,869.035l8.456-2.753,1.517-4.386-8.446,2.753Z" transform="translate(-1265.271 -521.845)" fill="#b3d9ff" fill-rule="evenodd"/>
          <path id="Trazado_992492" data-name="Trazado 992492" d="M1513.31,797.811l-4.631,1.34-1.567-1.5-3.079,1-1.424-3.29,8.446-2.752Z" transform="translate(-1273.633 -486.802)" fill="#601734" fill-rule="evenodd" opacity="0.5"/>
          <path id="Trazado_992493" data-name="Trazado 992493" d="M1482.126,871.8l-4.426,1.842.369-2.788S1480.45,872.115,1482.126,871.8Z" transform="translate(-1230.139 -526.378)" fill="#601734" fill-rule="evenodd" opacity="0.5"/>
          <path id="Trazado_992494" data-name="Trazado 992494" d="M1488.446,819.081,1481,823.02a11.573,11.573,0,0,0-1.916-2.029S1481.018,812.777,1488.446,819.081Z" transform="translate(-1237.141 -498.986)" fill="#601734" fill-rule="evenodd" opacity="0.5"/>
        </g>
        <g id="Grupo_1158382" data-name="Grupo 1158382" transform="translate(-33.051 86.163)" clip-path="url(#clip-path-4)">
          <path id="Trazado_992495" data-name="Trazado 992495" d="M1131.446,257.546l-7.186,14.387,4.8,2.182,6.716-13.215Z" transform="translate(-709.119 -191.771)" fill="#ff1d9c"/>
        </g>
        <g id="Grupo_1158383" data-name="Grupo 1158383" transform="translate(-33.051 86.163)" clip-path="url(#clip-path-4)">
          <path id="Trazado_992496" data-name="Trazado 992496" d="M815.033,933.012l-6.647,7.294-2.61-3.011,6.275-6.908Z" transform="translate(-588.73 -504.091)" fill="#6877ff"/>
        </g>
        <g id="Grupo_1158384" data-name="Grupo 1158384" transform="translate(-33.051 86.163)" clip-path="url(#clip-path-4)">
          <path id="Trazado_992497" data-name="Trazado 992497" d="M1470.47,429.748l6.691,4.063,2.683-5.088-7.319-4.274Z" transform="translate(-1224.285 -300.583)" fill="#4f31e0"/>
        </g>
        <g id="Grupo_1158385" data-name="Grupo 1158385" transform="translate(-33.051 86.163)" clip-path="url(#clip-path-4)">
          <path id="Trazado_992498" data-name="Trazado 992498" d="M1531.3,951.788l9.6,6.813,2.683-5.087-9.316-5.44Z" transform="translate(-1318.083 -565.435)" fill="#4f31e0"/>
        </g>
        <g id="Grupo_1158386" data-name="Grupo 1158386" transform="translate(-33.051 86.163)" clip-path="url(#clip-path-4)">
          <path id="Trazado_992499" data-name="Trazado 992499" d="M1574.94,326.213l1.621-37.683H1527.22l2.026,37.576Z" transform="translate(-1349.047 -231.835)" fill-rule="evenodd" fill="url(#linear-gradient-88)"/>
          <path id="Trazado_992500" data-name="Trazado 992500" d="M1525.851,288.53l1.478,2.222-1.478,35.461h-1.621Z" transform="translate(-1298.337 -231.835)" fill-rule="evenodd" fill="url(#linear-gradient-89)"/>
          <path id="Trazado_992501" data-name="Trazado 992501" d="M1544.7,302.906l7.744-.83-1.063,25.822-6.681-.656v-2.673l3.869.092.445-19.911-4.314.123Z" transform="translate(-1333.568 -238.686)" fill="#fff"/>
          <path id="Trazado_992502" data-name="Trazado 992502" d="M1600.2,302.906l-7.744-.83,1.063,25.822,6.682-.656v-2.673l-3.87.092-.445-19.911,4.315.123Z" transform="translate(-1404.931 -238.686)" fill="#fff"/>
        </g>
        <g id="Grupo_1158387" data-name="Grupo 1158387" transform="translate(-33.051 86.163)" clip-path="url(#clip-path-4)">
          <path id="Trazado_992503" data-name="Trazado 992503" d="M777.335,505.416l-1.105-25.689h33.636l-1.383,25.616Z" transform="translate(-281.681 -427.013)" fill-rule="evenodd" fill="url(#linear-gradient-90)"/>
          <path id="Trazado_992504" data-name="Trazado 992504" d="M843.064,479.727l-1.007,1.515,1.007,24.174h1.105Z" transform="translate(-354.839 -332.157)" fill-rule="evenodd" fill="url(#linear-gradient-91)"/>
          <path id="Trazado_992505" data-name="Trazado 992505" d="M822.982,490.151a22.552,22.552,0,0,0-4.339.158c-.651.3.169,6.309.169,6.309l-1.47,1.35,1.374,1.332s-.072,6.091.8,6.6,3.833,0,3.833,0v-1.519s-2.423.152-2.82-.173-.362-5.647-.362-5.647l-.651-.711.651-.772s-.121-3.793-.048-4.834c.048-.693,2.868-.729,2.868-.729v-1.362Z" transform="translate(-315.475 -432.269)" fill="#fff"/>
          <path id="Trazado_992506" data-name="Trazado 992506" d="M789.927,490.151a22.553,22.553,0,0,1,4.339.158c.651.3-.169,6.309-.169,6.309l1.47,1.35-1.374,1.332s.072,6.091-.8,6.6-3.833,0-3.833,0v-1.519s2.423.152,2.82-.173.362-5.647.362-5.647l.651-.711-.651-.772s.121-3.793.048-4.834c-.048-.693-2.868-.729-2.868-.729Z" transform="translate(-273.972 -432.269)" fill="#fff"/>
        </g>
        <g id="Grupo_1158397" data-name="Grupo 1158397" transform="translate(-33.051 86.163)" clip-path="url(#clip-path-4)">
          <g id="Grupo_1158388" data-name="Grupo 1158388" transform="translate(269.163 76.203)">
            <path id="Trazado_992507" data-name="Trazado 992507" d="M1412.824,349.575,1421.067,328l-21.376,4.465Zm7.359-20.815-7.521,19.68-11.981-15.607Z" transform="translate(-1399.691 -328.003)" fill="#744ca2"/>
          </g>
          <g id="Grupo_1158389" data-name="Grupo 1158389" transform="translate(215.99 393.451)">
            <rect id="Rectángulo_409758" data-name="Rectángulo 409758" width="12.246" height="0.558" transform="matrix(-0.591, -0.807, 0.807, -0.591, 7.24, 10.207)" fill="#744ca2"/>
          </g>
          <g id="Grupo_1158390" data-name="Grupo 1158390" transform="translate(290.752 302.516)">
            <path id="Trazado_992508" data-name="Trazado 992508" d="M1383.08,795.973l7.774-9.678-.435-.35-7.779,9.679Z" transform="translate(-1382.64 -785.945)" fill="#744ca2"/>
          </g>
          <g id="Grupo_1158391" data-name="Grupo 1158391" transform="translate(51.118 400.487)">
            <path id="Trazado_992509" data-name="Trazado 992509" d="M881.729,931.81l15.524-11.262-.329-.452L881.4,931.357Z" transform="translate(-881.4 -920.096)" fill="#744ca2"/>
          </g>
          <g id="Grupo_1158392" data-name="Grupo 1158392" transform="translate(52.992 398.554)">
            <rect id="Rectángulo_409759" data-name="Rectángulo 409759" width="19.179" height="0.559" transform="translate(11.622 15.595) rotate(-127.3)" fill="#744ca2"/>
          </g>
          <g id="Grupo_1158393" data-name="Grupo 1158393" transform="translate(274.107 351.443)">
            <rect id="Rectángulo_409760" data-name="Rectángulo 409760" width="0.559" height="11.351" transform="matrix(-0.465, -0.885, 0.885, -0.465, 0.26, 5.775)" fill="#744ca2"/>
          </g>
          <g id="Grupo_1158394" data-name="Grupo 1158394" transform="translate(158.51 66.292)">
            <path id="Trazado_992510" data-name="Trazado 992510" d="M1654.114,321.562l.42-.369-11.614-13.244-.42.37Z" transform="translate(-1642.5 -307.948)" fill="#744ca2"/>
          </g>
          <g id="Grupo_1158395" data-name="Grupo 1158395" transform="translate(390.508 111.934)">
            <rect id="Rectángulo_409761" data-name="Rectángulo 409761" width="0.559" height="11.65" transform="translate(0.501 10.68) rotate(-153.55)" fill="#744ca2"/>
          </g>
          <g id="Grupo_1158396" data-name="Grupo 1158396" transform="translate(464.628 287.52)">
            <rect id="Rectángulo_409762" data-name="Rectángulo 409762" width="17.401" height="0.559" transform="matrix(-0.767, -0.642, 0.642, -0.767, 13.347, 11.594)" fill="#744ca2"/>
          </g>
        </g>
      </g>
    </g>
  </g>
</svg>
