<svg xmlns="http://www.w3.org/2000/svg" xmlns:xlink="http://www.w3.org/1999/xlink" width="108" height="108" viewBox="0 0 108 108">
  <defs>
    <filter id="Trazado_982547" x="0" y="0" width="108" height="108" filterUnits="userSpaceOnUse">
      <feOffset dy="3" input="SourceAlpha"/>
      <feGaussianBlur stdDeviation="3" result="blur"/>
      <feFlood flood-opacity="0.161"/>
      <feComposite operator="in" in2="blur"/>
      <feComposite in="SourceGraphic"/>
    </filter>
  </defs>
  <g id="Grupo_1163059" data-name="Grupo 1163059" transform="translate(-196 -3987)">
    <g id="Grupo_1155782" data-name="Grupo 1155782" transform="translate(205 3993)">
      <g id="Grupo_1154033" data-name="Grupo 1154033">
        <g id="Grupo_1153177" data-name="Grupo 1153177">
          <g id="Grupo_1149598" data-name="Grupo 1149598">
            <g id="Grupo_1148770" data-name="Grupo 1148770">
              <g id="Grupo_1146954" data-name="Grupo 1146954">
                <g transform="matrix(1, 0, 0, 1, -9, -6)" filter="url(#Trazado_982547)">
                  <g id="Trazado_982547-2" data-name="Trazado 982547" transform="translate(9 6)" fill="#f6fde5">
                    <path d="M 45 88.5 C 39.12687683105469 88.5 33.43022537231445 87.35007476806641 28.06830024719238 85.08217620849609 C 22.88852500915527 82.89131164550781 18.23629951477051 79.75458526611328 14.2408504486084 75.75914764404297 C 10.24541282653809 71.76370239257812 7.108687400817871 67.11147308349609 4.917825222015381 61.93170166015625 C 2.649924993515015 56.56977462768555 1.5 50.87312316894531 1.5 45 C 1.5 39.12687683105469 2.649924993515015 33.43022537231445 4.917825222015381 28.06830024719238 C 7.108687400817871 22.88852500915527 10.24541282653809 18.23629951477051 14.2408504486084 14.2408504486084 C 18.23629951477051 10.24541282653809 22.88852500915527 7.108687400817871 28.06830024719238 4.917825222015381 C 33.43022537231445 2.649924993515015 39.12687683105469 1.5 45 1.5 C 50.87312316894531 1.5 56.56977462768555 2.649924993515015 61.93170166015625 4.917825222015381 C 67.11147308349609 7.108687400817871 71.76370239257812 10.24541282653809 75.75914764404297 14.2408504486084 C 79.75458526611328 18.23629951477051 82.89131164550781 22.88852500915527 85.08217620849609 28.06830024719238 C 87.35007476806641 33.43022537231445 88.5 39.12687683105469 88.5 45 C 88.5 50.87312316894531 87.35007476806641 56.56977462768555 85.08217620849609 61.93170166015625 C 82.89131164550781 67.11147308349609 79.75458526611328 71.76370239257812 75.75914764404297 75.75914764404297 C 71.76370239257812 79.75458526611328 67.11147308349609 82.89131164550781 61.93170166015625 85.08217620849609 C 56.56977462768555 87.35007476806641 50.87312316894531 88.5 45 88.5 Z" stroke="none"/>
                    <path d="M 45 3 C 39.32871246337891 3 33.82865524291992 4.110054016113281 28.65262985229492 6.299339294433594 C 23.65165710449219 8.414573669433594 19.15968322753906 11.44334411621094 15.301513671875 15.301513671875 C 11.44334411621094 19.15968322753906 8.414573669433594 23.65165710449219 6.299339294433594 28.65262985229492 C 4.110054016113281 33.82865524291992 3 39.32871246337891 3 45 C 3 50.67128753662109 4.110054016113281 56.17134475708008 6.299339294433594 61.34737396240234 C 8.414573669433594 66.34834289550781 11.44334411621094 70.84031677246094 15.301513671875 74.698486328125 C 19.15968322753906 78.55665588378906 23.65165710449219 81.58542633056641 28.65262985229492 83.70066070556641 C 33.82865524291992 85.88994598388672 39.32871246337891 87 45 87 C 50.67128753662109 87 56.17134475708008 85.88994598388672 61.34737396240234 83.70066070556641 C 66.34834289550781 81.58542633056641 70.84031677246094 78.55665588378906 74.698486328125 74.698486328125 C 78.55665588378906 70.84031677246094 81.58542633056641 66.34834289550781 83.70066070556641 61.34737396240234 C 85.88994598388672 56.17134475708008 87 50.67128753662109 87 45 C 87 39.32871246337891 85.88994598388672 33.82865524291992 83.70066070556641 28.65262985229492 C 81.58542633056641 23.65165710449219 78.55665588378906 19.15968322753906 74.698486328125 15.301513671875 C 70.84031677246094 11.44334411621094 66.34834289550781 8.414573669433594 61.34737396240234 6.299339294433594 C 56.17134475708008 4.110054016113281 50.67128753662109 3 45 3 M 45 0 C 69.85281372070312 0 90 20.14718627929688 90 45 C 90 69.85281372070312 69.85281372070312 90 45 90 C 20.14718627929688 90 0 69.85281372070312 0 45 C 0 20.14718627929688 20.14718627929688 0 45 0 Z" stroke="none" fill="#618307"/>
                  </g>
                </g>
              </g>
            </g>
          </g>
        </g>
      </g>
    </g>
    <g id="pruebas" transform="translate(217.997 3954.441)">
      <path id="Trazado_997556" data-name="Trazado 997556" d="M133.017,128.418v-1l.219-.042a.62.62,0,0,0,.506-.611V124.6l.179-.052a11.422,11.422,0,0,0,2.289-.948l.163-.09,1.533,1.533a.621.621,0,0,0,.794.071,14.066,14.066,0,0,0,3.532-3.532.621.621,0,0,0-.07-.793l-1.532-1.535.09-.163a11.193,11.193,0,0,0,.948-2.287l.052-.179h2.167a.621.621,0,0,0,.611-.51,14.012,14.012,0,0,0,0-5,.621.621,0,0,0-.611-.51h-2.168l-.052-.179a11.333,11.333,0,0,0-.947-2.286l-.09-.163,1.532-1.532a.621.621,0,0,0,.071-.793,14.027,14.027,0,0,0-3.532-3.536.621.621,0,0,0-.794.071l-1.533,1.533-.163-.09a11.418,11.418,0,0,0-2.289-.948l-.179-.052v-2.168a.621.621,0,0,0-.51-.611l-.215-.041V98.322H175.27v30.1Zm18.234-13.659a.622.622,0,0,0-.621.621V125.3a.622.622,0,0,0,.621.621h9.921a.622.622,0,0,0,.621-.621V115.38a.622.622,0,0,0-.621-.621Zm22.015,5.108v-1.242H164.2v1.242Zm0-3.865v-1.242H164.2V116Zm-22.015-15.183a.622.622,0,0,0-.621.621v9.924a.622.622,0,0,0,.621.621h9.921a.622.622,0,0,0,.621-.621v-9.924a.622.622,0,0,0-.621-.621Zm22.015,5.108v-1.242H164.2v1.242Zm0-3.865v-1.242H164.2v1.242Z" transform="translate(-116.495 -33.949)" fill="#e9e9ff"/>
      <path id="Trazado_997557" data-name="Trazado 997557" d="M271.007,377.421h7.974v2.373h-7.974Z" transform="translate(-237.347 -278.386)" fill="#445ea0"/>
      <path id="Trazado_997558" data-name="Trazado 997558" d="M107.978,108.305a1.722,1.722,0,0,1-1.72-1.72v-2.458l.262.015c.269.015.531.023.778.023s.509-.008.778-.023l.262-.015V105.6a.622.622,0,0,0,.621.621h43.5a.622.622,0,0,0,.621-.621V74.264a.622.622,0,0,0-.621-.621h-43.5a.622.622,0,0,0-.621.621v1.959l-.262-.014c-.259-.014-.521-.021-.781-.021s-.519.007-.776.021l-.262.014V73.282a1.722,1.722,0,0,1,1.72-1.72h45.459a1.722,1.722,0,0,1,1.72,1.72v33.3a1.722,1.722,0,0,1-1.72,1.72Z" transform="translate(-93.059 -10.512)" fill="#445ea0"/>
      <path id="Trazado_997559" data-name="Trazado 997559" d="M211.763,410.745v-2.1a2.109,2.109,0,0,1,2.107-2.107h18.479a2.109,2.109,0,0,1,2.107,2.107v2.1Z" transform="translate(-185.461 -303.883)" fill="#293d7c"/>
      <path id="Trazado_997560" data-name="Trazado 997560" d="M66.906,180.481a6.766,6.766,0,1,1,6.765-6.765A6.774,6.774,0,0,1,66.906,180.481Zm-.42-2.8,2.036-7.607-1.2-.321-2.036,7.607Zm-5.195-4.4a.621.621,0,0,0,0,.879l2.51,2.505.878-.879-2.07-2.066,2.07-2.07-.878-.878Zm8.72,3.377,2.505-2.51a.622.622,0,0,0,0-.878l-2.506-2.506-.878.878L71.2,173.71l-2.067,2.07Z" transform="translate(-52.667 -94.052)" fill="#e9e9ff"/>
      <path id="Trazado_997561" data-name="Trazado 997561" d="M24.75,144.282a12.826,12.826,0,0,1-1.549-.094l-.218-.027v-2.127a.618.618,0,0,0-.483-.606,10.158,10.158,0,0,1-3.152-1.307.621.621,0,0,0-.77.087l-1.5,1.5-.173-.135a12.8,12.8,0,0,1-2.192-2.19l-.135-.173,1.5-1.507a.618.618,0,0,0,.086-.77,10.1,10.1,0,0,1-1.307-3.151.618.618,0,0,0-.606-.483H12.124l-.026-.219a13.146,13.146,0,0,1,0-3.1l.026-.219H14.25a.618.618,0,0,0,.606-.483,10.157,10.157,0,0,1,1.307-3.152.618.618,0,0,0-.087-.77l-1.5-1.5.135-.173a12.755,12.755,0,0,1,2.193-2.193l.173-.135,1.5,1.5a.621.621,0,0,0,.77.087A10.153,10.153,0,0,1,22.5,121.64a.618.618,0,0,0,.483-.606v-2.127l.218-.027a12.827,12.827,0,0,1,3.1,0l.218.027v2.127a.618.618,0,0,0,.483.606,10.165,10.165,0,0,1,3.155,1.307.621.621,0,0,0,.77-.087l1.5-1.5.173.136a12.8,12.8,0,0,1,2.189,2.192l.135.173-1.5,1.5a.618.618,0,0,0-.086.771,10.072,10.072,0,0,1,1.307,3.151.618.618,0,0,0,.606.483h2.127l.027.218a12.777,12.777,0,0,1,0,3.1l-.027.218H35.25a.618.618,0,0,0-.606.485,9.936,9.936,0,0,1-1.306,3.148.618.618,0,0,0,.085.771l1.5,1.507-.135.173a12.835,12.835,0,0,1-2.189,2.189l-.173.136-1.5-1.5a.621.621,0,0,0-.77-.087A10.164,10.164,0,0,1,27,141.429a.618.618,0,0,0-.483.606v2.127l-.218.027A12.786,12.786,0,0,1,24.75,144.282Zm0-20.756a8.009,8.009,0,1,0,8.007,8.011,8.02,8.02,0,0,0-8.007-8.011Z" transform="translate(-10.512 -51.872)" fill="#0cb4fb"/>
      <path id="Trazado_997562" data-name="Trazado 997562" d="M284.84,137.108v-8.682h8.678v8.682Zm2.728-1.982a.619.619,0,0,0,.471.245h.024a.621.621,0,0,0,.465-.209l3.929-4.432-.93-.824-3.427,3.866-1.2-1.585-.99.751Z" transform="translate(-249.462 -60.314)" fill="#43cb8e"/>
      <path id="Trazado_997563" data-name="Trazado 997563" d="M284.84,249.356v-8.678h8.678v8.678Zm2.656-1.778,1.683-1.683,1.683,1.683.878-.878-1.683-1.683,1.683-1.683-.878-.878-1.683,1.683-1.683-1.683-.878.878,1.683,1.683-1.683,1.683Z" transform="translate(-249.462 -158.625)" fill="#ed524e"/>
      <path id="Trazado_997564" data-name="Trazado 997564" d="M22.495,79.664a8.257,8.257,0,1,0-8.255,8.255A8.267,8.267,0,0,0,22.495,79.664Zm-14.775,0a6.518,6.518,0,1,1,6.52,6.516A6.527,6.527,0,0,1,7.72,79.664Zm49.3-11.3H47.459V66.621H57.02Zm3.358-8.8H14.919a3.214,3.214,0,0,0-3.211,3.211v2.881l-.015,0a.869.869,0,0,0-.714.856v1.982a11.624,11.624,0,0,0-2.335.969l-1.4-1.4a.87.87,0,0,0-1.11-.1,14.233,14.233,0,0,0-3.6,3.6.87.87,0,0,0,.1,1.11l1.4,1.4A11.611,11.611,0,0,0,3.066,76.4H1.084a.87.87,0,0,0-.856.714,14.486,14.486,0,0,0,0,5.088.87.87,0,0,0,.856.714H3.066a11.575,11.575,0,0,0,.969,2.336l-1.4,1.4a.869.869,0,0,0-.1,1.111,14.268,14.268,0,0,0,3.6,3.594.869.869,0,0,0,1.11-.1l1.4-1.4a11.623,11.623,0,0,0,2.335.969v1.982a.87.87,0,0,0,.714.856l.015,0v2.4a3.214,3.214,0,0,0,3.211,3.211h17.25v1.876h-3.76a3.6,3.6,0,0,0-3.6,3.6v2.725a.87.87,0,0,0,.869.87H49.616a.87.87,0,0,0,.869-.87v-2.725a3.6,3.6,0,0,0-3.6-3.6H43.125V99.284H60.378a3.214,3.214,0,0,0,3.211-3.211V62.77a3.214,3.214,0,0,0-3.211-3.211ZM12.043,89.314a9.9,9.9,0,0,1-3.075-1.275.87.87,0,0,0-1.077.121L6.542,89.508a12.519,12.519,0,0,1-2.15-2.148L5.741,86.01a.87.87,0,0,0,.12-1.078,9.856,9.856,0,0,1-1.275-3.074.869.869,0,0,0-.848-.676H1.832a12.894,12.894,0,0,1,0-3.038H3.738a.87.87,0,0,0,.848-.676,9.9,9.9,0,0,1,1.276-3.075.87.87,0,0,0-.121-1.078L4.392,71.966a12.476,12.476,0,0,1,2.15-2.15L7.89,71.165a.87.87,0,0,0,1.077.121,9.909,9.909,0,0,1,3.075-1.275.87.87,0,0,0,.676-.848V67.255a12.583,12.583,0,0,1,3.038,0v1.907a.869.869,0,0,0,.676.848,9.918,9.918,0,0,1,3.079,1.275.87.87,0,0,0,1.077-.121l1.347-1.347a12.521,12.521,0,0,1,2.147,2.149l-1.348,1.348a.869.869,0,0,0-.12,1.079,9.825,9.825,0,0,1,1.274,3.073.87.87,0,0,0,.848.676h1.907a12.525,12.525,0,0,1,0,3.038H24.737a.87.87,0,0,0-.848.679,9.69,9.69,0,0,1-1.273,3.07.869.869,0,0,0,.119,1.08l1.348,1.351a12.56,12.56,0,0,1-2.147,2.147L20.589,88.16a.87.87,0,0,0-1.077-.121,9.915,9.915,0,0,1-3.079,1.275.87.87,0,0,0-.676.848v1.907a12.584,12.584,0,0,1-3.038,0V90.162a.869.869,0,0,0-.676-.847Zm13.8-2.653-1.4-1.4a11.413,11.413,0,0,0,.969-2.337h1.981a.87.87,0,0,0,.856-.714,14.262,14.262,0,0,0,0-5.088.87.87,0,0,0-.856-.714H25.41a11.551,11.551,0,0,0-.968-2.336l1.4-1.4a.87.87,0,0,0,.1-1.11,14.276,14.276,0,0,0-3.594-3.6.869.869,0,0,0-1.111.1l-1.4,1.4A11.639,11.639,0,0,0,17.5,68.49V66.508a.87.87,0,0,0-.714-.856l-.011,0V64.621H58.527v29.6H16.771v-.547l.011,0a.87.87,0,0,0,.714-.856V90.834a11.635,11.635,0,0,0,2.339-.969l1.4,1.4a.87.87,0,0,0,1.111.1,14.311,14.311,0,0,0,3.594-3.594A.869.869,0,0,0,25.842,86.661ZM46.888,102.9a1.861,1.861,0,0,1,1.859,1.859v1.855H26.55v-1.855a1.861,1.861,0,0,1,1.859-1.859H46.888Zm-12.98-1.739V99.284h7.477v1.876ZM61.85,96.073a1.473,1.473,0,0,1-1.472,1.472H14.919a1.473,1.473,0,0,1-1.472-1.472V93.878c.264.015.528.023.792.023s.528-.008.792-.023v1.213a.87.87,0,0,0,.869.87H59.4a.87.87,0,0,0,.87-.87V63.752a.87.87,0,0,0-.87-.87H15.9a.87.87,0,0,0-.869.87v1.7a14.435,14.435,0,0,0-1.584,0V62.77A1.473,1.473,0,0,1,14.919,61.3H60.379A1.473,1.473,0,0,1,61.85,62.77v33.3ZM16.16,75.845,14,83.932l-1.68-.449L14.48,75.4Zm-3.8,5.888-1.229,1.231L8.45,80.283a.87.87,0,0,1,0-1.23l2.685-2.685,1.23,1.23-2.07,2.07Zm3.751-4.142,1.23-1.23,2.681,2.681a.87.87,0,0,1,0,1.229l-2.681,2.685-1.231-1.229,2.067-2.07Zm18.642.694h9.921a.87.87,0,0,0,.869-.87V67.491a.87.87,0,0,0-.869-.87H34.757a.87.87,0,0,0-.869.87v9.924A.869.869,0,0,0,34.757,78.284Zm.869-9.924h8.181v8.185H35.626ZM57.02,72.226H47.459V70.486H57.02Zm-22.263,20h9.921a.87.87,0,0,0,.869-.87V81.431a.87.87,0,0,0-.869-.87H34.757a.87.87,0,0,0-.869.87v9.921A.869.869,0,0,0,34.757,92.222Zm.869-9.921h8.181v8.181H35.626Zm7,2.408-1.683,1.683,1.683,1.683L41.4,89.3l-1.683-1.683L38.034,89.3l-1.23-1.23,1.683-1.683L36.8,84.709l1.23-1.23,1.683,1.683L41.4,83.479ZM57.02,82.3H47.459V80.562H57.02Zm0,3.865H47.459V84.427H57.02ZM42.044,69.241l1.3,1.154-4.094,4.618a.869.869,0,0,1-.651.293h-.033a.869.869,0,0,1-.66-.343L36.1,72.576l1.385-1.051,1.17,1.542Z"/>
    </g>
  </g>
</svg>
