<svg xmlns="http://www.w3.org/2000/svg" xmlns:xlink="http://www.w3.org/1999/xlink" width="505" height="473" viewBox="0 0 505 473">
  <defs>
    <clipPath id="clip-path">
      <rect id="Rectángulo_412129" data-name="Rectángulo 412129" width="505" height="473" transform="translate(915 4877)" fill="#fff" stroke="#707070" stroke-width="1"/>
    </clipPath>
    <clipPath id="clip-path-2">
      <path id="Trazado_997735" data-name="Trazado 997735" d="M582.063,458.916l27.127-74.491L594.894,351l-68.282-37.35S515.76,222.19,513.868,219.4s-37.686-34.648-37.686-34.648L469.43,132.4,443.6,106.449l-41.287,7.091-10.171,43.71-33.806,57.256-85.568-25.649S198.542,245.08,198.542,251.4s-30.256,113.219-30.256,113.219l46.762,50.215,117.49,44.079H582.063Z" transform="translate(-168.286 -106.449)"/>
    </clipPath>
  </defs>
  <g id="Enmascarar_grupo_1098782" data-name="Enmascarar grupo 1098782" transform="translate(-915 -4877)" clip-path="url(#clip-path)">
    <g id="Grupo_1163174" data-name="Grupo 1163174" transform="translate(907.671 4928.645)">
      <g id="Grupo_1163061" data-name="Grupo 1163061" transform="translate(60.296 49.516)">
        <g id="Grupo_1163060" data-name="Grupo 1163060" transform="translate(88.937)">
          <path id="Trazado_997565" data-name="Trazado 997565" d="M287.1,144.18c43.86,34.245,104.322,9.436,124.43-14.536C470.913,58.869,243.235,109.937,287.1,144.18Z" transform="translate(-281.45 -94.099)" fill="#b3f00d"/>
        </g>
        <path id="Trazado_997566" data-name="Trazado 997566" d="M179.6,351.469c28.779,49.317,85.467,91.478,148.189,102.247a181.658,181.658,0,0,0,30.772,2.66c2.448,0,4.9-.05,7.354-.164,41.729-1.765,84.156-18.814,121.3-57.769,57.379-60.177,74.42-119.011,63.926-169.639a145.763,145.763,0,0,0-15.837-41.941C470.33,71.212,395.959,143.453,305.076,156.141c-62.689,8.745-133.833,33.659-149.027,90.419C148.779,273.681,154.285,308.081,179.6,351.469Z" transform="translate(-153.092 -84.537)" fill="#b3f00d"/>
      </g>
      <g id="Grupo_1163072" data-name="Grupo 1163072" transform="translate(442.177 216.082)">
        <g id="Grupo_1163063" data-name="Grupo 1163063" transform="translate(1.296 0.281)">
          <g id="Grupo_1163062" data-name="Grupo 1163062">
            <path id="Trazado_997567" data-name="Trazado 997567" d="M162.262,285.059,151.6,287.471l-2.105-6.594a27.483,27.483,0,0,1-9.452-1.629l-4.182,5.515-9.241-5.83,3.177-6.149a27.587,27.587,0,0,1-5.538-7.831l-6.858.937-2.413-10.665,6.594-2.1a27.719,27.719,0,0,1,1.627-9.454l-5.513-4.182,5.829-9.241,6.149,3.177a27.556,27.556,0,0,1,7.832-5.538l-.939-6.858,10.665-2.412,2.106,6.593a27.678,27.678,0,0,1,9.451,1.627l4.185-5.511,9.238,5.829-3.176,6.149a27.733,27.733,0,0,1,5.538,7.831l6.858-.938,2.411,10.666-6.593,2.105a27.518,27.518,0,0,1-1.627,9.45l5.514,4.185-5.83,9.239-6.149-3.174a27.682,27.682,0,0,1-7.831,5.537Zm6.4-36.37a19.733,19.733,0,1,0-14.894,23.6A19.736,19.736,0,0,0,168.66,248.688Z" transform="translate(-114.984 -218.612)" fill="#425fec"/>
          </g>
        </g>
        <g id="Grupo_1163064" data-name="Grupo 1163064" transform="translate(25.661)">
          <path id="Trazado_997568" data-name="Trazado 997568" d="M150.607,223.095l-1.5-4.693-8.041,1.82.106.47,7.611-1.721,1.364,4.271Z" transform="translate(-141.065 -218.402)" fill="#091022"/>
        </g>
        <g id="Grupo_1163065" data-name="Grupo 1163065" transform="translate(56.69 16.438)">
          <path id="Trazado_997569" data-name="Trazado 997569" d="M127.842,236.332l-.066-.477-6.672.913a22.871,22.871,0,0,0-4-6.1l-.348.334a22.238,22.238,0,0,1,3.969,6.118l.071.176Z" transform="translate(-116.759 -230.669)" fill="#091022"/>
        </g>
        <g id="Grupo_1163066" data-name="Grupo 1163066" transform="translate(27.726 46.72)">
          <path id="Trazado_997570" data-name="Trazado 997570" d="M152.665,253.575l-.374-.307c-9.836,12.008-23.009,5.921-23.142,5.857l-.209.437C129.075,259.628,142.591,265.872,152.665,253.575Z" transform="translate(-128.94 -253.268)" fill="#091022"/>
        </g>
        <g id="Grupo_1163067" data-name="Grupo 1163067" transform="translate(24.73 60.632)">
          <path id="Trazado_997571" data-name="Trazado 997571" d="M150.617,265.079a44.279,44.279,0,0,1-5.139-1.371l-.166-.058-1.536,2.026.385.292,1.325-1.747a45.081,45.081,0,0,0,5.037,1.332Z" transform="translate(-143.776 -263.65)" fill="#091022"/>
        </g>
        <g id="Grupo_1163071" data-name="Grupo 1163071" transform="translate(0 2.771)">
          <g id="Grupo_1163069" data-name="Grupo 1163069">
            <g id="Grupo_1163068" data-name="Grupo 1163068">
              <path id="Trazado_997572" data-name="Trazado 997572" d="M184.958,253.173l-2.51-11.1-6.9.943a26.614,26.614,0,0,0-5.388-7.626l3.193-6.184-9.613-6.066-4.212,5.549a27.781,27.781,0,0,0-9.2-1.583l-2.121-6.637-11.1,2.511.946,6.9c-.915.439-5.352,2.66-7.637,5.381l-6.175-3.191-6.066,9.616,5.538,4.2a22.742,22.742,0,0,0-1.574,9.208l-6.634,2.118,2.511,11.1,6.9-.945A25.791,25.791,0,0,0,130.306,275l-3.193,6.181,9.617,6.068,4.2-5.546a24.3,24.3,0,0,0,9.206,1.583l2.117,6.634,11.1-2.51-.943-6.9a24.84,24.84,0,0,0,7.623-5.392l6.187,3.195,6.068-9.616-5.54-4.2a21.407,21.407,0,0,0,1.579-9.207Zm-2.881-10.566,2.317,10.244-6.563,2.094.009.185a20.543,20.543,0,0,1-1.6,9.336l-.088.178,5.5,4.173-5.6,8.872-6.118-3.158-.123.133a24.078,24.078,0,0,1-7.748,5.481l-.174.07.934,6.831-10.243,2.317-2.094-6.561-.181.005a23.467,23.467,0,0,1-9.353-1.608l-.173-.078-4.166,5.5-8.873-5.6,3.162-6.122-.141-.125a25.288,25.288,0,0,1-5.479-7.749l-.072-.167-6.823.934-2.317-10.243,6.559-2.094-.005-.181a22.108,22.108,0,0,1,1.605-9.347l.086-.177-5.5-4.17,5.6-8.873,6.13,3.166.122-.151c2.384-2.961,7.7-5.448,7.751-5.474l.161-.075-.934-6.819,10.242-2.317,2.094,6.557.177,0a26.909,26.909,0,0,1,9.364,1.611l.169.07,4.165-5.487,8.872,5.6-3.161,6.121.137.123a26.128,26.128,0,0,1,5.482,7.753l.072.166Z" transform="translate(-115.506 -220.47)" fill="#091022"/>
            </g>
          </g>
          <g id="Grupo_1163070" data-name="Grupo 1163070" transform="translate(14.735 14.737)">
            <path id="Trazado_997573" data-name="Trazado 997573" d="M166.428,252.938a19.989,19.989,0,1,0-21.416,18.452A20.011,20.011,0,0,0,166.428,252.938Zm-39.391-2.927a19.51,19.51,0,1,1,18.011,20.9A19.532,19.532,0,0,1,127.037,250.011Z" transform="translate(-126.505 -231.468)" fill="#091022"/>
          </g>
        </g>
      </g>
      <g id="Grupo_1163083" data-name="Grupo 1163083" transform="translate(403.068 258.856)">
        <g id="Grupo_1163074" data-name="Grupo 1163074" transform="translate(0.741 0.163)">
          <g id="Grupo_1163073" data-name="Grupo 1163073">
            <path id="Trazado_997574" data-name="Trazado 997574" d="M193.632,288.234l-6.065,1.372-1.2-3.751a15.661,15.661,0,0,1-5.376-.926l-2.378,3.137-5.255-3.316,1.806-3.5a15.709,15.709,0,0,1-3.15-4.453l-3.9.533-1.372-6.066,3.749-1.2a15.753,15.753,0,0,1,.926-5.376l-3.136-2.379,3.315-5.255,3.5,1.808a15.662,15.662,0,0,1,4.454-3.15l-.535-3.9,6.066-1.371,1.2,3.749a15.783,15.783,0,0,1,5.376.925l2.38-3.136,5.254,3.316-1.806,3.5a15.8,15.8,0,0,1,3.15,4.454l3.9-.533,1.371,6.066-3.749,1.2a15.679,15.679,0,0,1-.925,5.375l3.136,2.38-3.316,5.255-3.5-1.806a15.733,15.733,0,0,1-4.454,3.149Zm3.639-20.686a11.224,11.224,0,1,0-8.471,13.424A11.225,11.225,0,0,0,197.272,267.549Z" transform="translate(-166.744 -250.445)" fill="#63e1dd"/>
          </g>
        </g>
        <g id="Grupo_1163075" data-name="Grupo 1163075" transform="translate(14.598)">
          <path id="Trazado_997575" data-name="Trazado 997575" d="M187,252.992l-.852-2.669-4.573,1.035.06.269,4.328-.981.776,2.431Z" transform="translate(-181.579 -250.323)" fill="#091022"/>
        </g>
        <g id="Grupo_1163076" data-name="Grupo 1163076" transform="translate(32.246 9.349)">
          <path id="Trazado_997576" data-name="Trazado 997576" d="M174.058,260.521l-.038-.272-3.795.52a13.055,13.055,0,0,0-2.274-3.469l-.2.192a12.6,12.6,0,0,1,2.258,3.48l.04.1Z" transform="translate(-167.753 -257.3)" fill="#091022"/>
        </g>
        <g id="Grupo_1163077" data-name="Grupo 1163077" transform="translate(15.772 26.574)">
          <path id="Trazado_997577" data-name="Trazado 997577" d="M188.176,270.328l-.213-.174a11.151,11.151,0,0,1-13.163,3.331l-.118.249A11.434,11.434,0,0,0,188.176,270.328Z" transform="translate(-174.682 -270.154)" fill="#091022"/>
        </g>
        <g id="Grupo_1163078" data-name="Grupo 1163078" transform="translate(14.067 34.486)">
          <path id="Trazado_997578" data-name="Trazado 997578" d="M187.011,276.871a25.283,25.283,0,0,1-2.924-.78l-.094-.032-.874,1.151.22.166.753-.993a25.839,25.839,0,0,0,2.865.757Z" transform="translate(-183.12 -276.059)" fill="#091022"/>
        </g>
        <g id="Grupo_1163082" data-name="Grupo 1163082" transform="translate(0 1.577)">
          <g id="Grupo_1163080" data-name="Grupo 1163080">
            <g id="Grupo_1163079" data-name="Grupo 1163079">
              <path id="Trazado_997579" data-name="Trazado 997579" d="M206.546,270.1l-1.427-6.313-3.926.536a15.17,15.17,0,0,0-3.065-4.336l1.816-3.519-5.467-3.449-2.4,3.156a15.756,15.756,0,0,0-5.233-.9l-1.206-3.773-6.313,1.428.539,3.928a14.891,14.891,0,0,0-4.344,3.061l-3.512-1.814-3.45,5.468,3.15,2.391a12.928,12.928,0,0,0-.9,5.237l-3.773,1.2,1.428,6.313,3.925-.536a14.623,14.623,0,0,0,3.065,4.338l-1.816,3.516,5.47,3.452,2.392-3.154a13.81,13.81,0,0,0,5.235.9l1.2,3.772,6.313-1.426-.536-3.925a14.1,14.1,0,0,0,4.336-3.067l3.519,1.817,3.45-5.47-3.15-2.389a12.188,12.188,0,0,0,.9-5.238Zm-1.639-6.009,1.317,5.826-3.733,1.193.005.1a11.677,11.677,0,0,1-.911,5.31l-.051.1L204.661,279l-3.184,5.046-3.48-1.8-.071.076a13.745,13.745,0,0,1-4.406,3.117l-.1.039.531,3.885-5.826,1.316-1.191-3.73-.1,0a13.322,13.322,0,0,1-5.32-.917l-.1-.043-2.369,3.125L174,285.935l1.8-3.483-.08-.071a14.392,14.392,0,0,1-3.115-4.407l-.042-.1-3.881.532-1.317-5.826,3.731-1.191,0-.1a12.588,12.588,0,0,1,.913-5.316l.048-.1-3.126-2.373,3.184-5.046,3.487,1.8.07-.086a14.969,14.969,0,0,1,4.409-3.113l.091-.042-.531-3.879,5.826-1.317,1.191,3.728h.1a15.354,15.354,0,0,1,5.326.917l.1.039,2.369-3.121,5.045,3.185-1.8,3.481.078.071a14.839,14.839,0,0,1,3.118,4.409l.042.094Z" transform="translate(-167.041 -251.5)" fill="#091022"/>
            </g>
          </g>
          <g id="Grupo_1163081" data-name="Grupo 1163081" transform="translate(8.383 8.381)">
            <path id="Trazado_997580" data-name="Trazado 997580" d="M196,269.965a11.369,11.369,0,1,0-12.181,10.5A11.381,11.381,0,0,0,196,269.965ZM173.6,268.3a11.1,11.1,0,1,1,10.244,11.888A11.11,11.11,0,0,1,173.6,268.3Z" transform="translate(-173.296 -257.754)" fill="#091022"/>
          </g>
        </g>
      </g>
      <g id="Grupo_1163090" data-name="Grupo 1163090" transform="translate(299.298 93.899)">
        <g id="Grupo_1163085" data-name="Grupo 1163085" transform="translate(0)">
          <path id="Trazado_997581" data-name="Trazado 997581" d="M128.039,142.645v125.1a17.237,17.237,0,0,0,17.238,17.238h160.13a17.247,17.247,0,0,0,17.127-15.244,14.619,14.619,0,0,0,.123-1.994v-125.1a14.744,14.744,0,0,0-14.749-14.739H142.779A14.737,14.737,0,0,0,128.039,142.645Z" transform="translate(-127.12 -126.988)" fill="#ebf4fb"/>
          <g id="Grupo_1163084" data-name="Grupo 1163084">
            <path id="Trazado_997582" data-name="Trazado 997582" d="M145.51,286.14H305.64a18.168,18.168,0,0,0,18.04-16.059,15.336,15.336,0,0,0,.129-2.1v-125.1a15.681,15.681,0,0,0-15.67-15.658H143.012a15.676,15.676,0,0,0-15.659,15.658v125.1A18.178,18.178,0,0,0,145.51,286.14Zm162.629-157.08a13.84,13.84,0,0,1,13.83,13.819v125.1a13.5,13.5,0,0,1-.115,1.869A16.327,16.327,0,0,1,305.64,284.3H145.51a16.337,16.337,0,0,1-16.319-16.319v-125.1a13.835,13.835,0,0,1,13.819-13.819Z" transform="translate(-127.353 -127.221)" fill="#5062be"/>
          </g>
        </g>
        <g id="Grupo_1163087" data-name="Grupo 1163087" transform="translate(18.387 5.946)">
          <g id="Grupo_1163086" data-name="Grupo 1163086">
            <path id="Trazado_997583" data-name="Trazado 997583" d="M251.2,131.658a1.331,1.331,0,1,1-1.332,1.332A1.331,1.331,0,0,1,251.2,131.658Z" transform="translate(-238.629 -131.658)" fill="#101c3a"/>
            <path id="Trazado_997584" data-name="Trazado 997584" d="M255.39,131.658a1.331,1.331,0,1,1-1.331,1.332A1.331,1.331,0,0,1,255.39,131.658Z" transform="translate(-248.439 -131.658)" fill="#fc721a"/>
            <path id="Trazado_997585" data-name="Trazado 997585" d="M259.584,131.658a1.331,1.331,0,1,1-1.332,1.332A1.331,1.331,0,0,1,259.584,131.658Z" transform="translate(-258.252 -131.658)" fill="#425fec"/>
          </g>
        </g>
        <g id="Grupo_1163088" data-name="Grupo 1163088" transform="translate(0.915 15.655)">
          <rect id="Rectángulo_412051" data-name="Rectángulo 412051" width="144.082" height="1.84" fill="#5062be"/>
        </g>
        <g id="Grupo_1163089" data-name="Grupo 1163089" transform="translate(8.346 34.579)">
          <path id="Trazado_997586" data-name="Trazado 997586" d="M143.54,211.481l.058-2.787h21.536l-.058,2.787Z" transform="translate(1.286 -134.099)" fill="#091022"/>
          <path id="Trazado_997587" data-name="Trazado 997587" d="M143.323,205.222l.059-2.789h37.093l-.058,2.789Z" transform="translate(-13.764 -136.228)" fill="#091022"/>
          <path id="Trazado_997588" data-name="Trazado 997588" d="M143.031,198.961l.058-2.79h31.26l-.059,2.79Z" transform="translate(-7.246 -138.357)" fill="#425fec"/>
          <path id="Trazado_997589" data-name="Trazado 997589" d="M160.684,211.481l.058-2.787h4.236l-.058,2.787Z" transform="translate(-21.53 -134.099)" fill="#091022"/>
          <path id="Trazado_997590" data-name="Trazado 997590" d="M173.659,211.481l.058-2.787h21.536l-.058,2.787Z" transform="translate(-69.193 -134.099)" fill="#091022"/>
          <path id="Trazado_997591" data-name="Trazado 997591" d="M173.441,205.222l.059-2.789h37.094l-.059,2.789Z" transform="translate(-84.241 -136.228)" fill="#091022"/>
          <path id="Trazado_997592" data-name="Trazado 997592" d="M173.15,198.961l.058-2.79h31.26l-.058,2.79Z" transform="translate(-77.725 -138.357)" fill="#091022"/>
          <path id="Trazado_997593" data-name="Trazado 997593" d="M190.8,211.481l.059-2.787H195.1l-.059,2.787Z" transform="translate(-92.008 -134.099)" fill="#091022"/>
          <path id="Trazado_997594" data-name="Trazado 997594" d="M143.391,192.927l.059-2.789h21.536l-.059,2.789Z" transform="translate(1.633 -140.408)" fill="#091022"/>
          <path id="Trazado_997595" data-name="Trazado 997595" d="M143.175,186.666l.058-2.789h37.093l-.058,2.789Z" transform="translate(-13.416 -142.537)" fill="#091022"/>
          <path id="Trazado_997596" data-name="Trazado 997596" d="M142.883,180.4l.058-2.789H174.2l-.058,2.789Z" transform="translate(-6.9 -144.666)" fill="#091022"/>
          <path id="Trazado_997597" data-name="Trazado 997597" d="M160.535,192.927l.059-2.789h4.236l-.059,2.789Z" transform="translate(-21.183 -140.408)" fill="#091022"/>
          <path id="Trazado_997598" data-name="Trazado 997598" d="M173.51,192.927l.058-2.789h21.538l-.059,2.789Z" transform="translate(-68.845 -140.408)" fill="#fc721a"/>
          <path id="Trazado_997599" data-name="Trazado 997599" d="M173.293,186.666l.058-2.789h37.094l-.059,2.789Z" transform="translate(-83.894 -142.537)" fill="#091022"/>
          <path id="Trazado_997600" data-name="Trazado 997600" d="M173,180.4l.058-2.789H204.32l-.059,2.789Z" transform="translate(-77.377 -144.666)" fill="#fff"/>
          <path id="Trazado_997601" data-name="Trazado 997601" d="M190.654,192.927l.058-2.789h4.236l-.058,2.789Z" transform="translate(-91.66 -140.408)" fill="#091022"/>
          <path id="Trazado_997602" data-name="Trazado 997602" d="M143.243,174.371l.059-2.789h21.536l-.059,2.789Z" transform="translate(1.98 -146.717)" fill="#091022"/>
          <path id="Trazado_997603" data-name="Trazado 997603" d="M143.026,168.108l.058-2.787h37.094l-.059,2.787Z" transform="translate(-13.069 -148.846)" fill="#091022"/>
          <path id="Trazado_997604" data-name="Trazado 997604" d="M142.734,161.849l.058-2.789h31.261l-.059,2.789Z" transform="translate(-6.552 -150.974)" fill="#091022"/>
          <path id="Trazado_997605" data-name="Trazado 997605" d="M160.387,174.371l.058-2.789h4.236l-.058,2.789Z" transform="translate(-20.835 -146.717)" fill="#091022"/>
          <path id="Trazado_997606" data-name="Trazado 997606" d="M173.362,174.371l.058-2.789h21.536l-.058,2.789Z" transform="translate(-68.498 -146.717)" fill="#425fec"/>
          <path id="Trazado_997607" data-name="Trazado 997607" d="M173.145,168.108l.059-2.787H210.3l-.059,2.787Z" transform="translate(-83.547 -148.846)" fill="#091022"/>
          <path id="Trazado_997608" data-name="Trazado 997608" d="M172.854,161.849l.058-2.789h31.26l-.058,2.789Z" transform="translate(-77.032 -150.974)" fill="#091022"/>
          <path id="Trazado_997609" data-name="Trazado 997609" d="M190.505,174.371l.058-2.789H194.8l-.059,2.789Z" transform="translate(-91.313 -146.717)" fill="#425fec"/>
          <path id="Trazado_997610" data-name="Trazado 997610" d="M143.1,155.813l.058-2.787h21.537l-.058,2.787Z" transform="translate(2.327 -153.026)" fill="#091022"/>
          <path id="Trazado_997611" data-name="Trazado 997611" d="M160.238,155.813l.058-2.787h4.237l-.059,2.787Z" transform="translate(-20.488 -153.026)" fill="#091022"/>
          <path id="Trazado_997612" data-name="Trazado 997612" d="M173.213,155.813l.058-2.787h21.538l-.059,2.787Z" transform="translate(-68.15 -153.026)" fill="#091022"/>
          <path id="Trazado_997613" data-name="Trazado 997613" d="M190.357,155.813l.058-2.787h4.237l-.059,2.787Z" transform="translate(-90.967 -153.026)" fill="#091022"/>
          <path id="Trazado_997614" data-name="Trazado 997614" d="M210.107,211.481l.058-2.787H231.7l-.059,2.787Z" transform="translate(-154.482 -134.099)" fill="#091022"/>
          <path id="Trazado_997615" data-name="Trazado 997615" d="M209.891,205.222l.058-2.789h37.093l-.058,2.789Z" transform="translate(-169.532 -136.228)" fill="#091022"/>
          <path id="Trazado_997616" data-name="Trazado 997616" d="M209.6,198.961l.058-2.79h31.26l-.058,2.79Z" transform="translate(-163.015 -138.357)" fill="#091022"/>
          <path id="Trazado_997617" data-name="Trazado 997617" d="M227.251,211.481l.059-2.787h4.236l-.058,2.787Z" transform="translate(-177.298 -134.099)" fill="#091022"/>
          <path id="Trazado_997618" data-name="Trazado 997618" d="M240.226,211.481l.059-2.787h21.536l-.059,2.787Z" transform="translate(-224.961 -134.099)" fill="#091022"/>
          <path id="Trazado_997619" data-name="Trazado 997619" d="M240.009,205.222l.059-2.789h37.093l-.059,2.789Z" transform="translate(-240.009 -136.228)" fill="#091022"/>
          <path id="Trazado_997620" data-name="Trazado 997620" d="M239.717,198.961l.059-2.79h31.26l-.059,2.79Z" transform="translate(-233.493 -138.357)" fill="#091022"/>
          <path id="Trazado_997621" data-name="Trazado 997621" d="M257.37,211.481l.058-2.787h4.236l-.059,2.787Z" transform="translate(-247.776 -134.099)" fill="#091022"/>
          <path id="Trazado_997622" data-name="Trazado 997622" d="M209.958,192.927l.059-2.789h21.538l-.059,2.789Z" transform="translate(-154.135 -140.408)" fill="#091022"/>
          <path id="Trazado_997623" data-name="Trazado 997623" d="M209.742,186.666l.059-2.789h37.093l-.059,2.789Z" transform="translate(-169.184 -142.537)" fill="#091022"/>
          <path id="Trazado_997624" data-name="Trazado 997624" d="M209.45,180.4l.059-2.789h31.26l-.059,2.789Z" transform="translate(-162.668 -144.666)" fill="#091022"/>
          <path id="Trazado_997625" data-name="Trazado 997625" d="M227.1,192.927l.059-2.789H231.4l-.059,2.789Z" transform="translate(-176.951 -140.408)" fill="#091022"/>
          <path id="Trazado_997626" data-name="Trazado 997626" d="M240.078,192.927l.058-2.789h21.536l-.058,2.789Z" transform="translate(-224.613 -140.408)" fill="#091022"/>
          <path id="Trazado_997627" data-name="Trazado 997627" d="M239.861,186.666l.059-2.789h37.093l-.058,2.789Z" transform="translate(-239.663 -142.537)" fill="#fc721a"/>
          <path id="Trazado_997628" data-name="Trazado 997628" d="M239.569,180.4l.059-2.789h31.26l-.059,2.789Z" transform="translate(-233.146 -144.666)" fill="#fff"/>
          <path id="Trazado_997629" data-name="Trazado 997629" d="M257.222,192.927l.058-2.789h4.236l-.058,2.789Z" transform="translate(-247.429 -140.408)" fill="#091022"/>
          <path id="Trazado_997630" data-name="Trazado 997630" d="M209.811,174.371l.058-2.789h21.536l-.058,2.789Z" transform="translate(-153.788 -146.717)" fill="#091022"/>
          <path id="Trazado_997631" data-name="Trazado 997631" d="M209.593,168.108l.058-2.787h37.094l-.059,2.787Z" transform="translate(-168.836 -148.846)" fill="#091022"/>
          <path id="Trazado_997632" data-name="Trazado 997632" d="M209.3,161.849l.058-2.789h31.26l-.058,2.789Z" transform="translate(-162.32 -150.974)" fill="#091022"/>
          <path id="Trazado_997633" data-name="Trazado 997633" d="M226.954,174.371l.059-2.789h4.236l-.059,2.789Z" transform="translate(-176.603 -146.717)" fill="#091022"/>
          <path id="Trazado_997634" data-name="Trazado 997634" d="M239.929,174.371l.059-2.789h21.536l-.059,2.789Z" transform="translate(-224.266 -146.717)" fill="#091022"/>
          <path id="Trazado_997635" data-name="Trazado 997635" d="M239.712,168.108l.059-2.787h37.094l-.059,2.787Z" transform="translate(-239.315 -148.846)" fill="#091022"/>
          <path id="Trazado_997636" data-name="Trazado 997636" d="M239.421,161.849l.059-2.789h31.26l-.058,2.789Z" transform="translate(-232.8 -150.974)" fill="#091022"/>
          <path id="Trazado_997637" data-name="Trazado 997637" d="M257.073,174.371l.059-2.789h4.236l-.059,2.789Z" transform="translate(-247.082 -146.717)" fill="#091022"/>
          <path id="Trazado_997638" data-name="Trazado 997638" d="M209.6,236.178l.058-2.789h31.26l-.058,2.789Z" transform="translate(-163.015 -125.703)" fill="#091022"/>
          <path id="Trazado_997639" data-name="Trazado 997639" d="M239.717,236.178l.059-2.789h31.26l-.059,2.789Z" transform="translate(-233.493 -125.703)" fill="#091022"/>
          <path id="Trazado_997640" data-name="Trazado 997640" d="M209.958,230.144l.059-2.789h21.538l-.059,2.789Z" transform="translate(-154.135 -127.754)" fill="#091022"/>
          <path id="Trazado_997641" data-name="Trazado 997641" d="M209.742,223.883l.059-2.789h37.093l-.059,2.789Z" transform="translate(-169.184 -129.883)" fill="#091022"/>
          <path id="Trazado_997642" data-name="Trazado 997642" d="M209.45,217.622l.059-2.789h31.26l-.059,2.789Z" transform="translate(-162.668 -132.012)" fill="#425fec"/>
          <path id="Trazado_997643" data-name="Trazado 997643" d="M227.1,230.144l.059-2.789H231.4l-.059,2.789Z" transform="translate(-176.951 -127.754)" fill="#091022"/>
          <path id="Trazado_997644" data-name="Trazado 997644" d="M240.078,230.144l.058-2.789h21.536l-.058,2.789Z" transform="translate(-224.613 -127.754)" fill="#091022"/>
          <path id="Trazado_997645" data-name="Trazado 997645" d="M239.861,223.883l.059-2.789h37.093l-.058,2.789Z" transform="translate(-239.663 -129.883)" fill="#fc721a"/>
          <path id="Trazado_997646" data-name="Trazado 997646" d="M239.569,217.622l.059-2.789h31.26l-.059,2.789Z" transform="translate(-233.146 -132.012)" fill="#fff"/>
          <path id="Trazado_997647" data-name="Trazado 997647" d="M257.222,230.144l.058-2.789h4.236l-.058,2.789Z" transform="translate(-247.429 -127.754)" fill="#091022"/>
          <path id="Trazado_997648" data-name="Trazado 997648" d="M209.662,155.813l.059-2.787h21.536l-.059,2.787Z" transform="translate(-153.441 -153.026)" fill="#091022"/>
          <path id="Trazado_997649" data-name="Trazado 997649" d="M226.806,155.813l.059-2.787H231.1l-.058,2.787Z" transform="translate(-176.257 -153.026)" fill="#091022"/>
          <path id="Trazado_997650" data-name="Trazado 997650" d="M239.781,155.813l.058-2.787h21.536l-.059,2.787Z" transform="translate(-223.918 -153.026)" fill="#091022"/>
          <path id="Trazado_997651" data-name="Trazado 997651" d="M256.925,155.813l.058-2.787h4.236l-.058,2.787Z" transform="translate(-246.734 -153.026)" fill="#091022"/>
        </g>
      </g>
      <g id="Grupo_1163164" data-name="Grupo 1163164" transform="translate(0 66.065)">
        <g id="Grupo_1163163" data-name="Grupo 1163163" clip-path="url(#clip-path-2)">
          <g id="Grupo_1163092" data-name="Grupo 1163092" transform="translate(86.55 193.423)">
            <path id="Trazado_997652" data-name="Trazado 997652" d="M401.525,268.624s-3.235,6.469-4.027,9.961-2.23,8.723-.852,10.885,2.077-.222,2.846-1.609a63.185,63.185,0,0,1,4.087-6.118c1.229-1.562,7.823-4.962,8.308-8.268S401.525,268.624,401.525,268.624Z" transform="translate(-362.782 -244.732)" fill="#f8a3a2"/>
            <path id="Trazado_997653" data-name="Trazado 997653" d="M337.511,283.265a116.172,116.172,0,0,1-6.864-13.5s77.638-13.74,99.179-18.894c6.882-1.647,31.652,23.947,4.583,36.815-21.357,10.153-70.245-10.547-88.731-4.324C342.15,284.55,338.121,284.211,337.511,283.265Z" transform="translate(-309.994 -250.794)" fill="#f8a3a2"/>
            <g id="Grupo_1163091" data-name="Grupo 1163091" transform="translate(0 18.295)">
              <path id="Trazado_997654" data-name="Trazado 997654" d="M444.075,264.547s-3.7,11.97-12.918,10.656c-9.912-1.412-32.2,8.49-31.812,1.387.288-5.221,2.971-10.1,20.407-11.476A231.142,231.142,0,0,1,444.075,264.547Z" transform="translate(-399.335 -264.447)" fill="#f8a3a2"/>
              <path id="Trazado_997655" data-name="Trazado 997655" d="M405.982,275.667c.352,3.743,1.11,10.429,3.82,14,1.593,2.1,12.333,3.942,18.452,1.875,6.752-2.282,12.676-.444,13.513-3.12.675-2.157-4.494-2.349-6.9-5.318-5.164-6.37,4.8-8.959,4.8-8.959s-15.131-7.52-20.443-6.947C415.315,267.621,405.6,271.615,405.982,275.667Z" transform="translate(-405.971 -263.523)" fill="#f8a3a2"/>
              <path id="Trazado_997656" data-name="Trazado 997656" d="M420.1,288.757l-3.859-14.66S417.085,283.9,420.1,288.757Z" transform="translate(-398.006 -261.166)" fill="#091022"/>
              <path id="Trazado_997657" data-name="Trazado 997657" d="M430.585,289.539l-5.337-14.189S427.091,285.015,430.585,289.539Z" transform="translate(-420.561 -260.74)" fill="#091022"/>
              <path id="Trazado_997658" data-name="Trazado 997658" d="M426.857,290.347l-6.536-16.616S423.265,285.759,426.857,290.347Z" transform="translate(-410.228 -261.291)" fill="#091022"/>
            </g>
          </g>
          <g id="Grupo_1163093" data-name="Grupo 1163093" transform="translate(187.398 104.738)">
            <path id="Trazado_997659" data-name="Trazado 997659" d="M354.547,184.915c9.948,1.892,24.4,15.209,22.694,36.778s-17.258,70.172-33.554,102.734c0,0-26.8-18.357-44.773-54,0,0,8.624-43.409,18.836-61.133S343.572,182.827,354.547,184.915Z" transform="translate(-298.914 -184.612)" fill="#4560ec"/>
          </g>
          <g id="Grupo_1163148" data-name="Grupo 1163148" transform="translate(11.584 95.098)">
            <g id="Grupo_1163094" data-name="Grupo 1163094">
              <path id="Trazado_997660" data-name="Trazado 997660" d="M191.024,357.116,485.406,516.574a25.491,25.491,0,0,0,34.517-10.268l31.9-58.882-.043-.024,40.245-74.3a25.5,25.5,0,0,0-10.94-33.157L286.7,180.485a25.5,25.5,0,0,0-34.517,10.268L180.768,322.6A25.491,25.491,0,0,0,191.024,357.116Z" transform="translate(-177.696 -177.418)" fill="#101c3a"/>
            </g>
            <g id="Grupo_1163095" data-name="Grupo 1163095" transform="translate(5.651 5.654)">
              <path id="Trazado_997661" data-name="Trazado 997661" d="M192.283,350.7,486.67,510.164a19.8,19.8,0,0,0,26.843-7.988L584.93,370.329a19.8,19.8,0,0,0-7.978-26.839L282.565,184.03a19.8,19.8,0,0,0-26.839,7.978L184.31,323.855A19.8,19.8,0,0,0,192.283,350.7Z" transform="translate(-181.913 -181.637)" fill="#ebf4fb"/>
            </g>
            <g id="Grupo_1163096" data-name="Grupo 1163096" transform="translate(35.18 62.25)">
              <path id="Trazado_997662" data-name="Trazado 997662" d="M443.24,265.91l22.235-41.048a1.886,1.886,0,1,1,3.316,1.8l-22.234,41.048a1.886,1.886,0,1,1-3.316-1.8Z" transform="translate(-443.012 -223.873)" fill="#091022"/>
            </g>
            <g id="Grupo_1163101" data-name="Grupo 1163101" transform="translate(93.163 22.546)">
              <g id="Grupo_1163098" data-name="Grupo 1163098" transform="translate(0 2.602)">
                <g id="Grupo_1163097" data-name="Grupo 1163097">
                  <path id="Trazado_997663" data-name="Trazado 997663" d="M421.382,197.26l-.318-1.075-8.481,2.521.32,1.075Z" transform="translate(-412.584 -196.185)" fill="#091022"/>
                </g>
              </g>
              <g id="Grupo_1163100" data-name="Grupo 1163100" transform="translate(2.627 0)">
                <g id="Grupo_1163099" data-name="Grupo 1163099">
                  <rect id="Rectángulo_412052" data-name="Rectángulo 412052" width="8.846" height="1.119" transform="translate(2.521 8.798) rotate(-106.559)" fill="#091022"/>
                </g>
              </g>
            </g>
            <g id="Grupo_1163103" data-name="Grupo 1163103" transform="translate(26.957 151.615)">
              <g id="Grupo_1163102" data-name="Grupo 1163102" transform="translate(0 0)">
                <rect id="Rectángulo_412053" data-name="Rectángulo 412053" width="1.12" height="10.034" transform="translate(0.985 9.356) rotate(-151.556)" fill="#091022"/>
              </g>
            </g>
            <g id="Grupo_1163107" data-name="Grupo 1163107" transform="translate(145.342 62.97)">
              <path id="Trazado_997664" data-name="Trazado 997664" d="M373.413,310.78l28.748-53.073a3.078,3.078,0,0,0-1.242-4.174l-53.073-28.748a3.077,3.077,0,0,0-4.174,1.241L314.924,279.1a3.081,3.081,0,0,0,1.242,4.175l53.072,28.747A3.079,3.079,0,0,0,373.413,310.78Z" transform="translate(-314.552 -224.411)" fill="#425fec"/>
              <g id="Grupo_1163106" data-name="Grupo 1163106" transform="translate(21.878 26.401)">
                <g id="Grupo_1163104" data-name="Grupo 1163104" transform="translate(0)">
                  <path id="Trazado_997665" data-name="Trazado 997665" d="M350.95,268.777c6.652,3.677,14.842,1.538,18.292-4.776s.858-14.413-5.794-18.089-14.843-1.54-18.294,4.776S344.3,265.1,350.95,268.777Z" transform="translate(-343.627 -244.113)" fill="#fff"/>
                </g>
                <g id="Grupo_1163105" data-name="Grupo 1163105" transform="translate(26.826 11.347)">
                  <path id="Trazado_997666" data-name="Trazado 997666" d="M349.556,254.28c-8.919-4.93-13.265,1.605-17.893,10.073s-7.787,15.659,1.134,20.589Z" transform="translate(-327.122 -252.58)" fill="#fff"/>
                </g>
              </g>
            </g>
            <g id="Grupo_1163110" data-name="Grupo 1163110" transform="translate(226.17 106.754)">
              <path id="Trazado_997667" data-name="Trazado 997667" d="M313.094,343.453l28.748-53.073a3.078,3.078,0,0,0-1.241-4.174l-53.073-28.748a3.081,3.081,0,0,0-4.175,1.241L254.6,311.772a3.081,3.081,0,0,0,1.242,4.175l53.073,28.747A3.081,3.081,0,0,0,313.094,343.453Z" transform="translate(-254.231 -257.085)" fill="#fc721a"/>
              <g id="Grupo_1163109" data-name="Grupo 1163109" transform="translate(25.365 24.215)">
                <g id="Grupo_1163108" data-name="Grupo 1163108">
                  <path id="Trazado_997668" data-name="Trazado 997668" d="M301.722,315.5l-7.867-10.9a.777.777,0,0,1,.174-1.083l3.459-2.5a7.476,7.476,0,0,1,2.833-1.25,43.312,43.312,0,0,0-9.365-13.25,7.444,7.444,0,0,1-2.163,2.448l-3.46,2.5a.775.775,0,0,1-1.081-.176l-7.866-10.9a.776.776,0,0,1,.174-1.083l3.46-2.5c.13-.094.265-.173.4-.259a4.548,4.548,0,0,1,.389-.307c4.832-3.488,14.507,1.662,21.609,11.5,4.517,6.259,6.9,12.907,6.8,17.815a7.5,7.5,0,0,1-2.948,7.618l-3.459,2.5A.774.774,0,0,1,301.722,315.5Z" transform="translate(-276.238 -275.157)" fill="#fff"/>
                </g>
              </g>
            </g>
            <g id="Grupo_1163112" data-name="Grupo 1163112" transform="translate(100.907 145.329)">
              <path id="Trazado_997669" data-name="Trazado 997669" d="M406.784,371.842l28.441-52.505a3.4,3.4,0,0,0-1.372-4.614l-52.5-28.44a3.4,3.4,0,0,0-4.614,1.371L348.294,340.16a3.4,3.4,0,0,0,1.372,4.614l52.5,28.44A3.4,3.4,0,0,0,406.784,371.842Z" transform="translate(-347.883 -285.872)" fill="#390d9f"/>
              <g id="Grupo_1163111" data-name="Grupo 1163111" transform="translate(19.118 22.307)">
                <path id="Trazado_997670" data-name="Trazado 997670" d="M379.689,343.579a18.868,18.868,0,0,1-5.456-3.668l-4.165,2.277-4.141-6.25,3.714-2.953a18.787,18.787,0,0,1-1.26-6.455l-4.559-1.335,1.491-7.349,4.714.532a18.878,18.878,0,0,1,3.677-5.451l-2.277-4.166,6.24-4.145,2.955,3.715a18.747,18.747,0,0,1,6.453-1.26l.466-1.57.878-2.983L395.775,304l-.536,4.721a19.367,19.367,0,0,1,3.924,2.336c.532.417,1.037.866,1.533,1.333l4.161-2.269L409,316.364l-3.714,2.953a18.888,18.888,0,0,1,1.26,6.453l4.553,1.345-1.49,7.347-4.709-.54a18.856,18.856,0,0,1-3.677,5.451l2.271,4.175-6.236,4.135-2.953-3.715a19.218,19.218,0,0,1-6.459,1.268l-1.345,4.553-7.347-1.491Zm5.083-4.163a13.536,13.536,0,1,0-10.57-15.95A13.533,13.533,0,0,0,384.771,339.416Z" transform="translate(-363.823 -302.519)" fill="#fff"/>
              </g>
            </g>
            <g id="Grupo_1163115" data-name="Grupo 1163115" transform="translate(181.737 189.112)">
              <path id="Trazado_997671" data-name="Trazado 997671" d="M346.464,404.516l28.44-52.505a3.4,3.4,0,0,0-1.372-4.614l-52.5-28.44a3.4,3.4,0,0,0-4.614,1.372l-28.44,52.505a3.4,3.4,0,0,0,1.371,4.614l52.505,28.44A3.4,3.4,0,0,0,346.464,404.516Z" transform="translate(-287.563 -318.546)" fill="#390d9f"/>
              <g id="Grupo_1163113" data-name="Grupo 1163113" transform="translate(28.302 31.32)">
                <path id="Trazado_997672" data-name="Trazado 997672" d="M316.759,393.1l-25.68-36.942,29.642,1.55-8.2-14.629,31.68-1.16a1.561,1.561,0,0,1,1.431,2.3L319.415,392.95A1.56,1.56,0,0,1,316.759,393.1Z" transform="translate(-291.079 -341.919)" fill="#fff"/>
              </g>
              <g id="Grupo_1163114" data-name="Grupo 1163114" transform="translate(24.877 25.73)">
                <path id="Trazado_997673" data-name="Trazado 997673" d="M334.446,338.361a4.884,4.884,0,1,1-6.638,1.906A4.885,4.885,0,0,1,334.446,338.361Z" transform="translate(-327.195 -337.748)" fill="#fff"/>
              </g>
            </g>
            <g id="Grupo_1163116" data-name="Grupo 1163116" transform="translate(307.001 150.538)">
              <path id="Trazado_997674" data-name="Trazado 997674" d="M252.773,376.127l28.748-53.073a3.079,3.079,0,0,0-1.241-4.174l-53.073-28.748a3.081,3.081,0,0,0-4.175,1.242l-28.748,53.072a3.081,3.081,0,0,0,1.241,4.175L248.6,377.368A3.08,3.08,0,0,0,252.773,376.127Z" transform="translate(-193.911 -289.759)" fill="#7109b5"/>
              <path id="Trazado_997675" data-name="Trazado 997675" d="M214.6,339.521l-2.11-27.962a1.346,1.346,0,0,1,1.983-1.285l26.683,14.453a1.346,1.346,0,0,1,.007,2.364L216.591,340.6A1.346,1.346,0,0,1,214.6,339.521Z" transform="translate(-178.772 -282.841)" fill="#fff"/>
            </g>
            <g id="Grupo_1163118" data-name="Grupo 1163118" transform="translate(262.567 232.895)">
              <path id="Trazado_997676" data-name="Trazado 997676" d="M286.143,437.19l28.44-52.505a3.4,3.4,0,0,0-1.372-4.614l-52.5-28.44A3.4,3.4,0,0,0,256.094,353l-28.44,52.505a3.4,3.4,0,0,0,1.371,4.614l52.505,28.44A3.4,3.4,0,0,0,286.143,437.19Z" transform="translate(-227.242 -351.22)" fill="#fc721a"/>
              <g id="Grupo_1163117" data-name="Grupo 1163117" transform="translate(19.102 15.824)">
                <path id="Trazado_997677" data-name="Trazado 997677" d="M285.823,391.24,280.282,363.8a.943.943,0,0,0-1.726-.323l-.009.017L256.73,403.771a.122.122,0,0,1-.009.019.943.943,0,0,0,1.214,1.268L283.7,394.806A3.06,3.06,0,0,0,285.823,391.24Z" transform="translate(-256.618 -363.029)" fill="#fff"/>
                <path id="Trazado_997678" data-name="Trazado 997678" d="M247.805,383.416l16.711-6.349a.937.937,0,0,0,.113-1.7l-20.206-10.945a.937.937,0,0,0-1.364,1.009l3.493,17.293A.94.94,0,0,0,247.805,383.416Z" transform="translate(-217.638 -362.594)" fill="#fff"/>
                <path id="Trazado_997679" data-name="Trazado 997679" d="M246.272,415c.125.017.271-.082.406-.264L268.253,374.9a.5.5,0,0,0,0-.484c-.1-.11-.284-.118-.544-.046-.076.023-.166.059-.265.1l-18.078,6.87a1.284,1.284,0,0,0-.8,1.45l.862,4.277a4.421,4.421,0,0,1-2.7,4.993l-4.236,1.688a1.288,1.288,0,0,0-.779,1.463l4.163,19.079c.023.1.042.2.064.276C246.017,414.825,246.125,414.976,246.272,415Z" transform="translate(-219.008 -359.187)" fill="#fff"/>
                <path id="Trazado_997680" data-name="Trazado 997680" d="M260.1,397.995l19.981,10.823a.937.937,0,0,0,1.36-1.024l-3.768-17.271a.935.935,0,0,0-1.261-.67L260.2,396.3A.936.936,0,0,0,260.1,397.995Z" transform="translate(-256.194 -353.931)" fill="#fff"/>
              </g>
            </g>
            <g id="Grupo_1163147" data-name="Grupo 1163147" transform="translate(40.022 30.028)">
              <path id="Trazado_997681" data-name="Trazado 997681" d="M371.57,340.794l39.846,21.49a1.069,1.069,0,0,0,.158.075l.072.039a2.5,2.5,0,0,0,3.141-1.116l73.823-136.289a2.483,2.483,0,0,0-1-3.37L465.87,209.893l-18.117-9.766a2.49,2.49,0,0,0-3.371,1L370.559,337.418A2.493,2.493,0,0,0,371.57,340.794Z" transform="translate(-370.26 -199.827)" fill="#425fec"/>
              <path id="Trazado_997682" data-name="Trazado 997682" d="M370.259,353.435l11.8,6.369.072.039a2.5,2.5,0,0,0,3.141-1.116L459.1,222.438a2.483,2.483,0,0,0-1-3.37l-21.739-11.729-25.728,24.673-9.8,60.541-24.657,22.868Z" transform="translate(-340.743 -197.273)" fill="#63e1dd"/>
              <g id="Grupo_1163119" data-name="Grupo 1163119" transform="translate(4.781 103.455)">
                <path id="Trazado_997683" data-name="Trazado 997683" d="M439.17,309.682l16.982-31.352a2.472,2.472,0,1,1,4.354,2.344l-16.983,31.352a2.472,2.472,0,1,1-4.352-2.344Z" transform="translate(-438.871 -277.032)" fill="#fff"/>
              </g>
              <g id="Grupo_1163123" data-name="Grupo 1163123" transform="translate(20.654 106.782)">
                <g id="Grupo_1163120" data-name="Grupo 1163120" transform="translate(3.572)">
                  <path id="Trazado_997684" data-name="Trazado 997684" d="M440.186,279.719a.4.4,0,0,1,.7.377.4.4,0,0,1-.543.162A.4.4,0,0,1,440.186,279.719Z" transform="translate(-440.137 -279.515)" fill="#cae6ee"/>
                </g>
                <g id="Grupo_1163121" data-name="Grupo 1163121" transform="translate(1.785 3.298)">
                  <path id="Trazado_997685" data-name="Trazado 997685" d="M441.519,282.18a.4.4,0,0,1,.7.377.4.4,0,0,1-.544.162A.392.392,0,0,1,441.519,282.18Z" transform="translate(-441.469 -281.976)" fill="#cae6ee"/>
                </g>
                <g id="Grupo_1163122" data-name="Grupo 1163122" transform="translate(0 6.595)">
                  <path id="Trazado_997686" data-name="Trazado 997686" d="M442.85,284.641a.4.4,0,0,1,.7.377.4.4,0,0,1-.544.162A.4.4,0,0,1,442.85,284.641Z" transform="translate(-442.801 -284.437)" fill="#cae6ee"/>
                </g>
              </g>
              <g id="Grupo_1163126" data-name="Grupo 1163126" transform="translate(6.542 135.198)">
                <g id="Grupo_1163124" data-name="Grupo 1163124">
                  <path id="Trazado_997687" data-name="Trazado 997687" d="M452.663,301.2a.92.92,0,0,1,1.616.878.78.78,0,0,1-.413.371l0,.009a.848.848,0,0,1-.366.094l-.009-.005a.856.856,0,0,1-.457-.107A.911.911,0,0,1,452.663,301.2Zm1.273.69a.529.529,0,1,0-.725.216A.538.538,0,0,0,453.937,301.889Z" transform="translate(-452.551 -300.721)" fill="#cae6ee"/>
                </g>
                <g id="Grupo_1163125" data-name="Grupo 1163125" transform="translate(0.897 1.541)">
                  <rect id="Rectángulo_412054" data-name="Rectángulo 412054" width="1.152" height="0.387" transform="translate(0.33 1.215) rotate(-106.625)" fill="#cae6ee"/>
                </g>
              </g>
              <path id="Trazado_997688" data-name="Trazado 997688" d="M426.771,276.634a5.974,5.974,0,1,0-2.415-8.086A5.991,5.991,0,0,0,426.771,276.634Z" transform="translate(-388.467 -177.528)" fill="#fff"/>
              <g id="Grupo_1163145" data-name="Grupo 1163145" transform="translate(45.8 17.77)">
                <g id="Grupo_1163127" data-name="Grupo 1163127" transform="translate(17.094 59.02)">
                  <path id="Trazado_997689" data-name="Trazado 997689" d="M411.675,259.116l.7-1.286-1.288-.7-.7,1.286Z" transform="translate(-410.387 -257.133)" fill="#fff"/>
                </g>
                <g id="Grupo_1163128" data-name="Grupo 1163128" transform="translate(44.046 9.262)">
                  <path id="Trazado_997690" data-name="Trazado 997690" d="M391.562,221.983l.7-1.286-1.288-.7-.7,1.286Z" transform="translate(-390.273 -220)" fill="#fff"/>
                </g>
                <g id="Grupo_1163129" data-name="Grupo 1163129" transform="translate(0 49.758)">
                  <path id="Trazado_997691" data-name="Trazado 997691" d="M424.432,252.2l.7-1.286-1.288-.7-.7,1.286Z" transform="translate(-423.144 -250.221)" fill="#fff"/>
                </g>
                <g id="Grupo_1163130" data-name="Grupo 1163130" transform="translate(13.464 24.9)">
                  <path id="Trazado_997692" data-name="Trazado 997692" d="M414.385,233.655l.7-1.288-1.288-.7-.7,1.286Z" transform="translate(-413.096 -231.67)" fill="#fff"/>
                </g>
                <g id="Grupo_1163131" data-name="Grupo 1163131" transform="translate(30.581 34.12)">
                  <path id="Trazado_997693" data-name="Trazado 997693" d="M401.609,240.534l.7-1.286-1.288-.7-.7,1.286Z" transform="translate(-400.321 -238.551)" fill="#fff"/>
                </g>
                <g id="Grupo_1163132" data-name="Grupo 1163132" transform="translate(35.356 4.552)">
                  <path id="Trazado_997694" data-name="Trazado 997694" d="M398.047,218.47l.7-1.286-1.288-.7-.7,1.286Z" transform="translate(-396.759 -216.485)" fill="#fff"/>
                </g>
                <g id="Grupo_1163133" data-name="Grupo 1163133" transform="translate(8.283 54.246)">
                  <path id="Trazado_997695" data-name="Trazado 997695" d="M418.251,255.555l.7-1.286-1.289-.7-.7,1.286Z" transform="translate(-416.963 -253.57)" fill="#fff"/>
                </g>
                <g id="Grupo_1163134" data-name="Grupo 1163134" transform="translate(26.951)">
                  <path id="Trazado_997696" data-name="Trazado 997696" d="M404.319,215.071l.7-1.286-1.288-.7-.7,1.286Z" transform="translate(-403.03 -213.088)" fill="#fff"/>
                </g>
                <g id="Grupo_1163135" data-name="Grupo 1163135" transform="translate(13.408 13.987)">
                  <path id="Trazado_997697" data-name="Trazado 997697" d="M402.408,226.675l.157-.289,1.56-2.86,1.337.724-1.541,2.846,7.2,3.9-.858,1.581-7.209-3.9-1.369,2.506-.171.316-1.337-.725Z" transform="translate(-391.766 -223.526)" fill="#fff"/>
                  <path id="Trazado_997698" data-name="Trazado 997698" d="M404.935,237.77a4.218,4.218,0,0,1-1.5-1.341l-.009-.005a3.592,3.592,0,0,1-.056-3.78,3.985,3.985,0,0,1,.851-1.093,3.618,3.618,0,0,1,4.3-.461,3.754,3.754,0,0,1,1.395,5.406,3.794,3.794,0,0,1-2.49,2.052l-.493-1.331a2.637,2.637,0,0,0,1.663-1.39,2.228,2.228,0,0,0-.409-2.955l-2.785,5.116C405.243,237.915,405.053,237.835,404.935,237.77Zm2.234-5.462a2.054,2.054,0,0,0-2.593.99,2.016,2.016,0,0,0,.591,2.705Z" transform="translate(-394.744 -221.125)" fill="#fff"/>
                  <path id="Trazado_997699" data-name="Trazado 997699" d="M409.4,241.068l-.115-.261-4.516.721.9-1.654,3.007-.438-1.266-2.755.921-1.7,1.52,3.323,0,.013.367.831,4.691-.744-.91,1.682-3.184.461,1.353,2.894-.934,1.726Z" transform="translate(-401.715 -219.631)" fill="#fff"/>
                  <path id="Trazado_997700" data-name="Trazado 997700" d="M414.873,248.076l-.7-.836a1.592,1.592,0,0,0,.736-.712.966.966,0,0,0-.486-1.431l-3.1-1.679-.958,1.749-1.219-.661.949-1.754-1.49-.808.821-1.517,1.5.811.588-1.084,1.214.67-.583,1.075,3.136,1.7a1.775,1.775,0,0,1,.288.18,2.23,2.23,0,0,1,.694,3.251,2.723,2.723,0,0,1-1.241,1.233Z" transform="translate(-408.602 -217.872)" fill="#fff"/>
                </g>
                <g id="Grupo_1163144" data-name="Grupo 1163144" transform="translate(0.594 0.614)">
                  <g id="Grupo_1163136" data-name="Grupo 1163136" transform="translate(16.723 58.627)">
                    <path id="Trazado_997701" data-name="Trazado 997701" d="M411.606,258.447l.4-.737a.279.279,0,1,0-.492-.264l-.133.245-.247-.133a.279.279,0,1,0-.265.492Z" transform="translate(-410.722 -257.298)" fill="#fff"/>
                  </g>
                  <g id="Grupo_1163137" data-name="Grupo 1163137" transform="translate(18.54 11.764)">
                    <path id="Trazado_997702" data-name="Trazado 997702" d="M415.612,223.445l.529-.976a.277.277,0,0,1,.385-.107.273.273,0,0,1,.1.371l-.529.974a.273.273,0,0,1-.367.117A.276.276,0,0,1,415.612,223.445Zm-1.587,2.928.529-.976a.278.278,0,0,1,.386-.107.273.273,0,0,1,.1.37l-.529.977a.271.271,0,0,1-.366.117A.277.277,0,0,1,414.025,226.373Zm-1.591,2.936.533-.985a.284.284,0,0,1,.385-.106.272.272,0,0,1,.1.37l-.532.985a.271.271,0,0,1-.363.107A.279.279,0,0,1,412.435,229.309Zm-1.585,2.928.529-.977a.281.281,0,0,1,.39-.115.275.275,0,0,1,.1.379l-.524.967a.277.277,0,1,1-.493-.255Zm-1.585,2.927.528-.977a.279.279,0,0,1,.386-.106.272.272,0,0,1,.107.362l-.533.985a.273.273,0,0,1-.366.117A.278.278,0,0,1,409.264,235.164Zm-1.585,2.928.529-.977a.278.278,0,0,1,.385-.106.272.272,0,0,1,.1.37l-.529.977a.275.275,0,0,1-.367.117A.278.278,0,0,1,407.679,238.092Zm-1.587,2.927.529-.977a.279.279,0,0,1,.385-.107.274.274,0,0,1,.1.371l-.529.977a.285.285,0,0,1-.371.126A.28.28,0,0,1,406.092,241.018Zm-1.589,2.937.533-.985a.291.291,0,0,1,.385-.107.275.275,0,0,1,.1.371l-.532.985a.278.278,0,0,1-.488-.264Zm-1.587,2.927.529-.977a.286.286,0,0,1,.39-.117.276.276,0,0,1,.1.381l-.529.977a.274.274,0,0,1-.366.117A.277.277,0,0,1,402.917,246.882Zm-1.585,2.928.528-.977a.278.278,0,0,1,.386-.107.274.274,0,0,1,.1.371l-.524.967a.277.277,0,1,1-.492-.255Zm-1.585,2.927.529-.974a.277.277,0,0,1,.385-.107.272.272,0,0,1,.1.371l-.528.974a.274.274,0,0,1-.367.118A.279.279,0,0,1,399.746,252.736Zm-1.587,2.927.529-.976a.277.277,0,0,1,.385-.107.273.273,0,0,1,.1.371l-.529.976a.277.277,0,1,1-.488-.264Zm-1.585,2.928.528-.976a.285.285,0,0,1,.386-.107.28.28,0,0,1,.1.371l-.529.976a.289.289,0,0,1-.371.126A.282.282,0,0,1,396.574,258.591Zm-1.591,2.936.529-.975a.288.288,0,0,1,.39-.117.275.275,0,0,1,.1.379l-.529.977a.272.272,0,0,1-.367.117A.277.277,0,0,1,394.984,261.527Zm-1.587,2.928.529-.977a.287.287,0,0,1,.39-.115.282.282,0,0,1,.1.379l-.529.977a.271.271,0,0,1-.366.117A.28.28,0,0,1,393.4,264.455Zm-1.584,2.927.527-.977a.279.279,0,0,1,.386-.106.272.272,0,0,1,.1.37l-.528.977a.274.274,0,0,1-.367.117A.278.278,0,0,1,391.813,267.381Z" transform="translate(-391.779 -222.325)" fill="#fff"/>
                  </g>
                  <g id="Grupo_1163138" data-name="Grupo 1163138" transform="translate(43.699 9.054)">
                    <path id="Trazado_997703" data-name="Trazado 997703" d="M391.467,221.47l.4-.737-.738-.4a.279.279,0,1,0-.265.49l.247.133-.134.247a.277.277,0,0,0,.113.378A.281.281,0,0,0,391.467,221.47Z" transform="translate(-390.715 -220.303)" fill="#fff"/>
                  </g>
                  <g id="Grupo_1163139" data-name="Grupo 1163139" transform="translate(29.463 1.385)">
                    <path id="Trazado_997704" data-name="Trazado 997704" d="M392.6,214.725a.281.281,0,0,1,.375-.113l.949.515a.277.277,0,1,1-.264.488l-.949-.515A.269.269,0,0,1,392.6,214.725Zm2.845,1.541a.283.283,0,0,1,.381-.121l.949.513a.277.277,0,1,1-.264.488l-.949-.515A.274.274,0,0,1,395.45,216.266ZM398.3,217.8a.282.282,0,0,1,.371-.126l.958.519s.019.011.023.024a.274.274,0,0,1-.26.48l-.009,0a.033.033,0,0,1-.024,0l-.958-.519A.277.277,0,0,1,398.3,217.8Zm2.842,1.528a.282.282,0,0,1,.375-.111l.949.515a.277.277,0,1,1-.264.486l-.949-.513A.283.283,0,0,1,401.143,219.325Zm2.845,1.541a.279.279,0,0,1,.381-.121l.949.515a.278.278,0,1,1-.264.488l-.947-.515A.275.275,0,0,1,403.988,220.866Z" transform="translate(-392.569 -214.58)" fill="#fff"/>
                  </g>
                  <g id="Grupo_1163140" data-name="Grupo 1163140" transform="translate(26.806)">
                    <path id="Trazado_997705" data-name="Trazado 997705" d="M404.481,214.322a.277.277,0,0,0-.113-.378l-.738-.4-.4.737a.279.279,0,0,0,.492.265l.134-.247.247.133A.278.278,0,0,0,404.481,214.322Z" transform="translate(-403.197 -213.546)" fill="#fff"/>
                  </g>
                  <g id="Grupo_1163141" data-name="Grupo 1163141" transform="translate(1.422 2.541)">
                    <path id="Trazado_997706" data-name="Trazado 997706" d="M428.384,216.572l.529-.977a.286.286,0,0,1,.381-.121.278.278,0,0,1,.106.385l-.527.977a.278.278,0,0,1-.489-.264ZM426.8,219.5l.529-.977a.279.279,0,0,1,.38-.121.273.273,0,0,1,.111.375l-.528.977a.278.278,0,0,1-.381.121A.274.274,0,0,1,426.8,219.5Zm-1.587,2.927.529-.977a.277.277,0,0,1,.488.264l-.529.977a.277.277,0,0,1-.488-.264Zm-1.585,2.928.529-.977a.277.277,0,0,1,.486.264l-.527.977a.278.278,0,0,1-.489-.264Zm-1.585,2.927.529-.977a.277.277,0,0,1,.488.264l-.529.977a.292.292,0,0,1-.381.121A.283.283,0,0,1,422.042,228.28Zm-1.591,2.937.532-.985a.291.291,0,0,1,.377-.111.275.275,0,0,1,.111.375l-.533.985a.277.277,0,0,1-.486-.264Zm-1.585,2.927.529-.977a.277.277,0,1,1,.488.264l-.529.977a.277.277,0,0,1-.488-.264Zm-1.587,2.928.529-.977a.277.277,0,0,1,.488.264l-.529.977a.277.277,0,0,1-.488-.264ZM415.694,240l.528-.977a.277.277,0,0,1,.488.264l-.529.974a.276.276,0,1,1-.486-.261Zm-1.585,2.927.529-.977a.277.277,0,1,1,.488.264l-.529.974a.284.284,0,0,1-.381.122A.275.275,0,0,1,414.109,242.927Zm-1.592,2.936.533-.984a.277.277,0,0,1,.488.264l-.533.984a.289.289,0,0,1-.375.113A.278.278,0,0,1,412.517,245.863Zm-1.584,2.927.529-.974a.284.284,0,0,1,.381-.122.28.28,0,0,1,.107.386l-.529.976a.278.278,0,1,1-.488-.265Zm-1.587,2.928.529-.974a.277.277,0,1,1,.488.264l-.529.976a.278.278,0,1,1-.488-.265Zm-1.585,2.927.529-.977a.277.277,0,0,1,.488.264l-.529.977a.277.277,0,1,1-.488-.264Zm-1.585,2.928.529-.977a.277.277,0,1,1,.486.264l-.528.977a.277.277,0,1,1-.488-.264ZM404.59,260.5l.529-.977a.277.277,0,0,1,.488.264l-.529.977a.284.284,0,0,1-.381.121A.279.279,0,0,1,404.59,260.5Z" transform="translate(-404.553 -215.442)" fill="#fff"/>
                  </g>
                  <g id="Grupo_1163142" data-name="Grupo 1163142" transform="translate(0 49.408)">
                    <path id="Trazado_997707" data-name="Trazado 997707" d="M424.443,251.585a.278.278,0,0,0-.113-.378l-.247-.133.134-.247a.279.279,0,0,0-.492-.264l-.4.737.738.4A.278.278,0,0,0,424.443,251.585Z" transform="translate(-423.327 -250.418)" fill="#fff"/>
                  </g>
                  <g id="Grupo_1163143" data-name="Grupo 1163143" transform="translate(2.486 51.185)">
                    <path id="Trazado_997708" data-name="Trazado 997708" d="M412.737,251.887a.282.282,0,0,1,.375-.111l.949.515a.278.278,0,1,1-.264.488l-.953-.505A.28.28,0,0,1,412.737,251.887Zm2.846,1.542a.275.275,0,0,1,.375-.113l.954.505a.282.282,0,0,1-.269.5l-.949-.513A.285.285,0,0,1,415.583,253.43Zm2.85,1.532a.284.284,0,0,1,.373-.126l.957.519a.282.282,0,0,1-.268.5l-.958-.52A.274.274,0,0,1,418.433,254.961Zm2.842,1.528a.287.287,0,0,1,.375-.111l.949.513a.278.278,0,1,1-.264.488l-.949-.515A.284.284,0,0,1,421.275,256.489Zm2.846,1.541a.279.279,0,0,1,.381-.121l.949.513a.286.286,0,0,1,.121.382.293.293,0,0,1-.39.115l-.949-.515A.284.284,0,0,1,424.122,258.03Z" transform="translate(-412.7 -251.744)" fill="#fff"/>
                  </g>
                </g>
              </g>
              <g id="Grupo_1163146" data-name="Grupo 1163146" transform="translate(82.736 46.757)">
                <path id="Trazado_997709" data-name="Trazado 997709" d="M394.5,234.72l3.43,2.825-1.41.046.454.846-.793.437-.453-.844-.846,1.131Z" transform="translate(-394.504 -234.72)" fill="#fff"/>
              </g>
            </g>
          </g>
          <path id="Trazado_997710" data-name="Trazado 997710" d="M394.624,325.808c-12.56,14.231-6.377,125.969-40.019,143.594-18.055,9.459-77.491-18.158-76.815-49.861.441-20.757,29.459-95.58,39.023-112.255S416.717,300.776,394.624,325.808Z" transform="translate(-103.914 -40.942)" fill="#101c3a"/>
          <g id="Grupo_1163150" data-name="Grupo 1163150" transform="translate(261.463 266.209)">
            <path id="Trazado_997711" data-name="Trazado 997711" d="M324.087,351.393c-2.314,18.428,11.572,104.1-14.759,131.466-14.132,14.689-54.054,11.744-63.453-18.542-6.153-19.829-13.81-83.031-12.754-141.993C233.824,283,328.159,318.977,324.087,351.393Z" transform="translate(-233.023 -305.112)" fill="#101c3a"/>
            <g id="Grupo_1163149" data-name="Grupo 1163149" transform="translate(77.778 29.843)">
              <path id="Trazado_997712" data-name="Trazado 997712" d="M245.242,420.352a7.187,7.187,0,0,1-1.958-5.719c1.408-18.149-.832-86.561-.855-87.25l-1.475.05c.023.689,2.259,69.019.856,87.087a8.706,8.706,0,0,0,2.346,6.834Z" transform="translate(-240.954 -327.383)" fill="#fff"/>
            </g>
          </g>
          <path id="Trazado_997713" data-name="Trazado 997713" d="M249,223.687c-7.6,31.6,3.972,121.849-16.073,164.272,0,0,25-1.942,55.079-7.221,31.668-5.561,66.875,29.239,103.594,23.112,0-56.571-1.963-190.5-34.848-210.879C323.064,172.1,262.8,166.3,249,223.687Z" transform="translate(-37.313 -82.049)" fill="#390ba8"/>
          <path id="Trazado_997714" data-name="Trazado 997714" d="M282.769,164.506l1.66,26.8c1.169,2.567,7.434,15.9,33.528-.1l-3.966-39A278.658,278.658,0,0,1,282.769,164.506Z" transform="translate(-30.46 -90.895)" fill="#f8a3a2"/>
          <path id="Trazado_997715" data-name="Trazado 997715" d="M288.134,181.918c13,10.361,25.861-5.544,26.824-15.415-13.566,8.273-22.233,5.373-25.855,7.709C287.537,175.22,287.975,179.911,288.134,181.918Z" transform="translate(-34.411 -86.031)" fill="#1a1122"/>
          <path id="Trazado_997716" data-name="Trazado 997716" d="M297.442,191.021c8.756,1.264,26.519-8.237,31.268-15.7,1.692-2.661,2.341-10.31,1.746-14.142-1.887-12.013-3.219-22.852-11.646-27.344-3.554-1.884-13.174-2.176-16.735-1.986-11.74.661-15.371,9.467-17.2,21.072C282.822,165.937,282,188.794,297.442,191.021Z" transform="translate(-44.51 -97.831)" fill="#f8a3a2"/>
          <g id="Grupo_1163151" data-name="Grupo 1163151" transform="translate(242.899 52.776)">
            <path id="Trazado_997717" data-name="Trazado 997717" d="M317.247,165.935l.6-1.351c-1.644-.726-4.151-2.24-4.311-3.187-.012-.07-.031-.189.178-.385,4.666-4.354,4.366-11.122,4.35-11.407l-.009-.178-.089-.154a7.641,7.641,0,0,0-7.85-3.3l.256,1.454a6.07,6.07,0,0,1,6.223,2.446c.009,1.079-.138,6.565-3.887,10.063a1.844,1.844,0,0,0-.627,1.711C312.429,163.712,316.446,165.58,317.247,165.935Z" transform="translate(-310.113 -145.834)" fill="#091022"/>
          </g>
          <path id="Trazado_997718" data-name="Trazado 997718" d="M276.689,155.578a8.268,8.268,0,1,0,9.411-6.937A8.268,8.268,0,0,0,276.689,155.578Z" transform="translate(2.638 -92.136)" fill="#f8a3a2"/>
          <g id="Grupo_1163152" data-name="Grupo 1163152" transform="translate(285.029 59.732)">
            <path id="Trazado_997719" data-name="Trazado 997719" d="M282.342,161.9a4.388,4.388,0,0,0,3.424-.7l-.8-1.245c-.017.011-1.785,1.079-2.507.316-.13-.139-.029-.386.47-1.147.559-.851,1.4-2.139.394-3.414a7.432,7.432,0,0,0-.834-.842c-.4-.367-.954-.87-.941-1.162.007-.151.2-.382.508-.616a3.151,3.151,0,0,1,3.342-.192l.749-1.273a4.615,4.615,0,0,0-4.979.284,2.329,2.329,0,0,0-1.093,1.727,3.188,3.188,0,0,0,1.423,2.322,6.008,6.008,0,0,1,.667.665c.3.378.143.753-.47,1.69-.506.773-1.273,1.94-.312,2.965A2.235,2.235,0,0,0,282.342,161.9Z" transform="translate(-280.077 -151.025)" fill="#091022"/>
          </g>
          <g id="Grupo_1163153" data-name="Grupo 1163153" transform="translate(257.04 54.675)">
            <path id="Trazado_997720" data-name="Trazado 997720" d="M298.8,149.465c.023-.025,2.345-2.523,8.49,1.931l.867-1.2c-7.361-5.329-10.366-1.835-10.491-1.683l1.142.938-.571-.469Z" transform="translate(-297.669 -147.251)" fill="#091022"/>
          </g>
          <g id="Grupo_1163154" data-name="Grupo 1163154" transform="translate(209.659 133.058)">
            <path id="Trazado_997721" data-name="Trazado 997721" d="M333.961,222.378l1.473-.129c-.825-9.5,7.7-15.212,7.791-15.268l-.809-1.235C342.031,206,333.06,212.005,333.961,222.378Z" transform="translate(-333.897 -205.746)" fill="#fff"/>
          </g>
          <g id="Grupo_1163155" data-name="Grupo 1163155" transform="translate(243.502 239.655)">
            <path id="Trazado_997722" data-name="Trazado 997722" d="M287.964,318.093c.307-.047,30.8-5.042,37.11-32.464l-1.439-.332c-6.088,26.46-35.6,31.29-35.9,31.337Z" transform="translate(-287.739 -285.296)" fill="#fff"/>
          </g>
          <path id="Trazado_997723" data-name="Trazado 997723" d="M319,156.313l.758,9.829a10.889,10.889,0,0,0,3.153.31c1.473-9.722,9.308-6.687,9.308-6.687,9.044-10.224,1.647-30.486-6.98-31.063,0,0-5.1-12.471-23.849-10.061s-18.646,13.789-18.646,13.789-5.333,1.331-5.927,10.053,3.893,18.68,3.893,18.68l1.122-7.576s17.8.295,28.645-9.306C311.377,154.208,319,156.313,319,156.313Z" transform="translate(-40.813 -102.409)" fill="#101c3a"/>
          <g id="Grupo_1163160" data-name="Grupo 1163160" transform="translate(146.813 109.131)">
            <path id="Trazado_997724" data-name="Trazado 997724" d="M285.859,187.894c10.126.172,26.354,7.85,28.346,29.393s1.5,69.164-9.021,104.026c0,0-25.48-27.023-62.029-36.449,0,0,2.555-51.766,9.6-70.97S274.692,187.7,285.859,187.894Z" transform="translate(-121.363 -187.89)" fill="#4560ec"/>
            <g id="Grupo_1163156" data-name="Grupo 1163156" transform="translate(166.188 64.711)">
              <path id="Trazado_997725" data-name="Trazado 997725" d="M253.742,266.284c6.561-4.295,15.858-13.346,15.693-30.1l-1.477.015a33.019,33.019,0,0,1-20.991,31.944l.464,1.4A31.138,31.138,0,0,0,253.742,266.284Z" transform="translate(-246.967 -236.182)" fill="#fff"/>
            </g>
            <path id="Trazado_997726" data-name="Trazado 997726" d="M250.71,258.953c-1.641,2.626,11,13.486,28.236,24.257s32.539,17.369,34.181,14.743-11-13.487-28.236-24.257S252.352,256.326,250.71,258.953Z" transform="translate(-129.436 -163.925)"/>
            <g id="Grupo_1163157" data-name="Grupo 1163157" transform="translate(183.003 26.865)">
              <path id="Trazado_997727" data-name="Trazado 997727" d="M242.283,315.366c.268-.7,19.477-67.7,9.561-107.427l-1.434.358c9.75,39.064-9.239,105.847-9.506,106.538Z" transform="translate(-240.904 -207.939)" fill="#fff"/>
            </g>
            <path id="Trazado_997728" data-name="Trazado 997728" d="M315.082,290.06a159.48,159.48,0,0,1-17.569,32.668c-10.82,15.344-36.574-18.458-41.947-22.046s11.29-40.8,11.29-40.8S293.392,270.711,315.082,290.06Z" transform="translate(-136.516 -163.412)" fill="#f8a3a2"/>
            <g id="Grupo_1163158" data-name="Grupo 1163158" transform="translate(120.574 54.396)">
              <rect id="Rectángulo_412055" data-name="Rectángulo 412055" width="1.418" height="40.762" transform="translate(1.41 40.684) rotate(-173.95)" fill="#fff"/>
            </g>
            <g id="Grupo_1163159" data-name="Grupo 1163159" transform="translate(0 79.29)">
              <path id="Trazado_997729" data-name="Trazado 997729" d="M289.033,277.408c-1.185-4.111-5.018-7.082-4.039-11.667.813-3.806.185-6.416-.21-8.942-5.5,1.2-14.4,2.062-20.582,1.009-5.13-.874-4.044-3.871-1.475-4.41,5.838-1.225,18.854-5.755,26-6.167a.791.791,0,0,1,.185.013c4.921-1.021,22.487,2.494,25.6,4.084,4.643,2.372,4.087,5.225,15.9,10.908,19.019,11.8,82.815,20.869,90.08,25.217,23.331,13.962,4.048,53.088-21.281,46.191-20.179-5.493-61.6-39.17-76.087-54.245l-.007.016c-7.525-7.854-14.35,2.471-20.514,2.968S290.219,281.518,289.033,277.408Z" transform="translate(-260.575 -247.062)" fill="#f8a3a2"/>
            </g>
          </g>
          <path id="Trazado_997730" data-name="Trazado 997730" d="M300.627,152.846a2.283,2.283,0,1,0,2.616-1.891A2.284,2.284,0,0,0,300.627,152.846Z" transform="translate(-41.558 -91.327)" fill="#091022"/>
          <path id="Trazado_997731" data-name="Trazado 997731" d="M313.163,150.648a2.282,2.282,0,1,0,2.614-1.892A2.281,2.281,0,0,0,313.163,150.648Z" transform="translate(-70.891 -92.074)" fill="#091022"/>
          <g id="Grupo_1163161" data-name="Grupo 1163161" transform="translate(259.14 321.801)">
            <path id="Trazado_997732" data-name="Trazado 997732" d="M308.034,451.248a7.185,7.185,0,0,1-3-5.246c-2.034-18.053-11.625-98.746-11.7-99.4l-1.466.181c.079.654,9.669,81.342,11.7,99.388a8.709,8.709,0,0,0,3.594,6.27Z" transform="translate(-291.863 -346.599)" fill="#fff"/>
          </g>
          <g id="Grupo_1163162" data-name="Grupo 1163162" transform="translate(245.21 77.598)">
            <path id="Trazado_997733" data-name="Trazado 997733" d="M303.767,164.525a7.107,7.107,0,0,0,14.006,2.278,6.983,6.983,0,0,0,.088-2.445A75.608,75.608,0,0,1,303.767,164.525Z" transform="translate(-303.732 -164.358)" fill="#091022"/>
            <path id="Trazado_997734" data-name="Trazado 997734" d="M303.861,170.154c-.007.08-.012.162-.017.244a7.111,7.111,0,0,0,11.363-4.005C315.5,165.116,304.3,164.652,303.861,170.154Z" transform="translate(-301.166 -163.946)" fill="#fc721a"/>
          </g>
        </g>
      </g>
      <g id="Grupo_1163165" data-name="Grupo 1163165" transform="translate(74.99 418.532)">
        <rect id="Rectángulo_412056" data-name="Rectángulo 412056" width="371.582" height="2.822" fill="#131313"/>
      </g>
      <g id="Grupo_1163166" data-name="Grupo 1163166" transform="translate(87.507 363.122)">
        <path id="Trazado_997736" data-name="Trazado 997736" d="M409.9,347.954c.461,10.984,12.106,6.455,12.106,6.455,1.245,9.475,10.062,6.9,10.062,6.9a17.483,17.483,0,0,0,5.992,4.2c1.93-.213,7.651-5.31,4.147-11.373s-8.386-2.321-8.386-2.321c1.185-5.462-2.676-9.885-5.138-10.354-2.419-.457-5.262,3.72-5.376,3.887a9.025,9.025,0,0,0-3.767-6.983c-3.737-2.665-7.887,1.2-8.094,1.39a10.5,10.5,0,0,0,.614-5.637c-.476-2.03-1.934-3.272-3.682-4.942-2.937-2.811-11.37-.206-9.294,11.346S409.9,347.954,409.9,347.954Z" transform="translate(-398.762 -328.133)" fill="#f8a3a2"/>
        <path id="Trazado_997737" data-name="Trazado 997737" d="M415.669,341.239a9.763,9.763,0,0,0-1.7,3.887,8.821,8.821,0,0,0-.172,2.14,6.8,6.8,0,0,0,.421,2.092,13.875,13.875,0,0,1-.064-2.092,13.317,13.317,0,0,1,.264-2.049,18.5,18.5,0,0,1,.527-2.007C415.159,342.55,415.392,341.89,415.669,341.239Z" transform="translate(-391.242 -323.677)" fill="#d17f80"/>
        <path id="Trazado_997738" data-name="Trazado 997738" d="M407.981,346.19a9.744,9.744,0,0,0-1.7,3.887,8.755,8.755,0,0,0-.173,2.14,6.781,6.781,0,0,0,.422,2.09,14.034,14.034,0,0,1-.063-2.089,13.165,13.165,0,0,1,.264-2.05,18.21,18.21,0,0,1,.527-2.007C407.47,347.5,407.7,346.841,407.981,346.19Z" transform="translate(-373.248 -321.994)" fill="#d17f80"/>
        <path id="Trazado_997739" data-name="Trazado 997739" d="M424.436,336.813a9.759,9.759,0,0,0-1.7,3.887,8.762,8.762,0,0,0-.173,2.141,6.852,6.852,0,0,0,.421,2.092,14.255,14.255,0,0,1-.064-2.092,13.332,13.332,0,0,1,.264-2.049,18.55,18.55,0,0,1,.528-2.009C423.927,338.124,424.16,337.464,424.436,336.813Z" transform="translate(-411.757 -325.182)" fill="#d17f80"/>
      </g>
      <g id="Grupo_1163168" data-name="Grupo 1163168" transform="translate(88.23 32.269)">
        <path id="Trazado_997740" data-name="Trazado 997740" d="M355.458,81.228h98.8a4.645,4.645,0,0,1,4.644,4.643v67.18a4.644,4.644,0,0,1-4.644,4.643H439.04l3.074,18.547L410.2,157.694H355.458a4.644,4.644,0,0,1-4.644-4.643V85.871A4.645,4.645,0,0,1,355.458,81.228Z" transform="translate(-350.814 -81.228)" fill="#7145fe"/>
        <g id="Grupo_1163167" data-name="Grupo 1163167" transform="translate(16.715 15.894)">
          <path id="Trazado_997741" data-name="Trazado 997741" d="M363.625,127.117l26.914-11.7v-6.48L363.625,97.286v7.633L382.4,112.1l-18.772,7.445Z" transform="translate(-316.334 -91.662)" fill="#fff"/>
          <path id="Trazado_997742" data-name="Trazado 997742" d="M400.939,133.687l-9.72-40.6h-5.651l9.828,40.6Z" transform="translate(-356.138 -93.089)" fill="#fff"/>
          <path id="Trazado_997743" data-name="Trazado 997743" d="M425.838,127.13v-7.578l-18.8-7.391,18.8-7.31V97.326L398.9,108.975V115.4Z" transform="translate(-398.897 -91.648)" fill="#fff"/>
        </g>
      </g>
      <g id="Grupo_1163171" data-name="Grupo 1163171" transform="translate(289.266 0)">
        <path id="Trazado_997744" data-name="Trazado 997744" d="M284.484,81.538,271.715,60.093l-12.187,21.78Z" transform="translate(-255.11 -56.145)" fill="#63e1dd" fill-rule="evenodd"/>
        <g id="Grupo_1163170" data-name="Grupo 1163170" transform="translate(0)">
          <g id="Grupo_1163169" data-name="Grupo 1163169">
            <path id="Trazado_997745" data-name="Trazado 997745" d="M262.175,79.688,288,79.339,274.786,57.147l-.213.379Zm24.95-.84-24.085.324L274.8,58.152Z" transform="translate(-262.175 -57.147)" fill="#091022"/>
          </g>
        </g>
      </g>
      <g id="Grupo_1163172" data-name="Grupo 1163172" transform="translate(435.776 60.316)">
        <path id="Trazado_997746" data-name="Trazado 997746" d="M175.082,110.574l.036.145-11.844,2.935,3.3-11.495.614.131A11.562,11.562,0,0,1,175.082,110.574Z" transform="translate(-163.274 -102.159)" fill="#63e1dd"/>
      </g>
      <path id="Trazado_997747" data-name="Trazado 997747" d="M211.385,84.457a1.634,1.634,0,1,0-1.238-1.951A1.633,1.633,0,0,0,211.385,84.457Z" transform="translate(171.488 -48.959)" fill="#7109b5"/>
      <path id="Trazado_997748" data-name="Trazado 997748" d="M464.09,116.372a1.634,1.634,0,1,0-1.237-1.951A1.636,1.636,0,0,0,464.09,116.372Z" transform="translate(-419.844 -38.108)" fill="#fc721a"/>
      <path id="Trazado_997749" data-name="Trazado 997749" d="M251.913,118.69a1.634,1.634,0,1,0-1.24-1.952A1.633,1.633,0,0,0,251.913,118.69Z" transform="translate(76.654 -37.32)" fill="#425fec"/>
      <g id="Grupo_1163173" data-name="Grupo 1163173" transform="translate(70.442 135.774)">
        <path id="Trazado_997750" data-name="Trazado 997750" d="M437.8,158.471l9.314,1.442s0,0,0,0l-.059.582a8.624,8.624,0,0,1-2.789,5.127Z" transform="translate(-437.799 -158.471)" fill="#fc721a"/>
      </g>
      <path id="Trazado_997751" data-name="Trazado 997751" d="M333.294,94.157a2.964,2.964,0,1,0-.382,4.174A2.965,2.965,0,0,0,333.294,94.157Z" transform="translate(-107.162 -44.927)" fill="#7109b5"/>
      <path id="Trazado_997752" data-name="Trazado 997752" d="M407,64.109a2.3,2.3,0,1,0-.3,3.243A2.3,2.3,0,0,0,407,64.109Z" transform="translate(-281.044 -55.062)" fill="#425fec"/>
    </g>
  </g>
</svg>
