<svg xmlns="http://www.w3.org/2000/svg" xmlns:xlink="http://www.w3.org/1999/xlink" width="955.012" height="499.044" viewBox="0 0 955.012 499.044">
  <defs>
    <clipPath id="clip-path">
      <rect id="Rectángulo_412298" data-name="Rectángulo 412298" width="545.808" height="499.044" fill="none"/>
    </clipPath>
    <clipPath id="clip-path-3">
      <rect id="Rectángulo_412294" data-name="Rectángulo 412294" width="163.69" height="44.681" fill="none"/>
    </clipPath>
    <clipPath id="clip-path-4">
      <rect id="Rectángulo_412295" data-name="Rectángulo 412295" width="92.29" height="142.529" fill="none"/>
    </clipPath>
    <clipPath id="clip-path-5">
      <rect id="Rectángulo_412296" data-name="Rectángulo 412296" width="92.289" height="142.529" fill="none"/>
    </clipPath>
    <clipPath id="clip-path-6">
      <path id="path2065" d="M0-682.665H60.161V-622.5H0Z" transform="translate(0 682.665)" fill="#fff"/>
    </clipPath>
    <filter id="Trazado_1000326" x="384.136" y="214.522" width="174" height="174" filterUnits="userSpaceOnUse">
      <feOffset dy="3" input="SourceAlpha"/>
      <feGaussianBlur stdDeviation="3" result="blur"/>
      <feFlood flood-opacity="0.161"/>
      <feComposite operator="in" in2="blur"/>
      <feComposite in="SourceGraphic"/>
    </filter>
    <clipPath id="clip-path-7">
      <rect id="Rectángulo_412306" data-name="Rectángulo 412306" width="147.434" height="146.425" transform="translate(0 0)" fill="none"/>
    </clipPath>
  </defs>
  <g id="Grupo_1164547" data-name="Grupo 1164547" transform="translate(-329.864 -1159.478)">
    <g id="Grupo_1164038" data-name="Grupo 1164038" transform="translate(527 1159.478)">
      <g id="Grupo_1164037" data-name="Grupo 1164037" clip-path="url(#clip-path)">
        <g id="Grupo_1164036" data-name="Grupo 1164036">
          <g id="Grupo_1164035" data-name="Grupo 1164035" clip-path="url(#clip-path)">
            <path id="Trazado_998778" data-name="Trazado 998778" d="M299.1,472.073A87.667,87.667,0,0,1,242.794,317.2L92.134,404.184a87.682,87.682,0,0,1,79.733,155.93l.227.392,170.63-100.038-.013-.022a87.233,87.233,0,0,1-43.61,11.628" transform="translate(-25.245 -86.915)" fill="#00d7e1"/>
            <path id="Trazado_998779" data-name="Trazado 998779" d="M344.123,20.3A87.679,87.679,0,1,0,431.8,107.979,87.68,87.68,0,0,0,344.123,20.3m0,159a71.324,71.324,0,1,1,71.324-71.324A71.323,71.323,0,0,1,344.123,179.3" transform="translate(-70.267 -5.562)" fill="#0a62a5"/>
            <path id="Trazado_998780" data-name="Trazado 998780" d="M278.972,114.152A71.324,71.324,0,1,1,350.3,185.476a71.323,71.323,0,0,1-71.324-71.324" transform="translate(-76.44 -11.735)" fill="#0082d2"/>
            <g id="Grupo_1164028" data-name="Grupo 1164028" transform="translate(192.01)" opacity="0.7">
              <g id="Grupo_1164027" data-name="Grupo 1164027">
                <g id="Grupo_1164026" data-name="Grupo 1164026" clip-path="url(#clip-path-3)">
                  <path id="Trazado_998781" data-name="Trazado 998781" d="M379,2.867A2.867,2.867,0,1,1,376.133,0,2.866,2.866,0,0,1,379,2.867" transform="translate(-294.287)" fill="#0a62a5"/>
                  <path id="Trazado_998782" data-name="Trazado 998782" d="M361.075,3.666A2.866,2.866,0,1,1,357.859,1.2a2.866,2.866,0,0,1,3.216,2.468" transform="translate(-289.383 -0.322)" fill="#0a62a5"/>
                  <path id="Trazado_998783" data-name="Trazado 998783" d="M343.412,6.8A2.867,2.867,0,1,1,339.9,4.77,2.867,2.867,0,0,1,343.412,6.8" transform="translate(-284.563 -1.28)" fill="#0a62a5"/>
                  <path id="Trazado_998784" data-name="Trazado 998784" d="M326.306,12.208a2.866,2.866,0,1,1-3.745-1.551,2.866,2.866,0,0,1,3.745,1.551" transform="translate(-279.909 -2.86)" fill="#0a62a5"/>
                  <path id="Trazado_998785" data-name="Trazado 998785" d="M310.053,19.8a2.867,2.867,0,1,1-3.916-1.049,2.867,2.867,0,0,1,3.916,1.049" transform="translate(-275.501 -5.034)" fill="#0a62a5"/>
                  <path id="Trazado_998786" data-name="Trazado 998786" d="M294.932,29.458a2.866,2.866,0,1,1-4.019-.529,2.866,2.866,0,0,1,4.019.529" transform="translate(-271.415 -7.764)" fill="#0a62a5"/>
                  <path id="Trazado_998787" data-name="Trazado 998787" d="M281.2,41a2.867,2.867,0,1,1-4.054,0,2.865,2.865,0,0,1,4.054,0" transform="translate(-267.72 -11.005)" fill="#0a62a5"/>
                  <path id="Trazado_998788" data-name="Trazado 998788" d="M269.091,54.24a2.867,2.867,0,1,1-4.02.529,2.868,2.868,0,0,1,4.02-.529" transform="translate(-264.479 -14.7)" fill="#0a62a5"/>
                  <path id="Trazado_998789" data-name="Trazado 998789" d="M281.2,41a2.867,2.867,0,1,1-4.054,0,2.865,2.865,0,0,1,4.054,0" transform="translate(-267.72 -11.005)" fill="#0a62a5"/>
                  <path id="Trazado_998790" data-name="Trazado 998790" d="M269.091,54.24a2.867,2.867,0,1,1-4.02.529,2.868,2.868,0,0,1,4.02-.529" transform="translate(-264.479 -14.7)" fill="#0a62a5"/>
                  <path id="Trazado_998791" data-name="Trazado 998791" d="M391.188,3.666A2.866,2.866,0,1,0,394.4,1.2a2.866,2.866,0,0,0-3.216,2.468" transform="translate(-299.191 -0.322)" fill="#0a62a5"/>
                  <path id="Trazado_998792" data-name="Trazado 998792" d="M408.854,6.8a2.867,2.867,0,1,0,3.51-2.027,2.867,2.867,0,0,0-3.51,2.027" transform="translate(-304.012 -1.28)" fill="#0a62a5"/>
                  <path id="Trazado_998793" data-name="Trazado 998793" d="M425.958,12.208a2.867,2.867,0,1,0,3.745-1.551,2.866,2.866,0,0,0-3.745,1.551" transform="translate(-308.665 -2.86)" fill="#0a62a5"/>
                  <path id="Trazado_998794" data-name="Trazado 998794" d="M442.21,19.8a2.867,2.867,0,1,0,3.917-1.049A2.868,2.868,0,0,0,442.21,19.8" transform="translate(-313.073 -5.034)" fill="#0a62a5"/>
                  <path id="Trazado_998795" data-name="Trazado 998795" d="M457.333,29.458a2.867,2.867,0,1,0,4.019-.529,2.867,2.867,0,0,0-4.019.529" transform="translate(-317.16 -7.764)" fill="#0a62a5"/>
                  <path id="Trazado_998796" data-name="Trazado 998796" d="M471.065,41a2.867,2.867,0,1,0,4.054,0,2.867,2.867,0,0,0-4.054,0" transform="translate(-320.855 -11.005)" fill="#0a62a5"/>
                  <path id="Trazado_998797" data-name="Trazado 998797" d="M483.174,54.24a2.867,2.867,0,1,0,4.019.529,2.866,2.866,0,0,0-4.019-.529" transform="translate(-324.095 -14.7)" fill="#0a62a5"/>
                </g>
              </g>
            </g>
            <path id="Trazado_998798" data-name="Trazado 998798" d="M621.022,438.2a87.679,87.679,0,1,0,32.093,119.772A87.678,87.678,0,0,0,621.022,438.2M638.941,549.79a71.312,71.312,0,1,1-26.1-97.415,71.313,71.313,0,0,1,26.1,97.415" transform="translate(-134.123 -116.847)" fill="#008cb4"/>
            <path id="Trazado_998799" data-name="Trazado 998799" d="M547.7,582.071a71.312,71.312,0,1,1,97.415-26.1,71.313,71.313,0,0,1-97.415,26.1" transform="translate(-140.301 -123.026)" fill="#00aae1"/>
            <path id="Trazado_998800" data-name="Trazado 998800" d="M78.953,458.554a71.312,71.312,0,1,1-26.1,97.415,71.312,71.312,0,0,1,26.1-97.415" transform="translate(-11.86 -123.026)" fill="#00d7e1"/>
            <g id="Grupo_1164031" data-name="Grupo 1164031" transform="translate(0 356.515)" opacity="0.7">
              <g id="Grupo_1164030" data-name="Grupo 1164030">
                <g id="Grupo_1164029" data-name="Grupo 1164029" clip-path="url(#clip-path-4)">
                  <path id="Trazado_998801" data-name="Trazado 998801" d="M19.8,612.492a2.867,2.867,0,1,1-1.049,3.916,2.866,2.866,0,0,1,1.049-3.916" transform="translate(-5.033 -524.236)" fill="#00aab4"/>
                  <path id="Trazado_998802" data-name="Trazado 998802" d="M29.458,627.614a2.867,2.867,0,1,1-.529,4.019,2.866,2.866,0,0,1,.529-4.019" transform="translate(-7.764 -528.322)" fill="#00aab4"/>
                  <path id="Trazado_998803" data-name="Trazado 998803" d="M41,641.347a2.867,2.867,0,1,1,0,4.054,2.867,2.867,0,0,1,0-4.054" transform="translate(-11.004 -532.018)" fill="#00aab4"/>
                  <path id="Trazado_998804" data-name="Trazado 998804" d="M54.239,653.456a2.866,2.866,0,1,1,.529,4.018,2.867,2.867,0,0,1-.529-4.018" transform="translate(-14.699 -535.258)" fill="#00aab4"/>
                  <path id="Trazado_998805" data-name="Trazado 998805" d="M68.945,663.732a2.866,2.866,0,1,1,1.05,3.915,2.865,2.865,0,0,1-1.05-3.915" transform="translate(-18.786 -537.988)" fill="#00aab4"/>
                  <path id="Trazado_998806" data-name="Trazado 998806" d="M84.865,672a2.866,2.866,0,1,1,1.551,3.745A2.866,2.866,0,0,1,84.865,672" transform="translate(-23.194 -540.162)" fill="#00aab4"/>
                  <path id="Trazado_998807" data-name="Trazado 998807" d="M101.73,678.122a2.867,2.867,0,1,1,2.027,3.511,2.867,2.867,0,0,1-2.027-3.511" transform="translate(-27.848 -541.741)" fill="#00aab4"/>
                  <path id="Trazado_998808" data-name="Trazado 998808" d="M119.249,681.988a2.867,2.867,0,1,1,2.468,3.217,2.867,2.867,0,0,1-2.468-3.217" transform="translate(-32.668 -542.7)" fill="#00aab4"/>
                  <path id="Trazado_998809" data-name="Trazado 998809" d="M101.73,678.122a2.867,2.867,0,1,1,2.027,3.511,2.867,2.867,0,0,1-2.027-3.511" transform="translate(-27.848 -541.741)" fill="#00aab4"/>
                  <path id="Trazado_998810" data-name="Trazado 998810" d="M119.249,681.988a2.867,2.867,0,1,1,2.468,3.217,2.867,2.867,0,0,1-2.468-3.217" transform="translate(-32.668 -542.7)" fill="#00aab4"/>
                  <path id="Trazado_998811" data-name="Trazado 998811" d="M14.4,601.536a2.867,2.867,0,1,0-3.746-1.551,2.868,2.868,0,0,0,3.746,1.551" transform="translate(-2.86 -519.828)" fill="#00aab4"/>
                  <path id="Trazado_998812" data-name="Trazado 998812" d="M8.281,584.672a2.866,2.866,0,1,0-3.511-2.026,2.865,2.865,0,0,0,3.511,2.026" transform="translate(-1.28 -515.174)" fill="#00aab4"/>
                  <path id="Trazado_998813" data-name="Trazado 998813" d="M4.414,567.153A2.866,2.866,0,1,0,1.2,564.686a2.866,2.866,0,0,0,3.216,2.468" transform="translate(-0.321 -510.354)" fill="#00aab4"/>
                  <path id="Trazado_998814" data-name="Trazado 998814" d="M2.866,549.279A2.866,2.866,0,1,0,0,546.414a2.866,2.866,0,0,0,2.866,2.865" transform="translate(0 -505.45)" fill="#00aab4"/>
                  <path id="Trazado_998815" data-name="Trazado 998815" d="M3.666,531.357A2.866,2.866,0,1,0,1.2,528.141a2.866,2.866,0,0,0,2.468,3.217" transform="translate(-0.322 -500.545)" fill="#00aab4"/>
                  <path id="Trazado_998816" data-name="Trazado 998816" d="M6.8,513.693a2.867,2.867,0,1,0-2.027-3.512A2.868,2.868,0,0,0,6.8,513.693" transform="translate(-1.28 -495.725)" fill="#00aab4"/>
                  <path id="Trazado_998817" data-name="Trazado 998817" d="M12.207,496.588a2.867,2.867,0,1,0-1.551-3.745,2.866,2.866,0,0,0,1.551,3.745" transform="translate(-2.86 -491.071)" fill="#00aab4"/>
                </g>
              </g>
            </g>
            <g id="Grupo_1164034" data-name="Grupo 1164034" transform="translate(453.519 356.515)" opacity="0.7">
              <g id="Grupo_1164033" data-name="Grupo 1164033">
                <g id="Grupo_1164032" data-name="Grupo 1164032" clip-path="url(#clip-path-5)">
                  <path id="Trazado_998818" data-name="Trazado 998818" d="M726.974,617.457a2.866,2.866,0,1,1,3.915-1.049,2.867,2.867,0,0,1-3.915,1.049" transform="translate(-652.321 -524.236)" fill="#008cb4"/>
                  <path id="Trazado_998819" data-name="Trazado 998819" d="M735.243,601.536a2.866,2.866,0,1,1,3.745-1.551,2.866,2.866,0,0,1-3.745,1.551" transform="translate(-654.495 -519.828)" fill="#008cb4"/>
                  <path id="Trazado_998820" data-name="Trazado 998820" d="M741.364,584.672a2.866,2.866,0,1,1,3.51-2.026,2.866,2.866,0,0,1-3.51,2.026" transform="translate(-656.075 -515.174)" fill="#008cb4"/>
                  <path id="Trazado_998821" data-name="Trazado 998821" d="M745.23,567.153a2.866,2.866,0,1,1,3.216-2.468,2.866,2.866,0,0,1-3.216,2.468" transform="translate(-657.034 -510.354)" fill="#008cb4"/>
                  <path id="Trazado_998822" data-name="Trazado 998822" d="M746.778,549.279a2.866,2.866,0,1,1,2.865-2.865,2.865,2.865,0,0,1-2.865,2.865" transform="translate(-657.355 -505.45)" fill="#008cb4"/>
                  <path id="Trazado_998823" data-name="Trazado 998823" d="M745.979,531.357a2.866,2.866,0,1,1,2.467-3.217,2.867,2.867,0,0,1-2.467,3.217" transform="translate(-657.033 -500.545)" fill="#008cb4"/>
                  <path id="Trazado_998824" data-name="Trazado 998824" d="M742.848,513.693a2.867,2.867,0,1,1,2.026-3.512,2.868,2.868,0,0,1-2.026,3.512" transform="translate(-656.075 -495.725)" fill="#008cb4"/>
                  <path id="Trazado_998825" data-name="Trazado 998825" d="M737.437,496.588a2.867,2.867,0,1,1,1.552-3.745,2.865,2.865,0,0,1-1.552,3.745" transform="translate(-654.495 -491.071)" fill="#008cb4"/>
                  <path id="Trazado_998826" data-name="Trazado 998826" d="M742.848,513.693a2.867,2.867,0,1,1,2.026-3.512,2.868,2.868,0,0,1-2.026,3.512" transform="translate(-656.075 -495.725)" fill="#008cb4"/>
                  <path id="Trazado_998827" data-name="Trazado 998827" d="M737.437,496.588a2.867,2.867,0,1,1,1.552-3.745,2.865,2.865,0,0,1-1.552,3.745" transform="translate(-654.495 -491.071)" fill="#008cb4"/>
                  <path id="Trazado_998828" data-name="Trazado 998828" d="M720.187,627.614a2.867,2.867,0,1,0,.529,4.019,2.866,2.866,0,0,0-.529-4.019" transform="translate(-649.591 -528.322)" fill="#008cb4"/>
                  <path id="Trazado_998829" data-name="Trazado 998829" d="M708.643,641.347a2.867,2.867,0,1,0,0,4.054,2.867,2.867,0,0,0,0-4.054" transform="translate(-646.351 -532.018)" fill="#008cb4"/>
                  <path id="Trazado_998830" data-name="Trazado 998830" d="M695.4,653.456a2.866,2.866,0,1,0-.529,4.018,2.865,2.865,0,0,0,.529-4.018" transform="translate(-642.655 -535.258)" fill="#008cb4"/>
                  <path id="Trazado_998831" data-name="Trazado 998831" d="M680.7,663.732a2.866,2.866,0,1,0-1.049,3.915,2.865,2.865,0,0,0,1.049-3.915" transform="translate(-638.569 -537.988)" fill="#008cb4"/>
                  <path id="Trazado_998832" data-name="Trazado 998832" d="M664.778,672a2.867,2.867,0,1,0-1.551,3.745A2.866,2.866,0,0,0,664.778,672" transform="translate(-634.161 -540.162)" fill="#008cb4"/>
                  <path id="Trazado_998833" data-name="Trazado 998833" d="M647.914,678.122a2.867,2.867,0,1,0-2.026,3.511,2.866,2.866,0,0,0,2.026-3.511" transform="translate(-629.507 -541.741)" fill="#008cb4"/>
                  <path id="Trazado_998834" data-name="Trazado 998834" d="M630.4,681.988a2.867,2.867,0,1,0-2.468,3.217,2.867,2.867,0,0,0,2.468-3.217" transform="translate(-624.687 -542.7)" fill="#008cb4"/>
                </g>
              </g>
            </g>
            <path id="Trazado_998835" data-name="Trazado 998835" d="M184.363,470.3a87.678,87.678,0,1,0-32.093,119.771A87.679,87.679,0,0,0,184.363,470.3m-40.276,105.6a71.312,71.312,0,1,1,26.1-97.414,71.312,71.312,0,0,1-26.1,97.414" transform="translate(-5.682 -116.848)" fill="#00aab4"/>
            <path id="Trazado_998836" data-name="Trazado 998836" d="M431.8,141.071a87.679,87.679,0,1,1-175.357,0V336.135a87.678,87.678,0,0,1,146.578-64.949L431.8,287.8Z" transform="translate(-70.267 -38.654)" fill="#0082d2"/>
            <path id="Trazado_998837" data-name="Trazado 998837" d="M585.816,406.761,436.049,320.293a87.665,87.665,0,0,1-15.289,141l.013.022L376.981,486.99l125.88,74.361.081-.139c-.142-.08-.286-.15-.426-.231a87.675,87.675,0,0,1,83.3-154.22" transform="translate(-103.295 -87.762)" fill="#00aae1"/>
            <path id="Trazado_998838" data-name="Trazado 998838" d="M332.651,334.816a55.346,55.346,0,0,1,78.818,26.545l10.371,3.224,4.452-9.572a71.341,71.341,0,0,0-109.935-28.17l9.98,1.816.009,10.41a56.047,56.047,0,0,1,6.307-4.253" transform="translate(-86.683 -85.346)" fill="#0a62a5"/>
            <path id="Trazado_998839" data-name="Trazado 998839" d="M322.48,441.384a55.352,55.352,0,0,1-16.419-81.533l-2.393-10.592-10.517.931a71.342,71.342,0,0,0,30.572,109.291l-3.417-9.55,9.01-5.213a56.081,56.081,0,0,1-6.836-3.335" transform="translate(-76.376 -95.699)" fill="#00aab4"/>
            <path id="Trazado_998840" data-name="Trazado 998840" d="M427.494,405.646a55.348,55.348,0,0,1-62.4,54.985L357.118,468l6.066,8.642a71.34,71.34,0,0,0,79.362-81.122l-6.562,7.735-9.02-5.2a55.9,55.9,0,0,1,.53,7.588" transform="translate(-97.853 -108.375)" fill="#008cb4"/>
          </g>
        </g>
      </g>
    </g>
    <g id="Trazado_1000314" data-name="Trazado 1000314" transform="translate(354.524 1425.297)" fill="#fff">
      <path d="M 146.669921875 39.5 L 20.00000190734863 39.5 C 17.36729431152344 39.5 14.81360721588135 38.98450088500977 12.40987777709961 37.96779251098633 C 10.08789825439453 36.98568725585938 8.002440452575684 35.57958221435547 6.211419105529785 33.78858184814453 C 4.420419216156006 31.99756240844727 3.014315128326416 29.9121036529541 2.032210826873779 27.59012413024902 C 1.015502572059631 25.1863956451416 0.5000026226043701 22.6327075958252 0.5000026226043701 20 C 0.5000026226043701 17.3672924041748 1.015502572059631 14.8136043548584 2.032210826873779 12.40987491607666 C 3.014315128326416 10.08789539337158 4.420419216156006 8.002437591552734 6.211419105529785 6.211416721343994 C 8.002440452575684 4.420416831970215 10.08789825439453 3.014312505722046 12.40987777709961 2.032208442687988 C 14.81360721588135 1.015499949455261 17.36729431152344 0.5 20.00000190734863 0.5 L 146.669921875 0.5 C 149.3026275634766 0.5 151.8563079833984 1.015499949455261 154.2600402832031 2.032208442687988 C 156.5820465087891 3.014312505722046 158.6674957275391 4.420416831970215 160.45849609375 6.211416721343994 C 162.2494964599609 8.002437591552734 163.6556091308594 10.08789539337158 164.6377105712891 12.40987491607666 C 165.6544189453125 14.8136043548584 166.169921875 17.3672924041748 166.169921875 20 C 166.169921875 22.6327075958252 165.6544189453125 25.1863956451416 164.6377105712891 27.59012413024902 C 163.6556091308594 29.9121036529541 162.2494964599609 31.99756240844727 160.45849609375 33.78858184814453 C 158.6674957275391 35.57958221435547 156.5820465087891 36.98568725585938 154.2600402832031 37.96779251098633 C 151.8563079833984 38.98450088500977 149.3026275634766 39.5 146.669921875 39.5 Z" stroke="none"/>
      <path d="M 20 1 C 17.4345703125 1 14.9464111328125 1.502216339111328 12.60462951660156 2.492694854736328 C 10.34226989746094 3.449607849121094 8.310226440429688 4.819717407226562 6.564956665039062 6.564979553222656 C 4.819717407226562 8.310216903686523 3.449615478515625 10.34226036071777 2.492706298828125 12.60465240478516 C 1.502227783203125 14.94641304016113 1 17.4345645904541 1 20 C 1 22.5654354095459 1.502227783203125 25.05358695983887 2.492706298828125 27.39534759521484 C 3.449615478515625 29.65773773193359 4.819717407226562 31.68978118896484 6.564956665039062 33.43502044677734 C 8.310226440429688 35.18028259277344 10.34226989746094 36.55039215087891 12.60462951660156 37.50730514526367 C 14.9464111328125 38.49778366088867 17.4345703125 39 20 39 L 146.669921875 39 C 149.2353515625 39 151.7235107421875 38.49778366088867 154.0652618408203 37.50730514526367 C 156.3276519775391 36.55039215087891 158.3596954345703 35.18028259277344 160.1049346923828 33.43502044677734 C 161.8502044677734 31.68978118896484 163.2203063964844 29.65773773193359 164.1772155761719 27.39534759521484 C 165.1676940917969 25.05358695983887 165.669921875 22.5654354095459 165.669921875 20 C 165.669921875 17.4345645904541 165.1676940917969 14.94641304016113 164.1772155761719 12.60465240478516 C 163.2203063964844 10.34226036071777 161.8502044677734 8.310216903686523 160.1049346923828 6.564979553222656 C 158.3596954345703 4.819717407226562 156.3276519775391 3.449607849121094 154.0652618408203 2.492694854736328 C 151.7235107421875 1.502216339111328 149.2353515625 1 146.669921875 1 L 20 1 M 20 0 L 146.669921875 0 C 157.7156066894531 0 166.669921875 8.954303741455078 166.669921875 20 C 166.669921875 31.04569625854492 157.7156066894531 40 146.669921875 40 L 20 40 C 8.95428466796875 40 0 31.04569625854492 0 20 C 0 8.954303741455078 8.95428466796875 0 20 0 Z" stroke="none" fill="#6f6e88"/>
    </g>
    <g id="Trazado_1000315" data-name="Trazado 1000315" transform="translate(1093.546 1425.297)" fill="#fff">
      <path d="M 146.669921875 39.5 L 20.00000190734863 39.5 C 17.36729431152344 39.5 14.81360721588135 38.98450088500977 12.40987777709961 37.96779251098633 C 10.08789825439453 36.98568725585938 8.002440452575684 35.57958221435547 6.211419105529785 33.78858184814453 C 4.420419216156006 31.99756240844727 3.014315128326416 29.9121036529541 2.032210826873779 27.59012413024902 C 1.015502572059631 25.1863956451416 0.5000026226043701 22.6327075958252 0.5000026226043701 20 C 0.5000026226043701 17.3672924041748 1.015502572059631 14.8136043548584 2.032210826873779 12.40987491607666 C 3.014315128326416 10.08789539337158 4.420419216156006 8.002437591552734 6.211419105529785 6.211416721343994 C 8.002440452575684 4.420416831970215 10.08789825439453 3.014312505722046 12.40987777709961 2.032208442687988 C 14.81360721588135 1.015499949455261 17.36729431152344 0.5 20.00000190734863 0.5 L 146.669921875 0.5 C 149.3026275634766 0.5 151.8563079833984 1.015499949455261 154.2600402832031 2.032208442687988 C 156.5820465087891 3.014312505722046 158.6674957275391 4.420416831970215 160.45849609375 6.211416721343994 C 162.2494964599609 8.002437591552734 163.6556091308594 10.08789539337158 164.6377105712891 12.40987491607666 C 165.6544189453125 14.8136043548584 166.169921875 17.3672924041748 166.169921875 20 C 166.169921875 22.6327075958252 165.6544189453125 25.1863956451416 164.6377105712891 27.59012413024902 C 163.6556091308594 29.9121036529541 162.2494964599609 31.99756240844727 160.45849609375 33.78858184814453 C 158.6674957275391 35.57958221435547 156.5820465087891 36.98568725585938 154.2600402832031 37.96779251098633 C 151.8563079833984 38.98450088500977 149.3026275634766 39.5 146.669921875 39.5 Z" stroke="none"/>
      <path d="M 20 1 C 17.4345703125 1 14.9464111328125 1.502216339111328 12.60462951660156 2.492694854736328 C 10.34226989746094 3.449607849121094 8.310226440429688 4.819717407226562 6.564956665039062 6.564979553222656 C 4.819717407226562 8.310216903686523 3.449615478515625 10.34226036071777 2.492706298828125 12.60465240478516 C 1.502227783203125 14.94641304016113 1 17.4345645904541 1 20 C 1 22.5654354095459 1.502227783203125 25.05358695983887 2.492706298828125 27.39534759521484 C 3.449615478515625 29.65773773193359 4.819717407226562 31.68978118896484 6.564956665039062 33.43502044677734 C 8.310226440429688 35.18028259277344 10.34226989746094 36.55039215087891 12.60462951660156 37.50730514526367 C 14.9464111328125 38.49778366088867 17.4345703125 39 20 39 L 146.669921875 39 C 149.2353515625 39 151.7235107421875 38.49778366088867 154.0652618408203 37.50730514526367 C 156.3276519775391 36.55039215087891 158.3596954345703 35.18028259277344 160.1049346923828 33.43502044677734 C 161.8502044677734 31.68978118896484 163.2203063964844 29.65773773193359 164.1772155761719 27.39534759521484 C 165.1676940917969 25.05358695983887 165.669921875 22.5654354095459 165.669921875 20 C 165.669921875 17.4345645904541 165.1676940917969 14.94641304016113 164.1772155761719 12.60465240478516 C 163.2203063964844 10.34226036071777 161.8502044677734 8.310216903686523 160.1049346923828 6.564979553222656 C 158.3596954345703 4.819717407226562 156.3276519775391 3.449607849121094 154.0652618408203 2.492694854736328 C 151.7235107421875 1.502216339111328 149.2353515625 1 146.669921875 1 L 20 1 M 20 0 L 146.669921875 0 C 157.7156066894531 0 166.669921875 8.954303741455078 166.669921875 20 C 166.669921875 31.04569625854492 157.7156066894531 40 146.669921875 40 L 20 40 C 8.95428466796875 40 0 31.04569625854492 0 20 C 0 8.954303741455078 8.95428466796875 0 20 0 Z" stroke="none" fill="#6f6e88"/>
    </g>
    <g id="Trazado_1000316" data-name="Trazado 1000316" transform="translate(975.886 1222.297)" fill="#fff">
      <path d="M 180.9951019287109 39.5 L 20.00000953674316 39.5 C 17.36730766296387 39.5 14.81360816955566 38.98450088500977 12.40988349914551 37.96780014038086 C 10.08788394927979 36.98567581176758 8.002433776855469 35.5796012878418 6.211433410644531 33.78857421875 C 4.420408725738525 31.9975757598877 3.014333486557007 29.91212463378906 2.032208681106567 27.59012413024902 C 1.015508651733398 25.18639945983887 0.5000085830688477 22.63269996643066 0.5000085830688477 20 C 0.5000085830688477 17.36730003356934 1.015508651733398 14.81359958648682 2.032208681106567 12.40987491607666 C 3.014333486557007 10.08787536621094 4.420408725738525 8.002425193786621 6.211433410644531 6.211424827575684 C 8.002433776855469 4.420400142669678 10.08788394927979 3.014324903488159 12.40988349914551 2.03220009803772 C 14.81360816955566 1.015499949455261 17.36730766296387 0.5 20.00000953674316 0.5 L 180.9951019287109 0.5 C 183.6278076171875 0.5 186.1815032958984 1.015499949455261 188.5852355957031 2.03220009803772 C 190.9072265625 3.014324903488159 192.9926910400391 4.420400142669678 194.7836761474609 6.211424827575684 C 196.57470703125 8.002425193786621 197.9807891845703 10.08787536621094 198.9629058837891 12.40987491607666 C 199.9796142578125 14.81359958648682 200.4951019287109 17.36730003356934 200.4951019287109 20 C 200.4951019287109 22.63269996643066 199.9796142578125 25.18639945983887 198.9629058837891 27.59012413024902 C 197.9807891845703 29.91212463378906 196.57470703125 31.9975757598877 194.7836761474609 33.78857421875 C 192.9926910400391 35.5796012878418 190.9072265625 36.98567581176758 188.5852355957031 37.96780014038086 C 186.1815032958984 38.98450088500977 183.6278076171875 39.5 180.9951019287109 39.5 Z" stroke="none"/>
      <path d="M 20 1 C 17.43458557128906 1 14.94642639160156 1.502208709716797 12.60464477539062 2.492710113525391 C 10.34226989746094 3.449604034423828 8.310211181640625 4.819736480712891 6.564987182617188 6.564971923828125 C 4.819717407226562 8.310235977172852 3.449615478515625 10.34226226806641 2.492721557617188 12.60465812683105 C 1.502212524414062 14.94642066955566 1 17.43457984924316 1 20 C 1 22.56542015075684 1.502212524414062 25.05357933044434 2.492721557617188 27.39534187316895 C 3.449615478515625 29.65773773193359 4.819717407226562 31.68976211547852 6.564987182617188 33.43502807617188 C 8.310211181640625 35.18026351928711 10.34226989746094 36.55039596557617 12.60464477539062 37.50728988647461 C 14.94642639160156 38.4977912902832 17.43458557128906 39 20 39 L 180.9951171875 39 C 183.5605316162109 39 186.0486907958984 38.4977912902832 188.3904724121094 37.50728988647461 C 190.6528472900391 36.55039596557617 192.6849060058594 35.18026351928711 194.4301452636719 33.43502807617188 C 196.1753997802734 31.68976211547852 197.5455017089844 29.65773773193359 198.5023956298828 27.39534187316895 C 199.4929046630859 25.05357933044434 199.9951171875 22.56542015075684 199.9951171875 20 C 199.9951171875 17.43457984924316 199.4929046630859 14.94642066955566 198.5023956298828 12.60465812683105 C 197.5455017089844 10.34226226806641 196.1753997802734 8.310235977172852 194.4301452636719 6.564971923828125 C 192.6849060058594 4.819736480712891 190.6528472900391 3.449604034423828 188.3904724121094 2.492710113525391 C 186.0486907958984 1.502208709716797 183.5605316162109 1 180.9951171875 1 L 20 1 M 20 0 L 180.9951171875 0 C 192.0408172607422 0 200.9951171875 8.954315185546875 200.9951171875 20 C 200.9951171875 31.04568481445312 192.0408172607422 40 180.9951171875 40 L 20 40 C 8.954299926757812 40 0 31.04568481445312 0 20 C 0 8.954315185546875 8.954299926757812 0 20 0 Z" stroke="none" fill="#6f6e88"/>
    </g>
    <g id="Trazado_998841" data-name="Trazado 998841" transform="translate(329.864 1416.825)" fill="#fff">
      <path d="M 28.4150390625 56.330078125 C 24.64630889892578 56.330078125 20.99057960510254 55.59207916259766 17.54939842224121 54.13657760620117 C 14.2253589630127 52.73062896728516 11.23995876312256 50.71778869628906 8.676129341125488 48.15395736694336 C 6.112298965454102 45.59012985229492 4.099449157714844 42.60472869873047 2.693499088287354 39.28067779541016 C 1.237999081611633 35.83950042724609 0.499999076128006 32.18376922607422 0.499999076128006 28.4150390625 C 0.499999076128006 24.64630889892578 1.237999081611633 20.9905891418457 2.693499088287354 17.54939842224121 C 4.099449157714844 14.2253589630127 6.112298965454102 11.23995876312256 8.676129341125488 8.676129341125488 C 11.23995876312256 6.112298965454102 14.2253589630127 4.099449157714844 17.54939842224121 2.693499088287354 C 20.9905891418457 1.237999081611633 24.64630889892578 0.499999076128006 28.4150390625 0.499999076128006 C 32.18376922607422 0.499999076128006 35.8394889831543 1.237999081611633 39.28067779541016 2.693499088287354 C 42.60471725463867 4.099449157714844 45.59011840820312 6.112298965454102 48.15394973754883 8.676129341125488 C 50.71777725219727 11.23995876312256 52.73062896728516 14.2253589630127 54.13657760620117 17.54939842224121 C 55.59207916259766 20.9905891418457 56.330078125 24.64630889892578 56.330078125 28.4150390625 C 56.330078125 32.18376922607422 55.59207916259766 35.83950042724609 54.13657760620117 39.28067779541016 C 52.73062896728516 42.60472869873047 50.71777725219727 45.59012985229492 48.15394973754883 48.15395736694336 C 45.59011840820312 50.71778869628906 42.60471725463867 52.73062896728516 39.28067779541016 54.13657760620117 C 35.83950042724609 55.59207916259766 32.18376922607422 56.330078125 28.4150390625 56.330078125 Z" stroke="none"/>
      <path d="M 28.4150390625 1 C 24.71358871459961 1 21.12339019775391 1.724708557128906 17.74416732788086 3.153999328613281 C 14.47972869873047 4.534740447998047 11.54774856567383 6.511608123779297 9.029678344726562 9.029678344726562 C 6.511608123779297 11.54774856567383 4.534740447998047 14.47972869873047 3.153999328613281 17.74417877197266 C 1.724708557128906 21.12339782714844 1 24.71358871459961 1 28.4150390625 C 1 32.11648941040039 1.724708557128906 35.70668029785156 3.153999328613281 39.08589935302734 C 4.534740447998047 42.35034942626953 6.511608123779297 45.28232955932617 9.029678344726562 47.80039978027344 C 11.54774856567383 50.3184700012207 14.47972869873047 52.29533767700195 17.74416732788086 53.67607879638672 C 21.12339019775391 55.10536956787109 24.71358871459961 55.830078125 28.4150390625 55.830078125 C 32.11648941040039 55.830078125 35.70668029785156 55.10536956787109 39.08589935302734 53.67607879638672 C 42.35034942626953 52.29533767700195 45.28232955932617 50.3184700012207 47.80039978027344 47.80039978027344 C 50.3184700012207 45.28232955932617 52.29533767700195 42.35034942626953 53.67607879638672 39.08589935302734 C 55.10536956787109 35.70668029785156 55.830078125 32.11648941040039 55.830078125 28.4150390625 C 55.830078125 24.71358871459961 55.10536956787109 21.12339782714844 53.67607879638672 17.74417877197266 C 52.29533767700195 14.47972869873047 50.3184700012207 11.54774856567383 47.80039978027344 9.029678344726562 C 45.28232955932617 6.511608123779297 42.35034942626953 4.534740447998047 39.08589935302734 3.153999328613281 C 35.70668029785156 1.724708557128906 32.11648941040039 1 28.4150390625 1 M 28.4150390625 0 C 44.10823059082031 0 56.830078125 12.72184753417969 56.830078125 28.4150390625 C 56.830078125 44.10823059082031 44.10823059082031 56.830078125 28.4150390625 56.830078125 C 12.72183990478516 56.830078125 0 44.10823059082031 0 28.4150390625 C 0 12.72184753417969 12.72183990478516 0 28.4150390625 0 Z" stroke="none" fill="#6f6e88"/>
    </g>
    <g id="Trazado_998843" data-name="Trazado 998843" transform="translate(1228.046 1416.825)" fill="#fff">
      <path d="M 28.4150390625 56.330078125 C 24.64630889892578 56.330078125 20.99057960510254 55.59207916259766 17.54939842224121 54.13657760620117 C 14.2253589630127 52.73062896728516 11.23995876312256 50.71778869628906 8.676129341125488 48.15395736694336 C 6.112298965454102 45.59012985229492 4.099449157714844 42.60472869873047 2.693499088287354 39.28067779541016 C 1.237999081611633 35.83950042724609 0.499999076128006 32.18376922607422 0.499999076128006 28.4150390625 C 0.499999076128006 24.64630889892578 1.237999081611633 20.9905891418457 2.693499088287354 17.54939842224121 C 4.099449157714844 14.2253589630127 6.112298965454102 11.23995876312256 8.676129341125488 8.676129341125488 C 11.23995876312256 6.112298965454102 14.2253589630127 4.099449157714844 17.54939842224121 2.693499088287354 C 20.9905891418457 1.237999081611633 24.64630889892578 0.499999076128006 28.4150390625 0.499999076128006 C 32.18376922607422 0.499999076128006 35.83950042724609 1.237999081611633 39.28067779541016 2.693499088287354 C 42.60472869873047 4.099449157714844 45.59012985229492 6.112298965454102 48.15395736694336 8.676129341125488 C 50.71778869628906 11.23995876312256 52.73062896728516 14.2253589630127 54.13657760620117 17.54939842224121 C 55.59207916259766 20.99057960510254 56.330078125 24.64630889892578 56.330078125 28.4150390625 C 56.330078125 32.18376922607422 55.59207916259766 35.83950042724609 54.13657760620117 39.28067779541016 C 52.73062896728516 42.60472869873047 50.71778869628906 45.59012985229492 48.15395736694336 48.15395736694336 C 45.59012985229492 50.71778869628906 42.60472869873047 52.73062896728516 39.28067779541016 54.13657760620117 C 35.83950042724609 55.59207916259766 32.18376922607422 56.330078125 28.4150390625 56.330078125 Z" stroke="none"/>
      <path d="M 28.4150390625 1 C 24.71358871459961 1 21.12339782714844 1.724708557128906 17.74417877197266 3.153999328613281 C 14.47972869873047 4.534740447998047 11.54774856567383 6.511608123779297 9.029678344726562 9.029678344726562 C 6.511608123779297 11.54774856567383 4.534740447998047 14.47972869873047 3.153999328613281 17.74417877197266 C 1.724708557128906 21.12339782714844 1 24.71358871459961 1 28.4150390625 C 1 32.11648941040039 1.724708557128906 35.70668029785156 3.153999328613281 39.08589935302734 C 4.534740447998047 42.35034942626953 6.511608123779297 45.28232955932617 9.029678344726562 47.80039978027344 C 11.54774856567383 50.3184700012207 14.47972869873047 52.29533767700195 17.74417877197266 53.67607879638672 C 21.12339782714844 55.10536956787109 24.71358871459961 55.830078125 28.4150390625 55.830078125 C 32.11648941040039 55.830078125 35.70668029785156 55.10536956787109 39.08589935302734 53.67607879638672 C 42.35034942626953 52.29533767700195 45.28232955932617 50.3184700012207 47.80039978027344 47.80039978027344 C 50.3184700012207 45.28232955932617 52.29533767700195 42.35034942626953 53.67607879638672 39.08589935302734 C 55.10536956787109 35.70668029785156 55.830078125 32.11648941040039 55.830078125 28.4150390625 C 55.830078125 24.71358871459961 55.10536956787109 21.12339782714844 53.67607879638672 17.74417877197266 C 52.29533767700195 14.47972869873047 50.3184700012207 11.54774856567383 47.80039978027344 9.029678344726562 C 45.28232955932617 6.511608123779297 42.35034942626953 4.534740447998047 39.08589935302734 3.153999328613281 C 35.70668029785156 1.724708557128906 32.11648941040039 1 28.4150390625 1 M 28.4150390625 0 C 44.10823059082031 0 56.830078125 12.72184753417969 56.830078125 28.4150390625 C 56.830078125 44.10823059082031 44.10823059082031 56.830078125 28.4150390625 56.830078125 C 12.72184753417969 56.830078125 0 44.10823059082031 0 28.4150390625 C 0 12.72184753417969 12.72184753417969 0 28.4150390625 0 Z" stroke="none" fill="#6f6e88"/>
    </g>
    <g id="Trazado_998846" data-name="Trazado 998846" transform="translate(1148.466 1213.825)" fill="#fff">
      <path d="M 28.4150390625 56.330078125 C 24.64630889892578 56.330078125 20.99057960510254 55.59207916259766 17.54939842224121 54.13657760620117 C 14.2253589630127 52.73062896728516 11.23995876312256 50.71778869628906 8.676129341125488 48.15395736694336 C 6.112298965454102 45.59012985229492 4.099449157714844 42.60472869873047 2.693499088287354 39.28067779541016 C 1.237999081611633 35.83950042724609 0.499999076128006 32.18376922607422 0.499999076128006 28.4150390625 C 0.499999076128006 24.64630889892578 1.237999081611633 20.9905891418457 2.693499088287354 17.54939842224121 C 4.099449157714844 14.2253589630127 6.112298965454102 11.23995876312256 8.676129341125488 8.676129341125488 C 11.23995876312256 6.112298965454102 14.2253589630127 4.099449157714844 17.54939842224121 2.693499088287354 C 20.9905891418457 1.237999081611633 24.64630889892578 0.499999076128006 28.4150390625 0.499999076128006 C 32.18376922607422 0.499999076128006 35.83950042724609 1.237999081611633 39.28067779541016 2.693499088287354 C 42.60472869873047 4.099449157714844 45.59012985229492 6.112298965454102 48.15395736694336 8.676129341125488 C 50.71778869628906 11.23995876312256 52.73062896728516 14.2253589630127 54.13657760620117 17.54939842224121 C 55.59207916259766 20.99057960510254 56.330078125 24.64630889892578 56.330078125 28.4150390625 C 56.330078125 32.18376922607422 55.59207916259766 35.83950042724609 54.13657760620117 39.28067779541016 C 52.73062896728516 42.60472869873047 50.71778869628906 45.59012985229492 48.15395736694336 48.15395736694336 C 45.59012985229492 50.71778869628906 42.60472869873047 52.73062896728516 39.28067779541016 54.13657760620117 C 35.83950042724609 55.59207916259766 32.18376922607422 56.330078125 28.4150390625 56.330078125 Z" stroke="none"/>
      <path d="M 28.4150390625 1 C 24.71358871459961 1 21.12339782714844 1.724708557128906 17.74417877197266 3.153999328613281 C 14.47972869873047 4.534740447998047 11.54774856567383 6.511608123779297 9.029678344726562 9.029678344726562 C 6.511608123779297 11.54774856567383 4.534740447998047 14.47972869873047 3.153999328613281 17.74417877197266 C 1.724708557128906 21.12339782714844 1 24.71358871459961 1 28.4150390625 C 1 32.11648941040039 1.724708557128906 35.70668029785156 3.153999328613281 39.08589935302734 C 4.534740447998047 42.35034942626953 6.511608123779297 45.28232955932617 9.029678344726562 47.80039978027344 C 11.54774856567383 50.3184700012207 14.47972869873047 52.29533767700195 17.74417877197266 53.67607879638672 C 21.12339782714844 55.10536956787109 24.71358871459961 55.830078125 28.4150390625 55.830078125 C 32.11648941040039 55.830078125 35.70668029785156 55.10536956787109 39.08589935302734 53.67607879638672 C 42.35034942626953 52.29533767700195 45.28232955932617 50.3184700012207 47.80039978027344 47.80039978027344 C 50.3184700012207 45.28232955932617 52.29533767700195 42.35034942626953 53.67607879638672 39.08589935302734 C 55.10536956787109 35.70668029785156 55.830078125 32.11648941040039 55.830078125 28.4150390625 C 55.830078125 24.71358871459961 55.10536956787109 21.12339782714844 53.67607879638672 17.74417877197266 C 52.29533767700195 14.47972869873047 50.3184700012207 11.54774856567383 47.80039978027344 9.029678344726562 C 45.28232955932617 6.511608123779297 42.35034942626953 4.534740447998047 39.08589935302734 3.153999328613281 C 35.70668029785156 1.724708557128906 32.11648941040039 1 28.4150390625 1 M 28.4150390625 0 C 44.10823059082031 0 56.830078125 12.72184753417969 56.830078125 28.4150390625 C 56.830078125 44.10823059082031 44.10823059082031 56.830078125 28.4150390625 56.830078125 C 12.72184753417969 56.830078125 0 44.10823059082031 0 28.4150390625 C 0 12.72184753417969 12.72184753417969 0 28.4150390625 0 Z" stroke="none" fill="#6f6e88"/>
    </g>
    <path id="Trazado_1000317" data-name="Trazado 1000317" d="M8.051-11.268H3.129v4.359H7.682v1.327H3.129V0H1.652V-12.6h6.4ZM11.691,0H10.25V-13.324h1.441ZM21.844-4.14H15.49a3.366,3.366,0,0,0,.809,2.32A2.788,2.788,0,0,0,18.425-1,4.422,4.422,0,0,0,21.22-2V-.65a5.224,5.224,0,0,1-3.138.861,3.8,3.8,0,0,1-3-1.226A5.018,5.018,0,0,1,14-4.465a4.921,4.921,0,0,1,1.191-3.423,3.819,3.819,0,0,1,2.958-1.323,3.384,3.384,0,0,1,2.733,1.143A4.764,4.764,0,0,1,21.844-4.9ZM20.368-5.361a2.933,2.933,0,0,0-.6-1.942A2.051,2.051,0,0,0,18.118-8a2.328,2.328,0,0,0-1.731.729,3.311,3.311,0,0,0-.879,1.907ZM30.6-9,27.577-4.447,30.547,0H28.869L27.1-2.918q-.167-.272-.4-.686h-.035q-.044.079-.413.686L24.457,0H22.8l3.067-4.412L22.927-9h1.679l1.74,3.076q.193.343.378.7h.035L29.009-9Zm2.428-2.285a.913.913,0,0,1-.659-.264.89.89,0,0,1-.272-.668.9.9,0,0,1,.272-.672.905.905,0,0,1,.659-.268.931.931,0,0,1,.672.268.9.9,0,0,1,.277.672.891.891,0,0,1-.277.659A.923.923,0,0,1,33.028-11.285ZM33.731,0H32.289V-9h1.441Zm4.4-1.3h-.035V0H36.651V-13.324h1.441v5.906h.035a3.408,3.408,0,0,1,3.111-1.793A3.3,3.3,0,0,1,43.95-8a4.99,4.99,0,0,1,.98,3.239,5.578,5.578,0,0,1-1.1,3.617A3.658,3.658,0,0,1,40.825.211,2.96,2.96,0,0,1,38.127-1.3Zm-.035-3.63v1.257a2.676,2.676,0,0,0,.725,1.894A2.408,2.408,0,0,0,40.658-1a2.413,2.413,0,0,0,2.052-1,4.6,4.6,0,0,0,.743-2.786,3.629,3.629,0,0,0-.694-2.355A2.3,2.3,0,0,0,40.878-8a2.554,2.554,0,0,0-2.021.875A3.211,3.211,0,0,0,38.092-4.931Zm9.881-6.354a.913.913,0,0,1-.659-.264.89.89,0,0,1-.272-.668.9.9,0,0,1,.272-.672.905.905,0,0,1,.659-.268.931.931,0,0,1,.672.268.9.9,0,0,1,.277.672.891.891,0,0,1-.277.659A.923.923,0,0,1,47.973-11.285ZM48.676,0H47.234V-9h1.441Zm4.361,0H51.6V-13.324h1.441ZM56.7-11.285a.913.913,0,0,1-.659-.264.89.89,0,0,1-.272-.668.9.9,0,0,1,.272-.672.905.905,0,0,1,.659-.268.931.931,0,0,1,.672.268.9.9,0,0,1,.277.672.891.891,0,0,1-.277.659A.923.923,0,0,1,56.7-11.285ZM57.4,0H55.957V-9H57.4ZM68,0H66.558V-1.529h-.035A3.327,3.327,0,0,1,63.429.211,3.362,3.362,0,0,1,60.718-1,4.958,4.958,0,0,1,59.7-4.289a5.394,5.394,0,0,1,1.125-3.577,3.71,3.71,0,0,1,3-1.345,2.885,2.885,0,0,1,2.7,1.459h.035v-5.572H68ZM66.558-4.069V-5.4a2.575,2.575,0,0,0-.721-1.846A2.417,2.417,0,0,0,64.009-8a2.489,2.489,0,0,0-2.074.967,4.237,4.237,0,0,0-.756,2.672A3.81,3.81,0,0,0,61.9-1.9a2.37,2.37,0,0,0,1.947.9,2.462,2.462,0,0,0,1.956-.87A3.242,3.242,0,0,0,66.558-4.069ZM77.362,0H75.92V-1.406h-.035A3.018,3.018,0,0,1,73.117.211a2.959,2.959,0,0,1-2.1-.712,2.466,2.466,0,0,1-.76-1.89q0-2.522,2.971-2.936l2.7-.378Q75.92-8,74.066-8A4.431,4.431,0,0,0,71.13-6.891V-8.367a5.577,5.577,0,0,1,3.059-.844q3.173,0,3.173,3.357ZM75.92-4.553l-2.171.3a3.525,3.525,0,0,0-1.512.5,1.432,1.432,0,0,0-.51,1.261,1.374,1.374,0,0,0,.47,1.077A1.817,1.817,0,0,0,73.451-1a2.314,2.314,0,0,0,1.771-.751,2.685,2.685,0,0,0,.7-1.9ZM87.761,0H86.32V-1.529h-.035A3.327,3.327,0,0,1,83.191.211,3.362,3.362,0,0,1,80.479-1a4.958,4.958,0,0,1-1.015-3.292,5.394,5.394,0,0,1,1.125-3.577,3.71,3.71,0,0,1,3-1.345,2.885,2.885,0,0,1,2.7,1.459h.035v-5.572h1.441ZM86.32-4.069V-5.4A2.575,2.575,0,0,0,85.6-7.242,2.417,2.417,0,0,0,83.771-8a2.489,2.489,0,0,0-2.074.967,4.237,4.237,0,0,0-.756,2.672A3.81,3.81,0,0,0,81.666-1.9a2.37,2.37,0,0,0,1.947.9,2.462,2.462,0,0,0,1.956-.87A3.242,3.242,0,0,0,86.32-4.069Z" transform="translate(396.524 1451.297)" fill="#212429"/>
    <path id="Trazado_1000318" data-name="Trazado 1000318" d="M11.021-12.6,6.354,0H4.729L.158-12.6H1.8L5.291-2.61a5.934,5.934,0,0,1,.255,1.116h.035a5.475,5.475,0,0,1,.29-1.134L9.431-12.6Zm2.357,1.318a.913.913,0,0,1-.659-.264.89.89,0,0,1-.272-.668.9.9,0,0,1,.272-.672.905.905,0,0,1,.659-.268.931.931,0,0,1,.672.268.9.9,0,0,1,.277.672.891.891,0,0,1-.277.659A.923.923,0,0,1,13.379-11.285ZM14.082,0H12.64V-9h1.441Zm2.375-.325V-1.872A4.266,4.266,0,0,0,19.049-1q1.9,0,1.9-1.266a1.1,1.1,0,0,0-.163-.611,1.62,1.62,0,0,0-.439-.444,3.383,3.383,0,0,0-.65-.347q-.374-.154-.8-.321a10.357,10.357,0,0,1-1.05-.479,3.173,3.173,0,0,1-.756-.545,2.028,2.028,0,0,1-.457-.69,2.441,2.441,0,0,1-.154-.905,2.15,2.15,0,0,1,.29-1.121,2.572,2.572,0,0,1,.773-.817,3.607,3.607,0,0,1,1.1-.5,4.893,4.893,0,0,1,1.279-.167,5.164,5.164,0,0,1,2.092.4v1.459A4.077,4.077,0,0,0,19.726-8,2.671,2.671,0,0,0,19-7.906a1.786,1.786,0,0,0-.558.259,1.2,1.2,0,0,0-.36.4,1.053,1.053,0,0,0-.127.514,1.233,1.233,0,0,0,.127.589,1.3,1.3,0,0,0,.374.422,2.855,2.855,0,0,0,.6.334q.352.149.8.325a11.131,11.131,0,0,1,1.072.47,3.678,3.678,0,0,1,.809.545,2.129,2.129,0,0,1,.514.7,2.254,2.254,0,0,1,.18.94,2.217,2.217,0,0,1-.294,1.16,2.523,2.523,0,0,1-.787.817A3.6,3.6,0,0,1,20.21.053a5.6,5.6,0,0,1-1.345.158A5.106,5.106,0,0,1,16.457-.325Zm8.923-10.96a.913.913,0,0,1-.659-.264.89.89,0,0,1-.272-.668.9.9,0,0,1,.272-.672.905.905,0,0,1,.659-.268.931.931,0,0,1,.672.268.9.9,0,0,1,.277.672.891.891,0,0,1-.277.659A.923.923,0,0,1,25.379-11.285ZM26.083,0H24.641V-9h1.441Zm4.4-1.3h-.035V0H29V-13.324h1.441v5.906h.035A3.408,3.408,0,0,1,33.59-9.211,3.3,3.3,0,0,1,36.3-8a4.99,4.99,0,0,1,.98,3.239,5.578,5.578,0,0,1-1.1,3.617A3.658,3.658,0,0,1,33.177.211,2.96,2.96,0,0,1,30.479-1.3Zm-.035-3.63v1.257a2.676,2.676,0,0,0,.725,1.894A2.408,2.408,0,0,0,33.01-1a2.413,2.413,0,0,0,2.052-1,4.6,4.6,0,0,0,.743-2.786,3.629,3.629,0,0,0-.694-2.355A2.3,2.3,0,0,0,33.23-8a2.554,2.554,0,0,0-2.021.875A3.211,3.211,0,0,0,30.444-4.931Zm9.881-6.354a.913.913,0,0,1-.659-.264.89.89,0,0,1-.272-.668.9.9,0,0,1,.272-.672.905.905,0,0,1,.659-.268.931.931,0,0,1,.672.268.9.9,0,0,1,.277.672.891.891,0,0,1-.277.659A.923.923,0,0,1,40.324-11.285ZM41.028,0H39.586V-9h1.441Zm4.361,0H43.947V-13.324h1.441Zm3.658-11.285a.913.913,0,0,1-.659-.264.89.89,0,0,1-.272-.668.9.9,0,0,1,.272-.672.905.905,0,0,1,.659-.268.931.931,0,0,1,.672.268.9.9,0,0,1,.277.672.891.891,0,0,1-.277.659A.923.923,0,0,1,49.047-11.285ZM49.75,0H48.308V-9H49.75Zm10.6,0H58.91V-1.529h-.035A3.327,3.327,0,0,1,55.781.211,3.362,3.362,0,0,1,53.07-1a4.958,4.958,0,0,1-1.015-3.292,5.394,5.394,0,0,1,1.125-3.577,3.71,3.71,0,0,1,3-1.345,2.885,2.885,0,0,1,2.7,1.459h.035v-5.572h1.441ZM58.91-4.069V-5.4a2.575,2.575,0,0,0-.721-1.846A2.417,2.417,0,0,0,56.361-8a2.489,2.489,0,0,0-2.074.967,4.237,4.237,0,0,0-.756,2.672A3.81,3.81,0,0,0,54.256-1.9,2.37,2.37,0,0,0,56.2-1a2.462,2.462,0,0,0,1.956-.87A3.242,3.242,0,0,0,58.91-4.069ZM69.713,0H68.272V-1.406h-.035A3.018,3.018,0,0,1,65.468.211a2.959,2.959,0,0,1-2.1-.712,2.466,2.466,0,0,1-.76-1.89q0-2.522,2.971-2.936l2.7-.378Q68.272-8,66.418-8a4.431,4.431,0,0,0-2.936,1.107V-8.367a5.577,5.577,0,0,1,3.059-.844q3.173,0,3.173,3.357ZM68.272-4.553l-2.171.3a3.525,3.525,0,0,0-1.512.5A1.432,1.432,0,0,0,64.08-2.5a1.374,1.374,0,0,0,.47,1.077A1.817,1.817,0,0,0,65.8-1a2.314,2.314,0,0,0,1.771-.751,2.685,2.685,0,0,0,.7-1.9ZM80.113,0H78.671V-1.529h-.035A3.327,3.327,0,0,1,75.542.211,3.362,3.362,0,0,1,72.831-1a4.958,4.958,0,0,1-1.015-3.292,5.394,5.394,0,0,1,1.125-3.577,3.71,3.71,0,0,1,3-1.345,2.885,2.885,0,0,1,2.7,1.459h.035v-5.572h1.441ZM78.671-4.069V-5.4a2.575,2.575,0,0,0-.721-1.846A2.417,2.417,0,0,0,76.122-8a2.489,2.489,0,0,0-2.074.967,4.237,4.237,0,0,0-.756,2.672A3.81,3.81,0,0,0,74.018-1.9a2.37,2.37,0,0,0,1.947.9,2.462,2.462,0,0,0,1.956-.87A3.242,3.242,0,0,0,78.671-4.069Z" transform="translate(1124.216 1451.297)" fill="#212429"/>
    <path id="Trazado_1000319" data-name="Trazado 1000319" d="M10.23-.527A7.392,7.392,0,0,1,6.75.211,5.613,5.613,0,0,1,2.443-1.521,6.389,6.389,0,0,1,.826-6.064a6.7,6.7,0,0,1,1.819-4.887A6.175,6.175,0,0,1,7.26-12.814a7.4,7.4,0,0,1,2.971.519v1.573a6.024,6.024,0,0,0-2.988-.756,4.585,4.585,0,0,0-3.52,1.45A5.463,5.463,0,0,0,2.373-6.152,5.2,5.2,0,0,0,3.634-2.483,4.292,4.292,0,0,0,6.943-1.116,6.208,6.208,0,0,0,10.23-1.96ZM19.048,0H17.606V-1.406h-.035A3.018,3.018,0,0,1,14.8.211,2.959,2.959,0,0,1,12.7-.5a2.466,2.466,0,0,1-.76-1.89q0-2.522,2.971-2.936l2.7-.378Q17.606-8,15.752-8a4.431,4.431,0,0,0-2.936,1.107V-8.367a5.577,5.577,0,0,1,3.059-.844q3.173,0,3.173,3.357ZM17.606-4.553l-2.171.3a3.525,3.525,0,0,0-1.512.5,1.432,1.432,0,0,0-.51,1.261,1.374,1.374,0,0,0,.47,1.077A1.817,1.817,0,0,0,15.137-1a2.314,2.314,0,0,0,1.771-.751,2.685,2.685,0,0,0,.7-1.9ZM23.207,0H21.765V-13.324h1.441Zm3.658-11.285a.913.913,0,0,1-.659-.264.89.89,0,0,1-.272-.668.9.9,0,0,1,.272-.672.905.905,0,0,1,.659-.268.931.931,0,0,1,.672.268.9.9,0,0,1,.277.672.891.891,0,0,1-.277.659A.923.923,0,0,1,26.865-11.285ZM27.568,0H26.126V-9h1.441Zm10.6,0H36.728V-1.529h-.035A3.327,3.327,0,0,1,33.6.211,3.362,3.362,0,0,1,30.888-1a4.958,4.958,0,0,1-1.015-3.292A5.394,5.394,0,0,1,31-7.866a3.71,3.71,0,0,1,3-1.345,2.885,2.885,0,0,1,2.7,1.459h.035v-5.572h1.441ZM36.728-4.069V-5.4a2.575,2.575,0,0,0-.721-1.846A2.417,2.417,0,0,0,34.179-8a2.489,2.489,0,0,0-2.074.967,4.237,4.237,0,0,0-.756,2.672A3.81,3.81,0,0,0,32.074-1.9a2.37,2.37,0,0,0,1.947.9,2.462,2.462,0,0,0,1.956-.87A3.242,3.242,0,0,0,36.728-4.069ZM47.531,0H46.09V-1.406h-.035A3.018,3.018,0,0,1,43.286.211a2.959,2.959,0,0,1-2.1-.712,2.466,2.466,0,0,1-.76-1.89q0-2.522,2.971-2.936l2.7-.378Q46.09-8,44.236-8A4.431,4.431,0,0,0,41.3-6.891V-8.367a5.577,5.577,0,0,1,3.059-.844q3.173,0,3.173,3.357ZM46.09-4.553l-2.171.3a3.525,3.525,0,0,0-1.512.5A1.432,1.432,0,0,0,41.9-2.5a1.374,1.374,0,0,0,.47,1.077A1.817,1.817,0,0,0,43.62-1a2.314,2.314,0,0,0,1.771-.751,2.685,2.685,0,0,0,.7-1.9ZM57.931,0H56.489V-1.529h-.035A3.327,3.327,0,0,1,53.36.211,3.362,3.362,0,0,1,50.649-1a4.958,4.958,0,0,1-1.015-3.292,5.394,5.394,0,0,1,1.125-3.577,3.71,3.71,0,0,1,3-1.345,2.885,2.885,0,0,1,2.7,1.459h.035v-5.572h1.441ZM56.489-4.069V-5.4a2.575,2.575,0,0,0-.721-1.846A2.417,2.417,0,0,0,53.94-8a2.489,2.489,0,0,0-2.074.967,4.237,4.237,0,0,0-.756,2.672A3.81,3.81,0,0,0,51.836-1.9a2.37,2.37,0,0,0,1.947.9,2.462,2.462,0,0,0,1.956-.87A3.242,3.242,0,0,0,56.489-4.069ZM65.238-.325V-1.872A4.266,4.266,0,0,0,67.831-1q1.9,0,1.9-1.266a1.1,1.1,0,0,0-.163-.611,1.62,1.62,0,0,0-.439-.444,3.383,3.383,0,0,0-.65-.347q-.374-.154-.8-.321a10.357,10.357,0,0,1-1.05-.479,3.173,3.173,0,0,1-.756-.545,2.028,2.028,0,0,1-.457-.69,2.441,2.441,0,0,1-.154-.905,2.15,2.15,0,0,1,.29-1.121,2.572,2.572,0,0,1,.773-.817,3.607,3.607,0,0,1,1.1-.5A4.893,4.893,0,0,1,68.7-9.211a5.164,5.164,0,0,1,2.092.4v1.459A4.077,4.077,0,0,0,68.508-8a2.671,2.671,0,0,0-.729.092,1.786,1.786,0,0,0-.558.259,1.2,1.2,0,0,0-.36.4,1.053,1.053,0,0,0-.127.514,1.233,1.233,0,0,0,.127.589,1.3,1.3,0,0,0,.374.422,2.855,2.855,0,0,0,.6.334q.352.149.8.325a11.131,11.131,0,0,1,1.072.47,3.678,3.678,0,0,1,.809.545,2.129,2.129,0,0,1,.514.7,2.254,2.254,0,0,1,.18.94,2.217,2.217,0,0,1-.294,1.16,2.523,2.523,0,0,1-.787.817,3.6,3.6,0,0,1-1.134.483,5.6,5.6,0,0,1-1.345.158A5.106,5.106,0,0,1,65.238-.325ZM80.7,0H79.258V-1.424h-.035A2.96,2.96,0,0,1,76.446.211q-3.217,0-3.217-3.832V-9h1.433v5.15Q74.662-1,76.841-1a2.205,2.205,0,0,0,1.736-.778,2.976,2.976,0,0,0,.681-2.035V-9H80.7Zm4.388-1.3h-.035V4.14H83.611V-9h1.441v1.582h.035A3.408,3.408,0,0,1,88.2-9.211,3.3,3.3,0,0,1,90.914-8a5.005,5.005,0,0,1,.976,3.239,5.578,5.578,0,0,1-1.1,3.617A3.658,3.658,0,0,1,87.786.211,3.011,3.011,0,0,1,85.087-1.3Zm-.035-3.63v1.257a2.676,2.676,0,0,0,.725,1.894A2.408,2.408,0,0,0,87.619-1a2.413,2.413,0,0,0,2.052-1,4.6,4.6,0,0,0,.743-2.786,3.629,3.629,0,0,0-.694-2.355A2.3,2.3,0,0,0,87.838-8a2.554,2.554,0,0,0-2.021.875A3.211,3.211,0,0,0,85.052-4.931Zm16.376.791H95.074a3.366,3.366,0,0,0,.809,2.32A2.788,2.788,0,0,0,98.009-1,4.422,4.422,0,0,0,100.8-2V-.65a5.224,5.224,0,0,1-3.138.861,3.8,3.8,0,0,1-3-1.226,5.018,5.018,0,0,1-1.09-3.45A4.921,4.921,0,0,1,94.77-7.888a3.819,3.819,0,0,1,2.958-1.323,3.384,3.384,0,0,1,2.733,1.143,4.764,4.764,0,0,1,.967,3.173ZM99.951-5.361a2.933,2.933,0,0,0-.6-1.942A2.051,2.051,0,0,0,97.7-8a2.328,2.328,0,0,0-1.731.729,3.311,3.311,0,0,0-.879,1.907Zm8.351-2.18a1.763,1.763,0,0,0-1.09-.29,1.839,1.839,0,0,0-1.542.87,4.023,4.023,0,0,0-.62,2.373V0h-1.441V-9h1.441v1.854h.035a3.143,3.143,0,0,1,.94-1.481,2.144,2.144,0,0,1,1.415-.532,2.353,2.353,0,0,1,.861.123Zm2.3-3.744a.913.913,0,0,1-.659-.264.89.89,0,0,1-.272-.668.9.9,0,0,1,.272-.672.905.905,0,0,1,.659-.268.931.931,0,0,1,.672.268.9.9,0,0,1,.277.672.891.891,0,0,1-.277.659A.923.923,0,0,1,110.607-11.285ZM111.311,0h-1.441V-9h1.441Zm6.681.211a4.175,4.175,0,0,1-3.186-1.261,4.672,4.672,0,0,1-1.191-3.344,4.867,4.867,0,0,1,1.239-3.542A4.455,4.455,0,0,1,118.2-9.211a4.037,4.037,0,0,1,3.142,1.239,4.914,4.914,0,0,1,1.129,3.437,4.835,4.835,0,0,1-1.217,3.45A4.265,4.265,0,0,1,117.992.211ZM118.1-8a2.742,2.742,0,0,0-2.2.945,3.88,3.88,0,0,0-.809,2.606,3.67,3.67,0,0,0,.817,2.522A2.778,2.778,0,0,0,118.1-1a2.635,2.635,0,0,0,2.149-.905A3.928,3.928,0,0,0,121-4.482a4,4,0,0,0-.751-2.6A2.623,2.623,0,0,0,118.1-8Zm11.375.457a1.763,1.763,0,0,0-1.09-.29,1.839,1.839,0,0,0-1.542.87,4.023,4.023,0,0,0-.62,2.373V0h-1.441V-9h1.441v1.854h.035a3.143,3.143,0,0,1,.94-1.481,2.145,2.145,0,0,1,1.415-.532,2.353,2.353,0,0,1,.861.123Z" transform="translate(996.556 1248.297)" fill="#212429"/>
    <path id="Trazado_998842" data-name="Trazado 998842" d="M-144.415,1474.623l-18.755-29.383h-40.636" transform="translate(725)" fill="none" stroke="#00aab4" stroke-width="1"/>
    <path id="Trazado_998844" data-name="Trazado 998844" d="M-203.806,1474.623l18.755-29.383h40.636" transform="translate(1237.96)" fill="none" stroke="#008cb4" stroke-width="1"/>
    <path id="Trazado_998845" data-name="Trazado 998845" d="M-203.806,1474.623l18.755-29.383h40.636" transform="translate(1120.3 -203)" fill="none" stroke="#008cb4" stroke-width="1"/>
    <path id="Trazado_1000320" data-name="Trazado 1000320" d="M5,0A5,5,0,1,1,0,5,5,5,0,0,1,5,0Z" transform="translate(574 1468)" fill="#00aab4"/>
    <path id="Trazado_1000321" data-name="Trazado 1000321" d="M5,0A5,5,0,1,1,0,5,5,5,0,0,1,5,0Z" transform="translate(1030.74 1468)" fill="#008cb4"/>
    <path id="Trazado_1000322" data-name="Trazado 1000322" d="M5,0A5,5,0,1,1,0,5,5,5,0,0,1,5,0Z" transform="translate(913.08 1265)" fill="#008cb4"/>
    <g id="g2055" transform="translate(602.252 2224.917)">
      <g id="g2057" transform="translate(21.98 -663.722)">
        <path id="path2059" d="M-93.971,0h-9.082" transform="translate(103.053)" fill="none" stroke="#fff" stroke-linecap="round" stroke-linejoin="round" stroke-miterlimit="10" stroke-width="1.5"/>
      </g>
      <g id="g2061" transform="translate(0 -682.665)">
        <g id="g2063" clip-path="url(#clip-path-6)">
          <g id="g2069" transform="translate(0.882 18.943)">
            <path id="path2071" d="M0-121.144a11.721,11.721,0,0,1,11.708-11.708h4" transform="translate(0 132.852)" fill="none" stroke="#fff" stroke-linecap="round" stroke-linejoin="round" stroke-miterlimit="10" stroke-width="1.5"/>
          </g>
          <g id="g2073" transform="translate(21.98 24.33)">
            <path id="path2075" d="M-130.785,0h-12.64" transform="translate(143.425)" fill="none" stroke="#fff" stroke-linecap="round" stroke-linejoin="round" stroke-miterlimit="10" stroke-width="1.5"/>
          </g>
          <g id="g2077" transform="translate(6.269 24.33)">
            <path id="path2079" d="M0-65.4a6.328,6.328,0,0,1,6.32-6.32h4" transform="translate(0 71.72)" fill="none" stroke="#fff" stroke-linecap="round" stroke-linejoin="round" stroke-miterlimit="10" stroke-width="1.5"/>
          </g>
          <g id="g2081" transform="translate(40.007 21.818)">
            <path id="path2083" d="M-157.705,0a11.683,11.683,0,0,1,4.031,8.833,11.711,11.711,0,0,1-1.53,5.789,2.694,2.694,0,0,1-3.674,1.007,2.694,2.694,0,0,1-1.007-3.674,6.321,6.321,0,0,0,.824-3.122,6.328,6.328,0,0,0-6.32-6.32h-7.565" transform="translate(172.946)" fill="none" stroke="#fff" stroke-linecap="round" stroke-linejoin="round" stroke-miterlimit="10" stroke-width="1.5"/>
          </g>
          <g id="g2085" transform="translate(43.564 18.942)">
            <path id="path2087" d="M0,0H4.008A11.629,11.629,0,0,1,8.73,1" fill="none" stroke="#fff" stroke-linecap="round" stroke-linejoin="round" stroke-miterlimit="10" stroke-width="1.5"/>
          </g>
          <g id="g2089" transform="translate(31.057 10.084)">
            <path id="path2091" d="M-36.861-278.191v-15.4h-1.09a2.468,2.468,0,0,1-2.137-3.7l3.784-6.552a2.469,2.469,0,0,1,4.276,0l3.782,6.552a2.468,2.468,0,0,1-2.137,3.7h-1.089v12.073" transform="translate(40.424 305.077)" fill="none" stroke="#fff" stroke-linecap="round" stroke-linejoin="round" stroke-miterlimit="10" stroke-width="1.5"/>
          </g>
          <g id="g2093" transform="translate(16.593 0.882)">
            <path id="path2095" d="M0-349.1v-22.031a11.721,11.721,0,0,1,11.708-11.707,11.711,11.711,0,0,1,5.789,1.53,2.7,2.7,0,0,1,1.007,3.674,2.7,2.7,0,0,1-3.675,1.007,6.3,6.3,0,0,0-3.121-.824,6.327,6.327,0,0,0-6.32,6.319V-349.1" transform="translate(0 382.835)" fill="none" stroke="#fff" stroke-linecap="round" stroke-linejoin="round" stroke-miterlimit="10" stroke-width="1.5"/>
          </g>
          <g id="g2097" transform="translate(16.592 40.007)">
            <path id="path2099" d="M0,0V7.565a11.683,11.683,0,0,0,.378,2.956" fill="none" stroke="#fff" stroke-linecap="round" stroke-linejoin="round" stroke-miterlimit="10" stroke-width="1.5"/>
          </g>
          <g id="g2101" transform="translate(18.368 45.68)">
            <path id="path2103" d="M-223.907,0V1.892A11.721,11.721,0,0,1-235.614,13.6a11.711,11.711,0,0,1-9.932-5.516" transform="translate(245.546)" fill="none" stroke="#fff" stroke-linecap="round" stroke-linejoin="round" stroke-miterlimit="10" stroke-width="1.5"/>
          </g>
          <g id="g2105" transform="translate(21.98 40.007)">
            <path id="path2107" d="M-130.785-24.317V-19.1a6.327,6.327,0,0,1-6.319,6.32,6.327,6.327,0,0,1-6.32-6.32v-7.565" transform="translate(143.425 26.667)" fill="none" stroke="#fff" stroke-linecap="round" stroke-linejoin="round" stroke-miterlimit="10" stroke-width="1.5"/>
          </g>
          <g id="g2109" transform="translate(6.269 30.649)">
            <path id="path2111" d="M0,0A6.327,6.327,0,0,0,6.32,6.32h4" fill="none" stroke="#fff" stroke-linecap="round" stroke-linejoin="round" stroke-miterlimit="10" stroke-width="1.5"/>
          </g>
          <g id="g2113" transform="translate(0.882 30.651)">
            <path id="path2115" d="M0,0A11.721,11.721,0,0,0,11.708,11.707h4" fill="none" stroke="#fff" stroke-linecap="round" stroke-linejoin="round" stroke-miterlimit="10" stroke-width="1.5"/>
          </g>
          <g id="g2117" transform="translate(21.98 33.407)">
            <path id="path2119" d="M0-92.606H16.609v1.089a2.468,2.468,0,0,0,3.7,2.137l6.552-3.782a2.469,2.469,0,0,0,0-4.276l-6.552-3.783a2.468,2.468,0,0,0-3.7,2.137v1.09H0" transform="translate(0 101.555)" fill="none" stroke="#fff" stroke-linecap="round" stroke-linejoin="round" stroke-miterlimit="10" stroke-width="1.5"/>
          </g>
          <g id="g2121" transform="translate(21.98 32.838)">
            <path id="path2123" d="M0,0V8.949" fill="none" stroke="#fff" stroke-linecap="round" stroke-linejoin="round" stroke-miterlimit="10" stroke-width="1.5"/>
          </g>
          <g id="g2125" transform="translate(16.593 32.838)">
            <path id="path2127" d="M0,0V8.949" transform="translate(0)" fill="none" stroke="#fff" stroke-linecap="round" stroke-linejoin="round" stroke-miterlimit="10" stroke-width="1.5"/>
          </g>
        </g>
      </g>
    </g>
    <path id="Trazado_1000323" data-name="Trazado 1000323" d="M7.943.342q-7,0-7-9.83,0-5.1,1.894-7.772a6.309,6.309,0,0,1,5.489-2.673q6.836,0,6.836,9.994,0,4.977-1.866,7.629A6.148,6.148,0,0,1,7.943.342Zm.191-16.98q-2.8,0-2.8,7.041,0,6.631,2.748,6.631,2.68,0,2.68-6.836T8.135-16.639Zm19.349-3.4V0H23.177V-15.176a5.157,5.157,0,0,1-.841.595,8.68,8.68,0,0,1-1.032.506,9.217,9.217,0,0,1-1.135.383,8.288,8.288,0,0,1-1.162.226V-17.1a17.965,17.965,0,0,0,3.172-1.258,18.051,18.051,0,0,0,2.693-1.682Z" transform="translate(612 1529)" fill="#fff"/>
    <path id="Trazado_1000324" data-name="Trazado 1000324" d="M7.943.342q-7,0-7-9.83,0-5.1,1.894-7.772a6.309,6.309,0,0,1,5.489-2.673q6.836,0,6.836,9.994,0,4.977-1.866,7.629A6.148,6.148,0,0,1,7.943.342Zm.191-16.98q-2.8,0-2.8,7.041,0,6.631,2.748,6.631,2.68,0,2.68-6.836T8.135-16.639ZM21.974-3.582h8.313V0H17.243V-1.477a6.873,6.873,0,0,1,.506-2.7A8.96,8.96,0,0,1,19.02-6.323,11.029,11.029,0,0,1,20.7-8q.909-.731,1.729-1.319.861-.615,1.511-1.176a8.609,8.609,0,0,0,1.094-1.114,4.236,4.236,0,0,0,.663-1.121,3.334,3.334,0,0,0,.219-1.21,2.432,2.432,0,0,0-.711-1.9,3.161,3.161,0,0,0-2.174-.643,7.3,7.3,0,0,0-4.84,2.01v-3.8a10.389,10.389,0,0,1,5.77-1.654,8.521,8.521,0,0,1,2.673.39,5.655,5.655,0,0,1,2,1.114,4.752,4.752,0,0,1,1.251,1.757,5.929,5.929,0,0,1,.431,2.3,6.5,6.5,0,0,1-.417,2.406,7.394,7.394,0,0,1-1.107,1.914A10.045,10.045,0,0,1,27.2-8.47q-.9.718-1.873,1.388-.656.465-1.265.923a11.989,11.989,0,0,0-1.073.9,4.9,4.9,0,0,0-.738.868A1.5,1.5,0,0,0,21.974-3.582Z" transform="translate(954 1529)" fill="#fff"/>
    <path id="Trazado_1000325" data-name="Trazado 1000325" d="M7.943.342q-7,0-7-9.83,0-5.1,1.894-7.772a6.309,6.309,0,0,1,5.489-2.673q6.836,0,6.836,9.994,0,4.977-1.866,7.629A6.148,6.148,0,0,1,7.943.342Zm.191-16.98q-2.8,0-2.8,7.041,0,6.631,2.748,6.631,2.68,0,2.68-6.836T8.135-16.639Zm9.573,16V-4.4A7.589,7.589,0,0,0,22.3-2.967a4.136,4.136,0,0,0,2.577-.711A2.36,2.36,0,0,0,25.8-5.66,2.253,2.253,0,0,0,24.66-7.684a5.914,5.914,0,0,0-3.138-.711H19.7V-11.7h1.682q3.828,0,3.828-2.543,0-2.393-2.939-2.393a6.7,6.7,0,0,0-3.828,1.271v-3.527a10.573,10.573,0,0,1,4.813-1.039,7.263,7.263,0,0,1,4.683,1.354,4.308,4.308,0,0,1,1.675,3.514q0,3.842-3.9,4.813v.068A5.3,5.3,0,0,1,29-8.675a4.26,4.26,0,0,1,1.2,3.069,5.26,5.26,0,0,1-2.01,4.348,8.69,8.69,0,0,1-5.551,1.6A10.728,10.728,0,0,1,17.708-.643Z" transform="translate(783 1237)" fill="#fff"/>
    <path id="Trazado_998847" data-name="Trazado 998847" d="M44.821,63.306l6.842,8.083-5.725.988a.851.851,0,0,0-.658.557l-1.921,5.484L35.9,69.6a.85.85,0,1,0-1.3,1.1l8.422,9.95a.851.851,0,0,0,1.452-.268l2.247-6.415,6.7-1.157a.851.851,0,0,0,.5-1.388l-7.8-9.217a.85.85,0,0,0-1.3,1.1ZM20.51,69.6l-7.462,8.815-1.921-5.484a.851.851,0,0,0-.658-.557l-5.725-.988,6.842-8.083a.85.85,0,0,0-1.3-1.1l-7.8,9.217a.851.851,0,0,0,.5,1.388l6.7,1.157,2.247,6.415a.851.851,0,0,0,1.452.268l8.422-9.95a.85.85,0,1,0-1.3-1.1Z" transform="translate(773.297 1222.478)" fill="#fff" fill-rule="evenodd"/>
    <path id="Trazado_998848" data-name="Trazado 998848" d="M30.783.5A22.542,22.542,0,1,0,53.325,23.042,22.553,22.553,0,0,0,30.783.5Zm0,1.7A20.841,20.841,0,1,1,9.942,23.042,20.851,20.851,0,0,1,30.783,2.2Z" transform="translate(770.717 1249.069)" fill="#fff" fill-rule="evenodd"/>
    <path id="Trazado_998849" data-name="Trazado 998849" d="M41.1,23.834a.851.851,0,0,0-1.618,0l-1.992,6.131H31.04a.85.85,0,0,0-.5,1.538l5.215,3.789-1.992,6.131a.851.851,0,0,0,1.309.951l5.215-3.789L45.5,42.375a.851.851,0,0,0,1.309-.951l-1.992-6.131L50.035,31.5a.85.85,0,0,0-.5-1.538H43.088L41.1,23.834Zm-.809,3.015,1.374,4.229a.85.85,0,0,0,.808.588h4.447l-3.6,2.614a.85.85,0,0,0-.309.951l1.374,4.229-3.6-2.614a.851.851,0,0,0-1,0l-3.6,2.614,1.374-4.229a.85.85,0,0,0-.309-.951l-3.6-2.614H38.1a.85.85,0,0,0,.808-.588Z" transform="translate(761.212 1239.219)" fill="#fff" fill-rule="evenodd"/>
    <path id="Trazado_998850" data-name="Trazado 998850" d="M37.627,42.333a15.2,15.2,0,0,1-2.5.205q-.358,0-.712-.016a.851.851,0,0,0-.079,1.7q.393.019.79.018a16.931,16.931,0,0,0,2.778-.228.851.851,0,0,0-.279-1.678Zm-6.389-.3a15.026,15.026,0,0,1-3-1.151.851.851,0,0,0-.775,1.514A16.735,16.735,0,0,0,30.8,43.678a.85.85,0,1,0,.436-1.644Zm12.327-2.064a15.111,15.111,0,0,1-2.843,1.5.85.85,0,1,0,.629,1.58,16.834,16.834,0,0,0,3.163-1.669.851.851,0,1,0-.949-1.412Zm-18.017-.848a15.263,15.263,0,0,1-2.262-2.287A.851.851,0,0,0,21.957,37.9a16.994,16.994,0,0,0,2.514,2.542.851.851,0,0,0,1.077-1.317Zm22.459-3.754A15.213,15.213,0,0,1,46.03,37.9a.85.85,0,1,0,1.224,1.181,16.913,16.913,0,0,0,2.2-2.819.851.851,0,0,0-1.445-.9ZM21.555,34.126a15.065,15.065,0,0,1-1.117-3.013.85.85,0,1,0-1.649.418,16.724,16.724,0,0,0,1.244,3.354.85.85,0,1,0,1.522-.759Zm28.6-4.777a15.075,15.075,0,0,1-.75,3.125.85.85,0,1,0,1.6.571,16.73,16.73,0,0,0,.835-3.478.85.85,0,1,0-1.687-.218ZM19.986,27.93c-.006-.18-.01-.362-.01-.543a15.184,15.184,0,0,1,.234-2.665.85.85,0,0,0-1.675-.3,16.887,16.887,0,0,0-.26,2.962q0,.3.011.6a.85.85,0,0,0,1.7-.06Zm29.641-4.955a15.085,15.085,0,0,1,.6,3.157.85.85,0,1,0,1.7-.139,16.81,16.81,0,0,0-.67-3.513.85.85,0,0,0-1.627.5Zm-28.52-1.339a15.116,15.116,0,0,1,1.531-2.826.85.85,0,1,0-1.4-.964,16.849,16.849,0,0,0-1.7,3.144.851.851,0,1,0,1.573.647Zm25.406-4.244a15.2,15.2,0,0,1,1.856,2.626.851.851,0,0,0,1.485-.829,16.9,16.9,0,0,0-2.064-2.92.85.85,0,1,0-1.277,1.123ZM24.732,16.368a15.285,15.285,0,0,1,2.558-1.949.85.85,0,1,0-.882-1.454,16.929,16.929,0,0,0-2.844,2.166.85.85,0,1,0,1.167,1.237Zm16.645-2.787a15.2,15.2,0,0,1,2.77,1.632.85.85,0,1,0,1.014-1.365,16.841,16.841,0,0,0-3.08-1.816.851.851,0,1,0-.7,1.549ZM30.2,13.055a15.046,15.046,0,0,1,3.133-.716.85.85,0,1,0-.2-1.689,16.744,16.744,0,0,0-3.487.8.85.85,0,0,0,.553,1.608Zm4.928-.82a15.158,15.158,0,0,1,3.2.338.85.85,0,1,0,.358-1.663,16.89,16.89,0,0,0-3.555-.376.85.85,0,0,0,0,1.7Z" transform="translate(766.372 1244.724)" fill="#fff" fill-rule="evenodd"/>
    <path id="Trazado_998851" data-name="Trazado 998851" d="M9.795,39.4V33.647a2.88,2.88,0,0,1,2.877-2.877h5.754A2.88,2.88,0,0,1,21.3,33.647v.959a.959.959,0,0,1-1.918,0v-.959a.96.96,0,0,0-.959-.959H12.672a.96.96,0,0,0-.959.959V39.4a.959.959,0,0,1-1.918,0Zm25.893-4.795a.959.959,0,0,0,.959-.959V25.975A2.88,2.88,0,0,0,33.77,23.1H28.016a2.88,2.88,0,0,0-2.877,2.877v7.672a.959.959,0,0,0,1.918,0V25.975a.96.96,0,0,1,.959-.959H33.77a.96.96,0,0,1,.959.959v7.672A.959.959,0,0,0,35.688,34.606Zm7.672-19.18A2.88,2.88,0,0,0,40.483,18.3v16.3a.959.959,0,0,0,1.918,0V18.3a.96.96,0,0,1,.959-.959h5.754a.96.96,0,0,1,.959.959V39.4a.959.959,0,0,0,1.918,0V18.3a2.88,2.88,0,0,0-2.877-2.877ZM56.6,48.6c-.325.447-8.162,10.944-25.709,10.944S5.508,49.042,5.184,48.6a.959.959,0,0,1,0-1.128c.325-.447,8.162-10.944,25.709-10.944S56.277,47.021,56.6,47.468A.959.959,0,0,1,56.6,48.6Zm-2.017-.562c-1.877-2.134-9.459-9.592-23.692-9.592-14.275,0-21.822,7.451-23.692,9.588,1.877,2.134,9.459,9.592,23.692,9.592C45.168,57.622,52.715,50.171,54.585,48.034Zm-16.979,0a6.713,6.713,0,1,1-6.713-6.713A6.713,6.713,0,0,1,37.606,48.032Zm-1.918,0a4.795,4.795,0,1,0-4.795,4.795A4.795,4.795,0,0,0,35.688,48.032ZM13.631,23.1a.956.956,0,0,0,.678-.281L27.057,10.069l6.994,6.994a.958.958,0,0,0,1.356,0L47.2,5.274v4.4a.959.959,0,0,0,1.918,0V2.959A.959.959,0,0,0,48.155,2H41.442a.959.959,0,0,0,0,1.918h4.4L34.729,15.029,27.735,8.035a.958.958,0,0,0-1.356,0L12.953,21.461a.959.959,0,0,0,.678,1.637Z" transform="translate(940.107 1540.23)" fill="#fff"/>
    <g transform="matrix(1, 0, 0, 1, 329.86, 1159.48)" filter="url(#Trazado_1000326)">
      <path id="Trazado_1000326-2" data-name="Trazado 1000326" d="M78,0A78,78,0,1,1,0,78,78,78,0,0,1,78,0Z" transform="translate(393.14 220.52)" fill="#fff"/>
    </g>
    <g id="Grupo_1164042" data-name="Grupo 1164042" transform="translate(730.566 1385.787)" clip-path="url(#clip-path-7)">
      <path id="Trazado_998852" data-name="Trazado 998852" d="M87.569,6.215V72.5a4.522,4.522,0,0,1-4.515,4.515H7.739A4.523,4.523,0,0,1,3.224,72.5V6.215A4.523,4.523,0,0,1,7.739,1.7H83.054a4.522,4.522,0,0,1,4.515,4.515" transform="translate(-3.087 -1.628)" fill="#f2f8fd"/>
      <path id="Trazado_998853" data-name="Trazado 998853" d="M1942.443,330.936h0c-.307,0-.1,3.686.156-57.263a.152.152,0,0,1,.153-.151h0a.152.152,0,0,1,.151.154c-.4,60.907-.15,57.26-.46,57.26" transform="translate(-1859.6 -261.877)"/>
      <path id="Trazado_998854" data-name="Trazado 998854" d="M16.556,46.575A16.584,16.584,0,0,0,20.7,58.708c6.635,7.863,17.846,9.921,28.136,10.535A179.548,179.548,0,0,0,87.57,67.431V72.5a4.522,4.522,0,0,1-4.515,4.515H7.74A4.523,4.523,0,0,1,3.225,72.5V6.215A4.523,4.523,0,0,1,7.74,1.7H83.054A4.522,4.522,0,0,1,87.57,6.215V18.44c-10.689-.645-21.5.615-32.1,2.642C43.616,23.324,31.329,26.825,22.73,35.333c-3.1,3.072-5.713,6.911-6.174,11.242" transform="translate(-3.088 -1.628)" fill="#d0dcee"/>
      <path id="Trazado_998855" data-name="Trazado 998855" d="M87.569,6.215v7.311c-27.306,1.259-54.8-1.782-82.01,1.075-.768.092-1.567.154-2.334.215v-8.6A4.523,4.523,0,0,1,7.739,1.7H83.054a4.522,4.522,0,0,1,4.515,4.515" transform="translate(-3.087 -1.628)"/>
      <path id="Trazado_998856" data-name="Trazado 998856" d="M87.569,6.215v5.836H3.224V6.215a4.49,4.49,0,0,1,4.27-4.484A.671.671,0,0,1,7.739,1.7H83.054a4.522,4.522,0,0,1,4.515,4.515" transform="translate(-3.087 -1.628)" fill="#095da4"/>
      <path id="Trazado_998857" data-name="Trazado 998857" d="M87.569,10.132v2.611H3.224V6.906a4.49,4.49,0,0,1,4.27-4.484A32.5,32.5,0,0,0,16.032,5.77c7.771,2,15.819,2.549,23.835,3.01q23.867,1.29,47.7,1.351" transform="translate(-3.087 -2.319)" fill="#19345d"/>
      <path id="Trazado_998858" data-name="Trazado 998858" d="M1283.861,2477.945q-2.515,10.8-4.873,21.645a1.788,1.788,0,0,0,.074,1.378,1.747,1.747,0,0,0,.824.553,55.3,55.3,0,0,0,9.911,3.071c.464.1.617-.025.69-.474q1.453-8.922,2.545-17.9" transform="translate(-1224.443 -2372.454)" fill="#e56a61"/>
      <path id="Trazado_998859" data-name="Trazado 998859" d="M2317.281,143.184c7.227-6.437,16.78.553,18.391,8.44a22.855,22.855,0,0,1-1.433,12.611c2.694-1.495,6.44-1.494,8.542.759a7.152,7.152,0,0,1,1.647,5.373,19.164,19.164,0,0,1-1.5,5.561c3.388-.52,6.6,2.542,7.084,5.936s-1.208,6.792-3.582,9.265c3.227.017,6.146,2.24,7.745,5.043,2.351,4.12,2.7,11.269,1.76,14.057a9.481,9.481,0,0,1-4.495,5.068,19.207,19.207,0,0,1-6.6,2c-9.708,1.42-20.482-1.248-26.757-8.79-8.115-9.755-6.868-24.332-7.581-34.957-.327-4.879.286-9.7-.1-14.643" transform="translate(-2212.051 -134.671)" fill="#802614"/>
      <path id="Trazado_998860" data-name="Trazado 998860" d="M1333.771,1463.776c-3.595,1.691-14.67,1.294-20.526,9.065-7.776,10.318-6.427,23.709-10.083,36.1-.908,3.078,1.238,2.827,2.53,4.044.884.833,1.824,1.219,2.763,2,2.846,2.368,4.464,4.231,6.249,4.179a2.006,2.006,0,0,0,1.729-2.656" transform="translate(-1247.475 -1401.46)" fill="#28b6f4"/>
      <path id="Trazado_998861" data-name="Trazado 998861" d="M2035.482,1027.54a19.327,19.327,0,0,0-1.335,5.757,14.111,14.111,0,0,0,1.269,5.17q2.016,5.161,4.359,10.187c.526,1.129,1.19,2.364,2.381,2.728a3.116,3.116,0,0,0,3.047-1.032,10.109,10.109,0,0,0,1.678-2.927c6.484-14.632,13.059-16.832,12.407-21.632-.43-3.164-4.36-4.951-5.31-11.79a87.848,87.848,0,0,1-.744-10.163l-15.027,5.113c-.2,2.657.236,6.432.2,8.978-.155,5.447-2.029,6.9-2.918,9.61" transform="translate(-1947.548 -961.103)" fill="#f89182"/>
      <path id="Trazado_998862" data-name="Trazado 998862" d="M2128.483,1050.853v.234c-.039,2.381.272,4.84.235,7.221.233-.117.468-.273.7-.39a36.848,36.848,0,0,0,7.768-4.333c2.5-1.821,5.284-4.192,6.479-7.065.078-.156.156-.351.235-.507a1.033,1.033,0,0,1-.235.2,14.453,14.453,0,0,1-2.38,1.366,13.98,13.98,0,0,1-5.738,2.5c-2.4.569-4.469,1.353-6.871.82a.417.417,0,0,0-.194-.039" transform="translate(-2037.866 -1001.482)"/>
      <path id="Trazado_998863" data-name="Trazado 998863" d="M1950.35,168.187c-1.47,1.484-1.829,4.141-2.2,6.092-1.79,9.493-3.811,20.011-.271,29.29a9.718,9.718,0,0,0,2.743,4.39c2.3,1.794,5.6,1.362,8.394.524,4.034-1.209,10.093-3.861,13.234-6.7,8.691-7.843,9.62-27.753-1.76-33.945-6.439-3.5-17.872-1.949-20.143.345" transform="translate(-1863.091 -158.727)" fill="#f89182"/>
      <path id="Trazado_998864" data-name="Trazado 998864" d="M1878.409,283.785a68.471,68.471,0,0,0-2.137,19.746c.236,6.264,1.529,12.754,6.789,16.806,2.508,1.932,5.889,2.013,8.834,1.173,3.659-1.043,6.86-3.247,9.987-5.415" transform="translate(-1796.348 -271.704)" fill="#f89182"/>
      <path id="Trazado_998865" data-name="Trazado 998865" d="M2067.948,686.027h0c-2.787-.036-3.966-.836-3.739-3.94a12.185,12.185,0,0,1,.987-4.55.153.153,0,0,1,.276.135,11.925,11.925,0,0,0-.957,4.436c-.207,2.875.77,3.572,3.436,3.613a.153.153,0,0,1,0,.306" transform="translate(-1976.304 -648.609)"/>
      <path id="Trazado_998866" data-name="Trazado 998866" d="M1914.994,572.118a.153.153,0,0,1,0-.306c3.994.062,4.369-.154,4.369.153s-.349.091-4.369.153" transform="translate(-1833.323 -547.453)"/>
      <path id="Trazado_998867" data-name="Trazado 998867" d="M2225.43,580.986c-3.594-.06-4.011.154-4.011-.153a.152.152,0,0,1,.153-.153c3.594.06,4.011-.154,4.011.153a.152.152,0,0,1-.153.153" transform="translate(-2126.848 -555.943)"/>
      <path id="Trazado_998868" data-name="Trazado 998868" d="M1918.416,673.676a1.529,1.529,0,1,0,1.479-1.917,1.741,1.741,0,0,0-1.479,1.917" transform="translate(-1836.745 -643.161)" fill="#010202"/>
      <path id="Trazado_998869" data-name="Trazado 998869" d="M2218.124,673.676a1.529,1.529,0,1,0,1.479-1.917,1.742,1.742,0,0,0-1.479,1.917" transform="translate(-2123.694 -643.161)" fill="#010202"/>
      <path id="Trazado_998870" data-name="Trazado 998870" d="M2102.371,954.465a.153.153,0,0,1,.132-.276c2.976,1.434,6,.091,6.58-2.332a.154.154,0,0,1,.3.072c-.626,2.61-3.857,4.057-7.011,2.536" transform="translate(-2012.784 -911.223)"/>
      <path id="Trazado_998871" data-name="Trazado 998871" d="M1874.294,780.676a25.737,25.737,0,0,1-3.126-11.749.152.152,0,0,1,.152-.155h0a.152.152,0,0,1,.153.152,25.415,25.415,0,0,0,3.087,11.6c2.762,4.817,7.052,6.865,12.408,5.2,1.57-.485,2.421-.673,4.975-1.665,6.037-2.35,9.986-5.593,12.424-10.2a.154.154,0,0,1,.273.144c-3.738,7.061-10.184,9.729-17.582,12.016-5.6,1.734-9.992-.509-12.764-5.344" transform="translate(-1791.508 -736.044)"/>
      <path id="Trazado_998872" data-name="Trazado 998872" d="M1834.627,20.474c-2.827-.04-6.647-1.16-7.853-4.026-1.391-3.307.745-6.974,3.277-7.347a4.228,4.228,0,0,1,2.574.572c-1.493-3.646,2.352-7.854,6.015-9.129,3.607-1.255,9.194-.18,11.66,1.629,2.071,1.52,3.184,3.986,4.21,6.341-.125-.287,1.928-1.269,2.163-1.359a3.862,3.862,0,0,1,2.536-.14c3.13.772,5.752,4.451,6.643,7.95.208.817.97,6.941-.184,6.768-.324-.049-2.406-2-5.9,1.773-1.65,1.782-1.505,4.831-2.839,4.82a.956.956,0,0,1-.818-.67c-.422-1.146.754-5.8-3.741-7.963-5.639-2.711-11.792.865-17.741.781" transform="translate(-1748.584 -0.001)" fill="#802614"/>
      <path id="Trazado_998873" data-name="Trazado 998873" d="M2565.223,504.876c.887-2.687,1.741-4.649,4.035-6.007,1.186-.7,1.758-.673,3.5-.289,1.06.233,3.208,2.26,3.862,5.278a7.581,7.581,0,0,1-1.671,6.789,10.839,10.839,0,0,1-2.636,2.576c-1.489.931-4.252,1.486-5.756.3" transform="translate(-2456.016 -477.097)" fill="#f89182"/>
      <path id="Trazado_998874" data-name="Trazado 998874" d="M2635.32,609.773l.958-.9c.741-.695.569-.99.234-1.329l-.067-.068c-1.513-1.554-.974-4.032.883-4.516a3.078,3.078,0,0,1,2.406.453,2,2,0,0,1,.65,1.935.153.153,0,1,1-.3-.063,1.685,1.685,0,0,0-.543-1.632,2.781,2.781,0,0,0-2.136-.4,2.356,2.356,0,0,0-.741,4.006l.064.065c.486.485.6.973-.241,1.77l-.958.9a.154.154,0,0,1-.209-.225" transform="translate(-2523.081 -577.222)"/>
      <path id="Trazado_998875" data-name="Trazado 998875" d="M2574.6,510.464a.151.151,0,0,1,.214-.026c1.469,1.158,4.184.564,5.581-.309a10.768,10.768,0,0,0,2.6-2.541,7.827,7.827,0,0,0-1.892-11.668,4.545,4.545,0,0,0-5.405,1.393,10.116,10.116,0,0,0-1.651,3.255.153.153,0,0,1-.291-.1,10.382,10.382,0,0,1,1.7-3.352,4.861,4.861,0,0,1,5.783-1.473,8.13,8.13,0,0,1,1.993,12.132,10.954,10.954,0,0,1-2.674,2.611c-3.078,1.924-6.333.546-5.957.073" transform="translate(-2464.17 -474.135)"/>
      <path id="Trazado_998876" data-name="Trazado 998876" d="M1604.3,1376.976c.716-6.833-1.315-8.6-5.3-9.811-8.866-2.69-12.361-.542-15.023-4.087a6.682,6.682,0,0,0-2.639-2.272c-1.154-.484-1.262,1.105-2.182,1.756-1.8,1.276-10.9,3.026-14.779,1.094-.515-.256-.761-1.274-1.407-1.208-.454.047-1.092.873-1.6,1.245a13.941,13.941,0,0,1-6.63,2.821c-.873.124-1.688.356-2.54.562a37.257,37.257,0,0,0-5.733,1.6c-4.848,2.027-5.191,3.734-5.683,8.945-.333,3.532.622,7.4-.123,10.83-.807,3.708-1.731,7.327-2.207,11.1-.865,6.869,1.221,7.175,2.747,10.4a11.12,11.12,0,0,1,.789,5.8c-.362,3.845-1.769,7.047-1.441,13.648.126,2.549.854,4.866,3.362,6,4.845,2.181,30.187-1.132,47.669-.194,6.172.331,7.138-1.542,6.764-5.943a89.887,89.887,0,0,1,4.308-35.98,10.945,10.945,0,0,0,.877-4.6c-.146-2.157.6-10.042.771-11.7" transform="translate(-1472.761 -1302.787)" fill="#28b6f4"/>
      <path id="Trazado_998877" data-name="Trazado 998877" d="M1539.363,2013.252c1.094-6.608,1.964-7.081-.783-14.749-1.054-2.94-2.143-5.98-1.822-9.348a18.72,18.72,0,0,1,4.448-10.389.153.153,0,0,1,.231.2,18.422,18.422,0,0,0-4.373,10.218c-.315,3.3.763,6.307,1.806,9.215,2.288,6.38,2.149,7.893,1.171,12.878-.63,3.237-1.781,11.156.315,13.7a.153.153,0,0,1-.021.216c-.536.452-2.378-3.46-.972-11.943" transform="translate(-1471.28 -1894.475)"/>
      <path id="Trazado_998878" data-name="Trazado 998878" d="M1961.757,178.67a.384.384,0,0,1-.239-.487c.312-.92,1.177,1.025,5.87-.684,4.218-1.533,4.1-3.332,5.228-5.077a5.885,5.885,0,0,1,7.091-2.1.384.384,0,0,1-.312.7,5.087,5.087,0,0,0-6.134,1.818c-1.073,1.655-1.071,3.731-5.609,5.383a8.953,8.953,0,0,1-5.9.448" transform="translate(-1877.992 -162.634)" fill="#5b1602"/>
      <path id="Trazado_998879" data-name="Trazado 998879" d="M2057.882,130.969a.385.385,0,0,1-.231-.492,7.051,7.051,0,0,1,3.625-3.745,20.212,20.212,0,0,1,4.913-1.483.383.383,0,0,1,.159.75c-3.1.656-6.816,1.543-7.974,4.739a.42.42,0,0,1-.492.231" transform="translate(-1970.031 -119.905)" fill="#5b1602"/>
      <path id="Trazado_998880" data-name="Trazado 998880" d="M2448.523,287.675c-.867-2.809-5.033-2.795-7.171-3.379a5.319,5.319,0,0,1-3.655-2.7.384.384,0,0,1,.7-.312c1.17,2.624,5.083,2.438,7.43,3.181a4.913,4.913,0,0,1,3.428,2.983.384.384,0,0,1-.734.228" transform="translate(-2333.885 -269.09)" fill="#5b1602"/>
      <path id="Trazado_998881" data-name="Trazado 998881" d="M2604.869,235.662c-1.22-2.57-3.787-4.054-4.143-3.952a.387.387,0,0,1-.478-.256c-.119-.392.347-.768,1.255-.3a9.083,9.083,0,0,1,4.059,4.183.384.384,0,1,1-.693.33" transform="translate(-2489.532 -221.103)" fill="#5b1602"/>
      <path id="Trazado_998882" data-name="Trazado 998882" d="M1592.167,2419.223c-4.714,0-9.7-.3-13.35-3.492a.153.153,0,0,1,.2-.231c3.879,3.385,9.325,3.435,14.29,3.414a.153.153,0,1,1,0,.306c-.378,0-.759,0-1.141,0" transform="translate(-1511.552 -2312.628)"/>
      <path id="Trazado_998883" data-name="Trazado 998883" d="M2469.893,2416.835a.153.153,0,0,1-.01-.306,30.07,30.07,0,0,0,3.125-.369,22.136,22.136,0,0,0,8.451-3.2.154.154,0,0,1,.168.258,22.464,22.464,0,0,1-8.568,3.241,30.351,30.351,0,0,1-3.155.372Z" transform="translate(-2364.598 -2310.213)"/>
      <path id="Trazado_998884" data-name="Trazado 998884" d="M1311.674,2333.162c-1.724-.118-5.9-4.131-9.138-6.3-.73-.487-1.815-.815-2.208-1.675-.893-1.948,1.469-7.272,1.867-11.125a.154.154,0,0,1,.153-.136h.016a.154.154,0,0,1,.137.169c-.37,3.57-2.691,9.233-1.894,10.965.34.746,1.377,1.066,2.1,1.548,3.276,2.2,7.35,6.136,8.99,6.252.538.026,1.524-.266,1.471.107a.159.159,0,0,1-.172.13,2.537,2.537,0,0,0-.667.03,3.245,3.245,0,0,1-.654.039" transform="translate(-1244.779 -2215.414)"/>
      <path id="Trazado_998885" data-name="Trazado 998885" d="M2062.935,1359.531a1.193,1.193,0,0,0-.841-.537.444.444,0,0,0-.047,0c-.415.033-.635.381-2.034,1.809a.154.154,0,0,1-.222-.213c1.159-.973,1.994-2.917,3.381-1.257,1.234,1.485,4.066,1.334,5.771,1.318,2.173-.006,7.366-.6,8.733-1.342.7-.38,1.171-1.52,1.839-1.993a1.847,1.847,0,0,1,2.74,1.129.154.154,0,0,1-.291.1,1.541,1.541,0,0,0-2.272-.976,4.287,4.287,0,0,0-.8.91c-.709.972-.976,1.267-2.743,1.633a34.309,34.309,0,0,1-7.7.85c-1.888.014-4.3.031-5.518-1.432" transform="translate(-1972.059 -1299.263)"/>
      <path id="Trazado_998886" data-name="Trazado 998886" d="M2078.288,1472.138a.154.154,0,0,1,.18-.249,14.257,14.257,0,0,0,8.556,2.295,42.117,42.117,0,0,0,8.932-1.543.153.153,0,0,1,.075.3c-6.137,1.522-12.609,2.9-17.744-.8" transform="translate(-1989.748 -1409.197)"/>
      <path id="Trazado_998887" data-name="Trazado 998887" d="M1248.251,2896.374a.154.154,0,1,1,.069-.3,23.278,23.278,0,0,0,8.042-.06.154.154,0,1,1,.039.306,23.553,23.553,0,0,1-8.15.055" transform="translate(-1194.996 -2772.724)"/>
      <path id="Trazado_998888" data-name="Trazado 998888" d="M1241.16,2966.039a26.344,26.344,0,0,1-3.725-.351c-.2-.03-.151-.345.045-.3,2.17.307,4.636.664,6.832-.168a.154.154,0,0,1,.108.288,9.127,9.127,0,0,1-3.259.534" transform="translate(-1184.63 -2838.972)"/>
      <path id="Trazado_998889" data-name="Trazado 998889" d="M1245.976,3036.75a22.226,22.226,0,0,1-4.45-.45.151.151,0,0,1-.12-.18.156.156,0,0,1,.18-.12,21.838,21.838,0,0,0,6.95.293.154.154,0,0,1,.036.306,22.614,22.614,0,0,1-2.6.151" transform="translate(-1188.554 -2906.746)"/>
      <path id="Trazado_998890" data-name="Trazado 998890" d="M0,2976.122H147.434l-8.52-16.143H8.52Z" transform="translate(0 -2833.966)" fill="#d0dcee"/>
      <path id="Trazado_998891" data-name="Trazado 998891" d="M416.22,3046.605l6.889-7.767a.9.9,0,0,0-.663-1.489l-49.931-.379a.893.893,0,0,0-.514.158l-11.834,8.145a.9.9,0,0,0,.507,1.632c58.143-.115,55.036.273,55.545-.3" transform="translate(-344.462 -2907.68)" fill="#19345d"/>
      <path id="Trazado_998892" data-name="Trazado 998892" d="M558.887,3024.4l7.963-9.479-52.183-.4-3.474,2.806a4.421,4.421,0,0,0,2.855,7.859Z" transform="translate(-487.848 -2886.191)" fill="#f2f8fd"/>
      <path id="Trazado_998893" data-name="Trazado 998893" d="M1418.428,2456.452c-1.043,1.973-1.715,4.219-3.216,5.927-3.914,4.454-12.8,4.163-19.581,4.761q-7.929.7-15.883.917c-8.222.218-16.382-.5-24.51-.592a22.236,22.236,0,0,1-5.917-.841,3.593,3.593,0,0,1-1.37-.592,1.434,1.434,0,0,1-.561-1.308c.125-.623.779-1,1.34-1.277a2.657,2.657,0,0,1-1.184-.592,1.064,1.064,0,0,1-.28-1.215c.218-.436.809-.561,1.152-.9-1.3-.465-1.614-1.3-1.432-1.931.187-.716,1.027-1,1.744-1.183a4.488,4.488,0,0,1-1.308-.561c-3.364-2.375,6.551-8.155,13.13-2.947,1.311,1.038,1.542,1.315,3.44,1.153,38.262-3.265,36.211-2.991,36.952-3.334,1.9-.88,2.982-4.544,3.862-6.292,1.407-2.792,2.65-5.665,3.811-8.567a16.069,16.069,0,0,1,5.089.4q5.446,1.033,10.86,2.228c-1.537,4.865-3.863,12.446-6.136,16.747" transform="translate(-1289.409 -2333.25)" fill="#f89182"/>
      <rect id="Rectángulo_412302" data-name="Rectángulo 412302" width="147.434" height="4.269" transform="translate(0 142.156)" fill="#095da4"/>
      <path id="Trazado_998894" data-name="Trazado 998894" d="M39.417,2394.813l1.41-.326,11.478,33.935h52.428a3.649,3.649,0,0,1,.576.692l3.467-.063-12.844-35.21a1.9,1.9,0,0,0-1.779-1.128H42.119c-1.12,0-1.688-.156-1.862.382" transform="translate(-37.739 -2290.829)" fill="#ff9f1c"/>
      <path id="Trazado_998895" data-name="Trazado 998895" d="M103.022,2467.378H50.437a1.933,1.933,0,0,1-1.781-1.167l-11.273-33.326c-.215-.676.246-1.2.983-1.2H90.981a1.919,1.919,0,0,1,1.751,1.2c16.666,49.1-3.515-10.418,11.119,32.9h.031l.122.43c.215.676-.214,1.167-.982,1.167" transform="translate(-35.741 -2328.165)" fill="#ffca28"/>
      <path id="Trazado_998896" data-name="Trazado 998896" d="M102.9,2467.4H50.329a1.984,1.984,0,0,1-1.806-1.153L37.249,2432.9a.915.915,0,0,1,1-1.184h6.477c1.6,14.119,13.213,26.774,31.549,30.241,8.72,1.619,17.689.934,26.6,1.183l1.027,3.115c.218.654-.218,1.153-1,1.153" transform="translate(-35.622 -2328.191)" fill="#ff9f1c"/>
      <path id="Trazado_998897" data-name="Trazado 998897" d="M2764.847,1562.161c-2.49-.18-4.866-.04-7.356-.072-3.159-.041-6.32-.172-9.479-.258a5.015,5.015,0,0,1-3.336-.9c-1.406-1.289-1.053-3.316-1.067-5.007-.052-6.358,1.54-12.937,2.922-19.024.97-4.271,1.532-9.649,3.9-13.423a6.906,6.906,0,0,1,1.369-1.761c.6-.464,1.395-.562,1.875-1.227a1.209,1.209,0,0,0-.131-1.655c4.808.694,7.417,4.912,8.921,9.089,2.629,7.3,4.134,25.2,2.379,34.242" transform="translate(-2626.781 -1454.17)" fill="#28b6f4"/>
      <path id="Trazado_998898" data-name="Trazado 998898" d="M2740.153,1933.784a.153.153,0,0,1-.147-.138c-.184-1.868-.051-3.68-.065-5.515-.062-7.478,2.159-15.192,3.214-20.417a.153.153,0,0,1,.3.06c-.243,1.208-.373,1.717-.534,2.438-2.847,12.486-2.593,14.36-2.689,19.679a33.452,33.452,0,0,0,.066,3.59c20.247.837,19.57.583,19.559.894-.012.33.865.112-19.7-.593" transform="translate(-2623.264 -1826.381)"/>
      <path id="Trazado_998899" data-name="Trazado 998899" d="M2835.36,577.4a17.747,17.747,0,0,0-6.338-9.651c-2.276-1.751-5.1-3.083-6.641-5.621-1.322-2.184-1.578-5.068-.781-8.819.854-3.939.633-4.69-1.825-6.841-2.352-2.057-3.125-3.161-2.551-8.108l.037-.312c1.1-9.666-2.42-10.905-1.394-11.511a.388.388,0,0,1,.527.136c2.2,3.742,1.985,8.333,1.628,11.461l-.036.314c-.545,4.713.144,5.557,2.294,7.442,2.554,2.236,2.989,3.344,2.146,7.223l-.076.354c-.753,3.552-.528,6.253.688,8.261,1.442,2.38,4.164,3.646,6.452,5.411a18.521,18.521,0,0,1,6.615,10.071.384.384,0,0,1-.744.189" transform="translate(-2695.807 -504.073)" fill="#5b1602"/>
      <path id="Trazado_998900" data-name="Trazado 998900" d="M2679.87,1016.407a31.5,31.5,0,0,0-.538-7.344,10.3,10.3,0,0,0-3.645-6.038.384.384,0,0,1,.455-.618,11.065,11.065,0,0,1,3.937,6.479,32.1,32.1,0,0,1,.56,7.524.384.384,0,0,1-.768,0" transform="translate(-2561.624 -959.655)" fill="#5b1602"/>
      <path id="Trazado_998901" data-name="Trazado 998901" d="M2626.844,2791.479a.153.153,0,0,1-.147-.11,14.664,14.664,0,0,0-6.564-8.355.153.153,0,0,1,.156-.264,14.971,14.971,0,0,1,6.7,8.532.153.153,0,0,1-.1.19.146.146,0,0,1-.043.006" transform="translate(-2508.514 -2664.258)"/>
      <path id="Trazado_998902" data-name="Trazado 998902" d="M158.714,466.982H132.071a1.848,1.848,0,0,1-1.848-1.848V418.865a1.848,1.848,0,0,1,1.848-1.848h26.643a1.848,1.848,0,0,1,1.848,1.848v46.268a1.848,1.848,0,0,1-1.848,1.848" transform="translate(-124.679 -399.264)" fill="#00c6c5"/>
      <path id="Trazado_998903" data-name="Trazado 998903" d="M1019.4,666.167a15.525,15.525,0,1,1-15.447-16.911c9.664,0,16.606,8.8,15.447,16.911" transform="translate(-946.333 -621.616)" fill="#f72f43"/>
      <path id="Trazado_998904" data-name="Trazado 998904" d="M1343.318,674.144l-17.67-2.11s4.564-9.82,7.157-15.353c7.383,3.076,11.449,10.905,10.512,17.463" transform="translate(-1269.213 -628.725)" fill="#ffca28"/>
      <path id="Trazado_998905" data-name="Trazado 998905" d="M1170.073,2709.273c3.89,2.856,3.349-6.185-2-6.737a1.34,1.34,0,0,0-1.183.324c-.605.716-.386,2.626.031,3.422a10.651,10.651,0,0,0,3.149,2.99" transform="translate(-1116.858 -2587.47)" fill="#ff9f1c"/>
      <path id="Trazado_998906" data-name="Trazado 998906" d="M1117.547,2539.908c1.74,1.278,1.96-1.4.773-2.916-.714-.914-2.242-1.449-2.68-.929a2.406,2.406,0,0,0,.018,2.052,6.393,6.393,0,0,0,1.889,1.793" transform="translate(-1067.93 -2427.902)" fill="#ff9f1c"/>
      <rect id="Rectángulo_412303" data-name="Rectángulo 412303" width="5.248" height="21.903" transform="translate(9.677 43.124)" fill="#f72f43"/>
      <rect id="Rectángulo_412304" data-name="Rectángulo 412304" width="5.248" height="32.653" transform="translate(18.7 32.374)" fill="#095da4"/>
      <rect id="Rectángulo_412305" data-name="Rectángulo 412305" width="5.248" height="17.513" transform="translate(26.921 47.514)" fill="#ffca28"/>
      <path id="Trazado_998907" data-name="Trazado 998907" d="M219.346,498.66H204.033a.153.153,0,1,1,0-.306h15.313a.153.153,0,1,1,0,.306" transform="translate(-195.2 -477.138)" fill="#f2f8fd"/>
      <path id="Trazado_998908" data-name="Trazado 998908" d="M212.193,622.208h-8.16a.153.153,0,1,1,0-.306h8.16a.153.153,0,0,1,0,.306" transform="translate(-195.2 -595.426)" fill="#f2f8fd"/>
      <path id="Trazado_998909" data-name="Trazado 998909" d="M147.055,77.777a1.926,1.926,0,1,1-1.926-1.926,1.926,1.926,0,0,1,1.926,1.926" transform="translate(-137.107 -72.622)" fill="#00c6c5"/>
      <path id="Trazado_998910" data-name="Trazado 998910" d="M313.724,77.777a1.926,1.926,0,1,1-1.926-1.926,1.926,1.926,0,0,1,1.926,1.926" transform="translate(-296.68 -72.622)" fill="#f72f43"/>
      <path id="Trazado_998911" data-name="Trazado 998911" d="M480.392,77.777a1.926,1.926,0,1,1-1.926-1.926,1.926,1.926,0,0,1,1.926,1.926" transform="translate(-456.253 -72.622)" fill="#ffca28"/>
      <path id="Trazado_998912" data-name="Trazado 998912" d="M1803.68,2814.485q-5.984,0-11.687-.29a.153.153,0,0,1,.008-.306,254.084,254.084,0,0,0,31.007-.42c2.815-.2,5.825-.542,8.949-1.017,9.748-1.483,9.938-4.595,14.128-13.72a.154.154,0,0,1,.279.129l-2.436,5.3c-2.39,5.206-4.111,7.4-11.926,8.592a210.221,210.221,0,0,1-28.322,1.729" transform="translate(-1715.566 -2679.499)"/>
      <path id="Trazado_998913" data-name="Trazado 998913" d="M103.022,2467.378H50.437a1.933,1.933,0,0,1-1.781-1.167l-11.273-33.326c-.215-.676.246-1.2.983-1.2h1.259a35.659,35.659,0,0,0,9.983,21.808c7.341,7.494,17.754,11.4,28.167,12.655,9.85,1.222,18.195.286,26.108-.369l.122.43c.215.676-.214,1.167-.982,1.167" transform="translate(-35.741 -2328.165)"/>
      <path id="Trazado_998914" data-name="Trazado 998914" d="M2786.535,2513.507l-1.809,5.261-15.094-6.174Z" transform="translate(-2651.723 -2405.627)"/>
      <path id="Trazado_998915" data-name="Trazado 998915" d="M1473.49,1496.235a.17.17,0,0,1-.046-.006.154.154,0,0,1-.1-.193,17.67,17.67,0,0,1,7.8-9.528,30.484,30.484,0,0,1,11.8-3.956c.071-.029.162.045.174.129a.152.152,0,0,1-.129.174,30.214,30.214,0,0,0-11.686,3.915,17.354,17.354,0,0,0-7.67,9.36.154.154,0,0,1-.147.106" transform="translate(-1410.613 -1419.429)"/>
      <path id="Trazado_998916" data-name="Trazado 998916" d="M2960.815,1525.881a.151.151,0,0,1-.153-.151,25.378,25.378,0,0,0-3.665-12.775c-2.2-3.628-5.125-5.752-8.036-5.825a.153.153,0,0,1,0-.306c.308.167,4.417-.429,8.3,5.972a25.7,25.7,0,0,1,3.708,12.931.152.152,0,0,1-.152.154Z" transform="translate(-2823.275 -1442.674)"/>
      <path id="Trazado_998917" data-name="Trazado 998917" d="M669.941,2731.747c-2.826,1.628-6.727.123-8.724-3.348-1.935-3.348-1.382-7.341,1.228-9.031a1.713,1.713,0,0,1,.246-.153c2.8-1.628,6.7-.123,8.693,3.317,2.188,3.819,1.051,7.788-1.444,9.214" transform="translate(-631.962 -2602.823)" fill="#f72f43"/>
      <path id="Trazado_998918" data-name="Trazado 998918" d="M671.046,2749.087a4.545,4.545,0,0,1-1.105.891c-2.826,1.627-6.727.122-8.723-3.349-1.935-3.347-1.382-7.341,1.228-9.03-.051,3.04,1.369,8.219,3.932,10.167a7.692,7.692,0,0,0,4.668,1.321" transform="translate(-631.962 -2621.054)" fill="#e2212e"/>
    </g>
  </g>
</svg>
