<svg xmlns="http://www.w3.org/2000/svg" xmlns:xlink="http://www.w3.org/1999/xlink" width="400" height="338" viewBox="0 0 400 338">
  <defs>
    <clipPath id="clip-path">
      <rect id="Rectángulo_412130" data-name="Rectángulo 412130" width="400" height="338" transform="translate(1020 6028)" fill="#fff" stroke="#707070" stroke-width="1"/>
    </clipPath>
    <clipPath id="clip-path-2">
      <path id="Trazado_997895" data-name="Trazado 997895" d="M388.229,110.809H100.844a11.182,11.182,0,0,0-11.182,11.182v229.8H399.411v-229.8A11.182,11.182,0,0,0,388.229,110.809Z" transform="translate(-89.662 -110.809)"/>
    </clipPath>
  </defs>
  <g id="Enmascarar_grupo_1098783" data-name="Enmascarar grupo 1098783" transform="translate(-1020 -6028)" clip-path="url(#clip-path)">
    <g id="Grupo_1163379" data-name="Grupo 1163379" transform="translate(34.492)">
      <g id="OBJECTS" transform="translate(985.508 6028.341)">
        <g id="Grupo_1163209" data-name="Grupo 1163209" transform="translate(231.072 25.293)">
          <path id="Trazado_997772" data-name="Trazado 997772" d="M390.74,135.311c-2.262-14.121-12.429-33.873-26.862-39.13-28.643-10.434-62.047,4.122-67.1,35.489-3.179,19.723,9.026,40.536,27.358,48.478s41.115,3.115,55.526-10.72a38.7,38.7,0,0,0,9.3-13.144C391.629,149.7,391.864,142.325,390.74,135.311Z" transform="translate(-296.272 -92.835)" fill="#c5b4fe"/>
        </g>
        <g id="Grupo_1163210" data-name="Grupo 1163210" transform="translate(0 32.299)">
          <path id="Trazado_997773" data-name="Trazado 997773" d="M231.056,350.853q-34.22.321-68.435-.533c-35.593-.889-70.842,5.974-94.293-26.946-50.05-70.255-20.676-181.04,60.181-214.431,30.151-12.451,65.175-12.891,90.106,10.62,27.026,25.486,37.184,67.863,69.948,85.37,35.546,18.993,77.608-3.377,113.47,12.259a61.847,61.847,0,0,1,30.092,28.343c8.857,17.4,9.117,38.716,1.621,56.747a77.128,77.128,0,0,1-24.15,31.088c-10.7,8.275-23.8,11.081-36.515,15.223-13.762,4.482-30.212.5-44.454.5C296.093,349.1,263.584,350.547,231.056,350.853Z" transform="translate(-43.716 -100.492)" fill="#c5b4fe"/>
        </g>
        <g id="Grupo_1163213" data-name="Grupo 1163213" transform="translate(13.602 205.473)">
          <g id="Grupo_1163211" data-name="Grupo 1163211">
            <path id="Trazado_997774" data-name="Trazado 997774" d="M105.955,311.1a44.339,44.339,0,0,1,7.33,7.026,97.991,97.991,0,0,1,11.772,18.319c2.435,4.908,3.931,10.179,6.1,15.187.662,1.526,2.2,10.3,3.173,10.538a222.32,222.32,0,0,1-32.511-10.47c-9.39-3.846-17.5-10.65-23.769-18.689-9.653-12.38-14.644-27.973-19.47-43.245,14.775,1.5,28.553,7.475,40.216,16.066C101.3,307.672,103.685,309.327,105.955,311.1Z" transform="translate(-58.583 -289.767)" fill="#b19cfe"/>
          </g>
          <g id="Grupo_1163212" data-name="Grupo 1163212" transform="translate(12.698 12.548)">
            <path id="Trazado_997775" data-name="Trazado 997775" d="M72.743,305.216l29.078,27.455c9.668,9.128,19.422,18.172,28.914,27.49,5.34,5.243,10.615,10.553,15.9,15.857.8.8,1.951-.722,1.158-1.518-9.362-9.4-18.763-18.754-28.406-27.86L90.3,319.185,73.9,303.7c-.827-.78-1.979.744-1.159,1.518Z" transform="translate(-72.462 -303.482)" fill="#09136e"/>
          </g>
        </g>
        <g id="Grupo_1163216" data-name="Grupo 1163216" transform="translate(291.838 236.153)">
          <g id="Grupo_1163214" data-name="Grupo 1163214" transform="translate(16.262)">
            <path id="Trazado_997776" data-name="Trazado 997776" d="M439.079,362.566a45.3,45.3,0,0,1-9.154,4.882,100.133,100.133,0,0,1-21.533,5.6c-5.54.8-11.134.579-16.689,1.1-1.693.157-10.706-1.144-11.242-.272a227.061,227.061,0,0,1,20.51-28.238c6.722-7.9,15.909-13.605,25.71-17.134,15.092-5.434,31.821-5.319,48.186-5.147-6.157,13.87-16.343,25.348-28.4,33.94C443.891,359.134,441.525,360.927,439.079,362.566Z" transform="translate(-380.461 -323.3)" fill="#b19cfe"/>
          </g>
          <g id="Grupo_1163215" data-name="Grupo 1163215" transform="translate(0 8.001)">
            <path id="Trazado_997777" data-name="Trazado 997777" d="M455.358,332.157l-35.91,19.5c-11.94,6.483-23.824,13.077-35.893,19.329-6.79,3.517-13.624,6.95-20.455,10.389-1.035.521.081,2.124,1.105,1.608,12.11-6.1,24.181-12.252,36.091-18.72l35.91-19.5,20.258-11c1.019-.553-.092-2.157-1.105-1.607Z" transform="translate(-362.687 -332.044)" fill="#09136e"/>
          </g>
        </g>
        <g id="Grupo_1163219" data-name="Grupo 1163219" transform="translate(310.997 197.02)">
          <g id="Grupo_1163217" data-name="Grupo 1163217" transform="translate(10.884 0)">
            <path id="Trazado_997778" data-name="Trazado 997778" d="M439.506,323.832a39.591,39.591,0,0,1-5.87,6.9,87.465,87.465,0,0,1-15.693,11.446c-4.243,2.426-8.857,4.037-13.2,6.235-1.324.67-9.06,2.5-9.216,3.38a198.27,198.27,0,0,1,7.611-29.5c2.931-8.564,8.562-16.144,15.391-22.149,10.515-9.246,24.138-14.511,37.483-19.613a73.343,73.343,0,0,1-12.19,36.656C442.314,319.5,440.966,321.717,439.506,323.832Z" transform="translate(-395.524 -280.528)" fill="#09136e"/>
          </g>
          <g id="Grupo_1163218" data-name="Grupo 1163218" transform="translate(0 12.021)">
            <path id="Trazado_997779" data-name="Trazado 997779" d="M442.963,293.952l-22.917,27.336c-7.62,9.089-15.16,18.25-22.958,27.193-4.387,5.03-8.838,10.008-13.284,14.988-.673.755.746,1.7,1.413.952,7.881-8.831,15.713-17.694,23.314-26.761l22.917-27.336,12.928-15.42c.65-.776-.766-1.722-1.413-.952Z" transform="translate(-383.628 -293.666)" fill="#b19cfe"/>
          </g>
        </g>
        <g id="Grupo_1163222" data-name="Grupo 1163222" transform="translate(0.219 258.229)">
          <g id="Grupo_1163220" data-name="Grupo 1163220">
            <path id="Trazado_997780" data-name="Trazado 997780" d="M91.654,348.245a41.135,41.135,0,0,1,9.223,1.884,90.866,90.866,0,0,1,18.29,8.543c4.336,2.644,8.117,6.037,12.3,8.89,1.275.869,6.82,6.993,7.7,6.694a206.118,206.118,0,0,1-30.671,7.87c-9.266,1.629-18.99.3-27.883-2.9-13.692-4.933-25.318-14.693-36.656-24.282a76.229,76.229,0,0,1,39.482-7.293C86.307,347.86,89,347.976,91.654,348.245Z" transform="translate(-43.956 -347.428)" fill="#09136e"/>
          </g>
          <g id="Grupo_1163221" data-name="Grupo 1163221" transform="translate(16.543 10.519)">
            <path id="Trazado_997781" data-name="Trazado 997781" d="M62.735,360.7l36.38,7.147c12.1,2.377,24.217,4.643,36.27,7.256,6.78,1.47,13.543,3.025,20.307,4.573,1.025.234,1.172-1.531.157-1.763-11.992-2.744-23.989-5.426-36.055-7.8l-36.38-7.147L62.893,358.94c-1.033-.2-1.183,1.561-.157,1.763Z" transform="translate(-62.038 -358.924)" fill="#b19cfe"/>
          </g>
        </g>
        <g id="Grupo_1163224" data-name="Grupo 1163224" transform="translate(26.468 99.825)">
          <path id="Trazado_997782" data-name="Trazado 997782" d="M388.3,378.44H103.679L72.646,399.626H418.709Z" transform="translate(-72.645 -191.662)" fill="#d42190"/>
          <g id="Grupo_1163223" data-name="Grupo 1163223" transform="translate(31.034)">
            <path id="Trazado_997783" data-name="Trazado 997783" d="M378.173,174.3H119.225a12.661,12.661,0,0,0-12.661,12.661V361.075h284.27V186.958A12.662,12.662,0,0,0,378.173,174.3Z" transform="translate(-106.564 -174.297)" fill="#c60c88"/>
          </g>
          <path id="Trazado_997784" data-name="Trazado 997784" d="M375.48,178.547H122.774a11.182,11.182,0,0,0-11.182,11.182V357.548h275.07V189.729A11.182,11.182,0,0,0,375.48,178.547Z" transform="translate(-75.958 -174.659)" fill="#ded7ff"/>
          <path id="Trazado_997785" data-name="Trazado 997785" d="M414.555,410.8H76.8a4.155,4.155,0,0,1-4.155-4.155V401.6H418.708v5.045A4.153,4.153,0,0,1,414.555,410.8Z" transform="translate(-72.645 -193.632)" fill="#c60c88"/>
        </g>
        <g id="Grupo_1163231" data-name="Grupo 1163231" transform="translate(259.354 0)">
          <path id="Trazado_997786" data-name="Trazado 997786" d="M379.318,65.191H327.183V88.1a11.372,11.372,0,0,0,11.372,11.372h44.227l-.274.195,8.181,8.181V76.563A11.37,11.37,0,0,0,379.318,65.191Z" transform="translate(-327.183 -65.191)" fill="#b19cfe"/>
          <g id="Grupo_1163230" data-name="Grupo 1163230" transform="translate(6.685 7.438)" opacity="0.2">
            <g id="Grupo_1163229" data-name="Grupo 1163229">
              <g id="Grupo_1163225" data-name="Grupo 1163225" transform="translate(35.211)">
                <path id="Trazado_997787" data-name="Trazado 997787" d="M384.747,79.629h-8.62a3.154,3.154,0,0,1,0-6.308h8.62a3.154,3.154,0,0,1,0,6.308Z" transform="translate(-372.974 -73.321)" fill="#fff"/>
              </g>
              <g id="Grupo_1163226" data-name="Grupo 1163226">
                <path id="Trazado_997788" data-name="Trazado 997788" d="M364.4,79.629H337.643a3.154,3.154,0,0,1,0-6.308H364.4a3.154,3.154,0,1,1,0,6.308Z" transform="translate(-334.489 -73.321)" fill="#fff"/>
              </g>
              <g id="Grupo_1163227" data-name="Grupo 1163227" transform="translate(18.75 12.467)">
                <path id="Trazado_997789" data-name="Trazado 997789" d="M383.217,93.255H358.136a3.154,3.154,0,0,1,0-6.308h25.081a3.154,3.154,0,0,1,0,6.308Z" transform="translate(-354.982 -86.947)" fill="#fff"/>
              </g>
              <g id="Grupo_1163228" data-name="Grupo 1163228" transform="translate(0 12.467)">
                <path id="Trazado_997790" data-name="Trazado 997790" d="M346.664,93.255h-9.021a3.154,3.154,0,0,1,0-6.308h9.021a3.154,3.154,0,0,1,0,6.308Z" transform="translate(-334.489 -86.947)" fill="#fff"/>
              </g>
            </g>
          </g>
        </g>
        <path id="Trazado_997791" data-name="Trazado 997791" d="M106.848,116.96l-3.264,3.277a2.579,2.579,0,0,0-.288.349,22.194,22.194,0,0,0-7.171-2.925,2.638,2.638,0,0,0,.042-.459l-.031-4.626a2.614,2.614,0,0,0-2.628-2.593l-4.626.031a2.614,2.614,0,0,0-2.593,2.628l.031,4.626a2.62,2.62,0,0,0,.048.457,22.174,22.174,0,0,0-6.954,2.908,2.656,2.656,0,0,0-.29-.348l-3.277-3.264a2.613,2.613,0,0,0-3.692.007l-3.264,3.277A2.613,2.613,0,0,0,68.9,124l3.277,3.264a2.578,2.578,0,0,0,.349.288,22.2,22.2,0,0,0-2.925,7.171,2.63,2.63,0,0,0-.459-.042l-4.626.031a2.592,2.592,0,0,0-1.832.768l-.009.009a2.594,2.594,0,0,0-.752,1.851l.031,4.626h0a2.614,2.614,0,0,0,2.628,2.593l4.626-.031a2.5,2.5,0,0,0,.457-.049,22.192,22.192,0,0,0,2.908,6.956,2.656,2.656,0,0,0-.348.29L68.956,155a2.613,2.613,0,0,0,.007,3.692l3.277,3.264a2.613,2.613,0,0,0,3.692-.007l3.265-3.277a2.579,2.579,0,0,0,.288-.349,22.2,22.2,0,0,0,7.173,2.925,2.612,2.612,0,0,0-.043.458l.031,4.626a2.61,2.61,0,0,0,2.628,2.593l4.626-.031h0a2.615,2.615,0,0,0,2.593-2.629l-.031-4.626a2.583,2.583,0,0,0-.049-.457,22.191,22.191,0,0,0,6.956-2.908,2.655,2.655,0,0,0,.29.348l3.277,3.264a2.613,2.613,0,0,0,3.692-.007l3.264-3.277a2.613,2.613,0,0,0-.007-3.692l-3.277-3.264a2.58,2.58,0,0,0-.349-.288,22.2,22.2,0,0,0,2.925-7.172,2.612,2.612,0,0,0,.459.043l4.626-.031a2.613,2.613,0,0,0,2.592-2.629l-.031-4.626a2.614,2.614,0,0,0-2.628-2.593l-4.626.031a2.622,2.622,0,0,0-.457.048,22.183,22.183,0,0,0-2.908-6.954,2.655,2.655,0,0,0,.348-.29l3.264-3.277a2.613,2.613,0,0,0-.007-3.692l-3.277-3.265A2.615,2.615,0,0,0,106.848,116.96Zm-6.771,31.147a12.26,12.26,0,1,1-.034-17.338A12.274,12.274,0,0,1,100.076,148.107Z" transform="translate(-45.265 -69.001)" fill="#09136e"/>
        <path id="Trazado_997792" data-name="Trazado 997792" d="M129.753,75.985l-3.215,1.2a1.959,1.959,0,0,0-.3.146,16.461,16.461,0,0,0-3.935-4.189,1.9,1.9,0,0,0,.17-.3l1.408-3.13a1.939,1.939,0,0,0-.972-2.561l-3.131-1.408a1.939,1.939,0,0,0-2.561.972l-1.408,3.13a1.915,1.915,0,0,0-.109.323,16.441,16.441,0,0,0-5.59-.187,1.978,1.978,0,0,0-.088-.324l-1.2-3.215a1.939,1.939,0,0,0-2.493-1.135l-3.215,1.2a1.94,1.94,0,0,0-1.135,2.493l1.2,3.215a1.877,1.877,0,0,0,.146.3,16.46,16.46,0,0,0-4.189,3.935,1.932,1.932,0,0,0-.3-.17l-3.13-1.408a1.922,1.922,0,0,0-1.473-.048l-.008,0a1.925,1.925,0,0,0-1.08,1.016l-1.408,3.13h0a1.939,1.939,0,0,0,.972,2.561l3.131,1.408a1.921,1.921,0,0,0,.324.108,16.445,16.445,0,0,0-.187,5.591,1.978,1.978,0,0,0-.324.088l-3.215,1.2A1.94,1.94,0,0,0,91.3,92.439l1.2,3.215A1.94,1.94,0,0,0,95,96.789l3.215-1.2a1.88,1.88,0,0,0,.3-.146,16.449,16.449,0,0,0,3.936,4.189,1.968,1.968,0,0,0-.171.3l-1.408,3.13a1.937,1.937,0,0,0,.972,2.562l3.131,1.408h0a1.939,1.939,0,0,0,2.561-.972l1.408-3.131a1.953,1.953,0,0,0,.108-.324,16.446,16.446,0,0,0,5.591.187,1.978,1.978,0,0,0,.088.324l1.2,3.215a1.939,1.939,0,0,0,2.493,1.135l3.215-1.2a1.939,1.939,0,0,0,1.135-2.493l-1.2-3.215a1.959,1.959,0,0,0-.146-.3,16.468,16.468,0,0,0,4.189-3.936,1.892,1.892,0,0,0,.3.171l3.13,1.408a1.939,1.939,0,0,0,2.561-.973l1.408-3.13a1.939,1.939,0,0,0-.972-2.561l-3.13-1.408a1.9,1.9,0,0,0-.324-.109,16.44,16.44,0,0,0,.187-5.59,1.978,1.978,0,0,0,.324-.088l3.215-1.2a1.939,1.939,0,0,0,1.135-2.493l-1.2-3.215A1.944,1.944,0,0,0,129.753,75.985Zm-14.19,18.923A9.1,9.1,0,1,1,120.9,83.2,9.108,9.108,0,0,1,115.563,94.908Z" transform="translate(-47.754 -65.191)" fill="#09136e"/>
        <path id="Trazado_997793" data-name="Trazado 997793" d="M160.736,118.339l-2.952-.315a1.807,1.807,0,0,0-.29,0,14.238,14.238,0,0,0-1.42-4.762,1.621,1.621,0,0,0,.246-.164l2.3-1.875a1.678,1.678,0,0,0,.241-2.357l-1.875-2.3a1.678,1.678,0,0,0-2.357-.241l-2.3,1.875a1.667,1.667,0,0,0-.21.208,14.224,14.224,0,0,0-4.25-2.309,1.7,1.7,0,0,0,.058-.285l.315-2.952a1.677,1.677,0,0,0-1.488-1.844L143.8,100.7a1.677,1.677,0,0,0-1.844,1.488l-.316,2.952a1.81,1.81,0,0,0,0,.29,14.238,14.238,0,0,0-4.762,1.42,1.717,1.717,0,0,0-.164-.246l-1.875-2.3a1.662,1.662,0,0,0-1.121-.608h-.008a1.662,1.662,0,0,0-1.228.368l-2.3,1.875h0a1.678,1.678,0,0,0-.241,2.357l1.875,2.3a1.608,1.608,0,0,0,.209.209,14.23,14.23,0,0,0-2.31,4.251,1.706,1.706,0,0,0-.285-.058l-2.952-.315a1.677,1.677,0,0,0-1.844,1.488l-.315,2.952a1.677,1.677,0,0,0,1.488,1.844l2.952.315a1.81,1.81,0,0,0,.29,0,14.223,14.223,0,0,0,1.421,4.763,1.692,1.692,0,0,0-.247.163l-2.3,1.875a1.674,1.674,0,0,0-.241,2.356l1.875,2.3h0a1.678,1.678,0,0,0,2.357.241l2.3-1.875a1.6,1.6,0,0,0,.209-.209,14.231,14.231,0,0,0,4.251,2.31,1.7,1.7,0,0,0-.058.285l-.315,2.952a1.677,1.677,0,0,0,1.488,1.844l2.952.316a1.677,1.677,0,0,0,1.844-1.488l.315-2.952a1.622,1.622,0,0,0,0-.29,14.223,14.223,0,0,0,4.763-1.421,1.692,1.692,0,0,0,.163.247L151.7,135a1.678,1.678,0,0,0,2.357.241l2.3-1.875a1.677,1.677,0,0,0,.241-2.357l-1.875-2.3a1.663,1.663,0,0,0-.208-.21,14.244,14.244,0,0,0,2.309-4.25,1.706,1.706,0,0,0,.285.058l2.952.316a1.677,1.677,0,0,0,1.844-1.488l.315-2.952A1.675,1.675,0,0,0,160.736,118.339Zm-18.3,9.135a7.867,7.867,0,1,1,8.658-6.987A7.876,7.876,0,0,1,142.437,127.474Z" transform="translate(-50.572 -68.21)" fill="#09136e"/>
        <g id="Grupo_1163239" data-name="Grupo 1163239" transform="translate(147.387 116.546)" opacity="0.7">
          <g id="Grupo_1163238" data-name="Grupo 1163238">
            <g id="Grupo_1163233" data-name="Grupo 1163233" transform="translate(3.474 53.558)">
              <g id="Grupo_1163232" data-name="Grupo 1163232">
                <path id="Trazado_997794" data-name="Trazado 997794" d="M247.363,253.845l-1.173,5.9a3.379,3.379,0,0,0-.061.586,28.855,28.855,0,0,0-9.873,2,3.381,3.381,0,0,0-.285-.527l-3.367-4.987a3.4,3.4,0,0,0-4.714-.914l-4.987,3.367a3.4,3.4,0,0,0-.914,4.715l3.367,4.986a3.437,3.437,0,0,0,.382.461,28.843,28.843,0,0,0-5.436,8.16,3.447,3.447,0,0,0-.565-.167l-5.9-1.173a3.4,3.4,0,0,0-3.993,2.668l-1.173,5.9a3.4,3.4,0,0,0,2.669,3.993l5.9,1.173a3.374,3.374,0,0,0,.586.061,28.855,28.855,0,0,0,2,9.873,3.384,3.384,0,0,0-.527.285l-4.986,3.367a3.372,3.372,0,0,0-1.431,2.151l0,.016a3.37,3.37,0,0,0,.52,2.546l3.367,4.986h0a3.4,3.4,0,0,0,4.715.914l4.987-3.367a3.393,3.393,0,0,0,.459-.382,28.837,28.837,0,0,0,8.162,5.437,3.441,3.441,0,0,0-.167.565l-1.173,5.9a3.4,3.4,0,0,0,2.669,3.993l5.9,1.173a3.4,3.4,0,0,0,3.993-2.669l1.173-5.9a3.374,3.374,0,0,0,.061-.586,28.846,28.846,0,0,0,9.875-2,3.355,3.355,0,0,0,.284.528l3.367,4.986a3.4,3.4,0,0,0,4.715.914l4.987-3.367h0a3.4,3.4,0,0,0,.914-4.714l-3.367-4.987a3.343,3.343,0,0,0-.382-.459,28.849,28.849,0,0,0,5.437-8.162,3.468,3.468,0,0,0,.565.167l5.9,1.173a3.4,3.4,0,0,0,3.993-2.668l1.173-5.9a3.4,3.4,0,0,0-2.669-3.993l-5.9-1.173a3.374,3.374,0,0,0-.586-.061,28.844,28.844,0,0,0-2-9.875,3.351,3.351,0,0,0,.528-.284l4.987-3.367a3.4,3.4,0,0,0,.913-4.715l-3.367-4.987a3.4,3.4,0,0,0-4.714-.914l-4.986,3.367a3.386,3.386,0,0,0-.461.382,28.858,28.858,0,0,0-8.16-5.436,3.359,3.359,0,0,0,.167-.564l1.173-5.9a3.4,3.4,0,0,0-2.668-3.993l-5.9-1.173A3.406,3.406,0,0,0,247.363,253.845Zm15.114,38.609A15.947,15.947,0,1,1,249.944,273.7,15.965,15.965,0,0,1,262.476,292.453Z" transform="translate(-208.603 -251.109)" fill="#ded7ff"/>
              </g>
            </g>
            <g id="Grupo_1163235" data-name="Grupo 1163235">
              <g id="Grupo_1163234" data-name="Grupo 1163234">
                <path id="Trazado_997795" data-name="Trazado 997795" d="M244.577,197.232l-2.615,3.619a2.583,2.583,0,0,0-.222.376,21.42,21.42,0,0,0-7.279-1.7,2.5,2.5,0,0,0-.03-.444l-.731-4.4a2.524,2.524,0,0,0-2.9-2.073l-4.4.731a2.524,2.524,0,0,0-2.073,2.9l.731,4.4a2.6,2.6,0,0,0,.114.429,21.4,21.4,0,0,0-6.188,3.826,2.538,2.538,0,0,0-.328-.287l-3.619-2.615a2.523,2.523,0,0,0-3.518.567L208.9,206.18a2.523,2.523,0,0,0,.567,3.518l3.62,2.615a2.583,2.583,0,0,0,.376.222,21.414,21.414,0,0,0-1.7,7.279,2.5,2.5,0,0,0-.444.03l-4.4.731a2.5,2.5,0,0,0-1.63,1.01l-.007.01a2.5,2.5,0,0,0-.436,1.878l.731,4.4h0a2.524,2.524,0,0,0,2.9,2.073l4.4-.731a2.461,2.461,0,0,0,.428-.116,21.419,21.419,0,0,0,3.827,6.19,2.547,2.547,0,0,0-.287.328l-2.615,3.619a2.523,2.523,0,0,0,.567,3.518l3.619,2.615a2.523,2.523,0,0,0,3.518-.567l2.615-3.619a2.585,2.585,0,0,0,.222-.376,21.424,21.424,0,0,0,7.281,1.7,2.509,2.509,0,0,0,.028.444l.731,4.4a2.521,2.521,0,0,0,2.9,2.073l4.4-.731h0a2.524,2.524,0,0,0,2.073-2.9l-.731-4.4a2.543,2.543,0,0,0-.116-.428,21.419,21.419,0,0,0,6.19-3.827,2.489,2.489,0,0,0,.329.287l3.619,2.615a2.523,2.523,0,0,0,3.518-.567l2.615-3.619a2.523,2.523,0,0,0-.567-3.518l-3.62-2.615a2.579,2.579,0,0,0-.376-.222,21.4,21.4,0,0,0,1.7-7.281,2.511,2.511,0,0,0,.444-.028l4.4-.731a2.522,2.522,0,0,0,2.072-2.9l-.731-4.4a2.524,2.524,0,0,0-2.9-2.073l-4.4.731a2.6,2.6,0,0,0-.429.114,21.408,21.408,0,0,0-3.826-6.188,2.483,2.483,0,0,0,.287-.329l2.615-3.619a2.523,2.523,0,0,0-.567-3.518l-3.619-2.615A2.524,2.524,0,0,0,244.577,197.232Zm-1.729,30.717a11.833,11.833,0,1,1-2.662-16.521A11.847,11.847,0,0,1,242.847,227.949Z" transform="translate(-204.806 -192.572)" fill="#ded7ff"/>
              </g>
            </g>
            <g id="Grupo_1163237" data-name="Grupo 1163237" transform="translate(57.396 18.087)">
              <g id="Grupo_1163236" data-name="Grupo 1163236">
                <path id="Trazado_997796" data-name="Trazado 997796" d="M307.371,220.006l-3.049,2.369a2.176,2.176,0,0,0-.275.258,18.519,18.519,0,0,0-5.629-3.179,2.153,2.153,0,0,0,.083-.376l.463-3.834a2.182,2.182,0,0,0-1.9-2.425l-3.834-.463a2.182,2.182,0,0,0-2.425,1.9l-.463,3.833a2.245,2.245,0,0,0-.009.383,18.512,18.512,0,0,0-6.065,1.673,2.226,2.226,0,0,0-.2-.318l-2.369-3.049a2.182,2.182,0,0,0-3.058-.384l-3.049,2.369a2.182,2.182,0,0,0-.384,3.058l2.369,3.049a2.113,2.113,0,0,0,.258.275,18.517,18.517,0,0,0-3.179,5.629,2.238,2.238,0,0,0-.376-.083l-3.833-.463a2.161,2.161,0,0,0-1.6.442l-.008.006a2.167,2.167,0,0,0-.819,1.453l-.463,3.833h0a2.182,2.182,0,0,0,1.9,2.425l3.834.463a2.151,2.151,0,0,0,.383.007,18.517,18.517,0,0,0,1.673,6.066,2.226,2.226,0,0,0-.318.2l-3.049,2.369a2.182,2.182,0,0,0-.384,3.058l2.369,3.049a2.182,2.182,0,0,0,3.058.384l3.049-2.369a2.176,2.176,0,0,0,.275-.258,18.5,18.5,0,0,0,5.63,3.179,2.188,2.188,0,0,0-.084.375l-.463,3.833a2.179,2.179,0,0,0,1.9,2.425l3.834.463h0a2.182,2.182,0,0,0,2.425-1.9l.463-3.834a2.158,2.158,0,0,0,.007-.383,18.516,18.516,0,0,0,6.066-1.672,2.225,2.225,0,0,0,.2.318l2.369,3.049a2.182,2.182,0,0,0,3.058.384l3.049-2.369a2.182,2.182,0,0,0,.384-3.058l-2.369-3.049a2.171,2.171,0,0,0-.258-.275,18.5,18.5,0,0,0,3.179-5.63,2.211,2.211,0,0,0,.375.084l3.834.463a2.182,2.182,0,0,0,2.425-1.9l.464-3.834a2.182,2.182,0,0,0-1.9-2.425l-3.833-.463a2.248,2.248,0,0,0-.384-.009,18.51,18.51,0,0,0-1.672-6.065,2.226,2.226,0,0,0,.318-.2l3.049-2.369a2.182,2.182,0,0,0,.384-3.058l-2.369-3.049A2.187,2.187,0,0,0,307.371,220.006Zm-8.9,25.073a10.233,10.233,0,1,1,1.8-14.359A10.245,10.245,0,0,1,298.475,245.079Z" transform="translate(-267.539 -212.341)" fill="#ded7ff"/>
              </g>
            </g>
          </g>
        </g>
        <g id="Grupo_1163246" data-name="Grupo 1163246" transform="translate(318.45 78.352)">
          <rect id="Rectángulo_412057" data-name="Rectángulo 412057" width="9.826" height="7.902" transform="translate(0.603 48.76)" fill="#09136e"/>
          <rect id="Rectángulo_412058" data-name="Rectángulo 412058" width="9.826" height="25.947" transform="translate(12.421 30.715)" fill="#542fd0"/>
          <rect id="Rectángulo_412059" data-name="Rectángulo 412059" width="9.826" height="39.313" transform="translate(36.885 17.35)" fill="#d42190"/>
          <rect id="Rectángulo_412060" data-name="Rectángulo 412060" width="9.826" height="23.051" transform="translate(24.763 33.612)" fill="#ffc655"/>
          <g id="Grupo_1163245" data-name="Grupo 1163245" transform="translate(49.443 16.268)">
            <g id="Grupo_1163240" data-name="Grupo 1163240" transform="translate(0 39.209)">
              <path id="Trazado_997797" data-name="Trazado 997797" d="M453.19,212.836h-6.72a.688.688,0,0,1,0-1.374h6.72a.688.688,0,0,1,0,1.374Z" transform="translate(-445.813 -211.462)" fill="#09136e"/>
            </g>
            <g id="Grupo_1163241" data-name="Grupo 1163241" transform="translate(0 29.407)">
              <path id="Trazado_997798" data-name="Trazado 997798" d="M453.19,202.123h-6.72a.688.688,0,0,1,0-1.374h6.72a.688.688,0,0,1,0,1.374Z" transform="translate(-445.813 -200.749)" fill="#09136e"/>
            </g>
            <g id="Grupo_1163242" data-name="Grupo 1163242" transform="translate(0 19.604)">
              <path id="Trazado_997799" data-name="Trazado 997799" d="M453.19,191.409h-6.72a.688.688,0,0,1,0-1.374h6.72a.688.688,0,0,1,0,1.374Z" transform="translate(-445.813 -190.035)" fill="#09136e"/>
            </g>
            <g id="Grupo_1163243" data-name="Grupo 1163243" transform="translate(0 9.803)">
              <path id="Trazado_997800" data-name="Trazado 997800" d="M453.19,180.7h-6.72a.688.688,0,0,1,0-1.374h6.72a.688.688,0,0,1,0,1.374Z" transform="translate(-445.813 -179.322)" fill="#09136e"/>
            </g>
            <g id="Grupo_1163244" data-name="Grupo 1163244">
              <path id="Trazado_997801" data-name="Trazado 997801" d="M453.19,169.982h-6.72a.688.688,0,0,1,0-1.374h6.72a.688.688,0,0,1,0,1.374Z" transform="translate(-445.813 -168.608)" fill="#09136e"/>
            </g>
          </g>
          <path id="Trazado_997802" data-name="Trazado 997802" d="M437.082,150.942a.641.641,0,0,0-.67-.038L428.6,155.09a.644.644,0,1,0,.607,1.136l5.934-3.178-13.255,22.075a1.808,1.808,0,0,0-1.887.483L411.4,169a1.832,1.832,0,0,0,.085-.528,1.866,1.866,0,1,0-3.527.833l-13.745,15.034a1.836,1.836,0,0,0-.578-.1,1.882,1.882,0,1,0,1.591.9l13.668-14.95a1.859,1.859,0,0,0,1.74-.156l8.842,6.8c0,.022-.006.043-.006.065a1.866,1.866,0,1,0,3.442-.989l12.724-21.194-.668,5.077a.644.644,0,0,0,.554.723.686.686,0,0,0,.085.005.644.644,0,0,0,.638-.56l1.106-8.4A.646.646,0,0,0,437.082,150.942Z" transform="translate(-391.773 -150.827)" fill="#09136e"/>
        </g>
        <g id="Grupo_1163247" data-name="Grupo 1163247" transform="translate(180.409 46.25)">
          <circle id="Elipse_12235" data-name="Elipse 12235" cx="19.227" cy="19.227" r="19.227" fill="#542fd0"/>
          <path id="Trazado_997803" data-name="Trazado 997803" d="M264.3,134.419a6.133,6.133,0,1,0-6.681,0,11.167,11.167,0,0,0-6.89,10.58h20.46A11.165,11.165,0,0,0,264.3,134.419Z" transform="translate(-241.734 -116.371)" fill="#fff"/>
        </g>
        <g id="Grupo_1163248" data-name="Grupo 1163248" transform="translate(336.162 151.701)">
          <circle id="Elipse_12236" data-name="Elipse 12236" cx="19.173" cy="19.173" r="19.173" fill="#542fd0"/>
          <path id="Trazado_997804" data-name="Trazado 997804" d="M436.082,260.064l-4.211-1.908a1.623,1.623,0,0,0-1.339,0l-4.215,1.9a1.626,1.626,0,0,1-2.284-1.662l.513-4.595a1.626,1.626,0,0,0-.413-1.274l-3.109-3.422a1.625,1.625,0,0,1,.876-2.685l4.528-.932a1.629,1.629,0,0,0,1.084-.786l2.294-4.014a1.626,1.626,0,0,1,2.824,0l2.286,4.018a1.624,1.624,0,0,0,1.082.788l4.526.941a1.625,1.625,0,0,1,.87,2.687l-3.115,3.415a1.628,1.628,0,0,0-.415,1.273l.5,4.6A1.624,1.624,0,0,1,436.082,260.064Z" transform="translate(-411.937 -231.751)" fill="#fff"/>
        </g>
        <g id="Grupo_1163250" data-name="Grupo 1163250" transform="translate(21.914 107.788)">
          <circle id="Elipse_12237" data-name="Elipse 12237" cx="20.044" cy="20.044" r="20.044" transform="translate(0 39.564) rotate(-80.701)" fill="#ffc655"/>
          <g id="Grupo_1163249" data-name="Grupo 1163249" transform="translate(5.381 5.397)">
            <path id="Trazado_997805" data-name="Trazado 997805" d="M91.184,224.164a17.633,17.633,0,1,1,17.633-17.633A17.653,17.653,0,0,1,91.184,224.164Zm0-33.749A16.116,16.116,0,1,0,107.3,206.531,16.133,16.133,0,0,0,91.184,190.415Z" transform="translate(-73.55 -188.898)" fill="#fff"/>
          </g>
        </g>
        <g id="Grupo_1163257" data-name="Grupo 1163257" transform="translate(294.423 26.351)">
          <path id="Trazado_997806" data-name="Trazado 997806" d="M376.884,93.992h52.135v22.914a11.372,11.372,0,0,1-11.372,11.372H373.42l.274.195-8.182,8.182v-31.29A11.372,11.372,0,0,1,376.884,93.992Z" transform="translate(-365.512 -93.992)" fill="#542fd0"/>
          <g id="Grupo_1163256" data-name="Grupo 1163256" transform="translate(6.684 7.438)" opacity="0.2">
            <g id="Grupo_1163255" data-name="Grupo 1163255">
              <g id="Grupo_1163251" data-name="Grupo 1163251">
                <path id="Trazado_997807" data-name="Trazado 997807" d="M375.971,108.43h8.62a3.154,3.154,0,1,0,0-6.308h-8.62a3.154,3.154,0,0,0,0,6.308Z" transform="translate(-372.817 -102.122)" fill="#fff"/>
              </g>
              <g id="Grupo_1163252" data-name="Grupo 1163252" transform="translate(17.075)">
                <path id="Trazado_997808" data-name="Trazado 997808" d="M394.634,108.43h26.756a3.154,3.154,0,0,0,0-6.308H394.634a3.154,3.154,0,0,0,0,6.308Z" transform="translate(-391.48 -102.122)" fill="#fff"/>
              </g>
              <g id="Grupo_1163253" data-name="Grupo 1163253" transform="translate(0 12.467)">
                <path id="Trazado_997809" data-name="Trazado 997809" d="M375.971,122.056h25.081a3.154,3.154,0,1,0,0-6.308H375.971a3.154,3.154,0,0,0,0,6.308Z" transform="translate(-372.817 -115.748)" fill="#fff"/>
              </g>
              <g id="Grupo_1163254" data-name="Grupo 1163254" transform="translate(34.81 12.467)">
                <path id="Trazado_997810" data-name="Trazado 997810" d="M414.017,122.056h9.021a3.154,3.154,0,1,0,0-6.308h-9.021a3.154,3.154,0,0,0,0,6.308Z" transform="translate(-410.863 -115.748)" fill="#fff"/>
              </g>
            </g>
          </g>
        </g>
        <path id="Trazado_997811" data-name="Trazado 997811" d="M232.892,83.491a16.179,16.179,0,1,0-29.773,8.752l-.016,0,10.469,17.921a3.638,3.638,0,0,0,6.283,0L230.323,92.24l-.016,0A16.081,16.081,0,0,0,232.892,83.491Zm-16.179,6.147a6.732,6.732,0,1,1,6.732-6.732A6.732,6.732,0,0,1,216.713,89.638Z" transform="translate(-57.056 -65.371)" fill="#ffc655"/>
        <g id="Grupo_1163358" data-name="Grupo 1163358" transform="translate(42.037 41.738)">
          <g id="Grupo_1163357" data-name="Grupo 1163357" transform="translate(0 0)">
            <g id="Grupo_1163356" data-name="Grupo 1163356" clip-path="url(#clip-path-2)">
              <g id="Grupo_1163258" data-name="Grupo 1163258" transform="translate(53.893 71.164)">
                <path id="Trazado_997812" data-name="Trazado 997812" d="M188.551,223.035c-2.114,2.6-5.491,4.794-8.126,6.847a8.675,8.675,0,0,1-3.8,2.01,9.188,9.188,0,0,1-4.211-.7q-8.6-2.9-17.219-5.786c-1.836-.618-3.585-1.505-5.351-2.3a2.485,2.485,0,0,1-.984-.652c-.557-.7-.209-1.732.166-2.541,2.01-4.437,2.715-8.91,3.733-13.573a27.1,27.1,0,0,0,.531-3.637,59.173,59.173,0,0,0-.313-10.162c.035.365,1.532.2,1.732.191,5.177-.166,10.45-1.314,15.54-2.184,2.566-.444,5.134-.9,7.692-1.375a19.26,19.26,0,0,1,3.228-.348c1.575-.027,3.071-.226,4.646-.243a.694.694,0,0,1,.844.818q.561,9.579,1.123,19.168a35.88,35.88,0,0,0,.878,7.727c.1.382.226.791.339,1.21C189.483,219.381,189.831,221.469,188.551,223.035Z" transform="translate(-148.566 -188.589)" fill="#ffc19d"/>
              </g>
              <g id="Grupo_1163259" data-name="Grupo 1163259" transform="translate(58.302 71.163)">
                <path id="Trazado_997813" data-name="Trazado 997813" d="M189.405,217.51a15.9,15.9,0,0,1-4.872.583,33.334,33.334,0,0,1-11.033-2.811c-7.326-2.915-14.678-6.708-19.8-12.573a59.174,59.174,0,0,0-.313-10.162c.035.365,1.532.2,1.732.191,5.177-.166,10.45-1.314,15.54-2.184,2.566-.444,5.134-.9,7.692-1.375a19.259,19.259,0,0,1,3.228-.348c1.575-.027,3.071-.226,4.646-.243a.694.694,0,0,1,.844.818q.561,9.579,1.123,19.168a35.879,35.879,0,0,0,.878,7.727C189.17,216.684,189.293,217.093,189.405,217.51Z" transform="translate(-153.384 -188.588)" fill="#e89c77"/>
              </g>
              <g id="Grupo_1163260" data-name="Grupo 1163260" transform="translate(109.425 100.042)">
                <path id="Trazado_997814" data-name="Trazado 997814" d="M228.25,244.372c.807,2.776,1.534,5.527,2.292,8.11,3.291,11.216,4.263,22.619,5.939,34.2a199.814,199.814,0,0,0,9.906,39.093q3.754,10.547,7.508,21.093c2.03,5.7,5.607,12.216,6.371,18.225a.888.888,0,0,1-.144.753.919.919,0,0,1-.579.2q-18.006,1.758-36.11,2.2c-1.24.03-2.751-.1-3.286-1.221a3.288,3.288,0,0,1-.054-2,68.485,68.485,0,0,0,1.171-20.117c-.642-7.674-1.21-15.356-1.759-23.038-1.1-15.382-2.1-30.77-3.427-46.135-.823-9.564-1.387-19.148-2.1-28.72-.334-4.505-.618-9.021-1.292-13.492a59.988,59.988,0,0,0-1.393-6.778c-.236-.867-2.6-6.073-1.909-6.494.453-.275,1.524.174,1.988.289q1.114.277,2.205.639a30.408,30.408,0,0,1,3.463,1.389,7.167,7.167,0,0,1,2.436,1.976,31.02,31.02,0,0,1,3.464,5.5C225.407,234.6,226.814,239.43,228.25,244.372Z" transform="translate(-209.26 -220.152)" fill="#b19cfe"/>
              </g>
              <g id="Grupo_1163261" data-name="Grupo 1163261" transform="translate(24.742 88.941)">
                <path id="Trazado_997815" data-name="Trazado 997815" d="M184.9,208.545a5,5,0,0,1,.37-.526,22.48,22.48,0,0,0,1.38,1.986,19.848,19.848,0,0,0,3.054,2.55,14.115,14.115,0,0,1,1.705,1.168c1.052.932.672,2.144,2.255,2.642a4.938,4.938,0,0,1,1.2.379l1.285.4,2.568.809c1.7.533,3.353,1.1,5.014,1.73a8.6,8.6,0,0,0-.546,2.253,22.039,22.039,0,0,0,.19,2.268,14.709,14.709,0,0,0,1.288,4.546c.709,2.421,1.783,4.621,2.425,7.038q2.285,8.612,4.158,17.325c3.671,17.093,3.456,34.2,3.717,51.483.3,19.555,2.937,39.21.158,58.693-.7,4.917-5.555,4.82-9.837,5.254-6.982.706-83.519,2.6-83.439.036q.6-19.149-.643-38.3c-.7-10.784-3.265-21.128-4.073-31.712-1.492-19.531,1.242-39.314,2.534-58.966.248-3.771.231-8.478,2.525-11.7,2.116-2.974,13.921-6.433,15.958-7.375q3.506-1.621,7.12-2.994a2.651,2.651,0,0,1,.265-3.405l4.225-5.59c1.065,1.413,1.631,2.867,3.136,3.87a42.107,42.107,0,0,0,4.986,3.368q6.229,3.415,12.689,6.382a1.619,1.619,0,0,0,2.241-.387c2.387-2.177,4.83-4.294,7.115-6.579,1.124-1.125,2.212-2.288,3.224-3.517A26.134,26.134,0,0,0,184.9,208.545Z" transform="translate(-116.704 -208.019)" fill="#b19cfe"/>
              </g>
              <g id="Grupo_1163262" data-name="Grupo 1163262" transform="translate(181.247 80.874)">
                <path id="Trazado_997816" data-name="Trazado 997816" d="M306.042,199.855c-2.438,20.62-20.775,37.359-18,58.927A34.536,34.536,0,0,0,295.27,275.8c.548.692,1.513-.285.971-.971a33.058,33.058,0,0,1-6.766-15.653,37.208,37.208,0,0,1,1.274-15.5c2.757-9.766,8.132-18.508,12.081-27.8a58.653,58.653,0,0,0,4.587-16.02c.1-.875-1.271-.867-1.373,0Z" transform="translate(-287.76 -199.202)" fill="#11112b"/>
              </g>
              <g id="Grupo_1163263" data-name="Grupo 1163263" transform="translate(260.763 50.582)">
                <path id="Trazado_997817" data-name="Trazado 997817" d="M374.674,166.746c1.717,13.637,4.653,27.306,10.582,39.784,2.992,6.3,6.767,12.2,9.934,18.411a86.834,86.834,0,0,1,7.582,19.9,52.532,52.532,0,0,1,.082,25,.687.687,0,0,0,1.323.365c3.66-14.028.3-28.71-5.672-41.59-2.973-6.416-6.588-12.481-9.975-18.678a95.4,95.4,0,0,1-7.853-19.639,157.905,157.905,0,0,1-4.633-23.557c-.108-.864-1.482-.875-1.371,0Z" transform="translate(-374.668 -166.094)" fill="#11112b"/>
              </g>
              <g id="Grupo_1163264" data-name="Grupo 1163264" transform="translate(182.417 41.429)">
                <path id="Trazado_997818" data-name="Trazado 997818" d="M377.906,211.942c5.455,11.164,13.626,20.984,17.807,32.686a44.978,44.978,0,0,1,1.787,25.184,34.882,34.882,0,0,1-13.843,20.833c-7.946,5.426-17.907,6.855-27.5,7.552-9.347.679-18.824.8-28-1.107-9.033-1.873-16.361-5.822-23.48-11.531-6.573-5.271-12.285-8.987-14.642-17.739-1.867-6.932-.886-14.351,1.19-21.223s5.208-13.372,7.745-20.087a122.681,122.681,0,0,0,7.88-44.728c-.06-5.007-1.8-11.479,1.958-15.465,4.188-4.442,13.1-6.409,18.941-6.805,6.414-.436,12.5-2.916,18.98-3.375,5.546-.393,10.943,1.729,15.634,4.514,4.522,2.684,7.208,4.852,8.035,10.227,1.025,6.656-.182,13.294.815,19.79a74.31,74.31,0,0,0,6.579,21.026C377.825,211.777,377.866,211.859,377.906,211.942Z" transform="translate(-289.039 -156.09)" fill="#11112b"/>
              </g>
              <g id="Grupo_1163265" data-name="Grupo 1163265" transform="translate(209.967 83.514)">
                <path id="Trazado_997819" data-name="Trazado 997819" d="M365.309,235.416c-1.461,1.2-2.437,2.747-4.073,3.757-6.929,4.282-14.85,6.269-22.355,9.274-3.94,1.569-8,3.723-12.354,2.287-3.706-1.227-6.152-4.933-6.962-8.748s-.275-7.771.259-11.636a6.186,6.186,0,0,1,.334-1.461,6.022,6.022,0,0,1,1.812-2.079,6.03,6.03,0,0,0,1.277-1.411c.985-1.686.96-4.366,1.2-6.277.484-3.765.443-7.537.618-11.294.05-1.01.109-2.012.2-3.014a36.084,36.084,0,0,1,4.5-.668c2.638-.233,5.3-.251,8.006-.317,2.237-.059,4.474-.158,6.695-.434a12.163,12.163,0,0,0,3.464-.718c.693-.292,2.888-.952,3.405-.334.559.66.067,3.748.075,4.633.008,1.369.016,2.747.025,4.115.008,1.836.016,3.664.025,5.5.025,3.824.868,7.972,4.875,9.474,2.271.852,5.117.5,6.786,2.245a15.388,15.388,0,0,1,1.619,2.747c.626.994,1.093.818,1.97,1.377a1.959,1.959,0,0,1,.684.626C367.964,234.039,366.094,234.774,365.309,235.416Z" transform="translate(-319.15 -202.088)" fill="#ffc19d"/>
              </g>
              <g id="Grupo_1163270" data-name="Grupo 1163270" transform="translate(96.459 44.668)">
                <g id="Grupo_1163266" data-name="Grupo 1163266">
                  <path id="Trazado_997820" data-name="Trazado 997820" d="M202.249,160.925c.053.107.1.217.151.328a14.871,14.871,0,0,1,.492,8.512,23.641,23.641,0,0,1-3.114,7.422c-1.522,2.483-4.235,3.921-4.6-.32a44.022,44.022,0,0,1,.4-8.686c.469-3.992,1.684-8.14,4.587-8.527a1.748,1.748,0,0,1,1.505.426A3.03,3.03,0,0,1,202.249,160.925Z" transform="translate(-195.088 -159.63)" fill="#ffc19d"/>
                </g>
                <g id="Grupo_1163269" data-name="Grupo 1163269" transform="translate(1.801 4.477)">
                  <g id="Grupo_1163267" data-name="Grupo 1163267" transform="translate(0 5.084)">
                    <path id="Trazado_997821" data-name="Trazado 997821" d="M200.732,171.293a1.94,1.94,0,0,0-1.742-1.212,2,2,0,0,0-1.716,1.341,4.115,4.115,0,0,0-.092,2.347,4.486,4.486,0,0,0,.971,1.971.692.692,0,0,0,.971,0,.7.7,0,0,0,0-.971s-.126-.165-.061-.073c-.034-.047-.066-.094-.1-.143a3.726,3.726,0,0,1-.192-.338,1.362,1.362,0,0,1-.1-.237c-.047-.128-.087-.259-.122-.391a2.773,2.773,0,0,1-.109-.681,4.255,4.255,0,0,1,0-.432,1.3,1.3,0,0,1,.043-.332c.015-.064.032-.126.052-.188.01-.032.065-.151.023-.067.03-.061.065-.118.1-.177.059-.1-.014.005.03-.043s.073-.075.11-.113c.1-.108-.076.025.054-.039.016-.008.16-.08.074-.045s.062-.015.08-.019c.127-.036-.092-.024.042,0l.058,0q-.114-.016-.038,0c0,.012.144.054.032,0a1.31,1.31,0,0,1,.159.092c-.081-.052,0,0,.034.034a1.188,1.188,0,0,1,.113.122c-.07-.091.048.086.048.088a2,2,0,0,1,.094.194.69.69,0,0,0,.939.246.7.7,0,0,0,.247-.94Z" transform="translate(-197.057 -170.08)" fill="#e89c77"/>
                  </g>
                  <g id="Grupo_1163268" data-name="Grupo 1163268" transform="translate(1.615)">
                    <path id="Trazado_997822" data-name="Trazado 997822" d="M200.535,170.06a6.575,6.575,0,0,0-.438-5.2.686.686,0,0,0-1.185.693,5.206,5.206,0,0,1,.3,4.143.686.686,0,1,0,1.323.365Z" transform="translate(-198.823 -164.524)" fill="#e89c77"/>
                  </g>
                </g>
              </g>
              <g id="Grupo_1163271" data-name="Grupo 1163271" transform="translate(40.621 28.217)">
                <path id="Trazado_997823" data-name="Trazado 997823" d="M172.865,192.143a24.853,24.853,0,0,0,3.562-2.013,47.029,47.029,0,0,0,10.092-10.01c1.9-2.394,4.65-5.213,5.36-8.212a68.582,68.582,0,0,0,2.057-10.671,24.139,24.139,0,0,0-.68-8.126,6.319,6.319,0,0,0-1.464-3.185,11.22,11.22,0,0,0-3.11-1.463,44.48,44.48,0,0,0-12.808-2.829c-6.966-.556-13.547-3.332-20.588-3.916a26.781,26.781,0,0,0-11.047,1.708c-1.768.619-3.493,1.35-5.208,2.1-1.4.61-3,.834-3.79,2.283a7.682,7.682,0,0,0-.736,2.726c-.248,1.917-.712,4.4-.247,6.3s1.286,3.834,1.822,5.745a86.762,86.762,0,0,0,4.226,12.545,28.845,28.845,0,0,0,9.256,11.891c4.276,3,7.919,6.26,13.414,6.9A18.672,18.672,0,0,0,172.865,192.143Z" transform="translate(-134.06 -141.649)" fill="#11112b"/>
              </g>
              <g id="Grupo_1163272" data-name="Grupo 1163272" transform="translate(48.985 15.167)">
                <path id="Trazado_997824" data-name="Trazado 997824" d="M194.662,163.693c-.124.574-.246,1.149-.36,1.729-1.152,5.831-1.232,11.533-1.5,17.479-.242,5.391-3.257,9.364-6.7,13.334-3,3.458-7.515,7.351-12.429,6.966-4.977-.389-10.383-3.024-14.576-5.627-5.556-3.449-10.06-8.294-11.007-14.964q-1.171-8.243-2.342-16.485c-.358-2.52-.43-5.327-1.222-7.751-.523-1.6-1.212-2.757-1.3-4.508a22.744,22.744,0,0,1,9.647-20.132c4.983-3.45,11-5.21,17.043-5.986,4.652-.6,9.531-.615,13.849,1.173a18.76,18.76,0,0,1,9.065,8.2c3.274,5.867,2.78,12.553,2.873,19.005A33.37,33.37,0,0,1,194.662,163.693Z" transform="translate(-143.202 -127.386)" fill="#ffc19d"/>
              </g>
              <g id="Grupo_1163273" data-name="Grupo 1163273" transform="translate(39.696 5.645)">
                <path id="Trazado_997825" data-name="Trazado 997825" d="M193.5,162.71a35.134,35.134,0,0,0,3.613-12.659c.421-5.249.007-10.1-2.722-14.748-1.326-2.257-3.1-5.174-5.5-6.408a1.6,1.6,0,0,1-.486-.323,1.454,1.454,0,0,1-.225-.4c-1.97-4.653-6.4-7.9-11.1-9.48A33.065,33.065,0,0,0,167.73,117a32.419,32.419,0,0,0-18.2,4.714,37.785,37.785,0,0,0-7.678,6.438,33.54,33.54,0,0,0-6.772,10.386c-2.153,5.478-2.38,11.5-1.658,17.281.188,1.511.444,3.015.748,4.507.356,1.745.256,2.058,1.935,2.317a36.367,36.367,0,0,0,7.242.124c1.09-.043,1.662-.07,2.067.94.447,1.117.528,2.8.881,4.023a.888.888,0,0,0,.228.446.612.612,0,0,0,.794-.092c.8-.786.908-2.312,1.062-3.345.644-4.31,3.611-5.346,6.594-8.007a27.712,27.712,0,0,0,6.943-9.557,13.722,13.722,0,0,1-1.792,6.958,20.654,20.654,0,0,0,10.625-9.668,18.643,18.643,0,0,1-1.507,8.932,18.382,18.382,0,0,0,12.388-11.946,16.951,16.951,0,0,1-2.608,7.783c4.528-2.409,8.29-6.656,8.248-11.929.006.775,1.041,2.148,1.376,2.869.49,1.053.963,2.114,1.4,3.19a31.7,31.7,0,0,1,2.012,6.864A85.856,85.856,0,0,1,193.5,162.71Z" transform="translate(-133.049 -116.979)" fill="#11112b"/>
              </g>
              <g id="Grupo_1163274" data-name="Grupo 1163274" transform="translate(76.036 53.715)">
                <path id="Trazado_997826" data-name="Trazado 997826" d="M174.351,182.078a7.9,7.9,0,0,1-1.584-.474,6.753,6.753,0,0,0,4.53-4.6c.68-2.349-.289-5.187-.79-7.488q1.51,2.516,2.819,5.143c.7,1.405,2.03,3.186,1.759,4.835a3.5,3.5,0,0,1-2.746,2.584A9.966,9.966,0,0,1,174.351,182.078Z" transform="translate(-172.767 -169.518)" fill="#e89c77"/>
              </g>
              <g id="Grupo_1163275" data-name="Grupo 1163275" transform="translate(212.786 83.516)">
                <path id="Trazado_997827" data-name="Trazado 997827" d="M351.673,206.978l.025,4.115c-4.032,6.97-9.5,13.072-16.494,16.954-2.8,1.553-6.127,2.755-9.182,1.769a7.081,7.081,0,0,1-3.79-3,6.029,6.029,0,0,0,1.277-1.411c.985-1.686.96-4.366,1.2-6.277.484-3.765.443-7.537.618-11.294a22.877,22.877,0,0,1,4.7-3.681c2.638-.233,5.3-.251,8.006-.317,2.237-.059,4.474-.158,6.695-.434a12.163,12.163,0,0,0,3.464-.718c.693-.292,2.888-.952,3.405-.334C352.157,203,351.665,206.092,351.673,206.978Z" transform="translate(-322.231 -202.09)" fill="#e89c77"/>
              </g>
              <g id="Grupo_1163283" data-name="Grupo 1163283" transform="translate(62.258 38.734)">
                <g id="Grupo_1163278" data-name="Grupo 1163278">
                  <g id="Grupo_1163276" data-name="Grupo 1163276" transform="translate(22.1)">
                    <path id="Trazado_997828" data-name="Trazado 997828" d="M187.228,157c-1.1.079-2.21.2-3.314.253a3.842,3.842,0,0,1-1.259-.082c-1.058-.3-.935-1.4-.335-2.078a7.1,7.1,0,0,1,3.295-1.576,11.055,11.055,0,0,1,7.692.743,3.153,3.153,0,0,1,1.834,1.876.921.921,0,0,1-.195.877,1.32,1.32,0,0,1-.76.27,7.228,7.228,0,0,1-3.03-.212A12.23,12.23,0,0,0,187.228,157Z" transform="translate(-181.864 -153.144)" fill="#0a0a16"/>
                  </g>
                  <g id="Grupo_1163277" data-name="Grupo 1163277">
                    <path id="Trazado_997829" data-name="Trazado 997829" d="M165.654,157c1.1.079,2.21.2,3.313.253a3.842,3.842,0,0,0,1.259-.082c1.058-.3.935-1.4.335-2.078a7.1,7.1,0,0,0-3.295-1.576,11.055,11.055,0,0,0-7.692.743,3.156,3.156,0,0,0-1.834,1.876.919.919,0,0,0,.195.877,1.32,1.32,0,0,0,.76.27,7.228,7.228,0,0,0,3.03-.212A12.236,12.236,0,0,1,165.654,157Z" transform="translate(-157.709 -153.144)" fill="#0a0a16"/>
                  </g>
                </g>
                <g id="Grupo_1163280" data-name="Grupo 1163280" transform="translate(1.558 7.764)">
                  <g id="Grupo_1163279" data-name="Grupo 1163279">
                    <path id="Trazado_997830" data-name="Trazado 997830" d="M168.883,162.657a6.156,6.156,0,0,0-5.712-.585,7.64,7.64,0,0,0-3.528,2.6c-.169.228-.327.545-.164.777a.726.726,0,0,0,.614.2,60.408,60.408,0,0,1,9.241.674c.933.146,2.209-.209,1.72-1.387a4.534,4.534,0,0,0-1.524-1.844C169.315,162.94,169.1,162.792,168.883,162.657Z" transform="translate(-159.411 -161.63)" fill="#0a0a16"/>
                  </g>
                </g>
                <g id="Grupo_1163282" data-name="Grupo 1163282" transform="translate(22.88 7.764)">
                  <g id="Grupo_1163281" data-name="Grupo 1163281">
                    <path id="Trazado_997831" data-name="Trazado 997831" d="M185,162.657a6.156,6.156,0,0,1,5.712-.585,7.64,7.64,0,0,1,3.528,2.6c.169.228.327.545.164.777a.726.726,0,0,1-.614.2,60.407,60.407,0,0,0-9.241.674c-.933.146-2.209-.209-1.72-1.387a4.534,4.534,0,0,1,1.524-1.844Q184.671,162.86,185,162.657Z" transform="translate(-182.716 -161.63)" fill="#0a0a16"/>
                  </g>
                </g>
              </g>
              <g id="Grupo_1163288" data-name="Grupo 1163288" transform="translate(43.03 46.072)">
                <g id="Grupo_1163284" data-name="Grupo 1163284">
                  <path id="Trazado_997832" data-name="Trazado 997832" d="M138.053,162.459c-.07.107-.135.217-.2.328a11.492,11.492,0,0,0-.65,8.512,21.045,21.045,0,0,0,4.11,7.422c2.007,2.483,5.589,3.921,6.073-.32a33.518,33.518,0,0,0-.532-8.686c-.619-3.992-2.223-8.14-6.053-8.527a2.84,2.84,0,0,0-1.985.426A3.165,3.165,0,0,0,138.053,162.459Z" transform="translate(-136.693 -161.164)" fill="#ffc19d"/>
                </g>
                <g id="Grupo_1163287" data-name="Grupo 1163287" transform="translate(3.681 4.475)">
                  <g id="Grupo_1163285" data-name="Grupo 1163285" transform="translate(0 5.085)">
                    <path id="Trazado_997833" data-name="Trazado 997833" d="M141.991,173.52a1.592,1.592,0,0,1,.1-.167c-.073.1.044-.043.062-.061s.15-.135.06-.064a1.416,1.416,0,0,1,.165-.108c.022-.013.181-.088.073-.044a1.49,1.49,0,0,1,.188-.06c.016,0,.214-.034.076-.021.066-.005.131-.005.2-.006.184,0-.1-.034.078.006.065.015.126.033.19.05.169.048-.076-.054.078.032.058.032.113.065.17.1.149.092-.056-.069.069.054.048.047.093.091.138.141.115.126-.032-.079.048.071a1.747,1.747,0,0,1,.093.173c-.032-.079.043.16.038.138,0,.017.045.21.033.134a2.464,2.464,0,0,1,.014.465c0,.071-.008.142-.016.213.013-.116-.016.084-.018.1a3.331,3.331,0,0,1-.108.413,1.554,1.554,0,0,1-.119.3,3.572,3.572,0,0,1-.192.341,1.794,1.794,0,0,1-.19.26,3.554,3.554,0,0,1-.327.328.686.686,0,1,0,.971.971,4.149,4.149,0,0,0,1.242-2.037,3.261,3.261,0,0,0-.234-2.489,2.349,2.349,0,0,0-4.067.078.687.687,0,0,0,1.186.694Z" transform="translate(-140.717 -171.613)" fill="#e89c77"/>
                  </g>
                  <g id="Grupo_1163286" data-name="Grupo 1163286" transform="translate(0.148)">
                    <path id="Trazado_997834" data-name="Trazado 997834" d="M142.556,171.065c-.034-.076-.039-.088-.017-.036-.018-.045-.036-.09-.052-.135-.033-.091-.063-.182-.09-.274a4.4,4.4,0,0,1-.125-.565c.016.106-.016-.151-.017-.177-.007-.1-.012-.193-.014-.289a5.564,5.564,0,0,1,.025-.579q.015-.128,0-.033c.007-.048.015-.1.024-.143.017-.1.038-.189.06-.284a5.52,5.52,0,0,1,.172-.553c.031-.078.036-.09.013-.037.019-.044.039-.088.059-.132.041-.087.085-.173.133-.257a4.589,4.589,0,0,1,.315-.486.691.691,0,0,0-.246-.939.7.7,0,0,0-.939.246,5.387,5.387,0,0,0-.487,5.364.691.691,0,0,0,.939.246.706.706,0,0,0,.245-.94Z" transform="translate(-140.878 -166.055)" fill="#e89c77"/>
                  </g>
                </g>
              </g>
              <g id="Grupo_1163289" data-name="Grupo 1163289" transform="translate(70.683 72.298)">
                <path id="Trazado_997835" data-name="Trazado 997835" d="M167.245,192.346c2.469,1.475,5.724,1.705,8.54,1.639a10.227,10.227,0,0,0,7.525-2.967c.591-.653-.377-1.628-.971-.971a9.016,9.016,0,0,1-6.838,2.57c-2.5.019-5.37-.145-7.564-1.456a.687.687,0,0,0-.693,1.185Z" transform="translate(-166.917 -189.829)" fill="#e89c77"/>
              </g>
              <g id="Grupo_1163294" data-name="Grupo 1163294" transform="translate(112.07 197.606)">
                <g id="Grupo_1163290" data-name="Grupo 1163290" transform="translate(23.903)">
                  <path id="Trazado_997836" data-name="Trazado 997836" d="M267.946,345.641c-2.154.348-4.643.741-6.092,2.189a12.991,12.991,0,0,1-2.148,2.011,3.059,3.059,0,0,1-3.742-.117q-5.6-3.43-11.06-7.1a24.382,24.382,0,0,1-2.765-2.062,12.758,12.758,0,0,1-3.35-4.868,6.357,6.357,0,0,1-.506-2.613,16.078,16.078,0,0,1,.679-2.82,4.225,4.225,0,0,1,.536-1.785,3.49,3.49,0,0,1,1.777-.792,16.542,16.542,0,0,1,5.292-.895,21.942,21.942,0,0,1,3.444.483q6.224,1.19,12.526,1.9a1.977,1.977,0,0,1,2.1,1.812,40.223,40.223,0,0,0,2.146,5.676c1.295,2.673,3.1,5.294,3.07,8.265a.488.488,0,0,1-.071.3.5.5,0,0,1-.313.146C269,345.47,268.483,345.554,267.946,345.641Z" transform="translate(-238.277 -326.787)" fill="#ffc19d"/>
                </g>
                <g id="Grupo_1163291" data-name="Grupo 1163291" transform="translate(0 2.656)">
                  <path id="Trazado_997837" data-name="Trazado 997837" d="M219.66,350.852a6.742,6.742,0,0,1,2.481.971c2.3,1.488,4.574,2.978,6.976,4.352,1.916,1.1,3.83,2.224,5.822,3.178,2.645,1.267,5.674,3.241,7.791.124a1.037,1.037,0,0,1,.42-.431.991.991,0,0,1,.7.1,5.081,5.081,0,0,0,3.62.17,2.971,2.971,0,0,0,1.973-2.841,5.062,5.062,0,0,0,3.421-.64,3.411,3.411,0,0,0,1.623-2.975,2.027,2.027,0,0,0,2.808-.59c2.634-3.617-1.979-6.669-4.518-8.525a78.93,78.93,0,0,1-8.234-6.93c-.957-.924-3.062-2.4-3.322-3.758-.111-.577.229-1.011,0-1.617a2.689,2.689,0,0,0-1.489-1.379,7.562,7.562,0,0,0-3.081-.324c-5.713.164-11.358-.213-17.062.054a1.91,1.91,0,0,0-2.161,1.508,105.435,105.435,0,0,0-5.18,17.494,2.329,2.329,0,0,0-.006,1.329c.406,1.007,1.821.96,2.9.814A14.464,14.464,0,0,1,219.66,350.852Z" transform="translate(-212.152 -329.69)" fill="#ffc19d"/>
                </g>
                <g id="Grupo_1163292" data-name="Grupo 1163292" transform="translate(5.221 17.799)">
                  <path id="Trazado_997838" data-name="Trazado 997838" d="M236.029,363.535a2.864,2.864,0,0,0,.805-.825,12.662,12.662,0,0,0,1.869-4.565,2.053,2.053,0,0,0-.342-2.032,2.167,2.167,0,0,0-1.911-.456,2.424,2.424,0,0,0-.985.632,10.377,10.377,0,0,0-2.163,2.717,8.672,8.672,0,0,0,.824-3.191,2.844,2.844,0,0,0-1.038-2.721,2.463,2.463,0,0,0-2.722.522,23.924,23.924,0,0,0-1.912,2.253c.381-.748.7-1.508,1.1-2.237a4.179,4.179,0,0,0,.392-2.707c-.317-1.27-1.709-1.486-2.8-1.088a8.194,8.194,0,0,0-3.291,2.493,9.293,9.293,0,0,0,1-2.337,4.139,4.139,0,0,0,.437-2.351,1.948,1.948,0,0,0-.292-.851c-.352-.507-1.3-.581-1.867-.54a3.746,3.746,0,0,0-2.031.985c-1.687,1.416-5.265,5.688-1.79,7.263a2.516,2.516,0,0,0,.994.189,4.858,4.858,0,0,0,1.835-.328,4.928,4.928,0,0,0,.1,2.013,5.434,5.434,0,0,0,1.08,1.586c1.049.854,3.067,1.164,4.089.134.082.986.01,2.1.829,2.83a2.426,2.426,0,0,0,2.144.429,6.514,6.514,0,0,0,2.031-.99c-.351.229.124,1.414.221,1.718a2.327,2.327,0,0,0,1.743,1.72A1.985,1.985,0,0,0,236.029,363.535Z" transform="translate(-217.858 -346.241)" fill="#ffc19d"/>
                </g>
                <g id="Grupo_1163293" data-name="Grupo 1163293" transform="translate(14.869 1.247)">
                  <path id="Trazado_997839" data-name="Trazado 997839" d="M243.473,333.5c-.247-1.584-.616-4.448-2.328-5.139a3.943,3.943,0,0,0-1.634-.206,44.508,44.508,0,0,0-4.5.64,4.449,4.449,0,0,0-2.992,1.73,25.089,25.089,0,0,0-3.1,4.529,3.7,3.7,0,0,0-.495,1.222,1.458,1.458,0,0,0,.325,1.237c.574.6,1.817.4,2.538.2a8.507,8.507,0,0,0,2.958-1.769,10.66,10.66,0,0,1,2.162-1.584c2.1-.992,4.619-.108,6.887-.608a.242.242,0,0,0,.167-.09A.263.263,0,0,0,243.473,333.5Z" transform="translate(-228.403 -328.151)" fill="#ffc19d"/>
                </g>
              </g>
              <g id="Grupo_1163295" data-name="Grupo 1163295" transform="translate(157.989 184.438)">
                <path id="Trazado_997840" data-name="Trazado 997840" d="M262.544,327.32c-.07.029-.135.039-.2.062,0,.056,0,.112.007.167a162.266,162.266,0,0,0,2.536,21.056c8.849-2.5,17.711-5.013,26.659-7.134,5.175-1.227,10.407-2.269,15.546-3.624q-.147-12.778-1.472-25.454C291.247,317.345,276.588,321.463,262.544,327.32Z" transform="translate(-262.34 -312.394)" fill="#d42190"/>
              </g>
              <g id="Grupo_1163296" data-name="Grupo 1163296" transform="translate(203.419 29.197)">
                <path id="Trazado_997841" data-name="Trazado 997841" d="M312.687,176.541q.052.369.1.736c.366,2.8-.093,5.358-.011,8.094.273,9.088,4.737,18.992,11.673,24.876,3.9,3.307,8.631,5.269,13.591,3.329a25.333,25.333,0,0,0,7.626-5.13,46.129,46.129,0,0,0,7.59-9.324c2.532-4,4.641-7.172,5.363-12.011.655-4.384.049-9.034.931-13.357,1.965-9.648.505-18.82-7.875-24.869a34.86,34.86,0,0,0-15.6-5.771c-4.272-.606-8.76-.67-12.754.96a17.433,17.433,0,0,0-8.44,7.581c-3.084,5.458-2.712,11.719-2.878,17.756A44.126,44.126,0,0,0,312.687,176.541Z" transform="translate(-311.993 -142.72)" fill="#ffc19d"/>
              </g>
              <g id="Grupo_1163297" data-name="Grupo 1163297" transform="translate(249.117 58.026)">
                <path id="Trazado_997842" data-name="Trazado 997842" d="M370.785,175.445c.063.1.123.2.179.3a10.571,10.571,0,0,1,.5,7.836,19.345,19.345,0,0,1-3.863,6.782c-1.874,2.263-5.184,3.545-5.583-.361a30.8,30.8,0,0,1,.585-7.984c.614-3.664,2.135-7.463,5.663-7.777a2.616,2.616,0,0,1,1.822.414A2.9,2.9,0,0,1,370.785,175.445Z" transform="translate(-361.939 -174.229)" fill="#ffc19d"/>
              </g>
              <g id="Grupo_1163298" data-name="Grupo 1163298" transform="translate(192.005 105.22)">
                <path id="Trazado_997843" data-name="Trazado 997843" d="M388.77,355.361c-.366-3.221-29.166,5.316-31.007,5.651a280.207,280.207,0,0,1-46.2,4.5,1.5,1.5,0,0,1-1.871-1.85c.354-13.708-.778-26.774-2.37-40.422-1.655-14.193-5.635-27.9-7.423-42.063a44.243,44.243,0,0,1-.382-5.669c.022-7.223,2.306-14.253,5.136-20.9,1.866-4.383,3.982-8.653,5.906-13.011.9-2.031,1.479-4.833,2.721-6.643,2.257-3.29,5.42-5.433,8.561-7.807-1.35,5.582-2.472,11.406-1.334,17.035a6.338,6.338,0,0,0,5.241,5.308,11.628,11.628,0,0,0,6.88-1.366c5.367-2.616,9.492-7.2,13.147-11.923q3.885-5.018,7.274-10.394s4.6,2.544,5.08,2.7c2.527.814,5.112,1.456,7.682,2.119a84.974,84.974,0,0,1,14.863,4.809c3.326,1.539,3.256,2.808,3.218,6.19-.045,3.916-.521,7.845-.462,11.756q.154,10.22.382,20.439C384.452,301.049,385.7,328.289,388.77,355.361Z" transform="translate(-299.518 -225.811)" fill="#fff"/>
              </g>
              <g id="Grupo_1163299" data-name="Grupo 1163299" transform="translate(193.342 21.938)">
                <path id="Trazado_997844" data-name="Trazado 997844" d="M317.889,139.374c1.17-.522,2.4-.9,3.606-1.413a11.948,11.948,0,0,1,3.9-1.036c.445-.028,3.286.572,3.382.492a13.131,13.131,0,0,1,8.076-2.614,37.693,37.693,0,0,1,14.885,2.615c7.462,2.926,12.827,10.109,16.124,17.16a44.717,44.717,0,0,1,4.19,17.633,32.25,32.25,0,0,1-.9,8.009c-.683,3.167-.3,6.7-.651,9.927a5.5,5.5,0,0,1-.874,2.866c-1.81,2.306-5.518,1.986-7.853,3.449-2.146,1.345-4.644,2.512-6.46,4.292-1.4,1.368-2.63,2.5-4.721,2.669a12.128,12.128,0,0,1,1.4-4.3,42,42,0,0,0,3.054-14.416c.074-1.544.767-3.612.423-5.112a5.494,5.494,0,0,0-1.618-2.459c-.291-.279-2.35-1.32-2.388-1.48q.266,1.135.532,2.271a24.147,24.147,0,0,1-14.321-16.062c-.61-2.314-.86-4.7-1.308-7.043-.272-1.421-.456-4.233-1.813-5.041a3.87,3.87,0,0,0-4.142.4,7.389,7.389,0,0,0-2.423,3.6,9.873,9.873,0,0,0-1.81-2.661,3.345,3.345,0,0,0-2.949-.969,3.9,3.9,0,0,0-1.745,1.067,15.733,15.733,0,0,0-3.056,4.589A55.536,55.536,0,0,0,313.8,169.77c-.819,4.329-1.945,8.763-1.831,13.192.016.645-.02,1.43-.59,1.733a20.227,20.227,0,0,1-10.144-14.9,27.273,27.273,0,0,1,3.973-17.9A39.162,39.162,0,0,1,316.052,140.4,10.818,10.818,0,0,1,317.889,139.374Z" transform="translate(-300.979 -134.787)" fill="#11112b"/>
              </g>
              <g id="Grupo_1163300" data-name="Grupo 1163300" transform="translate(223.22 106.166)">
                <path id="Trazado_997845" data-name="Trazado 997845" d="M376.951,336.455c-.23-1.18-.479-2.349-.762-3.5-.932-3.785-.371-7.455-.665-11.251-.334-4.3-1.138-8.441-.683-12.8a49.26,49.26,0,0,1,1.733-8.13c2.215-7.9,5.308-15.5,7.645-23.341,2.058-6.911.877-15.451,1.291-22.66.258-4.5.141-9.217.935-13.655.549-3.063-.5-5.061-3.044-7.027a14.926,14.926,0,0,0-1.608-1.078c-3.823-2.222-8.1-2.575-12.272-3.766-2.252-.51-4.47-.8-6.723-1.238-.624-.122-7.535-1.243-7.542-1.164a22.22,22.22,0,0,1-1.4,5.039c-3.051,9.273-6.323,18.477-9.105,27.809-2.8,9.376-5.818,18.689-9.236,27.858a31.123,31.123,0,0,0-1.533,4.859,29.39,29.39,0,0,0-.327,6.111c.355,21.915-.632,43.8,1.524,65.672,4.862-.113,9.916,1.167,14.675.12a138.543,138.543,0,0,1,14.6-2.1c3.22-.359,7.658-1.814,10.791-1.116,2.043.455,5.282,4.331,6.841.123.78-2.107-.268-4.394-1.07-6.492C378.819,348.977,378.14,342.555,376.951,336.455Z" transform="translate(-333.635 -226.846)" fill="#d42190"/>
              </g>
              <g id="Grupo_1163301" data-name="Grupo 1163301" transform="translate(186.798 105.792)">
                <path id="Trazado_997846" data-name="Trazado 997846" d="M318.124,299.447c.125,7.22-.442,14.673-.376,21.559q.162,16.833.324,33.664.052,5.387.1,10.772c0-.074-19.495-1.582-19.976.523a76.148,76.148,0,0,0,1.4-14.78c.363-12.371.724-24.786-.343-37.134a228.444,228.444,0,0,0-4.311-28.8,42.141,42.141,0,0,1-.5-16.8,36.642,36.642,0,0,1,1.819-6.337c1.832-5.044,3.976-9.968,6.12-14.888,1.665-3.821,3.48-7.473,5.163-11.275a11.375,11.375,0,0,1,1.515-2.719,9.63,9.63,0,0,1,2.118-1.789,41.126,41.126,0,0,1,5.018-2.816c1.236-.6,3.9-2.376,5.235-2.166-.321,2.277-1.394,4.646-2.048,6.864-.686,2.329-1.341,4.667-1.932,7.021-.515,2.051-.622,4.219-1.229,6.234a24.064,24.064,0,0,0-1.056,4.954,120.137,120.137,0,0,0-.408,14.642,154.919,154.919,0,0,0,2.417,22.309A69.607,69.607,0,0,1,318.124,299.447Z" transform="translate(-293.827 -226.437)" fill="#d42190"/>
              </g>
              <g id="Grupo_1163302" data-name="Grupo 1163302" transform="translate(218.093 64.538)">
                <path id="Trazado_997847" data-name="Trazado 997847" d="M334.225,192.925a7.284,7.284,0,0,0,1.462-.419,6.213,6.213,0,0,1-4.115-4.28c-.6-2.167.323-4.768.809-6.879q-1.416,2.3-2.65,4.7c-.661,1.285-1.9,2.908-1.672,4.427a3.216,3.216,0,0,0,2.5,2.406A9.123,9.123,0,0,0,334.225,192.925Z" transform="translate(-328.031 -181.347)" fill="#e89c77"/>
              </g>
              <g id="Grupo_1163305" data-name="Grupo 1163305" transform="translate(206.372 51.249)">
                <g id="Grupo_1163303" data-name="Grupo 1163303">
                  <path id="Trazado_997848" data-name="Trazado 997848" d="M322.682,170.16c.962.084,1.924.2,2.886.268a3.185,3.185,0,0,0,1.1-.062c1.1-.317.752-1.409.173-2.089a4.3,4.3,0,0,0-2.546-1.35,9.889,9.889,0,0,0-2.93.016,12.6,12.6,0,0,0-5.471,1.745c-.333.22-.682.528-.672.926.041,1.6,3.394.625,4.236.528A15.835,15.835,0,0,1,322.682,170.16Z" transform="translate(-315.221 -166.823)" fill="#0a0a16"/>
                </g>
                <g id="Grupo_1163304" data-name="Grupo 1163304" transform="translate(3.471 5.708)">
                  <path id="Trazado_997849" data-name="Trazado 997849" d="M324.953,174.788a3,3,0,0,0-4.179-1.35,3.238,3.238,0,0,0-1.338,1.61,5.4,5.4,0,0,0,.316,4.815,2.958,2.958,0,0,0,2.211,1.625,2.845,2.845,0,0,0,2.2-1.081A5.411,5.411,0,0,0,324.953,174.788Z" transform="translate(-319.015 -173.062)" fill="#0a0a16"/>
                </g>
              </g>
              <g id="Grupo_1163308" data-name="Grupo 1163308" transform="translate(229.199 52.78)">
                <g id="Grupo_1163306" data-name="Grupo 1163306">
                  <path id="Trazado_997850" data-name="Trazado 997850" d="M344.716,171.951c-.963-.075-1.931-.115-2.891-.21a3.2,3.2,0,0,1-1.073-.242c-1.032-.493-.51-1.513.173-2.089a4.305,4.305,0,0,1,2.734-.913,9.918,9.918,0,0,1,2.887.5,12.59,12.59,0,0,1,5.109,2.621,1.21,1.21,0,0,1,.51,1.024c-.3,1.569-3.451.058-4.265-.177A16,16,0,0,0,344.716,171.951Z" transform="translate(-340.17 -168.496)" fill="#0a0a16"/>
                </g>
                <g id="Grupo_1163307" data-name="Grupo 1163307" transform="translate(1.025 5.876)">
                  <path id="Trazado_997851" data-name="Trazado 997851" d="M342.172,176.215a3,3,0,0,1,4.343-.643,3.241,3.241,0,0,1,1.054,1.809,5.4,5.4,0,0,1-1.1,4.7,2.957,2.957,0,0,1-2.448,1.239,2.844,2.844,0,0,1-1.994-1.428A5.411,5.411,0,0,1,342.172,176.215Z" transform="translate(-341.291 -174.918)" fill="#0a0a16"/>
                </g>
              </g>
              <g id="Grupo_1163309" data-name="Grupo 1163309" transform="translate(216.374 81.051)">
                <path id="Trazado_997852" data-name="Trazado 997852" d="M326.3,203.068c1.479,2.549,4.74,3.052,7.434,2.742a14.254,14.254,0,0,0,8.73-4.64c.9-.967-.548-2.426-1.456-1.456a12.283,12.283,0,0,1-7.2,4.028c-1.918.259-4.633.174-5.728-1.714a1.03,1.03,0,0,0-1.777,1.039Z" transform="translate(-326.152 -199.395)" fill="#e89c77"/>
              </g>
              <g id="Grupo_1163310" data-name="Grupo 1163310" transform="translate(253.572 110.028)">
                <path id="Trazado_997853" data-name="Trazado 997853" d="M399.87,263.163a171.874,171.874,0,0,1,6.4,27.616c1.412,8.694,4.288,17.094,4.624,25.944a66.424,66.424,0,0,1-1.433,15.326,107.483,107.483,0,0,1-5.118,17.738c-2.1,5.477-4.518,12.456-8.494,16.877-3.168,3.522-6.062,1.9-10.037.939-6.32-1.532-12.7-2.483-19-4.243q6.078-13.785,11.565-27.819c1.475-3.772,2.93-7.612,3.334-11.642,1.4-13.922-8.507-26.327-8.507-40.29-.41-4.376-1.326-9.019-1.031-13.395a76.152,76.152,0,0,1,2.534-12.931c.816-3.27.839-6.733,1.7-10.037,1.352-5.21,2.983-10.808,1.961-16.18.027.144,3.242.842,3.611.963,7.37,2.436,8.742,6.989,11.382,13.534Q396.862,254.268,399.87,263.163Z" transform="translate(-366.809 -231.066)" fill="#d42190"/>
              </g>
              <g id="Grupo_1163311" data-name="Grupo 1163311" transform="translate(28.069 187.637)">
                <path id="Trazado_997854" data-name="Trazado 997854" d="M211.207,327.9c-.057-.548-.114-1.1-.169-1.645a91.292,91.292,0,0,1-9.943.176l-13.988-.319c-8.242-.188-16.634-1.142-24.856-1.025-3.319.048-5.377-.036-8.387-1.9a40.047,40.047,0,0,1-7.693-6.7,1.51,1.51,0,0,0-.942-.588,1.494,1.494,0,0,0-.81.3l-14.865,9.073c-3.293,2.01-9.461,3.761-9.205,8.389.278,5.012,3,10.4,5.9,14.382a20,20,0,0,0,7.61,6.126c3.25,1.55,6.388,1.537,9.778,2.31,7.915,1.805,15.736,1.37,23.847,1.16q5.774-.148,11.55.015c3.4.1,7.119.816,10.42,0,1.837-.455,21.478-3.105,21.484-3.245C211.286,345.571,210.846,336.729,211.207,327.9Z" transform="translate(-120.341 -315.891)" fill="#b19cfe"/>
              </g>
              <g id="Grupo_1163316" data-name="Grupo 1163316" transform="translate(196.42 106.477)">
                <g id="Grupo_1163312" data-name="Grupo 1163312" transform="translate(33.009)">
                  <path id="Trazado_997855" data-name="Trazado 997855" d="M341.606,281.9l8.99-8.26,4.5-4.13c1.2-1.1,2.322-2.017,2.352-3.758.07-3.944-.25-7.924-.294-11.872q-.069-6.11.009-12.22c.052-4.6.155-9.208.282-13.811a.687.687,0,0,0-1.372,0c-.215,7.771-.356,15.545-.313,23.318q.032,5.755.21,11.506c.029.9.09,1.8.1,2.7a3.229,3.229,0,0,1-1.442,2.71q-2.079,1.915-4.162,3.824l-9.822,9.025c-.653.6.319,1.566.969.97Z" transform="translate(-340.42 -227.186)" fill="#09136e"/>
                </g>
                <g id="Grupo_1163313" data-name="Grupo 1163313" transform="translate(26.794 53.771)">
                  <path id="Trazado_997856" data-name="Trazado 997856" d="M339.777,287.1c2.64,2.228,5.287,4.446,7.919,6.684.24.2.722.489.877.786.358.692-.057,1.114-.377,1.608q-.719,1.109-1.435,2.22-1.366,2.127-2.717,4.264c-3.619,5.689-7.247,11.326-10.333,17.33-.4.784.78,1.479,1.185.693,3.421-6.654,7.5-12.88,11.513-19.185q1.477-2.321,2.973-4.629c.72-1.111,1.168-2.16.163-3.271a43.431,43.431,0,0,0-4.319-3.692l-4.476-3.778c-.672-.565-1.647.4-.971.972Z" transform="translate(-333.628 -285.957)" fill="#09136e"/>
                </g>
                <g id="Grupo_1163314" data-name="Grupo 1163314" transform="translate(0 2.635)">
                  <path id="Trazado_997857" data-name="Trazado 997857" d="M318.6,230.375a65.066,65.066,0,0,0-5.317,9.964c-1.54,3.436-3.08,6.874-4.514,10.355-1.46,3.544-2.827,7.129-4.071,10.755a4.11,4.11,0,0,0,.425,4.1c.927,1.416,1.969,2.761,3.018,4.088a46.608,46.608,0,0,1,6.37,9.567c.363.8,1.546.107,1.185-.693a37.866,37.866,0,0,0-5-7.859c-1-1.263-2.02-2.509-2.979-3.8-.484-.652-.962-1.313-1.406-1.993a2.727,2.727,0,0,1-.414-2.663,209.93,209.93,0,0,1,8.232-20.39,68.573,68.573,0,0,1,5.659-10.73c.5-.734-.691-1.421-1.184-.693Z" transform="translate(-304.343 -230.066)" fill="#09136e"/>
                </g>
                <g id="Grupo_1163315" data-name="Grupo 1163315" transform="translate(1.029 51.37)">
                  <path id="Trazado_997858" data-name="Trazado 997858" d="M314.358,283.456l-4.738,3.349c-.85.6-1.7,1.2-2.551,1.8a4.749,4.749,0,0,0-1.324,1.152c-.794,1.224.293,2.268.976,3.222a33.568,33.568,0,0,1,2.645,4.392c3.079,6.082,4.452,12.86,5.8,19.49.176.865,1.5.5,1.323-.365-1.21-5.964-2.469-11.968-4.89-17.58a38.22,38.22,0,0,0-2.041-4.073q-.574-.985-1.214-1.931a12.049,12.049,0,0,1-1.3-1.785c-.369-.9.794-1.39,1.448-1.853l2-1.417,4.555-3.22c.717-.505.032-1.7-.691-1.184Z" transform="translate(-305.467 -283.331)" fill="#09136e"/>
                </g>
              </g>
              <g id="Grupo_1163317" data-name="Grupo 1163317" transform="translate(257.961 153.183)">
                <path id="Trazado_997859" data-name="Trazado 997859" d="M371.612,278.888a191.458,191.458,0,0,0,5.977,30.783.687.687,0,0,0,1.324-.365,189.235,189.235,0,0,1-5.928-30.418c-.1-.868-1.47-.877-1.373,0Z" transform="translate(-371.607 -278.234)" fill="#09136e"/>
              </g>
              <g id="Grupo_1163318" data-name="Grupo 1163318" transform="translate(188.641 171.488)">
                <path id="Trazado_997860" data-name="Trazado 997860" d="M295.86,299.1c1.725,7.692,3.415,15.44,3.835,23.335.415,7.823-1.215,15.6-.586,23.411.07.875,1.444.882,1.372,0-.641-7.955,1.032-15.883.561-23.855-.465-7.864-2.14-15.589-3.859-23.256-.192-.862-1.515-.5-1.322.365Z" transform="translate(-295.841 -298.24)" fill="#09136e"/>
              </g>
              <g id="Grupo_1163319" data-name="Grupo 1163319" transform="translate(260.114 110.534)">
                <path id="Trazado_997861" data-name="Trazado 997861" d="M375.292,251.706a51.324,51.324,0,0,1,2.947-10.422c1.126-2.968,2.136-6.413,4.652-8.524.678-.568-.3-1.534-.971-.971-2.533,2.124-3.595,5.468-4.747,8.451a53.359,53.359,0,0,0-3.206,11.1c-.131.866,1.191,1.238,1.324.366Z" transform="translate(-373.959 -231.62)" fill="#09136e"/>
              </g>
              <g id="Grupo_1163320" data-name="Grupo 1163320" transform="translate(253.155 212.192)">
                <path id="Trazado_997862" data-name="Trazado 997862" d="M378.472,343.083q-6.512,14.011-12.071,28.435c-.317.824,1.008,1.182,1.323.365q5.492-14.251,11.933-28.107c.37-.8-.812-1.494-1.185-.694Z" transform="translate(-366.353 -342.729)" fill="#09136e"/>
              </g>
              <g id="Grupo_1163321" data-name="Grupo 1163321" transform="translate(230.795 79.132)">
                <path id="Trazado_997863" data-name="Trazado 997863" d="M362.139,282.11c1.165.049,2.342.126,3.55.255a1.695,1.695,0,0,0,2.329-1.966q.115-23.258-.272-46.514-.191-11.458-.5-22.916c-.116-4.275-.228-9.544-3.464-12.823-3.567-3.615-7.074,5.346-7.9,7.782-1.847,5.446-2.211,11.727-2.826,17.459-.447,4.168.1,8.461-.35,12.737a146.341,146.341,0,0,1-2.489,15.325c-2.175,10.18-5.213,20.148-8.3,30.08,4.209.4,8.185.279,12.378.418C356.967,282.036,359.52,282,362.139,282.11Z" transform="translate(-341.914 -197.298)" fill="#11112b"/>
              </g>
              <g id="Grupo_1163329" data-name="Grupo 1163329" transform="translate(185.011 29.806)" opacity="0.2">
                <g id="Grupo_1163322" data-name="Grupo 1163322" transform="translate(73.626 19.401)">
                  <path id="Trazado_997864" data-name="Trazado 997864" d="M372.349,165.247c1.421,14.6-1.867,29.836,3.354,43.933a32.9,32.9,0,0,0,5.359,9.473c.56.683,1.525-.292.971-.971-8.994-10.992-8.126-26.132-7.929-39.458a116.128,116.128,0,0,0-.382-12.978c-.085-.871-1.458-.88-1.373,0Z" transform="translate(-372.345 -164.59)" fill="#fff"/>
                </g>
                <g id="Grupo_1163323" data-name="Grupo 1163323" transform="translate(0 57.307)">
                  <path id="Trazado_997865" data-name="Trazado 997865" d="M308.055,206.676c1.624,15.129-6.823,28.589-12.345,42.029a73.838,73.838,0,0,0-3.816,11.678c-.2.86,1.127,1.227,1.323.365,3.311-14.583,12.526-27.053,15.516-41.738a40.276,40.276,0,0,0,.694-12.335c-.092-.869-1.466-.878-1.371,0Z" transform="translate(-291.873 -206.021)" fill="#fff"/>
                </g>
                <g id="Grupo_1163324" data-name="Grupo 1163324" transform="translate(64.081 65.157)">
                  <path id="Trazado_997866" data-name="Trazado 997866" d="M361.929,215.459a156.623,156.623,0,0,1,2.463,47.892q-.711,6.9-2.044,13.719c-.167.863,1.155,1.232,1.323.365a157.88,157.88,0,0,0,1.811-48.723q-.818-6.855-2.23-13.619c-.18-.864-1.5-.5-1.323.365Z" transform="translate(-361.913 -214.601)" fill="#fff"/>
                </g>
                <g id="Grupo_1163325" data-name="Grupo 1163325" transform="translate(58.737 97.4)">
                  <path id="Trazado_997867" data-name="Trazado 997867" d="M357.234,250.5a83,83,0,0,1-1.149,21.212c-.16.864,1.163,1.233,1.324.365a84.447,84.447,0,0,0,1.2-21.577c-.065-.876-1.438-.882-1.373,0Z" transform="translate(-356.071 -249.842)" fill="#fff"/>
                </g>
                <g id="Grupo_1163326" data-name="Grupo 1163326" transform="translate(40.579 1.35)">
                  <path id="Trazado_997868" data-name="Trazado 997868" d="M337.243,146.657c3.017-1.828,6.285,2.16,7.736,4.351a51.708,51.708,0,0,1,4.115,8.409c2.195,5.138,5.071,10.566,10.611,12.641.828.31,1.186-1.016.365-1.323-6.3-2.357-8.629-9.463-11.1-15.07a26.913,26.913,0,0,0-5.056-8.17c-1.856-1.9-4.8-3.576-7.362-2.021a.686.686,0,0,0,.692,1.184Z" transform="translate(-336.225 -144.861)" fill="#fff"/>
                </g>
                <g id="Grupo_1163327" data-name="Grupo 1163327" transform="translate(13.074 1.026)">
                  <path id="Trazado_997869" data-name="Trazado 997869" d="M321.488,144.57a25.506,25.506,0,0,0-15.178,26.057c.094.868,1.468.878,1.372,0a24.21,24.21,0,0,1,14.5-24.873c.809-.348.111-1.531-.693-1.185Z" transform="translate(-306.163 -144.508)" fill="#fff"/>
                </g>
                <g id="Grupo_1163328" data-name="Grupo 1163328" transform="translate(52.23)">
                  <path id="Trazado_997870" data-name="Trazado 997870" d="M349.285,144.676c6.122,3.742,9.336,10.516,12.262,16.784.373.8,1.557.1,1.185-.693-3.037-6.5-6.412-13.4-12.755-17.277-.755-.461-1.445.726-.692,1.186Z" transform="translate(-348.959 -143.386)" fill="#fff"/>
                </g>
              </g>
              <g id="Grupo_1163330" data-name="Grupo 1163330" transform="translate(215.418 88.855)">
                <path id="Trazado_997871" data-name="Trazado 997871" d="M325.277,216.256a14.126,14.126,0,0,0,14.206,3.52c5.522-1.7,9.345-6.571,12.83-10.887.44-.545-.332-1.327-.777-.776-3.217,3.983-6.712,8.554-11.687,10.383a13.033,13.033,0,0,1-13.8-3.015c-.513-.487-1.291.288-.776.775Z" transform="translate(-325.108 -207.925)" fill="#d67f5c"/>
              </g>
              <g id="Grupo_1163338" data-name="Grupo 1163338" transform="translate(118.754 200.216)">
                <g id="Grupo_1163331" data-name="Grupo 1163331" transform="translate(0 14.587)">
                  <path id="Trazado_997872" data-name="Trazado 997872" d="M220.386,348.8a7.62,7.62,0,0,1,2.8-2.019,1.534,1.534,0,0,1,1.956,1.362,4.247,4.247,0,0,1-1,2.943,13.329,13.329,0,0,1-2.406,2.852c-.528.471.251,1.246.777.777a15.3,15.3,0,0,0,2.861-3.527,4.314,4.314,0,0,0,.694-3.771,2.579,2.579,0,0,0-2.846-1.787,5.652,5.652,0,0,0-1.961.97,10.236,10.236,0,0,0-1.653,1.425c-.483.515.292,1.294.776.776Z" transform="translate(-219.457 -345.583)" fill="#d67f5c"/>
                </g>
                <g id="Grupo_1163332" data-name="Grupo 1163332" transform="translate(4.921 18.345)">
                  <path id="Trazado_997873" data-name="Trazado 997873" d="M225.64,352.181a7.361,7.361,0,0,1,2.738-1.37c1.05-.167,1.554.824,1.443,1.747a7.655,7.655,0,0,1-1.286,2.787l-1.758,2.994a.549.549,0,0,0,.948.554q1.064-1.81,2.126-3.62a5.354,5.354,0,0,0,1.034-3.57,2.336,2.336,0,0,0-2.271-2.011,7.091,7.091,0,0,0-3.528,1.543c-.586.389-.037,1.34.554.947Z" transform="translate(-224.836 -349.69)" fill="#d67f5c"/>
                </g>
                <g id="Grupo_1163333" data-name="Grupo 1163333" transform="translate(9.281 21.173)">
                  <path id="Trazado_997874" data-name="Trazado 997874" d="M230.532,355.615a5.814,5.814,0,0,1,2.475-1.668,1.417,1.417,0,0,1,1.827,1.246,5.869,5.869,0,0,1-.628,3.082,28.823,28.823,0,0,1-1.485,2.952c-.34.619.608,1.174.948.554a26.658,26.658,0,0,0,1.78-3.692,5.209,5.209,0,0,0,.263-3.759,2.424,2.424,0,0,0-2.737-1.5,6.47,6.47,0,0,0-3.22,2.011c-.487.511.288,1.288.777.776Z" transform="translate(-229.601 -352.781)" fill="#d67f5c"/>
                </g>
                <g id="Grupo_1163334" data-name="Grupo 1163334" transform="translate(14.6 24.218)">
                  <path id="Trazado_997875" data-name="Trazado 997875" d="M236.342,358.743a5.318,5.318,0,0,1,1.851-1.314,1.9,1.9,0,0,1,1.016-.214.823.823,0,0,1,.569.576,3.587,3.587,0,0,1-.3,2.326,9.39,9.39,0,0,1-1.228,2.087.553.553,0,0,0,.2.751.562.562,0,0,0,.751-.2,9.783,9.783,0,0,0,1.441-2.626,3.857,3.857,0,0,0,.006-3.083c-1.178-2.049-3.96-.286-5.076.918-.479.517.3,1.3.777.776Z" transform="translate(-235.414 -356.109)" fill="#d67f5c"/>
                </g>
                <g id="Grupo_1163335" data-name="Grupo 1163335" transform="translate(7.445)">
                  <path id="Trazado_997876" data-name="Trazado 997876" d="M232.152,329.816q-1.68,1.872-3.173,3.9c-.774,1.053-2.022,2.588-1,3.894.841,1.073,2.459.73,3.574.381a11.624,11.624,0,0,0,3.652-1.967,17.284,17.284,0,0,0,3.276-3.46c.418-.57-.534-1.119-.948-.554a12.473,12.473,0,0,1-7.009,5.121c-.5.112-1.478.293-1.758-.309-.321-.689.411-1.511.78-2.027a48.724,48.724,0,0,1,3.38-4.2c.472-.525-.3-1.3-.775-.777Z" transform="translate(-227.594 -329.64)" fill="#d67f5c"/>
                </g>
                <g id="Grupo_1163336" data-name="Grupo 1163336" transform="translate(15.861 3.231)">
                  <path id="Trazado_997877" data-name="Trazado 997877" d="M237.323,335.137a30.3,30.3,0,0,0,7.519-.883.549.549,0,0,0-.292-1.059,29.09,29.09,0,0,1-7.227.844c-.7.023-.708,1.121,0,1.1Z" transform="translate(-236.793 -333.171)" fill="#d67f5c"/>
                </g>
                <g id="Grupo_1163337" data-name="Grupo 1163337" transform="translate(22.347 3.797)">
                  <path id="Trazado_997878" data-name="Trazado 997878" d="M244.036,334.735a106.837,106.837,0,0,0,8.645,7.5q2.184,1.865,4.311,3.8a12.6,12.6,0,0,1,3.39,4.228c.276.648,1.222.089.948-.554a12.331,12.331,0,0,0-3.157-4.079c-1.461-1.356-2.965-2.668-4.48-3.964-2.979-2.552-6.183-4.85-8.882-7.706-.486-.514-1.261.264-.776.777Z" transform="translate(-243.882 -333.79)" fill="#d67f5c"/>
                </g>
              </g>
              <g id="Grupo_1163339" data-name="Grupo 1163339" transform="translate(9.971 105.835)">
                <path id="Trazado_997879" data-name="Trazado 997879" d="M125.253,239.09c2.159,13.41,8.856,26.99,13.016,39.953q6.749,21.032,12.715,42.3c2.342,8.352-4.849,16.978-11.751,20.649-4.818,2.563-12.009,3.044-15.505-1.636-3.585-4.8-5.923-11.335-8.139-16.857-4.48-11.161-7.61-22.8-10.528-34.451-2.7-10.8-5.242-21.9-4.3-33.056a51.112,51.112,0,0,1,2.185-12.61c1.823-5.226,5.071-8.565,9.844-11.147,3.445-1.863,9.036-4.136,12.6-5.756C125.776,230.479,124.594,235.1,125.253,239.09Z" transform="translate(-100.56 -226.484)" fill="#b19cfe"/>
              </g>
              <g id="Grupo_1163340" data-name="Grupo 1163340" transform="translate(24.51 203.417)">
                <path id="Trazado_997880" data-name="Trazado 997880" d="M116.476,333.991a20.2,20.2,0,0,0,1.9,4.081q1.312,2.522,2.7,5.007a51.739,51.739,0,0,0,5.414,8.609c3.825,4.437,9.9,6.395,15.529,7.1a89.244,89.244,0,0,0,10.711.464l10.786.048c7.327.033,14.658.166,21.981-.148,8.253-.353,16.475-1.173,24.657-2.294.871-.119.5-1.442-.365-1.323-7.029.963-14.091,1.69-21.174,2.09-7.017.4-14.03.352-21.055.321-6.943-.031-13.915.121-20.853-.16-6.119-.249-12.685-1.328-17.53-5.384-2.678-2.242-4.332-5.51-6.05-8.491q-1.42-2.465-2.75-4.981a26.079,26.079,0,0,1-2.572-5.3.687.687,0,0,0-1.324.363Z" transform="translate(-116.451 -333.139)" fill="#09136e"/>
              </g>
              <g id="Grupo_1163341" data-name="Grupo 1163341" transform="translate(117.617 198.67)">
                <path id="Trazado_997881" data-name="Trazado 997881" d="M218.215,328.611q.711,13.524.26,27.071c-.029.884,1.343.882,1.372,0q.451-13.535-.26-27.071c-.047-.879-1.419-.884-1.372,0Z" transform="translate(-218.214 -327.949)" fill="#09136e"/>
              </g>
              <g id="Grupo_1163342" data-name="Grupo 1163342" transform="translate(123.413 228.54)">
                <path id="Trazado_997882" data-name="Trazado 997882" d="M225.1,361.259a102.543,102.543,0,0,1-.543,15.515c-.1.877,1.275.869,1.372,0a102.551,102.551,0,0,0,.543-15.515c-.036-.88-1.408-.885-1.372,0Z" transform="translate(-224.549 -360.597)" fill="#09136e"/>
              </g>
              <g id="Grupo_1163343" data-name="Grupo 1163343" transform="translate(112.638 110.955)">
                <path id="Trazado_997883" data-name="Trazado 997883" d="M212.82,232.907a88.751,88.751,0,0,1,4.229,12.745c1.281,5.851,2.182,11.827,2.962,17.764,1.569,11.947,2.028,24.078,2.553,36.109q.454,10.418.669,20.843a.687.687,0,0,0,1.372,0q-.39-18.654-1.534-37.28c-.373-6.054-.748-12.11-1.491-18.132q-1.094-8.849-2.789-17.623a86.97,86.97,0,0,0-4.647-14.792c-.312-.815-1.64-.461-1.323.366Z" transform="translate(-212.772 -232.079)" fill="#09136e"/>
              </g>
              <g id="Grupo_1163344" data-name="Grupo 1163344" transform="translate(52.777 98.312)">
                <path id="Trazado_997884" data-name="Trazado 997884" d="M147.566,219.415a114.533,114.533,0,0,1,8.281,8.823,47.494,47.494,0,0,1,6.993,9.694c.371.709,1.426.209,1.254-.529.059.252.08-.115.142-.235.115-.221.212-.453.326-.675.224-.438.465-.868.708-1.3.52-.914,1.048-1.831,1.607-2.72a49.275,49.275,0,0,1,6.965-8.283.687.687,0,0,0-.971-.971,49.143,49.143,0,0,0-7.61,9.263c-.546.917-1.091,1.838-1.6,2.777-.367.678-1.083,1.686-.891,2.506l1.254-.529a47.524,47.524,0,0,0-6.934-9.669,117.387,117.387,0,0,0-8.554-9.125c-.656-.589-1.63.379-.971.97Z" transform="translate(-147.346 -218.262)" fill="#09136e"/>
              </g>
              <g id="Grupo_1163345" data-name="Grupo 1163345" transform="translate(79.035 95.961)">
                <path id="Trazado_997885" data-name="Trazado 997885" d="M176.535,223.761c5.464,1.323,8.069,6.3,11.306,10.37a.7.7,0,0,0,.971,0,8.734,8.734,0,0,0,1.355-2.229c.7-1.193,1.492-2.3,2.262-3.444a43.81,43.81,0,0,0,5.555-11.92.687.687,0,0,0-1.323-.365,42.537,42.537,0,0,1-5.416,11.591c-.711,1.061-1.458,2.076-2.105,3.177-.278.474-.554.949-.832,1.422-.122.208-.248.414-.369.622-.062.107-.283.33-.1.175h.971c-3.415-4.3-6.155-9.329-11.912-10.723-.859-.208-1.226,1.116-.366,1.324Z" transform="translate(-176.045 -215.692)" fill="#09136e"/>
              </g>
              <g id="Grupo_1163346" data-name="Grupo 1163346" transform="translate(39.087 132.152)">
                <path id="Trazado_997886" data-name="Trazado 997886" d="M132.429,256.077q9.089,24.481,17.505,49.2,2.431,7.153,4.8,14.324c.276.834,1.6.477,1.324-.365q-8.214-24.79-17.1-49.345-2.576-7.1-5.207-14.183c-.3-.82-1.631-.465-1.323.365Z" transform="translate(-132.383 -255.247)" fill="#09136e"/>
              </g>
              <g id="Grupo_1163347" data-name="Grupo 1163347" transform="translate(50.28 192.227)">
                <path id="Trazado_997887" data-name="Trazado 997887" d="M144.94,322.2c5.416,3.355,12.015,3.688,18.2,4.172q4.437.347,8.876.672c9.44.678,18.9,1.286,28.361,1.508a86.88,86.88,0,0,0,12.269-.253c.866-.1.877-1.477,0-1.372a77.665,77.665,0,0,1-10.359.29c-4.7-.073-9.4-.278-14.1-.525-7.962-.418-15.915-.974-23.863-1.6-6.308-.495-13.149-.646-18.689-4.078-.752-.467-1.442.72-.693,1.185Z" transform="translate(-144.617 -320.907)" fill="#09136e"/>
              </g>
              <g id="Grupo_1163348" data-name="Grupo 1163348" transform="translate(78.541 103.897)">
                <path id="Trazado_997888" data-name="Trazado 997888" d="M175.527,225.221a632.421,632.421,0,0,1,13.192,72.662q1.265,10.41,2.183,20.859c.077.873,1.45.881,1.372,0a635.437,635.437,0,0,0-10.817-73.425q-2.134-10.267-4.608-20.46c-.207-.859-1.53-.5-1.322.364Z" transform="translate(-175.505 -224.366)" fill="#09136e"/>
              </g>
              <g id="Grupo_1163349" data-name="Grupo 1163349" transform="translate(293.054 180.234)">
                <path id="Trazado_997889" data-name="Trazado 997889" d="M411.337,308.633a53.346,53.346,0,0,1-1.31,38.794c-.352.8.829,1.5,1.185.693a54.737,54.737,0,0,0,1.448-39.852c-.3-.824-1.622-.468-1.323.365Z" transform="translate(-409.962 -307.8)" fill="#09136e"/>
              </g>
              <g id="Grupo_1163354" data-name="Grupo 1163354" transform="translate(44.518 9.722)" opacity="0.2">
                <g id="Grupo_1163350" data-name="Grupo 1163350" transform="translate(44.095 9.291)">
                  <path id="Trazado_997890" data-name="Trazado 997890" d="M188.733,132.252c-.085,2.881-.173,6.15-2.027,8.533a.71.71,0,0,0,0,.971.691.691,0,0,0,.971,0c2.114-2.717,2.33-6.19,2.428-9.5a.687.687,0,0,0-1.372,0Z" transform="translate(-186.514 -131.59)" fill="#fff"/>
                </g>
                <g id="Grupo_1163351" data-name="Grupo 1163351" transform="translate(35.119 7.885)">
                  <path id="Trazado_997891" data-name="Trazado 997891" d="M182.6,130.708a32.26,32.26,0,0,1-5.77,15.086c-.511.722.678,1.408,1.185.693a33.644,33.644,0,0,0,5.956-15.779c.1-.876-1.276-.869-1.371,0Z" transform="translate(-176.703 -130.053)" fill="#fff"/>
                </g>
                <g id="Grupo_1163352" data-name="Grupo 1163352" transform="translate(7.35 2.028)">
                  <path id="Trazado_997892" data-name="Trazado 997892" d="M147.2,157.19c7.429-2.123,11.6-9.893,15.451-15.958,4.173-6.577,8.994-13.606,16.725-16.217.833-.281.475-1.608-.365-1.323-7.233,2.443-12.144,8.533-16.174,14.711-2.309,3.54-4.437,7.218-7.029,10.565-2.343,3.025-5.2,5.823-8.971,6.9a.686.686,0,0,0,.364,1.323Z" transform="translate(-146.353 -123.652)" fill="#fff"/>
                </g>
                <g id="Grupo_1163353" data-name="Grupo 1163353">
                  <path id="Trazado_997893" data-name="Trazado 997893" d="M139.692,151.59c.619-13.54,11.96-22.745,22.858-28.875a.687.687,0,0,0-.693-1.185c-11.357,6.388-22.9,16-23.538,30.06-.04.883,1.333.881,1.372,0Z" transform="translate(-138.319 -121.435)" fill="#fff"/>
                </g>
              </g>
              <g id="Grupo_1163355" data-name="Grupo 1163355" transform="translate(58.83 80.462)">
                <path id="Trazado_997894" data-name="Trazado 997894" d="M154.114,199.7a32.314,32.314,0,0,0,17.623,9.672c3.243.6,6.126.6,9.05-1.093a33.87,33.87,0,0,0,7.986-6.765c.471-.524-.3-1.3-.777-.777a34.188,34.188,0,0,1-7.45,6.406,10.046,10.046,0,0,1-4.329,1.554,17.471,17.471,0,0,1-5.012-.547,31.236,31.236,0,0,1-16.315-9.226c-.483-.517-1.258.261-.776.777Z" transform="translate(-153.962 -198.752)" fill="#d67f5c"/>
              </g>
            </g>
          </g>
        </g>
        <g id="Grupo_1163374" data-name="Grupo 1163374" transform="translate(29.593 0)">
          <g id="Grupo_1163373" data-name="Grupo 1163373" transform="translate(0 0)">
            <g id="Grupo_1163359" data-name="Grupo 1163359" transform="translate(303.611 70.063)">
              <path id="Trazado_997896" data-name="Trazado 997896" d="M417.374,146.055h-3.385v-3.386a.9.9,0,0,0-1.8,0v3.386H408.8a.9.9,0,0,0,0,1.8h3.386v3.386a.9.9,0,1,0,1.8,0v-3.386h3.385a.9.9,0,0,0,0-1.8Z" transform="translate(-407.899 -141.768)" fill="#ffc655"/>
            </g>
            <g id="Grupo_1163361" data-name="Grupo 1163361" transform="translate(54.493 325.009)">
              <g id="Grupo_1163360" data-name="Grupo 1163360">
                <path id="Trazado_997897" data-name="Trazado 997897" d="M140.887,430.953a5.268,5.268,0,1,1,5.268-5.268A5.274,5.274,0,0,1,140.887,430.953Zm0-8.867a3.6,3.6,0,1,0,3.6,3.6A3.6,3.6,0,0,0,140.887,422.087Z" transform="translate(-135.62 -420.417)" fill="#ffc655"/>
              </g>
            </g>
            <g id="Grupo_1163364" data-name="Grupo 1163364" transform="translate(192.464 25.531)">
              <g id="Grupo_1163363" data-name="Grupo 1163363" transform="translate(0)">
                <g id="Grupo_1163362" data-name="Grupo 1163362">
                  <path id="Trazado_997898" data-name="Trazado 997898" d="M291.686,103.631a5.268,5.268,0,1,1,5.268-5.267A5.274,5.274,0,0,1,291.686,103.631Zm0-8.866a3.6,3.6,0,1,0,3.6,3.6A3.6,3.6,0,0,0,291.686,94.766Z" transform="translate(-286.419 -93.096)" fill="#d42190"/>
                </g>
              </g>
            </g>
            <g id="Grupo_1163365" data-name="Grupo 1163365" transform="translate(0 168.139)">
              <path id="Trazado_997899" data-name="Trazado 997899" d="M81.363,259.566a.835.835,0,0,1-.747-.461l-4.467-8.934a.835.835,0,0,1,.747-1.209h8.934a.835.835,0,0,1,.747,1.209l-4.467,8.934A.837.837,0,0,1,81.363,259.566Zm-3.116-8.934,3.116,6.233,3.116-6.233Z" transform="translate(-76.061 -248.962)" fill="#542fd0"/>
            </g>
            <g id="Grupo_1163368" data-name="Grupo 1163368" transform="translate(328.693 327.23)">
              <g id="Grupo_1163367" data-name="Grupo 1163367">
                <g id="Grupo_1163366" data-name="Grupo 1163366">
                  <path id="Trazado_997900" data-name="Trazado 997900" d="M440.616,433.448a.835.835,0,0,1-.747-.461l-4.468-8.934a.835.835,0,0,1,.747-1.209h8.934a.835.835,0,0,1,.747,1.209l-4.468,8.934A.832.832,0,0,1,440.616,433.448Zm-3.116-8.934,3.116,6.233,3.116-6.233Z" transform="translate(-435.314 -422.844)" fill="#542fd0"/>
                </g>
              </g>
            </g>
            <g id="Grupo_1163372" data-name="Grupo 1163372" transform="translate(71.113)">
              <g id="Grupo_1163371" data-name="Grupo 1163371">
                <g id="Grupo_1163370" data-name="Grupo 1163370">
                  <g id="Grupo_1163369" data-name="Grupo 1163369">
                    <path id="Trazado_997901" data-name="Trazado 997901" d="M159.088,75.8a.835.835,0,0,1-.747-.461L153.875,66.4a.835.835,0,0,1,.747-1.209h8.934A.835.835,0,0,1,164.3,66.4l-4.468,8.934A.836.836,0,0,1,159.088,75.8Zm-3.116-8.934,3.116,6.233,3.116-6.233Z" transform="translate(-153.786 -65.191)" fill="#d42190"/>
                  </g>
                </g>
              </g>
            </g>
          </g>
        </g>
        <g id="Grupo_1163375" data-name="Grupo 1163375" transform="translate(245.552 254.857)">
          <path id="Trazado_997902" data-name="Trazado 997902" d="M407.681,398.112l-4.538-.9a2.612,2.612,0,0,0-.45-.047,22.18,22.18,0,0,0-1.545-7.589,2.6,2.6,0,0,0,.405-.22l3.832-2.592a2.613,2.613,0,0,0,.7-3.625l-2.592-3.832a2.614,2.614,0,0,0-3.625-.7l-3.832,2.592a2.616,2.616,0,0,0-.354.294,22.193,22.193,0,0,0-6.277-4.173,2.527,2.527,0,0,0,.128-.434l.9-4.538a2.614,2.614,0,0,0-2.054-3.068l-4.538-.9a2.615,2.615,0,0,0-3.068,2.054l-.9,4.538a2.609,2.609,0,0,0-.047.45,22.19,22.19,0,0,0-7.589,1.545,2.674,2.674,0,0,0-.22-.405l-2.592-3.832a2.593,2.593,0,0,0-1.655-1.1l-.013,0a2.594,2.594,0,0,0-1.957.4l-3.832,2.592h0a2.613,2.613,0,0,0-.7,3.625l2.592,3.832a2.564,2.564,0,0,0,.295.353,22.2,22.2,0,0,0-4.174,6.278,2.609,2.609,0,0,0-.434-.128l-4.538-.9a2.615,2.615,0,0,0-3.068,2.054l-.9,4.538a2.614,2.614,0,0,0,2.054,3.068l4.538.9a2.609,2.609,0,0,0,.45.047,22.2,22.2,0,0,0,1.546,7.59,2.6,2.6,0,0,0-.405.219l-3.832,2.592a2.61,2.61,0,0,0-.7,3.625l2.592,3.832h0a2.614,2.614,0,0,0,3.625.7l3.832-2.592a2.633,2.633,0,0,0,.353-.295,22.194,22.194,0,0,0,6.278,4.174,2.53,2.53,0,0,0-.128.434l-.9,4.538a2.615,2.615,0,0,0,2.054,3.068l4.538.9a2.615,2.615,0,0,0,3.068-2.054l.9-4.538a2.609,2.609,0,0,0,.047-.45,22.174,22.174,0,0,0,7.59-1.546,2.609,2.609,0,0,0,.219.406l2.592,3.832a2.613,2.613,0,0,0,3.625.7l3.832-2.592a2.613,2.613,0,0,0,.7-3.625l-2.592-3.831a2.559,2.559,0,0,0-.294-.354,22.193,22.193,0,0,0,4.173-6.277,2.525,2.525,0,0,0,.434.128l4.538.9a2.615,2.615,0,0,0,3.068-2.054l.9-4.538A2.614,2.614,0,0,0,407.681,398.112Zm-29.67,11.647a12.26,12.26,0,1,1,14.406-9.648A12.274,12.274,0,0,1,378.011,409.759Z" transform="translate(-315.407 -345.834)" fill="#09136e"/>
          <path id="Trazado_997903" data-name="Trazado 997903" d="M445.479,373.449l-2.865-1.89a1.886,1.886,0,0,0-.3-.158,16.463,16.463,0,0,0,1.069-5.647,1.962,1.962,0,0,0,.34-.037l3.36-.705a1.939,1.939,0,0,0,1.5-2.294l-.705-3.36a1.939,1.939,0,0,0-2.294-1.5l-3.36.705a1.98,1.98,0,0,0-.326.1,16.461,16.461,0,0,0-3.141-4.629,1.889,1.889,0,0,0,.21-.262l1.89-2.866a1.939,1.939,0,0,0-.55-2.684l-2.866-1.89a1.939,1.939,0,0,0-2.684.55l-1.89,2.865a1.89,1.89,0,0,0-.158.3,16.464,16.464,0,0,0-5.647-1.069,1.942,1.942,0,0,0-.038-.339l-.705-3.36a1.922,1.922,0,0,0-.829-1.219l-.008,0a1.922,1.922,0,0,0-1.457-.274l-3.36.705h0a1.939,1.939,0,0,0-1.5,2.294l.705,3.36a1.918,1.918,0,0,0,.1.325,16.45,16.45,0,0,0-4.63,3.141,1.89,1.89,0,0,0-.262-.21l-2.865-1.89a1.939,1.939,0,0,0-2.684.55l-1.89,2.865a1.939,1.939,0,0,0,.55,2.684l2.866,1.89a1.892,1.892,0,0,0,.3.158,16.474,16.474,0,0,0-1.069,5.648,1.89,1.89,0,0,0-.34.037l-3.36.705a1.936,1.936,0,0,0-1.5,2.293l.7,3.36h0a1.94,1.94,0,0,0,2.294,1.5l3.36-.705a1.918,1.918,0,0,0,.325-.1,16.469,16.469,0,0,0,3.141,4.63,1.848,1.848,0,0,0-.21.263l-1.89,2.865a1.939,1.939,0,0,0,.55,2.684l2.865,1.89a1.939,1.939,0,0,0,2.684-.55l1.89-2.865a1.89,1.89,0,0,0,.158-.3,16.465,16.465,0,0,0,5.648,1.069,1.89,1.89,0,0,0,.037.34l.705,3.36a1.94,1.94,0,0,0,2.294,1.5l3.36-.7a1.939,1.939,0,0,0,1.5-2.294l-.7-3.36a1.98,1.98,0,0,0-.1-.326,16.459,16.459,0,0,0,4.629-3.141,1.973,1.973,0,0,0,.262.21l2.865,1.89a1.939,1.939,0,0,0,2.684-.55l1.89-2.865A1.939,1.939,0,0,0,445.479,373.449Zm-23.649-.328a9.1,9.1,0,1,1,12.6-2.583A9.107,9.107,0,0,1,421.83,373.122Z" transform="translate(-320.005 -343.742)" fill="#09136e"/>
          <path id="Trazado_997904" data-name="Trazado 997904" d="M336.74,424.436l-.447-2.934a1.586,1.586,0,0,0-.07-.282,14.24,14.24,0,0,0,4.244-2.586,1.632,1.632,0,0,0,.221.2l2.4,1.748a1.678,1.678,0,0,0,2.34-.368l1.748-2.4a1.678,1.678,0,0,0-.368-2.34l-2.4-1.749a1.7,1.7,0,0,0-.254-.15,14.252,14.252,0,0,0,1.152-4.7,1.639,1.639,0,0,0,.29-.017l2.934-.447a1.677,1.677,0,0,0,1.4-1.908l-.447-2.934a1.678,1.678,0,0,0-1.909-1.4l-2.934.447a1.668,1.668,0,0,0-.282.069,14.232,14.232,0,0,0-2.586-4.244,1.692,1.692,0,0,0,.2-.221l1.748-2.4a1.665,1.665,0,0,0,.3-1.238.025.025,0,0,1,0-.008,1.666,1.666,0,0,0-.668-1.094l-2.4-1.748h0a1.678,1.678,0,0,0-2.34.368l-1.748,2.4a1.713,1.713,0,0,0-.149.254,14.23,14.23,0,0,0-4.7-1.152,1.724,1.724,0,0,0-.017-.29l-.447-2.934a1.678,1.678,0,0,0-1.908-1.4l-2.934.447a1.678,1.678,0,0,0-1.4,1.908l.447,2.934a1.666,1.666,0,0,0,.07.282,14.223,14.223,0,0,0-4.244,2.587,1.622,1.622,0,0,0-.221-.2l-2.4-1.747a1.676,1.676,0,0,0-2.34.367l-1.748,2.4h0a1.677,1.677,0,0,0,.368,2.34l2.4,1.748a1.707,1.707,0,0,0,.254.149,14.229,14.229,0,0,0-1.152,4.7,1.727,1.727,0,0,0-.29.017l-2.934.447a1.678,1.678,0,0,0-1.4,1.908l.447,2.934a1.678,1.678,0,0,0,1.908,1.4l2.934-.446a1.666,1.666,0,0,0,.282-.07,14.222,14.222,0,0,0,2.587,4.244,1.694,1.694,0,0,0-.2.22l-1.748,2.4a1.677,1.677,0,0,0,.368,2.34l2.4,1.748a1.678,1.678,0,0,0,2.34-.368l1.748-2.4a1.7,1.7,0,0,0,.15-.254,14.23,14.23,0,0,0,4.7,1.151,1.635,1.635,0,0,0,.017.29l.447,2.934a1.678,1.678,0,0,0,1.908,1.4l2.934-.446A1.674,1.674,0,0,0,336.74,424.436Zm-13.493-15.372a7.867,7.867,0,1,1,8.961,6.594A7.876,7.876,0,0,1,323.247,409.064Z" transform="translate(-312.098 -347.587)" fill="#09136e"/>
        </g>
        <g id="Grupo_1163378" data-name="Grupo 1163378" transform="translate(36.6 256.32)">
          <circle id="Elipse_12238" data-name="Elipse 12238" cx="19.924" cy="19.924" r="19.924" transform="matrix(0.159, -0.987, 0.987, 0.159, 0, 39.341)" fill="#542fd0"/>
          <g id="Grupo_1163377" data-name="Grupo 1163377" transform="translate(10.269 11.148)">
            <rect id="Rectángulo_412061" data-name="Rectángulo 412061" width="11.753" height="5.356" transform="translate(7.275)" fill="#fff"/>
            <g id="Grupo_1163376" data-name="Grupo 1163376" transform="translate(0 4.853)">
              <path id="Trazado_997905" data-name="Trazado 997905" d="M116.976,365.928l-18.635-3.1c-.009,0-.018,0-.028,0s-.034,0-.051,0a.556.556,0,0,0-.17.02c-.01,0-.019,0-.029,0l-2.716.892a.584.584,0,0,0,.366,1.11l2.178-.715,4.17,11.5s-.008,0-.011.007c-.158.147-1.544,1.472-1.544,2.7a.585.585,0,0,0,.585.585h14.024a.585.585,0,0,0,0-1.169H101.856a5.319,5.319,0,0,1,.989-1.263.572.572,0,0,0,.165-.317h13.177a.585.585,0,0,0,.583-.54l.7-9.1A.588.588,0,0,0,116.976,365.928Zm-.947,4.051h-4.289v-3.736l4.518.75Zm-9.785,0v-4.649l4.911.816v3.833Zm4.911.585v4.454h-4.911v-4.454Zm-5.5-5.33v4.746h-4.41l-2.114-5.83Zm-4.2,5.33h4.2v4.454h-2.583Zm10.278,4.454v-4.454h4.245l-.34,4.454Z" transform="translate(-94.943 -362.83)" fill="#fff"/>
              <path id="Trazado_997906" data-name="Trazado 997906" d="M102.756,381.139a1.484,1.484,0,1,0,1.485,1.484A1.485,1.485,0,0,0,102.756,381.139Z" transform="translate(-95.481 -364.387)" fill="#fff"/>
              <path id="Trazado_997907" data-name="Trazado 997907" d="M115.226,381.139a1.484,1.484,0,1,0,1.485,1.484A1.485,1.485,0,0,0,115.226,381.139Z" transform="translate(-96.542 -364.387)" fill="#fff"/>
            </g>
          </g>
        </g>
      </g>
      <g id="TEXTS" transform="translate(1021.539 6142.024)">
        <text id="_" data-name="$" transform="translate(0 24)" fill="#fff" font-size="25" font-family="Montserrat-Bold, Montserrat" font-weight="700"><tspan x="0" y="0">$</tspan></text>
      </g>
    </g>
  </g>
</svg>
