<svg xmlns="http://www.w3.org/2000/svg" xmlns:xlink="http://www.w3.org/1999/xlink" width="108" height="108" viewBox="0 0 108 108">
  <defs>
    <filter id="Trazado_982547" x="0" y="0" width="108" height="108" filterUnits="userSpaceOnUse">
      <feOffset dy="3" input="SourceAlpha"/>
      <feGaussianBlur stdDeviation="3" result="blur"/>
      <feFlood flood-opacity="0.161"/>
      <feComposite operator="in" in2="blur"/>
      <feComposite in="SourceGraphic"/>
    </filter>
  </defs>
  <g id="Grupo_1163208" data-name="Grupo 1163208" transform="translate(-161 -7238)">
    <g id="Grupo_1162030" data-name="Grupo 1162030" transform="translate(0 6481)">
      <g id="Grupo_1157998" data-name="Grupo 1157998" transform="translate(0 -1398)">
        <g id="Grupo_1153207" data-name="Grupo 1153207" transform="translate(0 703)">
          <g id="Grupo_1153117" data-name="Grupo 1153117" transform="translate(-93 939)">
            <g id="Grupo_1149598" data-name="Grupo 1149598" transform="translate(80 315)">
              <g id="Grupo_1148770" data-name="Grupo 1148770" transform="translate(-27 -2583)">
                <g id="Grupo_1146954" data-name="Grupo 1146954" transform="translate(-415 -1202)">
                  <g transform="matrix(1, 0, 0, 1, 616, 3983)" filter="url(#Trazado_982547)">
                    <g id="Trazado_982547-2" data-name="Trazado 982547" transform="translate(9 6)" fill="#ebfefd">
                      <path d="M 45 88.5 C 39.12687683105469 88.5 33.43022537231445 87.35007476806641 28.06830024719238 85.08217620849609 C 22.88852500915527 82.89131164550781 18.23629951477051 79.75458526611328 14.2408504486084 75.75914764404297 C 10.24541282653809 71.76370239257812 7.108687400817871 67.11147308349609 4.917825222015381 61.93170166015625 C 2.649924993515015 56.56977462768555 1.5 50.87312316894531 1.5 45 C 1.5 39.12687683105469 2.649924993515015 33.43022537231445 4.917825222015381 28.06830024719238 C 7.108687400817871 22.88852500915527 10.24541282653809 18.23629951477051 14.2408504486084 14.2408504486084 C 18.23629951477051 10.24541282653809 22.88852500915527 7.108687400817871 28.06830024719238 4.917825222015381 C 33.43022537231445 2.649924993515015 39.12687683105469 1.5 45 1.5 C 50.87312316894531 1.5 56.56977462768555 2.649924993515015 61.93170166015625 4.917825222015381 C 67.11147308349609 7.108687400817871 71.76370239257812 10.24541282653809 75.75914764404297 14.2408504486084 C 79.75458526611328 18.23629951477051 82.89131164550781 22.88852500915527 85.08217620849609 28.06830024719238 C 87.35007476806641 33.43022537231445 88.5 39.12687683105469 88.5 45 C 88.5 50.87312316894531 87.35007476806641 56.56977462768555 85.08217620849609 61.93170166015625 C 82.89131164550781 67.11147308349609 79.75458526611328 71.76370239257812 75.75914764404297 75.75914764404297 C 71.76370239257812 79.75458526611328 67.11147308349609 82.89131164550781 61.93170166015625 85.08217620849609 C 56.56977462768555 87.35007476806641 50.87312316894531 88.5 45 88.5 Z" stroke="none"/>
                      <path d="M 45 3 C 39.32871246337891 3 33.82865524291992 4.110054016113281 28.65262985229492 6.299339294433594 C 23.65165710449219 8.414573669433594 19.15968322753906 11.44334411621094 15.301513671875 15.301513671875 C 11.44334411621094 19.15968322753906 8.414573669433594 23.65165710449219 6.299339294433594 28.65262985229492 C 4.110054016113281 33.82865524291992 3 39.32871246337891 3 45 C 3 50.67128753662109 4.110054016113281 56.17134475708008 6.299339294433594 61.34737396240234 C 8.414573669433594 66.34834289550781 11.44334411621094 70.84031677246094 15.301513671875 74.698486328125 C 19.15968322753906 78.55665588378906 23.65165710449219 81.58542633056641 28.65262985229492 83.70066070556641 C 33.82865524291992 85.88994598388672 39.32871246337891 87 45 87 C 50.67128753662109 87 56.17134475708008 85.88994598388672 61.34737396240234 83.70066070556641 C 66.34834289550781 81.58542633056641 70.84031677246094 78.55665588378906 74.698486328125 74.698486328125 C 78.55665588378906 70.84031677246094 81.58542633056641 66.34834289550781 83.70066070556641 61.34737396240234 C 85.88994598388672 56.17134475708008 87 50.67128753662109 87 45 C 87 39.32871246337891 85.88994598388672 33.82865524291992 83.70066070556641 28.65262985229492 C 81.58542633056641 23.65165710449219 78.55665588378906 19.15968322753906 74.698486328125 15.301513671875 C 70.84031677246094 11.44334411621094 66.34834289550781 8.414573669433594 61.34737396240234 6.299339294433594 C 56.17134475708008 4.110054016113281 50.67128753662109 3 45 3 M 45 0 C 69.85281372070312 0 90 20.14718627929688 90 45 C 90 69.85281372070312 69.85281372070312 90 45 90 C 20.14718627929688 90 0 69.85281372070312 0 45 C 0 20.14718627929688 20.14718627929688 0 45 0 Z" stroke="none" fill="#268985"/>
                    </g>
                  </g>
                </g>
              </g>
            </g>
          </g>
        </g>
      </g>
    </g>
    <g id="api" transform="translate(186.99 7260.99)">
      <g id="Grupo_1163179" data-name="Grupo 1163179" transform="translate(1.816 1.816)">
        <g id="Grupo_1163175" data-name="Grupo 1163175" transform="translate(0)">
          <path id="Trazado_997753" data-name="Trazado 997753" d="M53.493,5.2A3.225,3.225,0,0,0,50.271,1.98H5.2A3.225,3.225,0,0,0,1.98,5.2v7.333H53.493Z" transform="translate(-1.98 -1.98)" fill="#f56356"/>
        </g>
        <g id="Grupo_1163176" data-name="Grupo 1163176" transform="translate(0.008 10.555)">
          <path id="Trazado_997754" data-name="Trazado 997754" d="M1.99,14.69V52.434a3.225,3.225,0,0,0,3.222,3.222H50.289a3.225,3.225,0,0,0,3.222-3.222V14.69Z" transform="translate(-1.99 -14.69)" fill="#caeae9"/>
        </g>
        <g id="Grupo_1163177" data-name="Grupo 1163177" transform="translate(10.53 16.734)">
          <path id="Trazado_997755" data-name="Trazado 997755" d="M45.129,40.475V34.853l-2.873-.573a12.567,12.567,0,0,0-1.171-3.039l1.736-2.358-3.878-4.069-2.433,1.636a12.664,12.664,0,0,0-2.973-1.312L33.1,22.13h-5.63L26.884,25c-.066.025-.149.05-.208.066a10.446,10.446,0,0,0-2.068.747c-.05.017-.091.042-.141.058-.208.091-.407.2-.615.307l-2.358-1.719L17.417,28.35l1.611,2.442a10.9,10.9,0,0,0-.639,1.188,11.372,11.372,0,0,0-.673,1.785l-3.056.457v5.63l2.882.573A13.113,13.113,0,0,0,18.7,43.448l-1.727,2.367,1.752,1.835,2.134,2.242,2.45-1.661a11.926,11.926,0,0,0,2.956,1.329l.44,3.015h5.622l.59-2.89a12.379,12.379,0,0,0,3.031-1.171l1.993,1.445L38,50l.307.224,4.069-3.887-1.611-2.45a12.1,12.1,0,0,0,1.312-2.965ZM29.891,46.039a8.678,8.678,0,1,1,8.678-8.678A8.68,8.68,0,0,1,29.891,46.039Z" transform="translate(-14.66 -22.13)" fill="#ffd404"/>
        </g>
        <g id="Grupo_1163178" data-name="Grupo 1163178" transform="translate(0.008 0.008)" opacity="0.12">
          <path id="Trazado_997756" data-name="Trazado 997756" d="M50.281,1.99A48.291,48.291,0,0,1,1.99,50.281,3.225,3.225,0,0,0,5.212,53.5H50.289a3.225,3.225,0,0,0,3.222-3.222V5.2a3.236,3.236,0,0,0-3.23-3.214Z" transform="translate(-1.99 -1.99)"/>
        </g>
      </g>
      <g id="Grupo_1163207" data-name="Grupo 1163207" transform="translate(1.01 1.01)">
        <g id="Grupo_1163183" data-name="Grupo 1163183" transform="translate(3.953 14.998)">
          <g id="Grupo_1163180" data-name="Grupo 1163180">
            <path id="Trazado_997757" data-name="Trazado 997757" d="M18.592,20.681H6.576a.806.806,0,1,1,0-1.611H18.592a.806.806,0,1,1,0,1.611Z" transform="translate(-5.77 -19.07)"/>
          </g>
          <g id="Grupo_1163181" data-name="Grupo 1163181" transform="translate(6.303 3.82)">
            <path id="Trazado_997758" data-name="Trazado 997758" d="M15.436,25.281H14.166a.806.806,0,1,1,0-1.611h1.271a.806.806,0,1,1,0,1.611Z" transform="translate(-13.36 -23.67)"/>
          </g>
          <g id="Grupo_1163182" data-name="Grupo 1163182" transform="translate(0 3.82)">
            <path id="Trazado_997759" data-name="Trazado 997759" d="M10.147,25.281H6.576a.806.806,0,1,1,0-1.611h3.571a.8.8,0,0,1,.806.806A.812.812,0,0,1,10.147,25.281Z" transform="translate(-5.77 -23.67)"/>
          </g>
        </g>
        <g id="Grupo_1163195" data-name="Grupo 1163195">
          <g id="Grupo_1163194" data-name="Grupo 1163194">
            <g id="Grupo_1163193" data-name="Grupo 1163193">
              <g id="Grupo_1163192" data-name="Grupo 1163192">
                <g id="Grupo_1163191" data-name="Grupo 1163191">
                  <g id="Grupo_1163184" data-name="Grupo 1163184" transform="translate(0)">
                    <path id="Trazado_997760" data-name="Trazado 997760" d="M50.115,54.143H5.038A4.032,4.032,0,0,1,1.01,50.115V5.038A4.032,4.032,0,0,1,5.038,1.01H50.115a4.032,4.032,0,0,1,4.028,4.028V50.115A4.037,4.037,0,0,1,50.115,54.143ZM5.038,2.621A2.419,2.419,0,0,0,2.621,5.038V50.115a2.419,2.419,0,0,0,2.417,2.417H50.115a2.419,2.419,0,0,0,2.417-2.417V5.038a2.419,2.419,0,0,0-2.417-2.417Z" transform="translate(-1.01 -1.01)"/>
                  </g>
                  <g id="Grupo_1163185" data-name="Grupo 1163185" transform="translate(0 10.555)">
                    <path id="Trazado_997761" data-name="Trazado 997761" d="M53.337,15.331H1.816a.806.806,0,0,1,0-1.611H53.329a.806.806,0,0,1,.008,1.611Z" transform="translate(-1.01 -13.72)"/>
                  </g>
                  <g id="Grupo_1163189" data-name="Grupo 1163189" transform="translate(4.966 5.282)">
                    <g id="Grupo_1163186" data-name="Grupo 1163186">
                      <path id="Trazado_997762" data-name="Trazado 997762" d="M9.5,8.981H7.8a.806.806,0,1,1,0-1.611H9.5a.806.806,0,1,1,0,1.611Z" transform="translate(-6.99 -7.37)"/>
                    </g>
                    <g id="Grupo_1163187" data-name="Grupo 1163187" transform="translate(4.651)">
                      <path id="Trazado_997763" data-name="Trazado 997763" d="M15.1,8.981H13.4a.806.806,0,0,1,0-1.611h1.7a.806.806,0,1,1,0,1.611Z" transform="translate(-12.59 -7.37)"/>
                    </g>
                    <g id="Grupo_1163188" data-name="Grupo 1163188" transform="translate(9.301)">
                      <path id="Trazado_997764" data-name="Trazado 997764" d="M20.7,8.981H19A.806.806,0,0,1,19,7.37h1.7a.806.806,0,0,1,0,1.611Z" transform="translate(-18.19 -7.37)"/>
                    </g>
                  </g>
                  <g id="Grupo_1163190" data-name="Grupo 1163190" transform="translate(27.364 5.282)">
                    <path id="Trazado_997765" data-name="Trazado 997765" d="M53.825,8.981H34.766a.806.806,0,1,1,0-1.611H53.825a.806.806,0,0,1,0,1.611Z" transform="translate(-33.96 -7.37)"/>
                  </g>
                </g>
              </g>
            </g>
          </g>
        </g>
        <g id="Grupo_1163199" data-name="Grupo 1163199" transform="translate(10.53 16.759)">
          <g id="Grupo_1163198" data-name="Grupo 1163198">
            <g id="Grupo_1163197" data-name="Grupo 1163197">
              <g id="Grupo_1163196" data-name="Grupo 1163196">
                <path id="Trazado_997766" data-name="Trazado 997766" d="M32.159,53.221H26.537a.8.8,0,0,1-.8-.689l-.365-2.516a12.415,12.415,0,0,1-2.209-.988L21.139,50.4a.809.809,0,0,1-1.038-.108l-3.878-4.078a.8.8,0,0,1-.066-1.03l1.437-1.968a13.172,13.172,0,0,1-.864-2.251l-2.392-.473a.809.809,0,0,1-.648-.789V34.07a.8.8,0,0,1,.689-.8l2.558-.382a12.492,12.492,0,0,1,.565-1.412c.133-.291.274-.565.415-.814L16.58,28.647a.809.809,0,0,1,.116-1.03l4.078-3.878a.8.8,0,0,1,1.03-.066L23.755,25.1c.075-.033.141-.066.216-.1a1.317,1.317,0,0,1,.149-.066,11.764,11.764,0,0,1,1.9-.706l.49-2.4a.8.8,0,0,1,.789-.639h5.63a.8.8,0,0,1,.8.689l.365,2.508a12.588,12.588,0,0,1,2.217.98l2.018-1.354a.8.8,0,0,1,1.03.116L43.238,28.2a.805.805,0,0,1,.066,1.03L41.867,31.18a13.415,13.415,0,0,1,.872,2.275l2.383.473a.809.809,0,0,1,.648.789V40.34a.8.8,0,0,1-.689.8l-2.549.374a12.74,12.74,0,0,1-.98,2.226l1.337,2.026a.8.8,0,0,1-.116,1.021L38.7,50.663a.8.8,0,0,1-1.03.066l-1.96-1.42a13.589,13.589,0,0,1-2.267.88l-.49,2.4a.819.819,0,0,1-.8.631ZM27.226,51.61H31.5l.457-2.251a.8.8,0,0,1,.606-.623,11.535,11.535,0,0,0,2.832-1.1.8.8,0,0,1,.855.058l1.819,1.32,3.1-2.956-1.246-1.885a.811.811,0,0,1-.017-.864,11.068,11.068,0,0,0,1.221-2.765.817.817,0,0,1,.656-.573l2.367-.349V35.358l-2.226-.448a.793.793,0,0,1-.623-.6,11.64,11.64,0,0,0-1.1-2.84.812.812,0,0,1,.058-.864L41.6,28.8l-2.948-3.089-1.869,1.254a.794.794,0,0,1-.864.017,11.245,11.245,0,0,0-2.782-1.221.816.816,0,0,1-.573-.656l-.332-2.317H27.957L27.5,25.018a.821.821,0,0,1-.531.606l-.183.058-.091.025a9.462,9.462,0,0,0-1.91.689c-.033.017-.058.025-.091.042-.208.1-.34.166-.473.241l-.158.083a.8.8,0,0,1-.847-.066l-1.81-1.32L18.3,28.332l1.237,1.877a.808.808,0,0,1,.008.872,10.075,10.075,0,0,0-.59,1.1,10.58,10.58,0,0,0-.631,1.678.8.8,0,0,1-.648.565l-2.367.357v4.277l2.234.448a.792.792,0,0,1,.623.606,12.518,12.518,0,0,0,1.088,2.84.8.8,0,0,1-.066.847l-1.329,1.819,2.948,3.1,1.885-1.279a.809.809,0,0,1,.872-.017,11.3,11.3,0,0,0,2.757,1.237.782.782,0,0,1,.573.656Z" transform="translate(-13.69 -21.19)"/>
              </g>
            </g>
          </g>
        </g>
        <g id="Grupo_1163205" data-name="Grupo 1163205" transform="translate(20.554 28.867)">
          <g id="Grupo_1163203" data-name="Grupo 1163203" transform="translate(0 0.141)">
            <g id="Grupo_1163200" data-name="Grupo 1163200">
              <path id="Trazado_997767" data-name="Trazado 997767" d="M29.074,36.355a.705.705,0,0,0-.224-.291.564.564,0,0,0-.374-.125H28.4a.6.6,0,0,0-.374.125.878.878,0,0,0-.224.291l-1.993,4.7a.573.573,0,0,0-.05.216.509.509,0,0,0,.141.357.513.513,0,0,0,.839-.166l.465-1.121h2.45l.473,1.129a.554.554,0,0,0,.191.224.489.489,0,0,0,.282.083.5.5,0,0,0,.365-.149.509.509,0,0,0,.141-.357.573.573,0,0,0-.05-.216Zm.191,3.039H27.612l.822-1.985Z" transform="translate(-25.76 -35.94)"/>
            </g>
            <g id="Grupo_1163201" data-name="Grupo 1163201" transform="translate(6.013 1.437)">
              <path id="Trazado_997768" data-name="Trazado 997768" d="M36.189,37.936a2.012,2.012,0,0,0-1-.266,1.9,1.9,0,0,0-1.2.415.5.5,0,0,0-.133-.233.517.517,0,0,0-.714,0A.483.483,0,0,0,33,38.21v5.149a.509.509,0,0,0,.141.357.483.483,0,0,0,.357.149.488.488,0,0,0,.365-.149.5.5,0,0,0,.149-.365V41.7a1.916,1.916,0,0,0,1.179.407,2.036,2.036,0,0,0,1-.266,2.067,2.067,0,0,0,.764-.772,2.538,2.538,0,0,0,0-2.358,2.13,2.13,0,0,0-.764-.772Zm-1.1.706a1.076,1.076,0,0,1,.822.324,1.3,1.3,0,0,1,.307.93,1.321,1.321,0,0,1-.307.93,1.076,1.076,0,0,1-.822.324,1.383,1.383,0,0,1-.606-.141,1.938,1.938,0,0,1-.473-.349V39.14a1.938,1.938,0,0,1,.473-.349A1.284,1.284,0,0,1,35.093,38.642Z" transform="translate(-33 -37.67)"/>
            </g>
            <g id="Grupo_1163202" data-name="Grupo 1163202" transform="translate(10.937 1.475)">
              <path id="Trazado_997769" data-name="Trazado 997769" d="M39.071,37.869a.488.488,0,0,0-.141.357v3.347a.47.47,0,0,0,.149.357.483.483,0,0,0,.357.149.509.509,0,0,0,.357-.141.5.5,0,0,0,.149-.357V38.234a.488.488,0,0,0-.149-.365.5.5,0,0,0-.722,0Z" transform="translate(-38.93 -37.716)"/>
            </g>
          </g>
          <g id="Grupo_1163204" data-name="Grupo 1163204" transform="translate(10.871)">
            <path id="Trazado_997770" data-name="Trazado 997770" d="M39.406,36.916h.05a.54.54,0,0,0,.39-.166A.558.558,0,0,0,40,36.326a.568.568,0,0,0-.158-.39.54.54,0,0,0-.39-.166h-.05a.554.554,0,0,0-.556.581.54.54,0,0,0,.166.39A.48.48,0,0,0,39.406,36.916Z" transform="translate(-38.85 -35.77)"/>
          </g>
        </g>
        <g id="Grupo_1163206" data-name="Grupo 1163206" transform="translate(17.082 23.278)">
          <path id="Trazado_997771" data-name="Trazado 997771" d="M31.064,48.016a9.488,9.488,0,1,1,9.484-9.492A9.491,9.491,0,0,1,31.064,48.016Zm0-17.365a7.873,7.873,0,1,0,7.873,7.873A7.879,7.879,0,0,0,31.064,30.651Z" transform="translate(-21.58 -29.04)"/>
        </g>
      </g>
    </g>
  </g>
</svg>
