<svg xmlns="http://www.w3.org/2000/svg" xmlns:xlink="http://www.w3.org/1999/xlink" width="108" height="108" viewBox="0 0 108 108">
  <defs>
    <filter id="Trazado_982547" x="0" y="0" width="108" height="108" filterUnits="userSpaceOnUse">
      <feOffset dy="3" input="SourceAlpha"/>
      <feGaussianBlur stdDeviation="3" result="blur"/>
      <feFlood flood-opacity="0.161"/>
      <feComposite operator="in" in2="blur"/>
      <feComposite in="SourceGraphic"/>
    </filter>
  </defs>
  <g id="Grupo_1162961" data-name="Grupo 1162961" transform="translate(-196 -677)">
    <g id="Grupo_1161777" data-name="Grupo 1161777" transform="translate(0 356)">
      <g id="Grupo_1155782" data-name="Grupo 1155782" transform="translate(-420 -4906)">
        <g id="Grupo_1154033" data-name="Grupo 1154033" transform="translate(0 1317)">
          <g id="Grupo_1153177" data-name="Grupo 1153177" transform="translate(362 3397)">
            <g id="Grupo_1149598" data-name="Grupo 1149598" transform="translate(80 315)">
              <g id="Grupo_1148770" data-name="Grupo 1148770" transform="translate(-27 -2583)">
                <g id="Grupo_1146954" data-name="Grupo 1146954" transform="translate(-415 -1202)">
                  <g transform="matrix(1, 0, 0, 1, 616, 3983)" filter="url(#Trazado_982547)">
                    <g id="Trazado_982547-2" data-name="Trazado 982547" transform="translate(9 6)" fill="#f6fde5">
                      <path d="M 45 88.5 C 39.12687683105469 88.5 33.43022537231445 87.35007476806641 28.06830024719238 85.08217620849609 C 22.88852500915527 82.89131164550781 18.23629951477051 79.75458526611328 14.2408504486084 75.75914764404297 C 10.24541282653809 71.76370239257812 7.108687400817871 67.11147308349609 4.917825222015381 61.93170166015625 C 2.649924993515015 56.56977462768555 1.5 50.87312316894531 1.5 45 C 1.5 39.12687683105469 2.649924993515015 33.43022537231445 4.917825222015381 28.06830024719238 C 7.108687400817871 22.88852500915527 10.24541282653809 18.23629951477051 14.2408504486084 14.2408504486084 C 18.23629951477051 10.24541282653809 22.88852500915527 7.108687400817871 28.06830024719238 4.917825222015381 C 33.43022537231445 2.649924993515015 39.12687683105469 1.5 45 1.5 C 50.87312316894531 1.5 56.56977462768555 2.649924993515015 61.93170166015625 4.917825222015381 C 67.11147308349609 7.108687400817871 71.76370239257812 10.24541282653809 75.75914764404297 14.2408504486084 C 79.75458526611328 18.23629951477051 82.89131164550781 22.88852500915527 85.08217620849609 28.06830024719238 C 87.35007476806641 33.43022537231445 88.5 39.12687683105469 88.5 45 C 88.5 50.87312316894531 87.35007476806641 56.56977462768555 85.08217620849609 61.93170166015625 C 82.89131164550781 67.11147308349609 79.75458526611328 71.76370239257812 75.75914764404297 75.75914764404297 C 71.76370239257812 79.75458526611328 67.11147308349609 82.89131164550781 61.93170166015625 85.08217620849609 C 56.56977462768555 87.35007476806641 50.87312316894531 88.5 45 88.5 Z" stroke="none"/>
                      <path d="M 45 3 C 39.32871246337891 3 33.82865524291992 4.110054016113281 28.65262985229492 6.299339294433594 C 23.65165710449219 8.414573669433594 19.15968322753906 11.44334411621094 15.301513671875 15.301513671875 C 11.44334411621094 19.15968322753906 8.414573669433594 23.65165710449219 6.299339294433594 28.65262985229492 C 4.110054016113281 33.82865524291992 3 39.32871246337891 3 45 C 3 50.67128753662109 4.110054016113281 56.17134475708008 6.299339294433594 61.34737396240234 C 8.414573669433594 66.34834289550781 11.44334411621094 70.84031677246094 15.301513671875 74.698486328125 C 19.15968322753906 78.55665588378906 23.65165710449219 81.58542633056641 28.65262985229492 83.70066070556641 C 33.82865524291992 85.88994598388672 39.32871246337891 87 45 87 C 50.67128753662109 87 56.17134475708008 85.88994598388672 61.34737396240234 83.70066070556641 C 66.34834289550781 81.58542633056641 70.84031677246094 78.55665588378906 74.698486328125 74.698486328125 C 78.55665588378906 70.84031677246094 81.58542633056641 66.34834289550781 83.70066070556641 61.34737396240234 C 85.88994598388672 56.17134475708008 87 50.67128753662109 87 45 C 87 39.32871246337891 85.88994598388672 33.82865524291992 83.70066070556641 28.65262985229492 C 81.58542633056641 23.65165710449219 78.55665588378906 19.15968322753906 74.698486328125 15.301513671875 C 70.84031677246094 11.44334411621094 66.34834289550781 8.414573669433594 61.34737396240234 6.299339294433594 C 56.17134475708008 4.110054016113281 50.67128753662109 3 45 3 M 45 0 C 69.85281372070312 0 90 20.14718627929688 90 45 C 90 69.85281372070312 69.85281372070312 90 45 90 C 20.14718627929688 90 0 69.85281372070312 0 45 C 0 20.14718627929688 20.14718627929688 0 45 0 Z" stroke="none" fill="#618307"/>
                    </g>
                  </g>
                </g>
              </g>
            </g>
          </g>
        </g>
      </g>
    </g>
    <g id="Icons" transform="translate(220.5 698.833)">
      <g id="Grupo_1162960" data-name="Grupo 1162960" transform="translate(2.5 2.167)">
        <path id="Trazado_997321" data-name="Trazado 997321" d="M57.553,43.227v34.35a2.091,2.091,0,0,1-2.136,2.042H7.136A2.091,2.091,0,0,1,5,77.577V43.227Z" transform="translate(-4.466 -34.455)" fill="#efefef"/>
        <path id="Trazado_997322" data-name="Trazado 997322" d="M85.633,58.3V88.615H54.02V58.3a3.637,3.637,0,0,1,3.632-3.632H82A3.637,3.637,0,0,1,85.633,58.3Z" transform="translate(-43.014 -43.451)" fill="#afafaf"/>
        <path id="Trazado_997323" data-name="Trazado 997323" d="M57.553,12.905H5V6.8A2.136,2.136,0,0,1,7.136,4.667H55.417A2.136,2.136,0,0,1,57.553,6.8Z" transform="translate(-4.466 -4.133)" fill="#72c2e9"/>
        <circle id="Elipse_12217" data-name="Elipse 12217" cx="1.338" cy="1.338" r="1.338" transform="translate(3.801 3.316)" fill="#fc5d3d"/>
        <circle id="Elipse_12218" data-name="Elipse 12218" cx="1.338" cy="1.338" r="1.338" transform="translate(9.856 3.316)" fill="#f0c020"/>
        <circle id="Elipse_12219" data-name="Elipse 12219" cx="1.338" cy="1.338" r="1.338" transform="translate(15.911 3.316)" fill="#efefef"/>
        <path id="Trazado_997324" data-name="Trazado 997324" d="M87.506,102.186H63.156a2.136,2.136,0,0,1-2.136-2.136V63.8a2.136,2.136,0,0,1,2.136-2.136h24.35A2.136,2.136,0,0,1,89.642,63.8v36.246A2.136,2.136,0,0,1,87.506,102.186Z" transform="translate(-48.518 -48.956)" fill="#fc5d3d"/>
        <path id="Trazado_997325" data-name="Trazado 997325" d="M107.459,65.406H95.068A1.068,1.068,0,0,1,94,64.337v-2.67h14.527v2.67A1.068,1.068,0,0,1,107.459,65.406Z" transform="translate(-74.453 -48.956)" fill="#f0c020"/>
        <path id="Trazado_997326" data-name="Trazado 997326" d="M99.57,90.623v28.111A1.068,1.068,0,0,1,98.5,119.8H79.421a1.068,1.068,0,0,1-1.068-1.068V90.623a1.068,1.068,0,0,1,1.068-1.068H98.5A1.068,1.068,0,0,1,99.57,90.623Z" transform="translate(-62.148 -70.886)" fill="#efefef"/>
        <path id="Trazado_997327" data-name="Trazado 997327" d="M220.17,155.575h-2.182a1.091,1.091,0,0,1,0-2.182h2.182a1.091,1.091,0,0,1,0,2.182Z" transform="translate(-171.095 -121.086)" fill="#72c2e9"/>
        <path id="Trazado_997328" data-name="Trazado 997328" d="M211.537,180.219l-1.543-1.543a1.091,1.091,0,0,1,1.543-1.543l1.543,1.543a1.091,1.091,0,1,1-1.543,1.543Z" transform="translate(-165.416 -139.504)" fill="#f0c020"/>
        <path id="Trazado_997329" data-name="Trazado 997329" d="M209.994,126.155a1.091,1.091,0,0,1,0-1.543l1.543-1.543a1.091,1.091,0,0,1,1.543,1.543l-1.543,1.543A1.091,1.091,0,0,1,209.994,126.155Z" transform="translate(-165.416 -96.99)" fill="#fc5d3d"/>
        <path id="Trazado_997330" data-name="Trazado 997330" d="M19.766,154.56h2.182a1.091,1.091,0,0,1,0,2.182H19.766a1.091,1.091,0,0,1,0-2.182Z" transform="translate(-15.22 -122.004)" fill="#72c2e9"/>
        <path id="Trazado_997331" data-name="Trazado 997331" d="M30.751,124.236l1.543,1.543a1.091,1.091,0,1,1-1.543,1.543l-1.543-1.543a1.091,1.091,0,0,1,1.543-1.543Z" transform="translate(-23.251 -97.907)" fill="#f0c020"/>
        <path id="Trazado_997332" data-name="Trazado 997332" d="M32.294,178.3a1.091,1.091,0,0,1,0,1.543l-1.543,1.543a1.091,1.091,0,1,1-1.543-1.543l1.543-1.543A1.091,1.091,0,0,1,32.294,178.3Z" transform="translate(-23.251 -140.421)" fill="#fc5d3d"/>
        <path id="Trazado_997333" data-name="Trazado 997333" d="M102.54,132.892l-3.307-3.307a1.448,1.448,0,1,1,2.047-2.047l2.284,2.284,5.636-5.636a1.448,1.448,0,0,1,2.047,2.047l-6.66,6.66A1.448,1.448,0,0,1,102.54,132.892Z" transform="translate(-78.234 -97.785)" fill="#72c2e9"/>
        <path id="Trazado_997334" data-name="Trazado 997334" d="M239.034,83.915a.534.534,0,0,1-.534-.534V82.74a.534.534,0,0,1,1.068,0v.641A.534.534,0,0,1,239.034,83.915Zm0-2.777a.534.534,0,0,1-.534-.534V51.261a.534.534,0,0,1,1.068,0V80.6A.534.534,0,0,1,239.034,81.137Z" transform="translate(-188.083 -40.353)" fill="#fff"/>
        <path id="Trazado_997335" data-name="Trazado 997335" d="M13.034,83.915a.534.534,0,0,1-.534-.534V54.038a.534.534,0,0,1,1.068,0V83.381A.534.534,0,0,1,13.034,83.915Zm0-31.479A.534.534,0,0,1,12.5,51.9v-.641a.534.534,0,1,1,1.068,0V51.9A.534.534,0,0,1,13.034,52.436Z" transform="translate(-10.364 -40.353)" fill="#fff"/>
        <path id="Trazado_997336" data-name="Trazado 997336" d="M5.17,47.865h9.3v5.4a2.673,2.673,0,0,0,2.67,2.67h.85a.534.534,0,1,0,0-1.068h-.855a1.6,1.6,0,0,1-1.6-1.6V17.014a1.6,1.6,0,0,1,1.6-1.6h4.375v2.136a1.6,1.6,0,0,0,1.6,1.6V20.3H19.773a1.6,1.6,0,0,0-1.6,1.6V50.015a1.6,1.6,0,0,0,1.6,1.6h19.08a1.6,1.6,0,0,0,1.6-1.6V21.9a1.6,1.6,0,0,0-1.6-1.6H35.506V19.15a1.6,1.6,0,0,0,1.6-1.6V15.412h4.379a1.6,1.6,0,0,1,1.6,1.6V53.26a1.6,1.6,0,0,1-1.6,1.6H22.261a.534.534,0,1,0,0,1.068H41.488a2.673,2.673,0,0,0,2.67-2.67v-5.4h9.293a2.628,2.628,0,0,0,2.67-2.575h0v-25.8a.534.534,0,0,0-1.068,0v25.8a1.559,1.559,0,0,1-1.6,1.508H44.158V17.014a2.673,2.673,0,0,0-2.67-2.67H17.138a2.673,2.673,0,0,0-2.67,2.67V46.8H5.17a1.559,1.559,0,0,1-1.6-1.508V11.473H55.053v3.739a.534.534,0,0,0,1.068,0V4.837a2.673,2.673,0,0,0-2.67-2.67H5.17A2.673,2.673,0,0,0,2.5,4.837V45.288a2.628,2.628,0,0,0,2.67,2.576ZM38.853,21.37a.535.535,0,0,1,.534.534V50.015a.535.535,0,0,1-.534.534H19.773a.535.535,0,0,1-.534-.534V21.9a.535.535,0,0,1,.534-.534h3.342v1.306a1.6,1.6,0,0,0,1.6,1.6H33.9a1.6,1.6,0,0,0,1.6-1.6V21.37Zm-14.669,0H34.438v1.306a.535.535,0,0,1-.534.534H24.718a.535.535,0,0,1-.534-.534ZM34.438,20.3H24.184V19.15H34.438Zm1.6-2.753a.535.535,0,0,1-.534.534H23.115a.535.535,0,0,1-.534-.534V15.412H36.04ZM5.17,3.235H53.451a1.6,1.6,0,0,1,1.6,1.6V10.4H3.568V4.837a1.6,1.6,0,0,1,1.6-1.6Z" transform="translate(-2.5 -2.167)"/>
        <circle id="Elipse_12220" data-name="Elipse 12220" cx="0.534" cy="0.534" r="0.534" transform="translate(52.553 14.647)"/>
        <path id="Trazado_997337" data-name="Trazado 997337" d="M19.664,18.93a1.872,1.872,0,1,0-1.872-1.872A1.874,1.874,0,0,0,19.664,18.93Zm0-2.675a.8.8,0,1,1-.8.8A.8.8,0,0,1,19.664,16.255Z" transform="translate(-14.525 -12.406)"/>
        <path id="Trazado_997338" data-name="Trazado 997338" d="M48.007,18.93a1.872,1.872,0,1,0-1.872-1.872A1.874,1.874,0,0,0,48.007,18.93Zm0-2.675a.8.8,0,1,1-.8.8A.8.8,0,0,1,48.007,16.255Z" transform="translate(-36.813 -12.406)"/>
        <path id="Trazado_997339" data-name="Trazado 997339" d="M76.35,18.93a1.872,1.872,0,1,0-1.872-1.872A1.874,1.874,0,0,0,76.35,18.93Zm0-2.675a.8.8,0,1,1-.8.8A.8.8,0,0,1,76.35,16.255Z" transform="translate(-59.101 -12.406)"/>
        <path id="Trazado_997340" data-name="Trazado 997340" d="M189.034,22.516h9.4a.534.534,0,0,0,0-1.068h-9.4a.534.534,0,0,0,0,1.068Z" transform="translate(-148.765 -17.329)"/>
        <circle id="Elipse_12221" data-name="Elipse 12221" cx="0.534" cy="0.534" r="0.534" transform="translate(17.09 52.695)"/>
        <path id="Trazado_997341" data-name="Trazado 997341" d="M219.829,152.518a1.627,1.627,0,0,0-1.625-1.625h-2.182a1.625,1.625,0,0,0,0,3.25H218.2A1.627,1.627,0,0,0,219.829,152.518Zm-4.364,0a.558.558,0,0,1,.557-.557H218.2a.557.557,0,1,1,0,1.114h-2.182A.558.558,0,0,1,215.465,152.518Z" transform="translate(-169.129 -119.12)"/>
        <path id="Trazado_997342" data-name="Trazado 997342" d="M211.49,178.634a1.627,1.627,0,0,0,0-2.3l-1.543-1.543a1.625,1.625,0,0,0-2.3,2.3l1.543,1.543A1.624,1.624,0,0,0,211.49,178.634Zm-3.086-2.3a.557.557,0,0,1,.788-.787l1.543,1.543a.557.557,0,0,1,0,.788.571.571,0,0,1-.788,0Z" transform="translate(-163.448 -137.541)"/>
        <path id="Trazado_997343" data-name="Trazado 997343" d="M209.947,124.566l1.543-1.543a1.625,1.625,0,0,0-2.3-2.3l-1.543,1.543a1.625,1.625,0,1,0,2.3,2.3Zm-1.543-1.543,1.543-1.543a.557.557,0,0,1,.788.788l-1.543,1.543a.557.557,0,1,1-.788-.788Z" transform="translate(-163.448 -95.023)"/>
        <path id="Trazado_997344" data-name="Trazado 997344" d="M21.607,153.685a1.627,1.627,0,0,0-1.625-1.625H17.8a1.625,1.625,0,0,0,0,3.25h2.182A1.627,1.627,0,0,0,21.607,153.685Zm-4.364,0a.557.557,0,0,1,.557-.557h2.182a.557.557,0,1,1,0,1.114H17.8A.558.558,0,0,1,17.243,153.685Z" transform="translate(-13.254 -120.038)"/>
        <path id="Trazado_997345" data-name="Trazado 997345" d="M30.7,123.434l-1.543-1.543a1.625,1.625,0,0,0-2.3,2.3l1.543,1.543a1.625,1.625,0,0,0,2.3-2.3Zm-.755,1.543a.558.558,0,0,1-.788,0l-1.543-1.543a.557.557,0,1,1,.787-.788l1.543,1.543A.558.558,0,0,1,29.949,124.977Z" transform="translate(-21.284 -95.94)"/>
        <path id="Trazado_997346" data-name="Trazado 997346" d="M29.163,179.8l1.543-1.543a1.625,1.625,0,1,0-2.3-2.3L26.865,177.5a1.625,1.625,0,1,0,2.3,2.3Zm-1.543-1.543,1.543-1.543a.557.557,0,0,1,.788.788l-1.543,1.543a.57.57,0,0,1-.787,0A.556.556,0,0,1,27.62,178.258Z" transform="translate(-21.285 -138.459)"/>
        <path id="Trazado_997347" data-name="Trazado 997347" d="M106.861,121.845,101.6,127.1,99.7,125.2a1.982,1.982,0,0,0-2.8,2.8l3.307,3.307a1.984,1.984,0,0,0,2.8,0l0,0,.617-.617a.534.534,0,0,0,0-.754.546.546,0,0,0-.756,0l-.615.615h0a.915.915,0,0,1-1.292,0l-3.307-3.307a.914.914,0,0,1,1.292-1.292l2.284,2.284a.534.534,0,0,0,.755,0l5.636-5.636a.914.914,0,0,1,1.292,1.292v0l-3.021,3.02a.534.534,0,1,0,.756.754l3.021-3.021,0,0a1.982,1.982,0,0,0-2.8-2.8Z" transform="translate(-76.272 -95.822)"/>
        <path id="Trazado_997348" data-name="Trazado 997348" d="M121.1,185.445h-9.149a.534.534,0,1,0,0,1.068H121.1a.534.534,0,0,0,0-1.068Z" transform="translate(-88.15 -146.291)"/>
        <path id="Trazado_997349" data-name="Trazado 997349" d="M97.533,185.445H96.415a.534.534,0,0,0,0,1.068h1.118a.534.534,0,1,0,0-1.068Z" transform="translate(-75.932 -146.291)"/>
        <path id="Trazado_997350" data-name="Trazado 997350" d="M121.1,200.739h-9.149a.534.534,0,1,0,0,1.068H121.1a.534.534,0,0,0,0-1.068Z" transform="translate(-88.15 -158.318)"/>
        <path id="Trazado_997351" data-name="Trazado 997351" d="M97.533,200.739H96.415a.534.534,0,0,0,0,1.068h1.118a.534.534,0,1,0,0-1.068Z" transform="translate(-75.932 -158.318)"/>
        <path id="Trazado_997352" data-name="Trazado 997352" d="M134.234,154.974a.534.534,0,0,0,0-.754.546.546,0,0,0-.756,0,.534.534,0,0,0,.756.754Z" transform="translate(-105.375 -121.617)"/>
      </g>
    </g>
  </g>
</svg>
