<svg xmlns="http://www.w3.org/2000/svg" xmlns:xlink="http://www.w3.org/1999/xlink" width="110" height="110" viewBox="0 0 110 110">
  <defs>
    <filter id="Trazado_982547" x="0" y="0" width="110" height="110" filterUnits="userSpaceOnUse">
      <feOffset dy="3" input="SourceAlpha"/>
      <feGaussianBlur stdDeviation="3" result="blur"/>
      <feFlood flood-opacity="0.161"/>
      <feComposite operator="in" in2="blur"/>
      <feComposite in="SourceGraphic"/>
    </filter>
  </defs>
  <g id="Grupo_1162965" data-name="Grupo 1162965" transform="translate(-800 -1419)">
    <g id="Grupo_1161779" data-name="Grupo 1161779" transform="translate(0 -2919)">
      <g id="Grupo_1157015" data-name="Grupo 1157015" transform="translate(0 3549)">
        <g id="Grupo_1155792" data-name="Grupo 1155792" transform="translate(-1 -3894.666)">
          <g id="Grupo_1154703" data-name="Grupo 1154703" transform="translate(0 1465.666)">
            <g id="Grupo_1150789" data-name="Grupo 1150789" transform="translate(3 2320)">
              <g id="Grupo_1154212" data-name="Grupo 1154212" transform="translate(-236 -5809)">
                <g id="Grupo_1152583" data-name="Grupo 1152583" transform="translate(1043 6713)">
                  <g id="Grupo_1146973" data-name="Grupo 1146973" transform="translate(0 0)">
                    <g id="Grupo_1146954" data-name="Grupo 1146954">
                      <g transform="matrix(1, 0, 0, 1, -9, -6)" filter="url(#Trazado_982547)">
                        <g id="Trazado_982547-2" data-name="Trazado 982547" transform="translate(9 6)" fill="#f0ebfe">
                          <path d="M 46 90.49987030029297 C 39.99187850952148 90.49987030029297 34.16426849365234 89.32350921630859 28.67905426025391 87.00345611572266 C 23.38019943237305 84.76224517822266 18.62104034423828 81.55341339111328 14.53374671936035 77.46613311767578 C 10.44646644592285 73.37885284423828 7.237639904022217 68.61969757080078 4.996413230895996 63.32085418701172 C 2.676359891891479 57.83565521240234 1.5 52.008056640625 1.5 45.99993515014648 C 1.5 39.99181365966797 2.676359891891479 34.16421508789062 4.996413230895996 28.67901420593262 C 7.237639904022217 23.38017463684082 10.44646644592285 18.62101554870605 14.53374671936035 14.53373527526855 C 18.62104034423828 10.44645500183105 23.38019943237305 7.23762845993042 28.67905426025391 4.996415138244629 C 34.16426849365234 2.676361799240112 39.99187850952148 1.500001788139343 46 1.500001788139343 C 52.00812149047852 1.500001788139343 57.83573150634766 2.676361799240112 63.32094573974609 4.996415138244629 C 68.61979675292969 7.23762845993042 73.37895965576172 10.44645500183105 77.46625518798828 14.53373527526855 C 81.55353546142578 18.62101554870605 84.76235961914062 23.38017463684082 87.00358581542969 28.67901420593262 C 89.32363891601562 34.16421508789062 90.5 39.99181365966797 90.5 45.99993515014648 C 90.5 52.008056640625 89.32363891601562 57.83565521240234 87.00358581542969 63.32085418701172 C 84.76235961914062 68.61969757080078 81.55353546142578 73.37885284423828 77.46625518798828 77.46613311767578 C 73.37895965576172 81.55341339111328 68.61979675292969 84.76224517822266 63.32094573974609 87.00345611572266 C 57.83573150634766 89.32350921630859 52.00812149047852 90.49987030029297 46 90.49987030029297 Z" stroke="none"/>
                          <path d="M 46 2.999992370605469 C 40.1937141418457 2.999992370605469 34.56269836425781 4.136489868164062 29.26337051391602 6.377906799316406 C 24.14332580566406 8.543502807617188 19.54441070556641 11.64437866210938 15.59439849853516 15.59437561035156 C 11.64440155029297 19.54439544677734 8.54351806640625 24.14329528808594 6.377914428710938 29.26333618164062 C 4.136497497558594 34.56264877319336 3 40.19366455078125 3 45.99993515014648 C 3 51.80620574951172 4.136497497558594 57.43720626831055 6.377914428710938 62.73651885986328 C 8.54351806640625 67.8565673828125 11.64440155029297 72.45545959472656 15.59439849853516 76.40547943115234 C 19.54441070556641 80.35547637939453 24.14332580566406 83.45635223388672 29.26337051391602 85.6219482421875 C 34.56269836425781 87.86336517333984 40.1937141418457 88.99986267089844 46 88.99986267089844 C 51.8062858581543 88.99986267089844 57.43730163574219 87.86336517333984 62.73661422729492 85.6219482421875 C 67.85667419433594 83.45635223388672 72.45557403564453 80.35547637939453 76.40558624267578 76.40547943115234 C 80.35559844970703 72.45545959472656 83.45647430419922 67.8565673828125 85.6220703125 62.73651885986328 C 87.86350250244141 57.43720626831055 89 51.80620574951172 89 45.99993515014648 C 89 40.19366455078125 87.86350250244141 34.56264877319336 85.6220703125 29.26333618164062 C 83.45647430419922 24.14329528808594 80.35559844970703 19.54439544677734 76.40558624267578 15.59437561035156 C 72.45557403564453 11.64437866210938 67.85667419433594 8.543502807617188 62.73661422729492 6.377906799316406 C 57.43730163574219 4.136489868164062 51.8062858581543 2.999992370605469 46 2.999992370605469 M 46 -7.62939453125e-06 C 71.40509033203125 -7.62939453125e-06 92 20.59486389160156 92 45.99993515014648 C 92 71.40499114990234 71.40509033203125 91.99986267089844 46 91.99986267089844 C 20.59490203857422 91.99986267089844 0 71.40499114990234 0 45.99993515014648 C 0 20.59486389160156 20.59490203857422 -7.62939453125e-06 46 -7.62939453125e-06 Z" stroke="none" fill="#7145fe"/>
                        </g>
                      </g>
                    </g>
                  </g>
                </g>
              </g>
            </g>
          </g>
        </g>
      </g>
    </g>
    <g id="aprobar" transform="translate(825 1441)">
      <circle id="Elipse_12222" data-name="Elipse 12222" cx="11" cy="11" r="11" transform="translate(36 2.35)" fill="#669e54"/>
      <path id="Trazado_997353" data-name="Trazado 997353" d="M38,13.294a11.244,11.244,0,0,0,2.772,7.4,15.763,15.763,0,0,0,1.934.133c7.8,0,14.117-5.688,14.117-12.705A11.542,11.542,0,0,0,56.2,4.369,11.281,11.281,0,0,0,38,13.294Z" transform="translate(-2.178 -0.059)" fill="#85b176"/>
      <path id="Trazado_997354" data-name="Trazado 997354" d="M34,45.47H47.174V37H10.47A8.47,8.47,0,0,0,2,45.47V60.528H34Z" transform="translate(-0.059 -2.119)" fill="#c7e2fb"/>
      <path id="Trazado_997355" data-name="Trazado 997355" d="M10.47,37A8.47,8.47,0,0,0,2,45.47V56.512a36.926,36.926,0,0,0,4.235.251c14.4,0,26.6-8.29,30.854-19.764Z" transform="translate(-0.059 -2.119)" fill="#ebf7fe"/>
      <path id="Trazado_997356" data-name="Trazado 997356" d="M21.47,42.647,16.765,37H13l2.823,8.47Z" transform="translate(-0.706 -2.119)" fill="#4472b0"/>
      <path id="Trazado_997357" data-name="Trazado 997357" d="M22,42.647,26.706,37H30.47l-2.823,8.47Z" transform="translate(-1.236 -2.119)" fill="#4472b0"/>
      <g id="Grupo_1162962" data-name="Grupo 1162962" transform="translate(18.129 40.527)">
        <path id="Trazado_997358" data-name="Trazado 997358" d="M21.835,43,19.2,44.318l1.694,3.388h1.882l1.694-3.388Z" transform="translate(-19.2 -43)" fill="#2d4d81"/>
      </g>
      <path id="Trazado_997359" data-name="Trazado 997359" d="M24.647,61.176,22.765,48H20.882L19,61.176Z" transform="translate(-1.06 -2.767)" fill="#4472b0"/>
      <path id="Trazado_997360" data-name="Trazado 997360" d="M29.94,19.765v5.647a8.47,8.47,0,1,1-16.94,0V19.765h5.647a5.646,5.646,0,0,0,4.517-2.259L24.294,16l1.129,1.506A5.646,5.646,0,0,0,29.94,19.765Z" transform="translate(-0.706 -0.883)" fill="#efbe9c"/>
      <path id="Trazado_997361" data-name="Trazado 997361" d="M12.765,25.706V21h-.941a2.823,2.823,0,1,0,0,5.647h1A8.409,8.409,0,0,1,12.765,25.706Z" transform="translate(-0.471 -1.177)" fill="#efbe9c"/>
      <path id="Trazado_997362" data-name="Trazado 997362" d="M21.294,6A11.294,11.294,0,0,0,10,17.294V20.85a2.8,2.8,0,0,1,1.882-.733h.941v-.941H18.47a5.646,5.646,0,0,0,4.517-2.259l1.129-1.506,1.129,1.506a5.646,5.646,0,0,0,4.517,2.259v.941H30.7a2.8,2.8,0,0,1,1.882.733V17.294A11.294,11.294,0,0,0,21.294,6Z" transform="translate(-0.53 -0.294)" fill="#976949"/>
      <g id="Grupo_1162963" data-name="Grupo 1162963" transform="translate(16.058 19.823)">
        <path id="Trazado_997363" data-name="Trazado 997363" d="M31.938,21H31v4.706a8.409,8.409,0,0,1-.056.941h1a2.823,2.823,0,0,0,0-5.647Z" transform="translate(-17.821 -21)" fill="#efbe9c"/>
        <path id="Trazado_997364" data-name="Trazado 997364" d="M21.706,34.911A8.425,8.425,0,0,1,17,33.482v3.311l4.706,5.647,4.706-5.647V33.482A8.425,8.425,0,0,1,21.706,34.911Z" transform="translate(-17 -21.735)" fill="#efbe9c"/>
        <path id="Trazado_997365" data-name="Trazado 997365" d="M50,45.294V35.882a1.882,1.882,0,1,1,3.765,0v2.823h1.412a3.294,3.294,0,1,1,0,6.588Z" transform="translate(-18.943 -21.765)" fill="#efbe9c"/>
      </g>
      <g id="Grupo_1162964" data-name="Grupo 1162964" transform="translate(1 1)">
        <path id="Trazado_997366" data-name="Trazado 997366" d="M52.291,36.057h-.471V34.175a2.823,2.823,0,1,0-5.647,0H26.41V32.293h-.024a9.416,9.416,0,0,0,3.6-5.647h.19a3.768,3.768,0,0,0,3.765-3.765A3.729,3.729,0,0,0,33,20.418V17.235a12.235,12.235,0,1,0-24.469,0v3.183a3.729,3.729,0,0,0-.941,2.464,3.768,3.768,0,0,0,3.765,3.765h.19a9.416,9.416,0,0,0,3.6,5.647h-.024v1.882H10.411A9.422,9.422,0,0,0,1,43.586V58.644a.94.94,0,0,0,.941.941h32a.94.94,0,0,0,.941-.941V44.527H52.291a4.235,4.235,0,1,0,0-8.47Zm-36.675,0,3.663,4.4-3.613,1.806-2.068-6.2ZM20.639,46.41h.249L22.5,57.7H19.026Zm.484-1.882H20.4L19.391,42.5l1.372-.686,1.372.686Zm1.125-4.075,3.663-4.4h2.018l-2.068,6.2Zm7.927-15.689V21a1.882,1.882,0,1,1,0,3.765ZM9.47,22.881A1.884,1.884,0,0,1,11.352,21v3.765A1.884,1.884,0,0,1,9.47,22.881Zm1.882-3.765a3.707,3.707,0,0,0-.941.134V17.235a10.352,10.352,0,1,1,20.7,0v2.016a3.707,3.707,0,0,0-.941-.134.94.94,0,0,0-.941-.941,4.727,4.727,0,0,1-3.765-1.883L24.34,14.787a.977.977,0,0,0-1.506,0L21.7,16.294a4.729,4.729,0,0,1-3.765,1.882H12.294A.94.94,0,0,0,11.352,19.117Zm1.882,5.647V20.058H17.94a6.621,6.621,0,0,0,5.27-2.635l.376-.5.376.5a6.623,6.623,0,0,0,4.329,2.567v4.774a7.529,7.529,0,0,1-15.058,0Zm7.529,9.411a9.345,9.345,0,0,0,3.765-.791v1.392l-3.765,4.517L17,34.775V33.383A9.345,9.345,0,0,0,20.764,34.175ZM2.882,43.586a7.538,7.538,0,0,1,7.529-7.529h1.2l2.609,7.826a.942.942,0,0,0,.532.571.924.924,0,0,0,.36.072.943.943,0,0,0,.421-.1l2.169-1.085,1.142,2.283L17.123,57.7H8.529V44.527H6.647V57.7H2.882Zm43.292-.941H34.881V39.822H33V57.7H24.4L22.679,45.627l1.142-2.283,2.169,1.085a.941.941,0,0,0,1.313-.544l2.609-7.827H46.174v6.588Zm6.117,0H48.056v-8.47a.941.941,0,1,1,1.882,0V37a.94.94,0,0,0,.941.941h1.412a2.353,2.353,0,0,1,0,4.706Z" transform="translate(-1 -1.235)"/>
        <path id="Trazado_997367" data-name="Trazado 997367" d="M49.235,25.469A12.235,12.235,0,1,0,37,13.235,12.249,12.249,0,0,0,49.235,25.469Zm0-22.587A10.352,10.352,0,1,1,38.882,13.235,10.365,10.365,0,0,1,49.235,2.882Z" transform="translate(-3.119 -1)"/>
        <path id="Trazado_997368" data-name="Trazado 997368" d="M47.723,18.429a.939.939,0,0,0,.665-.276l7.529-7.529L54.587,9.293l-6.864,6.864-3.1-3.1-1.331,1.331,3.765,3.765a.939.939,0,0,0,.665.276Z" transform="translate(-3.49 -1.488)"/>
      </g>
    </g>
  </g>
</svg>
