<svg xmlns="http://www.w3.org/2000/svg" xmlns:xlink="http://www.w3.org/1999/xlink" width="110" height="110" viewBox="0 0 110 110">
  <defs>
    <filter id="Trazado_982547" x="0" y="0" width="110" height="110" filterUnits="userSpaceOnUse">
      <feOffset dy="3" input="SourceAlpha"/>
      <feGaussianBlur stdDeviation="3" result="blur"/>
      <feFlood flood-opacity="0.161"/>
      <feComposite operator="in" in2="blur"/>
      <feComposite in="SourceGraphic"/>
    </filter>
  </defs>
  <g id="Grupo_1164148" data-name="Grupo 1164148" transform="translate(-1113 -2521)">
    <g id="Grupo_1163797" data-name="Grupo 1163797" transform="translate(0.182 -8103)">
      <g id="Grupo_1162275" data-name="Grupo 1162275" transform="translate(312.818 6286)">
        <g id="Grupo_1157015" data-name="Grupo 1157015" transform="translate(0 3549)">
          <g id="Grupo_1155792" data-name="Grupo 1155792" transform="translate(-1 -3894.666)">
            <g id="Grupo_1154703" data-name="Grupo 1154703" transform="translate(0 1465.666)">
              <g id="Grupo_1150789" data-name="Grupo 1150789" transform="translate(3 2320)">
                <g id="Grupo_1154212" data-name="Grupo 1154212" transform="translate(-236 -5809)">
                  <g id="Grupo_1152583" data-name="Grupo 1152583" transform="translate(1043 6713)">
                    <g id="Grupo_1146973" data-name="Grupo 1146973" transform="translate(0 0)">
                      <g id="Grupo_1146954" data-name="Grupo 1146954">
                        <g transform="matrix(1, 0, 0, 1, -9, -6)" filter="url(#Trazado_982547)">
                          <g id="Trazado_982547-2" data-name="Trazado 982547" transform="translate(9 6)" fill="#f0ebfe">
                            <path d="M 46 90.49987030029297 C 39.99187850952148 90.49987030029297 34.16426849365234 89.32350921630859 28.67905426025391 87.00345611572266 C 23.38019943237305 84.76224517822266 18.62104034423828 81.55341339111328 14.53374671936035 77.46613311767578 C 10.44646644592285 73.37885284423828 7.237639904022217 68.61969757080078 4.996413230895996 63.32085418701172 C 2.676359891891479 57.83565521240234 1.5 52.008056640625 1.5 45.99993515014648 C 1.5 39.99181365966797 2.676359891891479 34.16421508789062 4.996413230895996 28.67901420593262 C 7.237639904022217 23.38017463684082 10.44646644592285 18.62101554870605 14.53374671936035 14.53373527526855 C 18.62104034423828 10.44645500183105 23.38019943237305 7.23762845993042 28.67905426025391 4.996415138244629 C 34.16426849365234 2.676361799240112 39.99187850952148 1.500001788139343 46 1.500001788139343 C 52.00812149047852 1.500001788139343 57.83573150634766 2.676361799240112 63.32094573974609 4.996415138244629 C 68.61979675292969 7.23762845993042 73.37895965576172 10.44645500183105 77.46625518798828 14.53373527526855 C 81.55353546142578 18.62101554870605 84.76235961914062 23.38017463684082 87.00358581542969 28.67901420593262 C 89.32363891601562 34.16421508789062 90.5 39.99181365966797 90.5 45.99993515014648 C 90.5 52.008056640625 89.32363891601562 57.83565521240234 87.00358581542969 63.32085418701172 C 84.76235961914062 68.61969757080078 81.55353546142578 73.37885284423828 77.46625518798828 77.46613311767578 C 73.37895965576172 81.55341339111328 68.61979675292969 84.76224517822266 63.32094573974609 87.00345611572266 C 57.83573150634766 89.32350921630859 52.00812149047852 90.49987030029297 46 90.49987030029297 Z" stroke="none"/>
                            <path d="M 46 2.999992370605469 C 40.1937141418457 2.999992370605469 34.56269836425781 4.136489868164062 29.26337051391602 6.377906799316406 C 24.14332580566406 8.543502807617188 19.54441070556641 11.64437866210938 15.59439849853516 15.59437561035156 C 11.64440155029297 19.54439544677734 8.54351806640625 24.14329528808594 6.377914428710938 29.26333618164062 C 4.136497497558594 34.56264877319336 3 40.19366455078125 3 45.99993515014648 C 3 51.80620574951172 4.136497497558594 57.43720626831055 6.377914428710938 62.73651885986328 C 8.54351806640625 67.8565673828125 11.64440155029297 72.45545959472656 15.59439849853516 76.40547943115234 C 19.54441070556641 80.35547637939453 24.14332580566406 83.45635223388672 29.26337051391602 85.6219482421875 C 34.56269836425781 87.86336517333984 40.1937141418457 88.99986267089844 46 88.99986267089844 C 51.8062858581543 88.99986267089844 57.43730163574219 87.86336517333984 62.73661422729492 85.6219482421875 C 67.85667419433594 83.45635223388672 72.45557403564453 80.35547637939453 76.40558624267578 76.40547943115234 C 80.35559844970703 72.45545959472656 83.45647430419922 67.8565673828125 85.6220703125 62.73651885986328 C 87.86350250244141 57.43720626831055 89 51.80620574951172 89 45.99993515014648 C 89 40.19366455078125 87.86350250244141 34.56264877319336 85.6220703125 29.26333618164062 C 83.45647430419922 24.14329528808594 80.35559844970703 19.54439544677734 76.40558624267578 15.59437561035156 C 72.45557403564453 11.64437866210938 67.85667419433594 8.543502807617188 62.73661422729492 6.377906799316406 C 57.43730163574219 4.136489868164062 51.8062858581543 2.999992370605469 46 2.999992370605469 M 46 -7.62939453125e-06 C 71.40509033203125 -7.62939453125e-06 92 20.59486389160156 92 45.99993515014648 C 92 71.40499114990234 71.40509033203125 91.99986267089844 46 91.99986267089844 C 20.59490203857422 91.99986267089844 0 71.40499114990234 0 45.99993515014648 C 0 20.59486389160156 20.59490203857422 -7.62939453125e-06 46 -7.62939453125e-06 Z" stroke="none" fill="#7145fe"/>
                          </g>
                        </g>
                      </g>
                    </g>
                  </g>
                </g>
              </g>
            </g>
          </g>
        </g>
      </g>
    </g>
    <g id="actitud" transform="translate(1132 2537.007)">
      <path id="Trazado_999231" data-name="Trazado 999231" d="M181.51,89.131a8.314,8.314,0,1,0,8.316-8.316A8.316,8.316,0,0,0,181.51,89.131Z" transform="translate(-153.88 -64.583)" fill="#efc7a4" fill-rule="evenodd"/>
      <path id="Trazado_999232" data-name="Trazado 999232" d="M131.993,288.132c0,9.935-35.977,9.935-35.977,0a17.988,17.988,0,1,1,35.977,0Z" transform="translate(-78.058 -232.492)" fill="#66d4f1" fill-rule="evenodd"/>
      <path id="Trazado_999233" data-name="Trazado 999233" d="M377.6,29.075a7.041,7.041,0,1,0-7.039-7.043A7.054,7.054,0,0,0,377.6,29.075Z" transform="translate(-321.539 -6.208)" fill="#c6ea94" fill-rule="evenodd"/>
      <path id="Trazado_999234" data-name="Trazado 999234" d="M22.043,29.075A7.041,7.041,0,1,0,15,22.033,7.054,7.054,0,0,0,22.043,29.075Z" transform="translate(-6.208 -6.208)" fill="#f76c82" fill-rule="evenodd"/>
      <path id="Trazado_999235" data-name="Trazado 999235" d="M26.838,24.548a9.106,9.106,0,1,1,9.108,9.1A9.108,9.108,0,0,1,26.838,24.548Zm1.584,0a7.522,7.522,0,1,0,7.524-7.524A7.524,7.524,0,0,0,28.422,24.548Zm26.3,31.093c0,2.255-1.556,4.119-4.169,5.472-3.543,1.835-9.075,2.771-14.611,2.771s-11.068-.937-14.611-2.771c-2.613-1.353-4.169-3.217-4.169-5.472a18.78,18.78,0,1,1,37.561,0Zm-1.584,0a17.2,17.2,0,1,0-34.393,0c0,1.719,1.321,3.034,3.314,4.066,3.365,1.742,8.625,2.594,13.883,2.594s10.518-.852,13.883-2.594C51.821,58.674,53.143,57.36,53.143,55.64Zm2.915-31.981a7.833,7.833,0,1,1,7.831-7.835A7.847,7.847,0,0,1,56.058,23.659Zm0-1.584a6.249,6.249,0,1,0-6.247-6.251A6.26,6.26,0,0,0,56.058,22.075Zm-.792-5.459H51.86a.792.792,0,0,1,0-1.584h3.406V11.626a.792.792,0,0,1,1.584,0v3.406h3.406a.792.792,0,1,1,0,1.584H56.85v3.409a.792.792,0,1,1-1.584,0ZM15.835,23.659a7.833,7.833,0,1,1,7.831-7.835A7.848,7.848,0,0,1,15.835,23.659Zm0-1.584a6.249,6.249,0,1,0-6.251-6.251A6.26,6.26,0,0,0,15.835,22.075Zm-4.2-5.459a.792.792,0,0,1,0-1.584h8.4a.792.792,0,0,1,0,1.584Zm3.409,9.645a.792.792,0,0,1,1.584,0V29.9h8.43a.792.792,0,1,1,0,1.584H15.835a.792.792,0,0,1-.792-.792Zm40.223,0a.792.792,0,0,1,1.584,0v4.432a.792.792,0,0,1-.792.792H46.835a.792.792,0,1,1,0-1.584h8.43Z" fill-rule="evenodd"/>
    </g>
  </g>
</svg>
