<svg xmlns="http://www.w3.org/2000/svg" xmlns:xlink="http://www.w3.org/1999/xlink" width="110" height="110" viewBox="0 0 110 110">
  <defs>
    <filter id="Trazado_982547" x="0" y="0" width="110" height="110" filterUnits="userSpaceOnUse">
      <feOffset dy="3" input="SourceAlpha"/>
      <feGaussianBlur stdDeviation="3" result="blur"/>
      <feFlood flood-opacity="0.161"/>
      <feComposite operator="in" in2="blur"/>
      <feComposite in="SourceGraphic"/>
    </filter>
  </defs>
  <g id="Grupo_1162979" data-name="Grupo 1162979" transform="translate(-1112.818 -1419.273)">
    <g id="Grupo_1161780" data-name="Grupo 1161780" transform="translate(312.818 -2918.727)">
      <g id="Grupo_1157015" data-name="Grupo 1157015" transform="translate(0 3549)">
        <g id="Grupo_1155792" data-name="Grupo 1155792" transform="translate(-1 -3894.666)">
          <g id="Grupo_1154703" data-name="Grupo 1154703" transform="translate(0 1465.666)">
            <g id="Grupo_1150789" data-name="Grupo 1150789" transform="translate(3 2320)">
              <g id="Grupo_1154212" data-name="Grupo 1154212" transform="translate(-236 -5809)">
                <g id="Grupo_1152583" data-name="Grupo 1152583" transform="translate(1043 6713)">
                  <g id="Grupo_1146973" data-name="Grupo 1146973" transform="translate(0 0)">
                    <g id="Grupo_1146954" data-name="Grupo 1146954">
                      <g transform="matrix(1, 0, 0, 1, -9, -6)" filter="url(#Trazado_982547)">
                        <g id="Trazado_982547-2" data-name="Trazado 982547" transform="translate(9 6)" fill="#f0ebfe">
                          <path d="M 46 90.49987030029297 C 39.99187850952148 90.49987030029297 34.16426849365234 89.32350921630859 28.67905426025391 87.00345611572266 C 23.38019943237305 84.76224517822266 18.62104034423828 81.55341339111328 14.53374671936035 77.46613311767578 C 10.44646644592285 73.37885284423828 7.237639904022217 68.61969757080078 4.996413230895996 63.32085418701172 C 2.676359891891479 57.83565521240234 1.5 52.008056640625 1.5 45.99993515014648 C 1.5 39.99181365966797 2.676359891891479 34.16421508789062 4.996413230895996 28.67901420593262 C 7.237639904022217 23.38017463684082 10.44646644592285 18.62101554870605 14.53374671936035 14.53373527526855 C 18.62104034423828 10.44645500183105 23.38019943237305 7.23762845993042 28.67905426025391 4.996415138244629 C 34.16426849365234 2.676361799240112 39.99187850952148 1.500001788139343 46 1.500001788139343 C 52.00812149047852 1.500001788139343 57.83573150634766 2.676361799240112 63.32094573974609 4.996415138244629 C 68.61979675292969 7.23762845993042 73.37895965576172 10.44645500183105 77.46625518798828 14.53373527526855 C 81.55353546142578 18.62101554870605 84.76235961914062 23.38017463684082 87.00358581542969 28.67901420593262 C 89.32363891601562 34.16421508789062 90.5 39.99181365966797 90.5 45.99993515014648 C 90.5 52.008056640625 89.32363891601562 57.83565521240234 87.00358581542969 63.32085418701172 C 84.76235961914062 68.61969757080078 81.55353546142578 73.37885284423828 77.46625518798828 77.46613311767578 C 73.37895965576172 81.55341339111328 68.61979675292969 84.76224517822266 63.32094573974609 87.00345611572266 C 57.83573150634766 89.32350921630859 52.00812149047852 90.49987030029297 46 90.49987030029297 Z" stroke="none"/>
                          <path d="M 46 2.999992370605469 C 40.1937141418457 2.999992370605469 34.56269836425781 4.136489868164062 29.26337051391602 6.377906799316406 C 24.14332580566406 8.543502807617188 19.54441070556641 11.64437866210938 15.59439849853516 15.59437561035156 C 11.64440155029297 19.54439544677734 8.54351806640625 24.14329528808594 6.377914428710938 29.26333618164062 C 4.136497497558594 34.56264877319336 3 40.19366455078125 3 45.99993515014648 C 3 51.80620574951172 4.136497497558594 57.43720626831055 6.377914428710938 62.73651885986328 C 8.54351806640625 67.8565673828125 11.64440155029297 72.45545959472656 15.59439849853516 76.40547943115234 C 19.54441070556641 80.35547637939453 24.14332580566406 83.45635223388672 29.26337051391602 85.6219482421875 C 34.56269836425781 87.86336517333984 40.1937141418457 88.99986267089844 46 88.99986267089844 C 51.8062858581543 88.99986267089844 57.43730163574219 87.86336517333984 62.73661422729492 85.6219482421875 C 67.85667419433594 83.45635223388672 72.45557403564453 80.35547637939453 76.40558624267578 76.40547943115234 C 80.35559844970703 72.45545959472656 83.45647430419922 67.8565673828125 85.6220703125 62.73651885986328 C 87.86350250244141 57.43720626831055 89 51.80620574951172 89 45.99993515014648 C 89 40.19366455078125 87.86350250244141 34.56264877319336 85.6220703125 29.26333618164062 C 83.45647430419922 24.14329528808594 80.35559844970703 19.54439544677734 76.40558624267578 15.59437561035156 C 72.45557403564453 11.64437866210938 67.85667419433594 8.543502807617188 62.73661422729492 6.377906799316406 C 57.43730163574219 4.136489868164062 51.8062858581543 2.999992370605469 46 2.999992370605469 M 46 -7.62939453125e-06 C 71.40509033203125 -7.62939453125e-06 92 20.59486389160156 92 45.99993515014648 C 92 71.40499114990234 71.40509033203125 91.99986267089844 46 91.99986267089844 C 20.59490203857422 91.99986267089844 0 71.40499114990234 0 45.99993515014648 C 0 20.59486389160156 20.59490203857422 -7.62939453125e-06 46 -7.62939453125e-06 Z" stroke="none" fill="#7145fe"/>
                        </g>
                      </g>
                    </g>
                  </g>
                </g>
              </g>
            </g>
          </g>
        </g>
      </g>
    </g>
    <g id="leer" transform="translate(1074.25 1436.671)">
      <g id="Grupo_1162977" data-name="Grupo 1162977" transform="translate(68.827 1.014)">
        <g id="Grupo_1162976" data-name="Grupo 1162976">
          <g id="Grupo_1162972" data-name="Grupo 1162972" transform="translate(3.828)">
            <path id="Trazado_997369" data-name="Trazado 997369" d="M213.866,174.127a11.108,11.108,0,0,0,6.241-2.349,1.071,1.071,0,0,0-.221-1.862l-.008,0a3.758,3.758,0,0,1-2.236-3.435v-5.611H209v5.611a3.759,3.759,0,0,1-1.786,3.2l-.026.016a1.069,1.069,0,0,0-.1,1.785A11.6,11.6,0,0,0,213.866,174.127Z" transform="translate(-192.73 -140.136)" fill="#ffddce"/>
            <g id="Grupo_1162971" data-name="Grupo 1162971">
              <g id="Grupo_1162970" data-name="Grupo 1162970">
                <g id="Grupo_1162969" data-name="Grupo 1162969">
                  <g id="Grupo_1162966" data-name="Grupo 1162966" transform="translate(9.298 2.219)">
                    <path id="Trazado_997370" data-name="Trazado 997370" d="M195.009,34.858a1.6,1.6,0,0,0-1.594-1.6l-.6,0-.01-2.41c-.021-5.049-4.187-6.9-8.807-6.937-4.6.072-8.756,1.944-8.735,7.012l.007,1.7,0,.711h-.567a2.283,2.283,0,0,0-2.282,2.284v2.07a2.283,2.283,0,0,0,2.284,2.281h.586a8.3,8.3,0,0,0,2.792,6.089,8.9,8.9,0,0,0,12-.051,8.3,8.3,0,0,0,2.741-6.112l.6,0a1.6,1.6,0,0,0,1.581-1.613Z" transform="translate(-172.427 -23.914)" fill="#ffece4"/>
                  </g>
                  <path id="Trazado_997371" data-name="Trazado 997371" d="M133.12,226.839c-.237-.046-.85-.168-1.552-.31a3.7,3.7,0,0,1-.783-.252,9.306,9.306,0,0,1-12.449-.043c-.073-.063-.142-.129-.212-.194a3.744,3.744,0,0,1-1.233.489c-.7.142-1.316.264-1.552.31a14.429,14.429,0,0,0-11.7,14.169v7.023a2.947,2.947,0,0,0,2.947,2.947h35.291a2.947,2.947,0,0,0,2.947-2.947v-7.023A14.429,14.429,0,0,0,133.12,226.839Z" transform="translate(-103.636 -196.501)" fill="#88a8d8"/>
                  <g id="Grupo_1162967" data-name="Grupo 1162967" transform="translate(24.236 29.776)">
                    <path id="Trazado_997372" data-name="Trazado 997372" d="M288.189,228.355c-.237-.046-.85-.168-1.552-.31a3.71,3.71,0,0,1-.783-.252,9.948,9.948,0,0,1-2.913,1.749,14.432,14.432,0,0,1,8.127,12.981v7.023a2.947,2.947,0,0,1-2.947,2.947h8.823a2.947,2.947,0,0,0,2.947-2.947v-7.023A14.429,14.429,0,0,0,288.189,228.355Z" transform="translate(-282.941 -227.794)" fill="#7296d1"/>
                  </g>
                  <path id="Trazado_997373" data-name="Trazado 997373" d="M127.672,253.481c-5.481-3.709-13.779-3.938-17.144-3.859a1.531,1.531,0,0,0-1.5,1.531v22.1a1.529,1.529,0,0,0,1.567,1.531c3.226-.069,10.762.152,16.174,3.3a4.218,4.218,0,0,0,4.245,0c7.06-4.1,17.734-3.23,17.741-3.228v-23.7a1.531,1.531,0,0,0-1.5-1.531c-3.364-.078-11.662.15-17.144,3.859A2.182,2.182,0,0,1,127.672,253.481Z" transform="translate(-108.304 -216.885)" fill="#f7f4f7"/>
                  <g id="Grupo_1162968" data-name="Grupo 1162968" transform="translate(30.296 32.725)">
                    <path id="Trazado_997374" data-name="Trazado 997374" d="M336.439,249.621a43.348,43.348,0,0,0-8.665.665,1.531,1.531,0,0,1,1.337,1.519V275.23a43.06,43.06,0,0,1,8.823-.372v-23.7a1.531,1.531,0,0,0-1.5-1.532Z" transform="translate(-327.774 -249.61)" fill="#edeaed"/>
                  </g>
                  <path id="Trazado_997375" data-name="Trazado 997375" d="M196.028,9.615A2.149,2.149,0,0,0,193.879,7.5h-9.531a6.92,6.92,0,0,0-6.92,6.92v4.573a1.578,1.578,0,0,0,1.06,1.491l1.7.594a.916.916,0,0,0,1.217-.866l0-3.225c0-.052,0-.1,0-.154a2.21,2.21,0,0,1,3.865-1.31c1.572,1.757,4.8,4.434,9.235,3.363a1.108,1.108,0,0,1,1.257.576h0a2.051,2.051,0,0,0,2.509,1.021,1.579,1.579,0,0,0,1.059-1.491V12.957a2.111,2.111,0,0,0-2.077-2.111,1.251,1.251,0,0,1-1.23-1.231Z" transform="translate(-167.454 -7.5)" fill="#89808c"/>
                  <path id="Trazado_997376" data-name="Trazado 997376" d="M248.194,35.17a1.6,1.6,0,0,0-1.594-1.6l-.6,0-.01-2.41c-.019-4.625-3.517-6.569-7.655-6.888a5.431,5.431,0,0,1,1.031,3.188l0,12.746a8.3,8.3,0,0,1-2.741,6.112,9.59,9.59,0,0,1-2.706,1.69,8.994,8.994,0,0,0,3.363.663,9.134,9.134,0,0,0,5.992-2.353,8.3,8.3,0,0,0,2.741-6.112l.6,0a1.6,1.6,0,0,0,1.581-1.613Z" transform="translate(-216.314 -22.007)" fill="#ffddce"/>
                  <path id="Trazado_997377" data-name="Trazado 997377" d="M241.534,10.846a1.251,1.251,0,0,1-1.23-1.231A2.149,2.149,0,0,0,238.155,7.5h-8.83a5.457,5.457,0,0,1,5.457,5.455l0,5.927a8.236,8.236,0,0,0,4,0,1.108,1.108,0,0,1,1.257.576h0a2.051,2.051,0,0,0,2.509,1.021,1.579,1.579,0,0,0,1.059-1.491V12.957A2.111,2.111,0,0,0,241.534,10.846Z" transform="translate(-211.73 -7.5)" fill="#756e78"/>
                </g>
              </g>
            </g>
          </g>
          <g id="Grupo_1162975" data-name="Grupo 1162975" transform="translate(3.233 36.193)">
            <g id="Grupo_1162973" data-name="Grupo 1162973" transform="translate(0 0)">
              <path id="Trazado_997378" data-name="Trazado 997378" d="M288.326,275.28c-3.451-.08-11.768.144-17.6,3.681v26.828q.138-.068.272-.146c6.05-3.517,14.587-3.607,17.715-3.505a1.172,1.172,0,0,0,1.209-1.172V276.914A1.633,1.633,0,0,0,288.326,275.28Z" transform="translate(-247.545 -275.268)" fill="#ecbe6b"/>
              <path id="Trazado_997379" data-name="Trazado 997379" d="M118.426,278.961c-5.833-3.537-14.15-3.761-17.6-3.681a1.633,1.633,0,0,0-1.6,1.634v24.052a1.172,1.172,0,0,0,1.209,1.172c3.128-.1,11.665-.012,17.715,3.505q.134.078.272.146Z" transform="translate(-99.23 -275.268)" fill="#ecbe6b"/>
            </g>
            <g id="Grupo_1162974" data-name="Grupo 1162974" transform="translate(31.514)">
              <path id="Trazado_997380" data-name="Trazado 997380" d="M341.649,275.28a46.194,46.194,0,0,0-9.267.713l.429.008a1.633,1.633,0,0,1,1.6,1.634v24.052a1.17,1.17,0,0,1-.406.886,47.407,47.407,0,0,1,8.035-.434,1.172,1.172,0,0,0,1.209-1.172V276.913A1.633,1.633,0,0,0,341.649,275.28Z" transform="translate(-332.382 -275.268)" fill="#e8ae4d"/>
            </g>
            <path id="Trazado_997381" data-name="Trazado 997381" d="M239.661,301.636q-.293-.186-.595-.36v26.847l.024.013a4.5,4.5,0,0,0,4.528,0l.023-.013V301.276q-.3.175-.595.36A3.149,3.149,0,0,1,239.661,301.636Z" transform="translate(-220.165 -297.761)" fill="#e49542"/>
          </g>
          <path id="Trazado_997382" data-name="Trazado 997382" d="M76.784,347.649l1.76-1.078v1.719a1.279,1.279,0,0,0,1.279,1.279h.84a2.312,2.312,0,0,1,2.312,2.312v3.011a1.444,1.444,0,0,1-1.444,1.444H78.639a3.327,3.327,0,0,1-3.327-3.327v-2.73A3.084,3.084,0,0,1,76.784,347.649Z" transform="translate(-75.312 -300.74)" fill="#ffece4"/>
          <path id="Trazado_997383" data-name="Trazado 997383" d="M386.186,347.649l-1.76-1.078v1.719a1.279,1.279,0,0,1-1.279,1.279h-.84A2.312,2.312,0,0,0,380,351.88v3.011a1.444,1.444,0,0,0,1.444,1.444h2.892a3.327,3.327,0,0,0,3.327-3.327v-2.73A3.084,3.084,0,0,0,386.186,347.649Z" transform="translate(-338.813 -300.74)" fill="#ffddce"/>
        </g>
      </g>
      <g id="Grupo_1162978" data-name="Grupo 1162978" transform="translate(67.813 0)">
        <path id="Trazado_997384" data-name="Trazado 997384" d="M297.4,328.215a1.014,1.014,0,1,0,.636,1.925,37.833,37.833,0,0,1,9.949-1.654,1.014,1.014,0,1,0-.084-2.026A39.87,39.87,0,0,0,297.4,328.215Z" transform="translate(-265.762 -282.333)"/>
        <path id="Trazado_997385" data-name="Trazado 997385" d="M115.45,46.274V45a1.014,1.014,0,1,0-2.027,0v3.6a.265.265,0,0,1-.262.227h-.84A3.329,3.329,0,0,0,109,52.154v3.011a2.461,2.461,0,0,0,2.458,2.458h1.969V62.9a.157.157,0,0,1-.162.159c-3.137-.1-10.674,0-16.711,2.837V41.324c5.6-2.994,13.2-3.163,16.268-3.092a.634.634,0,0,1,.112.014l.013,0a.616.616,0,0,1,.48.6v1.4a1.014,1.014,0,1,0,2.027,0v-1.4a2.632,2.632,0,0,0-1.325-2.3V35.281a2.53,2.53,0,0,0-2.486-2.545c-.871-.02-2.076-.02-3.482.055a15.312,15.312,0,0,0-5.827-2.436,9.657,9.657,0,0,1-2.113-.491h0a2.746,2.746,0,0,1-1.633-2.508v-.029a11.041,11.041,0,0,0,1.708-1.237A9.235,9.235,0,0,0,103.31,20.2a2.617,2.617,0,0,0,2.245-2.605l-.007-3.424a2.624,2.624,0,0,0-.139-.828,2.583,2.583,0,0,0,.14-.837V6.471a3.139,3.139,0,0,0-3.074-3.125.236.236,0,0,1-.233-.233A3.176,3.176,0,0,0,99.081,0H89.549a7.965,7.965,0,0,0-7.765,6.3,1.014,1.014,0,0,0,1.984.416,5.929,5.929,0,0,1,5.78-4.687h9.531a1.14,1.14,0,0,1,1.135,1.117,2.255,2.255,0,0,0,2.227,2.229,1.1,1.1,0,0,1,1.08,1.1v6.036a.565.565,0,0,1-.379.533,1.039,1.039,0,0,1-1.269-.517,2.113,2.113,0,0,0-2.4-1.109c-3.942.952-6.855-1.5-8.241-3.054a3.247,3.247,0,0,0-3.518-.895A3.122,3.122,0,0,0,85.6,10.3c-.008.168,0-.031,0,3.292l-1.574-.548a.565.565,0,0,1-.379-.533V11.239a1.014,1.014,0,0,0-2.027,0v1.269a2.588,2.588,0,0,0,.03.391,3.285,3.285,0,0,0-.706,2.041v2.07a3.3,3.3,0,0,0,2.943,3.275,9.234,9.234,0,0,0,3.07,5.861,11.388,11.388,0,0,0,.96.743v.466a2.729,2.729,0,0,1-1.3,2.336h0a6.534,6.534,0,0,1-2.444.665,15.312,15.312,0,0,0-5.828,2.436c-1.406-.075-2.611-.076-3.481-.056a2.53,2.53,0,0,0-2.486,2.545v1.272a2.632,2.632,0,0,0-1.325,2.3v7.424c-.464.41-3.233,1.3-3.233,4.276v2.73a4.348,4.348,0,0,0,3.233,4.2V62.9A2.185,2.185,0,0,0,73.3,65.09c9.706-.316,15.227,2.242,17.151,3.356h0l0,0,.025.014a5.528,5.528,0,0,0,5.537,0l.026-.015h0c1.925-1.115,7.448-3.671,17.149-3.355A2.184,2.184,0,0,0,115.45,62.9V57.48a4.348,4.348,0,0,0,3.236-4.2v-2.73c0-2.972-2.786-3.88-3.236-4.278ZM85.838,19.264a1.014,1.014,0,0,0-1.013-.988h-.587a1.271,1.271,0,0,1-1.269-1.268c0-2.187-.009-2.077.008-2.22a2.6,2.6,0,0,0,.379.167l1.7.594a1.93,1.93,0,0,0,2.564-1.825c0-3.754-.005-3.255,0-3.329a1.125,1.125,0,0,1,.767-1.019,1.214,1.214,0,0,1,1.33.336c1.688,1.887,5.261,4.873,10.228,3.673a.1.1,0,0,1,.112.044,3.072,3.072,0,0,0,3.463,1.61l.006,2.564a.584.584,0,0,1-.571.6l-.6,0a1.014,1.014,0,0,0-1.009,1,7.289,7.289,0,0,1-2.4,5.368,7.9,7.9,0,0,1-10.671.046,7.287,7.287,0,0,1-2.441-5.348ZM96.633,28.2a4.775,4.775,0,0,0,1.422,2.621,8.22,8.22,0,0,1-9.329-.288A4.723,4.723,0,0,0,89.9,27.968,9.7,9.7,0,0,0,96.633,28.2ZM84.549,32.347a11.7,11.7,0,0,0,2.444-.581,10.283,10.283,0,0,0,13,.173c.3.089,1.647.349,1.95.408a13.437,13.437,0,0,1,2.616.784A25.521,25.521,0,0,0,93.9,36.77a1.164,1.164,0,0,1-1.312,0,25.52,25.52,0,0,0-10.66-3.638A13.428,13.428,0,0,1,84.549,32.347ZM74.9,34.763c.9-.021,2.173-.019,3.657.07h.023c3.846.233,9.092,1.057,12.872,3.614a3.182,3.182,0,0,0,3.584,0c5.248-3.552,13.323-3.761,16.552-3.686a.515.515,0,0,1,.505.518v.913c-5.768-.035-12.834.939-17.7,4.032a2.123,2.123,0,0,1-2.3,0c-4.857-3.088-11.92-4.067-17.7-4.032v-.913a.515.515,0,0,1,.505-.518ZM69.84,53.282v-2.73a2.209,2.209,0,0,1,1.206-1.9,2.3,2.3,0,0,0,2.291,2.2h.84a1.3,1.3,0,0,1,1.3,1.3v3.011a.431.431,0,0,1-.43.43H72.153a2.316,2.316,0,0,1-2.313-2.313Zm3.4,9.782a.158.158,0,0,1-.162-.159V57.622h1.972A2.461,2.461,0,0,0,77.5,55.165V52.154a3.329,3.329,0,0,0-3.325-3.325h-.84a.265.265,0,0,1-.265-.259V38.852a.616.616,0,0,1,.479-.6l.015,0a.636.636,0,0,1,.111-.014c3.073-.072,10.673.1,16.268,3.092V65.9C83.91,63.067,76.373,62.962,73.236,63.064Zm21.286,3.874a3.5,3.5,0,0,1-2.547,0V42.388a4.2,4.2,0,0,0,2.547,0Zm22.137-13.656a2.316,2.316,0,0,1-2.313,2.313h-2.892a.431.431,0,0,1-.43-.43V52.153a1.3,1.3,0,0,1,1.3-1.3h.84a2.3,2.3,0,0,0,2.291-2.2l.218.134a2.083,2.083,0,0,1,.988,1.765v2.73Z" transform="translate(-67.813 0)"/>
      </g>
    </g>
  </g>
</svg>
