<svg xmlns="http://www.w3.org/2000/svg" xmlns:xlink="http://www.w3.org/1999/xlink" width="110" height="110" viewBox="0 0 110 110">
  <defs>
    <filter id="Trazado_982547" x="0" y="0" width="110" height="110" filterUnits="userSpaceOnUse">
      <feOffset dy="3" input="SourceAlpha"/>
      <feGaussianBlur stdDeviation="3" result="blur"/>
      <feFlood flood-opacity="0.161"/>
      <feComposite operator="in" in2="blur"/>
      <feComposite in="SourceGraphic"/>
    </filter>
  </defs>
  <g id="Grupo_1164150" data-name="Grupo 1164150" transform="translate(-1079 -2521)">
    <g id="Grupo_1163919" data-name="Grupo 1163919" transform="translate(279 -8103)">
      <g id="Grupo_1162274" data-name="Grupo 1162274" transform="translate(0 6286)">
        <g id="Grupo_1157015" data-name="Grupo 1157015" transform="translate(0 3549)">
          <g id="Grupo_1155792" data-name="Grupo 1155792" transform="translate(-1 -3894.666)">
            <g id="Grupo_1154703" data-name="Grupo 1154703" transform="translate(0 1465.666)">
              <g id="Grupo_1150789" data-name="Grupo 1150789" transform="translate(3 2320)">
                <g id="Grupo_1154212" data-name="Grupo 1154212" transform="translate(-236 -5809)">
                  <g id="Grupo_1152583" data-name="Grupo 1152583" transform="translate(1043 6713)">
                    <g id="Grupo_1146973" data-name="Grupo 1146973" transform="translate(0 0)">
                      <g id="Grupo_1146954" data-name="Grupo 1146954">
                        <g transform="matrix(1, 0, 0, 1, -9, -6)" filter="url(#Trazado_982547)">
                          <g id="Trazado_982547-2" data-name="Trazado 982547" transform="translate(9 6)" fill="#f0ebfe">
                            <path d="M 46 90.49987030029297 C 39.99187850952148 90.49987030029297 34.16426849365234 89.32350921630859 28.67905426025391 87.00345611572266 C 23.38019943237305 84.76224517822266 18.62104034423828 81.55341339111328 14.53374671936035 77.46613311767578 C 10.44646644592285 73.37885284423828 7.237639904022217 68.61969757080078 4.996413230895996 63.32085418701172 C 2.676359891891479 57.83565521240234 1.5 52.008056640625 1.5 45.99993515014648 C 1.5 39.99181365966797 2.676359891891479 34.16421508789062 4.996413230895996 28.67901420593262 C 7.237639904022217 23.38017463684082 10.44646644592285 18.62101554870605 14.53374671936035 14.53373527526855 C 18.62104034423828 10.44645500183105 23.38019943237305 7.23762845993042 28.67905426025391 4.996415138244629 C 34.16426849365234 2.676361799240112 39.99187850952148 1.500001788139343 46 1.500001788139343 C 52.00812149047852 1.500001788139343 57.83573150634766 2.676361799240112 63.32094573974609 4.996415138244629 C 68.61979675292969 7.23762845993042 73.37895965576172 10.44645500183105 77.46625518798828 14.53373527526855 C 81.55353546142578 18.62101554870605 84.76235961914062 23.38017463684082 87.00358581542969 28.67901420593262 C 89.32363891601562 34.16421508789062 90.5 39.99181365966797 90.5 45.99993515014648 C 90.5 52.008056640625 89.32363891601562 57.83565521240234 87.00358581542969 63.32085418701172 C 84.76235961914062 68.61969757080078 81.55353546142578 73.37885284423828 77.46625518798828 77.46613311767578 C 73.37895965576172 81.55341339111328 68.61979675292969 84.76224517822266 63.32094573974609 87.00345611572266 C 57.83573150634766 89.32350921630859 52.00812149047852 90.49987030029297 46 90.49987030029297 Z" stroke="none"/>
                            <path d="M 46 2.999992370605469 C 40.1937141418457 2.999992370605469 34.56269836425781 4.136489868164062 29.26337051391602 6.377906799316406 C 24.14332580566406 8.543502807617188 19.54441070556641 11.64437866210938 15.59439849853516 15.59437561035156 C 11.64440155029297 19.54439544677734 8.54351806640625 24.14329528808594 6.377914428710938 29.26333618164062 C 4.136497497558594 34.56264877319336 3 40.19366455078125 3 45.99993515014648 C 3 51.80620574951172 4.136497497558594 57.43720626831055 6.377914428710938 62.73651885986328 C 8.54351806640625 67.8565673828125 11.64440155029297 72.45545959472656 15.59439849853516 76.40547943115234 C 19.54441070556641 80.35547637939453 24.14332580566406 83.45635223388672 29.26337051391602 85.6219482421875 C 34.56269836425781 87.86336517333984 40.1937141418457 88.99986267089844 46 88.99986267089844 C 51.8062858581543 88.99986267089844 57.43730163574219 87.86336517333984 62.73661422729492 85.6219482421875 C 67.85667419433594 83.45635223388672 72.45557403564453 80.35547637939453 76.40558624267578 76.40547943115234 C 80.35559844970703 72.45545959472656 83.45647430419922 67.8565673828125 85.6220703125 62.73651885986328 C 87.86350250244141 57.43720626831055 89 51.80620574951172 89 45.99993515014648 C 89 40.19366455078125 87.86350250244141 34.56264877319336 85.6220703125 29.26333618164062 C 83.45647430419922 24.14329528808594 80.35559844970703 19.54439544677734 76.40558624267578 15.59437561035156 C 72.45557403564453 11.64437866210938 67.85667419433594 8.543502807617188 62.73661422729492 6.377906799316406 C 57.43730163574219 4.136489868164062 51.8062858581543 2.999992370605469 46 2.999992370605469 M 46 -7.62939453125e-06 C 71.40509033203125 -7.62939453125e-06 92 20.59486389160156 92 45.99993515014648 C 92 71.40499114990234 71.40509033203125 91.99986267089844 46 91.99986267089844 C 20.59490203857422 91.99986267089844 0 71.40499114990234 0 45.99993515014648 C 0 20.59486389160156 20.59490203857422 -7.62939453125e-06 46 -7.62939453125e-06 Z" stroke="none" fill="#7145fe"/>
                          </g>
                        </g>
                      </g>
                    </g>
                  </g>
                </g>
              </g>
            </g>
          </g>
        </g>
      </g>
    </g>
    <g id="parcela" transform="translate(1106 2545)">
      <g id="Icons" transform="translate(0.925 0.925)">
        <path id="Trazado_999236" data-name="Trazado 999236" d="M45.415,2.851V24.6A15.73,15.73,0,0,0,24.6,45.415H2.851A1.856,1.856,0,0,1,1,43.564V2.851A1.856,1.856,0,0,1,2.851,1H43.564a1.856,1.856,0,0,1,1.851,1.851Z" transform="translate(-1 -1)" fill="#ffdf00"/>
        <path id="Trazado_999237" data-name="Trazado 999237" d="M46.776,1H44a1.856,1.856,0,0,1,1.851,1.851V23.662a15.515,15.515,0,0,1,2.776.943V2.851A1.856,1.856,0,0,0,46.776,1Z" transform="translate(-4.212 -1)" fill="#fec108"/>
        <path id="Trazado_999238" data-name="Trazado 999238" d="M29.843,17.521l-4.784-1.794a2.082,2.082,0,0,0-1.462,0l-4.784,1.794A2.082,2.082,0,0,1,16,15.572V1H32.656V15.572a2.082,2.082,0,0,1-2.813,1.95Z" transform="translate(-2.12 -1)" fill="#ff9801"/>
        <path id="Trazado_999239" data-name="Trazado 999239" d="M30.933,1V15.572a2.06,2.06,0,0,1-.833,1.653l.792.3a2.082,2.082,0,0,0,2.817-1.95V1Z" transform="translate(-3.174 -1)" fill="#f57c00"/>
        <rect id="Rect치ngulo_412310" data-name="Rect치ngulo 412310" width="9" height="6" rx="1" transform="translate(5.075 34.075)" fill="#f5f5f5"/>
        <path id="Trazado_999240" data-name="Trazado 999240" d="M56.46,40.73A15.735,15.735,0,1,1,47.207,26.4,15.735,15.735,0,0,1,56.46,40.73Z" transform="translate(-2.792 -2.793)" fill="#02a9f4"/>
        <path id="Trazado_999241" data-name="Trazado 999241" d="M48.362,26.4A15.587,15.587,0,0,0,41.884,25c-.484,0-.96.03-1.432.072A15.529,15.529,0,0,1,45.586,26.4a15.723,15.723,0,0,1-5.11,29.994c.463.042.934.069,1.409.069A15.73,15.73,0,0,0,48.362,26.4Z" transform="translate(-3.947 -2.793)" fill="#0377bc"/>
        <g id="Grupo_1164149" data-name="Grupo 1164149" transform="translate(33.311 25.909)">
          <path id="Trazado_999242" data-name="Trazado 999242" d="M46.253,51.029V52.88a.925.925,0,0,1-.925.925h-7.4A.925.925,0,0,1,37,52.88V51.029a.925.925,0,0,1,.925-.925h.925V42.7h-.925A.925.925,0,0,1,37,41.776V39.925A.925.925,0,0,1,37.925,39h5.552a.925.925,0,0,1,.925.925V50.1h.925A.925.925,0,0,1,46.253,51.029Z" transform="translate(-37 -29.747)" fill="#f5f5f5"/>
          <rect id="Rect치ngulo_412311" data-name="Rect치ngulo 412311" width="6" height="5" rx="1" transform="translate(1.764 0.167)" fill="#f5f5f5"/>
        </g>
      </g>
      <g id="Icons_copy" data-name="Icons copy">
        <path id="Trazado_999243" data-name="Trazado 999243" d="M14.253,37h-7.4A1.851,1.851,0,0,0,5,38.851v3.7A1.851,1.851,0,0,0,6.851,44.4h7.4A1.851,1.851,0,0,0,16.1,42.552v-3.7A1.851,1.851,0,0,0,14.253,37Zm-7.4,5.552v-3.7h7.4v3.7Z" transform="translate(-0.373 -2.764)"/>
        <path id="Trazado_999244" data-name="Trazado 999244" d="M46.265,23.966V2.776A2.776,2.776,0,0,0,43.49,0H2.776A2.776,2.776,0,0,0,0,2.776V43.49a2.776,2.776,0,0,0,2.776,2.776h21.19a16.642,16.642,0,1,0,22.3-22.3ZM30.535,1.851V15.5a1.157,1.157,0,0,1-1.563,1.083l-4.783-1.794a3.008,3.008,0,0,0-2.112,0L17.293,16.58A1.157,1.157,0,0,1,15.73,15.5V1.851ZM2.776,44.415a.925.925,0,0,1-.925-.925V2.776a.925.925,0,0,1,.925-.925h11.1V15.5a3.007,3.007,0,0,0,4.063,2.816l4.785-1.793a1.135,1.135,0,0,1,.811,0l4.784,1.793A3.007,3.007,0,0,0,32.386,15.5V1.851h11.1a.925.925,0,0,1,.925.925v20.4A16.61,16.61,0,0,0,23.179,44.415Zm36.087,9.253a14.8,14.8,0,1,1,14.8-14.8A14.8,14.8,0,0,1,38.863,53.668Z"/>
        <path id="Trazado_999245" data-name="Trazado 999245" d="M45.253,49.1V39.851A1.851,1.851,0,0,0,43.4,38H37.851A1.851,1.851,0,0,0,36,39.851V41.7a1.851,1.851,0,0,0,1.851,1.851V49.1A1.851,1.851,0,0,0,36,50.954V52.8a1.851,1.851,0,0,0,1.851,1.851h7.4A1.851,1.851,0,0,0,47.1,52.8V50.954A1.851,1.851,0,0,0,45.253,49.1Zm0,3.7h-7.4V50.954h.925a.925.925,0,0,0,.925-.925v-7.4a.925.925,0,0,0-.925-.925h-.925V39.851H43.4V50.029a.925.925,0,0,0,.925.925h.925Z" transform="translate(-2.689 -2.838)"/>
        <path id="Trazado_999246" data-name="Trazado 999246" d="M39.851,35.4h3.7A1.851,1.851,0,0,0,45.4,33.552v-3.7A1.851,1.851,0,0,0,43.552,28h-3.7A1.851,1.851,0,0,0,38,29.851v3.7A1.851,1.851,0,0,0,39.851,35.4Zm0-5.552h3.7v3.7h-3.7Z" transform="translate(-2.838 -2.091)"/>
      </g>
    </g>
  </g>
</svg>
