<svg xmlns="http://www.w3.org/2000/svg" xmlns:xlink="http://www.w3.org/1999/xlink" width="110" height="110" viewBox="0 0 110 110">
  <defs>
    <filter id="Trazado_982547" x="0" y="0" width="110" height="110" filterUnits="userSpaceOnUse">
      <feOffset dy="3" input="SourceAlpha"/>
      <feGaussianBlur stdDeviation="3" result="blur"/>
      <feFlood flood-opacity="0.161"/>
      <feComposite operator="in" in2="blur"/>
      <feComposite in="SourceGraphic"/>
    </filter>
  </defs>
  <g id="Grupo_1162999" data-name="Grupo 1162999" transform="translate(-1042 -1437)">
    <g id="Grupo_1161781" data-name="Grupo 1161781" transform="translate(242 -2901)">
      <g id="Grupo_1157015" data-name="Grupo 1157015" transform="translate(0 3549)">
        <g id="Grupo_1155792" data-name="Grupo 1155792" transform="translate(-1 -3894.666)">
          <g id="Grupo_1154703" data-name="Grupo 1154703" transform="translate(0 1465.666)">
            <g id="Grupo_1150789" data-name="Grupo 1150789" transform="translate(3 2320)">
              <g id="Grupo_1154212" data-name="Grupo 1154212" transform="translate(-236 -5809)">
                <g id="Grupo_1152583" data-name="Grupo 1152583" transform="translate(1043 6713)">
                  <g id="Grupo_1146973" data-name="Grupo 1146973" transform="translate(0 0)">
                    <g id="Grupo_1146954" data-name="Grupo 1146954">
                      <g transform="matrix(1, 0, 0, 1, -9, -6)" filter="url(#Trazado_982547)">
                        <g id="Trazado_982547-2" data-name="Trazado 982547" transform="translate(9 6)" fill="#f0ebfe">
                          <path d="M 46 90.49987030029297 C 39.99187850952148 90.49987030029297 34.16426849365234 89.32350921630859 28.67905426025391 87.00345611572266 C 23.38019943237305 84.76224517822266 18.62104034423828 81.55341339111328 14.53374671936035 77.46613311767578 C 10.44646644592285 73.37885284423828 7.237639904022217 68.61969757080078 4.996413230895996 63.32085418701172 C 2.676359891891479 57.83565521240234 1.5 52.008056640625 1.5 45.99993515014648 C 1.5 39.99181365966797 2.676359891891479 34.16421508789062 4.996413230895996 28.67901420593262 C 7.237639904022217 23.38017463684082 10.44646644592285 18.62101554870605 14.53374671936035 14.53373527526855 C 18.62104034423828 10.44645500183105 23.38019943237305 7.23762845993042 28.67905426025391 4.996415138244629 C 34.16426849365234 2.676361799240112 39.99187850952148 1.500001788139343 46 1.500001788139343 C 52.00812149047852 1.500001788139343 57.83573150634766 2.676361799240112 63.32094573974609 4.996415138244629 C 68.61979675292969 7.23762845993042 73.37895965576172 10.44645500183105 77.46625518798828 14.53373527526855 C 81.55353546142578 18.62101554870605 84.76235961914062 23.38017463684082 87.00358581542969 28.67901420593262 C 89.32363891601562 34.16421508789062 90.5 39.99181365966797 90.5 45.99993515014648 C 90.5 52.008056640625 89.32363891601562 57.83565521240234 87.00358581542969 63.32085418701172 C 84.76235961914062 68.61969757080078 81.55353546142578 73.37885284423828 77.46625518798828 77.46613311767578 C 73.37895965576172 81.55341339111328 68.61979675292969 84.76224517822266 63.32094573974609 87.00345611572266 C 57.83573150634766 89.32350921630859 52.00812149047852 90.49987030029297 46 90.49987030029297 Z" stroke="none"/>
                          <path d="M 46 2.999992370605469 C 40.1937141418457 2.999992370605469 34.56269836425781 4.136489868164062 29.26337051391602 6.377906799316406 C 24.14332580566406 8.543502807617188 19.54441070556641 11.64437866210938 15.59439849853516 15.59437561035156 C 11.64440155029297 19.54439544677734 8.54351806640625 24.14329528808594 6.377914428710938 29.26333618164062 C 4.136497497558594 34.56264877319336 3 40.19366455078125 3 45.99993515014648 C 3 51.80620574951172 4.136497497558594 57.43720626831055 6.377914428710938 62.73651885986328 C 8.54351806640625 67.8565673828125 11.64440155029297 72.45545959472656 15.59439849853516 76.40547943115234 C 19.54441070556641 80.35547637939453 24.14332580566406 83.45635223388672 29.26337051391602 85.6219482421875 C 34.56269836425781 87.86336517333984 40.1937141418457 88.99986267089844 46 88.99986267089844 C 51.8062858581543 88.99986267089844 57.43730163574219 87.86336517333984 62.73661422729492 85.6219482421875 C 67.85667419433594 83.45635223388672 72.45557403564453 80.35547637939453 76.40558624267578 76.40547943115234 C 80.35559844970703 72.45545959472656 83.45647430419922 67.8565673828125 85.6220703125 62.73651885986328 C 87.86350250244141 57.43720626831055 89 51.80620574951172 89 45.99993515014648 C 89 40.19366455078125 87.86350250244141 34.56264877319336 85.6220703125 29.26333618164062 C 83.45647430419922 24.14329528808594 80.35559844970703 19.54439544677734 76.40558624267578 15.59437561035156 C 72.45557403564453 11.64437866210938 67.85667419433594 8.543502807617188 62.73661422729492 6.377906799316406 C 57.43730163574219 4.136489868164062 51.8062858581543 2.999992370605469 46 2.999992370605469 M 46 -7.62939453125e-06 C 71.40509033203125 -7.62939453125e-06 92 20.59486389160156 92 45.99993515014648 C 92 71.40499114990234 71.40509033203125 91.99986267089844 46 91.99986267089844 C 20.59490203857422 91.99986267089844 0 71.40499114990234 0 45.99993515014648 C 0 20.59486389160156 20.59490203857422 -7.62939453125e-06 46 -7.62939453125e-06 Z" stroke="none" fill="#7145fe"/>
                        </g>
                      </g>
                    </g>
                  </g>
                </g>
              </g>
            </g>
          </g>
        </g>
      </g>
    </g>
    <g id="acceso-remoto" transform="translate(1067 1441.798)">
      <g id="Grupo_1162995" data-name="Grupo 1162995" transform="translate(0.872 21.075)">
        <g id="Grupo_1162985" data-name="Grupo 1162985" transform="translate(0 0)">
          <g id="Grupo_1162980" data-name="Grupo 1162980">
            <path id="Trazado_997386" data-name="Trazado 997386" d="M36.406,46.506H7.5V30.055A2.35,2.35,0,0,1,9.85,27.7H34.056a2.35,2.35,0,0,1,2.35,2.35Z" transform="translate(-7.5 -27.705)" fill="#bed8fb"/>
          </g>
          <g id="Grupo_1162981" data-name="Grupo 1162981" transform="translate(0 18.801)">
            <path id="Trazado_997387" data-name="Trazado 997387" d="M34.056,193.091H9.85a2.35,2.35,0,0,1-2.35-2.35v-1.41H36.406v1.41A2.35,2.35,0,0,1,34.056,193.091Z" transform="translate(-7.5 -189.331)" fill="#efecef"/>
          </g>
          <g id="Grupo_1162982" data-name="Grupo 1162982" transform="translate(23.501)">
            <path id="Trazado_997388" data-name="Trazado 997388" d="M212.588,27.7h-3.055a2.35,2.35,0,0,1,2.35,2.35v16.45h3.055V30.055a2.35,2.35,0,0,0-2.35-2.35Z" transform="translate(-209.533 -27.705)" fill="#9dc6fb"/>
          </g>
          <g id="Grupo_1162983" data-name="Grupo 1162983" transform="translate(23.501 18.801)">
            <path id="Trazado_997389" data-name="Trazado 997389" d="M211.883,189.331v1.41a2.35,2.35,0,0,1-2.35,2.35h3.055a2.35,2.35,0,0,0,2.35-2.35v-1.41Z" transform="translate(-209.533 -189.331)" fill="#dddaec"/>
          </g>
          <g id="Grupo_1162984" data-name="Grupo 1162984" transform="translate(8.813 22.561)">
            <path id="Trazado_997390" data-name="Trazado 997390" d="M94.542,228l-1.88-6.345h-7.52L83.262,228Z" transform="translate(-83.262 -221.656)" fill="#d0cee7"/>
          </g>
        </g>
        <g id="Grupo_1162991" data-name="Grupo 1162991" transform="translate(28.906 24.206)">
          <g id="Grupo_1162986" data-name="Grupo 1162986">
            <path id="Trazado_997391" data-name="Trazado 997391" d="M284.906,254.6H256v-16.45a2.35,2.35,0,0,1,2.35-2.35h24.206a2.35,2.35,0,0,1,2.35,2.35Z" transform="translate(-256 -235.798)" fill="#bed8fb"/>
          </g>
          <g id="Grupo_1162987" data-name="Grupo 1162987" transform="translate(0 18.801)">
            <path id="Trazado_997392" data-name="Trazado 997392" d="M282.556,401.184H258.35a2.35,2.35,0,0,1-2.35-2.35v-1.41h28.906v1.41A2.35,2.35,0,0,1,282.556,401.184Z" transform="translate(-256 -397.424)" fill="#efecef"/>
          </g>
          <g id="Grupo_1162988" data-name="Grupo 1162988" transform="translate(23.501)">
            <path id="Trazado_997393" data-name="Trazado 997393" d="M461.088,235.8h-3.055a2.35,2.35,0,0,1,2.35,2.35V254.6h3.055v-16.45A2.35,2.35,0,0,0,461.088,235.8Z" transform="translate(-458.033 -235.798)" fill="#9dc6fb"/>
          </g>
          <g id="Grupo_1162989" data-name="Grupo 1162989" transform="translate(23.501 18.801)">
            <path id="Trazado_997394" data-name="Trazado 997394" d="M460.383,397.424v1.41a2.35,2.35,0,0,1-2.35,2.35h3.055a2.35,2.35,0,0,0,2.35-2.35v-1.41Z" transform="translate(-458.033 -397.424)" fill="#dddaec"/>
          </g>
          <g id="Grupo_1162990" data-name="Grupo 1162990" transform="translate(8.813 22.561)">
            <path id="Trazado_997395" data-name="Trazado 997395" d="M343.042,436.094l-1.88-6.345h-7.52l-1.88,6.345Z" transform="translate(-331.762 -429.749)" fill="#d0cee7"/>
          </g>
        </g>
        <g id="Grupo_1162994" data-name="Grupo 1162994" transform="translate(18.566 16.215)">
          <g id="Grupo_1162992" data-name="Grupo 1162992">
            <circle id="Elipse_12223" data-name="Elipse 12223" cx="10.34" cy="10.34" r="10.34" fill="#b3e59f"/>
          </g>
          <g id="Grupo_1162993" data-name="Grupo 1162993" transform="translate(1.806 1.806)">
            <path id="Trazado_997396" data-name="Trazado 997396" d="M197,182.633A10.335,10.335,0,0,1,182.632,197,10.337,10.337,0,1,0,197,182.633Z" transform="translate(-182.632 -182.633)" fill="#95d6a4"/>
          </g>
        </g>
      </g>
      <g id="Grupo_1162996" data-name="Grupo 1162996" transform="translate(33.611 23.611)">
        <path id="Trazado_997397" data-name="Trazado 997397" d="M289.5,54.224l4.161-4.161a1.88,1.88,0,0,1,2.659,2.659l-.952.952h9.489a1.88,1.88,0,0,1,1.88,1.88v8.731a1.88,1.88,0,0,1-3.76,0V57.433h-7.609l.952.952a1.88,1.88,0,0,1-2.659,2.659L289.5,56.883A1.88,1.88,0,0,1,289.5,54.224Z" transform="translate(-288.949 -49.512)" fill="#62a4fb"/>
      </g>
      <g id="Grupo_1162997" data-name="Grupo 1162997" transform="translate(8.158 54.997)">
        <path id="Trazado_997398" data-name="Trazado 997398" d="M87.367,331.271l-4.161,4.161a1.88,1.88,0,1,1-2.659-2.659l.952-.952H72.01a1.88,1.88,0,0,1-1.88-1.88V321.21a1.88,1.88,0,1,1,3.76,0v6.851H81.5l-.952-.952a1.88,1.88,0,1,1,2.659-2.659l4.161,4.161A1.88,1.88,0,0,1,87.367,331.271Z" transform="translate(-70.13 -319.33)" fill="#62a4fb"/>
      </g>
      <g id="Grupo_1162998" data-name="Grupo 1162998" transform="translate(0 20.202)">
        <path id="Trazado_997399" data-name="Trazado 997399" d="M58.684,57.392a.872.872,0,0,0,.872-.872V47.63a3.226,3.226,0,0,0-3.222-3.222H40.52A11.176,11.176,0,0,0,37.8,39.8a.872.872,0,0,0-1.248,1.219,9.441,9.441,0,1,1-3.061-2.1.872.872,0,0,0,.686-1.6,11.1,11.1,0,0,0-3.524-.865V23.425A3.226,3.226,0,0,0,27.428,20.2H3.222A3.226,3.226,0,0,0,0,23.425V26.49a.872.872,0,0,0,1.745,0V23.425a1.48,1.48,0,0,1,1.477-1.478H27.428a1.48,1.48,0,0,1,1.477,1.478V36.452A11.161,11.161,0,0,0,22.625,39H1.745V30.562a.872.872,0,0,0-1.745,0V41.285a3.226,3.226,0,0,0,3.222,3.222H10.4l-1.363,4.6H8.275a.872.872,0,0,0,0,1.745H19.039a11.238,11.238,0,0,0,9.867,7.956v6.682a3.226,3.226,0,0,0,3.222,3.222H39.3l-1.363,4.6h-.759a.872.872,0,1,0,0,1.745h14.1a.872.872,0,1,0,0-1.745h-.759l-1.363-4.6h7.174a3.226,3.226,0,0,0,3.222-3.222v-4.9a.872.872,0,0,0-1.745,0v2.617H30.651v-4.4A11.215,11.215,0,0,0,40.893,46.153H56.334a1.479,1.479,0,0,1,1.477,1.477V56.52a.872.872,0,0,0,.872.872ZM1.745,41.285v-.538H20.933a11.242,11.242,0,0,0-1.255,2.015H3.222a1.479,1.479,0,0,1-1.478-1.478Zm9.109,7.823,1.363-4.6h6.218l.319,1.077a11.246,11.246,0,0,0-.09,3.523ZM48.7,73.314H39.759l1.363-4.6H47.34Zm9.109-7.823a1.479,1.479,0,0,1-1.478,1.478H32.128a1.479,1.479,0,0,1-1.478-1.478v-.538H57.812Z" transform="translate(0 -20.202)"/>
        <path id="Trazado_997400" data-name="Trazado 997400" d="M250.789,199.259a.873.873,0,0,0-1.234,0l-2.82,2.82a.872.872,0,0,0,0,1.234l2.82,2.82a.872.872,0,1,0,1.234-1.234l-2.2-2.2,2.2-2.2A.873.873,0,0,0,250.789,199.259Z" transform="translate(-217.808 -178.206)"/>
        <path id="Trazado_997401" data-name="Trazado 997401" d="M226.532,256.641a.872.872,0,0,0,1.234,0l2.82-2.82a.872.872,0,0,0,0-1.234l-2.82-2.82A.872.872,0,0,0,226.532,251l2.2,2.2-2.2,2.2A.873.873,0,0,0,226.532,256.641Z" transform="translate(-199.956 -222.838)"/>
        <path id="Trazado_997402" data-name="Trazado 997402" d="M286.417,55.033a2.753,2.753,0,0,0,4.311-3.355h4.749v5.979a2.752,2.752,0,1,0,5.5,0V48.926a2.756,2.756,0,0,0-2.753-2.753h-7.5a2.753,2.753,0,0,0-4.311-3.355l-4.161,4.161a2.752,2.752,0,0,0,0,3.893Zm-2.927-6.82,4.161-4.161a1.008,1.008,0,0,1,1.425,1.425l-.952.952a.873.873,0,0,0,.617,1.489h9.489a1.009,1.009,0,0,1,1.008,1.008v8.731a1.008,1.008,0,1,1-2.015,0V50.806a.872.872,0,0,0-.872-.872h-7.609a.872.872,0,0,0-.617,1.489l.952.952a1.008,1.008,0,0,1-1.425,1.425l-4.161-4.161a1.008,1.008,0,0,1,0-1.425Z" transform="translate(-248.711 -39.475)"/>
        <path id="Trazado_997403" data-name="Trazado 997403" d="M77.2,317.207a2.753,2.753,0,0,0-4.312,3.355H68.135v-5.979a2.752,2.752,0,1,0-5.5,0v8.731a2.756,2.756,0,0,0,2.753,2.753h7.5a2.753,2.753,0,0,0,4.312,3.355l4.161-4.161a2.752,2.752,0,0,0,0-3.893Zm2.927,6.82h0l-4.161,4.161a1.008,1.008,0,0,1-1.425-1.425l.952-.952a.872.872,0,0,0-.617-1.489H65.382a1.009,1.009,0,0,1-1.008-1.008v-8.731a1.008,1.008,0,0,1,2.015,0v6.851a.872.872,0,0,0,.872.872h7.609a.872.872,0,0,0,.617-1.489l-.952-.952a1.008,1.008,0,0,1,1.425-1.425l4.161,4.161a1.008,1.008,0,0,1,0,1.425Z" transform="translate(-55.345 -277.907)"/>
      </g>
    </g>
  </g>
</svg>
