<svg xmlns="http://www.w3.org/2000/svg" xmlns:xlink="http://www.w3.org/1999/xlink" width="110" height="110" viewBox="0 0 110 110">
  <defs>
    <filter id="Trazado_982547" x="0" y="0" width="110" height="110" filterUnits="userSpaceOnUse">
      <feOffset dy="3" input="SourceAlpha"/>
      <feGaussianBlur stdDeviation="3" result="blur"/>
      <feFlood flood-opacity="0.161"/>
      <feComposite operator="in" in2="blur"/>
      <feComposite in="SourceGraphic"/>
    </filter>
  </defs>
  <g id="Grupo_1163003" data-name="Grupo 1163003" transform="translate(-1355 -1437.273)">
    <g id="Grupo_1161782" data-name="Grupo 1161782" transform="translate(555 -2900.727)">
      <g id="Grupo_1157015" data-name="Grupo 1157015" transform="translate(0 3549)">
        <g id="Grupo_1155792" data-name="Grupo 1155792" transform="translate(-1 -3894.666)">
          <g id="Grupo_1154703" data-name="Grupo 1154703" transform="translate(0 1465.666)">
            <g id="Grupo_1150789" data-name="Grupo 1150789" transform="translate(3 2320)">
              <g id="Grupo_1154212" data-name="Grupo 1154212" transform="translate(-236 -5809)">
                <g id="Grupo_1152583" data-name="Grupo 1152583" transform="translate(1043 6713)">
                  <g id="Grupo_1146973" data-name="Grupo 1146973" transform="translate(0 0)">
                    <g id="Grupo_1146954" data-name="Grupo 1146954">
                      <g transform="matrix(1, 0, 0, 1, -9, -6)" filter="url(#Trazado_982547)">
                        <g id="Trazado_982547-2" data-name="Trazado 982547" transform="translate(9 6)" fill="#f0ebfe">
                          <path d="M 46 90.49987030029297 C 39.99187850952148 90.49987030029297 34.16426849365234 89.32350921630859 28.67905426025391 87.00345611572266 C 23.38019943237305 84.76224517822266 18.62104034423828 81.55341339111328 14.53374671936035 77.46613311767578 C 10.44646644592285 73.37885284423828 7.237639904022217 68.61969757080078 4.996413230895996 63.32085418701172 C 2.676359891891479 57.83565521240234 1.5 52.008056640625 1.5 45.99993515014648 C 1.5 39.99181365966797 2.676359891891479 34.16421508789062 4.996413230895996 28.67901420593262 C 7.237639904022217 23.38017463684082 10.44646644592285 18.62101554870605 14.53374671936035 14.53373527526855 C 18.62104034423828 10.44645500183105 23.38019943237305 7.23762845993042 28.67905426025391 4.996415138244629 C 34.16426849365234 2.676361799240112 39.99187850952148 1.500001788139343 46 1.500001788139343 C 52.00812149047852 1.500001788139343 57.83573150634766 2.676361799240112 63.32094573974609 4.996415138244629 C 68.61979675292969 7.23762845993042 73.37895965576172 10.44645500183105 77.46625518798828 14.53373527526855 C 81.55353546142578 18.62101554870605 84.76235961914062 23.38017463684082 87.00358581542969 28.67901420593262 C 89.32363891601562 34.16421508789062 90.5 39.99181365966797 90.5 45.99993515014648 C 90.5 52.008056640625 89.32363891601562 57.83565521240234 87.00358581542969 63.32085418701172 C 84.76235961914062 68.61969757080078 81.55353546142578 73.37885284423828 77.46625518798828 77.46613311767578 C 73.37895965576172 81.55341339111328 68.61979675292969 84.76224517822266 63.32094573974609 87.00345611572266 C 57.83573150634766 89.32350921630859 52.00812149047852 90.49987030029297 46 90.49987030029297 Z" stroke="none"/>
                          <path d="M 46 2.999992370605469 C 40.1937141418457 2.999992370605469 34.56269836425781 4.136489868164062 29.26337051391602 6.377906799316406 C 24.14332580566406 8.543502807617188 19.54441070556641 11.64437866210938 15.59439849853516 15.59437561035156 C 11.64440155029297 19.54439544677734 8.54351806640625 24.14329528808594 6.377914428710938 29.26333618164062 C 4.136497497558594 34.56264877319336 3 40.19366455078125 3 45.99993515014648 C 3 51.80620574951172 4.136497497558594 57.43720626831055 6.377914428710938 62.73651885986328 C 8.54351806640625 67.8565673828125 11.64440155029297 72.45545959472656 15.59439849853516 76.40547943115234 C 19.54441070556641 80.35547637939453 24.14332580566406 83.45635223388672 29.26337051391602 85.6219482421875 C 34.56269836425781 87.86336517333984 40.1937141418457 88.99986267089844 46 88.99986267089844 C 51.8062858581543 88.99986267089844 57.43730163574219 87.86336517333984 62.73661422729492 85.6219482421875 C 67.85667419433594 83.45635223388672 72.45557403564453 80.35547637939453 76.40558624267578 76.40547943115234 C 80.35559844970703 72.45545959472656 83.45647430419922 67.8565673828125 85.6220703125 62.73651885986328 C 87.86350250244141 57.43720626831055 89 51.80620574951172 89 45.99993515014648 C 89 40.19366455078125 87.86350250244141 34.56264877319336 85.6220703125 29.26333618164062 C 83.45647430419922 24.14329528808594 80.35559844970703 19.54439544677734 76.40558624267578 15.59437561035156 C 72.45557403564453 11.64437866210938 67.85667419433594 8.543502807617188 62.73661422729492 6.377906799316406 C 57.43730163574219 4.136489868164062 51.8062858581543 2.999992370605469 46 2.999992370605469 M 46 -7.62939453125e-06 C 71.40509033203125 -7.62939453125e-06 92 20.59486389160156 92 45.99993515014648 C 92 71.40499114990234 71.40509033203125 91.99986267089844 46 91.99986267089844 C 20.59490203857422 91.99986267089844 0 71.40499114990234 0 45.99993515014648 C 0 20.59486389160156 20.59490203857422 -7.62939453125e-06 46 -7.62939453125e-06 Z" stroke="none" fill="#7145fe"/>
                        </g>
                      </g>
                    </g>
                  </g>
                </g>
              </g>
            </g>
          </g>
        </g>
      </g>
    </g>
    <g id="gestion-de-proyectos_2_" data-name="gestion-de-proyectos (2)" transform="translate(1380.985 1458.362)">
      <g id="Grupo_1163000" data-name="Grupo 1163000" transform="translate(0.905 0.893)">
        <path id="Trazado_997404" data-name="Trazado 997404" d="M8,8H47V63.306H8Z" transform="translate(-8 -7.999)" fill="#eceff1" fill-rule="evenodd"/>
        <path id="Trazado_997405" data-name="Trazado 997405" d="M182.894,8h19.5V63.306h-19.5Z" transform="translate(-163.392 -7.999)" fill="#c4cccf" fill-rule="evenodd"/>
      </g>
      <g id="Grupo_1163001" data-name="Grupo 1163001" transform="translate(6.377 6.365)">
        <path id="Trazado_997406" data-name="Trazado 997406" d="M57.07,369.039H67.429v9.577H57.07Z" transform="translate(-57.07 -334.253)" fill="#d5e7ff" fill-rule="evenodd"/>
        <path id="Trazado_997407" data-name="Trazado 997407" d="M103.52,369.039H108.7v9.577H103.52Z" transform="translate(-98.341 -334.253)" fill="#acceff" fill-rule="evenodd"/>
        <path id="Trazado_997408" data-name="Trazado 997408" d="M57.07,213.055H67.429v9.577H57.07Z" transform="translate(-57.07 -195.662)" fill="#f6dccd" fill-rule="evenodd"/>
        <path id="Trazado_997409" data-name="Trazado 997409" d="M103.52,213.055H108.7v9.577H103.52Z" transform="translate(-98.341 -195.662)" fill="#f1cbbc" fill-rule="evenodd"/>
        <path id="Trazado_997410" data-name="Trazado 997410" d="M57.07,57.07H67.429v9.577H57.07Z" transform="translate(-57.07 -57.07)" fill="#f9e997" fill-rule="evenodd"/>
        <path id="Trazado_997411" data-name="Trazado 997411" d="M103.52,57.07H108.7v9.577H103.52Z" transform="translate(-98.341 -57.07)" fill="#f5d844" fill-rule="evenodd"/>
      </g>
      <g id="Grupo_1163002" data-name="Grupo 1163002" transform="translate(23.606 25.826)">
        <path id="Trazado_997412" data-name="Trazado 997412" d="M241.689,254.195a2.4,2.4,0,0,1,2.5,2.282v23.292a2.4,2.4,0,0,1-2.5,2.282H214.076a2.4,2.4,0,0,1-2.5-2.282V256.477a2.4,2.4,0,0,1,2.5-2.282Z" transform="translate(-211.579 -251.676)" fill="#d5e7ff" fill-rule="evenodd"/>
        <path id="Trazado_997413" data-name="Trazado 997413" d="M371.6,254.2a2.4,2.4,0,0,1,2.5,2.282v23.292a2.4,2.4,0,0,1-2.5,2.281H357.79V254.2Z" transform="translate(-341.487 -251.676)" fill="#acceff" fill-rule="evenodd"/>
        <path id="Trazado_997414" data-name="Trazado 997414" d="M211.579,260.63h32.607v-4.154a2.4,2.4,0,0,0-2.5-2.282H214.076a2.4,2.4,0,0,0-2.5,2.282Z" transform="translate(-211.579 -251.675)" fill="#76e2f8" fill-rule="evenodd"/>
        <path id="Trazado_997415" data-name="Trazado 997415" d="M357.79,260.63h16.3v-4.154a2.4,2.4,0,0,0-2.5-2.282H357.79Z" transform="translate(-341.487 -251.675)" fill="#3aaaff" fill-rule="evenodd"/>
        <path id="Trazado_997416" data-name="Trazado 997416" d="M254.254,231.606h1.213a1.1,1.1,0,0,1,1.092,1.092v3.518a1.1,1.1,0,0,1-1.092,1.092h-1.213a1.1,1.1,0,0,1-1.092-1.092V232.7A1.1,1.1,0,0,1,254.254,231.606Z" transform="translate(-248.525 -231.606)" fill="#697c86" fill-rule="evenodd"/>
        <path id="Trazado_997417" data-name="Trazado 997417" d="M268.392,231.606H269a1.1,1.1,0,0,1,1.092,1.092v3.518A1.1,1.1,0,0,1,269,237.307h-.607Z" transform="translate(-262.057 -231.606)" fill="#3b4a51" fill-rule="evenodd"/>
        <path id="Trazado_997418" data-name="Trazado 997418" d="M343.652,231.606h1.213a1.1,1.1,0,0,1,1.092,1.092v3.518a1.1,1.1,0,0,1-1.092,1.092h-1.213a1.1,1.1,0,0,1-1.092-1.092V232.7A1.1,1.1,0,0,1,343.652,231.606Z" transform="translate(-327.955 -231.606)" fill="#697c86" fill-rule="evenodd"/>
        <path id="Trazado_997419" data-name="Trazado 997419" d="M355.666,231.606h.607a1.1,1.1,0,0,1,1.092,1.092v3.518a1.1,1.1,0,0,1-1.092,1.092h-.607Z" transform="translate(-339.599 -231.606)" fill="#3b4a51" fill-rule="evenodd"/>
        <path id="Trazado_997420" data-name="Trazado 997420" d="M428.583,231.606H429.8a1.1,1.1,0,0,1,1.092,1.092v3.518a1.1,1.1,0,0,1-1.092,1.092h-1.213a1.1,1.1,0,0,1-1.092-1.092V232.7A1.1,1.1,0,0,1,428.583,231.606Z" transform="translate(-403.415 -231.606)" fill="#697c86" fill-rule="evenodd"/>
        <path id="Trazado_997421" data-name="Trazado 997421" d="M442.721,231.606h.607a1.1,1.1,0,0,1,1.092,1.092v3.518a1.1,1.1,0,0,1-1.092,1.092h-.607Z" transform="translate(-416.947 -231.606)" fill="#3b4a51" fill-rule="evenodd"/>
        <path id="Trazado_997422" data-name="Trazado 997422" d="M260.866,352.419h4.575v4.575h-4.575Z" transform="translate(-255.37 -338.948)" fill="#f9e997" fill-rule="evenodd"/>
        <path id="Trazado_997423" data-name="Trazado 997423" d="M281.384,352.419h2.288v4.575h-2.288Z" transform="translate(-273.6 -338.948)" fill="#f5d844" fill-rule="evenodd"/>
        <path id="Trazado_997424" data-name="Trazado 997424" d="M336.565,352.419h4.575v4.575h-4.575Z" transform="translate(-322.628 -338.948)" fill="#f9e997" fill-rule="evenodd"/>
        <path id="Trazado_997425" data-name="Trazado 997425" d="M357.082,352.419h2.288v4.575h-2.288Z" transform="translate(-340.858 -338.948)" fill="#f5d844" fill-rule="evenodd"/>
        <path id="Trazado_997426" data-name="Trazado 997426" d="M413.68,352.419h4.576v4.575H413.68Z" transform="translate(-391.144 -338.948)" fill="#f9e997" fill-rule="evenodd"/>
        <path id="Trazado_997427" data-name="Trazado 997427" d="M434.2,352.419h2.288v4.575H434.2Z" transform="translate(-409.373 -338.948)" fill="#f5d844" fill-rule="evenodd"/>
        <path id="Trazado_997428" data-name="Trazado 997428" d="M260.866,422.459h4.575v4.575h-4.575Z" transform="translate(-255.37 -401.178)" fill="#f9e997" fill-rule="evenodd"/>
        <path id="Trazado_997429" data-name="Trazado 997429" d="M281.384,422.459h2.288v4.575h-2.288Z" transform="translate(-273.6 -401.178)" fill="#f5d844" fill-rule="evenodd"/>
        <path id="Trazado_997430" data-name="Trazado 997430" d="M336.565,422.459h4.575v4.575h-4.575Z" transform="translate(-322.628 -401.178)" fill="#f9e997" fill-rule="evenodd"/>
        <path id="Trazado_997431" data-name="Trazado 997431" d="M357.082,422.459h2.288v4.575h-2.288Z" transform="translate(-340.858 -401.178)" fill="#f5d844" fill-rule="evenodd"/>
        <path id="Trazado_997432" data-name="Trazado 997432" d="M413.68,422.459h4.576v4.575H413.68Z" transform="translate(-391.144 -401.178)" fill="#f9e997" fill-rule="evenodd"/>
        <path id="Trazado_997433" data-name="Trazado 997433" d="M434.2,422.459h2.288v4.575H434.2Z" transform="translate(-409.373 -401.178)" fill="#f5d844" fill-rule="evenodd"/>
      </g>
      <path id="Trazado_997434" data-name="Trazado 997434" d="M53.715,27.456H51.97v-.537a1.986,1.986,0,0,0-1.985-1.982H48.774a1.986,1.986,0,0,0-1.985,1.982v.537H42.25v-.537a1.985,1.985,0,0,0-1.764-1.969V.892A.891.891,0,0,0,39.6,0H.906A.891.891,0,0,0,.015.892V56.2a.891.891,0,0,0,.891.891H53.715A3.29,3.29,0,0,0,57.1,53.919V30.626a3.289,3.289,0,0,0-3.388-3.17Zm-5.143-.537a.2.2,0,0,1,.2-.2h1.211a.2.2,0,0,1,.2.2v3.518a.2.2,0,0,1-.2.2H48.774a.2.2,0,0,1-.2-.2Zm-1.783,2.32v1.2a1.986,1.986,0,0,0,1.985,1.982h1.211a1.986,1.986,0,0,0,1.985-1.982v-1.2h1.745a1.51,1.51,0,0,1,1.605,1.388v3.265H24.5V30.626A1.51,1.51,0,0,1,26.1,29.239H27.35v1.2a1.986,1.986,0,0,0,1.985,1.982h1.211a1.986,1.986,0,0,0,1.985-1.982v-1.2h4.539v1.2a1.986,1.986,0,0,0,1.985,1.982h1.21a1.986,1.986,0,0,0,1.985-1.982v-1.2Zm-17.656,1.2V26.919a.2.2,0,0,1,.2-.2h1.211a.2.2,0,0,1,.2.2v3.518a.2.2,0,0,1-.2.2H29.335A.2.2,0,0,1,29.133,30.437ZM40.265,26.72a.2.2,0,0,1,.2.2v3.518a.2.2,0,0,1-.2.2h-1.21a.2.2,0,0,1-.2-.2V26.919a.2.2,0,0,1,.2-.2ZM1.8,1.784H38.7V24.97a1.985,1.985,0,0,0-1.634,1.949v.537H32.531v-.537a1.986,1.986,0,0,0-1.985-1.982H29.335a1.986,1.986,0,0,0-1.985,1.982v.537H26.1a3.289,3.289,0,0,0-3.389,3.17V53.919a2.991,2.991,0,0,0,.343,1.391H1.8ZM53.715,55.309H26.1A1.53,1.53,0,0,1,24.5,53.919V35.674H55.32V53.919a1.512,1.512,0,0,1-1.606,1.391Zm-20.037-16.9a.891.891,0,0,1,.891.891v4.574a.891.891,0,0,1-.891.891H29.1a.891.891,0,0,1-.891-.891V39.3a.891.891,0,0,1,.891-.891Zm-.891,4.574H29.992V40.191h2.794Zm9.331-4.574a.891.891,0,0,1,.891.891v4.574a.891.891,0,0,1-.891.891H37.543a.891.891,0,0,1-.891-.891V39.3a.891.891,0,0,1,.891-.891Zm-.891,4.574H38.435V40.191h2.791Zm-7.548,3.237a.891.891,0,0,1,.891.891v4.574a.891.891,0,0,1-.891.891H29.1a.891.891,0,0,1-.891-.891V47.11a.891.891,0,0,1,.891-.891Zm-.891,4.574H29.992V48h2.794Zm9.331-4.574a.891.891,0,0,1,.891.891v4.574a.891.891,0,0,1-.891.891H37.543a.891.891,0,0,1-.891-.891V47.11a.891.891,0,0,1,.891-.891Zm-.891,4.574H38.435V48h2.791Zm9.492-12.384a.891.891,0,0,1,.891.891v4.574a.891.891,0,0,1-.891.891H46.141a.891.891,0,0,1-.891-.891V39.3a.891.891,0,0,1,.891-.891Zm-.891,4.574H47.033V40.191h2.794Zm.891,3.237a.891.891,0,0,1,.891.891v4.574a.891.891,0,0,1-.891.891H46.141a.891.891,0,0,1-.891-.891V47.11a.891.891,0,0,1,.891-.891Zm-.891,4.574H47.033V48h2.794ZM5.486,15.944V6.364a.891.891,0,0,1,.891-.891H16.736a.891.891,0,1,1,0,1.783H7.269v7.8h8.575V12.34l-1.658,1.5a.891.891,0,0,1-1.229-.029l-2.032-2.029a.891.891,0,0,1,1.26-1.262l1.432,1.43,4.3-3.905a.891.891,0,1,1,1.2,1.32l-1.49,1.353v5.222a.891.891,0,0,1-.891.891H6.378a.892.892,0,0,1-.891-.891Zm0,17.391V23.758a.891.891,0,0,1,.891-.891H16.736a.891.891,0,1,1,0,1.783H7.269v7.795h8.575v-2.71l-1.658,1.5a.891.891,0,0,1-1.229-.03l-2.032-2.032a.891.891,0,0,1,1.261-1.261l1.432,1.432,4.3-3.9a.891.891,0,0,1,1.2,1.32l-1.49,1.353v5.219a.891.891,0,0,1-.891.891H6.378a.891.891,0,0,1-.891-.891ZM19.179,42.9a.891.891,0,0,1-.061,1.259l-1.49,1.351v5.22a.891.891,0,0,1-.891.891H6.378a.891.891,0,0,1-.891-.891V41.152a.891.891,0,0,1,.891-.891H16.736a.891.891,0,1,1,0,1.783H7.269v7.795h8.575V47.126l-1.658,1.5a.891.891,0,0,1-1.229-.03l-2.032-2.029a.891.891,0,0,1,1.26-1.261l1.432,1.43,4.3-3.9A.891.891,0,0,1,19.179,42.9ZM22.713,6.364a.891.891,0,0,1,.891-.891H35.2a.891.891,0,0,1,0,1.783H23.6a.891.891,0,0,1-.891-.891Zm0,4.789a.891.891,0,0,1,.891-.891H35.2a.891.891,0,0,1,0,1.783H23.6a.891.891,0,0,1-.891-.891Z" transform="translate(0 0)" fill-rule="evenodd"/>
    </g>
  </g>
</svg>
