<svg xmlns="http://www.w3.org/2000/svg" xmlns:xlink="http://www.w3.org/1999/xlink" width="110" height="110" viewBox="0 0 110 110">
  <defs>
    <filter id="Trazado_982547" x="0" y="0" width="110" height="110" filterUnits="userSpaceOnUse">
      <feOffset dy="3" input="SourceAlpha"/>
      <feGaussianBlur stdDeviation="3" result="blur"/>
      <feFlood flood-opacity="0.161"/>
      <feComposite operator="in" in2="blur"/>
      <feComposite in="SourceGraphic"/>
    </filter>
  </defs>
  <g id="Grupo_1164152" data-name="Grupo 1164152" transform="translate(-1391 -2521)">
    <g id="Grupo_1163920" data-name="Grupo 1163920" transform="translate(278.182 -8103)">
      <g id="Grupo_1162275" data-name="Grupo 1162275" transform="translate(312.818 6286)">
        <g id="Grupo_1157015" data-name="Grupo 1157015" transform="translate(0 3549)">
          <g id="Grupo_1155792" data-name="Grupo 1155792" transform="translate(-1 -3894.666)">
            <g id="Grupo_1154703" data-name="Grupo 1154703" transform="translate(0 1465.666)">
              <g id="Grupo_1150789" data-name="Grupo 1150789" transform="translate(3 2320)">
                <g id="Grupo_1154212" data-name="Grupo 1154212" transform="translate(-236 -5809)">
                  <g id="Grupo_1152583" data-name="Grupo 1152583" transform="translate(1043 6713)">
                    <g id="Grupo_1146973" data-name="Grupo 1146973" transform="translate(0 0)">
                      <g id="Grupo_1146954" data-name="Grupo 1146954">
                        <g transform="matrix(1, 0, 0, 1, -9, -6)" filter="url(#Trazado_982547)">
                          <g id="Trazado_982547-2" data-name="Trazado 982547" transform="translate(9 6)" fill="#f0ebfe">
                            <path d="M 46 90.49987030029297 C 39.99187850952148 90.49987030029297 34.16426849365234 89.32350921630859 28.67905426025391 87.00345611572266 C 23.38019943237305 84.76224517822266 18.62104034423828 81.55341339111328 14.53374671936035 77.46613311767578 C 10.44646644592285 73.37885284423828 7.237639904022217 68.61969757080078 4.996413230895996 63.32085418701172 C 2.676359891891479 57.83565521240234 1.5 52.008056640625 1.5 45.99993515014648 C 1.5 39.99181365966797 2.676359891891479 34.16421508789062 4.996413230895996 28.67901420593262 C 7.237639904022217 23.38017463684082 10.44646644592285 18.62101554870605 14.53374671936035 14.53373527526855 C 18.62104034423828 10.44645500183105 23.38019943237305 7.23762845993042 28.67905426025391 4.996415138244629 C 34.16426849365234 2.676361799240112 39.99187850952148 1.500001788139343 46 1.500001788139343 C 52.00812149047852 1.500001788139343 57.83573150634766 2.676361799240112 63.32094573974609 4.996415138244629 C 68.61979675292969 7.23762845993042 73.37895965576172 10.44645500183105 77.46625518798828 14.53373527526855 C 81.55353546142578 18.62101554870605 84.76235961914062 23.38017463684082 87.00358581542969 28.67901420593262 C 89.32363891601562 34.16421508789062 90.5 39.99181365966797 90.5 45.99993515014648 C 90.5 52.008056640625 89.32363891601562 57.83565521240234 87.00358581542969 63.32085418701172 C 84.76235961914062 68.61969757080078 81.55353546142578 73.37885284423828 77.46625518798828 77.46613311767578 C 73.37895965576172 81.55341339111328 68.61979675292969 84.76224517822266 63.32094573974609 87.00345611572266 C 57.83573150634766 89.32350921630859 52.00812149047852 90.49987030029297 46 90.49987030029297 Z" stroke="none"/>
                            <path d="M 46 2.999992370605469 C 40.1937141418457 2.999992370605469 34.56269836425781 4.136489868164062 29.26337051391602 6.377906799316406 C 24.14332580566406 8.543502807617188 19.54441070556641 11.64437866210938 15.59439849853516 15.59437561035156 C 11.64440155029297 19.54439544677734 8.54351806640625 24.14329528808594 6.377914428710938 29.26333618164062 C 4.136497497558594 34.56264877319336 3 40.19366455078125 3 45.99993515014648 C 3 51.80620574951172 4.136497497558594 57.43720626831055 6.377914428710938 62.73651885986328 C 8.54351806640625 67.8565673828125 11.64440155029297 72.45545959472656 15.59439849853516 76.40547943115234 C 19.54441070556641 80.35547637939453 24.14332580566406 83.45635223388672 29.26337051391602 85.6219482421875 C 34.56269836425781 87.86336517333984 40.1937141418457 88.99986267089844 46 88.99986267089844 C 51.8062858581543 88.99986267089844 57.43730163574219 87.86336517333984 62.73661422729492 85.6219482421875 C 67.85667419433594 83.45635223388672 72.45557403564453 80.35547637939453 76.40558624267578 76.40547943115234 C 80.35559844970703 72.45545959472656 83.45647430419922 67.8565673828125 85.6220703125 62.73651885986328 C 87.86350250244141 57.43720626831055 89 51.80620574951172 89 45.99993515014648 C 89 40.19366455078125 87.86350250244141 34.56264877319336 85.6220703125 29.26333618164062 C 83.45647430419922 24.14329528808594 80.35559844970703 19.54439544677734 76.40558624267578 15.59437561035156 C 72.45557403564453 11.64437866210938 67.85667419433594 8.543502807617188 62.73661422729492 6.377906799316406 C 57.43730163574219 4.136489868164062 51.8062858581543 2.999992370605469 46 2.999992370605469 M 46 -7.62939453125e-06 C 71.40509033203125 -7.62939453125e-06 92 20.59486389160156 92 45.99993515014648 C 92 71.40499114990234 71.40509033203125 91.99986267089844 46 91.99986267089844 C 20.59490203857422 91.99986267089844 0 71.40499114990234 0 45.99993515014648 C 0 20.59486389160156 20.59490203857422 -7.62939453125e-06 46 -7.62939453125e-06 Z" stroke="none" fill="#7145fe"/>
                          </g>
                        </g>
                      </g>
                    </g>
                  </g>
                </g>
              </g>
            </g>
          </g>
        </g>
      </g>
    </g>
    <g id="equipo_2_" data-name="equipo (2)" transform="translate(1416 2542.999)">
      <path id="Trazado_999247" data-name="Trazado 999247" d="M305.989,309.364H287.895l-3.312-5.694,3.312-5.163a26.809,26.809,0,0,1,.477-6.139,8.987,8.987,0,0,1,.53-1.581,4.35,4.35,0,0,1,3.588-2.529l3.429-.3a3.527,3.527,0,0,1,4.317.526l2.089,2.09h4.507a2.351,2.351,0,0,1,2.192,3.2s0,0,0,0a2.349,2.349,0,0,1-2.189,1.494h.844a2.35,2.35,0,0,1,2.349,2.3,2.4,2.4,0,0,1-2.41,2.395h-.783a2.349,2.349,0,1,1,0,4.7h-.842a2.349,2.349,0,1,1,0,4.7Z" transform="translate(-251.66 -254.193)" fill="#fcd0a3"/>
      <path id="Trazado_999248" data-name="Trazado 999248" d="M317.855,294.12c.2-.424-.049-1.043-.523-1.754a8.991,8.991,0,0,1,.53-1.581,4.35,4.35,0,0,1,3.588-2.529l3.429-.3a3.527,3.527,0,0,1,4.317.526l2.089,2.09h4.507a2.351,2.351,0,0,1,2.192,3.2s0,0,0,0l0,.008a2.353,2.353,0,0,0-2.184-1.483Z" transform="translate(-280.621 -254.192)" fill="#ffb983"/>
      <path id="Trazado_999249" data-name="Trazado 999249" d="M0,0H16.559V12.461H0Z" transform="translate(55.171 19.819) rotate(90)" fill="#49cb8b"/>
      <path id="Trazado_999250" data-name="Trazado 999250" d="M0,0H16.559V3.589H0Z" transform="translate(46.298 19.819) rotate(90)" fill="#13b766"/>
      <path id="Trazado_999251" data-name="Trazado 999251" d="M309.364,11.536V29.629H298.506a26.81,26.81,0,0,1-6.139-.477,8.988,8.988,0,0,1-1.581-.53,4.35,4.35,0,0,1-2.529-3.588l-.3-3.429a3.527,3.527,0,0,1,.526-4.317l2.09-2.089V10.693a2.351,2.351,0,0,1,3.2-2.192l0,0a2.349,2.349,0,0,1,1.494,2.189V9.849a2.35,2.35,0,0,1,2.3-2.349,2.4,2.4,0,0,1,2.395,2.41v.783a2.349,2.349,0,1,1,4.7,0v.843a2.349,2.349,0,1,1,4.7,0Z" transform="translate(-254.193 -6.631)" fill="#d38678"/>
      <path id="Trazado_999252" data-name="Trazado 999252" d="M358.266,7.67a2.35,2.35,0,0,0-3.215,2.184v.9a.865.865,0,0,0,1.73,0v-.9A2.348,2.348,0,0,1,358.266,7.67Z" transform="translate(-313.976 -6.636)" fill="#c86e57"/>
      <path id="Trazado_999253" data-name="Trazado 999253" d="M398.88,14.956a2.35,2.35,0,0,0-3.215,2.184v.9a.865.865,0,1,0,1.73,0v-.9A2.348,2.348,0,0,1,398.88,14.956Z" transform="translate(-349.892 -13.079)" fill="#c86e57"/>
      <path id="Trazado_999254" data-name="Trazado 999254" d="M439.493,22.251a2.35,2.35,0,0,0-3.215,2.184v.9a.865.865,0,0,0,1.73,0v-.9A2.348,2.348,0,0,1,439.493,22.251Z" transform="translate(-385.806 -19.53)" fill="#c86e57"/>
      <path id="Trazado_999255" data-name="Trazado 999255" d="M294.12,35.073c-.424-.2-1.043.049-1.754.523a8.989,8.989,0,0,1-1.581-.53,4.35,4.35,0,0,1-2.529-3.588l-.3-3.429a3.527,3.527,0,0,1,.526-4.317l2.09-2.089V17.136a2.351,2.351,0,0,1,3.2-2.192l0,0,.008,0a2.353,2.353,0,0,0-1.483,2.184Z" transform="translate(-254.192 -13.075)" fill="#c86e57"/>
      <path id="Trazado_999256" data-name="Trazado 999256" d="M171.313,35.1h16.559V47.563H171.313Z" transform="translate(-151.494 -31.041)" fill="#fcb143"/>
      <path id="Trazado_999257" data-name="Trazado 999257" d="M171.313,111.8h16.559v3.589H171.313Z" transform="translate(-151.494 -98.863)" fill="#fa9801"/>
      <path id="Trazado_999258" data-name="Trazado 999258" d="M11.536,35.107H29.629V45.964a26.81,26.81,0,0,1-.477,6.139,8.988,8.988,0,0,1-.53,1.581,4.35,4.35,0,0,1-3.588,2.529l-3.429.3a3.527,3.527,0,0,1-4.317-.526L15.2,53.9H10.693A2.351,2.351,0,0,1,8.5,50.7s0,0,0,0A2.349,2.349,0,0,1,10.693,49.2H9.849A2.35,2.35,0,0,1,7.5,46.9,2.4,2.4,0,0,1,9.91,44.5h.783a2.349,2.349,0,1,1,0-4.7h.843a2.349,2.349,0,1,1,0-4.7Z" transform="translate(-6.632 -31.045)" fill="#fcd0a3"/>
      <path id="Trazado_999259" data-name="Trazado 999259" d="M7.67,129.161a2.35,2.35,0,0,0,2.184,3.215h.9a.865.865,0,1,0,0-1.73h-.9A2.348,2.348,0,0,1,7.67,129.161Z" transform="translate(-6.637 -114.218)" fill="#ffb983"/>
      <path id="Trazado_999260" data-name="Trazado 999260" d="M14.956,88.547a2.35,2.35,0,0,0,2.184,3.215h.9a.865.865,0,1,0,0-1.73h-.9A2.348,2.348,0,0,1,14.956,88.547Z" transform="translate(-13.08 -78.303)" fill="#ffb983"/>
      <path id="Trazado_999261" data-name="Trazado 999261" d="M22.251,47.934a2.35,2.35,0,0,0,2.184,3.215h.9a.865.865,0,0,0,0-1.73h-.9A2.348,2.348,0,0,1,22.251,47.934Z" transform="translate(-19.531 -42.388)" fill="#ffb983"/>
      <path id="Trazado_999262" data-name="Trazado 999262" d="M35.073,166.863c-.2.424.049,1.043.523,1.754a8.989,8.989,0,0,1-.53,1.581,4.35,4.35,0,0,1-3.588,2.529l-3.429.3a3.527,3.527,0,0,1-4.317-.526l-2.089-2.09H17.136a2.351,2.351,0,0,1-2.192-3.2s0,0,0,0l0-.008a2.353,2.353,0,0,0,2.184,1.483Z" transform="translate(-13.075 -147.559)" fill="#ffb983"/>
      <path id="Trazado_999263" data-name="Trazado 999263" d="M0,0H16.559V12.461H0Z" transform="translate(4.061 39.414) rotate(-90)" fill="#32b9c7"/>
      <path id="Trazado_999264" data-name="Trazado 999264" d="M0,0H16.559V3.589H0Z" transform="translate(4.061 39.414) rotate(-90)" fill="#0a93a3"/>
      <path id="Trazado_999265" data-name="Trazado 999265" d="M35.107,331.3V313.211H45.964a26.813,26.813,0,0,1,6.139.477,8.985,8.985,0,0,1,1.581.53,4.35,4.35,0,0,1,2.529,3.588l.3,3.429a3.527,3.527,0,0,1-.526,4.317L53.9,327.64v4.507a2.351,2.351,0,0,1-3.2,2.192l0,0a2.35,2.35,0,0,1-1.494-2.189v.844a2.35,2.35,0,0,1-2.3,2.349,2.4,2.4,0,0,1-2.395-2.41v-.783a2.349,2.349,0,1,1-4.7,0V331.3a2.349,2.349,0,1,1-4.7,0Z" transform="translate(-31.045 -276.976)" fill="#fcd0a3"/>
      <g id="Grupo_1164151" data-name="Grupo 1164151" transform="translate(4.062 36.234)">
        <path id="Trazado_999266" data-name="Trazado 999266" d="M38.322,333.483a2.35,2.35,0,0,1-3.215-2.184V313.2h1.73V331.3A2.349,2.349,0,0,0,38.322,333.483Z" transform="translate(-35.107 -313.205)" fill="#ffb983"/>
        <path id="Trazado_999267" data-name="Trazado 999267" d="M78.936,465.59a2.35,2.35,0,0,1-3.215-2.184v-.9a.865.865,0,0,1,1.73,0v.9A2.348,2.348,0,0,0,78.936,465.59Z" transform="translate(-71.023 -444.469)" fill="#ffb983"/>
        <path id="Trazado_999268" data-name="Trazado 999268" d="M119.549,472.885a2.35,2.35,0,0,1-3.215-2.184v-.9a.865.865,0,1,1,1.73,0v.9A2.348,2.348,0,0,0,119.549,472.885Z" transform="translate(-106.937 -450.92)" fill="#ffb983"/>
        <path id="Trazado_999269" data-name="Trazado 999269" d="M160.162,465.6a2.35,2.35,0,0,1-3.215-2.184v-.9a.865.865,0,0,1,1.73,0v.9A2.348,2.348,0,0,0,160.162,465.6Z" transform="translate(-142.852 -444.476)" fill="#ffb983"/>
        <path id="Trazado_999270" data-name="Trazado 999270" d="M166.862,317.855c.424.2,1.043-.049,1.754-.523a8.991,8.991,0,0,1,1.581.53,4.35,4.35,0,0,1,2.529,3.588l.3,3.429a3.527,3.527,0,0,1-.526,4.317l-2.09,2.089v4.507a2.351,2.351,0,0,1-3.2,2.192l0,0-.008,0a2.352,2.352,0,0,0,1.483-2.184Z" transform="translate(-151.62 -316.855)" fill="#ffb983"/>
      </g>
      <path id="Trazado_999271" data-name="Trazado 999271" d="M0,0H13.379V12.461H0Z" transform="translate(36.234 55.171) rotate(180)" fill="#ec6161"/>
      <path id="Trazado_999272" data-name="Trazado 999272" d="M0,0H13.379V3.589H0Z" transform="translate(36.234 55.171) rotate(180)" fill="#d63030"/>
      <path id="Trazado_999273" data-name="Trazado 999273" d="M333.483,449.1a2.35,2.35,0,0,1-2.184,3.215H313.2v-1.73H331.3A2.349,2.349,0,0,0,333.483,449.1Z" transform="translate(-276.971 -397.148)" fill="#ffb983"/>
      <path id="Trazado_999274" data-name="Trazado 999274" d="M465.59,408.49a2.35,2.35,0,0,1-2.184,3.215h-.9a.865.865,0,0,1,0-1.73h.9A2.348,2.348,0,0,0,465.59,408.49Z" transform="translate(-408.235 -361.233)" fill="#ffb983"/>
      <path id="Trazado_999275" data-name="Trazado 999275" d="M472.884,367.877a2.35,2.35,0,0,1-2.184,3.215h-.9a.865.865,0,0,1,0-1.73h.9A2.348,2.348,0,0,0,472.884,367.877Z" transform="translate(-414.685 -325.318)" fill="#ffb983"/>
      <path id="Trazado_999276" data-name="Trazado 999276" d="M465.6,327.263a2.35,2.35,0,0,1-2.184,3.215h-.9a.865.865,0,0,1,0-1.73h.9A2.348,2.348,0,0,0,465.6,327.263Z" transform="translate(-408.242 -289.403)" fill="#ffb983"/>
      <path id="Trazado_999277" data-name="Trazado 999277" d="M58.389,48.124a3.192,3.192,0,0,0-.686-1.987,3.31,3.31,0,0,0,.608-.488,3.161,3.161,0,0,0,.921-2.286A3.228,3.228,0,0,0,57.712,40.7a3.216,3.216,0,0,0-1.674-5.07V34.609a.868.868,0,1,0-1.735,0v.9H43.577V23.866H54.3v7.276a.868.868,0,1,0,1.735,0V4.9A3.217,3.217,0,0,0,50.853,2.36a3.216,3.216,0,0,0-4.716-.83,3.31,3.31,0,0,0-.488-.608A3.153,3.153,0,0,0,43.363,0,3.228,3.228,0,0,0,40.7,1.52a3.216,3.216,0,0,0-5.069,1.673H4.9A3.217,3.217,0,0,0,2.36,8.38,3.214,3.214,0,0,0,1.53,13.1a3.309,3.309,0,0,0-.607.487A3.162,3.162,0,0,0,0,15.87,3.227,3.227,0,0,0,1.52,18.534,3.216,3.216,0,0,0,3.193,23.6V54.329a3.217,3.217,0,0,0,5.185,2.544,3.216,3.216,0,0,0,4.716.83,3.311,3.311,0,0,0,.488.608,3.162,3.162,0,0,0,2.227.922h.059a3.228,3.228,0,0,0,2.665-1.519A3.216,3.216,0,0,0,23.6,56.039H54.328a3.217,3.217,0,0,0,2.544-5.185A3.217,3.217,0,0,0,58.389,48.124ZM38.727,2.579a1.484,1.484,0,0,1,1.481,1.483.868.868,0,1,0,1.735,0V3.218A1.489,1.489,0,0,1,43.4,1.736a1.446,1.446,0,0,1,1.038.424,1.578,1.578,0,0,1,.473,1.118v.783a.868.868,0,1,0,1.735,0,1.481,1.481,0,1,1,2.963,0V4.9a.868.868,0,1,0,1.735,0,1.482,1.482,0,0,1,1.481-1.481A1.483,1.483,0,0,1,54.3,4.9V22.13H44.287c-2.354,0-5.279,0-7.338-.93a3.482,3.482,0,0,1-2.021-2.873l-.082-.937h1.532a.868.868,0,0,0,.868-.868V4.062h0a1.482,1.482,0,0,1,1.481-1.482ZM23.866,4.929H35.51V15.655H23.866ZM2.578,20.506a1.484,1.484,0,0,1,1.483-1.482.868.868,0,1,0,0-1.735H3.217a1.488,1.488,0,0,1-1.481-1.452A1.44,1.44,0,0,1,2.16,14.8a1.577,1.577,0,0,1,1.118-.473h.783a.868.868,0,0,0,0-1.735,1.481,1.481,0,1,1,0-2.961H4.9a.868.868,0,0,0,0-1.735A1.482,1.482,0,0,1,3.423,6.411,1.482,1.482,0,0,1,4.9,4.93H22.13v9.99a37.4,37.4,0,0,1-.171,4.328.868.868,0,0,0,1.723.2c.081-.686.125-1.379.15-2.061H33.1l.1,1.089a5.219,5.219,0,0,0,3.037,4.3,15.289,15.289,0,0,0,5.606,1.051V33.1l-1.089.1a5.219,5.219,0,0,0-4.3,3.037A15.288,15.288,0,0,0,35.4,41.843H26.128l-.1-1.089A5.219,5.219,0,0,0,23,36.451,15.288,15.288,0,0,0,17.39,35.4V26.128l1.089-.1a5.227,5.227,0,0,0,4.268-2.962.868.868,0,1,0-1.571-.738A3.486,3.486,0,0,1,18.327,24.3l-.937.082V22.855a.868.868,0,0,0-.868-.868H4.062a1.483,1.483,0,0,1-1.483-1.481Zm13.077,14.86H4.929V23.722H15.655V35.367Zm6.332,19.8a1.481,1.481,0,1,1-2.962,0,.868.868,0,1,0-1.735,0v.844A1.489,1.489,0,0,1,15.836,57.5a1.454,1.454,0,0,1-1.038-.424,1.578,1.578,0,0,1-.473-1.118v-.783a.868.868,0,1,0-1.735,0,1.481,1.481,0,1,1-2.962,0v-.843a.868.868,0,1,0-1.735,0A1.482,1.482,0,0,1,6.411,55.81,1.483,1.483,0,0,1,4.93,54.329V37.1H14.945c2.354,0,5.279,0,7.338.93A3.482,3.482,0,0,1,24.3,40.906l.082.936H22.855a.868.868,0,0,0-.868.868V55.171ZM35.366,54.3H23.722V43.577H35.366Zm20.588-9.4h-.783a.868.868,0,1,0,0,1.735,1.481,1.481,0,1,1,0,2.963h-.843a.868.868,0,1,0,0,1.735,1.482,1.482,0,0,1,1.481,1.481A1.483,1.483,0,0,1,54.328,54.3H37.1v-10c0-2.357,0-5.29.93-7.354a3.482,3.482,0,0,1,2.873-2.021l.937-.082v1.532a.868.868,0,0,0,.868.868H55.175a1.481,1.481,0,0,1,0,2.962.868.868,0,1,0,0,1.735h.844A1.489,1.489,0,0,1,57.5,43.4a1.439,1.439,0,0,1-.424,1.038,1.578,1.578,0,0,1-1.118.473Z" transform="translate(0 0)"/>
    </g>
  </g>
</svg>
