<svg xmlns="http://www.w3.org/2000/svg" xmlns:xlink="http://www.w3.org/1999/xlink" width="505" height="341" viewBox="0 0 505 341">
  <defs>
    <clipPath id="clip-path">
      <rect id="Rectángulo_411687" data-name="Rectángulo 411687" width="505" height="341" transform="translate(915 1129)" fill="#fff" stroke="#707070" stroke-width="1" opacity="0.26"/>
    </clipPath>
    <clipPath id="clip-path-2">
      <rect id="Rectángulo_411685" data-name="Rectángulo 411685" width="838.615" height="551.059" fill="none"/>
    </clipPath>
    <clipPath id="clip-path-3">
      <rect id="Rectángulo_411671" data-name="Rectángulo 411671" width="413.264" height="320.567" fill="#c5b4fe"/>
    </clipPath>
    <clipPath id="clip-path-4">
      <rect id="Rectángulo_411672" data-name="Rectángulo 411672" width="37.897" height="37.896" fill="#c5b4fe"/>
    </clipPath>
    <clipPath id="clip-path-5">
      <rect id="Rectángulo_411673" data-name="Rectángulo 411673" width="24.065" height="24.066" fill="#c5b4fe"/>
    </clipPath>
    <clipPath id="clip-path-6">
      <rect id="Rectángulo_411674" data-name="Rectángulo 411674" width="16.378" height="16.377" fill="#c5b4fe"/>
    </clipPath>
    <clipPath id="clip-path-7">
      <rect id="Rectángulo_411675" data-name="Rectángulo 411675" width="112.706" height="98.369" fill="none"/>
    </clipPath>
    <clipPath id="clip-path-8">
      <rect id="Rectángulo_411677" data-name="Rectángulo 411677" width="103.808" height="71.679" fill="none"/>
    </clipPath>
    <clipPath id="clip-path-11">
      <rect id="Rectángulo_411682" data-name="Rectángulo 411682" width="31.792" height="12.705" fill="none"/>
    </clipPath>
    <clipPath id="clip-path-12">
      <rect id="Rectángulo_411683" data-name="Rectángulo 411683" width="6.404" height="12.205" fill="none"/>
    </clipPath>
    <clipPath id="clip-path-13">
      <rect id="Rectángulo_411684" data-name="Rectángulo 411684" width="7.574" height="3.33" fill="none"/>
    </clipPath>
  </defs>
  <g id="Enmascarar_grupo_1098755" data-name="Enmascarar grupo 1098755" transform="translate(-915 -1129)" clip-path="url(#clip-path)">
    <g id="Grupo_1161818" data-name="Grupo 1161818" transform="translate(566.238 1039.143)">
      <g id="Grupo_1161817" data-name="Grupo 1161817">
        <g id="Grupo_1161816" data-name="Grupo 1161816" clip-path="url(#clip-path-2)">
          <g id="Grupo_1161785" data-name="Grupo 1161785" transform="translate(382.02 95.873)" opacity="0.41">
            <g id="Grupo_1161784" data-name="Grupo 1161784">
              <g id="Grupo_1161783" data-name="Grupo 1161783" clip-path="url(#clip-path-3)">
                <path id="Trazado_995832" data-name="Trazado 995832" d="M33.987,305C31.7,254.027,56.938,210.25,95.027,185.58a28.375,28.375,0,0,0,12.715-20.691q.077-.686.163-1.374c6.984-55.964,59.289-95.278,115-87.7,53.291,7.25,91.654,35.411,85.987,89.641-.026.255-.055.626-.087,1.1a25.9,25.9,0,0,0,25.372,27.553q4.642.109,9.346.6c63.577,6.644,109.7,63.778,102.925,127.564a115.64,115.64,0,0,1-36.978,73.178H78.065C52.873,371.341,35.461,337.9,33.987,305" transform="translate(-33.845 -74.882)" fill="#c5b4fe"/>
              </g>
            </g>
          </g>
          <g id="Grupo_1161788" data-name="Grupo 1161788" transform="translate(732.105 152.78)" opacity="0.63">
            <g id="Grupo_1161787" data-name="Grupo 1161787">
              <g id="Grupo_1161786" data-name="Grupo 1161786" clip-path="url(#clip-path-4)">
                <path id="Trazado_995833" data-name="Trazado 995833" d="M53.589,138.277a18.949,18.949,0,1,0,18.949-18.949,18.949,18.949,0,0,0-18.949,18.949" transform="translate(-53.589 -119.329)" fill="#c5b4fe"/>
              </g>
            </g>
          </g>
          <g id="Grupo_1161791" data-name="Grupo 1161791" transform="translate(417.859 106.54)" opacity="0.63">
            <g id="Grupo_1161790" data-name="Grupo 1161790">
              <g id="Grupo_1161789" data-name="Grupo 1161789" clip-path="url(#clip-path-5)">
                <path id="Trazado_995834" data-name="Trazado 995834" d="M309.835,95.245a12.033,12.033,0,1,0,12.033-12.033,12.032,12.032,0,0,0-12.033,12.033" transform="translate(-309.835 -83.213)" fill="#c5b4fe"/>
              </g>
            </g>
          </g>
          <g id="Grupo_1161794" data-name="Grupo 1161794" transform="translate(383.934 171.052)" opacity="0.63">
            <g id="Grupo_1161793" data-name="Grupo 1161793">
              <g id="Grupo_1161792" data-name="Grupo 1161792" clip-path="url(#clip-path-6)">
                <path id="Trazado_995835" data-name="Trazado 995835" d="M342.337,141.788a8.188,8.188,0,1,0,8.189-8.189,8.189,8.189,0,0,0-8.189,8.189" transform="translate(-342.337 -133.6)" fill="#c5b4fe"/>
              </g>
            </g>
          </g>
          <path id="Trazado_995836" data-name="Trazado 995836" d="M57.714,307.979a114.3,114.3,0,0,1,52.057-101.845,24.2,24.2,0,0,0,10.846-17.645q.065-.586.138-1.171c5.956-47.729,50.564-81.259,98.078-74.794,45.449,6.185,78.167,30.2,73.335,76.451-.023.218-.049.534-.076.935a22.086,22.086,0,0,0,21.639,23.5q3.96.1,7.971.512c54.222,5.665,93.555,54.393,87.781,108.793a98.623,98.623,0,0,1-31.537,62.41H95.305C73.82,364.56,58.971,336.037,57.714,307.979" transform="translate(354.833 31.32)" fill="#c5b4fe"/>
          <path id="Trazado_995837" data-name="Trazado 995837" d="M43.595,326.636H435.082a1.128,1.128,0,0,0,0-2.256H43.595a1.128,1.128,0,1,0,0,2.256" transform="translate(348.033 90.933)" fill="#243762"/>
          <path id="Trazado_995838" data-name="Trazado 995838" d="M387.814,213.014v-8.153c0-2.38-2.512-4.308-5.609-4.308H260.8c-3.1,0-5.61,1.928-5.61,4.308v80.613c0,2.379,2.512,4.307,5.61,4.307H382.2c3.1,0,5.609-1.928,5.609-4.307V272.536" transform="translate(124.074 56.221)" fill="#fff"/>
          <path id="Trazado_995839" data-name="Trazado 995839" d="M387.814,213.014v-8.153c0-2.38-2.512-4.308-5.609-4.308H260.8c-3.1,0-5.61,1.928-5.61,4.308v80.613c0,2.379,2.512,4.307,5.61,4.307H382.2c3.1,0,5.609-1.928,5.609-4.307V272.536" transform="translate(124.074 56.221)" fill="none" stroke="#243762" stroke-miterlimit="10" stroke-width="1"/>
          <path id="Trazado_995840" data-name="Trazado 995840" d="M387.814,217.534V204.86c0-2.379-2.512-4.307-5.609-4.307H260.8c-3.1,0-5.61,1.928-5.61,4.307v12.121" transform="translate(124.074 56.221)" fill="#c5d9ff"/>
          <path id="Trazado_995841" data-name="Trazado 995841" d="M387.814,217.534V204.86c0-2.379-2.512-4.307-5.609-4.307H260.8c-3.1,0-5.61,1.928-5.61,4.307v12.121" transform="translate(124.074 56.221)" fill="none" stroke="#243762" stroke-miterlimit="10" stroke-width="1"/>
          <path id="Trazado_995842" data-name="Trazado 995842" d="M255.19,213.384h0Z" transform="translate(124.875 59.817)" fill="#f7a9b4"/>
          <path id="Trazado_995843" data-name="Trazado 995843" d="M255.19,213.384h0Z" transform="translate(124.875 59.817)" fill="none" stroke="#243762" stroke-miterlimit="10" stroke-width="1"/>
          <path id="Trazado_995844" data-name="Trazado 995844" d="M261.038,208a2.085,2.085,0,1,0,2.084-2.084A2.085,2.085,0,0,0,261.038,208Z" transform="translate(239.192 57.723)" fill="none" stroke="#fff" stroke-miterlimit="10" stroke-width="1"/>
          <path id="Trazado_995845" data-name="Trazado 995845" d="M267.148,208a2.085,2.085,0,1,0,2.084-2.084A2.085,2.085,0,0,0,267.148,208Z" transform="translate(225.26 57.723)" fill="none" stroke="#fff" stroke-miterlimit="10" stroke-width="1"/>
          <path id="Trazado_995846" data-name="Trazado 995846" d="M273.142,208a2.085,2.085,0,1,0,2.084-2.084A2.085,2.085,0,0,0,273.142,208Z" transform="translate(211.591 57.723)" fill="none" stroke="#fff" stroke-miterlimit="10" stroke-width="1"/>
          <path id="Trazado_995847" data-name="Trazado 995847" d="M285.564,245.517V224.2a21.312,21.312,0,1,1-21.312,21.312Z" transform="translate(193.409 62.851)" fill="#af9cda"/>
          <path id="Trazado_995848" data-name="Trazado 995848" d="M282.731,243.005a18.21,18.21,0,0,1,18.21-18.21v18.21Z" transform="translate(175.685 63.016)" fill="#f7a9b4"/>
          <line id="Línea_1146" data-name="Línea 1146" x1="45.188" transform="translate(399.427 295.629)" fill="#f7a9b4"/>
          <line id="Línea_1147" data-name="Línea 1147" x1="45.188" transform="translate(399.427 295.629)" fill="none" stroke="#243762" stroke-linecap="round" stroke-miterlimit="10" stroke-width="1"/>
          <line id="Línea_1148" data-name="Línea 1148" x1="22.594" transform="translate(422.021 316.413)" fill="#f7a9b4"/>
          <line id="Línea_1149" data-name="Línea 1149" x1="22.594" transform="translate(422.021 316.413)" fill="none" stroke="#243762" stroke-linecap="round" stroke-miterlimit="10" stroke-width="1"/>
          <line id="Línea_1150" data-name="Línea 1150" x1="16.87" transform="translate(427.745 306.185)" fill="#f7a9b4"/>
          <line id="Línea_1151" data-name="Línea 1151" x1="16.87" transform="translate(427.745 306.185)" fill="none" stroke="#243762" stroke-linecap="round" stroke-miterlimit="10" stroke-width="1"/>
          <line id="Línea_1152" data-name="Línea 1152" x1="16.871" transform="translate(399.426 306.185)" fill="#f7a9b4"/>
          <line id="Línea_1153" data-name="Línea 1153" x1="16.871" transform="translate(399.426 306.185)" fill="none" stroke="#243762" stroke-linecap="round" stroke-miterlimit="10" stroke-width="1"/>
          <path id="Trazado_995849" data-name="Trazado 995849" d="M172.968,191.286H276.139a4.757,4.757,0,0,0,4.767-4.749V97.666a4.757,4.757,0,0,0-4.767-4.749H172.968a4.757,4.757,0,0,0-4.767,4.749v88.871a4.758,4.758,0,0,0,4.767,4.749" transform="translate(342.357 26.047)" fill="#fff"/>
          <g id="Grupo_1161797" data-name="Grupo 1161797" transform="translate(510.556 118.964)" opacity="0.36">
            <g id="Grupo_1161796" data-name="Grupo 1161796">
              <g id="Grupo_1161795" data-name="Grupo 1161795" clip-path="url(#clip-path-7)">
                <path id="Trazado_995850" data-name="Trazado 995850" d="M172.968,191.286H276.139a4.757,4.757,0,0,0,4.767-4.749V97.666a4.757,4.757,0,0,0-4.767-4.749H172.968a4.757,4.757,0,0,0-4.767,4.749v88.871a4.758,4.758,0,0,0,4.767,4.749" transform="translate(-168.2 -92.917)" fill="#ecf1f7"/>
              </g>
            </g>
          </g>
          <path id="Trazado_995851" data-name="Trazado 995851" d="M280.907,107.348V96.577c0-2.022-2.134-3.66-4.767-3.66H172.969c-2.634,0-4.768,1.639-4.768,3.66v10.3" transform="translate(342.355 26.047)" fill="#af9cda"/>
          <path id="Trazado_995852" data-name="Trazado 995852" d="M280.907,107.348V96.577c0-2.022-2.134-3.66-4.767-3.66H172.969c-2.634,0-4.768,1.639-4.768,3.66v10.3" transform="translate(342.355 26.047)" fill="none" stroke="#243762" stroke-miterlimit="10" stroke-width="1"/>
          <path id="Trazado_995853" data-name="Trazado 995853" d="M168.2,103.821h0Z" transform="translate(343.036 29.104)" fill="#f7a9b4"/>
          <path id="Trazado_995854" data-name="Trazado 995854" d="M168.2,103.821h0Z" transform="translate(343.036 29.104)" fill="none" stroke="#243762" stroke-miterlimit="10" stroke-width="1"/>
          <path id="Trazado_995855" data-name="Trazado 995855" d="M173.17,99.243a1.772,1.772,0,1,0,1.772-1.772A1.773,1.773,0,0,0,173.17,99.243Z" transform="translate(440.186 27.324)" fill="none" stroke="#fff" stroke-miterlimit="10" stroke-width="1"/>
          <path id="Trazado_995856" data-name="Trazado 995856" d="M178.362,99.243a1.772,1.772,0,1,0,1.772-1.772A1.773,1.773,0,0,0,178.362,99.243Z" transform="translate(428.347 27.324)" fill="none" stroke="#fff" stroke-miterlimit="10" stroke-width="1"/>
          <path id="Trazado_995857" data-name="Trazado 995857" d="M183.456,99.243a1.772,1.772,0,1,0,1.772-1.772A1.773,1.773,0,0,0,183.456,99.243Z" transform="translate(416.731 27.324)" fill="none" stroke="#fff" stroke-miterlimit="10" stroke-width="1"/>
          <g id="Grupo_1161800" data-name="Grupo 1161800" transform="translate(515.005 139.577)" opacity="0.31">
            <g id="Grupo_1161799" data-name="Grupo 1161799">
              <g id="Grupo_1161798" data-name="Grupo 1161798" clip-path="url(#clip-path-8)">
                <path id="Rectángulo_411676" data-name="Rectángulo 411676" d="M3.021,0H99.505a3.022,3.022,0,0,1,3.022,3.022V67.378A3.021,3.021,0,0,1,99.506,70.4H3.021A3.021,3.021,0,0,1,0,67.378V3.021A3.021,3.021,0,0,1,3.021,0Z" transform="translate(0.64 0.64)" fill="none" stroke="#243762" stroke-miterlimit="10" stroke-width="1"/>
                <path id="Trazado_995858" data-name="Trazado 995858" d="M187.674,163.086H252.5v-40.68H187.674Z" transform="translate(-169.174 -105.264)" fill="none" stroke="#243762" stroke-miterlimit="10" stroke-width="1"/>
                <line id="Línea_1154" data-name="Línea 1154" y1="40.019" x2="63.335" transform="translate(19.988 17.141)" fill="none" stroke="#243762" stroke-miterlimit="10" stroke-width="1"/>
                <line id="Línea_1155" data-name="Línea 1155" x1="64.824" y1="40.68" transform="translate(18.5 17.142)" fill="none" stroke="#243762" stroke-miterlimit="10" stroke-width="1"/>
              </g>
            </g>
          </g>
          <path id="Trazado_995859" data-name="Trazado 995859" d="M201.5,331.9H304.667a4.758,4.758,0,0,0,4.768-4.749V238.278a4.758,4.758,0,0,0-4.768-4.749H201.5a4.757,4.757,0,0,0-4.767,4.749v88.871A4.758,4.758,0,0,0,201.5,331.9" transform="translate(277.302 65.465)" fill="#fff"/>
          <g id="Grupo_1161803" data-name="Grupo 1161803" transform="translate(474.031 298.994)" opacity="0.36">
            <g id="Grupo_1161802" data-name="Grupo 1161802">
              <g id="Grupo_1161801" data-name="Grupo 1161801" clip-path="url(#clip-path-7)">
                <path id="Trazado_995860" data-name="Trazado 995860" d="M201.5,331.9H304.667a4.758,4.758,0,0,0,4.768-4.749V238.278a4.758,4.758,0,0,0-4.768-4.749H201.5a4.757,4.757,0,0,0-4.767,4.749v88.871A4.758,4.758,0,0,0,201.5,331.9" transform="translate(-196.729 -233.529)" fill="#ecf1f7"/>
              </g>
            </g>
          </g>
          <path id="Trazado_995861" data-name="Trazado 995861" d="M309.435,247.96v-10.77c0-2.022-2.134-3.66-4.767-3.66H201.5c-2.632,0-4.767,1.639-4.767,3.66v10.3" transform="translate(277.302 65.465)" fill="#af9cda"/>
          <path id="Trazado_995862" data-name="Trazado 995862" d="M309.435,247.96v-10.77c0-2.022-2.134-3.66-4.767-3.66H201.5c-2.632,0-4.767,1.639-4.767,3.66v10.3" transform="translate(277.302 65.465)" fill="none" stroke="#243762" stroke-miterlimit="10" stroke-width="1"/>
          <path id="Trazado_995863" data-name="Trazado 995863" d="M196.729,244.433h0Z" transform="translate(277.983 68.521)" fill="#f7a9b4"/>
          <path id="Trazado_995864" data-name="Trazado 995864" d="M196.729,244.433h0Z" transform="translate(277.983 68.521)" fill="none" stroke="#243762" stroke-miterlimit="10" stroke-width="1"/>
          <circle id="Elipse_12033" data-name="Elipse 12033" cx="1.772" cy="1.772" r="1.772" transform="translate(576.83 304.824)" fill="none" stroke="#fff" stroke-miterlimit="10" stroke-width="1"/>
          <circle id="Elipse_12034" data-name="Elipse 12034" cx="1.772" cy="1.772" r="1.772" transform="translate(570.182 304.824)" fill="none" stroke="#fff" stroke-miterlimit="10" stroke-width="1"/>
          <circle id="Elipse_12035" data-name="Elipse 12035" cx="1.772" cy="1.772" r="1.772" transform="translate(563.66 304.824)" fill="none" stroke="#fff" stroke-miterlimit="10" stroke-width="1"/>
          <g id="Grupo_1161806" data-name="Grupo 1161806" transform="translate(478.48 319.607)" opacity="0.31">
            <g id="Grupo_1161805" data-name="Grupo 1161805">
              <g id="Grupo_1161804" data-name="Grupo 1161804" clip-path="url(#clip-path-8)">
                <path id="Rectángulo_411679" data-name="Rectángulo 411679" d="M3.021,0H99.505a3.022,3.022,0,0,1,3.022,3.022V67.377A3.022,3.022,0,0,1,99.505,70.4H3.022A3.022,3.022,0,0,1,0,67.377V3.021A3.021,3.021,0,0,1,3.021,0Z" transform="translate(0.639 0.64)" fill="none" stroke="#243762" stroke-miterlimit="10" stroke-width="1"/>
                <path id="Trazado_995865" data-name="Trazado 995865" d="M210.8,303.7h25.421v-40.68H210.8Z" transform="translate(-145.972 -245.876)" fill="none" stroke="#243762" stroke-miterlimit="10" stroke-width="1"/>
                <line id="Línea_1156" data-name="Línea 1156" y1="40.019" x2="24.838" transform="translate(65.408 17.141)" fill="none" stroke="#243762" stroke-miterlimit="10" stroke-width="1"/>
                <line id="Línea_1157" data-name="Línea 1157" x1="25.421" y1="40.68" transform="translate(64.825 17.142)" fill="none" stroke="#243762" stroke-miterlimit="10" stroke-width="1"/>
                <path id="Trazado_995866" data-name="Trazado 995866" d="M281.793,286.205V260.784h-40.68v25.421Z" transform="translate(-230.363 -246.502)" fill="none" stroke="#243762" stroke-miterlimit="10" stroke-width="1"/>
                <line id="Línea_1158" data-name="Línea 1158" x1="40.019" y1="24.837" transform="translate(10.75 14.283)" fill="none" stroke="#243762" stroke-miterlimit="10" stroke-width="1"/>
                <line id="Línea_1159" data-name="Línea 1159" x1="40.68" y2="25.421" transform="translate(10.75 14.282)" fill="none" stroke="#243762" stroke-miterlimit="10" stroke-width="1"/>
                <path id="Trazado_995867" data-name="Trazado 995867" d="M281.793,298.574V285.863h-40.68v12.711Z" transform="translate(-230.363 -239.472)" fill="none" stroke="#243762" stroke-miterlimit="10" stroke-width="1"/>
                <line id="Línea_1160" data-name="Línea 1160" x1="40.019" y1="12.419" transform="translate(10.75 46.391)" fill="none" stroke="#243762" stroke-miterlimit="10" stroke-width="1"/>
                <line id="Línea_1161" data-name="Línea 1161" x1="40.68" y2="12.711" transform="translate(10.75 46.392)" fill="none" stroke="#243762" stroke-miterlimit="10" stroke-width="1"/>
              </g>
            </g>
          </g>
          <path id="Trazado_995868" data-name="Trazado 995868" d="M197.092,215.439l9.641,9.641a13.634,13.634,0,1,1,0-19.282Z" transform="translate(396.997 56.571)" fill="#af9cda"/>
          <path id="Trazado_995869" data-name="Trazado 995869" d="M283.784,105.489V84.177a21.312,21.312,0,1,1-21.312,21.312Z" transform="translate(197.468 23.597)" fill="#af9cda"/>
          <path id="Trazado_995870" data-name="Trazado 995870" d="M280.951,102.977a18.21,18.21,0,0,1,18.21-18.21v18.21Z" transform="translate(179.744 23.763)" fill="#f7a9b4"/>
          <path id="Trazado_995871" data-name="Trazado 995871" d="M320.829,178.2a21.213,21.213,0,0,0-17.5-20.876l.825-4.86a26.1,26.1,0,0,1,21.375,30.1l-5.014-.85a21.156,21.156,0,0,0,.315-3.511" transform="translate(124.356 42.74)" fill="#af9cda"/>
          <path id="Trazado_995872" data-name="Trazado 995872" d="M343.835,174.435a26.224,26.224,0,0,1,.356-5.275,26.224,26.224,0,0,0-.356,5.275" transform="translate(54.221 47.42)" fill="#fff"/>
          <path id="Trazado_995873" data-name="Trazado 995873" d="M307.793,193.019A21.21,21.21,0,0,0,328.7,175.307l5.014.85a26.1,26.1,0,0,1-30.1,21.375l.814-4.805a21.217,21.217,0,0,0,3.361.292" transform="translate(116.169 49.143)" fill="#fff"/>
          <path id="Trazado_995874" data-name="Trazado 995874" d="M320.684,173.921h0a26.1,26.1,0,0,1,30.1-21.376l-.825,4.86a21.2,21.2,0,1,0-7.083,41.808l-.813,4.805a26.074,26.074,0,0,1-21.376-30.1" transform="translate(77.728 42.658)" fill="#f7a9b4"/>
          <path id="Trazado_995875" data-name="Trazado 995875" d="M370.392,273.665,337.782,307.3l-35.856-33.639-42.054,32.61" transform="translate(135.501 76.716)" fill="none" stroke="#243762" stroke-linecap="round" stroke-miterlimit="10" stroke-width="1"/>
          <path id="Trazado_995876" data-name="Trazado 995876" d="M252.9,275.62a8.93,8.93,0,1,0,8.929-8.929,8.928,8.928,0,0,0-8.929,8.929" transform="translate(244.065 74.761)" fill="#f7a9b4"/>
          <path id="Trazado_995877" data-name="Trazado 995877" d="M306.373,275.62a8.93,8.93,0,1,0,8.929-8.929,8.929,8.929,0,0,0-8.929,8.929" transform="translate(122.125 74.761)" fill="#f7a9b4"/>
          <path id="Trazado_995878" data-name="Trazado 995878" d="M278.368,301.09a8.93,8.93,0,1,0,8.929-8.929,8.928,8.928,0,0,0-8.929,8.929" transform="translate(185.985 81.901)" fill="#af9cda"/>
          <path id="Trazado_995879" data-name="Trazado 995879" d="M339.22,301.09a8.929,8.929,0,1,0,8.929-8.929,8.928,8.928,0,0,0-8.929,8.929" transform="translate(47.224 81.901)" fill="#af9cda"/>
          <path id="Trazado_995880" data-name="Trazado 995880" d="M246.186,204.04a33.809,33.809,0,0,0-.065-15.128l-6.347-13.771a4.821,4.821,0,0,0-5.759-2.639l-.1.032c-3.733,1.219-7.573-.836-11.112-1.766a9.034,9.034,0,0,0-6.1.169,9.631,9.631,0,0,0-3.544,3.334c-2.584,3.659-4.2,7.851-6.359,11.753-1.91,3.461-4.92,7.464-1.84,11.243a8.105,8.105,0,0,0,3.585,2.456l2.435.868L208.4,217.854,244.025,216Z" transform="translate(330.882 47.746)" fill="#f9d9eb"/>
          <path id="Trazado_995881" data-name="Trazado 995881" d="M214.329,204.554H317.5c2.632,0,4.767-1.639,4.767-3.66V132.387c0-2.022-2.134-3.66-4.767-3.66H214.329c-2.632,0-4.767,1.639-4.767,3.66v68.507c0,2.022,2.134,3.66,4.767,3.66" transform="translate(248.04 36.086)" fill="#fff"/>
          <rect id="Rectángulo_411681" data-name="Rectángulo 411681" width="28.821" height="34.619" transform="translate(527.194 190.677)" fill="none" stroke="#243762" stroke-miterlimit="10" stroke-width="1"/>
          <line id="Línea_1162" data-name="Línea 1162" x1="28.821" y2="34.619" transform="translate(527.194 190.677)" fill="none" stroke="#243762" stroke-miterlimit="10" stroke-width="1"/>
          <line id="Línea_1163" data-name="Línea 1163" x2="28.821" y2="34.619" transform="translate(527.194 190.677)" fill="none" stroke="#243762" stroke-miterlimit="10" stroke-width="1"/>
          <path id="Trazado_995882" data-name="Trazado 995882" d="M322.268,143.158v-10.77c0-2.022-2.134-3.66-4.767-3.66H214.33c-2.634,0-4.768,1.639-4.768,3.66v10.3" transform="translate(248.039 36.086)" fill="#f9d9eb"/>
          <path id="Trazado_995883" data-name="Trazado 995883" d="M322.268,143.158v-10.77c0-2.022-2.134-3.66-4.767-3.66H214.33c-2.634,0-4.768,1.639-4.768,3.66v10.3" transform="translate(248.039 36.086)" fill="none" stroke="#243762" stroke-miterlimit="10" stroke-width="1"/>
          <path id="Trazado_995884" data-name="Trazado 995884" d="M209.562,139.631h0Z" transform="translate(248.72 39.142)" fill="#f7a9b4"/>
          <path id="Trazado_995885" data-name="Trazado 995885" d="M209.562,139.631h0Z" transform="translate(248.72 39.142)" fill="none" stroke="#243762" stroke-miterlimit="10" stroke-width="1"/>
          <path id="Trazado_995886" data-name="Trazado 995886" d="M214.531,135.053a1.772,1.772,0,1,0,1.772-1.772A1.772,1.772,0,0,0,214.531,135.053Z" transform="translate(345.87 37.362)" fill="none" stroke="#243762" stroke-miterlimit="10" stroke-width="1"/>
          <path id="Trazado_995887" data-name="Trazado 995887" d="M219.723,135.053a1.773,1.773,0,1,0,1.773-1.772A1.774,1.774,0,0,0,219.723,135.053Z" transform="translate(334.029 37.362)" fill="none" stroke="#243762" stroke-miterlimit="10" stroke-width="1"/>
          <path id="Trazado_995888" data-name="Trazado 995888" d="M224.818,135.053a1.772,1.772,0,1,0,1.772-1.772A1.773,1.773,0,0,0,224.818,135.053Z" transform="translate(322.412 37.362)" fill="none" stroke="#243762" stroke-miterlimit="10" stroke-width="1"/>
          <line id="Línea_1164" data-name="Línea 1164" x1="45.188" transform="translate(472.818 197.698)" fill="#f7a9b4"/>
          <line id="Línea_1165" data-name="Línea 1165" x1="45.188" transform="translate(472.818 197.698)" fill="none" stroke="#243762" stroke-linecap="round" stroke-miterlimit="10" stroke-width="1"/>
          <line id="Línea_1166" data-name="Línea 1166" x1="22.594" transform="translate(495.412 218.482)" fill="#f7a9b4"/>
          <line id="Línea_1167" data-name="Línea 1167" x1="22.594" transform="translate(495.412 218.482)" fill="none" stroke="#243762" stroke-linecap="round" stroke-miterlimit="10" stroke-width="1"/>
          <line id="Línea_1168" data-name="Línea 1168" x1="16.87" transform="translate(501.136 208.254)" fill="#f7a9b4"/>
          <line id="Línea_1169" data-name="Línea 1169" x1="16.87" transform="translate(501.136 208.254)" fill="none" stroke="#243762" stroke-linecap="round" stroke-miterlimit="10" stroke-width="1"/>
          <line id="Línea_1170" data-name="Línea 1170" x1="16.871" transform="translate(472.817 208.254)" fill="#f7a9b4"/>
          <line id="Línea_1171" data-name="Línea 1171" x1="16.871" transform="translate(472.817 208.254)" fill="none" stroke="#243762" stroke-linecap="round" stroke-miterlimit="10" stroke-width="1"/>
          <path id="Trazado_995889" data-name="Trazado 995889" d="M231.875,189.611s2.494,4.385-2.614,5.572" transform="translate(312.602 53.153)" fill="none" stroke="#243762" stroke-linecap="round" stroke-miterlimit="10" stroke-width="1"/>
          <path id="Trazado_995890" data-name="Trazado 995890" d="M203.777,199.931c1.556-9.866,7.626-12.18,7.626-12.18s-1.355-3.069-3.139-7.482a8.348,8.348,0,0,1,.193-7.11,1.946,1.946,0,0,1,.693-.752c.947-.592,3.3-1.449,5.79,2.3a49.094,49.094,0,0,1,3.668,7.035,38.482,38.482,0,0,1,3.326,17.752,23.829,23.829,0,0,1-.649,4.476c-1.607,6.251-17.507-4.036-17.507-4.036" transform="translate(355.717 48.183)" fill="#f9d9eb"/>
          <path id="Trazado_995891" data-name="Trazado 995891" d="M206.424,199.931c1.556-9.866,7.626-12.18,7.626-12.18s-1.355-3.069-3.139-7.482a8.348,8.348,0,0,1,.193-7.11,1.946,1.946,0,0,1,.693-.752c.947-.592,3.3-1.449,5.79,2.3a49.092,49.092,0,0,1,3.668,7.035" transform="translate(353.07 48.183)" fill="#f9d9eb"/>
          <path id="Trazado_995892" data-name="Trazado 995892" d="M206.424,199.931c1.556-9.866,7.626-12.18,7.626-12.18s-1.355-3.069-3.139-7.482a8.348,8.348,0,0,1,.193-7.11,1.946,1.946,0,0,1,.693-.752c.947-.592,3.3-1.449,5.79,2.3a49.092,49.092,0,0,1,3.668,7.035" transform="translate(353.07 48.183)" fill="none" stroke="#243762" stroke-linecap="round" stroke-miterlimit="10" stroke-width="1"/>
          <path id="Trazado_995893" data-name="Trazado 995893" d="M63.152,284.107c.955-9.264,1.783-18.542,2.55-27.823.664-8.066,2.993-41.288,3.864-52.211a3.442,3.442,0,0,1,3.78-3.148l31.752,3.191A3.243,3.243,0,0,1,108,207.64l-5.548,60.717,45.723-34.708a14.255,14.255,0,0,1,2.885-2.5,36.284,36.284,0,0,1,19.516-5.813l61.1-.187c27.334,0,51.082,24.525,51.082,54.779l7.942,80.6H128.18l6.2-52.176c-10.98,4.179-27.431,11.852-39.209,12.283-5.8.213-11.519-1.515-16.78-3.959-4.887-2.271-9.634-5.327-12.506-9.888-4.306-6.841-3.521-15.037-2.733-22.682" transform="translate(467.849 56.32)" fill="#243762"/>
          <line id="Línea_1172" data-name="Línea 1172" x1="29.232" y1="1.96" transform="translate(536.685 270.05)" fill="none" stroke="#fff" stroke-linecap="round" stroke-miterlimit="10" stroke-width="1"/>
          <path id="Trazado_995894" data-name="Trazado 995894" d="M229.261,206.623a1.741,1.741,0,1,0,1.74-1.74A1.74,1.74,0,0,0,229.261,206.623Z" transform="translate(312.343 57.434)" fill="none" stroke="#fff" stroke-linecap="round" stroke-miterlimit="10" stroke-width="1"/>
          <line id="Línea_1173" data-name="Línea 1173" x2="7.444" y2="85.856" transform="translate(712.265 329.991)" fill="none" stroke="#fff" stroke-linecap="round" stroke-miterlimit="10" stroke-width="1"/>
          <line id="Línea_1174" data-name="Línea 1174" x1="8.522" y2="17.579" transform="translate(714.265 335.47)" fill="none" stroke="#fff" stroke-linecap="round" stroke-miterlimit="10" stroke-width="1"/>
          <line id="Línea_1175" data-name="Línea 1175" x1="9.043" y2="80.426" transform="translate(596.657 335.47)" fill="none" stroke="#fff" stroke-linecap="round" stroke-miterlimit="10" stroke-width="1"/>
          <path id="Trazado_995895" data-name="Trazado 995895" d="M82.637,215.611a16.235,16.235,0,0,1,4.676-9.9,41.968,41.968,0,0,0,11.742-25.618l1.067-10.938a29.6,29.6,0,0,1,11.765-20.836,38.576,38.576,0,0,1,42.576-7.51c.827.369,1.627.773,2.415,1.193-.01-.287-.032-.57-.027-.859a15.112,15.112,0,1,1,23.312,12.99c.415-.269,3.9,4.906,4.22,5.426a29.809,29.809,0,0,1,3.023,6.726c1.211,3.949,1.183,7.966,1.152,12.05q-.038,5.158-.271,10.312a19.939,19.939,0,0,0,1.043,8.708c1.73,4.21,5.461,7.507,8.578,10.68,9.634,9.809,1.38,22.294-1.284,25.729-.027.033-.053.068-.079.1a20.409,20.409,0,0,1-16.005,8.258l-17.921.251c-1.127,0-2.151-.035-3.13-.085-10.109-.515-12.67-3.546-13.026-6.468-.081-.667-11.337-.956-12.319-.808-1.3.195-2.557.572-3.845.817-6.519,1.238-13.379-.707-19.905-1.122-4.366-.278-8.729-.831-13.084-1.256a16.38,16.38,0,0,1-14.671-17.839" transform="translate(530.454 35.411)" fill="#243762"/>
          <path id="Trazado_995896" data-name="Trazado 995896" d="M109.988,192.166l6.618-28.535a25.843,25.843,0,0,1,1.215-3.76c6.691,7.23,23.164,20.042,46.842,5.211,0,0-6.5,10.486,5.532,18.843l-.013.058.136.032A10.453,10.453,0,1,1,165.6,204.38l-.136-.032-.076.326c-.3.412-.9,1.284-1.657,2.448-.17.262-.347.54-.53.831-.022.035-.044.072-.065.1q-.244.39-.5.808c-.077.125-.156.261-.234.391-.12.2-.241.4-.364.609-.187.318-.375.647-.563.981l-.056.1c-.277.494-.553,1-.826,1.524l-.029.058c-.224.429-.442.868-.657,1.308-.028.06-.059.117-.087.175-.02.041-.041.082-.06.123-.154.323-.3.65-.443.977-.074.166-.154.332-.225.5-.044.1-.086.2-.128.3-.21.5-.412,1-.594,1.5a19.546,19.546,0,0,0-1.064,4.112,26.771,26.771,0,0,0-.675,3.961c-.059,3.173,1.9,6.822,13.079,7.391,1.462,10.987-5.493,21.269-16.072,23.328-11,2.141-21.732-5.425-23.965-16.9l-3.248-16.7a26.466,26.466,0,0,1-16.432-30.447" transform="translate(520.236 44.816)" fill="#f9d9eb"/>
          <g id="Grupo_1161809" data-name="Grupo 1161809" transform="translate(646.81 262.232)" opacity="0.46">
            <g id="Grupo_1161808" data-name="Grupo 1161808">
              <g id="Grupo_1161807" data-name="Grupo 1161807" clip-path="url(#clip-path-11)">
                <path id="Trazado_995897" data-name="Trazado 995897" d="M131.558,211.915a27.007,27.007,0,0,0,25.214-7.1,19.585,19.585,0,0,0-1.064,4.115,26.535,26.535,0,0,0-.675,3.961,21.8,21.8,0,0,1-13.128,4.617c-7.373.224-13.819-2.832-16.926-7.428a28,28,0,0,0,3.7,1.168Z" transform="translate(-124.979 -204.816)" fill="#ef92c7"/>
              </g>
            </g>
          </g>
          <g id="Grupo_1161812" data-name="Grupo 1161812" transform="translate(686.564 233.214)" opacity="0.46">
            <g id="Grupo_1161811" data-name="Grupo 1161811">
              <g id="Grupo_1161810" data-name="Grupo 1161810" clip-path="url(#clip-path-12)">
                <path id="Trazado_995898" data-name="Trazado 995898" d="M120.018,189.378h0c-.62,2.671-3.128,4.52-6.261,4.979l2.831-12.205c2.611,1.791,4.05,4.555,3.43,7.226" transform="translate(-113.757 -182.152)" fill="#ef92c7"/>
              </g>
            </g>
          </g>
          <path id="Trazado_995899" data-name="Trazado 995899" d="M112.133,182.526a3.553,3.553,0,0,1,2.554,4.537" transform="translate(580.22 51.167)" fill="none" stroke="#243762" stroke-linecap="round" stroke-miterlimit="10" stroke-width="0.5"/>
          <path id="Trazado_995900" data-name="Trazado 995900" d="M153.874,180.49h0a1.48,1.48,0,0,1-1.107-1.776l.67-2.883a1.48,1.48,0,0,1,2.883.668l-.67,2.883a1.48,1.48,0,0,1-1.776,1.107" transform="translate(486.715 48.969)" fill="#243762"/>
          <path id="Trazado_995901" data-name="Trazado 995901" d="M134.118,185.559h0a1.48,1.48,0,0,1-1.107-1.776l.67-2.883a1.48,1.48,0,0,1,2.883.668l-.67,2.883a1.48,1.48,0,0,1-1.776,1.107" transform="translate(531.765 50.39)" fill="#243762"/>
          <path id="Trazado_995902" data-name="Trazado 995902" d="M157.875,173.911a5.464,5.464,0,0,1-1.969-.444c-.675-.238-1.358-.462-1.959-.639s-1.3-.36-2-.526a5.326,5.326,0,0,1-1.879-.69c-.451-.344-.47-.958.376-1.454a6.163,6.163,0,0,1,4.545-.183,5.476,5.476,0,0,1,3.541,2.565c.353.851-.065,1.334-.656,1.373" transform="translate(488.213 47.556)" fill="#243762"/>
          <path id="Trazado_995903" data-name="Trazado 995903" d="M135.82,179.293a5.178,5.178,0,0,1-1.955-.544c-.662-.279-1.334-.542-1.927-.752s-1.285-.43-1.978-.634a5.013,5.013,0,0,1-1.844-.8c-.425-.382-.393-1.031.506-1.525a6.037,6.037,0,0,1,4.614-.019,5.265,5.265,0,0,1,3.365,2.849c.284.913-.182,1.408-.781,1.426" transform="translate(538.235 48.94)" fill="#243762"/>
          <path id="Trazado_995904" data-name="Trazado 995904" d="M148.177,191.364l-3.818-1.4a2.4,2.4,0,0,1-.978-3.823,15.985,15.985,0,0,0,6.921-11.511l.224-2.063" transform="translate(505.271 48.374)" fill="none" stroke="#243762" stroke-linecap="round" stroke-miterlimit="10" stroke-width="1"/>
          <g id="Grupo_1161815" data-name="Grupo 1161815" transform="translate(651.03 255.233)" opacity="0.46">
            <g id="Grupo_1161814" data-name="Grupo 1161814">
              <g id="Grupo_1161813" data-name="Grupo 1161813" clip-path="url(#clip-path-13)">
                <path id="Trazado_995905" data-name="Trazado 995905" d="M147.735,202.675a.376.376,0,0,0,.412-.506,4.367,4.367,0,0,0-7.464-1.22.377.377,0,0,0,.581.479,3.615,3.615,0,0,1,6.179,1.009.376.376,0,0,0,.292.238" transform="translate(-140.597 -199.35)" fill="#ef92c7"/>
              </g>
            </g>
          </g>
          <path id="Trazado_995906" data-name="Trazado 995906" d="M149.178,191.122s-7.463,6.213-15.914,1.3" transform="translate(518.815 53.577)" fill="none" stroke="#f7a9b4" stroke-linecap="round" stroke-miterlimit="10" stroke-width="1"/>
          <path id="Trazado_995907" data-name="Trazado 995907" d="M123.706,183.8a10.627,10.627,0,1,0,10.627-10.628A10.627,10.627,0,0,0,123.706,183.8Z" transform="translate(535.27 48.546)" fill="none" stroke="#fff" stroke-linecap="round" stroke-miterlimit="10" stroke-width="1"/>
          <path id="Trazado_995908" data-name="Trazado 995908" d="M145.953,177.981a10.627,10.627,0,1,0,10.627-10.628A10.627,10.627,0,0,0,145.953,177.981Z" transform="translate(484.539 46.914)" fill="none" stroke="#fff" stroke-linecap="round" stroke-miterlimit="10" stroke-width="1"/>
          <line id="Línea_1176" data-name="Línea 1176" x1="7.868" y1="2.554" transform="translate(651.607 226.576)" fill="none" stroke="#fff" stroke-linecap="round" stroke-miterlimit="10" stroke-width="1"/>
          <line id="Línea_1177" data-name="Línea 1177" y1="5.212" x2="12.122" transform="translate(680.23 227.853)" fill="none" stroke="#fff" stroke-linecap="round" stroke-miterlimit="10" stroke-width="1"/>
          <path id="Trazado_995909" data-name="Trazado 995909" d="M128.384,309.147a22.7,22.7,0,0,0-28.545,4.242c-.051.058-.1.117-.152.175L88.564,326.393a3.045,3.045,0,0,0,.155,4.29l.563.524a3.091,3.091,0,0,0,4.356-.159L104.1,319.8l.892.844L93.432,333.075a3.088,3.088,0,0,0,.159,4.354l.527.492a3.092,3.092,0,0,0,4.357-.158L110,325.373l.894.845L100.48,337.412a3.094,3.094,0,0,0,.157,4.357l.529.492a3.088,3.088,0,0,0,4.354-.158l9.3-9.993a1.571,1.571,0,0,1,2.229-.072,1.02,1.02,0,0,1,.012,1.47l-4.948,4.833a3.782,3.782,0,0,0-.609,4.517,3.452,3.452,0,0,0,5.272.554l6.042-5.9a.036.036,0,0,1,.018-.01l9.334-2.924a48.818,48.818,0,0,1,16.871-2.074c18.088.84-6.647-15.069-20.652-23.354" transform="translate(570.851 85.757)" fill="#f9d9eb"/>
          <path id="Trazado_995910" data-name="Trazado 995910" d="M128.384,309.147a22.7,22.7,0,0,0-28.545,4.242c-.051.058-.1.117-.152.175L88.564,326.393a3.045,3.045,0,0,0,.155,4.29l.563.524a3.091,3.091,0,0,0,4.356-.159L104.1,319.8l.892.844L93.432,333.075a3.088,3.088,0,0,0,.159,4.354l.527.492a3.092,3.092,0,0,0,4.357-.158L110,325.373l.894.845L100.48,337.412a3.094,3.094,0,0,0,.157,4.357l.529.492a3.088,3.088,0,0,0,4.354-.158l9.3-9.993a1.571,1.571,0,0,1,2.229-.072,1.02,1.02,0,0,1,.012,1.47l-4.948,4.833a3.782,3.782,0,0,0-.609,4.517,3.452,3.452,0,0,0,5.272.554l6.042-5.9a.036.036,0,0,1,.018-.01l9.334-2.924a48.818,48.818,0,0,1,16.871-2.074C167.124,333.342,142.388,317.432,128.384,309.147Z" transform="translate(570.851 85.757)" fill="none" stroke="#243762" stroke-linejoin="round" stroke-width="1"/>
        </g>
      </g>
      <rect id="Rectángulo_411686" data-name="Rectángulo 411686" width="838.615" height="551.059" fill="none"/>
    </g>
  </g>
</svg>
