<svg xmlns="http://www.w3.org/2000/svg" xmlns:xlink="http://www.w3.org/1999/xlink" width="113" height="113" viewBox="0 0 113 113">
  <defs>
    <filter id="Trazado_982547" x="0" y="0" width="113" height="113" filterUnits="userSpaceOnUse">
      <feOffset dy="3" input="SourceAlpha"/>
      <feGaussianBlur stdDeviation="3" result="blur"/>
      <feFlood flood-opacity="0.161"/>
      <feComposite operator="in" in2="blur"/>
      <feComposite in="SourceGraphic"/>
    </filter>
  </defs>
  <g id="Grupo_1164276" data-name="Grupo 1164276" transform="translate(-902 -2387)">
    <g id="Grupo_1163950" data-name="Grupo 1163950" transform="translate(-0.234 -91.467)">
      <g id="Grupo_1161820" data-name="Grupo 1161820" transform="translate(911.234 2484.467)">
        <g id="Grupo_1152576" data-name="Grupo 1152576" transform="translate(0)">
          <g id="Grupo_1148633" data-name="Grupo 1148633">
            <g id="Grupo_1148525" data-name="Grupo 1148525">
              <g transform="matrix(1, 0, 0, 1, -9, -6)" filter="url(#Trazado_982547)">
                <g id="Trazado_982547-2" data-name="Trazado 982547" transform="translate(9 6)" fill="#f0ebfe">
                  <path d="M 47.5 93.5 C 41.28937149047852 93.5 35.26533508300781 92.28397369384766 29.59518623352051 89.88570404052734 C 24.11771965026855 87.56893157958984 19.19813346862793 84.25196075439453 14.97309303283691 80.02691650390625 C 10.74804019927979 75.80186462402344 7.431066513061523 70.88229370117188 5.114293098449707 65.40481567382812 C 2.716026782989502 59.73468017578125 1.5 53.71062850952148 1.5 47.5 C 1.5 41.28937149047852 2.716026782989502 35.26533508300781 5.114293098449707 29.59518623352051 C 7.431066513061523 24.11771965026855 10.74804019927979 19.19813346862793 14.97309303283691 14.97309303283691 C 19.19813346862793 10.74804019927979 24.11771965026855 7.431066513061523 29.59518623352051 5.114293098449707 C 35.26533508300781 2.716026782989502 41.28937149047852 1.5 47.5 1.5 C 53.71062850952148 1.5 59.73468017578125 2.716026782989502 65.40481567382812 5.114293098449707 C 70.88229370117188 7.431066513061523 75.80186462402344 10.74804019927979 80.02691650390625 14.97309303283691 C 84.25196075439453 19.19813346862793 87.56893157958984 24.11771965026855 89.88570404052734 29.59518623352051 C 92.28397369384766 35.26533508300781 93.5 41.28937149047852 93.5 47.5 C 93.5 53.71062850952148 92.28397369384766 59.73468017578125 89.88570404052734 65.40481567382812 C 87.56893157958984 70.88229370117188 84.25196075439453 75.80186462402344 80.02691650390625 80.02691650390625 C 75.80186462402344 84.25196075439453 70.88229370117188 87.56893157958984 65.40481567382812 89.88570404052734 C 59.73468017578125 92.28397369384766 53.71062850952148 93.5 47.5 93.5 Z" stroke="none"/>
                  <path d="M 47.5 3 C 41.49121475219727 3 35.66376876831055 4.176155090332031 30.17950439453125 6.495796203613281 C 24.88084411621094 8.736953735351562 20.12152099609375 11.94598388671875 16.03375244140625 16.03375244140625 C 11.94598388671875 20.12152099609375 8.736953735351562 24.88084411621094 6.495796203613281 30.17950439453125 C 4.176155090332031 35.66376876831055 3 41.49121475219727 3 47.5 C 3 53.50878524780273 4.176155090332031 59.33623123168945 6.495796203613281 64.82049560546875 C 8.736953735351562 70.11915588378906 11.94598388671875 74.87847900390625 16.03375244140625 78.96624755859375 C 20.12152099609375 83.05401611328125 24.88084411621094 86.26304626464844 30.17950439453125 88.50419616699219 C 35.66376876831055 90.82384490966797 41.49121475219727 92 47.5 92 C 53.50878524780273 92 59.33623123168945 90.82384490966797 64.82049560546875 88.50419616699219 C 70.11915588378906 86.26304626464844 74.87847900390625 83.05401611328125 78.96624755859375 78.96624755859375 C 83.05401611328125 74.87847900390625 86.26304626464844 70.11915588378906 88.50419616699219 64.82049560546875 C 90.82384490966797 59.33623123168945 92 53.50878524780273 92 47.5 C 92 41.49121475219727 90.82384490966797 35.66376876831055 88.50419616699219 30.17950439453125 C 86.26304626464844 24.88084411621094 83.05401611328125 20.12152099609375 78.96624755859375 16.03375244140625 C 74.87847900390625 11.94598388671875 70.11915588378906 8.736953735351562 64.82049560546875 6.495796203613281 C 59.33623123168945 4.176155090332031 53.50878524780273 3 47.5 3 M 47.5 0 C 73.7335205078125 0 95 21.2664794921875 95 47.5 C 95 73.7335205078125 73.7335205078125 95 47.5 95 C 21.2664794921875 95 0 73.7335205078125 0 47.5 C 0 21.2664794921875 21.2664794921875 0 47.5 0 Z" stroke="none" fill="#7145fe"/>
                </g>
              </g>
            </g>
          </g>
        </g>
      </g>
    </g>
    <g id="continuo" transform="translate(928 2410)">
      <g id="Grupo_1164274" data-name="Grupo 1164274">
        <g id="Grupo_1164269" data-name="Grupo 1164269">
          <path id="Trazado_999648" data-name="Trazado 999648" d="M46,58v2a1,1,0,0,1-1,1H17a1,1,0,0,1-1-1V58a1,1,0,0,1,1-1H45A1,1,0,0,1,46,58Z" fill="#969faa"/>
        </g>
        <g id="Grupo_1164270" data-name="Grupo 1164270">
          <path id="Trazado_999649" data-name="Trazado 999649" d="M22,51H40v6H22Z" fill="#aab2bd"/>
        </g>
        <g id="Grupo_1164271" data-name="Grupo 1164271">
          <path id="Trazado_999650" data-name="Trazado 999650" d="M52,43v4a4,4,0,0,1-4,4H14a4,4,0,0,1-4-4V43H52Z" fill="#ccd1d9"/>
        </g>
        <g id="Grupo_1164272" data-name="Grupo 1164272">
          <path id="Trazado_999651" data-name="Trazado 999651" d="M43,19v2H37.93a7,7,0,0,0-13.86,0H19V19l1.6-.57a11.577,11.577,0,0,1,.53-1.26l-.74-1.53,4.25-4.25,1.53.74a11.578,11.578,0,0,1,1.26-.53L28,10h6l.57,1.6a11.578,11.578,0,0,1,1.26.53l1.53-.74,4.25,4.25-.74,1.53a11.577,11.577,0,0,1,.53,1.26Z" fill="#ef7385"/>
        </g>
        <g id="Grupo_1164273" data-name="Grupo 1164273">
          <path id="Trazado_999652" data-name="Trazado 999652" d="M48,21H14a4,4,0,0,0-4,4V43H52V25A4,4,0,0,0,48,21Z" fill="#69d6f4"/>
        </g>
      </g>
      <g id="Grupo_1164275" data-name="Grupo 1164275">
        <path id="Trazado_999653" data-name="Trazado 999653" d="M48,20H44V18.292l-1.826-.645q-.093-.235-.2-.471l.836-1.748-5.242-5.244-1.749.836c-.155-.069-.313-.134-.471-.2L34.708,9H27.292l-.644,1.826q-.237.093-.471.2l-1.749-.836L19.186,15.43l.836,1.748c-.069.157-.135.314-.2.471L18,18.292V20H14a5.006,5.006,0,0,0-5,5V47a5.006,5.006,0,0,0,5,5h7v4H17a2,2,0,0,0-2,2v2a2,2,0,0,0,2,2H45a2,2,0,0,0,2-2V58a2,2,0,0,0-2-2H41V52h7a5.006,5.006,0,0,0,5-5V25a5.006,5.006,0,0,0-5-5Zm-28-.292,1.393-.491.156-.458a9.84,9.84,0,0,1,.477-1.146l.214-.435L21.6,15.844,24.843,12.6l1.335.638.436-.214a9.742,9.742,0,0,1,1.146-.477l.458-.157L28.708,11h4.584l.491,1.392.458.157a9.742,9.742,0,0,1,1.146.477l.436.214,1.335-.638L40.4,15.844l-.639,1.334.214.435a9.84,9.84,0,0,1,.477,1.146l.156.458L42,19.708V20H38.742a7.995,7.995,0,0,0-15.484,0H20ZM36.65,20H25.35a5.99,5.99,0,0,1,11.3,0ZM14,22H48a3,3,0,0,1,3,3V42H11V25a3,3,0,0,1,3-3ZM45,60H17V58H45Zm-6-4H23V52H39Zm9-6H14a3,3,0,0,1-3-3V44H51v3A3,3,0,0,1,48,50Z"/>
        <circle id="Elipse_12284" data-name="Elipse 12284" cx="1" cy="1" r="1" transform="translate(26 46)"/>
        <circle id="Elipse_12285" data-name="Elipse 12285" cx="1" cy="1" r="1" transform="translate(30 46)"/>
        <circle id="Elipse_12286" data-name="Elipse 12286" cx="1" cy="1" r="1" transform="translate(34 46)"/>
        <path id="Trazado_999654" data-name="Trazado 999654" d="M31,2A26.831,26.831,0,0,1,46.428,6.839a1,1,0,0,0,1.5-1.19l-2-5.019-1.857.74.875,2.2A29.029,29.029,0,0,0,14.428,5.2L15.573,6.84A26.819,26.819,0,0,1,31,2Z"/>
        <path id="Trazado_999655" data-name="Trazado 999655" d="M5.648,14.071l-5.019,2,.74,1.857,2.2-.875A29.038,29.038,0,0,0,5.2,47.572l1.641-1.145a27.012,27.012,0,0,1,0-30.855,1,1,0,0,0-1.191-1.5Z"/>
        <path id="Trazado_999656" data-name="Trazado 999656" d="M58.434,44.946A29.033,29.033,0,0,0,56.8,14.428l-1.641,1.145a27.012,27.012,0,0,1,0,30.855,1,1,0,0,0,1.19,1.5l5.019-2-.74-1.857Z"/>
        <path id="Trazado_999657" data-name="Trazado 999657" d="M22.754,31H39.246v2H22.754Z" transform="translate(-7.568 54.304) rotate(-75.936)"/>
        <path id="Trazado_999658" data-name="Trazado 999658" d="M36.581,37.814,44.721,32l-8.14-5.814-1.162,1.628L41.279,32l-5.86,4.186Z"/>
        <path id="Trazado_999659" data-name="Trazado 999659" d="M26.581,36.186,20.721,32l5.86-4.186-1.162-1.628L17.279,32l8.14,5.814Z"/>
      </g>
    </g>
  </g>
</svg>
