<svg xmlns="http://www.w3.org/2000/svg" xmlns:xlink="http://www.w3.org/1999/xlink" width="108" height="108" viewBox="0 0 108 108">
  <defs>
    <filter id="Trazado_982547" x="0" y="0" width="108" height="108" filterUnits="userSpaceOnUse">
      <feOffset dy="3" input="SourceAlpha"/>
      <feGaussianBlur stdDeviation="3" result="blur"/>
      <feFlood flood-opacity="0.161"/>
      <feComposite operator="in" in2="blur"/>
      <feComposite in="SourceGraphic"/>
    </filter>
  </defs>
  <g id="Grupo_1163411" data-name="Grupo 1163411" transform="translate(-196 -3938)">
    <g id="Grupo_1162112" data-name="Grupo 1162112" transform="translate(205 3944)">
      <g id="Grupo_1155782" data-name="Grupo 1155782">
        <g id="Grupo_1154033" data-name="Grupo 1154033">
          <g id="Grupo_1153177" data-name="Grupo 1153177">
            <g id="Grupo_1149598" data-name="Grupo 1149598">
              <g id="Grupo_1148770" data-name="Grupo 1148770">
                <g id="Grupo_1146954" data-name="Grupo 1146954">
                  <g transform="matrix(1, 0, 0, 1, -9, -6)" filter="url(#Trazado_982547)">
                    <g id="Trazado_982547-2" data-name="Trazado 982547" transform="translate(9 6)" fill="#f6fde5">
                      <path d="M 45.00000381469727 88.5 C 39.12688064575195 88.5 33.43022918701172 87.35007476806641 28.06830406188965 85.08217620849609 C 22.88852882385254 82.89131164550781 18.23630332946777 79.75458526611328 14.24085426330566 75.75914764404297 C 10.24541664123535 71.76370239257812 7.108691215515137 67.11147308349609 4.917829036712646 61.93170166015625 C 2.64992880821228 56.56977462768555 1.500003814697266 50.87312316894531 1.500003814697266 45 C 1.500003814697266 39.12687683105469 2.64992880821228 33.43022537231445 4.917829036712646 28.06830024719238 C 7.108691215515137 22.88852500915527 10.24541664123535 18.23629951477051 14.24085426330566 14.2408504486084 C 18.23630332946777 10.24541282653809 22.88852882385254 7.108687400817871 28.06830406188965 4.917825222015381 C 33.43022918701172 2.649924993515015 39.12688064575195 1.5 45.00000381469727 1.5 C 50.87312698364258 1.5 56.56977844238281 2.649924993515015 61.93170547485352 4.917825222015381 C 67.11148071289062 7.108687400817871 71.76370239257812 10.24541282653809 75.7591552734375 14.2408504486084 C 79.75459289550781 18.23629951477051 82.89131927490234 22.88852500915527 85.08217620849609 28.06830024719238 C 87.35008239746094 33.43022537231445 88.5 39.12687683105469 88.5 45 C 88.5 50.87312316894531 87.35008239746094 56.56977462768555 85.08217620849609 61.93170166015625 C 82.89131927490234 67.11147308349609 79.75459289550781 71.76370239257812 75.7591552734375 75.75914764404297 C 71.76370239257812 79.75458526611328 67.11148071289062 82.89131164550781 61.93170547485352 85.08217620849609 C 56.56977844238281 87.35007476806641 50.87312698364258 88.5 45.00000381469727 88.5 Z" stroke="none"/>
                      <path d="M 45.00000381469727 3 C 39.32871627807617 3 33.82865905761719 4.110054016113281 28.65263366699219 6.299339294433594 C 23.65166473388672 8.414573669433594 19.15969085693359 11.44334411621094 15.30152130126953 15.301513671875 C 11.44334411621094 19.15968322753906 8.414573669433594 23.65165710449219 6.299346923828125 28.65262985229492 C 4.110061645507812 33.82865524291992 3.000007629394531 39.32871246337891 3.000007629394531 45 C 3.000007629394531 50.67128753662109 4.110061645507812 56.17134475708008 6.299346923828125 61.34737396240234 C 8.414573669433594 66.34834289550781 11.44334411621094 70.84031677246094 15.30152130126953 74.698486328125 C 19.15969085693359 78.55665588378906 23.65166473388672 81.58542633056641 28.65263366699219 83.70066070556641 C 33.82865905761719 85.88994598388672 39.32871627807617 87 45.00000381469727 87 C 50.67129135131836 87 56.17134857177734 85.88994598388672 61.34737396240234 83.70066070556641 C 66.34834289550781 81.58542633056641 70.84031677246094 78.55665588378906 74.698486328125 74.698486328125 C 78.55666351318359 70.84031677246094 81.58543395996094 66.34834289550781 83.70066070556641 61.34737396240234 C 85.88994598388672 56.17134475708008 87 50.67128753662109 87 45 C 87 39.32871246337891 85.88994598388672 33.82865524291992 83.70066070556641 28.65262985229492 C 81.58543395996094 23.65165710449219 78.55666351318359 19.15968322753906 74.698486328125 15.301513671875 C 70.84031677246094 11.44334411621094 66.34834289550781 8.414573669433594 61.34737396240234 6.299339294433594 C 56.17134857177734 4.110054016113281 50.67129135131836 3 45.00000381469727 3 M 45.00000381469727 0 C 69.85281372070312 0 90 20.14718627929688 90 45 C 90 69.85281372070312 69.85281372070312 90 45.00000381469727 90 C 20.14718627929688 90 7.62939453125e-06 69.85281372070312 7.62939453125e-06 45 C 7.62939453125e-06 20.14718627929688 20.14718627929688 0 45.00000381469727 0 Z" stroke="none" fill="#618307"/>
                    </g>
                  </g>
                </g>
              </g>
            </g>
          </g>
        </g>
      </g>
    </g>
    <g id="desarrollador-de-software" transform="translate(218 3931.191)">
      <g id="Grupo_1163403" data-name="Grupo 1163403" transform="translate(1.25 37.571)">
        <path id="Trazado_997973" data-name="Trazado 997973" d="M12.3,91.9A2.326,2.326,0,0,0,10,94.324v33.133a2.272,2.272,0,0,0,2.3,2.168H57.284a2.272,2.272,0,0,0,2.3-2.168V110.377H57.494a1.713,1.713,0,0,1-1.712-1.714v-1.221a1.858,1.858,0,0,0-2.753-1.59l-1.058.611a1.712,1.712,0,0,1-2.34-.628l-1.971-3.413a1.714,1.714,0,0,1,.627-2.34l1.058-.61a1.879,1.879,0,0,0,0-3.18l-1.056-.61a1.714,1.714,0,0,1-.628-2.34l.833-1.443H12.3Z" transform="translate(-10 -91.901)" fill="#fff"/>
      </g>
      <g id="Grupo_1163404" data-name="Grupo 1163404" transform="translate(1.25 68.933)">
        <path id="Trazado_997974" data-name="Trazado 997974" d="M59.579,342.8v4.194a2.272,2.272,0,0,1-2.3,2.168H12.3a2.272,2.272,0,0,1-2.3-2.168V342.8Z" transform="translate(-10 -342.795)" fill="#ced3dd"/>
      </g>
      <g id="Grupo_1163408" data-name="Grupo 1163408" transform="translate(15.843 75.294)">
        <g id="Grupo_1163405" data-name="Grupo 1163405" transform="translate(1.461)">
          <path id="Trazado_997975" data-name="Trazado 997975" d="M153.583,400.3l-.772-6.621H142.8l-.772,6.621a3.6,3.6,0,0,1-3.576,3.188c-.061,0,.062,0,0,0h18.712c-.062,0,.061,0,0,0A3.6,3.6,0,0,1,153.583,400.3Z" transform="translate(-138.43 -393.683)" fill="#868eaf"/>
        </g>
        <g id="Grupo_1163406" data-name="Grupo 1163406" transform="translate(0 9.813)">
          <path id="Trazado_997976" data-name="Trazado 997976" d="M128.218,472.183h-1.479" transform="translate(-126.739 -472.183)" fill="#7ba8bd"/>
        </g>
        <g id="Grupo_1163407" data-name="Grupo 1163407" transform="translate(20.191 9.813)">
          <path id="Trazado_997977" data-name="Trazado 997977" d="M289.742,472.183h-1.479" transform="translate(-288.263 -472.183)" fill="#7ba8bd"/>
        </g>
      </g>
      <g id="Grupo_1163409" data-name="Grupo 1163409" transform="translate(38.68 31.059)">
        <path id="Trazado_997978" data-name="Trazado 997978" d="M310.294,50.1l1.057.611a1.878,1.878,0,0,1,0,3.179l-1.058.611a1.713,1.713,0,0,0-.627,2.34l1.972,3.414a1.713,1.713,0,0,0,2.34.628l1.058-.611a1.857,1.857,0,0,1,2.753,1.589v1.222A1.713,1.713,0,0,0,319.5,64.8h3.942a1.713,1.713,0,0,0,1.713-1.713V61.862a1.857,1.857,0,0,1,2.753-1.589l1.058.611a1.713,1.713,0,0,0,2.34-.628l1.972-3.414a1.713,1.713,0,0,0-.628-2.34l-1.057-.611a1.879,1.879,0,0,1,0-3.179l1.057-.611a1.713,1.713,0,0,0,.628-2.34l-1.972-3.415a1.712,1.712,0,0,0-2.34-.627l-1.058.61a1.857,1.857,0,0,1-2.753-1.589V41.522a1.713,1.713,0,0,0-1.713-1.713H319.5a1.713,1.713,0,0,0-1.713,1.713v1.222a1.857,1.857,0,0,1-2.753,1.589l-1.058-.61a1.712,1.712,0,0,0-2.34.627l-1.972,3.415A1.713,1.713,0,0,0,310.294,50.1Zm11.178-1.757a3.956,3.956,0,1,1-3.956,3.956A3.957,3.957,0,0,1,321.471,48.346Z" transform="translate(-309.436 -39.809)" fill="#ced3dd"/>
      </g>
      <g id="Grupo_1163410" data-name="Grupo 1163410" transform="translate(0 29.809)">
        <path id="Trazado_997979" data-name="Trazado 997979" d="M59.907,126.523a1.25,1.25,0,0,0-1.767.044L54.587,130.3a1.25,1.25,0,0,0,0,1.723l3.553,3.734a1.25,1.25,0,1,0,1.811-1.723l-2.733-2.872,2.733-2.872A1.25,1.25,0,0,0,59.907,126.523Z" transform="translate(-47.462 -114.132)"/>
        <path id="Trazado_997980" data-name="Trazado 997980" d="M195.391,135.8a1.262,1.262,0,0,0,1.767-.044l3.553-3.734a1.25,1.25,0,0,0,0-1.723l-3.553-3.734a1.25,1.25,0,1,0-1.811,1.723l2.733,2.872-2.733,2.872A1.25,1.25,0,0,0,195.391,135.8Z" transform="translate(-170.627 -114.132)"/>
        <path id="Trazado_997981" data-name="Trazado 997981" d="M121.616,135.959a1.262,1.262,0,0,0,1.72-.409l4.6-7.468a1.25,1.25,0,1,0-2.129-1.311l-4.6,7.468a1.25,1.25,0,0,0,.409,1.72Z" transform="translate(-105.893 -114.131)"/>
        <path id="Trazado_997982" data-name="Trazado 997982" d="M76.875,231.017H55.492a1.25,1.25,0,0,0,0,2.5H76.875a1.25,1.25,0,0,0,0-2.5Z" transform="translate(-47.462 -205.866)"/>
        <path id="Trazado_997983" data-name="Trazado 997983" d="M55.492,281.762a1.25,1.25,0,1,0,0,2.5H70.786a1.25,1.25,0,1,0,0-2.5Z" transform="translate(-47.462 -250.267)"/>
        <path id="Trazado_997984" data-name="Trazado 997984" d="M230.243,283.012a1.25,1.25,0,0,0,1.25,1.25h10.678a1.25,1.25,0,1,0,0-2.5H231.493A1.25,1.25,0,0,0,230.243,283.012Z" transform="translate(-201.462 -250.267)"/>
        <path id="Trazado_997985" data-name="Trazado 997985" d="M166.167,83.654a1.25,1.25,0,1,0,.553-1.574A1.259,1.259,0,0,0,166.167,83.654Z" transform="translate(-145.314 -75.414)"/>
        <path id="Trazado_997986" data-name="Trazado 997986" d="M270.337,233a1.25,1.25,0,1,0,.345-1.732A1.264,1.264,0,0,0,270.337,233Z" transform="translate(-236.364 -205.906)"/>
        <path id="Trazado_997987" data-name="Trazado 997987" d="M62.519,44.671l-1.056-.61a.631.631,0,0,1,0-1.014l1.057-.61A2.967,2.967,0,0,0,63.6,38.389l-1.972-3.415a2.994,2.994,0,0,0-4.047-1.084l-1.058.611a.615.615,0,0,1-.878-.507V32.772a2.966,2.966,0,0,0-2.963-2.963H48.744a2.966,2.966,0,0,0-2.963,2.963v1.222a.615.615,0,0,1-.878.506l-1.057-.61A2.994,2.994,0,0,0,39.8,34.974l-.778,1.347H27.6a1.25,1.25,0,1,0,0,2.5H37.621a2.993,2.993,0,0,0,1.291,3.616l1.057.61a.631.631,0,0,1,0,1.014l-1.06.611a2.967,2.967,0,0,0-1.083,4.047L39.8,52.131a3,3,0,0,0,4.048,1.086l1.057-.611a.615.615,0,0,1,.878.507v1.222A2.989,2.989,0,0,0,48.7,57.3l.878.054V67.683H2.5V39.994a1.078,1.078,0,0,1,1.045-1.173H16.379a1.25,1.25,0,1,0,0-2.5H3.545A3.573,3.573,0,0,0,0,39.994V73.126H0a3.53,3.53,0,0,0,3.545,3.418h16.72l-.609,5.229a2.344,2.344,0,0,1-2.33,2.08h0a.445.445,0,0,0-.051,0l-1.429,0a1.25,1.25,0,0,0,0,2.5h21.67a1.25,1.25,0,1,0,0-2.5l-1.429,0h-.054a2.344,2.344,0,0,1-2.33-2.08v0l-.609-5.226H48.533a3.53,3.53,0,0,0,3.546-3.418V57.3h.608a2.966,2.966,0,0,0,2.963-2.963V53.112a.615.615,0,0,1,.877-.507l1.058.612a3,3,0,0,0,4.047-1.085L63.6,48.718a2.966,2.966,0,0,0-1.085-4.047ZM49.579,70.183v2.943a1.025,1.025,0,0,1-1.045.918H3.545A1.025,1.025,0,0,1,2.5,73.126V70.183ZM31.215,82.058a4.84,4.84,0,0,0,.575,1.8H21.566a4.828,4.828,0,0,0,.574-1.8l.643-5.515h7.791Zm30.224-34.59-1.972,3.414a.465.465,0,0,1-.632.17l-1.058-.612a3.132,3.132,0,0,0-4.628,2.672v1.222a.464.464,0,0,1-.463.463H48.744a.467.467,0,0,1-.463-.463V53.112a3.132,3.132,0,0,0-4.629-2.672l-1.058.611a.468.468,0,0,1-.632-.17l-1.971-3.414a.464.464,0,0,1,.169-.632l1.059-.611a3.147,3.147,0,0,0,0-5.344l-1.057-.611a.472.472,0,0,1-.17-.632l1.971-3.414a.465.465,0,0,1,.633-.169l1.058.61a3.131,3.131,0,0,0,4.628-2.672V32.772a.464.464,0,0,1,.463-.463h3.942a.464.464,0,0,1,.463.463v1.222a3.131,3.131,0,0,0,4.628,2.672l1.058-.611a.465.465,0,0,1,.632.169l1.972,3.415a.464.464,0,0,1-.17.632l-1.056.61a3.148,3.148,0,0,0,0,5.344l1.057.611a.464.464,0,0,1,.17.632Z" transform="translate(0 -29.809)"/>
        <path id="Trazado_997988" data-name="Trazado 997988" d="M369.27,98.108a5.206,5.206,0,1,0,5.207,5.206A5.212,5.212,0,0,0,369.27,98.108Zm0,7.913a2.706,2.706,0,1,1,0-5.413,2.741,2.741,0,0,1,2.707,2.706A2.71,2.71,0,0,1,369.27,106.021Z" transform="translate(-318.555 -89.571)"/>
      </g>
    </g>
  </g>
</svg>
