<svg xmlns="http://www.w3.org/2000/svg" xmlns:xlink="http://www.w3.org/1999/xlink" width="113" height="113" viewBox="0 0 113 113">
  <defs>
    <filter id="Trazado_982547" x="0" y="0" width="113" height="113" filterUnits="userSpaceOnUse">
      <feOffset dy="3" input="SourceAlpha"/>
      <feGaussianBlur stdDeviation="3" result="blur"/>
      <feFlood flood-opacity="0.161"/>
      <feComposite operator="in" in2="blur"/>
      <feComposite in="SourceGraphic"/>
    </filter>
  </defs>
  <g id="Grupo_1163415" data-name="Grupo 1163415" transform="translate(-272 -4308)">
    <g id="Grupo_1162113" data-name="Grupo 1162113" transform="translate(281 4314)">
      <g id="Grupo_1152576" data-name="Grupo 1152576" transform="translate(0)">
        <g id="Grupo_1148633" data-name="Grupo 1148633">
          <g id="Grupo_1148525" data-name="Grupo 1148525">
            <g transform="matrix(1, 0, 0, 1, -9, -6)" filter="url(#Trazado_982547)">
              <g id="Trazado_982547-2" data-name="Trazado 982547" transform="translate(9 6)" fill="#f0ebfe">
                <path d="M 47.5 93.5 C 41.28937149047852 93.5 35.26533508300781 92.28397369384766 29.59518623352051 89.88570404052734 C 24.11771965026855 87.56893157958984 19.19813346862793 84.25196075439453 14.97309303283691 80.02691650390625 C 10.74804019927979 75.80186462402344 7.431066513061523 70.88229370117188 5.114293098449707 65.40481567382812 C 2.716026782989502 59.73468017578125 1.5 53.71062850952148 1.5 47.5 C 1.5 41.28937149047852 2.716026782989502 35.26533508300781 5.114293098449707 29.59518623352051 C 7.431066513061523 24.11771965026855 10.74804019927979 19.19813346862793 14.97309303283691 14.97309303283691 C 19.19813346862793 10.74804019927979 24.11771965026855 7.431066513061523 29.59518623352051 5.114293098449707 C 35.26533508300781 2.716026782989502 41.28937149047852 1.5 47.5 1.5 C 53.71062850952148 1.5 59.73468017578125 2.716026782989502 65.40481567382812 5.114293098449707 C 70.88229370117188 7.431066513061523 75.80186462402344 10.74804019927979 80.02691650390625 14.97309303283691 C 84.25196075439453 19.19813346862793 87.56893157958984 24.11771965026855 89.88570404052734 29.59518623352051 C 92.28397369384766 35.26533508300781 93.5 41.28937149047852 93.5 47.5 C 93.5 53.71062850952148 92.28397369384766 59.73468017578125 89.88570404052734 65.40481567382812 C 87.56893157958984 70.88229370117188 84.25196075439453 75.80186462402344 80.02691650390625 80.02691650390625 C 75.80186462402344 84.25196075439453 70.88229370117188 87.56893157958984 65.40481567382812 89.88570404052734 C 59.73468017578125 92.28397369384766 53.71062850952148 93.5 47.5 93.5 Z" stroke="none"/>
                <path d="M 47.5 3 C 41.49121475219727 3 35.66376876831055 4.176155090332031 30.17950439453125 6.495796203613281 C 24.88084411621094 8.736953735351562 20.12152099609375 11.94598388671875 16.03375244140625 16.03375244140625 C 11.94598388671875 20.12152099609375 8.736953735351562 24.88084411621094 6.495796203613281 30.17950439453125 C 4.176155090332031 35.66376876831055 3 41.49121475219727 3 47.5 C 3 53.50878524780273 4.176155090332031 59.33623123168945 6.495796203613281 64.82049560546875 C 8.736953735351562 70.11915588378906 11.94598388671875 74.87847900390625 16.03375244140625 78.96624755859375 C 20.12152099609375 83.05401611328125 24.88084411621094 86.26304626464844 30.17950439453125 88.50419616699219 C 35.66376876831055 90.82384490966797 41.49121475219727 92 47.5 92 C 53.50878524780273 92 59.33623123168945 90.82384490966797 64.82049560546875 88.50419616699219 C 70.11915588378906 86.26304626464844 74.87847900390625 83.05401611328125 78.96624755859375 78.96624755859375 C 83.05401611328125 74.87847900390625 86.26304626464844 70.11915588378906 88.50419616699219 64.82049560546875 C 90.82384490966797 59.33623123168945 92 53.50878524780273 92 47.5 C 92 41.49121475219727 90.82384490966797 35.66376876831055 88.50419616699219 30.17950439453125 C 86.26304626464844 24.88084411621094 83.05401611328125 20.12152099609375 78.96624755859375 16.03375244140625 C 74.87847900390625 11.94598388671875 70.11915588378906 8.736953735351562 64.82049560546875 6.495796203613281 C 59.33623123168945 4.176155090332031 53.50878524780273 3 47.5 3 M 47.5 0 C 73.7335205078125 0 95 21.2664794921875 95 47.5 C 95 73.7335205078125 73.7335205078125 95 47.5 95 C 21.2664794921875 95 0 73.7335205078125 0 47.5 C 0 21.2664794921875 21.2664794921875 0 47.5 0 Z" stroke="none" fill="#7145fe"/>
              </g>
            </g>
          </g>
        </g>
      </g>
    </g>
    <g id="pruebas_1_" data-name="pruebas (1)" transform="translate(289.997 4275.441)">
      <path id="Trazado_997989" data-name="Trazado 997989" d="M133.017,131.155v-1.091l.239-.046a.676.676,0,0,0,.553-.666v-2.366l.2-.057a12.464,12.464,0,0,0,2.5-1.035l.178-.1,1.672,1.672a.677.677,0,0,0,.866.077,15.344,15.344,0,0,0,3.853-3.853.677.677,0,0,0-.077-.865l-1.672-1.674.1-.178a12.211,12.211,0,0,0,1.034-2.495l.057-.2h2.364a.678.678,0,0,0,.667-.557,15.284,15.284,0,0,0,0-5.454.677.677,0,0,0-.667-.557h-2.366l-.057-.2a12.363,12.363,0,0,0-1.034-2.494l-.1-.178,1.671-1.671a.677.677,0,0,0,.078-.865,15.3,15.3,0,0,0-3.853-3.857.678.678,0,0,0-.866.077l-1.672,1.672-.178-.1a12.458,12.458,0,0,0-2.5-1.035l-.2-.057v-2.366a.677.677,0,0,0-.556-.667l-.235-.045V98.322h46.095v32.833Zm19.892-14.9a.678.678,0,0,0-.678.678v10.823a.678.678,0,0,0,.678.678h10.823a.678.678,0,0,0,.678-.678V116.932a.678.678,0,0,0-.678-.678Zm24.017,5.572v-1.355h-9.889v1.355Zm0-4.217v-1.355h-9.889v1.355Zm-24.017-16.564a.678.678,0,0,0-.678.678v10.827a.678.678,0,0,0,.678.678h10.823a.678.678,0,0,0,.678-.678V101.723a.678.678,0,0,0-.678-.678Zm24.017,5.572v-1.355h-9.889v1.355Zm0-4.217v-1.355h-9.889V102.4Z" transform="translate(-114.992 -33.511)" fill="#e9e9ff"/>
      <path id="Trazado_997990" data-name="Trazado 997990" d="M271.007,377.421h8.7v2.589h-8.7Z" transform="translate(-234.287 -274.796)" fill="#445ea0"/>
      <path id="Trazado_997991" data-name="Trazado 997991" d="M108.134,111.646a1.879,1.879,0,0,1-1.876-1.876v-2.681l.286.016c.293.016.579.025.849.025s.556-.008.849-.025l.286-.016v1.61a.678.678,0,0,0,.678.678h47.45a.679.679,0,0,0,.678-.678V74.51a.678.678,0,0,0-.678-.678h-47.45a.678.678,0,0,0-.678.678v2.137l-.286-.016c-.282-.016-.569-.023-.852-.023s-.566.008-.847.023l-.286.016V73.438a1.879,1.879,0,0,1,1.876-1.876h49.593a1.878,1.878,0,0,1,1.876,1.876V109.77a1.878,1.878,0,0,1-1.876,1.876Z" transform="translate(-91.859 -10.377)" fill="#445ea0"/>
      <path id="Trazado_997992" data-name="Trazado 997992" d="M211.763,411.128v-2.295a2.3,2.3,0,0,1,2.3-2.3h20.159a2.3,2.3,0,0,1,2.3,2.3v2.295Z" transform="translate(-183.07 -299.965)" fill="#293d7c"/>
      <path id="Trazado_997993" data-name="Trazado 997993" d="M67.522,181.711a7.382,7.382,0,1,1,7.38-7.38A7.39,7.39,0,0,1,67.522,181.711Zm-.458-3.055,2.221-8.3-1.309-.35-2.221,8.3Zm-5.667-4.8a.678.678,0,0,0,0,.959l2.738,2.733.957-.959-2.258-2.254,2.258-2.258-.958-.958Zm9.513,3.684,2.733-2.738a.678.678,0,0,0,0-.958l-2.734-2.733-.958.958,2.255,2.255-2.255,2.258Z" transform="translate(-51.988 -92.839)" fill="#e9e9ff"/>
      <path id="Trazado_997994" data-name="Trazado 997994" d="M25.909,146.6a13.99,13.99,0,0,1-1.69-.1l-.238-.029v-2.321a.674.674,0,0,0-.527-.661,11.082,11.082,0,0,1-3.439-1.426.677.677,0,0,0-.84.094l-1.64,1.64-.189-.148a13.959,13.959,0,0,1-2.392-2.389l-.148-.189,1.64-1.644a.674.674,0,0,0,.093-.84,11.018,11.018,0,0,1-1.426-3.438.674.674,0,0,0-.661-.527h-2.32l-.029-.239a14.342,14.342,0,0,1,0-3.379l.029-.239h2.32a.674.674,0,0,0,.661-.527,11.081,11.081,0,0,1,1.426-3.439.674.674,0,0,0-.095-.84l-1.64-1.64.148-.189a13.915,13.915,0,0,1,2.392-2.392l.189-.148,1.64,1.64a.678.678,0,0,0,.84.094,11.077,11.077,0,0,1,3.438-1.426.674.674,0,0,0,.527-.661v-2.321l.238-.029a14,14,0,0,1,3.38,0l.238.029v2.321a.674.674,0,0,0,.527.661,11.089,11.089,0,0,1,3.442,1.426.678.678,0,0,0,.84-.094l1.64-1.64.189.148a13.966,13.966,0,0,1,2.388,2.391l.148.189-1.64,1.64a.674.674,0,0,0-.094.841,10.989,10.989,0,0,1,1.425,3.437.674.674,0,0,0,.661.527h2.32l.029.238a13.938,13.938,0,0,1,0,3.38l-.029.238h-2.32a.674.674,0,0,0-.661.529,10.84,10.84,0,0,1-1.424,3.434.674.674,0,0,0,.093.842l1.64,1.644-.148.189a14,14,0,0,1-2.388,2.388l-.189.148-1.64-1.64a.677.677,0,0,0-.84-.094,11.089,11.089,0,0,1-3.442,1.426.674.674,0,0,0-.527.661v2.321l-.238.029A13.949,13.949,0,0,1,25.909,146.6Zm0-22.644a8.737,8.737,0,1,0,8.735,8.739A8.749,8.749,0,0,0,25.911,123.957Z" transform="translate(-10.377 -51.204)" fill="#0cb4fb"/>
      <path id="Trazado_997995" data-name="Trazado 997995" d="M284.84,137.9v-9.471h9.467V137.9Zm2.977-2.162a.675.675,0,0,0,.514.267h.026a.678.678,0,0,0,.507-.228l4.286-4.835-1.014-.9-3.738,4.217-1.312-1.729-1.08.819Z" transform="translate(-246.246 -59.537)" fill="#43cb8e"/>
      <path id="Trazado_997996" data-name="Trazado 997996" d="M284.84,250.145v-9.467h9.467v9.467Zm2.9-1.939,1.836-1.836,1.836,1.836.958-.958-1.836-1.836,1.836-1.836-.958-.958-1.836,1.836-1.836-1.836-.958.958,1.836,1.836-1.836,1.836Z" transform="translate(-246.246 -156.58)" fill="#ed524e"/>
      <path id="Trazado_997997" data-name="Trazado 997997" d="M24.54,81.492A9.008,9.008,0,1,0,15.534,90.5,9.018,9.018,0,0,0,24.54,81.492Zm-16.119,0A7.111,7.111,0,1,1,15.534,88.6,7.121,7.121,0,0,1,8.421,81.492ZM62.2,69.16H51.774v-1.9H62.2Zm3.664-9.6H16.275a3.507,3.507,0,0,0-3.5,3.5V66.2l-.016,0a.948.948,0,0,0-.779.933V69.3A12.682,12.682,0,0,0,9.43,70.36L7.9,68.832a.949.949,0,0,0-1.211-.109,15.528,15.528,0,0,0-3.926,3.926.949.949,0,0,0,.109,1.211L4.4,75.388a12.667,12.667,0,0,0-1.057,2.548H1.182a.949.949,0,0,0-.933.779,15.8,15.8,0,0,0,0,5.551.949.949,0,0,0,.933.779H3.344A12.628,12.628,0,0,0,4.4,87.594L2.872,89.126a.948.948,0,0,0-.107,1.212A15.565,15.565,0,0,0,6.69,94.259.948.948,0,0,0,7.9,94.15L9.43,92.621a12.68,12.68,0,0,0,2.548,1.057v2.163a.949.949,0,0,0,.779.933l.016,0v2.616a3.507,3.507,0,0,0,3.5,3.5H35.094v2.047h-4.1a3.929,3.929,0,0,0-3.925,3.925v2.973a.949.949,0,0,0,.949.949H54.128a.949.949,0,0,0,.949-.949v-2.973a3.929,3.929,0,0,0-3.925-3.925H47.046V102.9H65.868a3.507,3.507,0,0,0,3.5-3.5V63.062A3.506,3.506,0,0,0,65.868,59.559ZM13.137,92.02a10.8,10.8,0,0,1-3.355-1.391.949.949,0,0,0-1.175.132L7.136,92.232a13.657,13.657,0,0,1-2.345-2.343l1.471-1.474a.949.949,0,0,0,.131-1.176A10.753,10.753,0,0,1,5,83.885a.948.948,0,0,0-.925-.738H2a14.067,14.067,0,0,1,0-3.314h2.08A.949.949,0,0,0,5,79.1a10.8,10.8,0,0,1,1.392-3.355.949.949,0,0,0-.133-1.176L4.791,73.095a13.611,13.611,0,0,1,2.345-2.345L8.607,72.22a.949.949,0,0,0,1.175.132,10.809,10.809,0,0,1,3.355-1.391.949.949,0,0,0,.738-.925V67.955a13.727,13.727,0,0,1,3.314,0v2.081a.948.948,0,0,0,.738.925,10.819,10.819,0,0,1,3.359,1.391.949.949,0,0,0,1.175-.132l1.47-1.47a13.659,13.659,0,0,1,2.342,2.345L24.8,74.565a.948.948,0,0,0-.131,1.178,10.718,10.718,0,0,1,1.39,3.353.949.949,0,0,0,.925.738h2.081a13.664,13.664,0,0,1,0,3.314H26.986a.949.949,0,0,0-.926.74,10.571,10.571,0,0,1-1.389,3.349.949.949,0,0,0,.13,1.178l1.471,1.474a13.7,13.7,0,0,1-2.342,2.342l-1.47-1.47a.949.949,0,0,0-1.175-.132,10.817,10.817,0,0,1-3.359,1.391.949.949,0,0,0-.738.925v2.081a13.728,13.728,0,0,1-3.314,0V92.944a.948.948,0,0,0-.737-.925Zm15.055-2.895-1.528-1.53a12.451,12.451,0,0,0,1.057-2.55h2.161a.949.949,0,0,0,.933-.779,15.558,15.558,0,0,0,0-5.551.949.949,0,0,0-.933-.779H27.72a12.6,12.6,0,0,0-1.056-2.549l1.527-1.527a.949.949,0,0,0,.109-1.211,15.574,15.574,0,0,0-3.921-3.925.948.948,0,0,0-1.212.108L21.638,70.36A12.7,12.7,0,0,0,19.087,69.3V67.14a.949.949,0,0,0-.779-.933l-.012,0V65.082H63.848V97.373H18.3v-.6l.012,0a.949.949,0,0,0,.779-.933V93.678a12.693,12.693,0,0,0,2.552-1.057l1.528,1.528a.949.949,0,0,0,1.212.108A15.612,15.612,0,0,0,28.3,90.337.948.948,0,0,0,28.192,89.125ZM51.151,106.84a2.03,2.03,0,0,1,2.028,2.028v2.024H28.964v-2.024a2.03,2.03,0,0,1,2.028-2.028H51.151Zm-14.16-1.9V102.9h8.157v2.047Zm30.482-5.55A1.607,1.607,0,0,1,65.868,101H16.275a1.607,1.607,0,0,1-1.605-1.605V97c.288.016.576.025.864.025s.576-.009.864-.025v1.323a.949.949,0,0,0,.949.949H64.8a.949.949,0,0,0,.949-.949V64.133a.949.949,0,0,0-.949-.949H17.347a.949.949,0,0,0-.949.949v1.85a15.746,15.746,0,0,0-1.728,0V63.062a1.607,1.607,0,0,1,1.605-1.605H65.868a1.607,1.607,0,0,1,1.605,1.605V99.393ZM17.629,77.326l-2.361,8.823-1.833-.49L15.8,76.836Zm-4.141,6.423-1.34,1.343-2.93-2.924a.949.949,0,0,1,0-1.342L12.147,77.9l1.342,1.341L11.231,81.5ZM17.58,79.23l1.342-1.341,2.925,2.925a.949.949,0,0,1,0,1.341l-2.925,2.929L17.58,83.744l2.255-2.259Zm20.337.757H48.739a.949.949,0,0,0,.949-.949V68.212a.949.949,0,0,0-.949-.949H37.917a.949.949,0,0,0-.949.949V79.038A.948.948,0,0,0,37.917,79.987Zm.949-10.827h8.925V78.09H38.865ZM62.2,73.377H51.774v-1.9H62.2ZM37.917,95.192H48.739a.949.949,0,0,0,.949-.949V83.42a.949.949,0,0,0-.949-.949H37.917a.949.949,0,0,0-.949.949V94.243A.948.948,0,0,0,37.917,95.192Zm.949-10.823h8.925v8.925H38.865ZM46.505,87,44.67,88.832l1.836,1.836-1.342,1.341-1.836-1.836-1.836,1.836-1.342-1.341,1.836-1.836L40.151,87l1.342-1.341,1.836,1.836,1.836-1.836Zm15.7-2.627H51.774v-1.9H62.2Zm0,4.217H51.774v-1.9H62.2ZM45.867,70.122l1.42,1.259-4.466,5.038a.948.948,0,0,1-.71.319h-.036a.948.948,0,0,1-.72-.374l-1.975-2.6,1.511-1.147,1.276,1.682Z"/>
    </g>
  </g>
</svg>
