<svg xmlns="http://www.w3.org/2000/svg" xmlns:xlink="http://www.w3.org/1999/xlink" width="108" height="108" viewBox="0 0 108 108">
  <defs>
    <filter id="Trazado_982547" x="0" y="0" width="108" height="108" filterUnits="userSpaceOnUse">
      <feOffset dy="3" input="SourceAlpha"/>
      <feGaussianBlur stdDeviation="3" result="blur"/>
      <feFlood flood-opacity="0.161"/>
      <feComposite operator="in" in2="blur"/>
      <feComposite in="SourceGraphic"/>
    </filter>
  </defs>
  <g id="Grupo_1163426" data-name="Grupo 1163426" transform="translate(-616 -4812)">
    <g id="Grupo_1162117" data-name="Grupo 1162117" transform="translate(625 4818)">
      <g id="Grupo_1155782" data-name="Grupo 1155782" transform="translate(0)">
        <g id="Grupo_1154033" data-name="Grupo 1154033">
          <g id="Grupo_1153177" data-name="Grupo 1153177">
            <g id="Grupo_1149598" data-name="Grupo 1149598">
              <g id="Grupo_1148770" data-name="Grupo 1148770" transform="translate(0)">
                <g id="Grupo_1146954" data-name="Grupo 1146954">
                  <g transform="matrix(1, 0, 0, 1, -9, -6)" filter="url(#Trazado_982547)">
                    <g id="Trazado_982547-2" data-name="Trazado 982547" transform="translate(9 6)" fill="#f9f7fd">
                      <path d="M 45.00000381469727 88.5 C 39.12688064575195 88.5 33.43022918701172 87.35007476806641 28.06830406188965 85.08217620849609 C 22.88852882385254 82.89131164550781 18.23630332946777 79.75458526611328 14.24085426330566 75.75914764404297 C 10.24541664123535 71.76370239257812 7.108691215515137 67.11147308349609 4.917829036712646 61.93170166015625 C 2.64992880821228 56.56977462768555 1.500003814697266 50.87312316894531 1.500003814697266 45 C 1.500003814697266 39.12687683105469 2.64992880821228 33.43022537231445 4.917829036712646 28.06830024719238 C 7.108691215515137 22.88852500915527 10.24541664123535 18.23629951477051 14.24085426330566 14.2408504486084 C 18.23630332946777 10.24541282653809 22.88852882385254 7.108687400817871 28.06830406188965 4.917825222015381 C 33.43022918701172 2.649924993515015 39.12688064575195 1.5 45.00000381469727 1.5 C 50.87312698364258 1.5 56.56977844238281 2.649924993515015 61.93170547485352 4.917825222015381 C 67.11148071289062 7.108687400817871 71.76370239257812 10.24541282653809 75.7591552734375 14.2408504486084 C 79.75459289550781 18.23629951477051 82.89131927490234 22.88852500915527 85.08217620849609 28.06830024719238 C 87.35008239746094 33.43022537231445 88.5 39.12687683105469 88.5 45 C 88.5 50.87312316894531 87.35008239746094 56.56977462768555 85.08217620849609 61.93170166015625 C 82.89131927490234 67.11147308349609 79.75459289550781 71.76370239257812 75.7591552734375 75.75914764404297 C 71.76370239257812 79.75458526611328 67.11148071289062 82.89131164550781 61.93170547485352 85.08217620849609 C 56.56977844238281 87.35007476806641 50.87312698364258 88.5 45.00000381469727 88.5 Z" stroke="none"/>
                      <path d="M 45.00000381469727 3 C 39.32871627807617 3 33.82865905761719 4.110054016113281 28.65263366699219 6.299339294433594 C 23.65166473388672 8.414573669433594 19.15969085693359 11.44334411621094 15.30152130126953 15.301513671875 C 11.44334411621094 19.15968322753906 8.414573669433594 23.65165710449219 6.299346923828125 28.65262985229492 C 4.110061645507812 33.82865524291992 3.000007629394531 39.32871246337891 3.000007629394531 45 C 3.000007629394531 50.67128753662109 4.110061645507812 56.17134475708008 6.299346923828125 61.34737396240234 C 8.414573669433594 66.34834289550781 11.44334411621094 70.84031677246094 15.30152130126953 74.698486328125 C 19.15969085693359 78.55665588378906 23.65166473388672 81.58542633056641 28.65263366699219 83.70066070556641 C 33.82865905761719 85.88994598388672 39.32871627807617 87 45.00000381469727 87 C 50.67129135131836 87 56.17134857177734 85.88994598388672 61.34737396240234 83.70066070556641 C 66.34834289550781 81.58542633056641 70.84031677246094 78.55665588378906 74.698486328125 74.698486328125 C 78.55666351318359 70.84031677246094 81.58543395996094 66.34834289550781 83.70066070556641 61.34737396240234 C 85.88994598388672 56.17134475708008 87 50.67128753662109 87 45 C 87 39.32871246337891 85.88994598388672 33.82865524291992 83.70066070556641 28.65262985229492 C 81.58543395996094 23.65165710449219 78.55666351318359 19.15968322753906 74.698486328125 15.301513671875 C 70.84031677246094 11.44334411621094 66.34834289550781 8.414573669433594 61.34737396240234 6.299339294433594 C 56.17134857177734 4.110054016113281 50.67129135131836 3 45.00000381469727 3 M 45.00000381469727 0 C 69.85281372070312 0 90 20.14718627929688 90 45 C 90 69.85281372070312 69.85281372070312 90 45.00000381469727 90 C 20.14718627929688 90 7.62939453125e-06 69.85281372070312 7.62939453125e-06 45 C 7.62939453125e-06 20.14718627929688 20.14718627929688 0 45.00000381469727 0 Z" stroke="none" fill="#6c6384"/>
                    </g>
                  </g>
                </g>
              </g>
            </g>
          </g>
        </g>
      </g>
    </g>
    <g id="diagrama-de-flujo_1_" data-name="diagrama-de-flujo (1)" transform="translate(636.721 4831)">
      <g id="Grupo_1163424" data-name="Grupo 1163424">
        <g id="Grupo_1163416" data-name="Grupo 1163416">
          <path id="Trazado_997998" data-name="Trazado 997998" d="M45,56v4a2.006,2.006,0,0,1-2,2H29a2.006,2.006,0,0,1-2-2V56a2.006,2.006,0,0,1,2-2H43A2.006,2.006,0,0,1,45,56Z" fill="#5cd6b3"/>
        </g>
        <g id="Grupo_1163417" data-name="Grupo 1163417">
          <path id="Trazado_997999" data-name="Trazado 997999" d="M42,23v6H30V23H42Z" fill="#e6e9ed"/>
        </g>
        <g id="Grupo_1163418" data-name="Grupo 1163418">
          <path id="Trazado_998000" data-name="Trazado 998000" d="M16,26,9,31,2,26l7-5Z" fill="#fcd770"/>
        </g>
        <g id="Grupo_1163419" data-name="Grupo 1163419">
          <path id="Trazado_998001" data-name="Trazado 998001" d="M44,42l-8,5-8-5,8-5Z" fill="#fcd770"/>
        </g>
        <g id="Grupo_1163420" data-name="Grupo 1163420">
          <path id="Trazado_998002" data-name="Trazado 998002" d="M44,2V14H28V2Z" fill="#f0d0b4"/>
        </g>
        <g id="Grupo_1163421" data-name="Grupo 1163421">
          <circle id="Elipse_12239" data-name="Elipse 12239" cx="2" cy="2" r="2" transform="translate(7 56)" fill="#ff826e"/>
        </g>
        <g id="Grupo_1163422" data-name="Grupo 1163422">
          <circle id="Elipse_12240" data-name="Elipse 12240" cx="2" cy="2" r="2" transform="translate(58 6)" fill="#ff826e"/>
        </g>
        <g id="Grupo_1163423" data-name="Grupo 1163423">
          <circle id="Elipse_12241" data-name="Elipse 12241" cx="2" cy="2" r="2" transform="translate(58 40)" fill="#ff826e"/>
        </g>
      </g>
      <g id="Grupo_1163425" data-name="Grupo 1163425">
        <path id="Trazado_998003" data-name="Trazado 998003" d="M43,53H37V47.554L45.887,42,37,36.446V30h6V22H37V15h8V1H27V15h8v7H29v3H20v2h9v3h6v6.446L26.113,42,35,47.554V53H29a3,3,0,0,0-3,3v4a3,3,0,0,0,3,3H43a3,3,0,0,0,3-3V56A3,3,0,0,0,43,53ZM29,13V3H43V13Zm2,15V24H41v4ZM29.887,42,36,38.179,42.113,42,36,45.821ZM44,60a1,1,0,0,1-1,1H29a1,1,0,0,1-1-1V56a1,1,0,0,1,1-1H43a1,1,0,0,1,1,1Z"/>
        <path id="Trazado_998004" data-name="Trazado 998004" d="M18.293,54.707,20.586,57h-8.77A3,3,0,0,0,10,55.184V34H8V55.184A2.993,2.993,0,1,0,11.816,59h8.77l-2.293,2.293,1.414,1.414L24.414,58l-4.707-4.707ZM9,59a1,1,0,1,1,1-1A1,1,0,0,1,9,59Z"/>
        <path id="Trazado_998005" data-name="Trazado 998005" d="M61,39.184V10.816A2.993,2.993,0,1,0,57.184,7H47V9H57.184A3,3,0,0,0,59,10.816V39.185A3,3,0,0,0,57.184,41h-6.77l2.293-2.293-1.414-1.414L46.586,42l4.707,4.707,1.414-1.414L50.414,43h6.77A2.993,2.993,0,1,0,61,39.184ZM60,7a1,1,0,1,1-1,1A1,1,0,0,1,60,7Zm0,36a1,1,0,1,1,1-1A1,1,0,0,1,60,43Z"/>
        <path id="Trazado_998006" data-name="Trazado 998006" d="M17.721,26,9,19.771.279,26,9,32.229ZM9,22.229,14.279,26,9,29.771,3.721,26Z"/>
        <path id="Trazado_998007" data-name="Trazado 998007" d="M31,5H41V7H31Z"/>
        <path id="Trazado_998008" data-name="Trazado 998008" d="M31,9h6v2H31Z"/>
        <path id="Trazado_998009" data-name="Trazado 998009" d="M39,9h2v2H39Z"/>
        <path id="Trazado_998010" data-name="Trazado 998010" d="M48,57h2v2H48Z"/>
        <path id="Trazado_998011" data-name="Trazado 998011" d="M52,57h2v2H52Z"/>
        <path id="Trazado_998012" data-name="Trazado 998012" d="M56,57h2v2H56Z"/>
        <path id="Trazado_998013" data-name="Trazado 998013" d="M23,9h2v2H23Z"/>
        <path id="Trazado_998014" data-name="Trazado 998014" d="M15,9h2v2H15Z"/>
        <path id="Trazado_998015" data-name="Trazado 998015" d="M19,9h2v2H19Z"/>
      </g>
    </g>
  </g>
</svg>
