<svg xmlns="http://www.w3.org/2000/svg" xmlns:xlink="http://www.w3.org/1999/xlink" width="524.067" height="347.437" viewBox="0 0 524.067 347.437">
  <defs>
    <filter id="Trazado_999684" x="0" y="0" width="524.067" height="347.437" filterUnits="userSpaceOnUse">
      <feOffset dy="3" input="SourceAlpha"/>
      <feGaussianBlur stdDeviation="3" result="blur"/>
      <feFlood flood-opacity="0.161"/>
      <feComposite operator="in" in2="blur"/>
      <feComposite in="SourceGraphic"/>
    </filter>
  </defs>
  <g id="Grupo_1164281" data-name="Grupo 1164281" transform="translate(-679.346 -6301.302)">
    <g transform="matrix(1, 0, 0, 1, 679.35, 6301.3)" filter="url(#Trazado_999684)">
      <path id="Trazado_999684-2" data-name="Trazado 999684" d="M624.91,687.359c-10.8-30.471-3.011-69.523-24.25-93.9-19.906-22.853-57.4-20.212-84.1-34.57-33.086-17.781-38.526-61.341-116.6-57.265-77.033,4.021-94.112,53.322-120.738,75.327-24.242,20.044-65.557,17.411-84.1,42.826-17.76,24.351-5.541,60.464-14.447,89.258-6.569,21.241-27.022,38.172-28.379,60.363-1.815,29.791,15.868,61.4,36.637,61.4h430.3c25.948,0,41.438-42.672,38.691-71.2-2.526-26.356-24.175-47.277-33.018-72.231" transform="translate(-143.17 -495.35)" fill="#c0f0ff"/>
    </g>
    <path id="Trazado_999685" data-name="Trazado 999685" d="M436.441,764.8v113.1l6.359,3.226L606.606,695.474l-6.352-3.231Z" transform="translate(336.745 5672.031)" fill="#6058c1"/>
    <path id="Trazado_999686" data-name="Trazado 999686" d="M1134.63,1506.876h23.27l1.982-4.253,15.752,4.253h45.329l.7-30.827-22.491-10.989Z" transform="translate(-153.068 5129.862)" fill="#374097"/>
    <rect id="Rect치ngulo_412319" data-name="Rect치ngulo 412319" width="4.045" height="28.04" transform="translate(856.978 6608.699)" fill="#c44a61"/>
    <path id="Trazado_999687" data-name="Trazado 999687" d="M688.78,1435.046l57.806,28.04h45.861V1402.64L688.78,1424.982Z" transform="translate(159.717 5173.653)" fill="#de546e"/>
    <path id="Trazado_999688" data-name="Trazado 999688" d="M1036.13,1383.242h32.877l124.705-84.358V1288.83L1036.13,1322.8Z" transform="translate(-83.966 5253.497)" fill="#d35069"/>
    <path id="Trazado_999689" data-name="Trazado 999689" d="M688.78,1288.117l78.553,38.1h43.12l139.577-94.412-95.454-24.258Z" transform="translate(159.717 5310.518)" fill="#f5829c"/>
    <path id="Trazado_999690" data-name="Trazado 999690" d="M962.095,1505.362l27.859-15.991v-6.837L962.095,1480Z" transform="translate(-32.026 5119.382)" fill="#449aa7"/>
    <rect id="Rect치ngulo_412320" data-name="Rect치ngulo 412320" width="6.745" height="28.04" transform="translate(850.233 6608.699)" fill="#de546e"/>
    <path id="Trazado_999691" data-name="Trazado 999691" d="M807.809,1472.849l46.047,22.706v-25.363l-46.047-4.172Z" transform="translate(76.212 5129.189)" fill="#49a6b4"/>
    <path id="Trazado_999692" data-name="Trazado 999692" d="M807.809,1430.844l46.047,22.7,27.859-15.991-45.141-21.671Z" transform="translate(76.212 5164.365)" fill="#53bccc"/>
    <path id="Trazado_999693" data-name="Trazado 999693" d="M835.71,1441.7l17.09,8.2,20.922-10.9-16.855-8.312Z" transform="translate(56.639 5153.975)" fill="#91e6f1"/>
    <path id="Trazado_999694" data-name="Trazado 999694" d="M961,1467.621l4.114,1.916,5.041-2.549-4.06-1.928Z" transform="translate(-31.26 5129.862)" fill="#91e6f1"/>
    <path id="Trazado_999695" data-name="Trazado 999695" d="M986.376,1479.984l4.1,1.913,5.047-2.54-4.065-1.937Z" transform="translate(-49.061 5121.191)" fill="#91e6f1"/>
    <path id="Trazado_999696" data-name="Trazado 999696" d="M997.237,1414.8l33.263,14.024V1404.86l-33.263,7.384Z" transform="translate(-56.68 5172.096)" fill="#3b67b9"/>
    <path id="Trazado_999697" data-name="Trazado 999697" d="M1140.17,1439.336s9.932-.9,14.053.509c2.554.88,16.608,3.481,26.99,5.343l15.643-10.59-44.571-5.325Z" transform="translate(-156.955 5154.969)" fill="#e4738d"/>
    <path id="Trazado_999698" data-name="Trazado 999698" d="M1258.18,1363.3s9.935-.9,14.056.517c2.554.88,16.608,3.474,26.989,5.333l15.643-10.582-44.563-5.323Z" transform="translate(-239.744 5208.305)" fill="#e4738d"/>
    <path id="Trazado_999699" data-name="Trazado 999699" d="M1108.69,1398.526l58.034-34.31v-2.546l-58.034,12.89Z" transform="translate(-134.87 5202.396)" fill="#3863b1"/>
    <path id="Trazado_999700" data-name="Trazado 999700" d="M997.237,1353.356l33.263,14.024,58.034-34.3-29.416-12.162Z" transform="translate(-56.68 5230.984)" fill="#4b87ed"/>
    <path id="Trazado_999701" data-name="Trazado 999701" d="M457.748,888.716l163.806-72.545V703.07L457.748,775.62Z" transform="translate(321.797 5664.435)" fill="#8a8aff"/>
    <path id="Trazado_999702" data-name="Trazado 999702" d="M557.822,1244.36v40.5l5.158,3.1,54.718-64.734-5.155-3.1Z" transform="translate(251.59 5301.7)" fill="#ef5e2d"/>
    <path id="Trazado_999703" data-name="Trazado 999703" d="M575.1,1295.254,629.822,1271V1230.52L575.1,1254.751Z" transform="translate(239.466 5294.404)" fill="#ff7540"/>
    <path id="Trazado_999704" data-name="Trazado 999704" d="M1025.99,830.442V872.77l5.163,2.576,60.926-69.307-5.163-2.579Z" transform="translate(-76.852 5594.006)" fill="#dbbc42"/>
    <path id="Trazado_999705" data-name="Trazado 999705" d="M1043.29,881.407l60.926-26.99V812.1l-60.926,26.982Z" transform="translate(-88.989 5587.945)" fill="#fff34d"/>
    <path id="Trazado_999706" data-name="Trazado 999706" d="M1025.99,651.282v31.009l5.163,2.579,41.383-49.351-5.154-2.576Z" transform="translate(-76.852 5713.631)" fill="#c85473"/>
    <path id="Trazado_999707" data-name="Trazado 999707" d="M1043.29,690.927l41.383-18.338V641.576l-41.383,18.338Z" transform="translate(-88.989 5707.576)" fill="#f5678d"/>
    <path id="Trazado_999708" data-name="Trazado 999708" d="M771.739,543.241v36.484l5.155,2.584,56.347-61.451-5.155-2.576Z" transform="translate(101.517 5794.073)" fill="#2e91a0"/>
    <path id="Trazado_999709" data-name="Trazado 999709" d="M789.012,588.365l56.347-24.959V526.914l-56.347,24.962Z" transform="translate(89.399 5788.017)" fill="#3ab9cc"/>
    <path id="Trazado_999710" data-name="Trazado 999710" d="M1345.82,866.971,1396.7,924.61l5.157-3.1v-33.2l-50.877-24.45Z" transform="translate(-301.228 5551.627)" fill="#3b67b9"/>
    <path id="Trazado_999711" data-name="Trazado 999711" d="M1345.82,907.461,1396.7,931.9V898.7l-50.877-24.435Z" transform="translate(-301.228 5544.333)" fill="#519fff"/>
    <path id="Trazado_999712" data-name="Trazado 999712" d="M1117.619,1342.04c3.464,5.108-5.471,5.835-9.848,8.752s-19.342-4.376-26.272-3.644-18.237,7.657-16.6,16.231c1.009,5.256,10.31,7.912,17.356,9.168l53.633-31.7-21.419-8.859c-2.822,2.468.279,5.816,3.15,10.048" transform="translate(-104.036 5223.216)" fill="#467cdb"/>
    <path id="Trazado_999713" data-name="Trazado 999713" d="M1256.5,1326.405c-2.364-.193-9.378,4.052-11.979,7.449-.64.833.662,1.466,1.681,1.212,1.891-.472,6.137-2.91,9.44-3.511,1.2-.218,3.528.015,2.692.346a22.959,22.959,0,0,0-5.076,2.771c-1.677,1.187-1.043,2.878.608,2.576,1.713-.309,2.826-1.142,4.554-.942,1.157.131,2.037,1.506,3.7,1.353,1.429-.131,3.343-1.521,4.725-1.15a53.032,53.032,0,0,1,8.295,3.672l2.478-9.893a87.571,87.571,0,0,1-10.018-1.56,75.355,75.355,0,0,0-11.1-2.324" transform="translate(-230.043 5227.14)" fill="#fdbc9d"/>
    <path id="Trazado_999714" data-name="Trazado 999714" d="M1383.04,1188.816l1.552,22.829,16.9-6.575-1.677-17.8Z" transform="translate(-327.339 5324.746)" fill="#fdbc9d"/>
    <path id="Trazado_999715" data-name="Trazado 999715" d="M1374.4,1245.415l1.674,6.321,23.479-11.353-2.973-5.163Z" transform="translate(-321.278 5291.106)" fill="#ffae2c"/>
    <path id="Trazado_999716" data-name="Trazado 999716" d="M1356.59,1085.551s2.493-5.249-1.543-9.291c-8.938-8.938-16.966-4.911-24.126-7.225-2.332-.749-2.608-2.732-7.094-1.929-3.3.586-3.35,5.155-3.35,5.155a8.574,8.574,0,0,0-7.872,5.032c-2.037,4.03-1.652,9.185,4.755,12.056,2.4,1.08,5.18-.317,5.18-.317,7.385,5.595,12.641,13.49,22.188,16.771a27.846,27.846,0,0,1,2.062,7.48c1.59-.255,3.179-.146,4.769-1.288,0,0,.663-4.223,1.906-6.253,1.929-3.147,5.988-6.629,6.4-10.913.618-6.453-3.271-9.277-3.271-9.277" transform="translate(-277.157 5409.178)" fill="#2c2e68"/>
    <path id="Trazado_999717" data-name="Trazado 999717" d="M1385.013,1212.407c5.7-3.575,8.4-9.261,10.742-15.206l-11.507,3.914Z" transform="translate(-328.188 5317.778)" fill="#c19078"/>
    <path id="Trazado_999718" data-name="Trazado 999718" d="M1366.488,1146.521c-2.121,0-2.91,4.06-2.91,4.06s-2.168,2.238-1.735.848a8.263,8.263,0,0,0-1.157-6.97c-.967-1.288-3.212-.979-4.322-2.129-1.09-1.12-.294-2.878-1.938-4.252-2.539-2.131-9.932.255-9.932.255s-4.161,10.889.578,21.9c1.582,3.674,6.629,5.511,11.314,4.013,3.751-1.2,6.137-3.8,8.49-8.236.3-.578.346,1.568,1.735.9,3.127-1.5,5.12-10.374-.123-10.389" transform="translate(-299.112 5359.877)" fill="#fdbc9d"/>
    <path id="Trazado_999719" data-name="Trazado 999719" d="M1419.748,1176.831a1.283,1.283,0,0,0-.947.215.322.322,0,0,0-.094.447.326.326,0,0,0,.455.092.539.539,0,0,1,.455-.121.688.688,0,0,1,.4.27,2.83,2.83,0,0,1,.51,1.488,2.038,2.038,0,0,1-.4,1.451c-.284.309-.717.447-1.55.146a.32.32,0,0,0-.418.193.332.332,0,0,0,.193.418,2.024,2.024,0,0,0,2.247-.309,2.624,2.624,0,0,0,.564-1.929,3.271,3.271,0,0,0-.658-1.869,1.363,1.363,0,0,0-.756-.491" transform="translate(-351.963 5332.083)" fill="#c19078"/>
    <path id="Trazado_999720" data-name="Trazado 999720" d="M1384.482,1259.17c-1.852-8.352-11.947-11.175-11.947-11.175s-19.579,6.53-26.495,15.782a20.891,20.891,0,0,0-3.558,8.392c-3.358,16.622,1.212,34.328-2.826,50.8-.331,1.357-1.659,2.431-1.728,3.827-.062,1.157,1.1,2.129,1.088,3.289-.007,1.644-2.168,3.093-1.637,4.646,1.553,4.507,7.133,8.04,11.67,10.765,4.314,2.586,9.254,6.307,14.249,9.1h20.63c14.232-13.369,1.7-42.912,1.976-63.735.136-10.574,1.079-20.459-1.422-31.689" transform="translate(-295.247 5282.144)" fill="#fff34d"/>
    <path id="Trazado_999721" data-name="Trazado 999721" d="M1364.107,1317.77a16.143,16.143,0,0,0-6.181,1.372,22.831,22.831,0,0,0-6.97,5.281c-1.775,12.456.232,25.437-.779,37.962a25.662,25.662,0,0,0,3.9-5.417,24.2,24.2,0,0,0,2.485.95s20.091-18.1,18.331-29.558c-.805-5.236-4.285-10.6-10.782-10.59" transform="translate(-304.285 5233.193)" fill="#dfc343"/>
    <path id="Trazado_999722" data-name="Trazado 999722" d="M1143.247,1391.926s-28.033,1.474-39.594.185c-5.256-.586-10.55-5.18-14.763-5.828-3.721-.578-13.754,7.017-17.08,11.539-1.375,1.852,1.048,2.332,2.361,1.768,2.354-1.011,6.621-3.3,9.168-3.066,2.208.2,4.817,3.39,6.908,4.107,3.459,1.175,5.919.287,9.415.88,15.166,2.6,26.473,4.74,43.531,7.039,3.179.416,7.224,1.081,10.288-1.422,5.063-4.112,7.771-12.177,7.771-12.177l-13.66-9.694Z" transform="translate(-108.71 5185.848)" fill="#fdbc9d"/>
    <path id="Trazado_999723" data-name="Trazado 999723" d="M1332.833,1306.179c-8.847,3.7-18.786,21.795-18.786,21.795,4.183,7.655,9.138,14.37,17.418,16.963,0,0,20.091-18.091,18.331-29.551-1.026-6.694-6.437-13.615-16.964-9.207" transform="translate(-278.938 5242.299)" fill="#fff34d"/>
    <path id="Trazado_999724" data-name="Trazado 999724" d="M1484.2,1309.354c-1.513-1.16-3.5-1.528-5.289-2.193a7.847,7.847,0,0,0-2.569-.47,11.075,11.075,0,0,0-5.689,1.5c-10.758,6.359-18.284,11.3-26.718,16.286-5.528,3.256-9.571,5.4-10.582,12.951-2.448,18.26-6.461,45.034-8.528,58.348h52.844c2.015-19.527,5.61-53.185,8.851-76.871.439-3.243,0-7.765-2.321-9.546" transform="translate(-356.657 5240.968)" fill="#3382af"/>
    <path id="Trazado_999725" data-name="Trazado 999725" d="M1468.715,1384.7c-2.383.062-4.614.888-5.5,2.386a.389.389,0,0,0,.124.541.4.4,0,0,0,.539-.141c.648-1.095,2.656-1.96,4.863-2.012a7.455,7.455,0,0,1,5.974,2.361c1.936,2.346,1.914,5.519,1.736,8.48-1.041,17.476-6.374,51.588-6.374,51.588a.38.38,0,0,0,.317.463.393.393,0,0,0,.447-.339s5.341-34.1,6.389-51.664c.17-2.987.232-6.406-1.914-9.022a8.22,8.22,0,0,0-6.6-2.641" transform="translate(-383.542 5186.238)" fill="#29628d"/>
    <path id="Trazado_999726" data-name="Trazado 999726" d="M1544,1332.45a.425.425,0,0,0-.218.062l-32.631,19.735a.388.388,0,1,0,.4.662l32.631-19.735a.39.39,0,0,0-.185-.724" transform="translate(-417.084 5222.895)" fill="#29628d"/>
    <path id="Trazado_999727" data-name="Trazado 999727" d="M909.839,1284.859c10.4-1.82,18.786-7.84,25.17-5.286s14.694,1.411,22.442-5.293,14.093-8.344,10.76-11.677c-3.83-3.35,16.3-8.352,15.69-19.132l-79.349,38.551c.633,2.092,2.176,3.378,5.286,2.838" transform="translate(8.342 5285.318)" fill="#e4738d"/>
    <path id="Trazado_999728" data-name="Trazado 999728" d="M1037.08,1329.73l21.086-10.321v-2.059l-21.086,10.318Z" transform="translate(-84.632 5233.488)" fill="#3b67b9"/>
    <path id="Trazado_999729" data-name="Trazado 999729" d="M1018.143,1278.279c-.087-2.106,0-6.322,0-6.322l-18.786,7.479s-.215,5.256-.208,7.712c.007,2.539.124,4.885,1.936,5.865,2.833,1.536,9.385,2.809,9.385,2.809l21.085-10.318s-7.647-1.5-10.96-2.841c-1.557-.626-2.354-1.9-2.452-4.384" transform="translate(-58.022 5265.333)" fill="#4b87ed"/>
    <path id="Trazado_999730" data-name="Trazado 999730" d="M994.247,1306.378c0-3.761.091-9.378.084-9.356l-2.314.094s-.072,5.518,0,10.357c.03,1.822,1.048,4.035,2.739,4.737a91.664,91.664,0,0,0,10.688,3.259v-2.062a86.716,86.716,0,0,1-9.277-2.969c-1.367-.609-1.921-2.564-1.921-4.06" transform="translate(-52.996 5247.75)" fill="#3b67b9"/>
    <path id="Trazado_999731" data-name="Trazado 999731" d="M457.748,791.317l163.806-72.564V703.07L457.748,775.62Z" transform="translate(321.797 5664.435)" fill="#7a7ae2"/>
    <path id="Trazado_999732" data-name="Trazado 999732" d="M539,989.756l25.924-11.486v-4.6L539,985.154Z" transform="translate(264.795 5474.597)" fill="#a6bfff"/>
    <path id="Trazado_999733" data-name="Trazado 999733" d="M649.189,954.9l12.511-5.54v-4.6L649.189,950.3Z" transform="translate(187.492 5494.88)" fill="#a6bfff"/>
    <path id="Trazado_999734" data-name="Trazado 999734" d="M808.248,880.429l16.378-7.254v-4.6l-16.378,7.257Z" transform="translate(75.904 5548.326)" fill="#a6bfff"/>
    <path id="Trazado_999735" data-name="Trazado 999735" d="M717.485,916.734l20.121-8.906v-4.6l-20.121,8.916Z" transform="translate(139.579 5524.015)" fill="#a6bfff"/>
    <path id="Trazado_999736" data-name="Trazado 999736" d="M891.646,849.517l10.582-4.683v-4.6l-10.582,4.693Z" transform="translate(17.397 5568.208)" fill="#a6bfff"/>
    <path id="Trazado_999737" data-name="Trazado 999737" d="M497.272,1021.176a2.975,2.975,0,0,0-2.833,2.94,2.7,2.7,0,0,0,2.833,2.717,2.968,2.968,0,0,0,2.824-2.942,2.69,2.69,0,0,0-2.824-2.715" transform="translate(296.056 5441.269)" fill="#a6bfff"/>
    <path id="Trazado_999738" data-name="Trazado 999738" d="M497.272,1075.22a2.97,2.97,0,0,0-2.833,2.94,2.7,2.7,0,0,0,2.833,2.717,2.975,2.975,0,0,0,2.824-2.95,2.7,2.7,0,0,0-.826-1.958,2.659,2.659,0,0,0-2-.749" transform="translate(296.056 5403.357)" fill="#a6bfff"/>
    <path id="Trazado_999739" data-name="Trazado 999739" d="M497.272,1128.515a2.978,2.978,0,0,0-2.833,2.95,2.7,2.7,0,0,0,2.833,2.707,2.954,2.954,0,0,0,2.824-2.94,2.7,2.7,0,0,0-2.824-2.717" transform="translate(296.056 5365.967)" fill="#a6bfff"/>
    <path id="Trazado_999740" data-name="Trazado 999740" d="M497.272,1180.184a2.969,2.969,0,0,0-2.833,2.932,2.7,2.7,0,0,0,2.833,2.717,2.963,2.963,0,0,0,2.824-2.94,2.681,2.681,0,0,0-2.824-2.709" transform="translate(296.056 5329.718)" fill="#a6bfff"/>
    <path id="Trazado_999741" data-name="Trazado 999741" d="M539,1045.282l23.733-10.511v-4.59L539,1040.692Z" transform="translate(264.795 5434.952)" fill="#a6bfff"/>
    <path id="Trazado_999742" data-name="Trazado 999742" d="M643.134,1013.639l9.8-4.337v-4.6l-9.8,4.348Z" transform="translate(191.74 5452.827)" fill="#a6bfff"/>
    <path id="Trazado_999743" data-name="Trazado 999743" d="M697.595,983.624l15.475-6.861v-4.594l-15.475,6.854Z" transform="translate(153.533 5475.649)" fill="#a6bfff"/>
    <path id="Trazado_999744" data-name="Trazado 999744" d="M907.634,900.67l5.81-2.577V893.51l-5.81,2.561Z" transform="translate(6.181 5530.832)" fill="#a6bfff"/>
    <path id="Trazado_999745" data-name="Trazado 999745" d="M783.61,930.74,813.277,917.6V913L783.61,926.147Z" transform="translate(93.189 5517.157)" fill="#a6bfff"/>
    <path id="Trazado_999746" data-name="Trazado 999746" d="M650.921,1056.584l16.378-7.252v-4.6l-16.378,7.258Z" transform="translate(186.277 5424.744)" fill="#a6bfff"/>
    <path id="Trazado_999747" data-name="Trazado 999747" d="M539,1099.472l22.828-10.112v-4.59L539,1094.879Z" transform="translate(264.795 5396.654)" fill="#a6bfff"/>
    <path id="Trazado_999748" data-name="Trazado 999748" d="M902.018,939.957v4.591l7.486-3.318,9.695-4.292v-4.591l-9.695,4.292Z" transform="translate(10.12 5503.586)" fill="#a6bfff"/>
    <path id="Trazado_999749" data-name="Trazado 999749" d="M797.859,984.661,820.818,974.5v-4.6L797.859,980.07Z" transform="translate(83.193 5477.242)" fill="#a6bfff"/>
    <path id="Trazado_999750" data-name="Trazado 999750" d="M614.172,1135.1l7.741-3.429v-4.6l-7.741,3.426Z" transform="translate(212.058 5366.979)" fill="#a6bfff"/>
    <path id="Trazado_999751" data-name="Trazado 999751" d="M672.949,1098.736l17.676-7.826v-4.59l-17.676,7.825Z" transform="translate(170.823 5395.567)" fill="#a6bfff"/>
    <path id="Trazado_999752" data-name="Trazado 999752" d="M539,1158.212l17.535-7.772v-4.59L539,1153.613Z" transform="translate(264.795 5353.804)" fill="#a6bfff"/>
    <path id="Trazado_999753" data-name="Trazado 999753" d="M848.849,1025.519l13.159-5.835V1015.1l-13.159,5.826Z" transform="translate(47.421 5445.531)" fill="#a6bfff"/>
    <path id="Trazado_999754" data-name="Trazado 999754" d="M758.965,1058.337l19.866-8.8v-4.6l-19.866,8.8Z" transform="translate(110.479 5424.597)" fill="#a6bfff"/>
    <path id="Trazado_999755" data-name="Trazado 999755" d="M675.128,1155.025l13.8-6.112v-4.593l-13.8,6.121Z" transform="translate(169.295 5354.876)" fill="#a6bfff"/>
    <path id="Trazado_999756" data-name="Trazado 999756" d="M539,1196.12l32.246-14.278v-4.6L539,1191.524Z" transform="translate(264.795 5331.782)" fill="#a6bfff"/>
    <path id="Trazado_999757" data-name="Trazado 999757" d="M749.446,1123.845l12.125-5.363v-4.6l-12.125,5.372Z" transform="translate(117.157 5376.232)" fill="#a6bfff"/>
    <path id="Trazado_999758" data-name="Trazado 999758" d="M818.181,1092.192l13.282-5.879v-4.6l-13.282,5.888Z" transform="translate(68.936 5398.801)" fill="#a6bfff"/>
    <path id="Trazado_999759" data-name="Trazado 999759" d="M890.792,1062.605l10.837-4.811v-4.584l-10.837,4.8Z" transform="translate(17.996 5418.794)" fill="#a6bfff"/>
    <path id="Trazado_999760" data-name="Trazado 999760" d="M497.272,1232.105a2.978,2.978,0,0,0-2.833,2.949,2.7,2.7,0,0,0,2.833,2.707,2.985,2.985,0,0,0,2-.9,2.946,2.946,0,0,0,.826-2.037,2.7,2.7,0,0,0-2.824-2.717" transform="translate(296.056 5293.293)" fill="#a6bfff"/>
    <path id="Trazado_999761" data-name="Trazado 999761" d="M728.065,1029.365a2.965,2.965,0,0,0-2.826,2.942,2.751,2.751,0,0,0,.826,1.968,2.684,2.684,0,0,0,2,.74,2.958,2.958,0,0,0,2.831-2.932,2.7,2.7,0,0,0-2.831-2.718" transform="translate(134.139 5435.525)" fill="#a6bfff"/>
    <path id="Trazado_999762" data-name="Trazado 999762" d="M760.917,1012.735a2.966,2.966,0,0,0-2.831,2.94,2.7,2.7,0,0,0,2.831,2.717,2.972,2.972,0,0,0,2.826-2.947,2.7,2.7,0,0,0-2.826-2.71" transform="translate(111.096 5447.192)" fill="#a6bfff"/>
    <path id="Trazado_999763" data-name="Trazado 999763" d="M1102.31,917.28l3.957-1.736v10.041l2.871-1.259V914.285l3.957-1.743v-2.331l-10.786,4.74Z" transform="translate(-130.394 5519.115)" fill="#dbbc42"/>
    <path id="Trazado_999764" data-name="Trazado 999764" d="M1065.981,935.225l-5.62,2.47V932.82l-2.871,1.256v12.38l2.871-1.256v-5.071l5.62-2.477v5.069l2.862-1.256V929.091l-2.862,1.251Z" transform="translate(-98.951 5505.87)" fill="#dbbc42"/>
    <path id="Trazado_999765" data-name="Trazado 999765" d="M1156.712,887.774l-4.56,9.694-4.632-5.65-2.37,1.041v12.379l2.686-1.189v-7.269l3.626,4.369,1.292-.571,3.641-7.719.015,7.425,2.689-1.19-.033-12.362Z" transform="translate(-160.448 5535.586)" fill="#dbbc42"/>
    <path id="Trazado_999766" data-name="Trazado 999766" d="M1206.172,877.446l-2.862,1.259v12.38l9.067-3.991v-2.339l-6.2,2.732Z" transform="translate(-201.25 5542.102)" fill="#dbbc42"/>
    <path id="Trazado_999767" data-name="Trazado 999767" d="M1079.343,711.691l4.352-1.914v5.889a2.813,2.813,0,0,1-1.751,2.816,1.984,1.984,0,0,1-2.3-.346l-1.589,2.608a2.656,2.656,0,0,0,1.713.593,6.031,6.031,0,0,0,2.314-.571,7.578,7.578,0,0,0,3.326-2.584,6.772,6.772,0,0,0,1.135-3.929v-8.028l-7.2,3.165v2.3Z" transform="translate(-113.378 5662.22)" fill="#ffafc5"/>
    <path id="Trazado_999768" data-name="Trazado 999768" d="M1123.938,697.173a2.29,2.29,0,0,0-1.537-.386,18.97,18.97,0,0,0-2.315.341,9.708,9.708,0,0,1-2.037.292.593.593,0,0,1-.648-.663,1.918,1.918,0,0,1,.564-1.274,5.164,5.164,0,0,1,1.783-1.174,6.306,6.306,0,0,1,3.434-.531l.88-2.571a4.543,4.543,0,0,0-.92-.062,7.113,7.113,0,0,0-1.058.124,10.483,10.483,0,0,0-2.314.734,11.265,11.265,0,0,0-2.885,1.775,7.567,7.567,0,0,0-1.753,2.176,4.769,4.769,0,0,0-.578,2.2,1.967,1.967,0,0,0,.633,1.7,2.378,2.378,0,0,0,1.558.393,17.835,17.835,0,0,0,2.317-.349c.608-.131,1.1-.207,1.451-.247a1.654,1.654,0,0,1,.88.086.544.544,0,0,1,.354.571,1.873,1.873,0,0,1-.578,1.234,5.777,5.777,0,0,1-1.8,1.142,7.685,7.685,0,0,1-2.193.611,4.786,4.786,0,0,1-1.891-.1l-.972,2.579a4.76,4.76,0,0,0,2.191.077,11.206,11.206,0,0,0,2.848-.865,10.932,10.932,0,0,0,2.88-1.775,7.488,7.488,0,0,0,1.768-2.151,4.778,4.778,0,0,0,.6-2.215,1.865,1.865,0,0,0-.656-1.669" transform="translate(-138.81 5672.801)" fill="#ffafc5"/>
    <path id="Trazado_999769" data-name="Trazado 999769" d="M830.022,626.243a6.694,6.694,0,0,1,2.052-1.419,3.013,3.013,0,0,1,3.11.084l1.837-2.507a3.442,3.442,0,0,0-2.191-.657,7.375,7.375,0,0,0-2.9.709,11.877,11.877,0,0,0-5.85,5.689,8.47,8.47,0,0,0-.865,3.667,4.56,4.56,0,0,0,.865,2.925,3.454,3.454,0,0,0,2.408,1.219,6.992,6.992,0,0,0,3.427-.695,11.034,11.034,0,0,0,2.917-1.844,10.817,10.817,0,0,0,2.191-2.616l-1.837-.88a7.024,7.024,0,0,1-3.11,2.833,4.178,4.178,0,0,1-2.052.408,1.983,1.983,0,0,1-1.412-.8,3.021,3.021,0,0,1-.5-1.827,5.467,5.467,0,0,1,.5-2.27,6.6,6.6,0,0,1,1.412-2.023" transform="translate(64.003 5721.489)" fill="#b4f5fc"/>
    <path id="Trazado_999770" data-name="Trazado 999770" d="M918.253,592.422a2.321,2.321,0,0,0-1.543-.386,19.175,19.175,0,0,0-2.317.346,10.051,10.051,0,0,1-2.03.294.6.6,0,0,1-.655-.663,1.958,1.958,0,0,1,.564-1.283,5.282,5.282,0,0,1,1.79-1.172,6.532,6.532,0,0,1,3.427-.541l.888-2.554a4.943,4.943,0,0,0-.92-.07,7.923,7.923,0,0,0-1.063.124,10.032,10.032,0,0,0-2.317.742,10.973,10.973,0,0,0-2.878,1.775,7.342,7.342,0,0,0-1.753,2.169,4.7,4.7,0,0,0-.586,2.2,1.974,1.974,0,0,0,.641,1.706,2.362,2.362,0,0,0,1.553.393,18.784,18.784,0,0,0,2.314-.346c.618-.131,1.1-.208,1.451-.255a1.747,1.747,0,0,1,.888.092.548.548,0,0,1,.354.571,1.87,1.87,0,0,1-.586,1.229,5.709,5.709,0,0,1-1.8,1.149,7.486,7.486,0,0,1-2.193.608,4.668,4.668,0,0,1-1.891-.106l-.972,2.586a4.922,4.922,0,0,0,2.193.077,11.285,11.285,0,0,0,2.848-.865,11.12,11.12,0,0,0,2.878-1.775A7.273,7.273,0,0,0,918.3,596.3a4.652,4.652,0,0,0,.6-2.208,1.881,1.881,0,0,0-.648-1.673" transform="translate(5.493 5746.289)" fill="#b4f5fc"/>
    <path id="Trazado_999771" data-name="Trazado 999771" d="M878.82,609.771a2.28,2.28,0,0,0-1.538-.388,17.92,17.92,0,0,0-2.314.349,10.014,10.014,0,0,1-2.037.284.589.589,0,0,1-.648-.663,1.936,1.936,0,0,1,.564-1.273,5.163,5.163,0,0,1,1.783-1.175,6.348,6.348,0,0,1,3.434-.532l.88-2.561a3.79,3.79,0,0,0-.92-.069,7.591,7.591,0,0,0-1.058.114,11.7,11.7,0,0,0-2.322.742,11.154,11.154,0,0,0-2.878,1.783,7.439,7.439,0,0,0-1.753,2.169,4.756,4.756,0,0,0-.579,2.193,2,2,0,0,0,.633,1.713,2.4,2.4,0,0,0,1.558.386,19.45,19.45,0,0,0,2.317-.339,13.966,13.966,0,0,1,1.451-.255,1.69,1.69,0,0,1,.878.092.528.528,0,0,1,.356.564,1.868,1.868,0,0,1-.578,1.234,5.731,5.731,0,0,1-1.8,1.142,7.857,7.857,0,0,1-2.193.618,4.971,4.971,0,0,1-1.9-.109l-.972,2.586a5.011,5.011,0,0,0,2.2.077,11.548,11.548,0,0,0,2.841-.863,11.264,11.264,0,0,0,2.888-1.783,7.61,7.61,0,0,0,1.765-2.153,4.752,4.752,0,0,0,.6-2.215,1.852,1.852,0,0,0-.656-1.666" transform="translate(33.157 5734.12)" fill="#b4f5fc"/>
    <path id="Trazado_999772" data-name="Trazado 999772" d="M610.068,1336.538a6.973,6.973,0,0,0-2.848.694l-5.358,2.361v12.38l2.863-1.266V1347.3l2.495-1.1a10.948,10.948,0,0,0,2.848-1.783,7.987,7.987,0,0,0,1.867-2.383,5.835,5.835,0,0,0,.655-2.673,3.006,3.006,0,0,0-.655-2.1,2.394,2.394,0,0,0-1.867-.724m-1.051,5.987a5.034,5.034,0,0,1-1.961,1.414l-2.331,1.026v-4.292l2.331-1.034a4.273,4.273,0,0,1,1.375-.386,1.545,1.545,0,0,1,.586.092q.671.256.673,1.3A2.99,2.99,0,0,1,609.017,1342.525Z" transform="translate(220.694 5220.027)" fill="#ffd2bf"/>
    <path id="Trazado_999773" data-name="Trazado 999773" d="M703.943,1295.208a6.844,6.844,0,0,0-2.841.709l-5.363,2.354v12.372l2.863-1.251v-3.419l2.5-1.1a10.83,10.83,0,0,0,2.841-1.783,7.918,7.918,0,0,0,1.874-2.376,5.906,5.906,0,0,0,.658-2.673,2.992,2.992,0,0,0-.658-2.1,2.455,2.455,0,0,0-1.874-.739m-1.044,6a5.029,5.029,0,0,1-1.961,1.412l-2.337,1.028v-4.3l2.337-1.026a3.885,3.885,0,0,1,1.375-.378,1.388,1.388,0,0,1,.586.076c.447.171.672.6.672,1.3A3.017,3.017,0,0,1,702.9,1301.2Z" transform="translate(154.834 5249.022)" fill="#ffd2bf"/>
    <path id="Trazado_999774" data-name="Trazado 999774" d="M654.748,1316.662l-5.62,2.471v-4.877l-2.863,1.257v12.371l2.863-1.247v-5.077l5.62-2.471v5.068l2.863-1.256v-12.38l-2.863,1.259Z" transform="translate(189.543 5238.279)" fill="#ffd2bf"/>
    <path id="Trazado_999775" data-name="Trazado 999775" d="M899.734,769.254a1.977,1.977,0,0,0-1.421.586,2,2,0,0,0-.586,1.412,2.017,2.017,0,0,0,2.007,2.015,2.006,2.006,0,0,0,0-4.013" transform="translate(13.131 5618.004)" fill="#6058c1"/>
    <path id="Trazado_999776" data-name="Trazado 999776" d="M931.206,754.275a2.044,2.044,0,0,0-1.422.586,1.99,1.99,0,0,0-.586,1.422,2.014,2.014,0,0,0,.586,1.419,2.035,2.035,0,0,0,1.422.586,2.007,2.007,0,0,0,0-4.013" transform="translate(-8.948 5628.512)" fill="#6058c1"/>
    <path id="Trazado_999777" data-name="Trazado 999777" d="M962.676,741.451a2,2,0,0,0-2,2.005,2.006,2.006,0,1,0,2-2.005" transform="translate(-31.028 5637.509)" fill="#6058c1"/>
    <path id="Trazado_999778" data-name="Trazado 999778" d="M1381.016,940.245l-.218-2.571-12.448,1.051,11.49,12.293,1.886-1.758-7.858-8.406Z" transform="translate(-317.034 5499.849)" fill="#3b67b9"/>
    <path id="Trazado_999779" data-name="Trazado 999779" d="M1448.54,961.105l7.98,8.55-7.023.6.215,2.568,12.326-1.047-11.616-12.426Z" transform="translate(-373.291 5484.646)" fill="#3b67b9"/>
    <path id="Trazado_999780" data-name="Trazado 999780" d="M1413.31,957.318l2.349,1.065,7.411-16.33-2.355-1.066Z" transform="translate(-348.575 5497.525)" fill="#3b67b9"/>
    <path id="Trazado_999781" data-name="Trazado 999781" d="M889.376,1071.935V1129.2l2.74.788,79.718-95.642-2.74-.788Z" transform="translate(18.989 5432.58)" fill="#3b67b9"/>
    <path id="Trazado_999782" data-name="Trazado 999782" d="M898.555,1131.842l79.718-38.375V1036.2l-79.718,38.375Z" transform="translate(12.55 5430.729)" fill="#519fff"/>
    <path id="Trazado_999783" data-name="Trazado 999783" d="M902.018,1130.038l77.649-37.378v-51.34L902.018,1078.7Z" transform="translate(10.12 5427.136)" fill="#a0deff"/>
    <path id="Trazado_999784" data-name="Trazado 999784" d="M1011.15,1168.84l18.964-20.083-18.964-1.818Z" transform="translate(-66.441 5353.039)" fill="#4b87ed"/>
    <path id="Trazado_999785" data-name="Trazado 999785" d="M931.394,1231.375,991.5,1202.44v-3.48l-60.107,28.935Z" transform="translate(-10.488 5316.544)" fill="#4b87ed"/>
    <path id="Trazado_999786" data-name="Trazado 999786" d="M1261.185,1229.16h-6.322s-12.125,3.613-6.188,7.749,22.443,3.736,20.376-1.681-7.865-6.068-7.865-6.068" transform="translate(-231.928 5295.358)" fill="#e4738d"/>
    <path id="Trazado_999787" data-name="Trazado 999787" d="M1264.575,1208.287c3.62.742,7.262,1.3,11.22,0l1.036-19.728h-13.292Z" transform="translate(-243.504 5323.841)" fill="#b46257"/>
    <path id="Trazado_999788" data-name="Trazado 999788" d="M1262.779,1166.51l-1.719,6.321h14.771l-1.728-6.321Z" transform="translate(-241.765 5339.31)" fill="#b46257"/>
    <path id="Trazado_999789" data-name="Trazado 999789" d="M1273.513,1177.76h-12.718a1.656,1.656,0,0,0-1.575,1.736v.724a1.656,1.656,0,0,0,1.575,1.738h12.718a1.656,1.656,0,0,0,1.575-1.738v-.724a1.653,1.653,0,0,0-1.575-1.736" transform="translate(-240.474 5331.417)" fill="#903a2a"/>
    <path id="Trazado_999790" data-name="Trazado 999790" d="M326.5,1583h50.29l.9-9.431-51.959.015Z" transform="translate(414.415 5053.738)" fill="#3681e1"/>
    <path id="Trazado_999791" data-name="Trazado 999791" d="M370.1,1521.374c-4.871-3.041-11.484-4.755-18.375-4.755s-13.507,1.714-18.385,4.755-7.61,7.178-7.61,11.477c0,3.713,2.047,7.309,5.773,10.2h40.42c3.743-2.888,5.788-6.483,5.8-10.2,0-4.3-2.739-8.436-7.617-11.477" transform="translate(414.415 5093.691)" fill="#2e59a3"/>
    <path id="Trazado_999792" data-name="Trazado 999792" d="M363.61,1536.95a28.488,28.488,0,0,0-14.81,3.827c-3.921,2.455-6.129,5.773-6.129,9.247a10.016,10.016,0,0,0,3.58,7.286h34.723a10,10,0,0,0,3.575-7.286c0-7.225-9.378-13.074-20.939-13.074" transform="translate(402.529 5079.429)" fill="#da9369"/>
    <path id="Trazado_999793" data-name="Trazado 999793" d="M337.811,1317.122a.8.8,0,0,0-.556-.237.771.771,0,0,0-.556,1.318c7.257,7.432,13.5,20.638,17.52,35.836s5.835,32.4,4.408,47.835a.775.775,0,0,0,1.543.138c1.444-15.666-.393-33-4.453-48.367s-10.328-28.748-17.906-36.522" transform="translate(406.88 5233.814)" fill="#a93f53"/>
    <path id="Trazado_999794" data-name="Trazado 999794" d="M364.089,1474.521a.673.673,0,0,0-.361-.1.777.777,0,0,0-.371,1.467,40.759,40.759,0,0,1,13.428,12.641.783.783,0,0,0,1.073.218.77.77,0,0,0,.21-1.081,42.039,42.039,0,0,0-13.979-13.143" transform="translate(388.311 5123.296)" fill="#a93f53"/>
    <path id="Trazado_999795" data-name="Trazado 999795" d="M409.056,1421.09a.777.777,0,0,0-.717.465c-1.891,4.074-4.176,9.368-5.056,14.246a.773.773,0,0,0,1.52.279c.833-4.616,3.063-9.833,4.94-13.878a.779.779,0,0,0-.687-1.113" transform="translate(360.016 5160.71)" fill="#a93f53"/>
    <path id="Trazado_999796" data-name="Trazado 999796" d="M444.811,1523.9a.754.754,0,0,0-.717.571c-1.728,6-3.5,12.108-3.256,19.58a.77.77,0,0,0,.794.786.779.779,0,0,0,.749-.833c-.225-7.2,1.466-13.1,3.194-19.11a.768.768,0,0,0-.764-.994" transform="translate(333.675 5088.584)" fill="#a93f53"/>
    <path id="Trazado_999797" data-name="Trazado 999797" d="M317.015,1539.193a.8.8,0,0,0-.616-.28.779.779,0,0,0-.541,1.306c3.659,4.09,8.606,10.55,11.106,17.117a.772.772,0,0,0,1.444-.547c-2.616-6.885-7.665-13.43-11.393-17.6" transform="translate(421.485 5078.051)" fill="#a93f53"/>
    <path id="Trazado_999798" data-name="Trazado 999798" d="M474,1460.964s-4.547-9.094-15.05-2.641c-7.217,4.416-6.206,20.608-6.206,20.608s4.176-7.944,10.582-6.206c4.661,1.273,7.763,8.807,12.664,13.05,6.384,5.536,18.437,6.2,18.437,6.2s-9.2-11.223-9.761-16.323C483.2,1462.292,474,1460.964,474,1460.964" transform="translate(325.339 5136.212)" fill="#ffef19"/>
    <path id="Trazado_999799" data-name="Trazado 999799" d="M493.62,1471.476a29.281,29.281,0,0,0-3.812-.077,13.151,13.151,0,0,0-9.091,3.736.264.264,0,0,0,0,.371.276.276,0,0,0,.371-.007c2.954-3.063,7.269-3.961,12.493-3.5a.272.272,0,0,0,.279-.24.265.265,0,0,0-.24-.287" transform="translate(305.737 5125.437)" fill="#a93f53"/>
    <path id="Trazado_999800" data-name="Trazado 999800" d="M452.984,1532.06c-.069.131-.124.225-.124.225.04-.079.084-.156.124-.225" transform="translate(325.226 5082.859)" fill="#fbbe22"/>
    <path id="Trazado_999801" data-name="Trazado 999801" d="M484.994,1503.623c-4.366-4.894-9.175-6.762-13.73-6.809-8.095-.069-15.381,5.667-17.989,10.521.717-1.244,4.668-7.556,10.459-5.981,4.661,1.273,7.763,8.807,12.664,13.05,6.384,5.536,18.437,6.2,18.437,6.2s-9.2-11.223-9.761-16.323c-.025-.226-.047-.441-.079-.656" transform="translate(324.935 5107.586)" fill="#fbbe22"/>
    <path id="Trazado_999802" data-name="Trazado 999802" d="M199.175,1484.929c-12.528-5.7-17.938,2.332-17.938,2.332a14.954,14.954,0,0,0-12.711,12.965c-.672,4.522-11.63,14.432-11.63,14.432s14.363-.593,21.965-5.479c5.843-3.751,9.539-10.4,15.095-11.532,7.628-1.536,12.612,5.481,12.612,5.481s1.2-14.293-7.393-18.2" transform="translate(532.859 5117.356)" fill="#ffef19"/>
    <path id="Trazado_999803" data-name="Trazado 999803" d="M242.377,1496.379a42.4,42.4,0,0,0-4.537.062.269.269,0,0,0-.24.277.261.261,0,0,0,.279.24c6.236-.41,11.43.393,14.956,3.111a.277.277,0,0,0,.371-.047.27.27,0,0,0-.054-.371c-2.762-2.116-6.443-3.095-10.775-3.271" transform="translate(476.241 5107.915)" fill="#a93f53"/>
    <path id="Trazado_999804" data-name="Trazado 999804" d="M184.981,1518.948a25.392,25.392,0,0,0-16.363,6.005l-.092.571c-.672,4.522-11.63,14.432-11.63,14.432s14.363-.593,21.965-5.479c5.843-3.751,9.539-10.4,15.095-11.532,6.893-1.387,11.608,4.191,12.459,5.289-3.1-4.3-11.786-9.355-21.434-9.286" transform="translate(532.859 5092.058)" fill="#fbbe22"/>
    <path id="Trazado_999805" data-name="Trazado 999805" d="M322.814,1550.06c.055.062.106.131.153.193,0,0-.062-.079-.153-.193" transform="translate(416.46 5070.231)" fill="#fbbe22"/>
    <path id="Trazado_999806" data-name="Trazado 999806" d="M259.036,1425.645c-8.018-5.912-15.913-3.921-20.311-.185-17.057,4.616-15.351,22.183-15.351,22.183s10.936-10.6,17.928-8.574c2.932.848,5.937,3.1,10.9,3.682,6.829.778,14.771-3.612,14.771-3.612s.526-7.24-7.934-13.492" transform="translate(486.255 5160.139)" fill="#ffef19"/>
    <path id="Trazado_999807" data-name="Trazado 999807" d="M223.485,1483.752s10.936-10.6,17.928-8.574a14.522,14.522,0,0,1,1.474.532l.079-.047a18.839,18.839,0,0,0-7.81-2.284c-5.18-.155-9.131,3.134-11.67,10.374" transform="translate(486.144 5124.031)" fill="#fbbe22"/>
    <path id="Trazado_999808" data-name="Trazado 999808" d="M284.964,1434.3a30.971,30.971,0,0,0-10.651-1.4.25.25,0,0,0-.245.269.261.261,0,0,0,.262.255,30.014,30.014,0,0,1,10.481,1.375.245.245,0,0,0,.316-.17.258.258,0,0,0-.164-.324" transform="translate(450.657 5152.445)" fill="#a93f53"/>
    <path id="Trazado_999809" data-name="Trazado 999809" d="M334.7,1449.486a.325.325,0,0,0-.17-.044.26.26,0,0,0-.106.478,47.915,47.915,0,0,1,8.582,7.254.266.266,0,0,0,.371.017.262.262,0,0,0,0-.371,48.159,48.159,0,0,0-8.676-7.334" transform="translate(408.4 5140.82)" fill="#a93f53"/>
    <path id="Trazado_999810" data-name="Trazado 999810" d="M443.442,1340.049c-5.857.8-10.557-2.492-17.419,3.281-10.557,8.891-6.915,22.566-6.915,22.566s13.868-.354,21.416-6.7c4.037-3.39,5.217-9.047,8.661-13.045,2.3-2.655,7.477-5.1,7.477-5.1a37.445,37.445,0,0,0-13.22-1" transform="translate(349.331 5217.728)" fill="#ffef19"/>
    <path id="Trazado_999811" data-name="Trazado 999811" d="M449.12,1346a.151.151,0,0,0-.116.032c-9.942,4.969-17.288,13.245-24.3,21.9a.276.276,0,0,0,.04.371.263.263,0,0,0,.361-.047c7-8.651,14.31-16.855,24.136-21.773a.256.256,0,0,0-.116-.487" transform="translate(345.02 5213.389)" fill="#a93f53"/>
    <path id="Trazado_999812" data-name="Trazado 999812" d="M195.509,1245.087a44.309,44.309,0,0,0-29.922,9.215,12.813,12.813,0,0,1,8.211,2.361c2.779,1.877,7.479-.215,10.125,1.83,3.667,2.841,6.562,9.848,11.67,11.855,7.21,2.831,23.132-2.2,23.132-2.2s-2.339-8.535-5.071-12.394c-4.886-6.909-11.539-10.311-18.145-10.666" transform="translate(526.762 5284.233)" fill="#ffef19"/>
    <path id="Trazado_999813" data-name="Trazado 999813" d="M237.626,1269.365a.432.432,0,0,0-.077-.014v.007a.253.253,0,0,0-.039.5,65.442,65.442,0,0,1,29.2,14.51.258.258,0,0,0,.378-.015.268.268,0,0,0-.032-.371,65.833,65.833,0,0,0-29.435-14.62" transform="translate(476.448 5267.162)" fill="#a93f53"/>
    <path id="Trazado_999814" data-name="Trazado 999814" d="M377.959,1295.527c-4.755,5.588-.818,21.983-.818,21.983s1.929-3.813,4.107-4.648c2.213-.848,8.327-3.488,9.393-8.935,2.314-11.833,5.842-11.578,5.842-11.578s-10.931-5.726-18.524,3.179" transform="translate(379.421 5252.3)" fill="#ffef19"/>
    <path id="Trazado_999815" data-name="Trazado 999815" d="M392.02,1303.95a.208.208,0,0,0-.138.047c-6.876,4.744-8.251,12.642-10.637,19.834a.268.268,0,0,0,.163.339.257.257,0,0,0,.331-.168c2.394-7.249,3.758-14.966,10.436-19.574a.261.261,0,0,0-.156-.477" transform="translate(375.477 5242.89)" fill="#a93f53"/>
    <path id="Trazado_999816" data-name="Trazado 999816" d="M1299.294,1513.741l-12.773-2.9a.244.244,0,0,0-.077-.014.262.262,0,0,0-.04.516l12.773,2.9a.258.258,0,0,0,.317-.193.249.249,0,0,0-.2-.309" transform="translate(-259.403 5097.757)" fill="#232960"/>
    <path id="Trazado_999817" data-name="Trazado 999817" d="M1219.5,1594.437a4.79,4.79,0,0,0,1.607.742h13.628l-15.752-4.253s-.456,2.416.517,3.511" transform="translate(-212.174 5041.562)" fill="#3382af"/>
  </g>
</svg>
