<svg xmlns="http://www.w3.org/2000/svg" xmlns:xlink="http://www.w3.org/1999/xlink" width="108" height="108" viewBox="0 0 108 108">
  <defs>
    <filter id="Trazado_982547" x="0" y="0" width="108" height="108" filterUnits="userSpaceOnUse">
      <feOffset dy="3" input="SourceAlpha"/>
      <feGaussianBlur stdDeviation="3" result="blur"/>
      <feFlood flood-opacity="0.161"/>
      <feComposite operator="in" in2="blur"/>
      <feComposite in="SourceGraphic"/>
    </filter>
  </defs>
  <g id="Grupo_1162154" data-name="Grupo 1162154" transform="translate(-161 -7597)">
    <g id="Grupo_1158147" data-name="Grupo 1158147" transform="translate(0 5442)">
      <g id="Grupo_1153207" data-name="Grupo 1153207" transform="translate(0 703)">
        <g id="Grupo_1153117" data-name="Grupo 1153117" transform="translate(-93 939)">
          <g id="Grupo_1149598" data-name="Grupo 1149598" transform="translate(80 315)">
            <g id="Grupo_1148770" data-name="Grupo 1148770" transform="translate(-27 -2583)">
              <g id="Grupo_1146954" data-name="Grupo 1146954" transform="translate(-415 -1202)">
                <g transform="matrix(1, 0, 0, 1, 616, 3983)" filter="url(#Trazado_982547)">
                  <g id="Trazado_982547-2" data-name="Trazado 982547" transform="translate(9 6)" fill="#ebfefd">
                    <path d="M 45 88.5 C 39.12687683105469 88.5 33.43022537231445 87.35007476806641 28.06830024719238 85.08217620849609 C 22.88852500915527 82.89131164550781 18.23629951477051 79.75458526611328 14.2408504486084 75.75914764404297 C 10.24541282653809 71.76370239257812 7.108687400817871 67.11147308349609 4.917825222015381 61.93170166015625 C 2.649924993515015 56.56977462768555 1.5 50.87312316894531 1.5 45 C 1.5 39.12687683105469 2.649924993515015 33.43022537231445 4.917825222015381 28.06830024719238 C 7.108687400817871 22.88852500915527 10.24541282653809 18.23629951477051 14.2408504486084 14.2408504486084 C 18.23629951477051 10.24541282653809 22.88852500915527 7.108687400817871 28.06830024719238 4.917825222015381 C 33.43022537231445 2.649924993515015 39.12687683105469 1.5 45 1.5 C 50.87312316894531 1.5 56.56977462768555 2.649924993515015 61.93170166015625 4.917825222015381 C 67.11147308349609 7.108687400817871 71.76370239257812 10.24541282653809 75.75914764404297 14.2408504486084 C 79.75458526611328 18.23629951477051 82.89131164550781 22.88852500915527 85.08217620849609 28.06830024719238 C 87.35007476806641 33.43022537231445 88.5 39.12687683105469 88.5 45 C 88.5 50.87312316894531 87.35007476806641 56.56977462768555 85.08217620849609 61.93170166015625 C 82.89131164550781 67.11147308349609 79.75458526611328 71.76370239257812 75.75914764404297 75.75914764404297 C 71.76370239257812 79.75458526611328 67.11147308349609 82.89131164550781 61.93170166015625 85.08217620849609 C 56.56977462768555 87.35007476806641 50.87312316894531 88.5 45 88.5 Z" stroke="none"/>
                    <path d="M 45 3 C 39.32871246337891 3 33.82865524291992 4.110054016113281 28.65262985229492 6.299339294433594 C 23.65165710449219 8.414573669433594 19.15968322753906 11.44334411621094 15.301513671875 15.301513671875 C 11.44334411621094 19.15968322753906 8.414573669433594 23.65165710449219 6.299339294433594 28.65262985229492 C 4.110054016113281 33.82865524291992 3 39.32871246337891 3 45 C 3 50.67128753662109 4.110054016113281 56.17134475708008 6.299339294433594 61.34737396240234 C 8.414573669433594 66.34834289550781 11.44334411621094 70.84031677246094 15.301513671875 74.698486328125 C 19.15968322753906 78.55665588378906 23.65165710449219 81.58542633056641 28.65262985229492 83.70066070556641 C 33.82865524291992 85.88994598388672 39.32871246337891 87 45 87 C 50.67128753662109 87 56.17134475708008 85.88994598388672 61.34737396240234 83.70066070556641 C 66.34834289550781 81.58542633056641 70.84031677246094 78.55665588378906 74.698486328125 74.698486328125 C 78.55665588378906 70.84031677246094 81.58542633056641 66.34834289550781 83.70066070556641 61.34737396240234 C 85.88994598388672 56.17134475708008 87 50.67128753662109 87 45 C 87 39.32871246337891 85.88994598388672 33.82865524291992 83.70066070556641 28.65262985229492 C 81.58542633056641 23.65165710449219 78.55665588378906 19.15968322753906 74.698486328125 15.301513671875 C 70.84031677246094 11.44334411621094 66.34834289550781 8.414573669433594 61.34737396240234 6.299339294433594 C 56.17134475708008 4.110054016113281 50.67128753662109 3 45 3 M 45 0 C 69.85281372070312 0 90 20.14718627929688 90 45 C 90 69.85281372070312 69.85281372070312 90 45 90 C 20.14718627929688 90 0 69.85281372070312 0 45 C 0 20.14718627929688 20.14718627929688 0 45 0 Z" stroke="none" fill="#268985"/>
                  </g>
                </g>
              </g>
            </g>
          </g>
        </g>
      </g>
    </g>
    <g id="programador" transform="translate(186 7619.998)">
      <g id="Grupo_1158762" data-name="Grupo 1158762" transform="translate(7.366 5.655)">
        <g id="Grupo_1158750" data-name="Grupo 1158750" transform="translate(13.81)">
          <path id="Trazado_992883" data-name="Trazado 992883" d="M48.779,16.27H34.048a1.83,1.83,0,0,1-1.3-.534,1.806,1.806,0,0,1-.543-1.307l-3,1a3.671,3.671,0,0,0-2.523,3.489v2.873h-.921a2.767,2.767,0,0,0-1.768.635,11.59,11.59,0,0,1,10.6-16.287h6.279a11.59,11.59,0,0,1,10.6,16.287,2.767,2.767,0,0,0-1.768-.635h-.921Z" transform="translate(-23 -6.142)" fill="#b27946"/>
        </g>
        <g id="Grupo_1158751" data-name="Grupo 1158751" transform="translate(39.59 15.652)">
          <path id="Trazado_992884" data-name="Trazado 992884" d="M53.688,23.777a2.765,2.765,0,0,1-1.768,4.889H51V23.142h.921A2.767,2.767,0,0,1,53.688,23.777Z" transform="translate(-51 -23.142)" fill="#f0d0b4"/>
        </g>
        <g id="Grupo_1158752" data-name="Grupo 1158752" transform="translate(16.573 32.049)">
          <path id="Trazado_992885" data-name="Trazado 992885" d="M38.89,51.255h-4.6a2.758,2.758,0,0,0-2.762,2.762v.921H26V52.175c0-.313.009-.617.037-.921a3.68,3.68,0,0,0,3.646-3.683V43.539a12,12,0,0,1,4.125-2.587l.479,4.778,3.683-2.762,3.683,2.762.479-4.778a11.988,11.988,0,0,1,7.808,11.223v2.762a3.682,3.682,0,0,1-3.683,3.683H38.89a1.841,1.841,0,0,1-1.841-1.841V53.1a1.847,1.847,0,0,1,1.841-1.841Z" transform="translate(-26 -40.952)" fill="#fcd770"/>
        </g>
        <g id="Grupo_1158753" data-name="Grupo 1158753" transform="translate(17.493 8.286)">
          <path id="Trazado_992886" data-name="Trazado 992886" d="M49.1,28.032v.921a9.21,9.21,0,0,1-9.207,9.207H36.207a9.164,9.164,0,0,1-6.555-2.744,3.66,3.66,0,0,0-1.611-2.21V33.2A9.157,9.157,0,0,1,27,28.952V27.111a1.841,1.841,0,0,0,1.841,1.841h5.524a1.841,1.841,0,0,0,1.841-1.841v-4.6a1.847,1.847,0,0,0-1.841-1.841H28.841A1.847,1.847,0,0,0,27,22.508V19.635a3.671,3.671,0,0,1,2.523-3.489l3-1a1.806,1.806,0,0,0,.543,1.307,1.83,1.83,0,0,0,1.3.534H49.1v5.524a1.847,1.847,0,0,0-1.841-1.841H41.731a1.847,1.847,0,0,0-1.841,1.841v4.6a1.841,1.841,0,0,0,1.841,1.841h5.524A1.841,1.841,0,0,0,49.1,27.111Z" transform="translate(-27 -15.142)" fill="#f0d0b4"/>
        </g>
        <g id="Grupo_1158754" data-name="Grupo 1158754" transform="translate(30.383 13.81)">
          <path id="Trazado_992887" data-name="Trazado 992887" d="M50.207,22.983v4.6a1.841,1.841,0,0,1-1.841,1.841H42.841A1.841,1.841,0,0,1,41,27.587v-4.6a1.847,1.847,0,0,1,1.841-1.841h5.524A1.847,1.847,0,0,1,50.207,22.983Z" transform="translate(-41 -21.142)" fill="#69d6f4"/>
        </g>
        <g id="Grupo_1158755" data-name="Grupo 1158755" transform="translate(24.38 31.304)">
          <path id="Trazado_992888" data-name="Trazado 992888" d="M42.8,40.888l-.479,4.778L38.642,42.9l-3.683,2.762-.479-4.778a11.787,11.787,0,0,1,4.162-.746A12,12,0,0,1,42.8,40.888Z" transform="translate(-34.48 -40.142)" fill="#ffc729"/>
        </g>
        <g id="Grupo_1158756" data-name="Grupo 1158756" transform="translate(22.097 42.352)">
          <path id="Trazado_992889" data-name="Trazado 992889" d="M34.762,52.142h4.6a1.847,1.847,0,0,0-1.841,1.841v1.841H32V54.9A2.758,2.758,0,0,1,34.762,52.142Z" transform="translate(-32 -52.142)" fill="#f0d0b4"/>
        </g>
        <g id="Grupo_1158757" data-name="Grupo 1158757" transform="translate(1.841 46.035)">
          <path id="Trazado_992890" data-name="Trazado 992890" d="M37.621,59.825H10V58.9a2.758,2.758,0,0,1,2.762-2.762H35.779v1.841A1.841,1.841,0,0,0,37.621,59.825Z" transform="translate(-10 -56.142)" fill="#969faa"/>
        </g>
        <g id="Grupo_1158758" data-name="Grupo 1158758" transform="translate(17.493 13.81)">
          <path id="Trazado_992891" data-name="Trazado 992891" d="M36.207,22.983v4.6a1.841,1.841,0,0,1-1.841,1.841H28.841A1.841,1.841,0,0,1,27,27.587v-4.6a1.847,1.847,0,0,1,1.841-1.841h5.524A1.847,1.847,0,0,1,36.207,22.983Z" transform="translate(-27 -21.142)" fill="#69d6f4"/>
        </g>
        <g id="Grupo_1158759" data-name="Grupo 1158759" transform="translate(0 25.779)">
          <path id="Trazado_992892" data-name="Trazado 992892" d="M28.255,43v4.033a3.68,3.68,0,0,1-3.646,3.683H21.074l-1.1-5.524H16.286l-1.1,5.524h-3.5A3.682,3.682,0,0,1,8,47.032V37.825a3.682,3.682,0,0,1,3.683-3.683h12.89a3.7,3.7,0,0,1,3.572,2.781,3.616,3.616,0,0,1,.11.9Z" transform="translate(-8 -34.142)" fill="#ccd1d9"/>
        </g>
        <g id="Grupo_1158760" data-name="Grupo 1158760" transform="translate(13.81 15.652)">
          <path id="Trazado_992893" data-name="Trazado 992893" d="M26.683,27.745v.921h-.921a2.76,2.76,0,0,1-1.952-4.714c.055-.055.12-.12.184-.175a2.767,2.767,0,0,1,1.768-.635h.921Z" transform="translate(-23 -23.142)" fill="#f0d0b4"/>
        </g>
        <g id="Grupo_1158761" data-name="Grupo 1158761" transform="translate(6.445 36.828)">
          <path id="Trazado_992894" data-name="Trazado 992894" d="M21.629,51.666l.737,3.683H15l.737-3.683,1.1-5.524h3.683Z" transform="translate(-15 -46.142)" fill="#aab2bd"/>
        </g>
      </g>
      <g id="Grupo_1158763" data-name="Grupo 1158763" transform="translate(0 0.002)">
        <path id="Trazado_992895" data-name="Trazado 992895" d="M45.762,25.984a.921.921,0,0,1,.921.921h1.841a2.762,2.762,0,1,0-5.524,0h1.841A.921.921,0,0,1,45.762,25.984Z" transform="translate(-3.41 -1.916)"/>
        <path id="Trazado_992896" data-name="Trazado 992896" d="M31.762,25.984a.921.921,0,0,1,.921.921h1.841a2.762,2.762,0,0,0-5.524,0h1.841A.921.921,0,0,1,31.762,25.984Z" transform="translate(-2.3 -1.916)"/>
        <path id="Trazado_992897" data-name="Trazado 992897" d="M48.431,28.16a3.686,3.686,0,0,0,3.683-3.683,3.648,3.648,0,0,0-.854-2.33A12.469,12.469,0,0,0,39.606,5.142H33.318A12.469,12.469,0,0,0,21.665,22.147a3.646,3.646,0,0,0-.854,2.33,3.686,3.686,0,0,0,3.683,3.683,10.126,10.126,0,0,0,.412,2.8c-.138-.013-.271-.041-.412-.041H11.6a4.609,4.609,0,0,0-4.6,4.6v9.207a4.609,4.609,0,0,0,4.6,4.6h2.375l-.368,1.841H12.524A3.686,3.686,0,0,0,8.841,54.86V56.7H44.749a4.609,4.609,0,0,0,4.6-4.6V49.336a12.9,12.9,0,0,0-7.511-11.7,10.136,10.136,0,0,0,6.59-9.478ZM37.383,21.715v.921H35.542v-.921a2.765,2.765,0,0,0-2.762-2.762H27.255a2.726,2.726,0,0,0-.92.169v-.277a2.761,2.761,0,0,1,1.888-2.621l2.072-.691a2.76,2.76,0,0,0,2.485,1.578h13.81v2.011a2.731,2.731,0,0,0-.921-.169H40.146a2.765,2.765,0,0,0-2.763,2.762Zm-11.047,0a.921.921,0,0,1,.92-.918h5.524a.921.921,0,0,1,.921.921v4.6a.921.921,0,0,1-.921.921H27.255a.922.922,0,0,1-.921-.92Zm12.889,0a.921.921,0,0,1,.921-.921h5.524a.921.921,0,0,1,.921.921v4.6a.921.921,0,0,1-.921.921H40.145a.921.921,0,0,1-.921-.921Zm9.207,4.6V22.636a1.841,1.841,0,1,1,0,3.683ZM33.318,6.983h6.287a10.655,10.655,0,0,1,10.11,14.055,3.652,3.652,0,0,0-1.284-.244v-4.6a5.253,5.253,0,0,0-4.4-5.2l-1.892-.315-.3,1.817,1.891.315a3.418,3.418,0,0,1,2.74,2.46H32.779a.921.921,0,1,1,0-1.841H33.7V11.588h-.921a2.759,2.759,0,0,0-2.662,2.065l-2.477.825a4.6,4.6,0,0,0-3.147,4.367v1.949h0a3.636,3.636,0,0,0-1.284.244A10.655,10.655,0,0,1,33.318,6.983ZM22.652,24.478a1.843,1.843,0,0,1,1.841-1.841v3.683A1.844,1.844,0,0,1,22.652,24.478ZM11.6,47.495a2.765,2.765,0,0,1-2.762-2.762V35.526A2.765,2.765,0,0,1,11.6,32.764h12.89a2.765,2.765,0,0,1,2.762,2.762v9.207a2.765,2.765,0,0,1-2.762,2.762H21.75l-1.1-5.524H15.453l-1.1,5.524Zm10.883,3.683-.368-1.841h1.455v1.841Zm-5.525-7.366h2.174l1.473,7.366H15.489Zm-4.437,9.207h22.1v.921a2.731,2.731,0,0,0,.169.921H10.683a1.843,1.843,0,0,1,1.841-1.841Zm22.1-2.762v.921H30.938a1.843,1.843,0,0,1,1.841-1.841H34.79A2.727,2.727,0,0,0,34.621,50.257Zm12.89-.921V52.1a2.765,2.765,0,0,1-2.762,2.762H37.383a.921.921,0,0,1-.921-.921V50.257a.921.921,0,0,1,.921-.921h5.032l1.568,2.352,1.532-1.021L43.4,47.5H32.779A3.686,3.686,0,0,0,29.1,51.179H25.414V49.337c0-.031,0-.062,0-.094a4.613,4.613,0,0,0,3.679-4.51V41.117a11.056,11.056,0,0,1,2.414-1.655l.515,5.146,4.437-3.327L40.9,44.608l.514-5.135A11.05,11.05,0,0,1,47.511,49.336Zm-16.44-11.7A12.789,12.789,0,0,0,29.1,38.772V36.645A9.919,9.919,0,0,0,31.071,37.639Zm8.562,1.118-.242,2.418-2.929-2.2-2.93,2.2-.242-2.424a11.027,11.027,0,0,1,6.343.006ZM38.3,36.447H34.621a8.219,8.219,0,0,1-5.776-2.353,4.6,4.6,0,0,0-1.654-2.28,8.151,8.151,0,0,1-.811-2.888,2.739,2.739,0,0,0,.876.156h5.524a2.765,2.765,0,0,0,2.762-2.762V24.478h1.841v1.841a2.765,2.765,0,0,0,2.762,2.762h5.524a2.725,2.725,0,0,0,.882-.157A8.3,8.3,0,0,1,38.3,36.447Z" transform="translate(-0.555 -0.409)"/>
        <path id="Trazado_992898" data-name="Trazado 992898" d="M38.683,34.984a1.843,1.843,0,0,1-1.841-1.841H35a3.683,3.683,0,1,0,7.366,0H40.524A1.844,1.844,0,0,1,38.683,34.984Z" transform="translate(-2.776 -2.63)"/>
        <path id="Trazado_992899" data-name="Trazado 992899" d="M0,0H13.02V1.842H0Z" transform="translate(7.375 12.89) rotate(-81.837)"/>
        <path id="Trazado_992900" data-name="Trazado 992900" d="M14.595,11.1l4.334-4.334L14.595,2.435l-1.3,1.3,3.032,3.032L13.293,9.8Z" transform="translate(-1.054 -0.195)"/>
        <path id="Trazado_992901" data-name="Trazado 992901" d="M0,28.142H16.573v1.841H0Z" transform="translate(0 -2.233)"/>
        <path id="Trazado_992902" data-name="Trazado 992902" d="M0,24.142H16.573v1.841H0Z" transform="translate(0 -1.916)"/>
        <path id="Trazado_992903" data-name="Trazado 992903" d="M0,20.142H16.573v1.841H0Z" transform="translate(0 -1.599)"/>
        <path id="Trazado_992904" data-name="Trazado 992904" d="M12,16.142h1.841v1.841H12Z" transform="translate(-0.952 -1.282)"/>
        <path id="Trazado_992905" data-name="Trazado 992905" d="M16,16.142h1.841v1.841H16Z" transform="translate(-1.269 -1.282)"/>
        <path id="Trazado_992906" data-name="Trazado 992906" d="M8,16.142H9.841v1.841H8Z" transform="translate(-0.634 -1.282)"/>
        <path id="Trazado_992907" data-name="Trazado 992907" d="M0,16.142H1.841v1.841H0Z" transform="translate(0 -1.282)"/>
        <path id="Trazado_992908" data-name="Trazado 992908" d="M4,16.142H5.841v1.841H4Z" transform="translate(-0.317 -1.282)"/>
        <path id="Trazado_992909" data-name="Trazado 992909" d="M6.222,9.8,3.19,6.769,6.222,3.737l-1.3-1.3L.586,6.769,4.92,11.1Z" transform="translate(-0.046 -0.195)"/>
        <path id="Trazado_992910" data-name="Trazado 992910" d="M55,55.142h6.445v1.841H55Z" transform="translate(-4.362 -4.375)"/>
        <path id="Trazado_992911" data-name="Trazado 992911" d="M55,51.142h6.445v1.841H55Z" transform="translate(-4.362 -4.057)"/>
        <path id="Trazado_992912" data-name="Trazado 992912" d="M55,47.142h6.445v1.841H55Z" transform="translate(-4.362 -3.74)"/>
        <path id="Trazado_992913" data-name="Trazado 992913" d="M55,43.142h6.445v1.841H55Z" transform="translate(-4.362 -3.423)"/>
      </g>
    </g>
  </g>
</svg>
