<svg xmlns="http://www.w3.org/2000/svg" xmlns:xlink="http://www.w3.org/1999/xlink" width="295" height="259" viewBox="0 0 295 259">
  <defs>
    <clipPath id="clip-path">
      <rect id="Rectángulo_412131" data-name="Rectángulo 412131" width="295" height="259" transform="translate(1020 5097)" fill="#fff" stroke="#707070" stroke-width="1"/>
    </clipPath>
  </defs>
  <g id="Enmascarar_grupo_1098784" data-name="Enmascarar grupo 1098784" transform="translate(-1020 -5097)" clip-path="url(#clip-path)">
    <g id="OBJECTS" transform="translate(991.807 5035.838)">
      <g id="Grupo_1163430" data-name="Grupo 1163430" transform="translate(3.863 71.408)" opacity="0.5">
        <circle id="Elipse_12243" data-name="Elipse 12243" cx="59.859" cy="59.859" r="59.859" transform="translate(0 187.587) rotate(-45)" fill="#c5b4fe"/>
        <circle id="Elipse_12244" data-name="Elipse 12244" cx="94.394" cy="94.394" r="94.394" transform="translate(126.076)" fill="#c5b4fe"/>
      </g>
      <path id="Trazado_998047" data-name="Trazado 998047" d="M226.6,159.525l-7.713-1.731a27.168,27.168,0,0,0-.9-4.819l6.565-4.4a5.261,5.261,0,0,0,1.439-7.3l-3.59-5.352a5.261,5.261,0,0,0-7.3-1.439l-6.565,4.4a27.252,27.252,0,0,0-2.874-1.967l1.731-7.713a5.261,5.261,0,0,0-3.981-6.285l-6.288-1.41a5.261,5.261,0,0,0-6.285,3.982L189.11,133.2a27.194,27.194,0,0,0-3.438.551l-4.055-6.786a5.26,5.26,0,0,0-7.215-1.817l-5.532,3.305a5.26,5.26,0,0,0-1.817,7.215l4.055,6.786a27.133,27.133,0,0,0-2.874,3.972L160.52,144.7a5.261,5.261,0,0,0-6.285,3.982l-1.41,6.288a5.261,5.261,0,0,0,3.981,6.285l7.713,1.731a27.17,27.17,0,0,0,.9,4.819l-6.565,4.4a5.261,5.261,0,0,0-1.439,7.3l3.589,5.352a5.261,5.261,0,0,0,7.3,1.439l6.565-4.4a27.237,27.237,0,0,0,2.873,1.967l-1.731,7.713A5.261,5.261,0,0,0,180,197.859l6.288,1.41a5.261,5.261,0,0,0,6.285-3.982l1.731-7.713a27.077,27.077,0,0,0,3.438-.551l4.055,6.786a5.26,5.26,0,0,0,7.215,1.817l5.532-3.305a5.26,5.26,0,0,0,1.817-7.215L212.3,178.32a27.1,27.1,0,0,0,2.874-3.972l7.713,1.731a5.261,5.261,0,0,0,6.285-3.982l1.41-6.288A5.258,5.258,0,0,0,226.6,159.525ZM187.87,177.482A17.518,17.518,0,1,1,208.8,164.224,17.537,17.537,0,0,1,187.87,177.482Z" transform="translate(-45.726 -15.353)" fill="#09136e"/>
      <path id="Trazado_998048" data-name="Trazado 998048" d="M308.325,328.227l-5.151-3.382a21.191,21.191,0,0,0,.666-3.763l6-1.408a4.1,4.1,0,0,0,3.055-4.93l-1.148-4.89a4.1,4.1,0,0,0-4.93-3.055l-6,1.408a21.258,21.258,0,0,0-1.555-2.224l3.382-5.151a4.1,4.1,0,0,0-1.178-5.679l-4.2-2.757a4.1,4.1,0,0,0-5.679,1.178l-3.382,5.151a21.2,21.2,0,0,0-2.66-.542l-1.093-6.065a4.1,4.1,0,0,0-4.764-3.309l-4.944.892a4.1,4.1,0,0,0-3.308,4.764l1.094,6.065a21.189,21.189,0,0,0-3.188,2.107l-5.151-3.382a4.1,4.1,0,0,0-5.679,1.178l-2.757,4.2a4.1,4.1,0,0,0,1.178,5.679l5.151,3.382a21.189,21.189,0,0,0-.666,3.763l-6,1.408a4.1,4.1,0,0,0-3.056,4.93l1.148,4.891a4.1,4.1,0,0,0,4.93,3.055l6-1.408a21.148,21.148,0,0,0,1.555,2.224l-3.382,5.151a4.1,4.1,0,0,0,1.178,5.679l4.2,2.757a4.1,4.1,0,0,0,5.679-1.178l3.382-5.151a21.071,21.071,0,0,0,2.66.542l1.094,6.065a4.1,4.1,0,0,0,4.764,3.308l4.944-.892a4.1,4.1,0,0,0,3.308-4.764l-1.094-6.065a21.183,21.183,0,0,0,3.188-2.107l5.151,3.382a4.1,4.1,0,0,0,5.679-1.178l2.757-4.2A4.1,4.1,0,0,0,308.325,328.227Zm-33.191,2.457a13.656,13.656,0,1,1,18.911-3.922A13.671,13.671,0,0,1,275.133,330.684Z" transform="translate(-76.312 -66.771)" fill="#09136e"/>
      <g id="Grupo_1163435" data-name="Grupo 1163435" transform="translate(50.278 146.995)">
        <path id="Trazado_998049" data-name="Trazado 998049" d="M306.167,203.113A58.009,58.009,0,0,0,242.19,183.39h-.017a40.09,40.09,0,0,0-9.792,3.859,45.984,45.984,0,0,0-9.869,6.779L204.5,211.953l-10.2,10.139-10.216-10.155-10.73-10.675c-.211-.293-.433-.581-.675-.858a58.2,58.2,0,0,0-7.372-7.073c-.074-.062-.15-.122-.225-.182a58.046,58.046,0,1,0-36.152,103.485c12.335,0,23.455-3.743,33.985-11.412a11.662,11.662,0,0,0,2.445-1.837l9.562-9.5,19.38-19.272L213.8,274l7.165,7.127a11.5,11.5,0,0,0,1.459,1.512c.236.2.481.392.719.591.147.125.294.249.445.366a58.036,58.036,0,0,0,82.583-80.478ZM158.7,257.484l-8.638,8.583c-.02.015-.042.027-.062.042-6.854,5.167-13.348,7.47-21.074,7.47a34.908,34.908,0,0,1-24.97-10.5c-.313-.322-.626-.644-.92-.977a34.765,34.765,0,0,1-9.1-22.629c-.01-.294-.01-.588-.01-.891,0-.616.019-1.213.048-1.792a34.775,34.775,0,0,1,8.086-20.619q.967-1.151,2.019-2.218a34.93,34.93,0,0,1,46.254-3.052l16.715,16.625,10.894,10.829Zm126.328,5.765a34.951,34.951,0,0,1-46.658,2.657l-8.466-8.422-19.25-19.134L221.7,227.37l9.873-9.819a11.468,11.468,0,0,0,2.271-1.986,35,35,0,1,1,51.188,47.684Z" transform="translate(-70.862 -180.516)" fill="#ffc655"/>
        <g id="Grupo_1163431" data-name="Grupo 1163431" transform="translate(0 15.069)">
          <path id="Trazado_998050" data-name="Trazado 998050" d="M107.3,279.91a6.286,6.286,0,0,0-4.3-1.886c-.206-.042-.434-.064-.518-.089a5.888,5.888,0,0,1-2.829-1.837c-.879-1.043-.827-1.848-.815-3.205l4.2-4.112a34.765,34.765,0,0,1-9.1-22.629c-.01-.294-.01-.588-.01-.891,0-.616.019-1.213.048-1.792a34.775,34.775,0,0,1,8.086-20.619l-5.969-4.019a3.084,3.084,0,0,1,.638-1.8,5.884,5.884,0,0,1,2.678-2.053c.081-.031.308-.071.509-.129a6.314,6.314,0,1,0-7.007-6c-.038.233-.033.545-.053.647a5.879,5.879,0,0,1-1.549,3,3.9,3.9,0,0,1-2.973,1.115l-5.462-3.679a57.949,57.949,0,0,0,3.687,74.986l4.851-4.75c1.36.015,2.166-.021,3.192.88a5.886,5.886,0,0,1,1.778,2.866c.028.1.046.411.1.641A6.31,6.31,0,1,0,107.3,279.91Z" transform="translate(-70.862 -202.268)" fill="#542fd0"/>
        </g>
        <g id="Grupo_1163432" data-name="Grupo 1163432" transform="translate(209.18 15.07)">
          <path id="Trazado_998051" data-name="Trazado 998051" d="M411.047,245.262a57.864,57.864,0,0,0-12.011-35.332l-5.462,3.679a3.9,3.9,0,0,1-2.973-1.115,5.884,5.884,0,0,1-1.548-3c-.019-.1-.015-.414-.053-.647a6.312,6.312,0,1,0-7.007,6c.2.058.428.1.51.129a5.888,5.888,0,0,1,2.677,2.053,3.082,3.082,0,0,1,.638,1.8l-5.969,4.019a34.775,34.775,0,0,1,8.086,20.619c.028.578.047,1.176.047,1.792,0,.3,0,.6-.01.891a34.766,34.766,0,0,1-9.1,22.629l4.2,4.112c.012,1.357.064,2.162-.815,3.205a5.832,5.832,0,0,1-1.786,1.419,5.9,5.9,0,0,1-1.043.418c-.083.024-.312.047-.518.089a6.314,6.314,0,1,0,6.515,6.53c.056-.229.075-.54.1-.641a5.886,5.886,0,0,1,1.778-2.866c1.027-.9,1.833-.865,3.193-.88l4.851,4.75A57.905,57.905,0,0,0,411.047,245.262Z" transform="translate(-372.809 -202.269)" fill="#542fd0"/>
        </g>
        <g id="Grupo_1163433" data-name="Grupo 1163433" transform="translate(90.769 25.187)">
          <path id="Trazado_998052" data-name="Trazado 998052" d="M273.978,279.851a6.284,6.284,0,0,0-4.228-1.708c-.231-.051-.542-.064-.643-.09a5.884,5.884,0,0,1-2.9-1.72,3.542,3.542,0,0,1-.928-2.676l4.883-5-45.824-45.548-4.885,4.471c-1.336-.042-2.139-.03-3.138-.944a5.849,5.849,0,0,1-1.345-1.842,5.923,5.923,0,0,1-.375-1.059c-.026-.1-.039-.413-.09-.643a6.312,6.312,0,1,0-6.646,6.4c.206.046.434.073.516.1a5.886,5.886,0,0,1,2.791,1.893,3.8,3.8,0,0,1,.756,2.99l-4.618,4.226,46.747,46.47,4.331-4.439a3.79,3.79,0,0,1,2.98.757,5.882,5.882,0,0,1,1.893,2.792c.026.083.053.311.1.516a6.311,6.311,0,1,0,10.624-4.938Z" transform="translate(-201.884 -216.873)" fill="#542fd0"/>
        </g>
        <g id="Grupo_1163434" data-name="Grupo 1163434" transform="translate(81.957 25.188)">
          <path id="Trazado_998053" data-name="Trazado 998053" d="M253.965,231.478a5.882,5.882,0,0,1,2.792-1.893c.083-.026.311-.053.516-.1a6.315,6.315,0,1,0-6.646-6.4c-.052.23-.064.542-.09.643a5.883,5.883,0,0,1-1.72,2.9,3.871,3.871,0,0,1-3.009.939l-4.966-4.452-45.794,45.532,4.81,4.864a3.675,3.675,0,0,1-.933,2.815,5.848,5.848,0,0,1-1.842,1.345,5.91,5.91,0,0,1-1.06.375c-.1.026-.413.038-.643.09a6.312,6.312,0,1,0,6.4,6.646c.046-.205.073-.433.1-.516a5.881,5.881,0,0,1,1.893-2.792c1.061-.858,1.865-.79,3.222-.75l4.275,4.324,46.777-46.516L253.2,234.2A3.539,3.539,0,0,1,253.965,231.478Z" transform="translate(-189.165 -216.874)" fill="#d42190"/>
        </g>
      </g>
      <g id="Grupo_1163437" data-name="Grupo 1163437" transform="translate(222.668 178.261)">
        <path id="Trazado_998054" data-name="Trazado 998054" d="M420.747,259.281h0a5.728,5.728,0,0,1-5.589,5.864l-27.637-.994-.205-8.135,27.566-2.323A5.727,5.727,0,0,1,420.747,259.281Z" transform="translate(-340.475 -234.263)" fill="#d42190"/>
        <g id="Grupo_1163436" data-name="Grupo 1163436" transform="translate(0 0)">
          <circle id="Elipse_12245" data-name="Elipse 12245" cx="18.621" cy="18.621" r="18.621" transform="matrix(0.727, -0.687, 0.687, 0.727, 0, 25.582)" fill="#b19cfe"/>
          <path id="Trazado_998055" data-name="Trazado 998055" d="M354.618,244.15a7.333,7.333,0,1,1-7.154,7.507A7.333,7.333,0,0,1,354.618,244.15Z" transform="translate(-328.231 -231.331)" fill="#fff" opacity="0.3"/>
          <path id="Trazado_998056" data-name="Trazado 998056" d="M362.325,258.235a5.059,5.059,0,1,1-4.935,5.179A5.059,5.059,0,0,1,362.325,258.235Z" transform="translate(-331.28 -235.659)" fill="#fff" opacity="0.3"/>
          <path id="Trazado_998057" data-name="Trazado 998057" d="M369.587,253.629a21.4,21.4,0,1,1-21.908-20.878A21.422,21.422,0,0,1,369.587,253.629Zm-37.231.9a15.843,15.843,0,1,0,15.456-16.219A15.861,15.861,0,0,0,332.356,254.526Z" transform="translate(-321.881 -227.828)" fill="#09136e"/>
        </g>
      </g>
      <g id="Grupo_1163449" data-name="Grupo 1163449" transform="translate(28.6 121.773)">
        <g id="Grupo_1163438" data-name="Grupo 1163438" opacity="0.4">
          <path id="Trazado_998058" data-name="Trazado 998058" d="M120.608,148.766v68.92a4.655,4.655,0,0,1-4.658,4.653H44.228a4.655,4.655,0,0,1-4.658-4.653v-68.92a4.656,4.656,0,0,1,4.658-4.658H115.95A4.656,4.656,0,0,1,120.608,148.766Z" transform="translate(-39.57 -144.108)" fill="#d42190"/>
          <path id="Trazado_998059" data-name="Trazado 998059" d="M120.608,153.73v67.983a3.583,3.583,0,0,1-3.582,3.583H43.158a3.588,3.588,0,0,1-3.588-3.588V153.73Z" transform="translate(-39.57 -147.064)" fill="#ded7ff"/>
        </g>
        <g id="Grupo_1163439" data-name="Grupo 1163439" transform="translate(5.98 11.629)">
          <path id="Trazado_998060" data-name="Trazado 998060" d="M66.015,161.315a14.365,14.365,0,0,0-16.981,9.119c-.133.371-.25.751-.353,1.138a14.324,14.324,0,0,0,1.845,11.5,14.463,14.463,0,0,0,1.48,1.9,14.3,14.3,0,0,0,8.427,4.473,14.136,14.136,0,0,0,2.124.158,14.354,14.354,0,0,0,3.457-28.285ZM62.558,185.89a10.764,10.764,0,0,1-1.268-.074,10.621,10.621,0,0,1-6.359-3.15,10.612,10.612,0,0,1-1.867-12.232,10.657,10.657,0,0,1,9.494-5.83,10.427,10.427,0,0,1,2.745.362,10.643,10.643,0,0,1-2.745,20.925Z" transform="translate(-48.202 -160.894)" fill="#09136e"/>
          <path id="Trazado_998061" data-name="Trazado 998061" d="M62.323,194.263l-.856,3.626a14.41,14.41,0,0,1-9.907-6.374V188.39l2.535.105a10.483,10.483,0,0,0,1.87,2.618A10.621,10.621,0,0,0,62.323,194.263Z" transform="translate(-49.233 -169.342)" fill="#ffc655"/>
          <path id="Trazado_998062" data-name="Trazado 998062" d="M54.933,186.9l-2.924,2.3a14.325,14.325,0,0,1-3.326-13.4c.1-.387.22-.767.353-1.138h4.031A10.626,10.626,0,0,0,54.933,186.9Z" transform="translate(-48.202 -165.124)" fill="#d42190"/>
          <path id="Trazado_998063" data-name="Trazado 998063" d="M66.227,161.315l-.711,3.651a10.432,10.432,0,0,0-2.745-.362,10.665,10.665,0,0,0-10.427,8.486l-3.45-1.518a14.367,14.367,0,0,1,17.332-10.257Z" transform="translate(-48.415 -160.894)" fill="#542fd0"/>
        </g>
        <g id="Grupo_1163440" data-name="Grupo 1163440" transform="translate(40.29 19.26)">
          <rect id="Rectángulo_412063" data-name="Rectángulo 412063" width="34.768" height="2.327" fill="#09136e"/>
          <rect id="Rectángulo_412064" data-name="Rectángulo 412064" width="34.768" height="2.327" transform="translate(0 5.558)" fill="#09136e"/>
          <rect id="Rectángulo_412065" data-name="Rectángulo 412065" width="15.583" height="2.327" transform="translate(0 11.116)" fill="#09136e"/>
          <rect id="Rectángulo_412066" data-name="Rectángulo 412066" width="16.787" height="2.327" transform="translate(17.981 11.116)" fill="#09136e"/>
        </g>
        <g id="Grupo_1163441" data-name="Grupo 1163441" transform="translate(8.37 50.098)">
          <rect id="Rectángulo_412067" data-name="Rectángulo 412067" width="33.757" height="2.327" fill="#09136e"/>
          <rect id="Rectángulo_412068" data-name="Rectángulo 412068" width="27.518" height="2.327" transform="translate(36.044)" fill="#09136e"/>
          <rect id="Rectángulo_412069" data-name="Rectángulo 412069" width="63.558" height="2.327" transform="translate(0 5.558)" fill="#09136e"/>
          <rect id="Rectángulo_412070" data-name="Rectángulo 412070" width="45.583" height="2.327" transform="translate(0 16.123)" fill="#09136e"/>
          <rect id="Rectángulo_412071" data-name="Rectángulo 412071" width="15.77" height="2.327" transform="translate(47.79 16.123)" fill="#09136e"/>
          <rect id="Rectángulo_412072" data-name="Rectángulo 412072" width="15.583" height="2.327" transform="translate(0 11.116)" fill="#09136e"/>
          <rect id="Rectángulo_412073" data-name="Rectángulo 412073" width="45.577" height="2.327" transform="translate(17.981 11.116)" fill="#09136e"/>
        </g>
        <g id="Grupo_1163444" data-name="Grupo 1163444" transform="translate(71.042 72.303)">
          <g id="Grupo_1163442" data-name="Grupo 1163442">
            <path id="Trazado_998064" data-name="Trazado 998064" d="M142.272,251.217a.154.154,0,0,1-.109-.263l1.092-1.108-1.092-1.108a.154.154,0,1,1,.22-.217l1.2,1.216a.154.154,0,0,1,0,.217l-1.2,1.216A.159.159,0,0,1,142.272,251.217Z" transform="translate(-142.118 -248.476)" fill="#fff"/>
          </g>
          <g id="Grupo_1163443" data-name="Grupo 1163443" transform="translate(3.367)">
            <path id="Trazado_998065" data-name="Trazado 998065" d="M147.132,251.217a.157.157,0,0,1-.109-.044.154.154,0,0,1,0-.218l1.093-1.108-1.093-1.108a.154.154,0,1,1,.22-.217l1.2,1.216a.154.154,0,0,1,0,.217l-1.2,1.216A.154.154,0,0,1,147.132,251.217Z" transform="translate(-146.978 -248.476)" fill="#fff"/>
          </g>
        </g>
        <g id="Grupo_1163446" data-name="Grupo 1163446" transform="translate(4.752 2.696)">
          <g id="Grupo_1163445" data-name="Grupo 1163445" transform="translate(0 0.174)">
            <path id="Trazado_998066" data-name="Trazado 998066" d="M48.2,149.133a.883.883,0,1,1-.883-.883A.883.883,0,0,1,48.2,149.133Z" transform="translate(-46.429 -148.25)" fill="#fff"/>
            <path id="Trazado_998067" data-name="Trazado 998067" d="M56.133,149.133a.883.883,0,1,1-.883-.883A.883.883,0,0,1,56.133,149.133Z" transform="translate(-48.867 -148.25)" fill="#fff"/>
            <path id="Trazado_998068" data-name="Trazado 998068" d="M64.071,149.133a.883.883,0,1,1-.883-.883A.883.883,0,0,1,64.071,149.133Z" transform="translate(-51.306 -148.25)" fill="#fff"/>
          </g>
          <path id="Trazado_998069" data-name="Trazado 998069" d="M147.864,149.056l.831-.808a.152.152,0,0,0,.011-.2.122.122,0,0,0-.184-.012l-.854.831-.854-.831a.122.122,0,0,0-.184.012.151.151,0,0,0,.011.2l.831.808-.831.808a.152.152,0,0,0-.011.2.125.125,0,0,0,.1.048.121.121,0,0,0,.086-.036l.854-.831.854.831a.122.122,0,0,0,.184-.012.152.152,0,0,0-.011-.2Z" transform="translate(-77.204 -147.999)" fill="#fff"/>
        </g>
        <g id="Grupo_1163448" data-name="Grupo 1163448" transform="translate(4.752 2.696)">
          <g id="Grupo_1163447" data-name="Grupo 1163447" transform="translate(0 0.174)">
            <path id="Trazado_998070" data-name="Trazado 998070" d="M48.2,149.133a.883.883,0,1,1-.883-.883A.883.883,0,0,1,48.2,149.133Z" transform="translate(-46.429 -148.25)" fill="#fff"/>
            <path id="Trazado_998071" data-name="Trazado 998071" d="M56.133,149.133a.883.883,0,1,1-.883-.883A.883.883,0,0,1,56.133,149.133Z" transform="translate(-48.867 -148.25)" fill="#fff"/>
            <path id="Trazado_998072" data-name="Trazado 998072" d="M64.071,149.133a.883.883,0,1,1-.883-.883A.883.883,0,0,1,64.071,149.133Z" transform="translate(-51.306 -148.25)" fill="#fff"/>
          </g>
          <path id="Trazado_998073" data-name="Trazado 998073" d="M147.864,149.056l.831-.808a.152.152,0,0,0,.011-.2.122.122,0,0,0-.184-.012l-.854.831-.854-.831a.122.122,0,0,0-.184.012.151.151,0,0,0,.011.2l.831.808-.831.808a.152.152,0,0,0-.011.2.125.125,0,0,0,.1.048.121.121,0,0,0,.086-.036l.854-.831.854.831a.122.122,0,0,0,.184-.012.152.152,0,0,0-.011-.2Z" transform="translate(-77.204 -147.999)" fill="#fff"/>
        </g>
      </g>
      <g id="Grupo_1163470" data-name="Grupo 1163470" transform="translate(224.305 229.087)">
        <g id="Grupo_1163450" data-name="Grupo 1163450" opacity="0.4">
          <path id="Trazado_998074" data-name="Trazado 998074" d="M403.1,303.672v72.256a4.655,4.655,0,0,1-4.658,4.653H326.723a4.655,4.655,0,0,1-4.658-4.653V303.672a4.656,4.656,0,0,1,4.658-4.658h71.721A4.656,4.656,0,0,1,403.1,303.672Z" transform="translate(-322.065 -299.014)" fill="#d42190"/>
          <path id="Trazado_998075" data-name="Trazado 998075" d="M403.1,308.636v71.319a3.583,3.583,0,0,1-3.583,3.583H325.653a3.588,3.588,0,0,1-3.588-3.588V308.636Z" transform="translate(-322.065 -301.97)" fill="#ded7ff"/>
        </g>
        <g id="Grupo_1163451" data-name="Grupo 1163451" transform="translate(8.739 54.316)">
          <rect id="Rectángulo_412074" data-name="Rectángulo 412074" width="33.757" height="2.327" fill="#09136e"/>
          <rect id="Rectángulo_412075" data-name="Rectángulo 412075" width="27.518" height="2.327" transform="translate(36.043)" fill="#09136e"/>
          <rect id="Rectángulo_412076" data-name="Rectángulo 412076" width="63.558" height="2.327" transform="translate(0 5.558)" fill="#09136e"/>
          <rect id="Rectángulo_412077" data-name="Rectángulo 412077" width="45.583" height="2.327" transform="translate(0 16.123)" fill="#09136e"/>
          <rect id="Rectángulo_412078" data-name="Rectángulo 412078" width="15.77" height="2.327" transform="translate(47.79 16.123)" fill="#09136e"/>
          <rect id="Rectángulo_412079" data-name="Rectángulo 412079" width="15.583" height="2.327" transform="translate(0 11.116)" fill="#09136e"/>
          <rect id="Rectángulo_412080" data-name="Rectángulo 412080" width="45.577" height="2.327" transform="translate(17.98 11.116)" fill="#09136e"/>
        </g>
        <g id="Grupo_1163453" data-name="Grupo 1163453" transform="translate(4.751 2.696)">
          <g id="Grupo_1163452" data-name="Grupo 1163452" transform="translate(0 0.174)">
            <path id="Trazado_998076" data-name="Trazado 998076" d="M330.69,304.039a.883.883,0,1,1-.883-.883A.883.883,0,0,1,330.69,304.039Z" transform="translate(-328.923 -303.156)" fill="#fff"/>
            <path id="Trazado_998077" data-name="Trazado 998077" d="M338.628,304.039a.883.883,0,1,1-.883-.883A.883.883,0,0,1,338.628,304.039Z" transform="translate(-331.362 -303.156)" fill="#fff"/>
            <path id="Trazado_998078" data-name="Trazado 998078" d="M346.565,304.039a.883.883,0,1,1-.883-.883A.883.883,0,0,1,346.565,304.039Z" transform="translate(-333.8 -303.156)" fill="#fff"/>
          </g>
          <path id="Trazado_998079" data-name="Trazado 998079" d="M430.359,303.962l.831-.808a.152.152,0,0,0,.011-.2.122.122,0,0,0-.184-.012l-.854.831-.854-.831a.122.122,0,0,0-.184.012.152.152,0,0,0,.011.2l.831.808-.831.808a.152.152,0,0,0-.011.2.125.125,0,0,0,.1.048.121.121,0,0,0,.086-.036l.854-.831.854.831a.122.122,0,0,0,.184-.012.152.152,0,0,0-.011-.2Z" transform="translate(-359.698 -302.905)" fill="#fff"/>
        </g>
        <g id="Grupo_1163459" data-name="Grupo 1163459" transform="translate(4.751 2.696)">
          <g id="Grupo_1163456" data-name="Grupo 1163456" transform="translate(66.291 72.943)">
            <g id="Grupo_1163454" data-name="Grupo 1163454">
              <path id="Trazado_998080" data-name="Trazado 998080" d="M424.767,410.938a.154.154,0,0,1-.109-.263l1.092-1.108-1.092-1.108a.154.154,0,1,1,.22-.217l1.2,1.217a.154.154,0,0,1,0,.217l-1.2,1.216A.159.159,0,0,1,424.767,410.938Z" transform="translate(-424.613 -408.197)" fill="#fff"/>
            </g>
            <g id="Grupo_1163455" data-name="Grupo 1163455" transform="translate(3.368)">
              <path id="Trazado_998081" data-name="Trazado 998081" d="M429.628,410.938a.154.154,0,0,1-.109-.263l1.092-1.108-1.092-1.108a.154.154,0,1,1,.22-.217l1.2,1.217a.154.154,0,0,1,0,.217l-1.2,1.216A.158.158,0,0,1,429.628,410.938Z" transform="translate(-429.474 -408.197)" fill="#fff"/>
            </g>
          </g>
          <g id="Grupo_1163458" data-name="Grupo 1163458">
            <g id="Grupo_1163457" data-name="Grupo 1163457" transform="translate(0 0.174)">
              <path id="Trazado_998082" data-name="Trazado 998082" d="M330.69,304.039a.883.883,0,1,1-.883-.883A.883.883,0,0,1,330.69,304.039Z" transform="translate(-328.923 -303.156)" fill="#fff"/>
              <path id="Trazado_998083" data-name="Trazado 998083" d="M338.628,304.039a.883.883,0,1,1-.883-.883A.883.883,0,0,1,338.628,304.039Z" transform="translate(-331.362 -303.156)" fill="#fff"/>
              <path id="Trazado_998084" data-name="Trazado 998084" d="M346.565,304.039a.883.883,0,1,1-.883-.883A.883.883,0,0,1,346.565,304.039Z" transform="translate(-333.8 -303.156)" fill="#fff"/>
            </g>
            <path id="Trazado_998085" data-name="Trazado 998085" d="M430.359,303.962l.831-.808a.152.152,0,0,0,.011-.2.122.122,0,0,0-.184-.012l-.854.831-.854-.831a.122.122,0,0,0-.184.012.152.152,0,0,0,.011.2l.831.808-.831.808a.152.152,0,0,0-.011.2.125.125,0,0,0,.1.048.121.121,0,0,0,.086-.036l.854-.831.854.831a.122.122,0,0,0,.184-.012.152.152,0,0,0-.011-.2Z" transform="translate(-359.698 -302.905)" fill="#fff"/>
          </g>
        </g>
        <g id="Grupo_1163469" data-name="Grupo 1163469" transform="translate(8.156 12.013)">
          <g id="Grupo_1163461" data-name="Grupo 1163461">
            <rect id="Rectángulo_412081" data-name="Rectángulo 412081" width="4.159" height="14.057" transform="translate(9.472 22.707)" fill="#ffc655"/>
            <rect id="Rectángulo_412082" data-name="Rectángulo 412082" width="4.159" height="17.669" transform="translate(34.963 19.095)" fill="#ffc655"/>
            <rect id="Rectángulo_412083" data-name="Rectángulo 412083" width="4.159" height="9.864" transform="translate(17.703 26.899)" fill="#d42190"/>
            <rect id="Rectángulo_412084" data-name="Rectángulo 412084" width="3.533" height="9.864" transform="translate(2.376 26.899)" fill="#542fd0"/>
            <rect id="Rectángulo_412085" data-name="Rectángulo 412085" width="4.159" height="18.381" transform="translate(26.311 18.383)" fill="#542fd0"/>
            <rect id="Rectángulo_412086" data-name="Rectángulo 412086" width="4.159" height="24.32" transform="translate(43.615 12.443)" fill="#d42190"/>
            <rect id="Rectángulo_412087" data-name="Rectángulo 412087" width="4.159" height="29.649" transform="translate(51.616 7.115)" fill="#542fd0"/>
            <g id="Grupo_1163460" data-name="Grupo 1163460">
              <path id="Trazado_998086" data-name="Trazado 998086" d="M334.195,340.711a.387.387,0,0,1-.276-.11.273.273,0,0,1,.049-.427l13.75-9.59a.408.408,0,0,1,.475.017l5.69,4.684,10.1-7.724a.4.4,0,0,1,.466-.008l5.882,4.112,17.892-15.22a.4.4,0,0,1,.5,0,.272.272,0,0,1,0,.428l-18.122,15.415a.4.4,0,0,1-.479.02l-5.895-4.121-10.12,7.739a.4.4,0,0,1-.487-.007l-5.7-4.692-13.5,9.418A.4.4,0,0,1,334.195,340.711Z" transform="translate(-333.838 -316.354)" fill="#542fd0"/>
            </g>
          </g>
          <g id="Grupo_1163468" data-name="Grupo 1163468" transform="translate(61.364 4.062)">
            <g id="Grupo_1163467" data-name="Grupo 1163467">
              <g id="Grupo_1163462" data-name="Grupo 1163462">
                <rect id="Rectángulo_412088" data-name="Rectángulo 412088" width="3.362" height="3.362" fill="#542fd0"/>
              </g>
              <g id="Grupo_1163463" data-name="Grupo 1163463" transform="translate(0 7.335)">
                <rect id="Rectángulo_412089" data-name="Rectángulo 412089" width="3.362" height="3.362" fill="#ffc655"/>
              </g>
              <g id="Grupo_1163464" data-name="Grupo 1163464" transform="translate(0 14.67)">
                <rect id="Rectángulo_412090" data-name="Rectángulo 412090" width="3.362" height="3.362" fill="#d42190"/>
              </g>
              <g id="Grupo_1163465" data-name="Grupo 1163465" transform="translate(0 22.005)">
                <rect id="Rectángulo_412091" data-name="Rectángulo 412091" width="3.362" height="3.362" fill="#542fd0"/>
              </g>
              <g id="Grupo_1163466" data-name="Grupo 1163466" transform="translate(0 29.34)">
                <rect id="Rectángulo_412092" data-name="Rectángulo 412092" width="3.362" height="3.362" fill="#ffc655"/>
              </g>
            </g>
          </g>
        </g>
      </g>
      <g id="Grupo_1163474" data-name="Grupo 1163474" transform="translate(38.63 85.665)">
        <g id="Grupo_1163471" data-name="Grupo 1163471" transform="translate(0 0)">
          <path id="Trazado_998087" data-name="Trazado 998087" d="M110.037,118.746H54.755l-.095-.2a6.147,6.147,0,0,1-.611-2.69,6.221,6.221,0,0,1,6.213-6.214c.177,0,.361.009.552.028a10.734,10.734,0,0,1,10.6-12.387,10.679,10.679,0,0,1,5.614,1.588,13.377,13.377,0,0,1,25.045,5.627,10.7,10.7,0,0,1,8.043,14.011Zm-54.838-.7h54.336a10,10,0,0,0-7.854-12.908l-.278-.048-.012-.282A12.678,12.678,0,0,0,77.47,99.532l-.179.346-.324-.216a10.028,10.028,0,0,0-15.58,8.354,10.1,10.1,0,0,0,.2,2l.1.5-.5-.083a5.589,5.589,0,0,0-.923-.083,5.521,5.521,0,0,0-5.514,5.515A5.454,5.454,0,0,0,55.2,118.047Z" transform="translate(-54.049 -91.987)" fill="#b19cfe"/>
        </g>
        <g id="Grupo_1163472" data-name="Grupo 1163472" transform="translate(84.964 182.832)">
          <path id="Trazado_998088" data-name="Trazado 998088" d="M232.681,382.659H177.4l-.095-.2a6.147,6.147,0,0,1-.611-2.69,6.221,6.221,0,0,1,6.213-6.214c.178,0,.361.01.551.028a10.734,10.734,0,0,1,10.6-12.387,10.679,10.679,0,0,1,5.614,1.588,13.377,13.377,0,0,1,25.045,5.627,10.7,10.7,0,0,1,8.043,14.011Zm-54.838-.7h54.336a10,10,0,0,0-7.854-12.908l-.279-.048-.012-.282a12.678,12.678,0,0,0-23.922-5.277l-.179.346-.324-.216a10.028,10.028,0,0,0-15.58,8.354,10.132,10.132,0,0,0,.2,2l.1.5-.5-.085a5.511,5.511,0,0,0-5.984,7.62Z" transform="translate(-176.693 -355.9)" fill="#b19cfe"/>
        </g>
        <g id="Grupo_1163473" data-name="Grupo 1163473" transform="translate(216.423 26.759)">
          <path id="Trazado_998089" data-name="Trazado 998089" d="M416.2,154.438H367.092l-.095-.2a5.5,5.5,0,0,1-.547-2.4A5.56,5.56,0,0,1,372,146.281c.144,0,.291.007.443.021a9.56,9.56,0,0,1,14.423-9.595,11.91,11.91,0,0,1,22.277,5.016,9.533,9.533,0,0,1,7.138,12.479Zm-48.667-.7H415.7a8.834,8.834,0,0,0-6.948-11.377l-.279-.048-.012-.282a11.211,11.211,0,0,0-21.155-4.667l-.179.346-.324-.215a8.86,8.86,0,0,0-13.765,7.38,8.97,8.97,0,0,0,.177,1.765l.1.5-.5-.085a4.853,4.853,0,0,0-5.278,6.684Z" transform="translate(-366.45 -130.613)" fill="#b19cfe"/>
        </g>
      </g>
      <g id="Grupo_1163481" data-name="Grupo 1163481" transform="translate(28.235 275.747)">
        <g id="Grupo_1163475" data-name="Grupo 1163475">
          <path id="Trazado_998090" data-name="Trazado 998090" d="M63.189,383.533H39.044V366.366H63.188v17.167ZM39.773,382.8H62.46V367.1H39.773Z" transform="translate(-39.044 -366.366)" fill="#b19cfe"/>
        </g>
        <g id="Grupo_1163478" data-name="Grupo 1163478" transform="translate(0.148 0.073)">
          <g id="Grupo_1163476" data-name="Grupo 1163476" transform="translate(0 0.015)">
            <rect id="Rectángulo_412093" data-name="Rectángulo 412093" width="0.729" height="14.796" transform="matrix(0.612, -0.791, 0.791, 0.612, 0, 0.577)" fill="#b19cfe"/>
          </g>
          <g id="Grupo_1163477" data-name="Grupo 1163477" transform="translate(11.692 0)">
            <rect id="Rectángulo_412094" data-name="Rectángulo 412094" width="14.796" height="0.729" transform="translate(0 9.048) rotate(-37.7)" fill="#b19cfe"/>
          </g>
        </g>
        <g id="Grupo_1163479" data-name="Grupo 1163479" transform="translate(14.889 7.101)">
          <rect id="Rectángulo_412095" data-name="Rectángulo 412095" width="0.729" height="12.807" transform="translate(0 0.491) rotate(-42.382)" fill="#b19cfe"/>
        </g>
        <g id="Grupo_1163480" data-name="Grupo 1163480" transform="translate(0.099 7.108)">
          <rect id="Rectángulo_412096" data-name="Rectángulo 412096" width="12.807" height="0.729" transform="matrix(0.674, -0.739, 0.739, 0.674, 0, 9.459)" fill="#b19cfe"/>
        </g>
      </g>
      <g id="Grupo_1163482" data-name="Grupo 1163482" transform="translate(187.391 85.599)">
        <path id="Trazado_998091" data-name="Trazado 998091" d="M278.244,112.739l-.179-.1c-12.446-7.017-8.794-18.063-8.755-18.174l.1-.284.3.043c3.512.507,8.307-2.2,8.356-2.23l.175-.1.178.095c.208.118,4.89,2.729,8.366,2.235l.3-.043.1.284c.039.111,3.69,11.158-8.755,18.174Zm-8.331-17.758c-.491,1.73-2.427,10.743,8.33,16.92,10.758-6.177,8.822-15.19,8.331-16.92-3.358.328-7.42-1.761-8.331-2.256C277.328,93.216,273.224,95.3,269.912,94.981Z" transform="translate(-268.781 -91.893)" fill="#b19cfe"/>
      </g>
      <g id="Grupo_1163486" data-name="Grupo 1163486" transform="translate(40.333 195.463)">
        <g id="Grupo_1163483" data-name="Grupo 1163483" transform="translate(0.905 0.988)">
          <path id="Trazado_998092" data-name="Trazado 998092" d="M110.243,304.465H58.177a.364.364,0,0,1-.364-.364V252.269a.364.364,0,1,1,.729,0v51.466h51.7a.365.365,0,0,1,0,.729Z" transform="translate(-57.813 -251.905)" fill="#d42190"/>
        </g>
        <g id="Grupo_1163484" data-name="Grupo 1163484">
          <path id="Trazado_998093" data-name="Trazado 998093" d="M59.049,251.75a1.271,1.271,0,1,1-1.271-1.271A1.272,1.272,0,0,1,59.049,251.75Z" transform="translate(-56.507 -250.479)" fill="#d42190"/>
        </g>
        <g id="Grupo_1163485" data-name="Grupo 1163485" transform="translate(52.063 51.912)">
          <path id="Trazado_998094" data-name="Trazado 998094" d="M134.2,326.684a1.271,1.271,0,1,1-1.271-1.271A1.272,1.272,0,0,1,134.2,326.684Z" transform="translate(-131.659 -325.413)" fill="#d42190"/>
        </g>
      </g>
      <g id="Grupo_1163490" data-name="Grupo 1163490" transform="translate(254.323 152.374)">
        <g id="Grupo_1163487" data-name="Grupo 1163487" transform="translate(0.908 0.908)">
          <path id="Trazado_998095" data-name="Trazado 998095" d="M425.816,277.773H409.172a.364.364,0,0,1,0-.729h16.279V190.32H367.07a.364.364,0,0,1,0-.729h58.746a.364.364,0,0,1,.364.364v87.454A.364.364,0,0,1,425.816,277.773Z" transform="translate(-366.706 -189.591)" fill="#d42190"/>
        </g>
        <g id="Grupo_1163488" data-name="Grupo 1163488" transform="translate(41.592 87.454)">
          <path id="Trazado_998096" data-name="Trazado 998096" d="M425.433,315.79a1.271,1.271,0,1,1,1.271,1.271A1.272,1.272,0,0,1,425.433,315.79Z" transform="translate(-425.433 -314.519)" fill="#d42190"/>
        </g>
        <g id="Grupo_1163489" data-name="Grupo 1163489" transform="translate(0 0)">
          <path id="Trazado_998097" data-name="Trazado 998097" d="M365.4,189.552a1.271,1.271,0,1,1,1.271,1.271A1.272,1.272,0,0,1,365.4,189.552Z" transform="translate(-365.396 -188.281)" fill="#d42190"/>
        </g>
      </g>
      <path id="Trazado_998098" data-name="Trazado 998098" d="M234.036,299.824l-3.423-2.234a14.076,14.076,0,0,0,.435-2.5l3.977-.945a2.72,2.72,0,0,0,2.018-3.275l-.77-3.242A2.72,2.72,0,0,0,233,285.612l-3.977.945a14,14,0,0,0-1.036-1.473l2.234-3.423a2.721,2.721,0,0,0-.791-3.765l-2.79-1.821a2.721,2.721,0,0,0-3.765.791l-2.234,3.423a14.023,14.023,0,0,0-1.765-.355l-.736-4.021a2.721,2.721,0,0,0-3.166-2.186l-3.277.6a2.721,2.721,0,0,0-2.186,3.166l.736,4.021a14.044,14.044,0,0,0-2.111,1.4l-3.423-2.234a2.721,2.721,0,0,0-3.765.791l-1.821,2.79a2.721,2.721,0,0,0,.791,3.765l3.423,2.234a14,14,0,0,0-.435,2.5l-3.977.945a2.72,2.72,0,0,0-2.018,3.275l.77,3.242a2.72,2.72,0,0,0,3.275,2.018l3.977-.945a14,14,0,0,0,1.036,1.473l-2.234,3.423a2.721,2.721,0,0,0,.791,3.765l2.79,1.821a2.721,2.721,0,0,0,3.765-.791l2.234-3.423a14.024,14.024,0,0,0,1.765.355l.736,4.021a2.721,2.721,0,0,0,3.166,2.186l3.278-.6a2.72,2.72,0,0,0,2.186-3.166l-.736-4.021a14.049,14.049,0,0,0,2.111-1.4l3.423,2.234A2.721,2.721,0,0,0,233,306.38l1.821-2.79A2.719,2.719,0,0,0,234.036,299.824Zm-22.011,1.688a9.058,9.058,0,1,1,12.536-2.635A9.069,9.069,0,0,1,212.024,301.512Z" transform="translate(-59.285 -62.144)" fill="#09136e"/>
      <path id="Trazado_998099" data-name="Trazado 998099" d="M156.729,331.067l-.015-27.674a9.012,9.012,0,0,0-.245-16.888l.006,10.352-9.339,0-.006-10.352A9.013,9.013,0,0,0,146.9,303.4l.015,27.674a9.012,9.012,0,0,0,.245,16.888l-.006-10.352,9.339,0,.006,10.352a9.013,9.013,0,0,0,.229-16.889Z" transform="translate(-42.178 -66.083)" fill="#09136e"/>
      <g id="Grupo_1163496" data-name="Grupo 1163496" transform="translate(36.312 99.539)">
        <g id="Grupo_1163491" data-name="Grupo 1163491" transform="translate(0 161.025)">
          <path id="Trazado_998100" data-name="Trazado 998100" d="M55.934,347.066a2.616,2.616,0,1,1-2.616-2.616A2.616,2.616,0,0,1,55.934,347.066Z" transform="translate(-50.702 -344.45)" fill="#ffc655"/>
        </g>
        <g id="Grupo_1163492" data-name="Grupo 1163492" transform="translate(173.583 19.618)">
          <path id="Trazado_998101" data-name="Trazado 998101" d="M306.5,142.948a2.616,2.616,0,1,1-2.616-2.616A2.616,2.616,0,0,1,306.5,142.948Z" transform="translate(-301.265 -140.332)" fill="#ffc655"/>
        </g>
        <g id="Grupo_1163493" data-name="Grupo 1163493" transform="translate(67.694 0)">
          <path id="Trazado_998102" data-name="Trazado 998102" d="M151.381,117.945a2.965,2.965,0,1,1,2.965-2.965A2.968,2.968,0,0,1,151.381,117.945Zm0-5.232a2.266,2.266,0,1,0,2.266,2.267A2.269,2.269,0,0,0,151.381,112.713Z" transform="translate(-148.416 -112.014)" fill="#ffc655"/>
        </g>
        <g id="Grupo_1163494" data-name="Grupo 1163494" transform="translate(161.845 190.862)">
          <circle id="Elipse_12246" data-name="Elipse 12246" cx="2.616" cy="2.616" r="2.616" fill="#ffc655"/>
        </g>
        <g id="Grupo_1163495" data-name="Grupo 1163495" transform="translate(278.282 42.037)">
          <path id="Trazado_998103" data-name="Trazado 998103" d="M455.36,178.624a2.965,2.965,0,1,1,2.966-2.966A2.969,2.969,0,0,1,455.36,178.624Zm0-5.232a2.266,2.266,0,1,0,2.267,2.266A2.268,2.268,0,0,0,455.36,173.392Z" transform="translate(-452.395 -172.693)" fill="#ffc655"/>
        </g>
      </g>
      <g id="Grupo_1163498" data-name="Grupo 1163498" transform="translate(238.948 86.015)">
        <g id="Grupo_1163497" data-name="Grupo 1163497" transform="translate(0 0)">
          <rect id="Rectángulo_412097" data-name="Rectángulo 412097" width="36.423" height="2.996" fill="#542fd0"/>
          <rect id="Rectángulo_412098" data-name="Rectángulo 412098" width="44.189" height="2.996" transform="translate(0 6.938)" fill="#542fd0"/>
          <rect id="Rectángulo_412099" data-name="Rectángulo 412099" width="40.523" height="2.996" transform="translate(0 13.876)" fill="#542fd0"/>
          <rect id="Rectángulo_412100" data-name="Rectángulo 412100" width="15.788" height="2.996" transform="translate(0 20.814)" fill="#542fd0"/>
        </g>
      </g>
      <g id="Grupo_1163500" data-name="Grupo 1163500" transform="translate(77.77 287.239)">
        <g id="Grupo_1163499" data-name="Grupo 1163499">
          <rect id="Rectángulo_412101" data-name="Rectángulo 412101" width="7.893" height="2.996" transform="translate(0 13.876)" fill="#542fd0"/>
          <rect id="Rectángulo_412102" data-name="Rectángulo 412102" width="32.087" height="2.996" transform="translate(10.318 13.876)" fill="#542fd0"/>
          <rect id="Rectángulo_412103" data-name="Rectángulo 412103" width="26.559" height="2.996" transform="translate(0 6.938)" fill="#542fd0"/>
          <rect id="Rectángulo_412104" data-name="Rectángulo 412104" width="35.546" height="2.996" transform="translate(0 20.419)" fill="#542fd0"/>
          <rect id="Rectángulo_412105" data-name="Rectángulo 412105" width="15.788" height="2.996" fill="#542fd0"/>
        </g>
      </g>
      <g id="Grupo_1163507" data-name="Grupo 1163507" transform="translate(177.554 304.316)">
        <g id="Grupo_1163501" data-name="Grupo 1163501">
          <path id="Trazado_998104" data-name="Trazado 998104" d="M255.033,413.906a.451.451,0,0,1-.291-.8l6.4-5.4a.45.45,0,1,1,.581.689l-6.4,5.4A.446.446,0,0,1,255.033,413.906Z" transform="translate(-254.582 -407.605)" fill="#d42190"/>
        </g>
        <g id="Grupo_1163502" data-name="Grupo 1163502" transform="translate(5.85)">
          <path id="Trazado_998105" data-name="Trazado 998105" d="M263.477,413.906a.451.451,0,0,1-.291-.8l6.4-5.4a.45.45,0,0,1,.581.689l-6.4,5.4A.447.447,0,0,1,263.477,413.906Z" transform="translate(-263.026 -407.605)" fill="#d42190"/>
        </g>
        <g id="Grupo_1163503" data-name="Grupo 1163503" transform="translate(11.699)">
          <path id="Trazado_998106" data-name="Trazado 998106" d="M271.92,413.906a.451.451,0,0,1-.29-.8l6.4-5.4a.45.45,0,1,1,.581.689l-6.4,5.4A.45.45,0,0,1,271.92,413.906Z" transform="translate(-271.47 -407.605)" fill="#d42190"/>
        </g>
        <g id="Grupo_1163504" data-name="Grupo 1163504" transform="translate(17.548)">
          <path id="Trazado_998107" data-name="Trazado 998107" d="M280.363,413.906a.451.451,0,0,1-.291-.8l6.4-5.4a.45.45,0,0,1,.581.689l-6.4,5.4A.447.447,0,0,1,280.363,413.906Z" transform="translate(-279.912 -407.605)" fill="#d42190"/>
        </g>
        <g id="Grupo_1163505" data-name="Grupo 1163505" transform="translate(23.397)">
          <path id="Trazado_998108" data-name="Trazado 998108" d="M288.806,413.906a.451.451,0,0,1-.29-.8l6.4-5.4a.45.45,0,0,1,.581.689l-6.4,5.4A.449.449,0,0,1,288.806,413.906Z" transform="translate(-288.356 -407.605)" fill="#d42190"/>
        </g>
        <g id="Grupo_1163506" data-name="Grupo 1163506" transform="translate(29.801)">
          <path id="Trazado_998109" data-name="Trazado 998109" d="M298.05,413.906a.451.451,0,0,1-.291-.8l6.4-5.4a.45.45,0,0,1,.581.689l-6.4,5.4A.446.446,0,0,1,298.05,413.906Z" transform="translate(-297.599 -407.605)" fill="#d42190"/>
        </g>
      </g>
      <g id="Grupo_1163514" data-name="Grupo 1163514" transform="translate(113.681 85.565)">
        <g id="Grupo_1163508" data-name="Grupo 1163508" transform="translate(0 0)">
          <path id="Trazado_998110" data-name="Trazado 998110" d="M162.834,98.144a.45.45,0,0,1-.291-.795l6.4-5.4a.45.45,0,0,1,.581.689l-6.4,5.4A.447.447,0,0,1,162.834,98.144Z" transform="translate(-162.383 -91.843)" fill="#d42190"/>
        </g>
        <g id="Grupo_1163509" data-name="Grupo 1163509" transform="translate(5.849 0)">
          <path id="Trazado_998111" data-name="Trazado 998111" d="M171.277,98.144a.45.45,0,0,1-.291-.795l6.4-5.4a.45.45,0,0,1,.581.689l-6.4,5.4A.447.447,0,0,1,171.277,98.144Z" transform="translate(-170.826 -91.843)" fill="#d42190"/>
        </g>
        <g id="Grupo_1163510" data-name="Grupo 1163510" transform="translate(11.699 0)">
          <path id="Trazado_998112" data-name="Trazado 998112" d="M179.72,98.144a.45.45,0,0,1-.29-.795l6.4-5.4a.45.45,0,1,1,.581.689l-6.4,5.4A.448.448,0,0,1,179.72,98.144Z" transform="translate(-179.27 -91.843)" fill="#d42190"/>
        </g>
        <g id="Grupo_1163511" data-name="Grupo 1163511" transform="translate(17.547 0)">
          <path id="Trazado_998113" data-name="Trazado 998113" d="M188.163,98.144a.45.45,0,0,1-.291-.795l6.4-5.4a.45.45,0,0,1,.581.689l-6.4,5.4A.445.445,0,0,1,188.163,98.144Z" transform="translate(-187.712 -91.843)" fill="#d42190"/>
        </g>
        <g id="Grupo_1163512" data-name="Grupo 1163512" transform="translate(23.397 0)">
          <path id="Trazado_998114" data-name="Trazado 998114" d="M196.607,98.144a.45.45,0,0,1-.29-.795l6.4-5.4a.45.45,0,0,1,.581.689l-6.4,5.4A.45.45,0,0,1,196.607,98.144Z" transform="translate(-196.157 -91.843)" fill="#d42190"/>
        </g>
        <g id="Grupo_1163513" data-name="Grupo 1163513" transform="translate(29.801 0)">
          <path id="Trazado_998115" data-name="Trazado 998115" d="M205.851,98.144a.45.45,0,0,1-.291-.795l6.4-5.4a.45.45,0,1,1,.581.689l-6.4,5.4A.447.447,0,0,1,205.851,98.144Z" transform="translate(-205.4 -91.843)" fill="#d42190"/>
        </g>
      </g>
      <path id="Trazado_998116" data-name="Trazado 998116" d="M304.992,185.762h-6.539v-6.538a1.848,1.848,0,0,0-1.848-1.848h-1.253a1.848,1.848,0,0,0-1.848,1.848v6.538h-6.538a1.848,1.848,0,0,0-1.848,1.848v1.253a1.848,1.848,0,0,0,1.848,1.848H293.5v6.538a1.848,1.848,0,0,0,1.848,1.848H296.6a1.848,1.848,0,0,0,1.848-1.848v-6.538h6.539a1.848,1.848,0,0,0,1.848-1.848V187.61A1.848,1.848,0,0,0,304.992,185.762Z" transform="translate(-86.409 -32.556)" fill="#542fd0"/>
      <path id="Trazado_998117" data-name="Trazado 998117" d="M340.471,167.625h-6.538v-6.538a1.848,1.848,0,0,0-1.848-1.848h-1.253a1.848,1.848,0,0,0-1.848,1.848v6.538h-6.538a1.848,1.848,0,0,0-1.848,1.848v1.253a1.848,1.848,0,0,0,1.848,1.848h6.538v6.538a1.848,1.848,0,0,0,1.848,1.848h1.253a1.848,1.848,0,0,0,1.848-1.848v-6.538h6.538a1.848,1.848,0,0,0,1.848-1.848v-1.253A1.848,1.848,0,0,0,340.471,167.625Z" transform="translate(-97.309 -26.984)" fill="#542fd0"/>
    </g>
  </g>
</svg>
