<svg xmlns="http://www.w3.org/2000/svg" xmlns:xlink="http://www.w3.org/1999/xlink" width="108" height="108" viewBox="0 0 108 108">
  <defs>
    <filter id="Trazado_982547" x="0" y="0" width="108" height="108" filterUnits="userSpaceOnUse">
      <feOffset dy="3" input="SourceAlpha"/>
      <feGaussianBlur stdDeviation="3" result="blur"/>
      <feFlood flood-opacity="0.161"/>
      <feComposite operator="in" in2="blur"/>
      <feComposite in="SourceGraphic"/>
    </filter>
  </defs>
  <g id="Grupo_1163428" data-name="Grupo 1163428" transform="translate(-171 -5749)">
    <g id="Grupo_1162154" data-name="Grupo 1162154" transform="translate(10 -1848)">
      <g id="Grupo_1158147" data-name="Grupo 1158147" transform="translate(0 5442)">
        <g id="Grupo_1153207" data-name="Grupo 1153207" transform="translate(0 703)">
          <g id="Grupo_1153117" data-name="Grupo 1153117" transform="translate(-93 939)">
            <g id="Grupo_1149598" data-name="Grupo 1149598" transform="translate(80 315)">
              <g id="Grupo_1148770" data-name="Grupo 1148770" transform="translate(-27 -2583)">
                <g id="Grupo_1146954" data-name="Grupo 1146954" transform="translate(-415 -1202)">
                  <g transform="matrix(1, 0, 0, 1, 616, 3983)" filter="url(#Trazado_982547)">
                    <g id="Trazado_982547-2" data-name="Trazado 982547" transform="translate(9 6)" fill="#ebfefd">
                      <path d="M 45 88.5 C 39.12687683105469 88.5 33.43022537231445 87.35007476806641 28.06830024719238 85.08217620849609 C 22.88852500915527 82.89131164550781 18.23629951477051 79.75458526611328 14.2408504486084 75.75914764404297 C 10.24541282653809 71.76370239257812 7.108687400817871 67.11147308349609 4.917825222015381 61.93170166015625 C 2.649924993515015 56.56977462768555 1.5 50.87312316894531 1.5 45 C 1.5 39.12687683105469 2.649924993515015 33.43022537231445 4.917825222015381 28.06830024719238 C 7.108687400817871 22.88852500915527 10.24541282653809 18.23629951477051 14.2408504486084 14.2408504486084 C 18.23629951477051 10.24541282653809 22.88852500915527 7.108687400817871 28.06830024719238 4.917825222015381 C 33.43022537231445 2.649924993515015 39.12687683105469 1.5 45 1.5 C 50.87312316894531 1.5 56.56977462768555 2.649924993515015 61.93170166015625 4.917825222015381 C 67.11147308349609 7.108687400817871 71.76370239257812 10.24541282653809 75.75914764404297 14.2408504486084 C 79.75458526611328 18.23629951477051 82.89131164550781 22.88852500915527 85.08217620849609 28.06830024719238 C 87.35007476806641 33.43022537231445 88.5 39.12687683105469 88.5 45 C 88.5 50.87312316894531 87.35007476806641 56.56977462768555 85.08217620849609 61.93170166015625 C 82.89131164550781 67.11147308349609 79.75458526611328 71.76370239257812 75.75914764404297 75.75914764404297 C 71.76370239257812 79.75458526611328 67.11147308349609 82.89131164550781 61.93170166015625 85.08217620849609 C 56.56977462768555 87.35007476806641 50.87312316894531 88.5 45 88.5 Z" stroke="none"/>
                      <path d="M 45 3 C 39.32871246337891 3 33.82865524291992 4.110054016113281 28.65262985229492 6.299339294433594 C 23.65165710449219 8.414573669433594 19.15968322753906 11.44334411621094 15.301513671875 15.301513671875 C 11.44334411621094 19.15968322753906 8.414573669433594 23.65165710449219 6.299339294433594 28.65262985229492 C 4.110054016113281 33.82865524291992 3 39.32871246337891 3 45 C 3 50.67128753662109 4.110054016113281 56.17134475708008 6.299339294433594 61.34737396240234 C 8.414573669433594 66.34834289550781 11.44334411621094 70.84031677246094 15.301513671875 74.698486328125 C 19.15968322753906 78.55665588378906 23.65165710449219 81.58542633056641 28.65262985229492 83.70066070556641 C 33.82865524291992 85.88994598388672 39.32871246337891 87 45 87 C 50.67128753662109 87 56.17134475708008 85.88994598388672 61.34737396240234 83.70066070556641 C 66.34834289550781 81.58542633056641 70.84031677246094 78.55665588378906 74.698486328125 74.698486328125 C 78.55665588378906 70.84031677246094 81.58542633056641 66.34834289550781 83.70066070556641 61.34737396240234 C 85.88994598388672 56.17134475708008 87 50.67128753662109 87 45 C 87 39.32871246337891 85.88994598388672 33.82865524291992 83.70066070556641 28.65262985229492 C 81.58542633056641 23.65165710449219 78.55665588378906 19.15968322753906 74.698486328125 15.301513671875 C 70.84031677246094 11.44334411621094 66.34834289550781 8.414573669433594 61.34737396240234 6.299339294433594 C 56.17134475708008 4.110054016113281 50.67128753662109 3 45 3 M 45 0 C 69.85281372070312 0 90 20.14718627929688 90 45 C 90 69.85281372070312 69.85281372070312 90 45 90 C 20.14718627929688 90 0 69.85281372070312 0 45 C 0 20.14718627929688 20.14718627929688 0 45 0 Z" stroke="none" fill="#268985"/>
                    </g>
                  </g>
                </g>
              </g>
            </g>
          </g>
        </g>
      </g>
    </g>
    <g id="desarrollo-de-aplicaciones" transform="translate(194 5770)">
      <rect id="Rectángulo_412062" data-name="Rectángulo 412062" width="55" height="44" rx="2" transform="translate(2 2.384)" fill="#e2e7f6"/>
      <path id="Trazado_998016" data-name="Trazado 998016" d="M3.851,2A1.851,1.851,0,0,0,2,3.851v39.8H51.98A1.851,1.851,0,0,0,53.831,41.8V2Z" transform="translate(-0.074 -0.074)" fill="#f7fafd"/>
      <path id="Trazado_998017" data-name="Trazado 998017" d="M55.682,2H3.851A1.851,1.851,0,0,0,2,3.851V9.4H57.533V3.851A1.851,1.851,0,0,0,55.682,2Z" transform="translate(-0.074 -0.074)" fill="#5e87ca"/>
      <path id="Trazado_998018" data-name="Trazado 998018" d="M53.831,2H3.851A1.851,1.851,0,0,0,2,3.851V9.4H53.831Z" transform="translate(-0.074 -0.074)" fill="#78a0d4"/>
      <path id="Trazado_998019" data-name="Trazado 998019" d="M55.682,49.4H3.851A1.851,1.851,0,0,1,2,47.553V42H57.533v5.553A1.851,1.851,0,0,1,55.682,49.4Z" transform="translate(-0.074 -3.052)" fill="#5e87ca"/>
      <path id="Trazado_998020" data-name="Trazado 998020" d="M2,42v4.628H51.98a1.851,1.851,0,0,0,1.851-1.851V42Z" transform="translate(-0.074 -3.052)" fill="#78a0d4"/>
      <path id="Trazado_998021" data-name="Trazado 998021" d="M5,45h7.4v1.851H5Z" transform="translate(-0.298 -3.276)" fill="#f7fafd"/>
      <path id="Trazado_998022" data-name="Trazado 998022" d="M15,45h1.851v1.851H15Z" transform="translate(-1.042 -3.276)" fill="#f7fafd"/>
      <path id="Trazado_998023" data-name="Trazado 998023" d="M43.474,58H18a1.851,1.851,0,0,0-1.656,1.024L15,61.7H46.469L45.13,59.024A1.851,1.851,0,0,0,43.474,58Z" transform="translate(-1.042 -4.243)" fill="#3b5892"/>
      <path id="Trazado_998024" data-name="Trazado 998024" d="M38.809,57.4,36.958,50H25.851L24,57.4Z" transform="translate(-1.712 -3.648)" fill="#c8cded"/>
      <path id="Trazado_998025" data-name="Trazado 998025" d="M42.841,58.926V58H18.07a1.851,1.851,0,0,0-1.656,1.024L16,59.851H41.915A.926.926,0,0,0,42.841,58.926Z" transform="translate(-1.117 -4.243)" fill="#4c6cb5"/>
      <g id="Grupo_1163427" data-name="Grupo 1163427" transform="translate(24.139 4.702)">
        <path id="Trazado_998026" data-name="Trazado 998026" d="M30,5h3.7V6.851H30Z" transform="translate(-26.298 -5)" fill="#f7fafd"/>
        <path id="Trazado_998027" data-name="Trazado 998027" d="M36,5h1.851V6.851H36Z" transform="translate(-26.744 -5)" fill="#f7fafd"/>
        <path id="Trazado_998028" data-name="Trazado 998028" d="M26,5h1.851V6.851H26Z" transform="translate(-26 -5)" fill="#f7fafd"/>
      </g>
      <path id="Trazado_998029" data-name="Trazado 998029" d="M24.511,27.107V23.4H22.417a7.375,7.375,0,0,0-.789-1.9l1.481-1.481L20.492,17.4l-1.481,1.481a7.375,7.375,0,0,0-1.9-.789V16H13.4v2.094a7.375,7.375,0,0,0-1.9.789L10.019,17.4,7.4,20.02,8.883,21.5a7.375,7.375,0,0,0-.789,1.9H6v3.7H8.094a7.375,7.375,0,0,0,.789,1.9L7.4,30.492l2.617,2.617L11.5,31.629a7.375,7.375,0,0,0,1.9.789v2.094h3.7V32.417a7.375,7.375,0,0,0,1.9-.789l1.481,1.481,2.617-2.617-1.481-1.481a7.375,7.375,0,0,0,.789-1.9Z" transform="translate(-0.372 -1.117)" fill="#939393"/>
      <ellipse id="Elipse_12242" data-name="Elipse 12242" cx="4" cy="3.5" rx="4" ry="3.5" transform="translate(11 20.384)" fill="#f2f2f2"/>
      <path id="Trazado_998030" data-name="Trazado 998030" d="M17.107,16H13.4v2.094a7.375,7.375,0,0,0-1.9.789L10.019,17.4,7.4,20.02,8.883,21.5a7.375,7.375,0,0,0-.789,1.9H6v3.7H8.094a7.375,7.375,0,0,0,.789,1.9l-.669.669A9.163,9.163,0,0,0,18.88,20.589a9.256,9.256,0,0,0-.19-1.867,7.356,7.356,0,0,0-1.584-.628Z" transform="translate(-0.372 -1.117)" fill="#b5b5b5"/>
      <path id="Trazado_998031" data-name="Trazado 998031" d="M40,14H56.66v5.553H40Z" transform="translate(-2.903 -0.968)" fill="#f0ae42"/>
      <path id="Trazado_998032" data-name="Trazado 998032" d="M54.809,16.777V14H40v3.7H53.883A.926.926,0,0,0,54.809,16.777Z" transform="translate(-2.903 -0.968)" fill="#f9d266"/>
      <path id="Trazado_998033" data-name="Trazado 998033" d="M40,24H56.66v3.7H40Z" transform="translate(-2.903 -1.712)" fill="#f0ae42"/>
      <path id="Trazado_998034" data-name="Trazado 998034" d="M54.809,24.926V24H40v1.851H53.883A.926.926,0,0,0,54.809,24.926Z" transform="translate(-2.903 -1.712)" fill="#f9d266"/>
      <path id="Trazado_998035" data-name="Trazado 998035" d="M40,32H56.66v5.553H40Z" transform="translate(-2.903 -2.308)" fill="#f0ae42"/>
      <path id="Trazado_998036" data-name="Trazado 998036" d="M54.809,34.777V32H40v3.7H53.883A.926.926,0,0,0,54.809,34.777Z" transform="translate(-2.903 -2.308)" fill="#f9d266"/>
      <path id="Trazado_998037" data-name="Trazado 998037" d="M38.958,17.851V16h-7.4a.926.926,0,0,0-.926.926v7.4H26v1.851h4.628v7.4a.926.926,0,0,0,.926.926h7.4V32.66H32.479V26.181h6.479V24.33H32.479V17.851Z" transform="translate(-1.861 -1.117)" fill="#3b5892"/>
      <path id="Trazado_998038" data-name="Trazado 998038" d="M18.887,23.845a3.692,3.692,0,1,0-4.443,5.325,9.234,9.234,0,0,0,4.443-5.325Z" transform="translate(-0.819 -1.564)" fill="#f7fafd"/>
      <path id="Trazado_998039" data-name="Trazado 998039" d="M55.608,1H3.777A2.777,2.777,0,0,0,1,3.777V44.5a2.777,2.777,0,0,0,2.777,2.777H22.953l-1.388,5.553H16.953a2.761,2.761,0,0,0-2.483,1.535l-1.34,2.679a.926.926,0,0,0,.828,1.339H45.427a.926.926,0,0,0,.833-1.339l-1.34-2.679a2.761,2.761,0,0,0-2.488-1.535H37.819l-1.388-5.553H55.608A2.777,2.777,0,0,0,58.384,44.5V3.777A2.777,2.777,0,0,0,55.608,1ZM3.777,2.851H55.608a.926.926,0,0,1,.926.926V8.4H2.851V3.777A.926.926,0,0,1,3.777,2.851Zm52.757,7.4V38.022H2.851V10.256ZM43.259,55.194l.67,1.339H15.455l.67-1.339a.92.92,0,0,1,.827-.512H42.431a.92.92,0,0,1,.827.512Zm-7.348-2.363H23.473l1.388-5.553h9.661Zm19.7-7.4H3.777a.926.926,0,0,1-.926-.926V39.873H56.533V44.5A.926.926,0,0,1,55.608,45.427Z"/>
      <path id="Trazado_998040" data-name="Trazado 998040" d="M30,5h3.7V6.851H30Z" transform="translate(-2.159 -0.298)"/>
      <path id="Trazado_998041" data-name="Trazado 998041" d="M36,5h1.851V6.851H36Z" transform="translate(-2.606 -0.298)"/>
      <path id="Trazado_998042" data-name="Trazado 998042" d="M26,5h1.851V6.851H26Z" transform="translate(-1.861 -0.298)"/>
      <path id="Trazado_998043" data-name="Trazado 998043" d="M5,45h7.4v1.851H5Z" transform="translate(-0.298 -3.276)"/>
      <path id="Trazado_998044" data-name="Trazado 998044" d="M15,45h1.851v1.851H15Z" transform="translate(-1.042 -3.276)"/>
      <path id="Trazado_998045" data-name="Trazado 998045" d="M5.926,27.809H7.334a8.576,8.576,0,0,0,.335.808l-1,1a.926.926,0,0,0,0,1.309L9.291,33.54a.926.926,0,0,0,1.309,0l1-1a8.575,8.575,0,0,0,.808.335v1.409a.926.926,0,0,0,.926.926h3.7a.926.926,0,0,0,.926-.926V32.879a8.576,8.576,0,0,0,.808-.335l1,1a.926.926,0,0,0,1.309,0l2.617-2.617a.926.926,0,0,0,0-1.309l-1-1a8.577,8.577,0,0,0,.335-.808h1.409a.926.926,0,0,0,.926-.926v-.926h3.7v7.4a.926.926,0,0,0,.926.926h6.479v1.851a.926.926,0,0,0,.926.926h16.66a.926.926,0,0,0,.926-.926V30.586a.926.926,0,0,0-.926-.926H37.394a.926.926,0,0,0-.926.926v1.851H30.915V25.958h5.553v.926a.926.926,0,0,0,.926.926h16.66a.926.926,0,0,0,.926-.926v-3.7a.926.926,0,0,0-.926-.926H37.394a.926.926,0,0,0-.926.926v.926H30.915V17.628h5.553v1.851a.926.926,0,0,0,.926.926h16.66a.926.926,0,0,0,.926-.926V13.926A.926.926,0,0,0,54.054,13H37.394a.926.926,0,0,0-.926.926v1.851H29.99a.926.926,0,0,0-.926.926v7.4h-3.7v-.926a.926.926,0,0,0-.926-.926H23.028a8.577,8.577,0,0,0-.335-.808l1-1a.926.926,0,0,0,0-1.309l-2.617-2.617a.926.926,0,0,0-1.309,0l-1,1a8.575,8.575,0,0,0-.808-.335V15.777a.926.926,0,0,0-.926-.926h-3.7a.926.926,0,0,0-.926.926v1.409a8.576,8.576,0,0,0-.808.335l-1-1a.926.926,0,0,0-1.309,0L6.673,19.142a.926.926,0,0,0,0,1.309l1,1a8.576,8.576,0,0,0-.335.808H5.926A.926.926,0,0,0,5,23.181v3.7A.926.926,0,0,0,5.926,27.809Zm32.394,3.7H53.129v3.7H38.32Zm0-7.4H53.129v1.851H38.32Zm0-9.256H53.129v3.7H38.32ZM6.851,24.107H8.019a.926.926,0,0,0,.9-.694,6.479,6.479,0,0,1,.69-1.666.926.926,0,0,0-.143-1.125L8.636,19.8l1.309-1.309.826.826a.926.926,0,0,0,1.125.143,6.479,6.479,0,0,1,1.666-.69.926.926,0,0,0,.694-.9V16.7h1.851V17.87a.926.926,0,0,0,.694.9,6.479,6.479,0,0,1,1.666.69.926.926,0,0,0,1.125-.143l.826-.826L21.728,19.8l-.826.826a.926.926,0,0,0-.143,1.125,6.479,6.479,0,0,1,.69,1.666.926.926,0,0,0,.9.694h1.166v1.851H22.343a.926.926,0,0,0-.9.694,6.479,6.479,0,0,1-.69,1.666.926.926,0,0,0,.143,1.125l.826.826-1.309,1.309-.826-.826a.926.926,0,0,0-1.125-.143,6.479,6.479,0,0,1-1.666.69.926.926,0,0,0-.694.9v1.166h-1.85V32.194a.926.926,0,0,0-.694-.9,6.479,6.479,0,0,1-1.666-.69.926.926,0,0,0-1.125.143l-.826.826L8.636,30.268l.826-.826A.926.926,0,0,0,9.6,28.317a6.479,6.479,0,0,1-.69-1.666.926.926,0,0,0-.9-.693H6.851Z" transform="translate(-0.298 -0.893)"/>
      <path id="Trazado_998046" data-name="Trazado 998046" d="M15.628,30.256A4.628,4.628,0,1,0,11,25.628a4.628,4.628,0,0,0,4.628,4.628Zm0-7.4a2.777,2.777,0,1,1-2.777,2.777A2.777,2.777,0,0,1,15.628,22.851Z" transform="translate(-0.744 -1.489)"/>
    </g>
  </g>
</svg>
