<svg xmlns="http://www.w3.org/2000/svg" xmlns:xlink="http://www.w3.org/1999/xlink" width="505" height="254" viewBox="0 0 505 254">
  <defs>
    <clipPath id="clip-path">
      <rect id="Rectángulo_412121" data-name="Rectángulo 412121" width="505" height="254" transform="translate(915 6715)" fill="#fff" stroke="#707070" stroke-width="1"/>
    </clipPath>
  </defs>
  <g id="Enmascarar_grupo_1098778" data-name="Enmascarar grupo 1098778" transform="translate(-915 -6715)" clip-path="url(#clip-path)">
    <g id="Grupo_1163767" data-name="Grupo 1163767" transform="translate(-159.455 -1249.707)">
      <circle id="Elipse_12251" data-name="Elipse 12251" cx="116.113" cy="116.113" r="116.113" transform="translate(1203.355 8139.544) rotate(-45)" fill="#ded7ff"/>
      <g id="Grupo_1163754" data-name="Grupo 1163754" transform="translate(1156.454 8108.247)">
        <g id="Grupo_1163518" data-name="Grupo 1163518" transform="translate(0 0)">
          <g id="Grupo_1163517" data-name="Grupo 1163517">
            <g id="Grupo_1163516" data-name="Grupo 1163516">
              <path id="Trazado_998118" data-name="Trazado 998118" d="M189.576,371.2l-6.9,2.825a4.242,4.242,0,0,0-.647.337,35.787,35.787,0,0,0-8.823-8.837,4.08,4.08,0,0,0,.349-.656l2.852-6.892a4.215,4.215,0,0,0-2.28-5.5l-6.892-2.852a4.215,4.215,0,0,0-5.5,2.28l-2.85,6.892a4.313,4.313,0,0,0-.216.71,35.767,35.767,0,0,0-12.154-.035,4.121,4.121,0,0,0-.213-.7l-2.825-6.9a4.213,4.213,0,0,0-5.49-2.3l-6.9,2.825a4.214,4.214,0,0,0-2.3,5.49l2.825,6.9a4.113,4.113,0,0,0,.337.647,35.787,35.787,0,0,0-8.837,8.823,4.2,4.2,0,0,0-.656-.349l-6.892-2.852a4.18,4.18,0,0,0-3.2-.007l-.019.007a4.182,4.182,0,0,0-2.277,2.279l-2.85,6.892h0a4.215,4.215,0,0,0,2.28,5.5l6.892,2.852a4.2,4.2,0,0,0,.71.213,35.74,35.74,0,0,0-.035,12.156,4.106,4.106,0,0,0-.7.213l-6.9,2.825a4.214,4.214,0,0,0-2.3,5.49l2.825,6.9a4.214,4.214,0,0,0,5.49,2.3l6.9-2.825a4.115,4.115,0,0,0,.647-.337,35.773,35.773,0,0,0,8.825,8.838,4.313,4.313,0,0,0-.352.654l-2.85,6.892a4.207,4.207,0,0,0,2.28,5.5l6.892,2.852h0a4.214,4.214,0,0,0,5.5-2.28l2.852-6.892a4.244,4.244,0,0,0,.213-.71,35.739,35.739,0,0,0,12.156.035,4.26,4.26,0,0,0,.213.7l2.825,6.9a4.214,4.214,0,0,0,5.49,2.3l6.9-2.825a4.214,4.214,0,0,0,2.3-5.49l-2.825-6.9a4.113,4.113,0,0,0-.337-.647,35.742,35.742,0,0,0,8.837-8.825,4.315,4.315,0,0,0,.654.352l6.892,2.851a4.214,4.214,0,0,0,5.5-2.28l2.852-6.892a4.215,4.215,0,0,0-2.28-5.5l-6.892-2.85a4.177,4.177,0,0,0-.71-.216,35.76,35.76,0,0,0,.035-12.153,4.082,4.082,0,0,0,.7-.213l6.9-2.825a4.214,4.214,0,0,0,2.3-5.49l-2.825-6.9A4.218,4.218,0,0,0,189.576,371.2ZM160.01,413.232a19.768,19.768,0,1,1,10.807-25.782A19.789,19.789,0,0,1,160.01,413.232Z" transform="translate(-106.843 -349.255)" fill="#b19cfe"/>
            </g>
          </g>
          <path id="Trazado_998119" data-name="Trazado 998119" d="M154.582,377.754a14.032,14.032,0,1,1-19.244-4.843A14.032,14.032,0,0,1,154.582,377.754Z" transform="translate(-96.861 -339.271)" fill="#b19cfe"/>
        </g>
      </g>
      <g id="Grupo_1163756" data-name="Grupo 1163756" transform="translate(1103.915 8058.227)">
        <path id="Trazado_998122" data-name="Trazado 998122" d="M141.072,343.036l-5.789.508a3.071,3.071,0,0,0-.56.1,27.9,27.9,0,0,0-4.526-8.615,3.388,3.388,0,0,0,.412-.408l3.713-4.472a3.284,3.284,0,0,0-.428-4.619l-4.472-3.713a3.285,3.285,0,0,0-4.619.428l-3.713,4.472a3.437,3.437,0,0,0-.324.478,27.882,27.882,0,0,0-9.037-2.833,3.352,3.352,0,0,0,0-.568l-.508-5.789a3.283,3.283,0,0,0-3.554-2.98l-5.789.508a3.284,3.284,0,0,0-2.98,3.554l.508,5.789a3.5,3.5,0,0,0,.1.559,27.9,27.9,0,0,0-8.615,4.526,3.389,3.389,0,0,0-.408-.412l-4.472-3.713a3.257,3.257,0,0,0-2.383-.745h-.016a3.257,3.257,0,0,0-2.22,1.17l-3.713,4.472h0a3.283,3.283,0,0,0,.428,4.619l4.472,3.713a3.4,3.4,0,0,0,.479.323,27.881,27.881,0,0,0-2.834,9.038,3.365,3.365,0,0,0-.568,0l-5.789.508a3.284,3.284,0,0,0-2.98,3.554l.508,5.789a3.284,3.284,0,0,0,3.554,2.98l5.789-.508a3.344,3.344,0,0,0,.56-.1,27.86,27.86,0,0,0,4.527,8.616,3.183,3.183,0,0,0-.412.406l-3.713,4.47a3.28,3.28,0,0,0,.427,4.619l4.472,3.713h0a3.285,3.285,0,0,0,4.619-.428l3.713-4.472a3.4,3.4,0,0,0,.323-.479,27.877,27.877,0,0,0,9.04,2.834,3.353,3.353,0,0,0,0,.568l.508,5.789a3.284,3.284,0,0,0,3.554,2.98l5.789-.508a3.284,3.284,0,0,0,2.98-3.554l-.508-5.789a3.345,3.345,0,0,0-.1-.559,27.835,27.835,0,0,0,8.615-4.527,3.283,3.283,0,0,0,.406.413l4.472,3.713a3.285,3.285,0,0,0,4.619-.428l3.713-4.472a3.283,3.283,0,0,0-.428-4.619l-4.472-3.713a3.429,3.429,0,0,0-.478-.324,27.883,27.883,0,0,0,2.833-9.037,3.359,3.359,0,0,0,.568,0l5.789-.508a3.284,3.284,0,0,0,2.98-3.554l-.508-5.789A3.281,3.281,0,0,0,141.072,343.036Zm-31.712,24.457a15.4,15.4,0,1,1,14-16.691A15.42,15.42,0,0,1,109.361,367.493Z" transform="translate(-70.878 -315.014)" fill="#09136e"/>
        <path id="Trazado_998123" data-name="Trazado 998123" d="M110.375,341.306a10.934,10.934,0,1,1-13.2-8.048A10.934,10.934,0,0,1,110.375,341.306Z" transform="translate(-62.613 -306.75)" fill="#09136e"/>
      </g>
      <g id="Grupo_1163759" data-name="Grupo 1163759" transform="translate(1054.455 7707.725)">
        <g id="Grupo_1163544" data-name="Grupo 1163544" transform="translate(0 0)">
          <path id="Trazado_998131" data-name="Trazado 998131" d="M454.416,424.631a7,7,0,0,0-6.886,5.837l-9.64-6.5a6.964,6.964,0,0,0,.336-9.421l10.074-6.79a6.985,6.985,0,1,0-.872-3.374,7.169,7.169,0,0,0,.066.909l-11.3,7.617a6.991,6.991,0,1,0-.514,12.579l12.037,8.115a6.989,6.989,0,1,0,6.7-8.974Zm0-24.742a4.494,4.494,0,1,1-4.495,4.5A4.5,4.5,0,0,1,454.416,399.889Zm-26,19.187a4.495,4.495,0,1,1,4.495,4.495A4.5,4.5,0,0,1,428.412,419.075Zm26,17.039a4.494,4.494,0,1,1,4.495-4.493A4.5,4.5,0,0,1,454.416,436.114Z" transform="translate(6.337 -34.651)" fill="#b19cfe"/>
          <path id="Trazado_998132" data-name="Trazado 998132" d="M69.98,99.688a16.228,16.228,0,1,0-23.489,4.694l-9.26,15.35a1.459,1.459,0,0,0,2.5,1.508l9.26-15.35A16.242,16.242,0,0,0,69.98,99.688ZM49.21,102.7a13.308,13.308,0,1,1,18.269-4.52A13.324,13.324,0,0,1,49.21,102.7Z" transform="translate(-37.021 -75.082)" fill="#b19cfe"/>
          <path id="Trazado_998133" data-name="Trazado 998133" d="M434.628,170.557v29.3h45.527v-29.3Zm43.682,26.765-15.575-13.409,15.575-10.68Zm-41.835-24.089,15.575,10.68-15.575,13.409Zm20.918,12.1L438.53,172.4h37.725Zm-3.943-.191a.9.9,0,0,0,.139-.178l3.283,2.251c.022.015.047.02.07.034a.724.724,0,0,0,.076.037.925.925,0,0,0,.374.091h0a.925.925,0,0,0,.374-.091.727.727,0,0,0,.076-.037c.023-.013.048-.019.07-.034l3.283-2.251a.9.9,0,0,0,.139.178l14.949,12.868H438.5Z" transform="translate(146.209 -31.083)" fill="#b19cfe"/>
          <path id="Trazado_998134" data-name="Trazado 998134" d="M286.338,141.2a.665.665,0,0,0-.007-.2,26.575,26.575,0,0,0-7.157-16.987l-.1-.126-.042-.025a26.562,26.562,0,0,0-38.573.013.618.618,0,0,0-.121.13,26.58,26.58,0,0,0-7.161,16.949.6.6,0,0,0-.01.245c-.012.323-.019.649-.019.976a26.494,26.494,0,0,0,7.092,18.065l.064.115a.652.652,0,0,0,.279.251,26.564,26.564,0,0,0,38.345,0,.667.667,0,0,0,.276-.25l.039-.088a26.5,26.5,0,0,0,7.114-18.089Q286.359,141.685,286.338,141.2Zm-25.928,2.294V130a40.037,40.037,0,0,0,10.476-1.532,42.9,42.9,0,0,1,2.139,13.713c0,.187,0,.373,0,.558A112.817,112.817,0,0,1,260.41,143.491Zm13.925-.917c0-.131,0-.263,0-.4a44.024,44.024,0,0,0-2.209-14.1,32.66,32.66,0,0,0,6.384-2.847A25.291,25.291,0,0,1,285,140.6,100.1,100.1,0,0,1,274.335,142.573Zm-13.925-13.89V116.918c3.947.38,7.645,4.177,10.024,10.309A38.6,38.6,0,0,1,260.41,128.684Zm11.269-1.839c-1.639-4.248-3.879-7.471-6.47-9.364a25.366,25.366,0,0,1,12.37,6.772A31.461,31.461,0,0,1,271.679,126.845Zm-.018,30.711a31.545,31.545,0,0,1,5.884,2.577,25.351,25.351,0,0,1-12.337,6.74C267.792,164.988,270.024,161.782,271.661,157.556Zm-11.251-3.145V144.8a114.01,114.01,0,0,0,12.578-.744,42.018,42.018,0,0,1-2.118,11.877A40.026,40.026,0,0,0,260.41,154.411Zm10.005,2.762c-2.38,6.1-6.071,9.887-10.005,10.264V155.722A38.652,38.652,0,0,1,270.415,157.173Zm1.7-.85a43.348,43.348,0,0,0,2.194-12.421,101.986,101.986,0,0,0,10.739-1.959c0,.077,0,.156,0,.235a25.19,25.19,0,0,1-6.565,16.981A32.76,32.76,0,0,0,272.113,156.323Zm-13.016-.6v11.714c-3.935-.377-7.627-4.159-10.005-10.264A38.643,38.643,0,0,1,259.1,155.722Zm-11.253,1.833c1.638,4.226,3.87,7.433,6.453,9.319a25.358,25.358,0,0,1-12.337-6.74A31.645,31.645,0,0,1,247.844,157.556Zm1.518-13.222c3.2.288,6.47.446,9.735.469v9.608a40.079,40.079,0,0,0-10.46,1.527,42.088,42.088,0,0,1-2.12-11.894Q247.883,144.2,249.362,144.334Zm-2.879-2.156a42.9,42.9,0,0,1,2.139-13.713A40.038,40.038,0,0,0,259.1,130v13.491c-3.228-.023-6.458-.177-9.608-.462q-1.565-.14-3-.31C246.484,142.538,246.482,142.359,246.482,142.178Zm1.344-15.333a31.526,31.526,0,0,1-5.9-2.592,25.354,25.354,0,0,1,12.37-6.772C251.7,119.373,249.465,122.6,247.826,126.845Zm-.448,1.233a44.036,44.036,0,0,0-2.209,14.1c0,.127,0,.253,0,.38a92.676,92.676,0,0,1-10.661-1.943,25.288,25.288,0,0,1,6.485-15.383A32.5,32.5,0,0,0,247.378,128.078Zm-12.917,13.878a96.137,96.137,0,0,0,10.739,1.927,43.358,43.358,0,0,0,2.194,12.439,32.7,32.7,0,0,0-6.368,2.835,25.19,25.19,0,0,1-6.565-16.981C234.46,142.1,234.46,142.03,234.461,141.956Zm14.611-14.728c2.38-6.133,6.077-9.931,10.024-10.309v11.766A38.6,38.6,0,0,1,249.073,127.227Z" transform="translate(53.36 -56.423)" fill="#b19cfe"/>
          <g id="Grupo_1163543" data-name="Grupo 1163543" transform="translate(253.199 283.087)">
            <g id="Grupo_1163538" data-name="Grupo 1163538" transform="translate(26.634 38.893)">
              <circle id="Elipse_12250" data-name="Elipse 12250" cx="6.675" cy="6.675" r="6.675" fill="#b19cfe"/>
            </g>
            <g id="Grupo_1163539" data-name="Grupo 1163539" transform="translate(17.713 27.898)">
              <path id="Trazado_998135" data-name="Trazado 998135" d="M270.343,273.26a1.534,1.534,0,0,1-1.34-.783,14.595,14.595,0,0,0-25.445,0,1.536,1.536,0,0,1-2.678-1.5,17.667,17.667,0,0,1,30.8,0,1.536,1.536,0,0,1-1.338,2.288Z" transform="translate(-240.684 -261.963)" fill="#b19cfe"/>
            </g>
            <g id="Grupo_1163540" data-name="Grupo 1163540" transform="translate(10.255 18.588)">
              <path id="Trazado_998136" data-name="Trazado 998136" d="M237.114,271.249a1.536,1.536,0,0,1-1.338-2.289,26.221,26.221,0,0,1,45.711,0,1.535,1.535,0,1,1-2.676,1.506,23.149,23.149,0,0,0-40.358,0A1.532,1.532,0,0,1,237.114,271.249Z" transform="translate(-235.579 -255.59)" fill="#b19cfe"/>
            </g>
            <g id="Grupo_1163541" data-name="Grupo 1163541" transform="translate(4.898 9.159)">
              <path id="Trazado_998137" data-name="Trazado 998137" d="M287.2,267.928a1.536,1.536,0,0,1-1.34-.783,29.294,29.294,0,0,0-51.069,0,1.536,1.536,0,0,1-2.678-1.506,32.364,32.364,0,0,1,56.422,0,1.536,1.536,0,0,1-.586,2.092A1.506,1.506,0,0,1,287.2,267.928Z" transform="translate(-231.912 -249.136)" fill="#b19cfe"/>
            </g>
            <g id="Grupo_1163542" data-name="Grupo 1163542" transform="translate(0 0)">
              <path id="Trazado_998138" data-name="Trazado 998138" d="M293.642,264.524a1.534,1.534,0,0,1-1.34-.783,34.915,34.915,0,0,0-60.868,0,1.536,1.536,0,1,1-2.678-1.506,37.987,37.987,0,0,1,66.224,0,1.536,1.536,0,0,1-1.338,2.289Z" transform="translate(-228.559 -242.866)" fill="#b19cfe"/>
            </g>
          </g>
        </g>
      </g>
      <g id="Grupo_1163761" data-name="Grupo 1163761" transform="translate(1458.407 7975.338)">
        <g id="Grupo_1163551" data-name="Grupo 1163551" transform="translate(6.372 12.904)">
          <rect id="Rectángulo_412110" data-name="Rectángulo 412110" width="6.61" height="51.55" fill="#2e3d44"/>
          <rect id="Rectángulo_412111" data-name="Rectángulo 412111" width="6.61" height="51.55" transform="translate(49.278)" fill="#2e3d44"/>
        </g>
        <g id="Grupo_1163554" data-name="Grupo 1163554" transform="translate(0 0)">
          <path id="Trazado_998143" data-name="Trazado 998143" d="M420.618,302.382H356.73a2.371,2.371,0,0,0-2.372,2.372v17.828a2.371,2.371,0,0,0,2.372,2.372h63.888a2.371,2.371,0,0,0,2.372-2.372V304.754A2.371,2.371,0,0,0,420.618,302.382Z" transform="translate(-354.358 -302.382)" fill="#b19cfe"/>
          <path id="Trazado_998144" data-name="Trazado 998144" d="M419.583,315.358H388.47a2.21,2.21,0,0,1-2.211-2.211v-5.778a2.21,2.21,0,0,1,2.211-2.211h31.113a2.21,2.21,0,0,1,2.211,2.211v5.778A2.211,2.211,0,0,1,419.583,315.358Z" transform="translate(-355.189 -302.454)" fill="#fff"/>
          <path id="Trazado_998145" data-name="Trazado 998145" d="M381.279,315.358H359.33a2.21,2.21,0,0,1-2.211-2.211v-5.778a2.21,2.21,0,0,1,2.211-2.211h21.949a2.21,2.21,0,0,1,2.211,2.211v5.778A2.21,2.21,0,0,1,381.279,315.358Z" transform="translate(-354.43 -302.454)" fill="#fff"/>
          <g id="Grupo_1163552" data-name="Grupo 1163552" transform="translate(33.822 16.283)">
            <path id="Trazado_998146" data-name="Trazado 998146" d="M402.185,319.1H390.3a1.217,1.217,0,1,0,0,2.435h11.882a1.217,1.217,0,0,0,0-2.435Z" transform="translate(-389.085 -319.1)" fill="#09136e"/>
            <path id="Trazado_998147" data-name="Trazado 998147" d="M420.906,319.1H409.022a1.217,1.217,0,0,0,0,2.435h11.883a1.217,1.217,0,1,0,0-2.435Z" transform="translate(-389.573 -319.1)" fill="#09136e"/>
          </g>
          <g id="Grupo_1163553" data-name="Grupo 1163553" transform="translate(47.377 6.317)">
            <rect id="Rectángulo_412112" data-name="Rectángulo 412112" width="2.973" height="2.973" fill="#09136e"/>
            <rect id="Rectángulo_412113" data-name="Rectángulo 412113" width="2.973" height="2.973" transform="translate(6.41)" fill="#d42190"/>
            <rect id="Rectángulo_412114" data-name="Rectángulo 412114" width="2.973" height="2.973" transform="translate(12.82)" fill="#ffc655"/>
          </g>
        </g>
        <g id="Grupo_1163557" data-name="Grupo 1163557" transform="translate(0 25.775)">
          <path id="Trazado_998148" data-name="Trazado 998148" d="M420.618,328.846H356.73a2.371,2.371,0,0,0-2.372,2.372v17.828a2.371,2.371,0,0,0,2.372,2.372h63.888a2.371,2.371,0,0,0,2.372-2.372V331.218A2.371,2.371,0,0,0,420.618,328.846Z" transform="translate(-354.358 -328.846)" fill="#b19cfe"/>
          <path id="Trazado_998149" data-name="Trazado 998149" d="M419.583,341.822H388.47a2.21,2.21,0,0,1-2.211-2.211v-5.779a2.21,2.21,0,0,1,2.211-2.211h31.113a2.21,2.21,0,0,1,2.211,2.211v5.779A2.21,2.21,0,0,1,419.583,341.822Z" transform="translate(-355.189 -328.918)" fill="#fff"/>
          <path id="Trazado_998150" data-name="Trazado 998150" d="M381.279,341.822H359.33a2.21,2.21,0,0,1-2.211-2.211v-5.779a2.21,2.21,0,0,1,2.211-2.211h21.949a2.211,2.211,0,0,1,2.211,2.211v5.779A2.21,2.21,0,0,1,381.279,341.822Z" transform="translate(-354.43 -328.918)" fill="#fff"/>
          <g id="Grupo_1163555" data-name="Grupo 1163555" transform="translate(33.822 16.284)">
            <path id="Trazado_998151" data-name="Trazado 998151" d="M402.185,345.565H390.3a1.217,1.217,0,1,0,0,2.435h11.882a1.217,1.217,0,0,0,0-2.435Z" transform="translate(-389.085 -345.565)" fill="#09136e"/>
            <path id="Trazado_998152" data-name="Trazado 998152" d="M420.906,345.565H409.022a1.217,1.217,0,0,0,0,2.435h11.883a1.217,1.217,0,1,0,0-2.435Z" transform="translate(-389.573 -345.565)" fill="#09136e"/>
          </g>
          <g id="Grupo_1163556" data-name="Grupo 1163556" transform="translate(47.377 6.317)">
            <rect id="Rectángulo_412115" data-name="Rectángulo 412115" width="2.973" height="2.973" fill="#09136e"/>
            <rect id="Rectángulo_412116" data-name="Rectángulo 412116" width="2.973" height="2.973" transform="translate(6.41)" fill="#d42190"/>
            <rect id="Rectángulo_412117" data-name="Rectángulo 412117" width="2.973" height="2.973" transform="translate(12.82)" fill="#ffc655"/>
          </g>
        </g>
        <g id="Grupo_1163560" data-name="Grupo 1163560" transform="translate(0 51.549)">
          <path id="Trazado_998153" data-name="Trazado 998153" d="M420.618,355.31H356.73a2.371,2.371,0,0,0-2.372,2.371V375.51a2.371,2.371,0,0,0,2.372,2.372h63.888a2.371,2.371,0,0,0,2.372-2.372V357.682A2.372,2.372,0,0,0,420.618,355.31Z" transform="translate(-354.358 -355.31)" fill="#b19cfe"/>
          <path id="Trazado_998154" data-name="Trazado 998154" d="M419.583,368.287H388.47a2.21,2.21,0,0,1-2.211-2.211V360.3a2.21,2.21,0,0,1,2.211-2.211h31.113a2.21,2.21,0,0,1,2.211,2.211v5.779A2.211,2.211,0,0,1,419.583,368.287Z" transform="translate(-355.189 -355.382)" fill="#fff"/>
          <path id="Trazado_998155" data-name="Trazado 998155" d="M381.279,368.287H359.33a2.21,2.21,0,0,1-2.211-2.211V360.3a2.21,2.21,0,0,1,2.211-2.211h21.949a2.21,2.21,0,0,1,2.211,2.211v5.779A2.21,2.21,0,0,1,381.279,368.287Z" transform="translate(-354.43 -355.382)" fill="#fff"/>
          <g id="Grupo_1163558" data-name="Grupo 1163558" transform="translate(33.822 16.284)">
            <path id="Trazado_998156" data-name="Trazado 998156" d="M402.185,372.029H390.3a1.217,1.217,0,1,0,0,2.435h11.882a1.217,1.217,0,0,0,0-2.435Z" transform="translate(-389.085 -372.029)" fill="#09136e"/>
            <path id="Trazado_998157" data-name="Trazado 998157" d="M420.906,372.029H409.022a1.217,1.217,0,0,0,0,2.435h11.883a1.217,1.217,0,1,0,0-2.435Z" transform="translate(-389.573 -372.029)" fill="#09136e"/>
          </g>
          <g id="Grupo_1163559" data-name="Grupo 1163559" transform="translate(47.377 6.318)">
            <rect id="Rectángulo_412118" data-name="Rectángulo 412118" width="2.973" height="2.973" fill="#09136e"/>
            <rect id="Rectángulo_412119" data-name="Rectángulo 412119" width="2.973" height="2.973" transform="translate(6.41)" fill="#d42190"/>
            <rect id="Rectángulo_412120" data-name="Rectángulo 412120" width="2.973" height="2.973" transform="translate(12.82)" fill="#ffc655"/>
          </g>
        </g>
      </g>
      <g id="Grupo_1163763" data-name="Grupo 1163763" transform="translate(1219.947 8020.854)">
        <g id="Grupo_1163566" data-name="Grupo 1163566" transform="translate(222.538 22.87)">
          <g id="Grupo_1163565" data-name="Grupo 1163565">
            <path id="Trazado_998163" data-name="Trazado 998163" d="M302.652,305.775c2.133,13.12,5.532,26.042,15.435,35.508,4.112,3.931,8.888,7.491,11.913,12.4,3.892,6.3,2.679,13.1.809,19.88-2.029,7.366-4.391,15.556-.3,22.679a.549.549,0,0,0,.947-.554c-7.446-12.961,6.748-27.06.665-40.374-2.238-4.9-6.438-8.549-10.344-12.1-4.914-4.472-9.12-9.124-11.96-15.207-3.307-7.084-4.863-14.846-6.109-22.516-.113-.7-1.169-.4-1.056.291Z" transform="translate(-302.643 -305.087)" fill="#11112b"/>
          </g>
        </g>
        <g id="Grupo_1163567" data-name="Grupo 1163567" transform="translate(168.212 18.152)">
          <path id="Trazado_998164" data-name="Trazado 998164" d="M324.908,327.519c4.149,11.872,10.347,18.424,17.794,28.038,5.772,7.45,7.96,17.184,7.867,26.609s-2.288,18.688-4.493,27.851c.41-2.051-47.435-22.655-52.324-25.643-5.052-3.088-9.777-6.445-15.168-8.967-10.736-5.021-13.865-5.832-12.99-18.236.576-8.16,1.207-16.319,2.058-24.456.763-7.287.682-16.391,3.711-23.159,2.169-4.849,7.509-3.516,11.95-4.12,3.892-.529,7.75-.726,11.606-1.538a78.082,78.082,0,0,1,11.354-2,30.064,30.064,0,0,1,11.812,1.944c3.579,1.3,4.59,4.347,4.984,8.184.318,3.085.069,6.209.4,9.292A28.1,28.1,0,0,0,324.908,327.519Z" transform="translate(-265.455 -301.858)" fill="#11112b"/>
        </g>
        <g id="Grupo_1163568" data-name="Grupo 1163568" transform="translate(128.029 83.433)">
          <path id="Trazado_998165" data-name="Trazado 998165" d="M274.033,432.728c3.166-9.284,5.338-18.83,4.531-28.413-.824-9.789.457-20.438,1.822-30.144.666-4.739.961-9.519,1.268-14.291a55.559,55.559,0,0,1,.513-7.17c.413-2.07,1.34-4.084,1.813-6.165-5.367,4-12.183,4.453-16.225,10.346a41.279,41.279,0,0,0-4.213,8.9c-4.73,12.509-9.355,25.061-13.557,37.76-5.629,17.008-8.477,34.769-12.037,52.328,3.541.735,8.23-.013,11.923.1,4.546.143,9.092.275,13.635.494a1.873,1.873,0,0,0,.882-.1,1.892,1.892,0,0,0,.815-1.119C268.07,448.019,271.4,440.465,274.033,432.728Z" transform="translate(-237.948 -346.545)" fill="#ffc655"/>
        </g>
        <g id="Grupo_1163569" data-name="Grupo 1163569" transform="translate(175.412 56.843)">
          <path id="Trazado_998166" data-name="Trazado 998166" d="M326.359,356.937c-10.185,6.508-21.124,14.627-28.542,24.164-6.6,8.5-12.731,17.434-20.4,24.995-1.234-.662-1.662-2.182-1.949-3.534a186.328,186.328,0,0,1-3.43-23.8c-.221-2.612-1.155-4.911-1.519-7.456-.481-3.443.4-7.314.844-10.731a8.973,8.973,0,0,1,1.091-3.82c1.131-1.754,3.287-2.533,4.716-4.041a7.42,7.42,0,0,0,1.662-2.936,20.037,20.037,0,0,0,.6-6.248c-.051-2.741-.091-5.5-.143-8.236,0-.26-.013-.507-.026-.741-.117-1.975-.4-3.117,1.858-3.651a12.543,12.543,0,0,1,2.222-.3c2.533-.13,5.183.3,7.652.234s4.819.064,7.145-.767a72.762,72.762,0,0,1,7.509-1.728c.65,3.364.091,6.794-.156,10.224a21.265,21.265,0,0,0,.416,7.132,7.078,7.078,0,0,0,1.182,2.624,7.955,7.955,0,0,0,2.156,1.728c3.131,1.922,6.651,2.624,9.834,4.274C320.448,355.041,324.761,357.964,326.359,356.937Z" transform="translate(-270.384 -328.343)" fill="#ffc19d"/>
        </g>
        <g id="Grupo_1163570" data-name="Grupo 1163570" transform="translate(155.13 78.165)">
          <path id="Trazado_998167" data-name="Trazado 998167" d="M342.109,355.965a9.445,9.445,0,0,0-.65-.957c-5.762-7.466-17.162-8.615-25.5-11.95a1.051,1.051,0,0,0-.568-.111,1.064,1.064,0,0,0-.584.456c-4.992,6.358-9.31,13.3-13.714,20.062a229.2,229.2,0,0,0-12.743,22.167c-4.773-12.885-4.808-27.021-3.721-40.718-7.047,4.908-14.7,11.752-16.805,20.491-1.123,4.667-1.915,9.4-2.631,14.15-1.822,12.071-3.116,24.213-4.4,36.353q-1.093,10.384-2.175,20.77c-.726,6.974-2.2,14.34-2.115,21.325,4.8.694,9.257.584,14.049,1.79,5.627,1.415,11.413.206,17.134.181,4.144-.016,48.1-.018,48.219,1.7-.095-1.35-.184-2.7-.276-4.054.643,0,1.284-.018,1.927-.019a2.6,2.6,0,0,1,.63.079c.035-2.105.107-4.21.2-6.317.118-2.634.269-5.268.421-7.9q.14-2.443.28-4.889,1.277-22.221,2.553-44.443l1.277-22.222C343.263,366.746,344.856,360.584,342.109,355.965Z" transform="translate(-256.5 -342.939)" fill="#ffc655"/>
        </g>
        <g id="Grupo_1163571" data-name="Grupo 1163571" transform="translate(183.866 56.844)">
          <path id="Trazado_998168" data-name="Trazado 998168" d="M302.828,338.568a58.9,58.9,0,0,1-7.314,8.379c-2.117,2.066-4.365,4.118-7.119,5.183a12.279,12.279,0,0,1-12.224-2.352,20.037,20.037,0,0,0,.6-6.248c-.051-2.741-.091-5.5-.143-8.236,0-.26-.013-.507-.026-.741a20.928,20.928,0,0,1,4.079-3.949c2.533-.13,5.183.3,7.652.234s4.819.064,7.145-.767c2.456-.884,5.027-1.118,7.509-1.728C303.635,331.708,303.075,335.138,302.828,338.568Z" transform="translate(-276.171 -328.344)" fill="#e89c77"/>
        </g>
        <g id="Grupo_1163572" data-name="Grupo 1163572" transform="translate(226.293 86.808)">
          <path id="Trazado_998169" data-name="Trazado 998169" d="M305.24,365.1c-.155-4.489.3-9.564,3.36-13.115,3.932-4.571,8.677-4.076,11.767,1.055,11.134,18.49,16.437,39.811,21.6,60.769,2.7,10.98,6.629,24.454-1.579,34.145a17.055,17.055,0,0,1-16.043,5.579,2.923,2.923,0,0,1-1.5-.643,3.258,3.258,0,0,1-.726-1.981c-.283-2.266-.561-4.533-.961-6.781a15.361,15.361,0,0,0-.684-3.258,20.987,20.987,0,0,0-1.3-2.068A44.044,44.044,0,0,1,314.66,427.3q-.366-1.451-.668-2.914a61.96,61.96,0,0,1-1.69-10.549c-.088-3.282-.969-6.6-1.532-9.853q-1.856-10.706-3.185-21.5C307.017,377.9,305.455,371.322,305.24,365.1Z" transform="translate(-305.214 -348.856)" fill="#ffc655"/>
        </g>
        <g id="Grupo_1163573" data-name="Grupo 1163573" transform="translate(174.266 5.986)">
          <path id="Trazado_998170" data-name="Trazado 998170" d="M307.369,299.74a34.382,34.382,0,0,0-15.21-5.769c-4.174-.635-8.565-.749-12.489.782-13.38,5.223-9.8,21.238-9.161,32.407.31,5.439-.269,10.819,1.2,16.147a31.193,31.193,0,0,0,12.632,17.359c4.371,2.9,9.973,1.508,13.45-1.946,2.892-2.872,6.039-5.509,8.657-8.641,2.424-2.9,3.214-6.593,3.933-10.267,1.566-8.013,1.239-16.221,1.711-24.333.107-1.839.219-3.68.368-5.516a25.817,25.817,0,0,0,.532-3.649C312.8,303.718,309.3,301.151,307.369,299.74Z" transform="translate(-269.599 -293.53)" fill="#ffc19d"/>
        </g>
        <g id="Grupo_1163574" data-name="Grupo 1163574" transform="translate(171.499 0)">
          <path id="Trazado_998171" data-name="Trazado 998171" d="M318.811,306.2l-.123-.291c-2.558-5.928-9.716-14.651-17.2-12.879-1.2-2.273-3.976-3.192-6.53-3.475-7.633-.844-18.072,2.736-21.565,10.075-1.88,3.952-2.009,8.417-3.833,12.286-2.178,4.616-1.959,9.281-1.695,14.22.083,1.565-.245,3.036.2,4.567a36.376,36.376,0,0,0,3.2,6.87c.177-3.554-.815-7.471,1.144-10.442,1.049-1.591,2.767-2.583,4.35-3.642,2.058-1.376,4.073-3.082,4.872-5.426.634-1.855.481-4.038,1.693-5.577,1.373-1.744,3.2-1.8,5.164-1.586,2.736.3,4.019-.888,6.005-2.461.9-.711,2.045-1.2,2.993-1.858,1.458,4.03,4.892,7.009,6.289,10.807,1.148,3.125.47,7.227,3.564,9.384,3.766,2.625,7.837,3.516,12.41,3.952a1.169,1.169,0,0,0,.76-.1,1.119,1.119,0,0,0,.381-.6,20.009,20.009,0,0,0,.818-6.742C321.681,317.464,321.054,311.555,318.811,306.2Z" transform="translate(-267.705 -289.432)" fill="#11112b"/>
        </g>
        <g id="Grupo_1163575" data-name="Grupo 1163575" transform="translate(187.151 40.572)">
          <path id="Trazado_998172" data-name="Trazado 998172" d="M284.452,328.554a7.06,7.06,0,0,0,1.435-.394,6.077,6.077,0,0,1-3.981-4.232c-.564-2.127.367-4.662.865-6.723q-1.409,2.233-2.644,4.571c-.66,1.25-1.893,2.825-1.683,4.314a3.145,3.145,0,0,0,2.418,2.381A8.928,8.928,0,0,0,284.452,328.554Z" transform="translate(-278.42 -317.205)" fill="#e89c77"/>
        </g>
        <g id="Grupo_1163582" data-name="Grupo 1163582" transform="translate(175.335 29.293)">
          <g id="Grupo_1163579" data-name="Grupo 1163579">
            <g id="Grupo_1163576" data-name="Grupo 1163576" transform="translate(19.456)">
              <path id="Trazado_998173" data-name="Trazado 998173" d="M283.891,311.918c-1.123-1.918,1.962-2.463,3.148-2.432a20.862,20.862,0,0,1,4.813.7c1.353.359,2.507.393,3.7,1.281a1.455,1.455,0,0,1,.681,1.044.4.4,0,0,1-.155.362.506.506,0,0,1-.272.045c-3.329-.069-6.67-.025-9.975-.419-.516-.061-1.459-.035-1.832-.435A.767.767,0,0,1,283.891,311.918Z" transform="translate(-283.649 -309.484)" fill="#0a0a16"/>
            </g>
            <g id="Grupo_1163577" data-name="Grupo 1163577">
              <path id="Trazado_998174" data-name="Trazado 998174" d="M282.672,311.918c1.123-1.918-1.962-2.463-3.15-2.432a20.861,20.861,0,0,0-4.813.7c-1.353.359-2.508.393-3.7,1.281a1.455,1.455,0,0,0-.681,1.044.4.4,0,0,0,.155.362.5.5,0,0,0,.272.045c3.329-.069,6.67-.025,9.975-.419.516-.061,1.459-.035,1.832-.435A.669.669,0,0,0,282.672,311.918Z" transform="translate(-270.331 -309.484)" fill="#0a0a16"/>
            </g>
            <g id="Grupo_1163578" data-name="Grupo 1163578" transform="translate(22.034 6.176)">
              <path id="Trazado_998175" data-name="Trazado 998175" d="M286.077,315.158a2.934,2.934,0,0,1,4.194-.932,3.18,3.18,0,0,1,1.155,1.692,5.283,5.283,0,0,1-.749,4.662,2.9,2.9,0,0,1-2.3,1.38,2.779,2.779,0,0,1-2.045-1.255A5.293,5.293,0,0,1,286.077,315.158Z" transform="translate(-285.414 -313.712)" fill="#0a0a16"/>
            </g>
          </g>
          <g id="Grupo_1163581" data-name="Grupo 1163581" transform="translate(3.093 5.966)">
            <g id="Grupo_1163580" data-name="Grupo 1163580">
              <path id="Trazado_998176" data-name="Trazado 998176" d="M278.093,315.07a2.936,2.936,0,0,0-4.174-1.024,3.164,3.164,0,0,0-1.192,1.667,5.286,5.286,0,0,0,.647,4.678,2.892,2.892,0,0,0,2.273,1.43,2.784,2.784,0,0,0,2.073-1.21A5.293,5.293,0,0,0,278.093,315.07Z" transform="translate(-272.448 -313.568)" fill="#0a0a16"/>
            </g>
          </g>
        </g>
        <g id="Grupo_1163589" data-name="Grupo 1163589" transform="translate(213.921 34.555)">
          <g id="Grupo_1163583" data-name="Grupo 1163583">
            <path id="Trazado_998177" data-name="Trazado 998177" d="M305.538,314.3c.06.1.118.2.172.3a10.349,10.349,0,0,1,.409,7.674,18.942,18.942,0,0,1-3.852,6.594c-1.858,2.194-5.111,3.414-5.459-.415a30.166,30.166,0,0,1,.659-7.807c.64-3.579,2.169-7.279,5.624-7.55a2.551,2.551,0,0,1,1.778.425A2.9,2.9,0,0,1,305.538,314.3Z" transform="translate(-296.745 -313.086)" fill="#ffc19d"/>
          </g>
          <g id="Grupo_1163588" data-name="Grupo 1163588" transform="translate(2.711 3.942)">
            <g id="Grupo_1163585" data-name="Grupo 1163585" transform="translate(0.797)">
              <g id="Grupo_1163584" data-name="Grupo 1163584">
                <path id="Trazado_998178" data-name="Trazado 998178" d="M300.6,317.331c.4-.05.554.773.614,1.058a4.133,4.133,0,0,1-.077,1.794,10.988,10.988,0,0,1-1.884,3.56.774.774,0,0,0,.275,1.049.784.784,0,0,0,1.049-.275,10.746,10.746,0,0,0,2.187-4.758,5.01,5.01,0,0,0-.267-2.441c-.308-.777-.945-1.638-1.893-1.522a.793.793,0,0,0-.767.767.77.77,0,0,0,.766.768Z" transform="translate(-299.146 -315.785)" fill="#e89c77"/>
              </g>
            </g>
            <g id="Grupo_1163587" data-name="Grupo 1163587" transform="translate(0 3.637)">
              <g id="Grupo_1163586" data-name="Grupo 1163586">
                <path id="Trazado_998179" data-name="Trazado 998179" d="M302.588,319.207a2.114,2.114,0,0,0-.761-.675,2.48,2.48,0,0,0-1.027-.257,2.949,2.949,0,0,0-1.822.646.843.843,0,0,0-.352.459.766.766,0,0,0,.536.942.741.741,0,0,0,.592-.077,3.02,3.02,0,0,1,.634-.378l-.183.077a2.238,2.238,0,0,1,.539-.149c-.067.009-.136.017-.2.028a1.777,1.777,0,0,1,.431,0l-.2-.028a1.705,1.705,0,0,1,.4.108l-.183-.077a1.844,1.844,0,0,1,.278.155c.073.047-.129-.113-.067-.051.018.017.037.034.056.05.047.047.164.2.015,0a.83.83,0,0,0,.459.352.782.782,0,0,0,.592-.077.77.77,0,0,0,.352-.459.746.746,0,0,0-.08-.587Z" transform="translate(-298.6 -318.274)" fill="#e89c77"/>
              </g>
            </g>
          </g>
        </g>
        <g id="Grupo_1163592" data-name="Grupo 1163592" transform="translate(136.688 164.879)">
          <path id="Trazado_998180" data-name="Trazado 998180" d="M247.724,423.589c0,3.706,8.273,2.646,18.479,2.646s18.48,1.061,18.48-2.646-8.274-10.775-18.48-10.775S247.724,419.883,247.724,423.589Z" transform="translate(-242.102 -397.452)" fill="#542fd0"/>
          <g id="Grupo_1163590" data-name="Grupo 1163590" transform="translate(0 9.919)">
            <path id="Trazado_998181" data-name="Trazado 998181" d="M244,424.891c-.612,1.47,1.212,1.956,2.578,1.937,4.038-.057,8.124-1.81,11.884-3.131,4.068-1.429,8.476-2.577,12.652-1.5,3.369.865,5.684,3.624,9.047,4.222a57.69,57.69,0,0,0,12.153.793,3.246,3.246,0,0,0,2.713-1.018,2.648,2.648,0,0,0,.118-2.223c-1.4-4.512-1.655-9.234-3.341-13.719a1.808,1.808,0,0,0-.7-1.018,1.838,1.838,0,0,0-.96-.137c-5.183.2-10.289.8-15.5.6a33.918,33.918,0,0,0-8.04.2c-4.114.828-8.007,3.886-11.449,6.22q-2.919,1.981-5.712,4.139c-1.5,1.16-4.137,2.622-5.186,4.181A2.661,2.661,0,0,0,244,424.891Z" transform="translate(-243.876 -409.088)" fill="#ffc19d"/>
          </g>
          <g id="Grupo_1163591" data-name="Grupo 1163591" transform="translate(45.628)">
            <path id="Trazado_998182" data-name="Trazado 998182" d="M275.11,411.075c2.537-.469,5.348-.587,7.75-.957q5.36-.826,10.712-1.686c7.138-1.138,14.274-2.291,21.423-3.36,6.623-.99,13.253-1.908,19.9-2.675a5.508,5.508,0,0,1,2.8.162,4.887,4.887,0,0,1,2.171,2.573c3.071,6.194,6.881,12.173,9.136,18.678a4.547,4.547,0,0,1,.332,2.631c-.524,1.952-3.113,2.584-5.253,2.847q-10.4,1.278-20.859,2.1-16.334,1.288-32.74,1.471-4.1.046-8.2.02c-1.548-.009-3.889.336-5.629,0C275.943,425.62,275.263,418.364,275.11,411.075Z" transform="translate(-275.11 -402.298)" fill="#ffc655"/>
          </g>
        </g>
        <g id="Grupo_1163593" data-name="Grupo 1163593" transform="translate(157.347 2.069)">
          <path id="Trazado_998183" data-name="Trazado 998183" d="M280.347,302.469c0-2.209,1.792-4.314,3.022-6a27.65,27.65,0,0,1,2.2-2.641c.507-.54,2.028-2.885,2.711-2.983-5.446.779-9.257,4.9-12.784,8.737a43.22,43.22,0,0,0-8.692,14.179c-1.48,4-1.492,7.97-1.183,12.147.368,4.99,2.778,9.53,1.895,14.658-.771,4.469-3.744,8.179-5.94,12.147-3.608,6.52-5.1,14.851-1.443,21.344,1.918,3.4,5.152,6.176,5.96,10,.963,4.549-1.819,9.091-1.737,13.741a11.6,11.6,0,0,0,9.073,10.835c-.029,0,2.4-4.032,2.733-4.413a20.536,20.536,0,0,1,4.01-3.456c2.92-1.936,6.441-3.155,9.558-4.878a4.58,4.58,0,0,0,1.7-1.334,4.18,4.18,0,0,0,.419-2.723,22.912,22.912,0,0,0-2.955-9.278c-1.391-2.412-3.226-4.571-4.353-7.116-1.645-3.709-1.658-7.9-1.978-11.945-.8-10.191-8.312-18.044-7.938-28.737.108-3.087,1.326-5.775,1.527-8.857C276.666,317.952,277.491,309.967,280.347,302.469Z" transform="translate(-258.018 -290.848)" fill="#11112b"/>
        </g>
        <g id="Grupo_1163594" data-name="Grupo 1163594" transform="translate(186.051 55.204)">
          <path id="Trazado_998184" data-name="Trazado 998184" d="M282.755,336.245c-.107-.041-.213-.086-.318-.134-2.333-1.066-5.12-4.363-4.735-7.114.108-.77.584-.34,1.341-.33.879.01,1.763-.028,2.643-.066a64.508,64.508,0,0,0,10.625-1.328.959.959,0,0,1,.725.039c.305.2.275.652.194,1.008-.59,2.616-1.268,4.913-3.5,6.623A7.333,7.333,0,0,1,282.755,336.245Z" transform="translate(-277.666 -327.221)" fill="#e89c77"/>
        </g>
        <g id="Grupo_1163603" data-name="Grupo 1163603" transform="translate(181.908 77.996)">
          <g id="Grupo_1163596" data-name="Grupo 1163596" transform="translate(41.639 23.229)">
            <g id="Grupo_1163595" data-name="Grupo 1163595">
              <path id="Trazado_998185" data-name="Trazado 998185" d="M304.654,359.121c-4.067,23.386,1.971,46.805,8.485,69.156a.548.548,0,0,0,1.056-.291c-6.452-22.143-12.513-45.4-8.485-68.573.121-.691-.935-.987-1.056-.292Z" transform="translate(-303.334 -358.725)" fill="#09136e"/>
            </g>
          </g>
          <g id="Grupo_1163598" data-name="Grupo 1163598" transform="translate(0 91.252)">
            <g id="Grupo_1163597" data-name="Grupo 1163597">
              <path id="Trazado_998186" data-name="Trazado 998186" d="M275.518,411.813q14.8-2.583,29.764-4.026,7.154-.684,14.334-1.1c5.132-.3,10.316-.64,15.407.264.69.123.985-.934.291-1.056-4.843-.86-9.735-.634-14.621-.365q-7.715.425-15.41,1.158-15.1,1.442-30.055,4.065c-.694.121-.4,1.177.291,1.058Z" transform="translate(-274.831 -405.289)" fill="#09136e"/>
            </g>
          </g>
          <path id="Trazado_998187" data-name="Trazado 998187" d="M276.171,364.476" transform="translate(-274.213 -332.845)" fill="none" stroke="#09136e" stroke-miterlimit="10" stroke-width="0.25"/>
          <g id="Grupo_1163600" data-name="Grupo 1163600" transform="translate(0.814)">
            <g id="Grupo_1163599" data-name="Grupo 1163599">
              <path id="Trazado_998188" data-name="Trazado 998188" d="M275.412,374.961,279,387.368a.552.552,0,0,0,1.056,0,124.781,124.781,0,0,1,27.274-43.6c.485-.511-.289-1.288-.774-.774A126.089,126.089,0,0,0,279,387.077h1.056l-3.589-12.407a.549.549,0,0,0-1.058.291Z" transform="translate(-275.388 -342.823)" fill="#09136e"/>
            </g>
          </g>
          <g id="Grupo_1163602" data-name="Grupo 1163602" transform="translate(47.652 7.656)">
            <g id="Grupo_1163601" data-name="Grupo 1163601">
              <path id="Trazado_998189" data-name="Trazado 998189" d="M308.474,353.839a15.629,15.629,0,0,1,4.933-4.745.549.549,0,0,0-.554-.947,16.922,16.922,0,0,0-5.326,5.138.553.553,0,0,0,.2.749.559.559,0,0,0,.751-.2Z" transform="translate(-307.451 -348.064)" fill="#09136e"/>
            </g>
          </g>
        </g>
        <g id="Grupo_1163604" data-name="Grupo 1163604" transform="translate(27.081 77.455)">
          <path id="Trazado_998190" data-name="Trazado 998190" d="M187.838,437.213H313.185a3.059,3.059,0,0,0,3.059-3.059L303.9,345.512a3.059,3.059,0,0,0-3.059-3.059H175.494a3.059,3.059,0,0,0-3.059,3.059l12.344,88.642A3.058,3.058,0,0,0,187.838,437.213Z" transform="translate(-167.191 -342.453)" fill="#9583ed"/>
          <path id="Trazado_998191" data-name="Trazado 998191" d="M184.248,437.213H309.595a3.059,3.059,0,0,0,3.059-3.059L300.31,345.512a3.059,3.059,0,0,0-3.059-3.059H171.9a3.059,3.059,0,0,0-3.059,3.059l12.344,88.642A3.059,3.059,0,0,0,184.248,437.213Z" transform="translate(-168.845 -342.453)" fill="#b19cfe"/>
          <path id="Trazado_998192" data-name="Trazado 998192" d="M214.744,395.783h23.084v38.2H203.163Z" transform="translate(-153.03 -317.877)" fill="#9583ed"/>
          <path id="Trazado_998193" data-name="Trazado 998193" d="M202.582,424.082h38.3a2.1,2.1,0,0,0,2.1-2.1v-.172a2.1,2.1,0,0,0-2.1-2.1h-38.3a2.1,2.1,0,0,0-2.1,2.1v.172A2.1,2.1,0,0,0,202.582,424.082Z" transform="translate(-154.265 -306.849)" fill="#b19cfe"/>
        </g>
        <g id="Grupo_1163605" data-name="Grupo 1163605" transform="translate(0 192.739)">
          <path id="Trazado_998194" data-name="Trazado 998194" d="M443.6,425.268H152.256a1.949,1.949,0,0,1,0-3.9H443.6a1.949,1.949,0,1,1,0,3.9Z" transform="translate(-150.307 -421.37)" fill="#09136e"/>
        </g>
        <g id="Grupo_1163622" data-name="Grupo 1163622" transform="translate(164.601 3.528)" opacity="0.15">
          <g id="Grupo_1163607" data-name="Grupo 1163607" transform="translate(61.298 48.455)">
            <g id="Grupo_1163606" data-name="Grupo 1163606">
              <path id="Trazado_998195" data-name="Trazado 998195" d="M304.953,325.7c1.226,7.685,6.75,13.37,11.668,18.994a41.582,41.582,0,0,1,7.01,10.188,30.729,30.729,0,0,1,2.64,12.8.548.548,0,0,0,1.1,0,33.025,33.025,0,0,0-7.934-21.36c-5.243-6.431-12.049-12.287-13.424-20.909-.11-.694-1.166-.4-1.056.291Z" transform="translate(-304.945 -325.017)" fill="#fff"/>
            </g>
          </g>
          <g id="Grupo_1163609" data-name="Grupo 1163609" transform="translate(54.602 57.453)">
            <g id="Grupo_1163608" data-name="Grupo 1163608">
              <path id="Trazado_998196" data-name="Trazado 998196" d="M300.38,331.857a47.161,47.161,0,0,0,10.435,19.717c.469.529,1.242-.248.774-.774a45.971,45.971,0,0,1-10.153-19.233.548.548,0,0,0-1.056.291Z" transform="translate(-300.361 -331.176)" fill="#fff"/>
            </g>
          </g>
          <g id="Grupo_1163611" data-name="Grupo 1163611" transform="translate(0 19.169)">
            <g id="Grupo_1163610" data-name="Grupo 1163610">
              <path id="Trazado_998197" data-name="Trazado 998197" d="M272.1,305.2c-7.4,9.766-2.9,22.51-3.757,33.624-.5,6.454-3.829,12.053-4.946,18.35a27.8,27.8,0,0,0,2.131,16.329c.289.641,1.234.085.947-.552a26.62,26.62,0,0,1-1.532-17.7c1.451-5.553,4.051-10.625,4.5-16.43.839-10.905-3.648-23.493,3.608-33.07.424-.564-.527-1.11-.948-.554Z" transform="translate(-262.983 -304.969)" fill="#fff"/>
            </g>
          </g>
          <g id="Grupo_1163613" data-name="Grupo 1163613" transform="translate(10.01 67.67)">
            <g id="Grupo_1163612" data-name="Grupo 1163612">
              <path id="Trazado_998198" data-name="Trazado 998198" d="M277.161,369.357a31.17,31.17,0,0,1-3.879-30.534c.272-.65-.789-.933-1.056-.291a32.16,32.16,0,0,0,3.989,31.379c.419.554,1.37.009.945-.554Z" transform="translate(-269.836 -338.17)" fill="#fff"/>
            </g>
          </g>
          <g id="Grupo_1163615" data-name="Grupo 1163615" transform="translate(7.638 5.092)">
            <g id="Grupo_1163614" data-name="Grupo 1163614">
              <path id="Trazado_998199" data-name="Trazado 998199" d="M269.349,329.947a26.47,26.47,0,0,1,.314-6.422,10.368,10.368,0,0,1,3.455-5.63,14.068,14.068,0,0,0,3.379-4.34c.907-1.9,1.481-3.971,2.656-5.737a9.538,9.538,0,0,1,5.589-3.886,29.023,29.023,0,0,0,5.938-1.773,11.868,11.868,0,0,0,3.819-3.173c1.518-1.9,2.573-2.628,5.082-2.548.706.022.7-1.074,0-1.1a6.188,6.188,0,0,0-4.239,1.009,11.692,11.692,0,0,0-1.757,2.017,10.689,10.689,0,0,1-3,2.591c-2.355,1.356-5.081,1.389-7.563,2.377a10.329,10.329,0,0,0-4.323,3.233c-1.378,1.766-2.023,3.915-2.925,5.932-1.084,2.428-2.827,3.849-4.6,5.728-3,3.192-3.066,7.58-2.929,11.714.025.7,1.121.708,1.1,0Z" transform="translate(-268.212 -295.333)" fill="#fff"/>
            </g>
          </g>
          <g id="Grupo_1163617" data-name="Grupo 1163617" transform="translate(43.645 10.611)">
            <g id="Grupo_1163616" data-name="Grupo 1163616">
              <path id="Trazado_998200" data-name="Trazado 998200" d="M304.994,316.781a25.025,25.025,0,0,1-11.07-17.274c-.1-.7-1.158-.4-1.056.291a26.062,26.062,0,0,0,11.573,17.929c.595.384,1.144-.564.554-.945Z" transform="translate(-292.86 -299.11)" fill="#fff"/>
            </g>
          </g>
          <g id="Grupo_1163619" data-name="Grupo 1163619" transform="translate(44.798 3.024)">
            <g id="Grupo_1163618" data-name="Grupo 1163618">
              <path id="Trazado_998201" data-name="Trazado 998201" d="M293.783,294.877c.628.763,1.348,1.438,1.991,2.187a11.076,11.076,0,0,1,1.836,3.481c.82,2.188,1.6,4.371,2.558,6.5a53.894,53.894,0,0,0,7.009,11.839c.443.549,1.212-.231.774-.774a54.378,54.378,0,0,1-7.184-12.4c-.995-2.269-1.716-4.637-2.676-6.918-.8-1.9-2.248-3.135-3.534-4.7-.448-.543-1.218.235-.774.776Z" transform="translate(-293.65 -293.917)" fill="#fff"/>
            </g>
          </g>
          <g id="Grupo_1163621" data-name="Grupo 1163621" transform="translate(8.59)">
            <g id="Grupo_1163620" data-name="Grupo 1163620">
              <path id="Trazado_998202" data-name="Trazado 998202" d="M269.9,306.119c4.517-7.047,12.573-10.273,20.048-13.177.65-.253.367-1.312-.291-1.056-7.764,3.017-16.017,6.369-20.7,13.681-.381.594.567,1.144.947.552Z" transform="translate(-268.863 -291.847)" fill="#fff"/>
            </g>
          </g>
        </g>
        <g id="Grupo_1163624" data-name="Grupo 1163624" transform="translate(183.883 63.727)">
          <g id="Grupo_1163623" data-name="Grupo 1163623">
            <path id="Trazado_998203" data-name="Trazado 998203" d="M276.332,339.437c3.545,3.849,8.141,6.862,13.552,5.037,2.462-.83,4.55-2.6,6.505-4.263a54.106,54.106,0,0,0,6.184-6.2c.454-.535-.317-1.312-.774-.774a54.533,54.533,0,0,1-5,5.164,27.467,27.467,0,0,1-6.125,4.571,9.56,9.56,0,0,1-7.668.286,17.236,17.236,0,0,1-5.9-4.6c-.479-.52-1.252.256-.774.774Z" transform="translate(-276.182 -333.056)" fill="#d67f5c"/>
          </g>
        </g>
      </g>
      <g id="Grupo_1163766" data-name="Grupo 1163766" transform="translate(1163.901 8016.224)">
        <path id="Trazado_998288" data-name="Trazado 998288" d="M127.212,320.908a27.868,27.868,0,0,0-52.583-11.6A22.208,22.208,0,0,0,40.58,332.219,12.54,12.54,0,0,0,27.174,350H144.426a22.135,22.135,0,0,0-17.214-29.1Z" transform="translate(-25.941 -294.262)" fill="#b19cfe"/>
        <path id="Trazado_998289" data-name="Trazado 998289" d="M74.666,331.643H69.712v17.663H52.631V331.643H47.677l13.488-12.589Z" transform="translate(-15.924 -282.837)" fill="#ffc655"/>
      </g>
    </g>
  </g>
</svg>
