<svg xmlns="http://www.w3.org/2000/svg" xmlns:xlink="http://www.w3.org/1999/xlink" width="400" height="253" viewBox="0 0 400 253">
  <defs>
    <clipPath id="clip-path">
      <rect id="Rectángulo_412122" data-name="Rectángulo 412122" width="400" height="253" transform="translate(1033.52 7828.582)" fill="#fff" stroke="#707070" stroke-width="1" opacity="0.5"/>
    </clipPath>
  </defs>
  <g id="Enmascarar_grupo_1098779" data-name="Enmascarar grupo 1098779" transform="translate(-1033.52 -7828.582)" clip-path="url(#clip-path)">
    <g id="Grupo_1163787" data-name="Grupo 1163787">
      <circle id="Elipse_12247" data-name="Elipse 12247" cx="114.037" cy="114.037" r="114.037" transform="matrix(0.166, -0.986, 0.986, 0.166, 1097.289, 8085.787)" fill="#ded7ff"/>
      <g id="Grupo_1163782" data-name="Grupo 1163782" transform="translate(-17.82 451.825)">
        <g id="Grupo_1163774" data-name="Grupo 1163774" transform="translate(1083.027 7370.757)">
          <g id="Grupo_1163544" data-name="Grupo 1163544" transform="translate(0 0)">
            <path id="Trazado_998131" data-name="Trazado 998131" d="M453.885,424.123a6.866,6.866,0,0,0-6.758,5.729l-9.46-6.377a6.834,6.834,0,0,0,.33-9.245l9.886-6.663a6.855,6.855,0,1,0-.856-3.312,7.045,7.045,0,0,0,.065.892L436,412.621a6.861,6.861,0,1,0-.5,12.345l11.813,7.964a6.858,6.858,0,1,0,6.574-8.807Zm0-24.281a4.41,4.41,0,1,1-4.411,4.411A4.416,4.416,0,0,1,453.885,399.842Zm-25.52,18.829a4.411,4.411,0,1,1,4.411,4.411A4.416,4.416,0,0,1,428.366,418.671Zm25.52,16.722a4.41,4.41,0,1,1,4.411-4.41A4.415,4.415,0,0,1,453.885,435.393Z" transform="translate(148.894 35.039)" fill="#b19cfe"/>
            <path id="Trazado_998132" data-name="Trazado 998132" d="M69.366,99.23a15.925,15.925,0,1,0-23.051,4.606L37.227,118.9a1.432,1.432,0,0,0,2.453,1.479l9.088-15.064A15.939,15.939,0,0,0,69.366,99.23Zm-20.383,2.956A13.06,13.06,0,1,1,66.912,97.75,13.076,13.076,0,0,1,48.983,102.186Z" transform="translate(-53.021 -56.082)" fill="#b19cfe"/>
            <path id="Trazado_998133" data-name="Trazado 998133" d="M434.628,170.557v28.757h44.678V170.557ZM477.5,196.824l-15.285-13.159L477.5,173.183Zm-41.056-23.64,15.285,10.481L436.44,196.824Zm20.528,11.877-18.511-12.693h37.021Zm-3.869-.188a.88.88,0,0,0,.136-.175l3.221,2.209c.021.014.046.02.069.033a.711.711,0,0,0,.074.036.908.908,0,0,0,.367.089h0a.908.908,0,0,0,.367-.089.718.718,0,0,0,.075-.036c.023-.013.047-.019.069-.033L460.7,184.7a.883.883,0,0,0,.136.175l14.67,12.629h-37.08Z" transform="translate(152.671 -63.319)" fill="#b19cfe"/>
            <path id="Trazado_998134" data-name="Trazado 998134" d="M285.347,140.72a.652.652,0,0,0-.007-.195,26.08,26.08,0,0,0-7.023-16.67l-.1-.123-.042-.024a26.067,26.067,0,0,0-37.854.013.606.606,0,0,0-.119.128,26.085,26.085,0,0,0-7.028,16.633.591.591,0,0,0-.01.241c-.011.317-.019.637-.019.958a26,26,0,0,0,6.96,17.728l.063.113a.64.64,0,0,0,.274.247,26.069,26.069,0,0,0,37.631,0,.655.655,0,0,0,.271-.245l.039-.086a26.005,26.005,0,0,0,6.982-17.752Q285.367,141.2,285.347,140.72ZM259.9,142.97V129.728a39.29,39.29,0,0,0,10.28-1.5,42.1,42.1,0,0,1,2.1,13.457c0,.184,0,.366,0,.548A110.722,110.722,0,0,1,259.9,142.97Zm13.665-.9c0-.129,0-.258,0-.389a43.2,43.2,0,0,0-2.168-13.836,32.052,32.052,0,0,0,6.265-2.794,24.819,24.819,0,0,1,6.364,15.086A98.232,98.232,0,0,1,273.567,142.07ZM259.9,128.439V116.893c3.874.373,7.5,4.1,9.837,10.117A37.882,37.882,0,0,1,259.9,128.439Zm11.059-1.8c-1.608-4.169-3.806-7.331-6.349-9.189a24.893,24.893,0,0,1,12.14,6.646A30.872,30.872,0,0,1,270.961,126.635Zm-.017,30.139a30.955,30.955,0,0,1,5.775,2.529,24.879,24.879,0,0,1-12.107,6.615C267.146,164.067,269.336,160.921,270.944,156.773ZM259.9,153.687v-9.427a111.887,111.887,0,0,0,12.343-.73,41.237,41.237,0,0,1-2.079,11.655A39.28,39.28,0,0,0,259.9,153.687Zm9.819,2.711c-2.335,5.991-5.958,9.7-9.819,10.072v-11.5A37.932,37.932,0,0,1,269.721,156.4Zm1.666-.834a42.537,42.537,0,0,0,2.153-12.19,100.087,100.087,0,0,0,10.539-1.922c0,.076,0,.153,0,.231a24.721,24.721,0,0,1-6.443,16.664A32.144,32.144,0,0,0,271.387,155.563Zm-12.773-.589v11.5c-3.862-.37-7.485-4.081-9.819-10.072A37.924,37.924,0,0,1,258.613,154.974Zm-11.043,1.8c1.607,4.147,3.8,7.294,6.332,9.145A24.885,24.885,0,0,1,241.8,159.3,31.054,31.054,0,0,1,247.57,156.773Zm1.49-12.976c3.138.282,6.349.437,9.554.46v9.429a39.331,39.331,0,0,0-10.265,1.5,41.3,41.3,0,0,1-2.08-11.672Q247.608,143.665,249.06,143.8Zm-2.826-2.116a42.1,42.1,0,0,1,2.1-13.457,39.291,39.291,0,0,0,10.28,1.5v13.239c-3.168-.023-6.338-.173-9.429-.453q-1.535-.138-2.947-.3C246.235,142.036,246.234,141.859,246.234,141.682Zm1.319-15.047a30.937,30.937,0,0,1-5.79-2.543,24.881,24.881,0,0,1,12.14-6.646C251.359,119.3,249.161,122.464,247.553,126.635Zm-.44,1.21a43.216,43.216,0,0,0-2.168,13.836c0,.125,0,.248,0,.373a90.939,90.939,0,0,1-10.462-1.907,24.816,24.816,0,0,1,6.364-15.1A31.89,31.89,0,0,0,247.113,127.845Zm-12.676,13.619a94.344,94.344,0,0,0,10.538,1.891,42.548,42.548,0,0,0,2.153,12.207,32.091,32.091,0,0,0-6.249,2.783,24.721,24.721,0,0,1-6.443-16.664C234.435,141.609,234.435,141.537,234.437,141.464Zm14.339-14.454c2.335-6.018,5.964-9.746,9.837-10.117v11.546A37.883,37.883,0,0,1,248.776,127.01Z" transform="translate(65.308 -87.161)" fill="#b19cfe"/>
            <g id="Grupo_1163543" data-name="Grupo 1163543" transform="translate(298.456 179.297)">
              <g id="Grupo_1163538" data-name="Grupo 1163538" transform="translate(17.778 25.962)">
                <circle id="Elipse_12250" data-name="Elipse 12250" cx="4.455" cy="4.455" r="4.455" fill="#b19cfe"/>
              </g>
              <g id="Grupo_1163539" data-name="Grupo 1163539" transform="translate(11.823 18.622)">
                <path id="Trazado_998135" data-name="Trazado 998135" d="M260.482,269.5a1.024,1.024,0,0,1-.894-.523,9.742,9.742,0,0,0-16.985,0,1.025,1.025,0,0,1-1.787-1,11.793,11.793,0,0,1,20.56,0,1.025,1.025,0,0,1-.893,1.527Z" transform="translate(-240.684 -261.963)" fill="#b19cfe"/>
              </g>
              <g id="Grupo_1163540" data-name="Grupo 1163540" transform="translate(6.845 12.408)">
                <path id="Trazado_998136" data-name="Trazado 998136" d="M236.6,266.042a1.025,1.025,0,0,1-.893-1.528,17.5,17.5,0,0,1,30.513,0,1.025,1.025,0,1,1-1.786,1.005,15.453,15.453,0,0,0-26.94,0A1.023,1.023,0,0,1,236.6,266.042Z" transform="translate(-235.579 -255.59)" fill="#b19cfe"/>
              </g>
              <g id="Grupo_1163541" data-name="Grupo 1163541" transform="translate(3.27 6.114)">
                <path id="Trazado_998137" data-name="Trazado 998137" d="M268.815,261.68a1.025,1.025,0,0,1-.894-.523,19.554,19.554,0,0,0-34.09,0,1.025,1.025,0,1,1-1.787-1.005,21.6,21.6,0,0,1,37.662,0,1.025,1.025,0,0,1-.391,1.4A1,1,0,0,1,268.815,261.68Z" transform="translate(-231.912 -249.136)" fill="#b19cfe"/>
              </g>
              <g id="Grupo_1163542" data-name="Grupo 1163542">
                <path id="Trazado_998138" data-name="Trazado 998138" d="M272,257.323a1.024,1.024,0,0,1-.894-.523,23.306,23.306,0,0,0-40.631,0,1.025,1.025,0,1,1-1.787-1.005,25.357,25.357,0,0,1,44.206,0,1.025,1.025,0,0,1-.893,1.528Z" transform="translate(-228.559 -242.866)" fill="#b19cfe"/>
              </g>
            </g>
          </g>
        </g>
        <g id="Grupo_1163775" data-name="Grupo 1163775" transform="translate(1119.173 7396.978)">
          <g id="Grupo_1163546" data-name="Grupo 1163546" transform="translate(8.156 334.416)">
            <path id="Trazado_998139" data-name="Trazado 998139" d="M322.22,498.362h-9.8a1.224,1.224,0,1,1,0-2.449h9.8a1.224,1.224,0,1,1,0,2.449Zm-19.592,0h-9.8a1.224,1.224,0,1,1,0-2.449h9.8a1.224,1.224,0,0,1,0,2.449Zm-19.592,0h-9.8a1.224,1.224,0,0,1,0-2.449h9.8a1.224,1.224,0,0,1,0,2.449Zm-19.592,0h-9.8a1.224,1.224,0,0,1,0-2.449h9.8a1.224,1.224,0,0,1,0,2.449Zm-19.592,0h-9.8a1.224,1.224,0,0,1,0-2.449h9.8a1.224,1.224,0,0,1,0,2.449Zm-19.592,0h-9.8a1.224,1.224,0,0,1,0-2.449h9.8a1.224,1.224,0,0,1,0,2.449Zm-19.59,0h-9.8a1.224,1.224,0,0,1,0-2.449h9.8a1.224,1.224,0,0,1,0,2.449Zm-19.592,0h-9.8a1.224,1.224,0,0,1,0-2.449h9.8a1.224,1.224,0,0,1,0,2.449Zm-19.592,0h-9.8a1.224,1.224,0,0,1,0-2.449h9.8a1.224,1.224,0,0,1,0,2.449Zm-19.592,0h-9.8a1.224,1.224,0,0,1,0-2.449h9.8a1.224,1.224,0,0,1,0,2.449Zm-19.592,0h-9.8a1.224,1.224,0,0,1,0-2.449h9.8a1.224,1.224,0,0,1,0,2.449Zm-19.592,0h-9.8a1.224,1.224,0,0,1,0-2.449h9.8a1.224,1.224,0,0,1,0,2.449Zm-19.59,0H85.337a29.463,29.463,0,0,1-8.243-1.17,1.224,1.224,0,0,1,.685-2.351,27.1,27.1,0,0,0,7.559,1.071h1.786a1.225,1.225,0,1,1,0,2.45Zm244.729-1.481a1.225,1.225,0,0,1-.391-2.386,26.881,26.881,0,0,0,8.18-4.468,1.225,1.225,0,0,1,1.527,1.915,29.343,29.343,0,0,1-8.923,4.873A1.184,1.184,0,0,1,331.853,496.881ZM68.69,492.94a1.217,1.217,0,0,1-.721-.235,29.5,29.5,0,0,1-7.058-7.316,1.225,1.225,0,0,1,2.029-1.373,27.068,27.068,0,0,0,6.474,6.711,1.224,1.224,0,0,1-.724,2.213Zm278.177-8.021a1.224,1.224,0,0,1-1.041-1.867,26.768,26.768,0,0,0,3.442-8.662,1.224,1.224,0,1,1,2.4.495,29.231,29.231,0,0,1-3.756,9.452A1.222,1.222,0,0,1,346.867,484.919ZM57.942,477.033a1.224,1.224,0,0,1-1.186-.926,29.6,29.6,0,0,1-.89-7.218v-2.8a1.224,1.224,0,1,1,2.449,0v2.8a27.212,27.212,0,0,0,.816,6.62A1.224,1.224,0,0,1,58.242,477,1.2,1.2,0,0,1,57.942,477.033Zm293.111-10.924a1.224,1.224,0,0,1-1.224-1.224v-9.8a1.224,1.224,0,0,1,2.449,0v9.8A1.225,1.225,0,0,1,351.053,466.109ZM57.089,457.514a1.224,1.224,0,0,1-1.224-1.224v-9.8a1.224,1.224,0,1,1,2.449,0v9.8A1.224,1.224,0,0,1,57.089,457.514Zm0-19.592a1.224,1.224,0,0,1-1.224-1.224v-9.8a1.224,1.224,0,0,1,2.449,0v9.8A1.224,1.224,0,0,1,57.089,437.923Zm0-19.592a1.224,1.224,0,0,1-1.224-1.224v-9.8a1.224,1.224,0,0,1,2.449,0v9.8A1.224,1.224,0,0,1,57.089,418.331Zm0-19.592a1.224,1.224,0,0,1-1.224-1.224v-9.8a1.224,1.224,0,0,1,2.449,0v9.8A1.224,1.224,0,0,1,57.089,398.739Zm0-19.59a1.224,1.224,0,0,1-1.224-1.224v-9.8a1.224,1.224,0,1,1,2.449,0v9.8A1.224,1.224,0,0,1,57.089,379.149Zm0-19.592a1.224,1.224,0,0,1-1.224-1.224v-9.8a1.224,1.224,0,1,1,2.449,0v9.8A1.224,1.224,0,0,1,57.089,359.557Z" transform="translate(-55.865 -347.313)" fill="#b19cfe"/>
          </g>
          <g id="Grupo_1163549" data-name="Grupo 1163549" transform="translate(0 0)">
            <path id="Trazado_998142" data-name="Trazado 998142" d="M51.4,225.383a1.224,1.224,0,0,1-1.224-1.224v-9.8a1.224,1.224,0,1,1,2.449,0v9.8A1.224,1.224,0,0,1,51.4,225.383Zm0-19.592a1.224,1.224,0,0,1-1.224-1.224v-9.8a1.224,1.224,0,1,1,2.449,0v9.8A1.224,1.224,0,0,1,51.4,205.792Zm0-19.592a1.224,1.224,0,0,1-1.224-1.224v-9.8a1.224,1.224,0,1,1,2.449,0v9.8A1.224,1.224,0,0,1,51.4,186.2Zm0-19.592a1.224,1.224,0,0,1-1.224-1.224v-9.8a1.224,1.224,0,1,1,2.449,0v9.8A1.224,1.224,0,0,1,51.4,166.609ZM159.157,161.6a1.224,1.224,0,0,1-1.224-1.224v-9.8a1.224,1.224,0,1,1,2.449,0v9.8A1.223,1.223,0,0,1,159.157,161.6ZM51.4,147.017a1.224,1.224,0,0,1-1.224-1.224V136a1.224,1.224,0,1,1,2.449,0v9.8A1.224,1.224,0,0,1,51.4,147.017Zm107.757-5.009a1.224,1.224,0,0,1-1.224-1.224V134.19a16.4,16.4,0,0,0-.27-2.965,1.225,1.225,0,0,1,2.41-.439,19.01,19.01,0,0,1,.308,3.4v6.595A1.222,1.222,0,0,1,159.157,142.008ZM53.174,127.7a1.243,1.243,0,0,1-.533-.122,1.226,1.226,0,0,1-.569-1.636,20.586,20.586,0,0,1,6.711-7.819,1.225,1.225,0,1,1,1.408,2,18.126,18.126,0,0,0-5.914,6.881A1.222,1.222,0,0,1,53.174,127.7Zm101.451-4.16a1.224,1.224,0,0,1-.923-.419,19.3,19.3,0,0,0-7.479-5.22,1.224,1.224,0,1,1,.893-2.279,21.741,21.741,0,0,1,8.431,5.886,1.224,1.224,0,0,1-.118,1.728A1.209,1.209,0,0,1,154.624,123.537ZM68.5,116.748a1.224,1.224,0,0,1-.182-2.434,23.673,23.673,0,0,1,3.554-.27h6.413a1.224,1.224,0,0,1,0,2.449H71.872a21.233,21.233,0,0,0-3.184.241A1.375,1.375,0,0,1,68.5,116.748Zm68.558-.255h-9.8a1.224,1.224,0,0,1,0-2.449h9.8a1.224,1.224,0,0,1,0,2.449Zm-19.592,0h-9.8a1.224,1.224,0,1,1,0-2.449h9.8a1.224,1.224,0,0,1,0,2.449Zm-19.592,0h-9.8a1.224,1.224,0,1,1,0-2.449h9.8a1.224,1.224,0,0,1,0,2.449Z" transform="translate(-50.176 -114.044)" fill="#b19cfe"/>
          </g>
        </g>
        <g id="Grupo_1163777" data-name="Grupo 1163777" transform="translate(1084.43 7437.993)">
          <path id="Trazado_998158" data-name="Trazado 998158" d="M98.056,161.992a14.885,14.885,0,0,0-4.5-10.679c-4.526-5.039-16.938-8.659-31.552-8.659s-27.028,3.62-31.554,8.659a14.885,14.885,0,0,0-4.5,10.679v33.737a14.854,14.854,0,0,0,1.872,7.233c2.436,5.362,8.683,11.229,23.422,24.216a21.413,21.413,0,0,0,7.2,4.142,12.938,12.938,0,0,0,7.126,0,21.412,21.412,0,0,0,7.2-4.142c14.739-12.987,20.987-18.855,23.422-24.216a14.854,14.854,0,0,0,1.872-7.233V161.992Z" transform="translate(-25.941 -142.654)" fill="#b19cfe"/>
          <g id="Grupo_1163562" data-name="Grupo 1163562" transform="translate(3.742 3.911)">
            <path id="Trazado_998159" data-name="Trazado 998159" d="M61.028,224.831H60.69a10.828,10.828,0,0,1-3.114-.464,19.2,19.2,0,0,1-6.542-3.763c-13.176-11.609-18.613-16.515-20.787-21.3a13.621,13.621,0,0,1-1.7-6.587V162.942a13.565,13.565,0,0,1,4.123-9.777c4.172-4.646,15.51-7.783,28.192-7.783s24.02,3.137,28.213,7.806a13.535,13.535,0,0,1,4.1,9.754v29.775a13.677,13.677,0,0,1-1.713,6.622c-2.156,4.75-7.594,9.655-20.776,21.27a19.212,19.212,0,0,1-6.536,3.757A10.8,10.8,0,0,1,61.028,224.831Zm-.169-.988a9.836,9.836,0,0,0,3.009-.421,18.544,18.544,0,0,0,6.166-3.547C83.111,208.353,88.5,203.5,90.589,198.9a12.747,12.747,0,0,0,1.607-6.179V162.942a12.586,12.586,0,0,0-3.826-9.072c-4.04-4.5-15.083-7.5-27.5-7.5s-23.461,3.006-27.479,7.479a12.609,12.609,0,0,0-3.849,9.095v29.775a12.686,12.686,0,0,0,1.59,6.144c2.109,4.635,7.5,9.492,20.567,21.008a18.551,18.551,0,0,0,6.172,3.552A9.675,9.675,0,0,0,60.859,223.843Z" transform="translate(-28.551 -145.382)" fill="#09136e"/>
          </g>
          <g id="Grupo_1163563" data-name="Grupo 1163563" transform="translate(18.625 11.886)">
            <path id="Trazado_998160" data-name="Trazado 998160" d="M68.836,164.733a13.566,13.566,0,0,0-6-11.465.136.136,0,0,0-.024-.014q-.525-.353-1.081-.658c-.039-.021-.08-.039-.119-.059-.343-.182-.691-.354-1.051-.508-.075-.033-.155-.057-.231-.089-.327-.132-.657-.258-.995-.366-.119-.037-.241-.064-.361-.1-.3-.086-.606-.171-.918-.237-.165-.034-.334-.056-.5-.085-.274-.047-.546-.1-.826-.126-.209-.023-.421-.029-.634-.042s-.411-.039-.622-.042c-.039,0-.076,0-.115,0s-.075-.006-.113-.006c-.208,0-.411.021-.618.032s-.429.013-.641.033c-.277.026-.548.07-.819.112-.171.027-.343.046-.51.079-.308.06-.611.139-.91.219-.125.033-.249.059-.373.1-.338.1-.668.221-.995.347-.079.03-.161.056-.239.087-.36.146-.71.313-1.054.487-.04.021-.083.039-.125.06-.373.195-.734.409-1.085.638l-.03.019a13.569,13.569,0,0,0-6.179,11.368c0,.039.01.076.011.115l-.092,5.873c0,.067-.1,6.85-.095,7.139a2.267,2.267,0,0,0,2.228,2.186h.118a2.268,2.268,0,0,0,2.186-2.307c0-.453.087-6.418.1-6.947l.1-6.2a9.058,9.058,0,0,1,5.651-8.242l.03-.011q.385-.155.787-.275c.049-.014.1-.024.146-.037.231-.065.466-.123.7-.169.09-.017.183-.027.275-.042.2-.033.4-.065.6-.083.132-.011.267-.014.4-.02.168-.009.337-.019.507-.017s.335.014.5.026c.135.009.271.013.4.027.2.022.4.056.6.092.093.016.188.029.281.047.235.05.466.112.694.179.05.014.1.026.152.042.267.085.528.179.783.287l.029.012a9.057,9.057,0,0,1,5.522,8.329v6.2c0,.529-.006,6.494-.014,6.947a2.267,2.267,0,0,0,2.15,2.34l.118,0a2.267,2.267,0,0,0,2.262-2.15c.014-.288.017-7.072.017-7.139v-5.873C68.825,164.809,68.836,164.774,68.836,164.733Z" transform="translate(-37.823 -150.945)" fill="#09136e"/>
            <path id="Trazado_998161" data-name="Trazado 998161" d="M67.244,164.424H45.486a6.552,6.552,0,0,0-6.553,6.553v17.987a6.553,6.553,0,0,0,6.553,6.553H67.244a6.554,6.554,0,0,0,6.553-6.553V170.977A6.553,6.553,0,0,0,67.244,164.424Z" transform="translate(-38.933 -145.1)" fill="#fff"/>
            <path id="Trazado_998162" data-name="Trazado 998162" d="M56.543,174.558a4.185,4.185,0,1,0-6.349,3.575v5.527a2.166,2.166,0,1,0,4.332,0v-5.527A4.184,4.184,0,0,0,56.543,174.558Z" transform="translate(-34.926 -142.521)" fill="#09136e"/>
          </g>
        </g>
        <g id="Grupo_1163780" data-name="Grupo 1163780" transform="translate(1109.836 7426.462)">
          <g id="Grupo_1163747" data-name="Grupo 1163747" transform="translate(22.002 0)">
            <g id="Grupo_1163687" data-name="Grupo 1163687" transform="translate(42.301 6.671)">
              <path id="Trazado_998246" data-name="Trazado 998246" d="M90.467,180.492a19.068,19.068,0,0,0,2.963,5.6,26.6,26.6,0,0,0,10.283,8.131,9.3,9.3,0,0,0,3.23.951,7.23,7.23,0,0,0,2.294-.346,30.6,30.6,0,0,0,8.242-4.281c3.937-2.618,7.863-5.4,10.759-9.142a38.522,38.522,0,0,0,4.738-8.557,21.773,21.773,0,0,0,2.152-8.068,17.678,17.678,0,0,0-2.115-8.018c-1.317-2.679-2.722-2.155-5.473-2.689a45.229,45.229,0,0,1-7.711-1.993,50.834,50.834,0,0,1-4.937-2.763c-4.517-2.4-8.2-6.04-11.909-9.5a1.439,1.439,0,0,0-2.305.016c-4.4,3.359-6.752,7.093-8.7,12.233a53.4,53.4,0,0,0-3.4,16.221,25.213,25.213,0,0,0,.513,7.3C89.508,177.3,89.922,178.929,90.467,180.492Z" transform="translate(-88.517 -139.264)" fill="#11112b"/>
            </g>
            <g id="Grupo_1163688" data-name="Grupo 1163688" transform="translate(94.919 84.028)">
              <path id="Trazado_998247" data-name="Trazado 998247" d="M137.182,283.306c-3.284-9.634-5.538-19.541-4.7-29.485.854-10.158-.475-21.21-1.889-31.283-.691-4.917-1-9.878-1.316-14.829a57.427,57.427,0,0,0-.533-7.44,15.872,15.872,0,0,0-3.521-7.045c.383.453,1.9.741,2.473.982q1.37.581,2.71,1.227,2.606,1.26,5.084,2.771c3.059,1.865,6.113,3.34,8.213,6.4a42.805,42.805,0,0,1,4.371,9.234c4.909,12.98,9.708,26.007,14.068,39.183,5.841,17.651,8.8,36.081,12.491,54.3-3.674.761-8.54-.013-12.373.107-4.717.149-9.435.285-14.15.512a1.47,1.47,0,0,1-1.76-1.263C143.372,299.172,139.92,291.333,137.182,283.306Z" transform="translate(-125.22 -193.224)" fill="#d42190"/>
            </g>
            <g id="Grupo_1163689" data-name="Grupo 1163689" transform="translate(49.789 56.467)">
              <path id="Trazado_998248" data-name="Trazado 998248" d="M137.795,206.513a25.759,25.759,0,0,0-1.653-2.136,31.212,31.212,0,0,1-2.52-4.053,15.955,15.955,0,0,1-1.338-5.152c-.6-5.069.624-10.405-.464-15.354-.575-2.611-1.65-2.277-4.255-2.413-2.727-.142-5.458-.132-8.186-.2-2.434-.063-5.382.152-7.688-.715-.942-.354-1.564-1.213-2.407-1.717a7.763,7.763,0,0,0-3.727-.77c-2.031-.009-1.512,1.512-1.508,3.286.007,3.567.42,7.132.148,10.7a18.806,18.806,0,0,1-1.743,6.8c-.909,1.862-2.457,3.316-3.259,5.23-.718,1.715-1.078,3.573-1.782,5.3-.218.535-3.4,6.537-3.671,6.261a9.733,9.733,0,0,0,1.814,1.518c7.035,4.347,15.076,6.362,22.7,9.412,4,1.6,8.117,3.783,12.548,2.322,3.762-1.24,6.24-5.006,7.065-8.88.585-2.748,1.233-6.411.1-9.1C137.911,206.734,137.855,206.622,137.795,206.513Z" transform="translate(-93.74 -173.999)" fill="#e89c77"/>
            </g>
            <g id="Grupo_1163690" data-name="Grupo 1163690" transform="translate(25.785 72.719)">
              <path id="Trazado_998249" data-name="Trazado 998249" d="M77.1,203.681a2.381,2.381,0,0,1,.492-2.324,5.3,5.3,0,0,1,2.083-1.174c3.55-1.328,7.158-2.489,10.791-3.564q2.78-.821,5.577-1.588c5.463-1.508,13.386-2.241,13.492-9.7-.011.78,8.207,2.966,9.146,3.227a48.464,48.464,0,0,0,9.931,1.749c3.67.225,8.139.241,11.3-1.908A20.5,20.5,0,0,0,141,192.972a5.442,5.442,0,0,0,1.295,2.236c.685.608,1.457.8,2.092,1.553,2.239,2.662,4,6.347,5.653,9.4a87.44,87.44,0,0,1,8.754,24.043c1.2,5.868,2.609,11.781,3.722,17.639,1.216,6.405,1.432,13.208,2.117,19.7q1.135,10.776,2.258,21.554c.753,7.237,2.282,14.881,2.2,22.129-4.983.72-9.607.606-14.578,1.857-5.84,1.469-11.844.215-17.781.188-6.146-.027-12.293.02-18.438.089-8.362.093-19.248-1.376-27.16,1.713.7-12.9-.087-25.825-.872-38.717-.619-10.171-1.285-20.516-4.334-30.3-1.421-4.56-4.567-8.665-5.875-13.064-.975-3.279-.406-7.648-.638-11.1-.216-3.224-.381-6.451-.651-9.673q-.206-2.464-.477-4.924C78.156,206.21,77.377,204.911,77.1,203.681Z" transform="translate(-76.996 -185.335)" fill="#fff"/>
            </g>
            <g id="Grupo_1163691" data-name="Grupo 1163691" transform="translate(56.121 5.966)">
              <path id="Trazado_998250" data-name="Trazado 998250" d="M141.663,174.592c-.523,4.956-.87,10.05-2.73,14.465a40.416,40.416,0,0,1-10.925,14.915c-4.162,3.6-10.577,6.769-15.669,3.054-4.067-2.969-8.887-6.794-11.267-11.343-2.516-4.808-1.922-11.637-2.519-16.928a80.034,80.034,0,0,1-.12-14.644c.3-4.342.869-8.635,1.378-12.954.14-1.2-.033-2.6.579-3.676.791-1.385,2.688-2.482,3.984-3.336a35.385,35.385,0,0,1,16.084-5.17c4.361-.427,8.917-.3,12.9,1.534a17.7,17.7,0,0,1,8.23,8.063c3.155,6.195,2.414,13.115,1.014,19.623A61.955,61.955,0,0,0,141.663,174.592Z" transform="translate(-98.157 -138.772)" fill="#ffc19d"/>
            </g>
            <g id="Grupo_1163692" data-name="Grupo 1163692" transform="translate(46.16)">
              <path id="Trazado_998251" data-name="Trazado 998251" d="M93.716,148.718a20.583,20.583,0,0,1,9.43-10.421,27.613,27.613,0,0,1,11.437-3.577c11.092-.757,22.877,2.312,29.106,12.31a30.951,30.951,0,0,1,4.552,14.087c.234,6.179-1.684,13.05-4.1,18.7a54.906,54.906,0,0,0,.542-6.17,16.088,16.088,0,0,0-.446-5.008c-.616-2.122-1.965-3.98-2.539-6.114a8.935,8.935,0,0,1-.085-4.272c.222-.979.38-2.381-.592-2.632-.559-.143-1.092.271-1.534.644a11.639,11.639,0,0,1-3.952,2.355c-2.546.789-4.124-.239-6.435-.928a10.681,10.681,0,0,0-6.792.3c-2.737,1.307-3.861,4.559-5.931,6.777a9.786,9.786,0,0,1-4.567,2.751,32.82,32.82,0,0,0-4.116.983c-2.176.9-2.758,3.137-3.244,5.218a72.533,72.533,0,0,1-2.182,7.789c-1.362,3.839-3.38-1.66-3.482-3.289a13.021,13.021,0,0,0-3.776-8.1c-.909-.9-1.674-.442-2.737-.882-.9-.373-.747-.859-.84-1.8-.106-1.087-.179-2.176-.209-3.267a44.991,44.991,0,0,1,.68-9.065A30.439,30.439,0,0,1,93.716,148.718Z" transform="translate(-91.209 -134.611)" fill="#11112b"/>
            </g>
            <g id="Grupo_1163693" data-name="Grupo 1163693" transform="translate(77.453 41.667)">
              <path id="Trazado_998252" data-name="Trazado 998252" d="M114.439,175.008a7.4,7.4,0,0,1-1.4-.647,6.31,6.31,0,0,0,4.794-3.657c.938-2.083.414-4.836.255-7.029q1.064,2.525,1.931,5.128c.463,1.392,1.459,3.214.991,4.7a3.265,3.265,0,0,1-2.88,2.029A9.312,9.312,0,0,1,114.439,175.008Z" transform="translate(-113.037 -163.675)" fill="#e89c77"/>
            </g>
            <g id="Grupo_1163696" data-name="Grupo 1163696" transform="translate(70.374 27.541)">
              <g id="Grupo_1163694" data-name="Grupo 1163694">
                <path id="Trazado_998253" data-name="Trazado 998253" d="M119.578,158.377c.41-.315.341-.9.083-1.484a4.318,4.318,0,0,0-1.948-1.917c-2.658-1.458-6.768-1.722-9.151.3-.344.292-.626.8-.356,1.16a.981.981,0,0,0,.535.307,8.319,8.319,0,0,0,2.1.178,18.551,18.551,0,0,1,6.527,1.312,3.363,3.363,0,0,0,1.545.368A1.279,1.279,0,0,0,119.578,158.377Z" transform="translate(-108.098 -153.822)" fill="#0a0a16"/>
              </g>
              <g id="Grupo_1163695" data-name="Grupo 1163695" transform="translate(1.071 5.943)">
                <path id="Trazado_998254" data-name="Trazado 998254" d="M115.165,160.073a3.046,3.046,0,0,0-4.041-1.885,3.292,3.292,0,0,0-1.55,1.455,5.484,5.484,0,0,0-.287,4.891,3.007,3.007,0,0,0,2.024,1.915,2.889,2.889,0,0,0,2.354-.813A5.494,5.494,0,0,0,115.165,160.073Z" transform="translate(-108.846 -157.967)" fill="#0a0a16"/>
              </g>
            </g>
            <g id="Grupo_1163699" data-name="Grupo 1163699" transform="translate(88.622 31.18)">
              <g id="Grupo_1163697" data-name="Grupo 1163697">
                <path id="Trazado_998255" data-name="Trazado 998255" d="M120.917,158.756c-.248-.453.049-.961.52-1.392a4.322,4.322,0,0,1,2.555-.972c3.019-.267,6.888,1.145,8.258,3.955.2.406.254.981-.141,1.2a.98.98,0,0,1-.614.066,8.226,8.226,0,0,1-2-.684,18.564,18.564,0,0,0-6.5-1.424,3.361,3.361,0,0,1-1.563-.284A1.273,1.273,0,0,1,120.917,158.756Z" transform="translate(-120.827 -156.36)" fill="#0a0a16"/>
              </g>
              <g id="Grupo_1163698" data-name="Grupo 1163698" transform="translate(0.896 6.17)">
                <path id="Trazado_998256" data-name="Trazado 998256" d="M122.765,161.685a3.043,3.043,0,0,1,4.457-.1,3.286,3.286,0,0,1,.834,1.955,5.488,5.488,0,0,1-1.7,4.595,3.009,3.009,0,0,1-2.624.94,2.882,2.882,0,0,1-1.828-1.69A5.493,5.493,0,0,1,122.765,161.685Z" transform="translate(-121.453 -160.664)" fill="#0a0a16"/>
              </g>
            </g>
            <g id="Grupo_1163701" data-name="Grupo 1163701" transform="translate(70.824 56.824)">
              <g id="Grupo_1163700" data-name="Grupo 1163700">
                <path id="Trazado_998257" data-name="Trazado 998257" d="M123.218,177.112c-1.224,2.006-4.136,2.064-6.2,1.716a12.847,12.847,0,0,1-7.344-4.339c-.647-.724-1.709.344-1.065,1.064a14.1,14.1,0,0,0,8.557,4.808c2.634.35,5.833-.013,7.346-2.489.509-.83-.793-1.587-1.3-.76Z" transform="translate(-108.413 -174.248)" fill="#e89c77"/>
              </g>
            </g>
            <g id="Grupo_1163708" data-name="Grupo 1163708" transform="translate(49.972 34.585)">
              <g id="Grupo_1163702" data-name="Grupo 1163702">
                <path id="Trazado_998258" data-name="Trazado 998258" d="M95.557,159.78c-.073.095-.143.192-.209.291a10.73,10.73,0,0,0-1.237,7.878,19.651,19.651,0,0,0,3.277,7.217c1.685,2.461,4.914,4.067,5.68.152a31.278,31.278,0,0,0,.149-8.129c-.281-3.763-1.467-7.746-5-8.389a2.656,2.656,0,0,0-1.881.249A3.011,3.011,0,0,0,95.557,159.78Z" transform="translate(-93.868 -158.735)" fill="#ffc19d"/>
              </g>
              <g id="Grupo_1163707" data-name="Grupo 1163707" transform="translate(2.735 4.293)">
                <g id="Grupo_1163704" data-name="Grupo 1163704">
                  <g id="Grupo_1163703" data-name="Grupo 1163703">
                    <path id="Trazado_998259" data-name="Trazado 998259" d="M98.509,161.78c-2.011-.459-2.758,2.328-2.732,3.811a11.24,11.24,0,0,0,1.789,5.178c.472.846,1.772.087,1.3-.76a11.092,11.092,0,0,1-1.544-3.826,4.54,4.54,0,0,1,.108-1.822,3.071,3.071,0,0,1,.331-.78c.054-.087.229-.377.348-.35.943.216,1.346-1.236.4-1.451Z" transform="translate(-95.776 -161.73)" fill="#e89c77"/>
                  </g>
                </g>
                <g id="Grupo_1163706" data-name="Grupo 1163706" transform="translate(0.238 3.768)">
                  <g id="Grupo_1163705" data-name="Grupo 1163705">
                    <path id="Trazado_998260" data-name="Trazado 998260" d="M97.221,166.1a1.115,1.115,0,0,1,.082-.083c.053-.049.135-.077-.033.02.067-.039.13-.083.2-.119.118-.062-.172.057-.036.016l.112-.036a1.825,1.825,0,0,1,.231-.046l-.2.027a1.809,1.809,0,0,1,.432,0l-.2-.027a2.056,2.056,0,0,1,.334.077l.082.029c.1.034-.036-.023-.059-.026a.653.653,0,0,1,.176.087c.1.056.2.123.3.189.079.053-.119-.1-.047-.037l.067.056c.05.043.1.087.146.132a.753.753,0,1,0,1.064-1.065,3.239,3.239,0,0,0-1.9-.926,2.206,2.206,0,0,0-1.811.665.752.752,0,1,0,1.064,1.064Z" transform="translate(-95.941 -164.358)" fill="#e89c77"/>
                  </g>
                </g>
              </g>
            </g>
            <g id="Grupo_1163709" data-name="Grupo 1163709" transform="translate(24.492 80.895)">
              <path id="Trazado_998261" data-name="Trazado 998261" d="M82.038,240.687c-.723-2.186-1.522-4.341-2.213-6.57-1.11-3.585-.958-7.611-1.339-11.4C77.9,216.867,76,210.5,76.358,204.647c.082-1.343-.561-4.744-.089-5.714.86-1.773,5.776-2.916,7.535-3.567a79.411,79.411,0,0,1,17.573-4.307.689.689,0,0,1,.933.654c2.443,10.183,6.784,19.3,10.226,29.056,1.792,5.076,2.968,9.608,5.922,14.147a121.4,121.4,0,0,0,11.449,14.917,20.834,20.834,0,0,1,3.574,4.754,18.19,18.19,0,0,1,1.365,6.2c1.514,16.17.737,32.455-.042,48.678a.953.953,0,0,1-1.143,1.143c-5.585.069-10.963.787-16.63.684-4.1-.075-8.2-.175-12.3-.234-3.831-.047-7.683.082-11.506.315-.766.047-8.563.965-8.513.74,2.983-13.589,2.229-27.684,1.461-41.576-.457-8.262-.929-16.58-2.678-24.69A50.374,50.374,0,0,0,82.038,240.687Z" transform="translate(-76.094 -191.038)" fill="#d42190"/>
            </g>
            <g id="Grupo_1163710" data-name="Grupo 1163710" transform="translate(72.83 81.157)">
              <path id="Trazado_998262" data-name="Trazado 998262" d="M149.623,262.808c-1.435,5.018-3.148,10-4.249,15.008-2.254,10.262-3.573,20.9-1.869,31.353a3.921,3.921,0,0,1-.186,2.71c-.622,1-11.221-.654-13.129-.713l-18.579-.578a1.362,1.362,0,0,1-.741-.165,1.381,1.381,0,0,1-.429-1.092,266.525,266.525,0,0,1-.368-30.364,82.756,82.756,0,0,1,1.49-10.828c.576-3.448.313-6.969.843-10.418s2.626-5.181,4.6-7.975a69.044,69.044,0,0,0,8.764-17.04,70.879,70.879,0,0,0,3.975-21.7c.163-6.562-.393-13.55-2.55-19.787,1.836,1.707,4.725,1.945,6.286,4,1.768,2.322,2.81,5.916,3.942,8.6a146.3,146.3,0,0,1,6.272,18.111c.939,3.423,1.753,6.88,2.735,10.292q1.142,3.968,2.583,7.839c.929,2.5,2.8,5.323,3.256,7.921C153.055,252.426,150.84,258.55,149.623,262.808Z" transform="translate(-109.812 -191.221)" fill="#d42190"/>
            </g>
            <g id="Grupo_1163711" data-name="Grupo 1163711" transform="translate(0 86.693)">
              <path id="Trazado_998263" data-name="Trazado 998263" d="M100.694,212.808c.259-7.512-1.379-14.512-8.756-17.14a12.136,12.136,0,0,0-4.744-.536c-2.685.3-4.669,2.595-6.149,4.856-2.909,4.446-4.459,9.314-6.413,14.186-2.573,6.413-4.575,13.236-6.711,19.857A192.052,192.052,0,0,0,60.2,268.6c-1.277,9.981-3.082,21.8,4.026,30.186a17.7,17.7,0,0,0,16.648,5.79,3.04,3.04,0,0,0,1.555-.667,3.374,3.374,0,0,0,.753-2.056c.294-2.351.582-4.7,1-7.038a15.977,15.977,0,0,1,.71-3.382,21.82,21.82,0,0,1,1.346-2.146,45.773,45.773,0,0,0,4.685-11.939c.254-1,.482-2.011.692-3.025a64.441,64.441,0,0,0,1.755-10.947c.09-3.406,1-6.844,1.59-10.226q1.927-11.111,3.306-22.308C98.85,226.088,100.471,219.26,100.694,212.808Z" transform="translate(-59.01 -195.082)" fill="#d42190"/>
            </g>
            <g id="Grupo_1163714" data-name="Grupo 1163714" transform="translate(13.58 170.989)">
              <path id="Trazado_998264" data-name="Trazado 998264" d="M162.112,274.932c0,3.846-8.586,2.745-19.177,2.745s-19.177,1.1-19.177-2.745,8.586-11.181,19.177-11.181S162.112,271.087,162.112,274.932Z" transform="translate(-44.515 -249.604)" fill="#542fd0"/>
              <g id="Grupo_1163712" data-name="Grupo 1163712" transform="translate(70.039 8.498)">
                <path id="Trazado_998265" data-name="Trazado 998265" d="M170.6,276.21c.637,1.524-1.259,2.03-2.677,2.01-4.19-.06-8.431-1.878-12.332-3.249-4.222-1.482-8.8-2.674-13.129-1.561-3.5.9-5.9,3.76-9.387,4.381a59.84,59.84,0,0,1-12.611.823c-1.042-.037-2.239-.186-2.814-1.057a2.739,2.739,0,0,1-.122-2.307c1.449-4.684,1.717-9.582,3.468-14.236a1.877,1.877,0,0,1,.723-1.057,1.9,1.9,0,0,1,1-.142c5.379.205,10.676.833,16.089.619a35.125,35.125,0,0,1,8.344.2c4.269.86,8.309,4.033,11.88,6.456q3.03,2.054,5.927,4.3c1.557,1.2,4.292,2.721,5.382,4.34A2.665,2.665,0,0,1,170.6,276.21Z" transform="translate(-117.337 -259.811)" fill="#ffc19d"/>
              </g>
              <g id="Grupo_1163713" data-name="Grupo 1163713">
                <path id="Trazado_998266" data-name="Trazado 998266" d="M144.612,262.2c-4.451-.513-9-.624-13.489-1.256-5.491-.773-10.966-1.657-16.461-2.407l-33.224-4.527a6.633,6.633,0,0,0-2.244-.049c-3.094.647-4.715,6.424-5.97,8.951a92.527,92.527,0,0,0-4.307,10.874,4.729,4.729,0,0,0-.346,2.73c.543,2.026,3.23,2.681,5.452,2.955q10.8,1.325,21.646,2.182c7.526.594,14.818.186,22.366.182q6.625,0,13.241-.414c2.674-.166,12.133.281,13.393-1.93.611-1.071.811-17.21,1.574-17.083Q145.432,262.295,144.612,262.2Z" transform="translate(-68.483 -253.883)" fill="#d42190"/>
              </g>
            </g>
            <g id="Grupo_1163715" data-name="Grupo 1163715" transform="translate(94.887 85.205)">
              <path id="Trazado_998267" data-name="Trazado 998267" d="M251.212,287.039H128.2a3,3,0,0,1-3-3l12.114-86.99a3,3,0,0,1,3-3h123.01a3,3,0,0,1,3,3l-12.114,86.99A3,3,0,0,1,251.212,287.039Z" transform="translate(-125.198 -194.045)" fill="#9583ed"/>
              <path id="Trazado_998268" data-name="Trazado 998268" d="M254.8,287.039H131.79a3,3,0,0,1-3-3l12.114-86.99a3,3,0,0,1,3-3H266.914a3,3,0,0,1,3,3L257.8,284.037A3,3,0,0,1,254.8,287.039Z" transform="translate(-123.641 -194.045)" fill="#b19cfe"/>
              <path id="Trazado_998269" data-name="Trazado 998269" d="M191.838,247.374H169.184v37.492H203.2Z" transform="translate(-106.125 -170.921)" fill="#9583ed"/>
              <path id="Trazado_998270" data-name="Trazado 998270" d="M206.147,275.591H168.563a2.059,2.059,0,0,1-2.059-2.059v-.169a2.059,2.059,0,0,1,2.059-2.059h37.585a2.059,2.059,0,0,1,2.059,2.059v.169A2.059,2.059,0,0,1,206.147,275.591Z" transform="translate(-107.287 -160.545)" fill="#b19cfe"/>
            </g>
            <g id="Grupo_1163716" data-name="Grupo 1163716" transform="translate(38.664 55.834)">
              <path id="Trazado_998271" data-name="Trazado 998271" d="M115.349,201.316c-1.472-2.785-3.269-4.967-4.463-7.954a61.637,61.637,0,0,1-2.989-9.753c-1.026-4.715-6.289-8.143-10.422-10.052-1.312,4.671-4.777,7.706-7.169,12-2.744,4.923-4.669,10.451-4.274,16.158.432,6.228,3.545,12.054,3.822,18.29.341,7.683-3.657,15.3-2.149,22.843,1.263,6.321,6.3,11.37,12.059,14.259s12.243,3.945,18.615,4.917c-3.084-3.7-3.386-9.03-2.413-13.744s3.044-9.135,4.229-13.8C122.921,223.756,120.467,211.006,115.349,201.316Z" transform="translate(-85.98 -173.557)" fill="#11112b"/>
            </g>
            <g id="Grupo_1163721" data-name="Grupo 1163721" transform="translate(21.005 123.593)">
              <g id="Grupo_1163718" data-name="Grupo 1163718" transform="translate(9.465)">
                <g id="Grupo_1163717" data-name="Grupo 1163717">
                  <path id="Trazado_998272" data-name="Trazado 998272" d="M81.322,269.3c4.1-15.715,6.119-31.83,7.721-47.964.069-.688-1.008-.684-1.075,0-1.594,16.041-3.6,32.055-7.684,47.679a.539.539,0,0,0,1.038.285Z" transform="translate(-80.264 -220.822)" fill="#09136e"/>
                </g>
              </g>
              <g id="Grupo_1163720" data-name="Grupo 1163720" transform="translate(0 46.909)">
                <g id="Grupo_1163719" data-name="Grupo 1163719">
                  <path id="Trazado_998273" data-name="Trazado 998273" d="M74.18,254.62c5.866.357,11.681,1.237,17.534,1.729,5.736.48,11.465.992,17.18,1.68,11.353,1.366,22.8,2.7,33.925,5.4.672.163.959-.873.285-1.036-11-2.668-22.305-3.99-33.525-5.359-5.707-.7-11.427-1.244-17.157-1.707-6.091-.492-12.14-1.412-18.243-1.785-.691-.043-.69,1.034,0,1.075Z" transform="translate(-73.662 -253.543)" fill="#09136e"/>
                </g>
              </g>
            </g>
            <g id="Grupo_1163723" data-name="Grupo 1163723" transform="translate(70.108 78.6)">
              <g id="Grupo_1163722" data-name="Grupo 1163722">
                <path id="Trazado_998274" data-name="Trazado 998274" d="M107.933,190.1a29.637,29.637,0,0,1,.912,9.265c-.04.691,1.035.69,1.075,0a30.649,30.649,0,0,0-.95-9.552.538.538,0,0,0-1.036.287Z" transform="translate(-107.913 -189.437)" fill="#ddd"/>
              </g>
            </g>
            <g id="Grupo_1163725" data-name="Grupo 1163725" transform="translate(77.351 79.545)">
              <g id="Grupo_1163724" data-name="Grupo 1163724">
                <path id="Trazado_998275" data-name="Trazado 998275" d="M112.969,190.609q.488,4.423,1.082,8.835a.541.541,0,0,0,.661.376.552.552,0,0,0,.376-.661q-.574-4.269-1.045-8.549c-.075-.681-1.15-.688-1.074,0Z" transform="translate(-112.965 -190.097)" fill="#ddd"/>
              </g>
            </g>
            <g id="Grupo_1163727" data-name="Grupo 1163727" transform="translate(83.793 78.749)">
              <g id="Grupo_1163726" data-name="Grupo 1163726">
                <path id="Trazado_998276" data-name="Trazado 998276" d="M117.515,190.361a5.6,5.6,0,0,1,.378,1.874q.092,1,.186,1.994.189,2.034.38,4.067c.064.684,1.14.69,1.075,0l-.409-4.385a12.309,12.309,0,0,0-.681-4.092c-.3-.626-1.221-.082-.93.542Z" transform="translate(-117.459 -189.541)" fill="#ddd"/>
              </g>
            </g>
            <g id="Grupo_1163729" data-name="Grupo 1163729" transform="translate(70.597 85.523)">
              <g id="Grupo_1163728" data-name="Grupo 1163728">
                <path id="Trazado_998277" data-name="Trazado 998277" d="M108.639,198.4a29.675,29.675,0,0,0,5.641.725,18.289,18.289,0,0,0,5.059-.241c3.155-.786,6.483-1.584,9.122-3.58.545-.413.01-1.346-.543-.929-2.5,1.892-5.591,2.629-8.576,3.4a16.569,16.569,0,0,1-4.761.287,29.587,29.587,0,0,1-5.657-.7c-.672-.156-.96.88-.285,1.035Z" transform="translate(-108.254 -194.267)" fill="#ddd"/>
              </g>
            </g>
            <g id="Grupo_1163731" data-name="Grupo 1163731" transform="translate(33.74 157.541)">
              <g id="Grupo_1163730" data-name="Grupo 1163730">
                <path id="Trazado_998278" data-name="Trazado 998278" d="M82.551,245.177c.642,4.745.913,9.529,1.184,14.306.039.688,1.114.692,1.075,0-.277-4.876-.568-9.75-1.223-14.593-.093-.681-1.13-.391-1.036.287Z" transform="translate(-82.545 -244.502)" fill="#09136e"/>
              </g>
            </g>
            <g id="Grupo_1163742" data-name="Grupo 1163742" transform="translate(45.178 3.921)" opacity="0.15">
              <g id="Grupo_1163733" data-name="Grupo 1163733" transform="translate(10.792 58.407)">
                <g id="Grupo_1163732" data-name="Grupo 1163732">
                  <path id="Trazado_998279" data-name="Trazado 998279" d="M107.656,252.46c-4.365-5.4-1-12.812.394-18.676a56.562,56.562,0,0,0,1.67-18.85c-.639-6.11-3.036-11.462-5.724-16.908-2.947-5.972-5.9-12.445-4.55-19.266.133-.675-.9-.965-1.036-.285-1.2,6.086.8,11.981,3.37,17.441,3.13,6.642,6.447,12.848,6.98,20.323.5,7.026-.806,14.032-2.652,20.783-1.467,5.363-3.065,11.43.788,16.2.434.539,1.191-.225.76-.76Z" transform="translate(-98.051 -178.087)" fill="#fff"/>
                </g>
              </g>
              <g id="Grupo_1163735" data-name="Grupo 1163735" transform="translate(0.714 61.947)">
                <g id="Grupo_1163734" data-name="Grupo 1163734">
                  <path id="Trazado_998280" data-name="Trazado 998280" d="M95.013,180.744a18.5,18.5,0,0,0-3.736,14.474c.523,3.068,1.778,5.938,2.626,8.917a19.343,19.343,0,0,1,.12,10.332c-1.375,5.628-3,10.8-2.3,16.676a23.068,23.068,0,0,0,5.914,13.238c.475.506,1.233-.255.76-.76a22.392,22.392,0,0,1-5.744-14.088c-.351-5.663,1.586-10.612,2.7-16.054a18.76,18.76,0,0,0,.166-7.24,82.852,82.852,0,0,0-2.48-8.3c-1.687-5.732-.983-11.634,2.735-16.432.42-.542-.335-1.307-.758-.761Z" transform="translate(-91.021 -180.556)" fill="#fff"/>
                </g>
              </g>
              <g id="Grupo_1163737" data-name="Grupo 1163737" transform="translate(11.564 80.075)">
                <g id="Grupo_1163736" data-name="Grupo 1163736">
                  <path id="Trazado_998281" data-name="Trazado 998281" d="M99.907,233.636c-1.191-6.781,1.878-13.427,2.173-20.175.292-6.7-1.085-13.345-2.439-19.873-.14-.677-1.177-.39-1.036.285,1.426,6.877,2.877,13.889,2.317,20.951-.509,6.423-3.2,12.59-2.051,19.1.119.679,1.155.391,1.036-.285Z" transform="translate(-98.59 -193.201)" fill="#fff"/>
                </g>
              </g>
              <g id="Grupo_1163739" data-name="Grupo 1163739" transform="translate(12.788 8.856)">
                <g id="Grupo_1163738" data-name="Grupo 1163738">
                  <path id="Trazado_998282" data-name="Trazado 998282" d="M100.489,159.3c.632-3.537,4.629-4.235,7.59-4.648,3.077-.429,5.581-1.224,7.829-3.436,2.215-2.181,3.988-4.871,7.052-5.945,3.395-1.19,7.157-.561,10.6.047.677.119.968-.916.285-1.036-3.479-.615-7.2-1.229-10.662-.209-3.207.943-5.164,3.358-7.366,5.7a10.951,10.951,0,0,1-4.608,3.19c-1.945.626-4.026.626-6.007,1.082-2.593.6-5.247,2.17-5.747,4.975-.123.675.913.966,1.035.285Z" transform="translate(-99.444 -143.523)" fill="#fff"/>
                </g>
              </g>
              <g id="Grupo_1163741" data-name="Grupo 1163741">
                <g id="Grupo_1163740" data-name="Grupo 1163740">
                  <path id="Trazado_998283" data-name="Trazado 998283" d="M91.605,168.42a29.134,29.134,0,0,1,5.029-13.467,15.219,15.219,0,0,1,5.478-5.213c2.222-1.09,4.718-1.366,7.056-2.109a8.229,8.229,0,0,0,3.465-1.938c1.392-1.4,2.331-3.085,3.944-4.289a15.99,15.99,0,0,1,11.945-2.788c.677.11.968-.925.285-1.037a17.281,17.281,0,0,0-11.952,2.334,17.482,17.482,0,0,0-4.226,4.146c-1.458,1.819-3.276,2.456-5.488,3.015-2.368.6-4.805,1.088-6.863,2.483A18.508,18.508,0,0,0,95.7,154.41a30.212,30.212,0,0,0-5.177,14.009c-.075.687,1,.681,1.078,0Z" transform="translate(-90.523 -137.346)" fill="#fff"/>
                </g>
              </g>
            </g>
            <g id="Grupo_1163744" data-name="Grupo 1163744" transform="translate(34.186 54.925)">
              <g id="Grupo_1163743" data-name="Grupo 1163743">
                <path id="Trazado_998284" data-name="Trazado 998284" d="M98.789,173.108A129.793,129.793,0,0,0,88.435,187.57c-2.9,4.846-5.829,10.224-5.562,16.051.265,5.8,4.033,10.755,4.059,16.6.014,3.276-.784,6.484-1.055,9.737a28.379,28.379,0,0,0,.5,8.369,19.821,19.821,0,0,0,9.793,13.519c.611.324,1.155-.6.543-.929a18.638,18.638,0,0,1-9.156-12.259,27.114,27.114,0,0,1-.6-8.7c.242-2.922.9-5.8,1.031-8.729.228-5.306-2.443-9.69-3.618-14.7-1.414-6.024,1.125-11.612,4.033-16.747a120.5,120.5,0,0,1,11.152-15.9c.429-.535-.328-1.3-.761-.76Z" transform="translate(-82.856 -172.923)" fill="#11112b"/>
              </g>
            </g>
            <g id="Grupo_1163746" data-name="Grupo 1163746" transform="translate(40.737 20.795)">
              <g id="Grupo_1163745" data-name="Grupo 1163745">
                <path id="Trazado_998285" data-name="Trazado 998285" d="M92.616,149.358c-7.954,11.615-7.108,28.258,4.923,36.8.565.4,1.1-.53.542-.929-11.566-8.216-12.128-24.244-4.536-35.331.391-.573-.539-1.112-.929-.543Z" transform="translate(-87.426 -149.116)" fill="#11112b"/>
              </g>
            </g>
          </g>
          <g id="Grupo_1163748" data-name="Grupo 1163748" transform="translate(0 198.34)">
            <path id="Trazado_998286" data-name="Trazado 998286" d="M295.914,276.786H45.575a1.912,1.912,0,0,1,0-3.825H295.914a1.912,1.912,0,0,1,0,3.825Z" transform="translate(-43.663 -272.961)" fill="#09136e"/>
          </g>
          <g id="Grupo_1163750" data-name="Grupo 1163750" transform="translate(79.659 60.631)">
            <g id="Grupo_1163749" data-name="Grupo 1163749">
              <path id="Trazado_998287" data-name="Trazado 998287" d="M99.255,177.565c1.816,5.912,7.032,9.928,12.1,13.036,2.982,1.829,5.876,2.767,9.28,1.505a30.494,30.494,0,0,0,8.7-5.4c.53-.444-.232-1.2-.76-.76a29.065,29.065,0,0,1-8.229,5.119c-3.466,1.285-6.223.019-9.159-1.838-4.562-2.883-9.248-6.592-10.9-11.952-.2-.661-1.242-.38-1.036.285Z" transform="translate(-99.228 -176.903)" fill="#d67f5c"/>
            </g>
          </g>
        </g>
        <g id="Grupo_1163781" data-name="Grupo 1163781" transform="translate(1245.776 7405.377)">
          <path id="Trazado_998288" data-name="Trazado 998288" d="M125.324,320.411a27.348,27.348,0,0,0-51.6-11.386,21.794,21.794,0,0,0-33.414,22.486,12.306,12.306,0,0,0-13.156,17.454H142.218a21.722,21.722,0,0,0-16.894-28.555Z" transform="translate(-25.941 -294.262)" fill="#b19cfe"/>
          <path id="Trazado_998289" data-name="Trazado 998289" d="M74.163,331.409H69.3v17.334H52.538V331.409H47.677l13.236-12.355Z" transform="translate(-16.516 -283.512)" fill="#ffc655"/>
        </g>
      </g>
      <g id="Grupo_1163785" data-name="Grupo 1163785" transform="translate(1357.098 7945.139)">
        <g id="Grupo_1163518" data-name="Grupo 1163518" transform="translate(0 0)">
          <g id="Grupo_1163517" data-name="Grupo 1163517">
            <g id="Grupo_1163516" data-name="Grupo 1163516">
              <path id="Trazado_998118" data-name="Trazado 998118" d="M146.207,359.694l-3.284,1.344a2.022,2.022,0,0,0-.308.161,17.027,17.027,0,0,0-4.2-4.2,1.941,1.941,0,0,0,.166-.312l1.357-3.279a2.005,2.005,0,0,0-1.085-2.616l-3.279-1.357a2.005,2.005,0,0,0-2.616,1.085l-1.356,3.279a2.052,2.052,0,0,0-.1.338,17.019,17.019,0,0,0-5.783-.017,1.96,1.96,0,0,0-.1-.332l-1.344-3.284a2,2,0,0,0-2.612-1.095l-3.284,1.344a2.005,2.005,0,0,0-1.095,2.612l1.344,3.284a1.957,1.957,0,0,0,.161.308,17.027,17.027,0,0,0-4.2,4.2,2,2,0,0,0-.312-.166l-3.279-1.357a1.989,1.989,0,0,0-1.524,0l-.009,0a1.99,1.99,0,0,0-1.084,1.084l-1.356,3.279h0a2.005,2.005,0,0,0,1.085,2.616l3.279,1.357a2,2,0,0,0,.338.1,17,17,0,0,0-.017,5.784,1.952,1.952,0,0,0-.332.1l-3.284,1.344a2,2,0,0,0-1.095,2.612l1.344,3.284a2,2,0,0,0,2.612,1.095l3.284-1.344a1.959,1.959,0,0,0,.308-.161,17.021,17.021,0,0,0,4.2,4.205,2.051,2.051,0,0,0-.168.311l-1.356,3.279a2,2,0,0,0,1.085,2.615l3.279,1.357h0a2.005,2.005,0,0,0,2.616-1.085l1.357-3.279a2.019,2.019,0,0,0,.1-.338,17.006,17.006,0,0,0,5.784.017,2.023,2.023,0,0,0,.1.332l1.344,3.284a2,2,0,0,0,2.612,1.095l3.284-1.344a2,2,0,0,0,1.095-2.612l-1.344-3.284a1.956,1.956,0,0,0-.161-.308,17.005,17.005,0,0,0,4.2-4.2,2.047,2.047,0,0,0,.311.167l3.279,1.357a2.005,2.005,0,0,0,2.616-1.085l1.357-3.279a2.005,2.005,0,0,0-1.085-2.616l-3.279-1.356a1.99,1.99,0,0,0-.338-.1,17.014,17.014,0,0,0,.017-5.782,1.946,1.946,0,0,0,.332-.1l3.284-1.344a2.005,2.005,0,0,0,1.095-2.612l-1.344-3.284A2.007,2.007,0,0,0,146.207,359.694Zm-14.067,20a9.405,9.405,0,1,1,5.142-12.267A9.416,9.416,0,0,1,132.14,379.695Z" transform="translate(-106.843 -349.255)" fill="#b19cfe"/>
            </g>
          </g>
          <path id="Trazado_998119" data-name="Trazado 998119" d="M140.913,374.171a6.676,6.676,0,1,1-9.156-2.3A6.676,6.676,0,0,1,140.913,374.171Z" transform="translate(-113.449 -355.862)" fill="#b19cfe"/>
        </g>
      </g>
      <g id="Grupo_1163786" data-name="Grupo 1163786" transform="translate(1332.1 7921.339)">
        <path id="Trazado_998122" data-name="Trazado 998122" d="M104.276,328.347l-2.754.242a1.462,1.462,0,0,0-.266.049,13.272,13.272,0,0,0-2.153-4.1,1.615,1.615,0,0,0,.2-.194l1.767-2.128a1.562,1.562,0,0,0-.2-2.2l-2.128-1.767a1.563,1.563,0,0,0-2.2.2l-1.767,2.128a1.635,1.635,0,0,0-.154.227,13.266,13.266,0,0,0-4.3-1.348,1.6,1.6,0,0,0,0-.27l-.242-2.755a1.562,1.562,0,0,0-1.691-1.418l-2.755.242a1.562,1.562,0,0,0-1.418,1.691l.242,2.755a1.666,1.666,0,0,0,.048.266,13.272,13.272,0,0,0-4.1,2.153,1.615,1.615,0,0,0-.194-.2l-2.128-1.767a1.55,1.55,0,0,0-1.134-.354H76.94a1.55,1.55,0,0,0-1.056.557l-1.767,2.128h0a1.562,1.562,0,0,0,.2,2.2l2.128,1.767a1.618,1.618,0,0,0,.228.154,13.266,13.266,0,0,0-1.348,4.3,1.6,1.6,0,0,0-.27,0l-2.754.242a1.562,1.562,0,0,0-1.418,1.691l.242,2.754a1.562,1.562,0,0,0,1.691,1.418l2.755-.242a1.59,1.59,0,0,0,.266-.049,13.256,13.256,0,0,0,2.154,4.1,1.515,1.515,0,0,0-.2.193l-1.767,2.127a1.56,1.56,0,0,0,.2,2.2l2.128,1.767h0a1.563,1.563,0,0,0,2.2-.2l1.767-2.128a1.618,1.618,0,0,0,.154-.228,13.264,13.264,0,0,0,4.3,1.348,1.6,1.6,0,0,0,0,.27l.242,2.755a1.562,1.562,0,0,0,1.691,1.418l2.755-.242a1.562,1.562,0,0,0,1.418-1.691l-.242-2.755a1.592,1.592,0,0,0-.049-.266,13.243,13.243,0,0,0,4.1-2.154,1.563,1.563,0,0,0,.193.2l2.128,1.767a1.563,1.563,0,0,0,2.2-.2l1.767-2.128a1.562,1.562,0,0,0-.2-2.2l-2.128-1.767a1.637,1.637,0,0,0-.227-.154,13.266,13.266,0,0,0,1.348-4.3,1.6,1.6,0,0,0,.27,0l2.755-.242a1.562,1.562,0,0,0,1.418-1.691l-.242-2.754A1.561,1.561,0,0,0,104.276,328.347ZM89.188,339.983a7.329,7.329,0,1,1,6.66-7.942A7.337,7.337,0,0,1,89.188,339.983Z" transform="translate(-70.878 -315.014)" fill="#09136e"/>
        <path id="Trazado_998123" data-name="Trazado 998123" d="M99.072,336.924A5.2,5.2,0,1,1,92.79,333.1,5.2,5.2,0,0,1,99.072,336.924Z" transform="translate(-76.347 -320.483)" fill="#09136e"/>
      </g>
    </g>
  </g>
</svg>
