<svg xmlns="http://www.w3.org/2000/svg" xmlns:xlink="http://www.w3.org/1999/xlink" width="400" height="253" viewBox="0 0 400 253">
  <defs>
    <clipPath id="clip-path">
      <rect id="Rectángulo_412123" data-name="Rectángulo 412123" width="400" height="253" transform="translate(1020 7466)" fill="#fff" stroke="#707070" stroke-width="1" opacity="0.73"/>
    </clipPath>
  </defs>
  <g id="Enmascarar_grupo_1098780" data-name="Enmascarar grupo 1098780" transform="translate(-1020 -7466)" clip-path="url(#clip-path)">
    <g id="Grupo_1163789" data-name="Grupo 1163789" transform="translate(-551.782 -24.512)">
      <g id="Grupo_1163515" data-name="Grupo 1163515" transform="translate(1691.726 7542.781)">
        <circle id="Elipse_12248" data-name="Elipse 12248" cx="101.276" cy="101.276" r="101.276" transform="translate(0 199.796) rotate(-80.549)" fill="#ded7ff"/>
      </g>
      <g id="Grupo_1163523" data-name="Grupo 1163523" transform="translate(1819.92 7708.226)">
        <g id="Grupo_1163522" data-name="Grupo 1163522" transform="translate(0 0)">
          <g id="Grupo_1163521" data-name="Grupo 1163521">
            <g id="Grupo_1163520" data-name="Grupo 1163520">
              <path id="Trazado_998120" data-name="Trazado 998120" d="M486.912,300.072l-6.943-2.085a3.94,3.94,0,0,0-.7-.14,34.767,34.767,0,0,0-1.265-12.07,4.213,4.213,0,0,0,.665-.282l6.367-3.464a4.094,4.094,0,0,0,1.637-5.548l-3.464-6.367a4.1,4.1,0,0,0-5.548-1.637l-6.367,3.464a4.111,4.111,0,0,0-.6.4,34.738,34.738,0,0,0-9.161-7.456,4.082,4.082,0,0,0,.265-.657l2.086-6.943a4.1,4.1,0,0,0-2.741-5.1l-6.943-2.086a4.1,4.1,0,0,0-5.1,2.742l-2.086,6.943a3.954,3.954,0,0,0-.14.694,34.768,34.768,0,0,0-12.07,1.265,4.209,4.209,0,0,0-.282-.665l-3.464-6.367a4.061,4.061,0,0,0-2.416-1.964l-.019-.005a4.064,4.064,0,0,0-3.114.33l-6.367,3.464h0a4.1,4.1,0,0,0-1.637,5.549l3.464,6.367a4.142,4.142,0,0,0,.405.6,34.742,34.742,0,0,0-7.458,9.163,4.071,4.071,0,0,0-.658-.265l-6.943-2.086a4.1,4.1,0,0,0-5.094,2.741l-2.086,6.943a4.1,4.1,0,0,0,2.741,5.094l6.943,2.086a4.068,4.068,0,0,0,.694.14,34.784,34.784,0,0,0,1.265,12.073,4.072,4.072,0,0,0-.665.279l-6.367,3.464a4.09,4.09,0,0,0-1.639,5.548l3.464,6.367h0a4.1,4.1,0,0,0,5.549,1.637l6.367-3.464a4.052,4.052,0,0,0,.6-.406,34.744,34.744,0,0,0,9.162,7.458,4.073,4.073,0,0,0-.265.657l-2.086,6.943a4.1,4.1,0,0,0,2.741,5.094l6.943,2.086a4.1,4.1,0,0,0,5.094-2.741l2.086-6.943a4.046,4.046,0,0,0,.14-.7,34.755,34.755,0,0,0,12.073-1.265,4.025,4.025,0,0,0,.28.666L457.73,336a4.1,4.1,0,0,0,5.548,1.639l6.368-3.464a4.1,4.1,0,0,0,1.637-5.549l-3.464-6.367a4.1,4.1,0,0,0-.4-.6,34.739,34.739,0,0,0,7.456-9.161,4.208,4.208,0,0,0,.657.266l6.943,2.086a4.1,4.1,0,0,0,5.094-2.741l2.086-6.943A4.092,4.092,0,0,0,486.912,300.072Zm-48.036,13.687A19.212,19.212,0,1,1,462.8,300.886,19.233,19.233,0,0,1,438.876,313.759Z" transform="translate(-398.976 -249.936)" fill="#b19cfe"/>
            </g>
          </g>
          <path id="Trazado_998121" data-name="Trazado 998121" d="M451.064,290.442a13.636,13.636,0,1,1-11.578-15.422A13.637,13.637,0,0,1,451.064,290.442Z" transform="translate(-392.136 -243.097)" fill="#b19cfe"/>
        </g>
      </g>
      <g id="Grupo_1163524" data-name="Grupo 1163524" transform="translate(1636.316 7594.534)">
        <path id="Trazado_998122" data-name="Trazado 998122" d="M132.1,339.455l-5.049.443a2.687,2.687,0,0,0-.488.089,24.331,24.331,0,0,0-3.947-7.514,2.955,2.955,0,0,0,.359-.355l3.239-3.9a2.864,2.864,0,0,0-.373-4.029l-3.9-3.239a2.865,2.865,0,0,0-4.029.373l-3.239,3.9a3,3,0,0,0-.283.417,24.319,24.319,0,0,0-7.882-2.471,2.924,2.924,0,0,0,0-.5l-.443-5.05a2.863,2.863,0,0,0-3.1-2.6l-5.05.443a2.864,2.864,0,0,0-2.6,3.1l.443,5.049a3.053,3.053,0,0,0,.088.488,24.331,24.331,0,0,0-7.514,3.947,2.957,2.957,0,0,0-.355-.359l-3.9-3.239a2.841,2.841,0,0,0-2.078-.65H81.99a2.841,2.841,0,0,0-1.937,1.021l-3.239,3.9h0a2.864,2.864,0,0,0,.373,4.029l3.9,3.239a2.964,2.964,0,0,0,.418.282,24.319,24.319,0,0,0-2.472,7.883,2.929,2.929,0,0,0-.5,0l-5.05.443a2.864,2.864,0,0,0-2.6,3.1l.443,5.049a2.864,2.864,0,0,0,3.1,2.6l5.049-.443a2.915,2.915,0,0,0,.488-.089,24.3,24.3,0,0,0,3.949,7.515,2.771,2.771,0,0,0-.359.354l-3.239,3.9a2.86,2.86,0,0,0,.372,4.029l3.9,3.239h0a2.865,2.865,0,0,0,4.029-.373l3.239-3.9a2.966,2.966,0,0,0,.282-.418,24.314,24.314,0,0,0,7.885,2.472,2.924,2.924,0,0,0,0,.5l.443,5.05a2.864,2.864,0,0,0,3.1,2.6l5.049-.443a2.864,2.864,0,0,0,2.6-3.1l-.443-5.05a2.918,2.918,0,0,0-.089-.488,24.278,24.278,0,0,0,7.514-3.949,2.857,2.857,0,0,0,.354.361l3.9,3.239a2.865,2.865,0,0,0,4.029-.373l3.239-3.9a2.864,2.864,0,0,0-.373-4.029l-3.9-3.239a3,3,0,0,0-.417-.283,24.319,24.319,0,0,0,2.471-7.882,2.923,2.923,0,0,0,.5,0l5.049-.443a2.864,2.864,0,0,0,2.6-3.1l-.443-5.05A2.861,2.861,0,0,0,132.1,339.455Zm-27.66,21.332a13.435,13.435,0,1,1,12.209-14.559A13.45,13.45,0,0,1,104.443,360.787Z" transform="translate(-70.878 -315.014)" fill="#09136e"/>
        <path id="Trazado_998123" data-name="Trazado 998123" d="M107.62,340.238A9.536,9.536,0,1,1,96.1,333.218,9.537,9.537,0,0,1,107.62,340.238Z" transform="translate(-65.961 -310.098)" fill="#09136e"/>
      </g>
      <g id="Grupo_1163537" data-name="Grupo 1163537" transform="translate(1811.172 7499.255)">
        <path id="Trazado_998129" data-name="Trazado 998129" d="M480.44,109.171a24.307,24.307,0,0,0-45.864-10.119,19.37,19.37,0,0,0-29.7,19.985,10.937,10.937,0,0,0-11.693,15.512H495.455a19.305,19.305,0,0,0-15.015-25.378Z" transform="translate(-392.11 -85.93)" fill="#b19cfe"/>
        <path id="Trazado_998130" data-name="Trazado 998130" d="M471.089,132.961h-4.321V117.555h-14.9v15.406h-4.321l11.764,10.981Z" transform="translate(-376.911 -77.26)" fill="#ffc655"/>
      </g>
      <g id="Grupo_1163545" data-name="Grupo 1163545" transform="translate(1602.781 7537.021)">
        <g id="Grupo_1163544" data-name="Grupo 1163544" transform="translate(0 0)">
          <path id="Trazado_998133" data-name="Trazado 998133" d="M434.628,170.557v25.558h39.709V170.557Zm38.1,23.345-13.585-11.7,13.585-9.315Zm-36.489-21.011,13.585,9.315-13.585,11.7Zm18.245,10.556-16.452-11.281h32.9Zm-3.439-.167a.788.788,0,0,0,.121-.155l2.863,1.963c.019.013.041.018.061.029a.632.632,0,0,0,.066.032.808.808,0,0,0,.326.079h0a.808.808,0,0,0,.326-.079.631.631,0,0,0,.066-.032c.02-.011.042-.017.061-.029l2.863-1.963a.783.783,0,0,0,.121.155L470.961,194.5H438Z" transform="translate(-172.063 -100.495)" fill="#b19cfe"/>
          <path id="Trazado_998134" data-name="Trazado 998134" d="M279.542,137.923a.581.581,0,0,0-.006-.173,23.18,23.18,0,0,0-6.242-14.816l-.087-.11-.037-.022a23.168,23.168,0,0,0-33.644.011.539.539,0,0,0-.106.113,23.184,23.184,0,0,0-6.246,14.783.525.525,0,0,0-.009.214c-.01.282-.017.566-.017.851a23.109,23.109,0,0,0,6.186,15.756l.056.1a.569.569,0,0,0,.243.219,23.17,23.17,0,0,0,33.446,0,.581.581,0,0,0,.241-.218l.034-.076a23.113,23.113,0,0,0,6.205-15.778Q279.559,138.348,279.542,137.923Zm-22.615,2V128.154a34.922,34.922,0,0,0,9.137-1.337,37.416,37.416,0,0,1,1.865,11.961c0,.163,0,.325,0,.487A98.4,98.4,0,0,1,256.926,139.923Zm12.145-.8c0-.115,0-.229,0-.345a38.4,38.4,0,0,0-1.927-12.3A28.486,28.486,0,0,0,272.715,124a22.059,22.059,0,0,1,5.656,13.408A87.3,87.3,0,0,1,269.072,139.123Zm-12.145-12.115V116.746c3.443.331,6.668,3.643,8.743,8.992A33.67,33.67,0,0,1,256.926,127.008Zm9.829-1.6a17.95,17.95,0,0,0-5.643-8.167,22.124,22.124,0,0,1,10.79,5.907A27.439,27.439,0,0,1,266.755,125.4Zm-.015,26.787a27.513,27.513,0,0,1,5.132,2.248,22.112,22.112,0,0,1-10.76,5.879A17.9,17.9,0,0,0,266.74,152.191Zm-9.814-2.743v-8.379a99.449,99.449,0,0,0,10.971-.649,36.648,36.648,0,0,1-1.848,10.359A34.91,34.91,0,0,0,256.926,149.447Zm8.727,2.409c-2.076,5.325-5.3,8.624-8.727,8.952V150.592A33.712,33.712,0,0,1,265.653,151.857Zm1.481-.742a37.811,37.811,0,0,0,1.914-10.834,88.958,88.958,0,0,0,9.366-1.709c0,.068,0,.136,0,.205a21.971,21.971,0,0,1-5.726,14.811A28.572,28.572,0,0,0,267.134,151.115Zm-11.353-.524v10.217c-3.433-.329-6.652-3.628-8.727-8.952A33.705,33.705,0,0,1,255.781,150.592Zm-9.815,1.6a17.91,17.91,0,0,0,5.628,8.128,22.117,22.117,0,0,1-10.76-5.879A27.6,27.6,0,0,1,245.966,152.191Zm1.324-11.532c2.789.251,5.643.389,8.491.409v8.38a34.957,34.957,0,0,0-9.123,1.331,36.712,36.712,0,0,1-1.849-10.374Q246,140.54,247.29,140.658Zm-2.511-1.881a37.421,37.421,0,0,1,1.865-11.961,34.922,34.922,0,0,0,9.137,1.337v11.767c-2.816-.02-5.633-.154-8.38-.4q-1.365-.122-2.62-.27C244.78,139.092,244.779,138.936,244.779,138.778Zm1.172-13.374a27.5,27.5,0,0,1-5.146-2.26,22.114,22.114,0,0,1,10.79-5.907A17.936,17.936,0,0,0,245.951,125.4Zm-.391,1.075a38.408,38.408,0,0,0-1.927,12.3c0,.111,0,.22,0,.331a80.831,80.831,0,0,1-9.3-1.695A22.057,22.057,0,0,1,239.992,124,28.346,28.346,0,0,0,245.56,126.479Zm-11.266,12.1a83.858,83.858,0,0,0,9.366,1.681,37.817,37.817,0,0,0,1.914,10.849,28.522,28.522,0,0,0-5.554,2.473,21.971,21.971,0,0,1-5.726-14.811C234.292,138.713,234.292,138.649,234.293,138.584Zm12.744-12.846c2.076-5.349,5.3-8.662,8.743-8.992v10.262A33.671,33.671,0,0,1,247.038,125.738Z" transform="translate(-227.301 -115.57)" fill="#b19cfe"/>
          <g id="Grupo_1163543" data-name="Grupo 1163543" transform="translate(0 140.657)">
            <g id="Grupo_1163538" data-name="Grupo 1163538" transform="translate(23.23 33.923)">
              <circle id="Elipse_12250" data-name="Elipse 12250" cx="5.822" cy="5.822" r="5.822" fill="#b19cfe"/>
            </g>
            <g id="Grupo_1163539" data-name="Grupo 1163539" transform="translate(15.449 24.333)">
              <path id="Trazado_998135" data-name="Trazado 998135" d="M266.553,271.816a1.338,1.338,0,0,1-1.168-.683,12.73,12.73,0,0,0-22.193,0,1.34,1.34,0,0,1-2.336-1.312,15.41,15.41,0,0,1,26.864,0,1.339,1.339,0,0,1-1.167,2Z" transform="translate(-240.684 -261.963)" fill="#b19cfe"/>
            </g>
            <g id="Grupo_1163540" data-name="Grupo 1163540" transform="translate(8.945 16.212)">
              <path id="Trazado_998136" data-name="Trazado 998136" d="M236.918,269.248a1.34,1.34,0,0,1-1.167-2,22.87,22.87,0,0,1,39.87,0,1.339,1.339,0,1,1-2.334,1.314,20.191,20.191,0,0,0-35.2,0A1.336,1.336,0,0,1,236.918,269.248Z" transform="translate(-235.579 -255.59)" fill="#b19cfe"/>
            </g>
            <g id="Grupo_1163541" data-name="Grupo 1163541" transform="translate(4.272 7.989)">
              <path id="Trazado_998137" data-name="Trazado 998137" d="M280.131,265.527a1.339,1.339,0,0,1-1.168-.683,25.551,25.551,0,0,0-44.543,0,1.34,1.34,0,0,1-2.336-1.314,28.228,28.228,0,0,1,49.212,0,1.34,1.34,0,0,1-.511,1.825A1.313,1.313,0,0,1,280.131,265.527Z" transform="translate(-231.912 -249.136)" fill="#b19cfe"/>
            </g>
            <g id="Grupo_1163542" data-name="Grupo 1163542">
              <path id="Trazado_998138" data-name="Trazado 998138" d="M285.326,261.757a1.338,1.338,0,0,1-1.168-.683,30.454,30.454,0,0,0-53.091,0,1.34,1.34,0,1,1-2.336-1.314,33.133,33.133,0,0,1,57.762,0,1.34,1.34,0,0,1-1.167,2Z" transform="translate(-228.559 -242.866)" fill="#b19cfe"/>
            </g>
          </g>
        </g>
      </g>
      <g id="Grupo_1163564" data-name="Grupo 1163564" transform="translate(1691.39 7535.077)">
        <path id="Trazado_998158" data-name="Trazado 998158" d="M90.035,159.841a13.23,13.23,0,0,0-4-9.491c-4.023-4.479-15.054-7.7-28.043-7.7s-24.022,3.217-28.044,7.7a13.23,13.23,0,0,0-4,9.491v29.985a13.2,13.2,0,0,0,1.664,6.428c2.165,4.765,7.718,9.981,20.817,21.523a19.031,19.031,0,0,0,6.4,3.681,11.5,11.5,0,0,0,6.334,0,19.031,19.031,0,0,0,6.4-3.681c13.1-11.543,18.652-16.758,20.817-21.523a13.2,13.2,0,0,0,1.664-6.428V159.841Z" transform="translate(-25.941 -142.654)" fill="#b19cfe"/>
        <g id="Grupo_1163562" data-name="Grupo 1163562" transform="translate(3.326 3.476)">
          <path id="Trazado_998159" data-name="Trazado 998159" d="M57.416,215.995h-.3a9.625,9.625,0,0,1-2.767-.413,17.067,17.067,0,0,1-5.814-3.345c-11.711-10.318-16.542-14.678-18.475-18.93a12.106,12.106,0,0,1-1.507-5.855V160.989a12.056,12.056,0,0,1,3.664-8.69c3.708-4.13,13.785-6.917,25.056-6.917s21.349,2.788,25.076,6.938a12.03,12.03,0,0,1,3.645,8.669v26.463a12.156,12.156,0,0,1-1.523,5.885c-1.916,4.221-6.749,8.581-18.465,18.9a17.075,17.075,0,0,1-5.809,3.34A9.6,9.6,0,0,1,57.416,215.995Zm-.15-.878a8.741,8.741,0,0,0,2.674-.375,16.483,16.483,0,0,0,5.48-3.152c11.623-10.24,16.411-14.557,18.269-18.646a11.329,11.329,0,0,0,1.428-5.492V160.989a11.186,11.186,0,0,0-3.4-8.063c-3.591-4-13.405-6.668-24.444-6.668s-20.852,2.672-24.423,6.647a11.207,11.207,0,0,0-3.421,8.083v26.463a11.276,11.276,0,0,0,1.413,5.461c1.874,4.119,6.663,8.436,18.279,18.672a16.488,16.488,0,0,0,5.485,3.157A8.6,8.6,0,0,0,57.266,215.117Z" transform="translate(-28.551 -145.382)" fill="#09136e"/>
        </g>
        <g id="Grupo_1163563" data-name="Grupo 1163563" transform="translate(16.554 10.564)">
          <path id="Trazado_998160" data-name="Trazado 998160" d="M65.8,163.2a12.058,12.058,0,0,0-5.334-10.189A.12.12,0,0,0,60.44,153q-.466-.313-.961-.585c-.034-.019-.071-.034-.106-.052-.3-.162-.614-.315-.934-.451-.066-.029-.138-.051-.205-.079-.291-.117-.584-.229-.884-.325-.106-.033-.214-.057-.321-.088-.269-.076-.539-.152-.815-.21-.147-.031-.3-.05-.445-.075-.243-.042-.485-.085-.734-.112-.186-.02-.375-.025-.563-.037s-.366-.034-.553-.037c-.034,0-.068,0-.1,0s-.066-.005-.1-.005c-.185,0-.366.019-.549.028s-.381.011-.57.029c-.246.023-.487.062-.728.1-.152.024-.3.041-.454.07-.274.054-.543.124-.809.195-.111.029-.222.052-.331.085-.3.089-.594.2-.884.308-.07.027-.143.05-.213.078-.32.13-.631.278-.937.433-.036.019-.074.034-.111.054-.331.173-.652.363-.965.567l-.027.017a12.06,12.06,0,0,0-5.492,10.1c0,.034.009.068.01.1l-.082,5.22c0,.06-.093,6.088-.084,6.345a2.015,2.015,0,0,0,1.98,1.943h.1a2.015,2.015,0,0,0,1.943-2.05c0-.4.078-5.7.085-6.175l.087-5.511a8.05,8.05,0,0,1,5.023-7.325l.027-.01q.342-.138.7-.245c.043-.013.087-.022.13-.033.205-.057.414-.11.626-.15.08-.015.163-.024.245-.037.177-.029.355-.057.536-.074.117-.01.237-.013.355-.018.149-.008.3-.017.451-.015s.3.013.446.023c.12.008.241.011.359.024.18.019.355.05.531.082.083.014.167.025.25.042.209.045.414.1.617.159.045.013.09.023.135.037.237.075.469.159.7.255l.025.01a8.05,8.05,0,0,1,4.908,7.4v5.512c0,.47-.005,5.772-.013,6.175a2.015,2.015,0,0,0,1.911,2.079l.1,0a2.015,2.015,0,0,0,2.011-1.911c.013-.256.015-6.285.015-6.345v-5.22C65.785,163.267,65.8,163.236,65.8,163.2Z" transform="translate(-38.231 -150.945)" fill="#09136e"/>
          <path id="Trazado_998161" data-name="Trazado 998161" d="M64.1,164.424H44.757a5.823,5.823,0,0,0-5.824,5.824v15.987a5.824,5.824,0,0,0,5.824,5.824H64.1a5.825,5.825,0,0,0,5.824-5.824V170.248A5.824,5.824,0,0,0,64.1,164.424Z" transform="translate(-38.933 -147.25)" fill="#fff"/>
          <path id="Trazado_998162" data-name="Trazado 998162" d="M55.613,174.092a3.719,3.719,0,1,0-5.643,3.178v4.912a1.925,1.925,0,0,0,3.851,0V177.27A3.718,3.718,0,0,0,55.613,174.092Z" transform="translate(-36.399 -145.619)" fill="#09136e"/>
        </g>
      </g>
      <g id="Grupo_1163788" data-name="Grupo 1163788" transform="translate(1662.578 7555.299)">
        <g id="Grupo_1163686" data-name="Grupo 1163686" transform="translate(0 0)">
          <g id="Grupo_1163626" data-name="Grupo 1163626" transform="translate(84.583 81.242)">
            <path id="Trazado_998204" data-name="Trazado 998204" d="M375.154,273.163c2.919-8.562,4.922-17.368,4.179-26.206-.759-9.029.422-18.851,1.679-27.8.614-4.37.887-8.779,1.17-13.18a51.039,51.039,0,0,1,.474-6.613c.381-1.909,1.235-3.768,1.672-5.685-4.95,3.686-11.237,4.107-14.966,9.542a37.983,37.983,0,0,0-3.885,8.207c-4.363,11.536-8.627,23.115-12.5,34.825-5.191,15.688-7.82,32.068-11.1,48.263,3.266.677,7.59-.011,11,.1,4.192.133,8.385.254,12.576.455a1.307,1.307,0,0,0,1.565-1.122C369.654,287.265,372.722,280.3,375.154,273.163Z" transform="translate(-341.872 -193.676)" fill="#09136e"/>
          </g>
          <g id="Grupo_1163627" data-name="Grupo 1163627" transform="translate(130.474 54.826)">
            <path id="Trazado_998205" data-name="Trazado 998205" d="M415.9,209.04c1.478-.914,2.362-2.308,3.678-3.391.711-.585,2.394-1.246,1.885-2.125a1.806,1.806,0,0,0-.618-.571c-.787-.5-1.212-.344-1.776-1.237-.75-1.188-1.083-2.446-2.388-3.179-.956-.538-2.115-.592-3.1-1.078-2.425-1.2-2.509-5.274-2.638-7.609l-.929-16.906c-.963.84-1.44,1.534-2.756,1.576-1.207.038-2.471-.2-3.566.454-.748.449-1.3,1.212-2.139,1.526-2.051.771-4.67.58-6.833.637a97.19,97.19,0,0,0-11.9.618,1.252,1.252,0,0,0-.72.273c-.673.673-.343,2.691-.189,3.529a17.55,17.55,0,0,1,.271,3.666c-.08,4.235.606,8.994-1.209,13.033-.806,1.793-2.492,2.9-2.761,4.87a25,25,0,0,0,.082,8.452c.733,3.443,2.936,6.79,6.279,7.892,3.937,1.3,7.6-.646,11.153-2.065C402.5,214.694,409.644,212.9,415.9,209.04Z" transform="translate(-377.889 -172.944)" fill="#e89c77"/>
          </g>
          <g id="Grupo_1163628" data-name="Grupo 1163628" transform="translate(109.576 69.947)">
            <path id="Trazado_998206" data-name="Trazado 998206" d="M443.246,201.784a2.116,2.116,0,0,0-.437-2.065,4.713,4.713,0,0,0-1.851-1.044c-3.155-1.18-6.362-2.212-9.591-3.168q-2.471-.73-4.955-1.412c-1.247-.344-2.862-.52-3.882-1.384-.473-.4-.5-1.2-.906-1.709a26.754,26.754,0,0,0-2.116-2.1c-.464-.46-4.26-3.644-4.131-4.093-.872,3.03-3.852,5.78-6.2,7.746-1.627,1.361-3.345,2.611-4.969,3.977a28.4,28.4,0,0,1-4.5,3.01c-.492.282-6.617,4.014-6.914,3.573-2.787-4.136-7.209-9.791-6.212-15.043-2.319,2.625-5.236,4.6-7.721,7.053-.831.819-.624,1.712-1.149,2.649-.612,1.089-1.461,2.026-2.014,3.152-.822,1.677-.993,3.521-1.949,5.122-1.015,1.7-1.354,4-1.816,5.919-1.036,4.3-1.767,8.674-2.427,13.05-1.679,11.132-2.873,22.332-4.054,33.528q-1.009,9.577-2.007,19.157c-.67,6.432-2.029,13.226-1.952,19.668,4.429.64,8.538.539,12.957,1.65,5.191,1.306,10.527.191,15.8.167,3.823-.014,44.361-.017,44.473,1.565-.088-1.245-.169-2.492-.254-3.74.592-.005,1.185-.015,1.777-.018a2.456,2.456,0,0,1,.581.073c.033-1.942.1-3.884.185-5.826.108-2.43.248-4.858.387-7.283q.13-2.255.259-4.509,1.177-20.5,2.355-40.991l1.177-20.495c.192-2.866.339-5.734.579-8.6q.183-2.19.424-4.377C442.306,204.032,443,202.877,443.246,201.784Z" transform="translate(-361.488 -184.811)" fill="#09136e"/>
          </g>
          <g id="Grupo_1163629" data-name="Grupo 1163629" transform="translate(178.191 83.824)">
            <path id="Trazado_998207" data-name="Trazado 998207" d="M415.361,211.219c-.231-6.677,1.226-12.9,7.783-15.234a6.579,6.579,0,0,1,6.326,1.616c4.4,3.871,6.916,9.5,9.054,14.831,2.287,5.7,4.066,11.764,5.964,17.648a170.689,170.689,0,0,1,6.863,30.726c1.135,8.871,2.74,19.371-3.578,26.829a15.732,15.732,0,0,1-14.8,5.146,2.707,2.707,0,0,1-1.382-.592,3,3,0,0,1-.669-1.827c-.261-2.09-.517-4.181-.887-6.255a14.216,14.216,0,0,0-.631-3.006,19.39,19.39,0,0,0-1.2-1.907,40.683,40.683,0,0,1-4.164-10.611q-.336-1.338-.615-2.688a57.255,57.255,0,0,1-1.56-9.73,64.506,64.506,0,0,0-1.413-9.089q-1.712-9.875-2.938-19.827C417,223.021,415.558,216.952,415.361,211.219Z" transform="translate(-415.338 -195.702)" fill="#09136e"/>
          </g>
          <g id="Grupo_1163632" data-name="Grupo 1163632" transform="translate(92.569 156.357)">
            <path id="Trazado_998208" data-name="Trazado 998208" d="M352.21,273.688c0,3.419,7.631,2.44,17.043,2.44s17.044.977,17.044-2.44-7.631-9.937-17.044-9.937S352.21,270.271,352.21,273.688Z" transform="translate(-347.024 -249.579)" fill="#542fd0"/>
            <g id="Grupo_1163630" data-name="Grupo 1163630" transform="translate(0 9.151)">
              <path id="Trazado_998209" data-name="Trazado 998209" d="M348.252,274.386c-.566,1.354,1.119,1.8,2.379,1.786,3.724-.053,7.493-1.669,10.96-2.887,3.752-1.318,7.818-2.376,11.669-1.388,3.108.8,5.242,3.342,8.345,3.894a53.183,53.183,0,0,0,11.209.731,2.99,2.99,0,0,0,2.5-.939,2.435,2.435,0,0,0,.108-2.05c-1.288-4.163-1.526-8.516-3.082-12.652a1.668,1.668,0,0,0-.642-.939,1.693,1.693,0,0,0-.886-.126c-4.781.182-9.489.74-14.3.55a31.218,31.218,0,0,0-7.416.181c-3.794.764-7.385,3.584-10.559,5.738q-2.693,1.825-5.267,3.817c-1.384,1.07-3.815,2.418-4.783,3.857A2.459,2.459,0,0,0,348.252,274.386Z" transform="translate(-348.14 -259.811)" fill="#ffc19d"/>
            </g>
            <g id="Grupo_1163631" data-name="Grupo 1163631" transform="translate(42.085)">
              <path id="Trazado_998210" data-name="Trazado 998210" d="M381.169,260.725c2.341-.433,4.934-.542,7.148-.883q4.942-.761,9.881-1.554c6.584-1.05,13.165-2.113,19.76-3.1,6.108-.914,12.223-1.76,18.352-2.468a5.07,5.07,0,0,1,2.581.149,4.521,4.521,0,0,1,2,2.372c2.832,5.713,6.345,11.228,8.427,17.227a4.192,4.192,0,0,1,.306,2.426c-.483,1.8-2.871,2.383-4.846,2.626q-9.594,1.177-19.239,1.939-15.066,1.189-30.2,1.357-3.78.042-7.56.019a29.547,29.547,0,0,1-5.191,0C381.937,274.142,381.309,267.449,381.169,260.725Z" transform="translate(-381.169 -252.629)" fill="#09136e"/>
            </g>
          </g>
          <g id="Grupo_1163650" data-name="Grupo 1163650" transform="translate(107.692 77.931)">
            <g id="Grupo_1163649" data-name="Grupo 1163649">
              <g id="Grupo_1163634" data-name="Grupo 1163634" transform="translate(28.033 10.552)">
                <g id="Grupo_1163633" data-name="Grupo 1163633">
                  <path id="Trazado_998211" data-name="Trazado 998211" d="M387.086,199.814a694.249,694.249,0,0,0-5.076,75.279.478.478,0,0,0,.956,0,693.954,693.954,0,0,1,5.076-75.279c.071-.61-.884-.605-.956,0Z" transform="translate(-382.01 -199.358)" fill="#11112b"/>
                </g>
              </g>
              <g id="Grupo_1163636" data-name="Grupo 1163636" transform="translate(33.212)">
                <g id="Grupo_1163635" data-name="Grupo 1163635">
                  <path id="Trazado_998212" data-name="Trazado 998212" d="M386.419,202.973c3.7.743,6.539,4.972,7.989,8.174a.469.469,0,0,0,.413.237c.34,0,.693-.345.951-.524.731-.511,1.449-1.042,2.169-1.57q2.435-1.789,4.843-3.612c2.293-1.744,4.471-3.661,6.581-5.619,2.626-2.436,5.364-4.979,6.935-8.254.265-.552-.559-1.037-.826-.483-2.05,4.275-6.125,7.577-9.649,10.62-2.074,1.791-4.223,3.448-6.419,5.081-1.014.754-2.031,1.507-3.054,2.249-.4.288-.793.581-1.2.857-.111.075-.225.148-.333.227-.44.326.22-.168.217-.134.069-.649-1.073-1.983-1.435-2.514a19.37,19.37,0,0,0-1.888-2.352,10.029,10.029,0,0,0-5.038-3.308c-.6-.119-.86.8-.256.924Z" transform="translate(-386.075 -191.077)" fill="#11112b"/>
                </g>
              </g>
              <g id="Grupo_1163638" data-name="Grupo 1163638" transform="translate(18.479 4.753)">
                <g id="Grupo_1163637" data-name="Grupo 1163637">
                  <path id="Trazado_998213" data-name="Trazado 998213" d="M374.564,195.534a42.955,42.955,0,0,0,8.385,11.752.483.483,0,0,0,.75-.1,16.29,16.29,0,0,1,5.834-5.676.479.479,0,0,0-.483-.826,17.294,17.294,0,0,0-6.177,6.02l.75-.1a42.189,42.189,0,0,1-8.236-11.559c-.268-.553-1.092-.069-.824.483Z" transform="translate(-374.512 -194.807)" fill="#11112b"/>
                </g>
              </g>
              <g id="Grupo_1163640" data-name="Grupo 1163640" transform="translate(70.508 12.79)">
                <g id="Grupo_1163639" data-name="Grupo 1163639">
                  <path id="Trazado_998214" data-name="Trazado 998214" d="M416.229,201.46c-1.9,10.8-.4,21.712,1.3,32.436,1.758,11.088,3.3,22.257,5.9,33.187.143.6,1.064.345.921-.254-2.508-10.532-4-21.285-5.706-31.967-1.746-10.943-3.431-22.111-1.495-33.147.106-.6-.815-.86-.921-.255Z" transform="translate(-415.346 -201.115)" fill="#11112b"/>
                </g>
              </g>
              <g id="Grupo_1163642" data-name="Grupo 1163642" transform="translate(0 8.6)">
                <g id="Grupo_1163641" data-name="Grupo 1163641">
                  <path id="Trazado_998215" data-name="Trazado 998215" d="M374.9,198.077c-8.611,19.974-11.7,41.779-13.544,63.3-.525,6.135-.943,12.279-1.346,18.423-.041.614.915.612.956,0,1.4-21.4,2.946-43.036,8.68-63.8a134.448,134.448,0,0,1,6.079-17.439c.242-.558-.581-1.045-.824-.482Z" transform="translate(-360.009 -197.827)" fill="#11112b"/>
                </g>
              </g>
              <g id="Grupo_1163644" data-name="Grupo 1163644" transform="translate(26.483 78.153)">
                <g id="Grupo_1163643" data-name="Grupo 1163643">
                  <path id="Trazado_998216" data-name="Trazado 998216" d="M440.454,252.45c-5.085-.219-10.14.6-15.168,1.25q-7.2.931-14.4,1.9c-9.927,1.342-19.845,2.752-29.744,4.29a.478.478,0,0,0-.35.461q.013.759.027,1.516a.478.478,0,0,0,.956,0q-.013-.757-.027-1.516c-.117.154-.234.307-.35.461q14.543-2.259,29.133-4.207,7.525-1.019,15.057-1.989c4.93-.637,9.881-1.427,14.867-1.212.614.027.613-.929,0-.956Z" transform="translate(-380.794 -252.414)" fill="#11112b"/>
                </g>
              </g>
              <g id="Grupo_1163646" data-name="Grupo 1163646" transform="translate(42.335 32.004)">
                <g id="Grupo_1163645" data-name="Grupo 1163645">
                  <path id="Trazado_998217" data-name="Trazado 998217" d="M394.266,240.607q-.264-11.59.39-23.172l-.478.478a104.376,104.376,0,0,1,10.666-.744q2.557-.044,5.116.041,1.4.046,2.788.13a2.569,2.569,0,0,1,1.282.206c.376.029.5.233.37.613l.023.7q.344,10.617.3,21.24.176-.229.35-.461a80.178,80.178,0,0,1-21.076.44c-.61-.069-.605.887,0,.956a81.067,81.067,0,0,0,21.329-.474.48.48,0,0,0,.35-.461q.021-5.837-.07-11.673-.05-3.035-.129-6.069-.036-1.4-.08-2.8a8.671,8.671,0,0,0-.133-2.344c-.4-1.151-2.516-.836-3.449-.883q-2.9-.149-5.811-.131a103.98,103.98,0,0,0-11.828.757.493.493,0,0,0-.478.478q-.652,11.575-.39,23.172a.478.478,0,0,0,.956,0Z" transform="translate(-393.235 -216.195)" fill="#11112b"/>
                </g>
              </g>
              <g id="Grupo_1163648" data-name="Grupo 1163648" transform="translate(43.26 36.953)">
                <g id="Grupo_1163647" data-name="Grupo 1163647">
                  <path id="Trazado_998218" data-name="Trazado 998218" d="M394.421,221.542c6.623-.255,13.25-.317,19.874-.507a.478.478,0,0,0,0-.956c-6.624.189-13.253.252-19.874.507-.613.024-.615.98,0,.956Z" transform="translate(-393.961 -220.079)" fill="#11112b"/>
                </g>
              </g>
            </g>
          </g>
          <g id="Grupo_1163651" data-name="Grupo 1163651" transform="translate(0 81.712)">
            <path id="Trazado_998219" data-name="Trazado 998219" d="M292.514,276.7H401.843a2.668,2.668,0,0,0,2.668-2.668l-10.767-77.315a2.669,2.669,0,0,0-2.668-2.668H281.747a2.668,2.668,0,0,0-2.668,2.668l10.767,77.315A2.668,2.668,0,0,0,292.514,276.7Z" transform="translate(-274.505 -194.045)" fill="#9583ed"/>
            <path id="Trazado_998220" data-name="Trazado 998220" d="M288.924,276.7h109.33a2.668,2.668,0,0,0,2.668-2.668l-10.767-77.315a2.669,2.669,0,0,0-2.668-2.668H278.157a2.668,2.668,0,0,0-2.668,2.668l10.767,77.315A2.669,2.669,0,0,0,288.924,276.7Z" transform="translate(-275.489 -194.045)" fill="#b19cfe"/>
            <path id="Trazado_998221" data-name="Trazado 998221" d="M319.909,247.374h20.134V280.7H309.807Z" transform="translate(-266.08 -179.424)" fill="#9583ed"/>
            <path id="Trazado_998222" data-name="Trazado 998222" d="M308.958,275.115h33.4a1.83,1.83,0,0,0,1.83-1.83v-.15a1.83,1.83,0,0,0-1.83-1.83h-33.4a1.83,1.83,0,0,0-1.83,1.83v.15A1.83,1.83,0,0,0,308.958,275.115Z" transform="translate(-266.815 -172.863)" fill="#b19cfe"/>
          </g>
          <g id="Grupo_1163652" data-name="Grupo 1163652" transform="translate(31.654 182.264)">
            <path id="Trazado_998223" data-name="Trazado 998223" d="M500.875,276.36H302.032a1.7,1.7,0,1,1,0-3.4H500.875a1.7,1.7,0,1,1,0,3.4Z" transform="translate(-300.332 -272.961)" fill="#09136e"/>
          </g>
          <g id="Grupo_1163678" data-name="Grupo 1163678" transform="translate(115.553 0)">
            <g id="Grupo_1163653" data-name="Grupo 1163653" transform="translate(19.714 25.584)">
              <path id="Trazado_998224" data-name="Trazado 998224" d="M416.112,163.477a17.147,17.147,0,0,1-.847,8.863c-1.669,4.82-6.24,8.861-10.189,11.995-1.278,1.014-2.761,2.508-4.446,2.532a16.1,16.1,0,0,1-5.884-1.619,34.2,34.2,0,0,1-6.943-3.7c-4.151-2.988-7.237-6.734-5.79-12.089a31.186,31.186,0,0,1,3.163-6.8,40.3,40.3,0,0,1,4.458-7.056,16.182,16.182,0,0,1,10.415-5.541,14.178,14.178,0,0,1,11.112,3.69,19.25,19.25,0,0,1,4.951,9.719Z" transform="translate(-381.651 -149.994)" fill="#11112b"/>
            </g>
            <g id="Grupo_1163654" data-name="Grupo 1163654" transform="translate(8.329 9.68)">
              <path id="Trazado_998225" data-name="Trazado 998225" d="M407.91,142.411a31.457,31.457,0,0,0-14.263-4.694c-3.873-.406-7.923-.317-11.474,1.283a15.734,15.734,0,0,0-7.365,7.115c-2.6,5.024-2.063,10.66-2.014,16.111a39.859,39.859,0,0,0,.854,6.409q.059.331.115.66a129.751,129.751,0,0,0,3.644,17.413,20.781,20.781,0,0,0,6.663,9.4c4.344,3.667,9.759,6.455,15.319,3.529a22.521,22.521,0,0,0,6.175-5.332q2.649-3.012,5.016-6.257a12.64,12.64,0,0,0,2.615-4.719,37.35,37.35,0,0,0,.877-5.963c.3-3.835.25-7.8.724-11.557.612-4.835-.64-9.587-.493-14.408C414.417,147.629,410.9,144.406,407.91,142.411Z" transform="translate(-372.715 -137.512)" fill="#ffc19d"/>
            </g>
            <g id="Grupo_1163655" data-name="Grupo 1163655">
              <path id="Trazado_998226" data-name="Trazado 998226" d="M421.835,147.04a18.752,18.752,0,0,0-4.044-6.1,27.065,27.065,0,0,0-5.394-4.516,95.131,95.131,0,0,0-9.061-4.541,8.932,8.932,0,0,0-5.141-1.049,4.792,4.792,0,0,0-3.743,4.756,29.908,29.908,0,0,0-5.717-4.312,10.023,10.023,0,0,0-6.928-1.147,8.586,8.586,0,0,0-6.209,6.545,5.043,5.043,0,0,0,.961,3.986,8.529,8.529,0,0,0-7.407.781c-2.478,1.687-4.087,7.133-2.04,9.694,1.526,1.907,4.518,2.829,6.711,3.679,6.827,2.648,14.268,2.55,21.415,1.533l9.324-1.326c2.113-.3,3.266-.019,4.46,1.7a12.394,12.394,0,0,1,1.913,5.513c.325,2.513.234,5.072.685,7.566a5.113,5.113,0,0,0,.413,1.394,7.9,7.9,0,0,0,1.012,1.385,25.832,25.832,0,0,1,3.333,6.076c-.32-.734.582-2.56.587-3.4.005-.892-.223-1.71-.169-2.62.125-2.135.6-4.6,2.044-6.26,1.295-1.391,2.653-.38,3.928.632-.108-.085.827-3.175.894-3.526a26.958,26.958,0,0,0,.511-3.817,33.93,33.93,0,0,0-.767-6.939A27.077,27.077,0,0,0,421.835,147.04Z" transform="translate(-366.178 -129.915)" fill="#11112b"/>
            </g>
            <g id="Grupo_1163656" data-name="Grupo 1163656" transform="translate(22.207 41.575)">
              <path id="Trazado_998227" data-name="Trazado 998227" d="M389.289,172.926a6.61,6.61,0,0,0,1.3-.426,5.607,5.607,0,0,1-3.852-3.726c-.612-1.935.135-4.312.5-6.231q-1.2,2.118-2.236,4.326c-.553,1.181-1.621,2.686-1.363,4.048a2.9,2.9,0,0,0,2.332,2.09A8.243,8.243,0,0,0,389.289,172.926Z" transform="translate(-383.607 -162.544)" fill="#e89c77"/>
            </g>
            <g id="Grupo_1163659" data-name="Grupo 1163659" transform="translate(28.554 31.078)">
              <g id="Grupo_1163657" data-name="Grupo 1163657">
                <path id="Trazado_998228" data-name="Trazado 998228" d="M388.76,157.438c-.311-.338-.163-.838.152-1.311a3.846,3.846,0,0,1,2-1.385c2.548-.875,6.187-.487,7.97,1.645.257.307.429.793.136,1.069a.876.876,0,0,1-.515.189,7.289,7.289,0,0,1-1.869-.163,16.483,16.483,0,0,0-5.915.163,3,3,0,0,1-1.409.089A1.118,1.118,0,0,1,388.76,157.438Z" transform="translate(-388.588 -154.305)" fill="#0a0a16"/>
              </g>
              <g id="Grupo_1163658" data-name="Grupo 1163658" transform="translate(2.603 4.514)">
                <path id="Trazado_998229" data-name="Trazado 998229" d="M391.134,159.293a2.707,2.707,0,0,1,3.824-1.041,2.924,2.924,0,0,1,1.138,1.509,4.872,4.872,0,0,1-.488,4.328,2.671,2.671,0,0,1-2.062,1.372,2.568,2.568,0,0,1-1.939-1.067A4.884,4.884,0,0,1,391.134,159.293Z" transform="translate(-390.631 -157.848)" fill="#0a0a16"/>
              </g>
            </g>
            <g id="Grupo_1163662" data-name="Grupo 1163662" transform="translate(11.085 31.677)">
              <g id="Grupo_1163660" data-name="Grupo 1163660">
                <path id="Trazado_998230" data-name="Trazado 998230" d="M385.285,157.572c.285-.359.1-.849-.246-1.3a3.843,3.843,0,0,0-2.091-1.237c-2.6-.689-6.206-.037-7.83,2.218-.234.325-.371.821-.059,1.077a.874.874,0,0,0,.528.15,7.378,7.378,0,0,0,1.853-.3,16.5,16.5,0,0,1,5.911-.265,2.986,2.986,0,0,0,1.412-.013A1.138,1.138,0,0,0,385.285,157.572Z" transform="translate(-374.878 -154.776)" fill="#0a0a16"/>
              </g>
              <g id="Grupo_1163661" data-name="Grupo 1163661" transform="translate(2.604 4.552)">
                <path id="Trazado_998231" data-name="Trazado 998231" d="M382.025,159.623a2.706,2.706,0,0,0-3.889-.761,2.921,2.921,0,0,0-1.026,1.588,4.872,4.872,0,0,0,.8,4.281,2.673,2.673,0,0,0,2.156,1.219,2.563,2.563,0,0,0,1.856-1.2A4.886,4.886,0,0,0,382.025,159.623Z" transform="translate(-376.922 -158.349)" fill="#0a0a16"/>
              </g>
            </g>
            <g id="Grupo_1163664" data-name="Grupo 1163664" transform="translate(21.266 56.411)">
              <g id="Grupo_1163663" data-name="Grupo 1163663">
                <path id="Trazado_998232" data-name="Trazado 998232" d="M382.975,177.593c1.382,2.2,4.225,2.468,6.575,2.129a12.492,12.492,0,0,0,7.529-4.37c.563-.647-.38-1.6-.945-.945a11.4,11.4,0,0,1-6.471,3.95c-1.822.334-4.42.326-5.532-1.44-.457-.726-1.616-.055-1.154.677Z" transform="translate(-382.868 -174.187)" fill="#e89c77"/>
              </g>
            </g>
            <g id="Grupo_1163671" data-name="Grupo 1163671" transform="translate(48.764 34.648)">
              <g id="Grupo_1163665" data-name="Grupo 1163665">
                <path id="Trazado_998233" data-name="Trazado 998233" d="M412.02,158.136c.06.087.117.177.172.269a9.543,9.543,0,0,1,.711,7.052,17.48,17.48,0,0,1-3.262,6.243c-1.616,2.1-4.56,3.368-5.048-.144a27.838,27.838,0,0,1,.266-7.221c.435-3.326,1.681-6.8,4.853-7.2a2.361,2.361,0,0,1,1.656.313A2.6,2.6,0,0,1,412.02,158.136Z" transform="translate(-404.45 -157.108)" fill="#ffc19d"/>
              </g>
              <g id="Grupo_1163670" data-name="Grupo 1163670" transform="translate(2.339 3.754)">
                <g id="Grupo_1163667" data-name="Grupo 1163667" transform="translate(0.871)">
                  <g id="Grupo_1163666" data-name="Grupo 1163666">
                    <path id="Trazado_998234" data-name="Trazado 998234" d="M408.135,161.369c-.113.019-.019.006.066.079a.973.973,0,0,1,.208.289,2.762,2.762,0,0,1,.247.712,3.909,3.909,0,0,1-.014,1.622,10.281,10.281,0,0,1-1.566,3.317c-.461.73.7,1.4,1.156.675a9.952,9.952,0,0,0,1.823-4.513c.1-1.352-.464-3.779-2.276-3.47a.675.675,0,0,0-.468.823.685.685,0,0,0,.823.465Z" transform="translate(-406.969 -160.054)" fill="#e89c77"/>
                  </g>
                </g>
                <g id="Grupo_1163669" data-name="Grupo 1163669" transform="translate(0 3.344)">
                  <g id="Grupo_1163668" data-name="Grupo 1163668">
                    <path id="Trazado_998235" data-name="Trazado 998235" d="M409.785,163.334a1.963,1.963,0,0,0-1.586-.652,2.915,2.915,0,0,0-1.719.754.672.672,0,0,0,0,.945.687.687,0,0,0,.947,0l.06-.05c.055-.043.041-.033-.043.033a.857.857,0,0,0,.127-.09,2.5,2.5,0,0,1,.252-.147c.017-.009.034-.018.052-.025.065-.029.047-.022-.054.022a1.236,1.236,0,0,0,.145-.052,1.851,1.851,0,0,1,.3-.066l-.178.024a1.641,1.641,0,0,1,.387,0l-.177-.024a1.459,1.459,0,0,1,.222.047.436.436,0,0,1,.115.04l-.1-.041a.563.563,0,0,1,.062.031c.031.015.06.033.089.051l.057.038-.08-.062a.654.654,0,0,1,.169.171.669.669,0,0,0,1.142-.473.756.756,0,0,0-.2-.473Z" transform="translate(-406.285 -162.679)" fill="#e89c77"/>
                  </g>
                </g>
              </g>
            </g>
            <g id="Grupo_1163672" data-name="Grupo 1163672" transform="translate(5.092 21.995)">
              <path id="Trazado_998236" data-name="Trazado 998236" d="M375.186,147.482c-.642-.733-3.526.073-4.308.186a.832.832,0,0,0-.461.167.759.759,0,0,0-.185.449,22.163,22.163,0,0,0,.08,3.225c-.017,1.181-.094,2.357-.07,3.54a44.36,44.36,0,0,0,2.527,13.857q.589,1.667,1.312,3.282c.366.818,1.349,2.062,1.445,2.926-.989-8.954-1.972-18.069-.262-26.913A.833.833,0,0,0,375.186,147.482Z" transform="translate(-370.175 -147.177)" fill="#11112b"/>
            </g>
            <g id="Grupo_1163677" data-name="Grupo 1163677" transform="translate(5.264 32.3)">
              <g id="Grupo_1163673" data-name="Grupo 1163673" transform="translate(0 0.627)">
                <path id="Trazado_998237" data-name="Trazado 998237" d="M387.192,164.115a8.276,8.276,0,1,1-8.525-8.02A8.276,8.276,0,0,1,387.192,164.115Z" transform="translate(-370.218 -155.665)" fill="#fff" opacity="0.2"/>
                <path id="Trazado_998238" data-name="Trazado 998238" d="M379.276,173.154a8.7,8.7,0,1,1,8.431-8.962A8.71,8.71,0,0,1,379.276,173.154Zm-.506-16.544a7.851,7.851,0,1,0,8.087,7.607A7.86,7.86,0,0,0,378.771,156.611Z" transform="translate(-370.31 -155.757)"/>
              </g>
              <g id="Grupo_1163674" data-name="Grupo 1163674" transform="translate(20.546)">
                <path id="Trazado_998239" data-name="Trazado 998239" d="M403.317,163.621a8.276,8.276,0,1,1-8.525-8.02A8.276,8.276,0,0,1,403.317,163.621Z" transform="translate(-386.343 -155.173)" fill="#fff" opacity="0.2"/>
                <path id="Trazado_998240" data-name="Trazado 998240" d="M395.4,172.663a8.7,8.7,0,1,1,8.431-8.962A8.711,8.711,0,0,1,395.4,172.663Zm-.506-16.545a7.851,7.851,0,1,0,8.087,7.608A7.861,7.861,0,0,0,394.9,156.118Z" transform="translate(-386.435 -155.265)"/>
              </g>
              <g id="Grupo_1163675" data-name="Grupo 1163675" transform="translate(37.038 2.254)">
                <line id="Línea_1679" data-name="Línea 1679" y1="3.935" x2="11.358" transform="translate(0.425 0.425)" fill="#fff"/>
                <path id="Trazado_998241" data-name="Trazado 998241" d="M399.816,161.817a.425.425,0,0,1-.152-.827l11.358-3.935a.425.425,0,0,1,.278.8l-11.358,3.935A.438.438,0,0,1,399.816,161.817Z" transform="translate(-399.379 -157.034)"/>
              </g>
              <g id="Grupo_1163676" data-name="Grupo 1163676" transform="translate(16.513 6.858)">
                <path id="Trazado_998242" data-name="Trazado 998242" d="M383.708,162.3a.425.425,0,0,1-.269-.764,4.6,4.6,0,0,1,4.254-.627.425.425,0,0,1-.293.8,3.724,3.724,0,0,0-3.449.51A.435.435,0,0,1,383.708,162.3Z" transform="translate(-383.27 -160.647)"/>
              </g>
            </g>
          </g>
          <g id="Grupo_1163685" data-name="Grupo 1163685" transform="translate(123.064 6.412)" opacity="0.15">
            <g id="Grupo_1163680" data-name="Grupo 1163680" transform="translate(0 11.052)">
              <g id="Grupo_1163679" data-name="Grupo 1163679">
                <path id="Trazado_998243" data-name="Trazado 998243" d="M372.3,144.514c10.458,6.1,23.01,5.215,33.984,1.032.57-.217.322-1.14-.254-.921-10.739,4.093-23,5.043-33.248-.937a.479.479,0,0,0-.483.826Z" transform="translate(-372.073 -143.62)" fill="#fff"/>
              </g>
            </g>
            <g id="Grupo_1163682" data-name="Grupo 1163682" transform="translate(6.1)">
              <g id="Grupo_1163681" data-name="Grupo 1163681">
                <path id="Trazado_998244" data-name="Trazado 998244" d="M377.011,135.752a28.513,28.513,0,0,0,25.363,6.71c.6-.136.345-1.058-.254-.921a27.514,27.514,0,0,1-24.433-6.464c-.454-.415-1.132.259-.677.675Z" transform="translate(-376.861 -134.947)" fill="#fff"/>
              </g>
            </g>
            <g id="Grupo_1163684" data-name="Grupo 1163684" transform="translate(32.123 0.272)">
              <g id="Grupo_1163683" data-name="Grupo 1163683">
                <path id="Trazado_998245" data-name="Trazado 998245" d="M397.529,136.039A22.119,22.119,0,0,1,409.7,159.192c-.092.6.828.861.921.254a23.086,23.086,0,0,0-12.612-24.232c-.549-.269-1.035.556-.482.826Z" transform="translate(-397.285 -135.16)" fill="#fff"/>
              </g>
            </g>
          </g>
        </g>
      </g>
    </g>
  </g>
</svg>
