<svg xmlns="http://www.w3.org/2000/svg" xmlns:xlink="http://www.w3.org/1999/xlink" width="108" height="108" viewBox="0 0 108 108">
  <defs>
    <filter id="Trazado_982547" x="0" y="0" width="108" height="108" filterUnits="userSpaceOnUse">
      <feOffset dy="3" input="SourceAlpha"/>
      <feGaussianBlur stdDeviation="3" result="blur"/>
      <feFlood flood-opacity="0.161"/>
      <feComposite operator="in" in2="blur"/>
      <feComposite in="SourceGraphic"/>
    </filter>
  </defs>
  <g id="Grupo_1163799" data-name="Grupo 1163799" transform="translate(-196 -8237)">
    <g id="Grupo_1162268" data-name="Grupo 1162268" transform="translate(205 8243)">
      <g id="Grupo_1155782" data-name="Grupo 1155782">
        <g id="Grupo_1154033" data-name="Grupo 1154033">
          <g id="Grupo_1153177" data-name="Grupo 1153177">
            <g id="Grupo_1149598" data-name="Grupo 1149598">
              <g id="Grupo_1148770" data-name="Grupo 1148770">
                <g id="Grupo_1146954" data-name="Grupo 1146954">
                  <g transform="matrix(1, 0, 0, 1, -9, -6)" filter="url(#Trazado_982547)">
                    <g id="Trazado_982547-2" data-name="Trazado 982547" transform="translate(9 6)" fill="#ebfefd">
                      <path d="M 45.00000381469727 88.5 C 39.12688064575195 88.5 33.43022918701172 87.35007476806641 28.06830406188965 85.08217620849609 C 22.88852882385254 82.89131164550781 18.23630332946777 79.75458526611328 14.24085426330566 75.75914764404297 C 10.24541664123535 71.76370239257812 7.108691215515137 67.11147308349609 4.917829036712646 61.93170166015625 C 2.64992880821228 56.56977462768555 1.500003814697266 50.87312316894531 1.500003814697266 45 C 1.500003814697266 39.12687683105469 2.64992880821228 33.43022537231445 4.917829036712646 28.06830024719238 C 7.108691215515137 22.88852500915527 10.24541664123535 18.23629951477051 14.24085426330566 14.2408504486084 C 18.23630332946777 10.24541282653809 22.88852882385254 7.108687400817871 28.06830406188965 4.917825222015381 C 33.43022918701172 2.649924993515015 39.12688064575195 1.5 45.00000381469727 1.5 C 50.87312698364258 1.5 56.56977844238281 2.649924993515015 61.93170547485352 4.917825222015381 C 67.11148071289062 7.108687400817871 71.76370239257812 10.24541282653809 75.7591552734375 14.2408504486084 C 79.75459289550781 18.23629951477051 82.89131927490234 22.88852500915527 85.08217620849609 28.06830024719238 C 87.35008239746094 33.43022537231445 88.5 39.12687683105469 88.5 45 C 88.5 50.87312316894531 87.35008239746094 56.56977462768555 85.08217620849609 61.93170166015625 C 82.89131927490234 67.11147308349609 79.75459289550781 71.76370239257812 75.7591552734375 75.75914764404297 C 71.76370239257812 79.75458526611328 67.11148071289062 82.89131164550781 61.93170547485352 85.08217620849609 C 56.56977844238281 87.35007476806641 50.87312698364258 88.5 45.00000381469727 88.5 Z" stroke="none"/>
                      <path d="M 45.00000381469727 3 C 39.32871627807617 3 33.82865905761719 4.110054016113281 28.65263366699219 6.299339294433594 C 23.65166473388672 8.414573669433594 19.15969085693359 11.44334411621094 15.30152130126953 15.301513671875 C 11.44334411621094 19.15968322753906 8.414573669433594 23.65165710449219 6.299346923828125 28.65262985229492 C 4.110061645507812 33.82865524291992 3.000007629394531 39.32871246337891 3.000007629394531 45 C 3.000007629394531 50.67128753662109 4.110061645507812 56.17134475708008 6.299346923828125 61.34737396240234 C 8.414573669433594 66.34834289550781 11.44334411621094 70.84031677246094 15.30152130126953 74.698486328125 C 19.15969085693359 78.55665588378906 23.65166473388672 81.58542633056641 28.65263366699219 83.70066070556641 C 33.82865905761719 85.88994598388672 39.32871627807617 87 45.00000381469727 87 C 50.67129135131836 87 56.17134857177734 85.88994598388672 61.34737396240234 83.70066070556641 C 66.34834289550781 81.58542633056641 70.84031677246094 78.55665588378906 74.698486328125 74.698486328125 C 78.55666351318359 70.84031677246094 81.58543395996094 66.34834289550781 83.70066070556641 61.34737396240234 C 85.88994598388672 56.17134475708008 87 50.67128753662109 87 45 C 87 39.32871246337891 85.88994598388672 33.82865524291992 83.70066070556641 28.65262985229492 C 81.58543395996094 23.65165710449219 78.55666351318359 19.15968322753906 74.698486328125 15.301513671875 C 70.84031677246094 11.44334411621094 66.34834289550781 8.414573669433594 61.34737396240234 6.299339294433594 C 56.17134857177734 4.110054016113281 50.67129135131836 3 45.00000381469727 3 M 45.00000381469727 0 C 69.85281372070312 0 90 20.14718627929688 90 45 C 90 69.85281372070312 69.85281372070312 90 45.00000381469727 90 C 20.14718627929688 90 7.62939453125e-06 69.85281372070312 7.62939453125e-06 45 C 7.62939453125e-06 20.14718627929688 20.14718627929688 0 45.00000381469727 0 Z" stroke="none" fill="#63e1dd"/>
                    </g>
                  </g>
                </g>
              </g>
            </g>
          </g>
        </g>
      </g>
    </g>
    <g id="desarrollo-de-software" transform="translate(218.235 8255.942)">
      <path id="Trazado_998375" data-name="Trazado 998375" d="M5,55h8v7H5Z" fill="#577399"/>
      <path id="Trazado_998376" data-name="Trazado 998376" d="M35,46h8V62H35Z" fill="#759acc"/>
      <path id="Trazado_998377" data-name="Trazado 998377" d="M20,51h8V62H20Z" fill="#6786b3"/>
      <path id="Trazado_998378" data-name="Trazado 998378" d="M62,38,54,28,46,38h4V62h8V38Z" fill="#84ade6"/>
      <path id="Trazado_998379" data-name="Trazado 998379" d="M43.6,18.957H42.239a2.024,2.024,0,0,1-1.909-1.46,18.049,18.049,0,0,0-1.186-2.855,2.026,2.026,0,0,1,.318-2.386l.97-.97a21.115,21.115,0,0,0-5.717-5.717l-.97.97a2.025,2.025,0,0,1-2.386.318A18.043,18.043,0,0,0,28.5,5.671a2.024,2.024,0,0,1-1.46-1.909V2.4a20.746,20.746,0,0,0-8.085,0V3.761A2.024,2.024,0,0,1,17.5,5.671a18.043,18.043,0,0,0-2.855,1.186,2.025,2.025,0,0,1-2.386-.318l-.97-.97a21.115,21.115,0,0,0-5.717,5.717l.97.97a2.026,2.026,0,0,1,.318,2.386A18.05,18.05,0,0,0,5.671,17.5a2.024,2.024,0,0,1-1.909,1.46H2.4a20.745,20.745,0,0,0,0,8.086H3.761A2.024,2.024,0,0,1,5.671,28.5a18.05,18.05,0,0,0,1.186,2.855,2.026,2.026,0,0,1-.318,2.386l-.97.97a21.111,21.111,0,0,0,5.717,5.717l.97-.97a2.026,2.026,0,0,1,2.386-.318A18.046,18.046,0,0,0,17.5,40.329a2.024,2.024,0,0,1,1.46,1.91V43.6a20.746,20.746,0,0,0,8.085,0V42.239a2.024,2.024,0,0,1,1.46-1.91,18.046,18.046,0,0,0,2.855-1.186,2.026,2.026,0,0,1,2.386.318l.97.97a21.111,21.111,0,0,0,5.717-5.717l-.97-.97a2.026,2.026,0,0,1-.318-2.386A18.049,18.049,0,0,0,40.329,28.5a2.024,2.024,0,0,1,1.909-1.46H43.6a20.745,20.745,0,0,0,0-8.086ZM23,37A14,14,0,1,1,37,23,14,14,0,0,1,23,37Z" fill="#526273"/>
      <rect id="Rectángulo_412125" data-name="Rectángulo 412125" width="16" height="6" rx="2" transform="translate(15 14)" fill="#91adcc"/>
      <rect id="Rectángulo_412126" data-name="Rectángulo 412126" width="16" height="6" rx="2" transform="translate(15 20)" fill="#7f98b3"/>
      <rect id="Rectángulo_412127" data-name="Rectángulo 412127" width="16" height="6" rx="2" transform="translate(15 26)" fill="#6d8299"/>
      <path id="Trazado_998380" data-name="Trazado 998380" d="M22.765,38.057a15,15,0,1,0-15-15,15,15,0,0,0,15,15Zm0-28a13,13,0,1,1-13,13,13,13,0,0,1,13-13Z"/>
      <path id="Trazado_998381" data-name="Trazado 998381" d="M2.162,28.1H3.526a1.022,1.022,0,0,1,.956.763,19.119,19.119,0,0,0,1.252,3.013A1.024,1.024,0,0,1,5.6,33.094l-.97.97A1,1,0,0,0,4.5,35.329a21.993,21.993,0,0,0,5.988,5.988,1,1,0,0,0,1.266-.123l.971-.97a1.034,1.034,0,0,1,1.217-.137,19.117,19.117,0,0,0,3.014,1.251,1.022,1.022,0,0,1,.762.957v1.363a1,1,0,0,0,.809.981,21.732,21.732,0,0,0,8.469,0,1,1,0,0,0,.809-.981V42.3a1.022,1.022,0,0,1,.762-.957,19.073,19.073,0,0,0,3.014-1.252,1.033,1.033,0,0,1,1.218.138l.97.97a1,1,0,0,0,1.266.123,21.993,21.993,0,0,0,5.988-5.988,1,1,0,0,0-.122-1.266l-.97-.97a1.022,1.022,0,0,1-.137-1.218,19.193,19.193,0,0,0,1.251-3.013A1.022,1.022,0,0,1,42,28.1h1.364a1,1,0,0,0,.981-.809,21.752,21.752,0,0,0,0-8.468,1,1,0,0,0-.981-.809H42a1.022,1.022,0,0,1-.956-.762h0a19.118,19.118,0,0,0-1.252-3.013,1.024,1.024,0,0,1,.138-1.218l.97-.97a1,1,0,0,0,.122-1.266A22.007,22.007,0,0,0,35.036,4.8a1,1,0,0,0-1.266.123l-.971.97a1.033,1.033,0,0,1-1.217.137,19.118,19.118,0,0,0-3.014-1.251,1.022,1.022,0,0,1-.762-.957V2.455A1,1,0,0,0,27,1.474a21.833,21.833,0,0,0-8.469,0,1,1,0,0,0-.809.981V3.818a1.022,1.022,0,0,1-.762.957,19.074,19.074,0,0,0-3.014,1.252,1.035,1.035,0,0,1-1.218-.138l-.97-.97A1,1,0,0,0,10.493,4.8,22.007,22.007,0,0,0,4.5,10.785a1,1,0,0,0,.122,1.266l.97.97a1.022,1.022,0,0,1,.137,1.218,19.192,19.192,0,0,0-1.251,3.013,1.022,1.022,0,0,1-.956.762H2.162a1,1,0,0,0-.981.809,21.753,21.753,0,0,0,0,8.468,1,1,0,0,0,.981.809ZM3,20.014h.523a3.026,3.026,0,0,0,2.862-2.156,17.127,17.127,0,0,1,1.119-2.7,3.024,3.024,0,0,0-.5-3.555l-.375-.375a19.983,19.983,0,0,1,4.3-4.3l.374.375a3.025,3.025,0,0,0,3.555.5,17.042,17.042,0,0,1,2.7-1.121,3.026,3.026,0,0,0,2.156-2.863V3.295a19.689,19.689,0,0,1,6.086,0v.523a3.026,3.026,0,0,0,2.156,2.863,17.086,17.086,0,0,1,2.7,1.12,3.021,3.021,0,0,0,3.554-.5l.375-.375a19.983,19.983,0,0,1,4.3,4.3l-.375.375a3.026,3.026,0,0,0-.5,3.555,17.054,17.054,0,0,1,1.12,2.7A3.026,3.026,0,0,0,42,20.014h.523a19.549,19.549,0,0,1,0,6.086H42a3.026,3.026,0,0,0-2.862,2.156,17.127,17.127,0,0,1-1.119,2.7,3.024,3.024,0,0,0,.5,3.555l.375.375a19.978,19.978,0,0,1-4.3,4.3l-.375-.375a3.026,3.026,0,0,0-3.555-.5,17.044,17.044,0,0,1-2.7,1.121A3.026,3.026,0,0,0,25.808,42.3v.523a19.689,19.689,0,0,1-6.086,0V42.3a3.026,3.026,0,0,0-2.156-2.863,17.088,17.088,0,0,1-2.7-1.12,3.026,3.026,0,0,0-3.554.5l-.376.375a19.979,19.979,0,0,1-4.3-4.3l.375-.375a3.026,3.026,0,0,0,.5-3.555,17.052,17.052,0,0,1-1.12-2.7A3.026,3.026,0,0,0,3.526,26.1H3a19.549,19.549,0,0,1,0-6.086Z"/>
      <path id="Trazado_998382" data-name="Trazado 998382" d="M16.765,33.057h12a3,3,0,0,0,3-3v-2a2.977,2.977,0,0,0-.78-2,2.977,2.977,0,0,0,.78-2v-2a2.977,2.977,0,0,0-.78-2,2.977,2.977,0,0,0,.78-2v-2a3,3,0,0,0-3-3h-12a3,3,0,0,0-3,3v2a2.977,2.977,0,0,0,.78,2,2.977,2.977,0,0,0-.78,2v2a2.977,2.977,0,0,0,.78,2,2.977,2.977,0,0,0-.78,2v2a3,3,0,0,0,3,3Zm-1-17a1,1,0,0,1,1-1h12a1,1,0,0,1,1,1v2a1,1,0,0,1-1,1h-12a1,1,0,0,1-1-1Zm0,6a1,1,0,0,1,1-1h12a1,1,0,0,1,1,1v2a1,1,0,0,1-1,1h-12a1,1,0,0,1-1-1Zm0,6a1,1,0,0,1,1-1h12a1,1,0,0,1,1,1v2a1,1,0,0,1-1,1h-12a1,1,0,0,1-1-1Z"/>
      <path id="Trazado_998383" data-name="Trazado 998383" d="M16.765,16.057h2v2h-2Z"/>
      <path id="Trazado_998384" data-name="Trazado 998384" d="M21.765,16.057h7v2h-7Z"/>
      <path id="Trazado_998385" data-name="Trazado 998385" d="M16.765,22.057h2v2h-2Z"/>
      <path id="Trazado_998386" data-name="Trazado 998386" d="M21.765,22.057h7v2h-7Z"/>
      <path id="Trazado_998387" data-name="Trazado 998387" d="M16.765,28.057h2v2h-2Z"/>
      <path id="Trazado_998388" data-name="Trazado 998388" d="M21.765,28.057h7v2h-7Z"/>
      <path id="Trazado_998389" data-name="Trazado 998389" d="M4.765,54.057a1,1,0,0,0-1,1v7a1,1,0,0,0,1,1h8a1,1,0,0,0,1-1v-7a1,1,0,0,0-1-1Zm7,7h-6v-5h6Z"/>
      <path id="Trazado_998390" data-name="Trazado 998390" d="M34.765,45.057a1,1,0,0,0-1,1v16a1,1,0,0,0,1,1h8a1,1,0,0,0,1-1v-16a1,1,0,0,0-1-1Zm7,16h-6v-14h6Z"/>
      <path id="Trazado_998391" data-name="Trazado 998391" d="M27.765,50.057h-8a1,1,0,0,0-1,1v11a1,1,0,0,0,1,1h8a1,1,0,0,0,1-1v-11A1,1,0,0,0,27.765,50.057Zm-1,11h-6v-9h6Z"/>
      <path id="Trazado_998392" data-name="Trazado 998392" d="M49.765,63.057h8a1,1,0,0,0,1-1v-23h3a1,1,0,0,0,.781-1.625l-8-10a1.035,1.035,0,0,0-1.562,0l-8,10a1,1,0,0,0,.781,1.625h3v23a1,1,0,0,0,1,1Zm-1.919-26,5.919-7.4,5.919,7.4H57.765a1,1,0,0,0-1,1v23h-6v-23a1,1,0,0,0-1-1Z"/>
    </g>
  </g>
</svg>
