<svg xmlns="http://www.w3.org/2000/svg" xmlns:xlink="http://www.w3.org/1999/xlink" width="113" height="113" viewBox="0 0 113 113">
  <defs>
    <filter id="Trazado_982547" x="0" y="0" width="113" height="113" filterUnits="userSpaceOnUse">
      <feOffset dy="3" input="SourceAlpha"/>
      <feGaussianBlur stdDeviation="3" result="blur"/>
      <feFlood flood-opacity="0.161"/>
      <feComposite operator="in" in2="blur"/>
      <feComposite in="SourceGraphic"/>
    </filter>
  </defs>
  <g id="Grupo_1163791" data-name="Grupo 1163791" transform="translate(-324.999 -8493.467)">
    <g id="Grupo_1162269" data-name="Grupo 1162269" transform="translate(0 4286.467)">
      <g id="Grupo_1158168" data-name="Grupo 1158168" transform="translate(-1 -1314)">
        <g id="Grupo_1152576" data-name="Grupo 1152576" transform="translate(-0.454 1205.621)">
          <g id="Grupo_1148633" data-name="Grupo 1148633" transform="translate(71.408 600.047)">
            <g id="Grupo_1148525" data-name="Grupo 1148525" transform="translate(264.046 3721.333)">
              <g transform="matrix(1, 0, 0, 1, -9, -6)" filter="url(#Trazado_982547)">
                <g id="Trazado_982547-2" data-name="Trazado 982547" transform="translate(9 6)" fill="#f0ebfe">
                  <path d="M 47.5 93.5 C 41.28937149047852 93.5 35.26533508300781 92.28397369384766 29.59518623352051 89.88570404052734 C 24.11771965026855 87.56893157958984 19.19813346862793 84.25196075439453 14.97309303283691 80.02691650390625 C 10.74804019927979 75.80186462402344 7.431066513061523 70.88229370117188 5.114293098449707 65.40481567382812 C 2.716026782989502 59.73468017578125 1.5 53.71062850952148 1.5 47.5 C 1.5 41.28937149047852 2.716026782989502 35.26533508300781 5.114293098449707 29.59518623352051 C 7.431066513061523 24.11771965026855 10.74804019927979 19.19813346862793 14.97309303283691 14.97309303283691 C 19.19813346862793 10.74804019927979 24.11771965026855 7.431066513061523 29.59518623352051 5.114293098449707 C 35.26533508300781 2.716026782989502 41.28937149047852 1.5 47.5 1.5 C 53.71062850952148 1.5 59.73468017578125 2.716026782989502 65.40481567382812 5.114293098449707 C 70.88229370117188 7.431066513061523 75.80186462402344 10.74804019927979 80.02691650390625 14.97309303283691 C 84.25196075439453 19.19813346862793 87.56893157958984 24.11771965026855 89.88570404052734 29.59518623352051 C 92.28397369384766 35.26533508300781 93.5 41.28937149047852 93.5 47.5 C 93.5 53.71062850952148 92.28397369384766 59.73468017578125 89.88570404052734 65.40481567382812 C 87.56893157958984 70.88229370117188 84.25196075439453 75.80186462402344 80.02691650390625 80.02691650390625 C 75.80186462402344 84.25196075439453 70.88229370117188 87.56893157958984 65.40481567382812 89.88570404052734 C 59.73468017578125 92.28397369384766 53.71062850952148 93.5 47.5 93.5 Z" stroke="none"/>
                  <path d="M 47.5 3 C 41.49121475219727 3 35.66376876831055 4.176155090332031 30.17950439453125 6.495796203613281 C 24.88084411621094 8.736953735351562 20.12152099609375 11.94598388671875 16.03375244140625 16.03375244140625 C 11.94598388671875 20.12152099609375 8.736953735351562 24.88084411621094 6.495796203613281 30.17950439453125 C 4.176155090332031 35.66376876831055 3 41.49121475219727 3 47.5 C 3 53.50878524780273 4.176155090332031 59.33623123168945 6.495796203613281 64.82049560546875 C 8.736953735351562 70.11915588378906 11.94598388671875 74.87847900390625 16.03375244140625 78.96624755859375 C 20.12152099609375 83.05401611328125 24.88084411621094 86.26304626464844 30.17950439453125 88.50419616699219 C 35.66376876831055 90.82384490966797 41.49121475219727 92 47.5 92 C 53.50878524780273 92 59.33623123168945 90.82384490966797 64.82049560546875 88.50419616699219 C 70.11915588378906 86.26304626464844 74.87847900390625 83.05401611328125 78.96624755859375 78.96624755859375 C 83.05401611328125 74.87847900390625 86.26304626464844 70.11915588378906 88.50419616699219 64.82049560546875 C 90.82384490966797 59.33623123168945 92 53.50878524780273 92 47.5 C 92 41.49121475219727 90.82384490966797 35.66376876831055 88.50419616699219 30.17950439453125 C 86.26304626464844 24.88084411621094 83.05401611328125 20.12152099609375 78.96624755859375 16.03375244140625 C 74.87847900390625 11.94598388671875 70.11915588378906 8.736953735351562 64.82049560546875 6.495796203613281 C 59.33623123168945 4.176155090332031 53.50878524780273 3 47.5 3 M 47.5 0 C 73.7335205078125 0 95 21.2664794921875 95 47.5 C 95 73.7335205078125 73.7335205078125 95 47.5 95 C 21.2664794921875 95 0 73.7335205078125 0 47.5 C 0 21.2664794921875 21.2664794921875 0 47.5 0 Z" stroke="none" fill="#7145fe"/>
                </g>
              </g>
            </g>
          </g>
        </g>
      </g>
    </g>
    <g id="codificacion" transform="translate(348 8514)">
      <g id="Flat">
        <path id="Trazado_998290" data-name="Trazado 998290" d="M9,21H61V55a4,4,0,0,1-4,4H13a4,4,0,0,1-4-4Z" fill="#f2f2f2"/>
        <path id="Trazado_998291" data-name="Trazado 998291" d="M55,13h2a4,4,0,0,1,4,4v4H55" fill="#2a86c5"/>
        <path id="Trazado_998292" data-name="Trazado 998292" d="M55,13h1v8H55Z" fill="#1979af"/>
        <path id="Trazado_998293" data-name="Trazado 998293" d="M56,21V50.67A4.332,4.332,0,0,1,51.67,55H9V54H51a4,4,0,0,0,4-4V21Z" fill="#dedfe0"/>
        <path id="Trazado_998294" data-name="Trazado 998294" d="M55,14V50a4,4,0,0,1-4,4H7a4,4,0,0,1-4-4V14Z" fill="#f2f2f2"/>
        <path id="Trazado_998295" data-name="Trazado 998295" d="M7,6H51a4,4,0,0,1,4,4v4H3V10A4,4,0,0,1,7,6Z" fill="#2a86c5"/>
        <path id="Trazado_998296" data-name="Trazado 998296" d="M43.02,11a1,1,0,0,1-.01-2h.01a1,1,0,0,1,0,2Z" fill="#136c9e"/>
        <path id="Trazado_998297" data-name="Trazado 998297" d="M47.02,11a1,1,0,0,1-.01-2h.01a1,1,0,0,1,0,2Z" fill="#136c9e"/>
        <path id="Trazado_998298" data-name="Trazado 998298" d="M51.02,11a1,1,0,0,1-.01-2h.01a1,1,0,0,1,0,2Z" fill="#136c9e"/>
        <path id="Trazado_998299" data-name="Trazado 998299" d="M31,30A12,12,0,0,1,19,42a4.18,4.18,0,0,1-.5-.02,11.99,11.99,0,0,1,0-23.96A4.18,4.18,0,0,1,19,18,12,12,0,0,1,31,30Z" fill="#f19332"/>
        <path id="Trazado_998300" data-name="Trazado 998300" d="M30,30A11.98,11.98,0,0,1,18.5,41.98a11.99,11.99,0,0,1,0-23.96A11.98,11.98,0,0,1,30,30Z" fill="#f79e4d"/>
        <path id="Trazado_998301" data-name="Trazado 998301" d="M18,38a1,1,0,0,1-.992-1.141l2-14a1,1,0,0,1,1.981.283l-2,14A1,1,0,0,1,18,38Z" fill="#e27b1e"/>
        <path id="Trazado_998302" data-name="Trazado 998302" d="M15,35a1,1,0,0,1-.707-.293l-4-4a1,1,0,0,1,0-1.414l4-4a1,1,0,0,1,1.414,1.414L12.414,30l3.293,3.293A1,1,0,0,1,15,35Z" fill="#e27b1e"/>
        <path id="Trazado_998303" data-name="Trazado 998303" d="M23,35a1,1,0,0,1-.707-1.707L25.586,30l-3.293-3.293a1,1,0,0,1,1.414-1.414l4,4a1,1,0,0,1,0,1.414l-4,4A1,1,0,0,1,23,35Z" fill="#e27b1e"/>
        <g id="Grupo_1163790" data-name="Grupo 1163790">
          <path id="Trazado_998304" data-name="Trazado 998304" d="M43,20H35a1,1,0,0,1,0-2h8a1,1,0,0,1,0,2Z" fill="#d3d2d1"/>
          <path id="Trazado_998305" data-name="Trazado 998305" d="M51,20H47a1,1,0,0,1,0-2h4a1,1,0,0,1,0,2Z" fill="#d3d2d1"/>
          <path id="Trazado_998306" data-name="Trazado 998306" d="M41,24H35a1,1,0,0,1,0-2h6a1,1,0,0,1,0,2Z" fill="#d3d2d1"/>
          <path id="Trazado_998307" data-name="Trazado 998307" d="M51,28H35a1,1,0,0,1,0-2H51a1,1,0,0,1,0,2Z" fill="#d3d2d1"/>
          <path id="Trazado_998308" data-name="Trazado 998308" d="M51,24H45a1,1,0,0,1,0-2h6a1,1,0,0,1,0,2Z" fill="#d3d2d1"/>
          <path id="Trazado_998309" data-name="Trazado 998309" d="M43,34H35a1,1,0,0,1,0-2h8a1,1,0,0,1,0,2Z" fill="#d3d2d1"/>
          <path id="Trazado_998310" data-name="Trazado 998310" d="M51,34H47a1,1,0,0,1,0-2h4a1,1,0,0,1,0,2Z" fill="#d3d2d1"/>
          <path id="Trazado_998311" data-name="Trazado 998311" d="M41,38H35a1,1,0,0,1,0-2h6a1,1,0,0,1,0,2Z" fill="#d3d2d1"/>
          <path id="Trazado_998312" data-name="Trazado 998312" d="M51,42H35a1,1,0,0,1,0-2H51a1,1,0,0,1,0,2Z" fill="#d3d2d1"/>
          <path id="Trazado_998313" data-name="Trazado 998313" d="M23,47H7a1,1,0,0,1,0-2H23a1,1,0,0,1,0,2Z" fill="#d3d2d1"/>
          <path id="Trazado_998314" data-name="Trazado 998314" d="M34,47H27a1,1,0,0,1,0-2h7a1,1,0,0,1,0,2Z" fill="#d3d2d1"/>
          <path id="Trazado_998315" data-name="Trazado 998315" d="M51,47H38a1,1,0,0,1,0-2H51a1,1,0,0,1,0,2Z" fill="#d3d2d1"/>
          <path id="Trazado_998316" data-name="Trazado 998316" d="M19,51H7a1,1,0,0,1,0-2H19a1,1,0,0,1,0,2Z" fill="#d3d2d1"/>
          <path id="Trazado_998317" data-name="Trazado 998317" d="M32,51H23a1,1,0,0,1,0-2h9a1,1,0,0,1,0,2Z" fill="#d3d2d1"/>
          <path id="Trazado_998318" data-name="Trazado 998318" d="M51,51H36a1,1,0,0,1,0-2H51a1,1,0,0,1,0,2Z" fill="#d3d2d1"/>
          <path id="Trazado_998319" data-name="Trazado 998319" d="M51,38H45a1,1,0,0,1,0-2h6a1,1,0,0,1,0,2Z" fill="#d3d2d1"/>
        </g>
      </g>
      <g id="Outline">
        <path id="Trazado_998320" data-name="Trazado 998320" d="M57,12H56V10a5.006,5.006,0,0,0-5-5H7a5.006,5.006,0,0,0-5,5V50a5.006,5.006,0,0,0,5,5H8a5.006,5.006,0,0,0,5,5H57a5.006,5.006,0,0,0,5-5V17A5.006,5.006,0,0,0,57,12Zm0,2a3,3,0,0,1,3,3v3H56V14ZM4,10A3,3,0,0,1,7,7H51a3,3,0,0,1,3,3v3H4ZM7,53a3,3,0,0,1-3-3V15H54V50a3,3,0,0,1-3,3Zm53,2a3,3,0,0,1-3,3H13a3,3,0,0,1-3-3H51a5.006,5.006,0,0,0,5-5V22h4Z"/>
        <path id="Trazado_998321" data-name="Trazado 998321" d="M43.02,9h-.01a1.005,1.005,0,1,0,.01,0Z"/>
        <path id="Trazado_998322" data-name="Trazado 998322" d="M47.02,9h-.01a1.005,1.005,0,1,0,.01,0Z"/>
        <path id="Trazado_998323" data-name="Trazado 998323" d="M51.02,9h-.01a1.005,1.005,0,1,0,.01,0Z"/>
        <path id="Trazado_998324" data-name="Trazado 998324" d="M19,43A13,13,0,1,0,6,30,13.015,13.015,0,0,0,19,43Zm0-24A11,11,0,1,1,8,30,11.013,11.013,0,0,1,19,19Z"/>
        <path id="Trazado_998325" data-name="Trazado 998325" d="M17.858,37.99a1,1,0,0,0,1.132-.848l2-14a1,1,0,0,0-1.981-.283l-2,14a1,1,0,0,0,.849,1.131Z"/>
        <path id="Trazado_998326" data-name="Trazado 998326" d="M15,35a1,1,0,0,0,.707-1.707L12.414,30l3.293-3.293a1,1,0,0,0-1.414-1.414l-4,4a1,1,0,0,0,0,1.414l4,4A1,1,0,0,0,15,35Z"/>
        <path id="Trazado_998327" data-name="Trazado 998327" d="M22.293,34.707a1,1,0,0,0,1.414,0l4-4a1,1,0,0,0,0-1.414l-4-4a1,1,0,0,0-1.414,1.414L25.586,30l-3.293,3.293a1,1,0,0,0,0,1.414Z"/>
        <path id="Trazado_998328" data-name="Trazado 998328" d="M35,20h8a1,1,0,0,0,0-2H35a1,1,0,0,0,0,2Z"/>
        <path id="Trazado_998329" data-name="Trazado 998329" d="M47,20h4a1,1,0,0,0,0-2H47a1,1,0,0,0,0,2Z"/>
        <path id="Trazado_998330" data-name="Trazado 998330" d="M35,24h6a1,1,0,0,0,0-2H35a1,1,0,0,0,0,2Z"/>
        <path id="Trazado_998331" data-name="Trazado 998331" d="M35,28H51a1,1,0,0,0,0-2H35a1,1,0,0,0,0,2Z"/>
        <path id="Trazado_998332" data-name="Trazado 998332" d="M45,24h6a1,1,0,0,0,0-2H45a1,1,0,0,0,0,2Z"/>
        <path id="Trazado_998333" data-name="Trazado 998333" d="M35,34h8a1,1,0,0,0,0-2H35a1,1,0,0,0,0,2Z"/>
        <path id="Trazado_998334" data-name="Trazado 998334" d="M51,32H47a1,1,0,0,0,0,2h4a1,1,0,0,0,0-2Z"/>
        <path id="Trazado_998335" data-name="Trazado 998335" d="M35,38h6a1,1,0,0,0,0-2H35a1,1,0,0,0,0,2Z"/>
        <path id="Trazado_998336" data-name="Trazado 998336" d="M35,42H51a1,1,0,0,0,0-2H35a1,1,0,0,0,0,2Z"/>
        <path id="Trazado_998337" data-name="Trazado 998337" d="M7,47H23a1,1,0,0,0,0-2H7a1,1,0,0,0,0,2Z"/>
        <path id="Trazado_998338" data-name="Trazado 998338" d="M26,46a1,1,0,0,0,1,1h7a1,1,0,0,0,0-2H27A1,1,0,0,0,26,46Z"/>
        <path id="Trazado_998339" data-name="Trazado 998339" d="M51,45H38a1,1,0,0,0,0,2H51a1,1,0,0,0,0-2Z"/>
        <path id="Trazado_998340" data-name="Trazado 998340" d="M20,50a1,1,0,0,0-1-1H7a1,1,0,0,0,0,2H19A1,1,0,0,0,20,50Z"/>
        <path id="Trazado_998341" data-name="Trazado 998341" d="M32,49H23a1,1,0,0,0,0,2h9a1,1,0,0,0,0-2Z"/>
        <path id="Trazado_998342" data-name="Trazado 998342" d="M51,49H36a1,1,0,0,0,0,2H51a1,1,0,0,0,0-2Z"/>
        <path id="Trazado_998343" data-name="Trazado 998343" d="M51,36H45a1,1,0,0,0,0,2h6a1,1,0,0,0,0-2Z"/>
      </g>
    </g>
  </g>
</svg>
