<svg xmlns="http://www.w3.org/2000/svg" xmlns:xlink="http://www.w3.org/1999/xlink" width="110" height="110" viewBox="0 0 110 110">
  <defs>
    <filter id="Trazado_982547" x="0" y="0" width="110" height="110" filterUnits="userSpaceOnUse">
      <feOffset dy="3" input="SourceAlpha"/>
      <feGaussianBlur stdDeviation="3" result="blur"/>
      <feFlood flood-opacity="0.161"/>
      <feComposite operator="in" in2="blur"/>
      <feComposite in="SourceGraphic"/>
    </filter>
    <linearGradient id="linear-gradient" x1="0.5" y1="1" x2="0.5" gradientUnits="objectBoundingBox">
      <stop offset="0" stop-color="#474f72"/>
      <stop offset="1" stop-color="#878c9f"/>
    </linearGradient>
    <linearGradient id="linear-gradient-2" x1="0.5" y1="1" x2="0.5" gradientUnits="objectBoundingBox">
      <stop offset="0" stop-color="#9dd5df"/>
      <stop offset="1" stop-color="#c3e1f5"/>
    </linearGradient>
    <linearGradient id="linear-gradient-3" x1="0.5" y1="1" x2="0.5" gradientUnits="objectBoundingBox">
      <stop offset="0" stop-color="#fbcc88"/>
      <stop offset="1" stop-color="#ffe5c3"/>
    </linearGradient>
    <linearGradient id="linear-gradient-4" x1="0.5" y1="1" x2="0.5" y2="0.001" gradientUnits="objectBoundingBox">
      <stop offset="0" stop-color="#7aa8d7"/>
      <stop offset="1" stop-color="#c3d2e7"/>
    </linearGradient>
    <linearGradient id="linear-gradient-5" x1="0.502" y1="0.998" x2="0.502" y2="0.015" xlink:href="#linear-gradient-4"/>
    <linearGradient id="linear-gradient-6" x1="0.5" y1="1" x2="0.5" gradientUnits="objectBoundingBox">
      <stop offset="0" stop-color="#d4d8e1"/>
      <stop offset="1" stop-color="#f3f4f5"/>
    </linearGradient>
  </defs>
  <g id="Grupo_1163798" data-name="Grupo 1163798" transform="translate(-800 -10624)">
    <g id="Grupo_1162274" data-name="Grupo 1162274" transform="translate(0 6286)">
      <g id="Grupo_1157015" data-name="Grupo 1157015" transform="translate(0 3549)">
        <g id="Grupo_1155792" data-name="Grupo 1155792" transform="translate(-1 -3894.666)">
          <g id="Grupo_1154703" data-name="Grupo 1154703" transform="translate(0 1465.666)">
            <g id="Grupo_1150789" data-name="Grupo 1150789" transform="translate(3 2320)">
              <g id="Grupo_1154212" data-name="Grupo 1154212" transform="translate(-236 -5809)">
                <g id="Grupo_1152583" data-name="Grupo 1152583" transform="translate(1043 6713)">
                  <g id="Grupo_1146973" data-name="Grupo 1146973" transform="translate(0 0)">
                    <g id="Grupo_1146954" data-name="Grupo 1146954">
                      <g transform="matrix(1, 0, 0, 1, -9, -6)" filter="url(#Trazado_982547)">
                        <g id="Trazado_982547-2" data-name="Trazado 982547" transform="translate(9 6)" fill="#f0ebfe">
                          <path d="M 46 90.49987030029297 C 39.99187850952148 90.49987030029297 34.16426849365234 89.32350921630859 28.67905426025391 87.00345611572266 C 23.38019943237305 84.76224517822266 18.62104034423828 81.55341339111328 14.53374671936035 77.46613311767578 C 10.44646644592285 73.37885284423828 7.237639904022217 68.61969757080078 4.996413230895996 63.32085418701172 C 2.676359891891479 57.83565521240234 1.5 52.008056640625 1.5 45.99993515014648 C 1.5 39.99181365966797 2.676359891891479 34.16421508789062 4.996413230895996 28.67901420593262 C 7.237639904022217 23.38017463684082 10.44646644592285 18.62101554870605 14.53374671936035 14.53373527526855 C 18.62104034423828 10.44645500183105 23.38019943237305 7.23762845993042 28.67905426025391 4.996415138244629 C 34.16426849365234 2.676361799240112 39.99187850952148 1.500001788139343 46 1.500001788139343 C 52.00812149047852 1.500001788139343 57.83573150634766 2.676361799240112 63.32094573974609 4.996415138244629 C 68.61979675292969 7.23762845993042 73.37895965576172 10.44645500183105 77.46625518798828 14.53373527526855 C 81.55353546142578 18.62101554870605 84.76235961914062 23.38017463684082 87.00358581542969 28.67901420593262 C 89.32363891601562 34.16421508789062 90.5 39.99181365966797 90.5 45.99993515014648 C 90.5 52.008056640625 89.32363891601562 57.83565521240234 87.00358581542969 63.32085418701172 C 84.76235961914062 68.61969757080078 81.55353546142578 73.37885284423828 77.46625518798828 77.46613311767578 C 73.37895965576172 81.55341339111328 68.61979675292969 84.76224517822266 63.32094573974609 87.00345611572266 C 57.83573150634766 89.32350921630859 52.00812149047852 90.49987030029297 46 90.49987030029297 Z" stroke="none"/>
                          <path d="M 46 2.999992370605469 C 40.1937141418457 2.999992370605469 34.56269836425781 4.136489868164062 29.26337051391602 6.377906799316406 C 24.14332580566406 8.543502807617188 19.54441070556641 11.64437866210938 15.59439849853516 15.59437561035156 C 11.64440155029297 19.54439544677734 8.54351806640625 24.14329528808594 6.377914428710938 29.26333618164062 C 4.136497497558594 34.56264877319336 3 40.19366455078125 3 45.99993515014648 C 3 51.80620574951172 4.136497497558594 57.43720626831055 6.377914428710938 62.73651885986328 C 8.54351806640625 67.8565673828125 11.64440155029297 72.45545959472656 15.59439849853516 76.40547943115234 C 19.54441070556641 80.35547637939453 24.14332580566406 83.45635223388672 29.26337051391602 85.6219482421875 C 34.56269836425781 87.86336517333984 40.1937141418457 88.99986267089844 46 88.99986267089844 C 51.8062858581543 88.99986267089844 57.43730163574219 87.86336517333984 62.73661422729492 85.6219482421875 C 67.85667419433594 83.45635223388672 72.45557403564453 80.35547637939453 76.40558624267578 76.40547943115234 C 80.35559844970703 72.45545959472656 83.45647430419922 67.8565673828125 85.6220703125 62.73651885986328 C 87.86350250244141 57.43720626831055 89 51.80620574951172 89 45.99993515014648 C 89 40.19366455078125 87.86350250244141 34.56264877319336 85.6220703125 29.26333618164062 C 83.45647430419922 24.14329528808594 80.35559844970703 19.54439544677734 76.40558624267578 15.59437561035156 C 72.45557403564453 11.64437866210938 67.85667419433594 8.543502807617188 62.73661422729492 6.377906799316406 C 57.43730163574219 4.136489868164062 51.8062858581543 2.999992370605469 46 2.999992370605469 M 46 -7.62939453125e-06 C 71.40509033203125 -7.62939453125e-06 92 20.59486389160156 92 45.99993515014648 C 92 71.40499114990234 71.40509033203125 91.99986267089844 46 91.99986267089844 C 20.59490203857422 91.99986267089844 0 71.40499114990234 0 45.99993515014648 C 0 20.59486389160156 20.59490203857422 -7.62939453125e-06 46 -7.62939453125e-06 Z" stroke="none" fill="#7145fe"/>
                        </g>
                      </g>
                    </g>
                  </g>
                </g>
              </g>
            </g>
          </g>
        </g>
      </g>
    </g>
    <g id="User_Experience" data-name="User Experience" transform="translate(823 10644)">
      <rect id="Rectángulo_412124" data-name="Rectángulo 412124" width="38" height="62" rx="4" transform="translate(13 1)" fill="url(#linear-gradient)"/>
      <path id="Trazado_998344" data-name="Trazado 998344" d="M47,5V59H17V5h7a2,2,0,0,0,2,2H38a2,2,0,0,0,2-2Z" fill="url(#linear-gradient-2)"/>
      <path id="Trazado_998345" data-name="Trazado 998345" d="M17,57H47v2H17Z" fill="#77cacb"/>
      <circle id="Elipse_12252" data-name="Elipse 12252" cx="10" cy="10" r="10" transform="translate(39 34)" fill="url(#linear-gradient-3)"/>
      <path id="Trazado_998346" data-name="Trazado 998346" d="M49,45.82a3.64,3.64,0,0,1-3.64-3.64v-.91a3.64,3.64,0,1,1,7.28,0v.91A3.64,3.64,0,0,1,49,45.82Z" fill="url(#linear-gradient-4)"/>
      <path id="Trazado_998347" data-name="Trazado 998347" d="M55.48,51.61a10,10,0,0,1-13,0l.5-1.48A6.31,6.31,0,0,1,55,50.05S55.47,51.58,55.48,51.61Z" fill="url(#linear-gradient-5)"/>
      <path id="Trazado_998348" data-name="Trazado 998348" d="M1,41H31V53H1Z" fill="url(#linear-gradient-6)"/>
      <path id="Trazado_998349" data-name="Trazado 998349" d="M1,51H31v2H1Z" fill="#c7cdd8"/>
      <path id="Trazado_998350" data-name="Trazado 998350" d="M13,53h4v2H13Z" fill="#42455e"/>
      <path id="Trazado_998351" data-name="Trazado 998351" d="M17,53H31v2H17Z" fill="#77cacb"/>
      <path id="Trazado_998352" data-name="Trazado 998352" d="M35,13H63V27H35Z" fill="url(#linear-gradient-6)"/>
      <path id="Trazado_998353" data-name="Trazado 998353" d="M35,25H63v2H35Z" fill="#c7cdd8"/>
      <path id="Trazado_998354" data-name="Trazado 998354" d="M47,27h4v2H47Z" fill="#42455e"/>
      <path id="Trazado_998355" data-name="Trazado 998355" d="M35,27H47v2H35Z" fill="#77cacb"/>
      <path id="Trazado_998356" data-name="Trazado 998356" d="M4,13H26V31H4Z" fill="url(#linear-gradient-3)"/>
      <path id="Trazado_998357" data-name="Trazado 998357" d="M4,29H26v2H4Z" fill="#f6b756"/>
      <path id="Trazado_998358" data-name="Trazado 998358" d="M13,31h4v2H13Z" fill="#42455e"/>
      <path id="Trazado_998359" data-name="Trazado 998359" d="M17,31h9v2H17Z" fill="#77cacb"/>
      <path id="Trazado_998360" data-name="Trazado 998360" d="M43.05,50.05l-.53,1.56A10,10,0,0,1,39.05,43a10,10,0,0,0,4,7.05Z" fill="#f6b756"/>
      <path id="Trazado_998361" data-name="Trazado 998361" d="M55.48,51.61,55,50.13c-.1-.3,3.47-2.12,4-7.11A10,10,0,0,1,55.48,51.61Z" fill="#f6b756"/>
      <path id="Trazado_998362" data-name="Trazado 998362" d="M55.48,51.61a10,10,0,0,1-13,0s.51-1.53.53-1.56a10,10,0,0,0,6,2c4,0,5.89-2.13,6-1.87Z" fill="#5b8dc9"/>
      <path id="Trazado_998363" data-name="Trazado 998363" d="M29,4a1,1,0,1,0-1,1A1,1,0,0,0,29,4Z"/>
      <path id="Trazado_998364" data-name="Trazado 998364" d="M37,4a1,1,0,1,0-1,1A1,1,0,0,0,37,4Z"/>
      <path id="Trazado_998365" data-name="Trazado 998365" d="M63,12H52V5a5,5,0,0,0-5-5H17a5,5,0,0,0-5,5v7H4a1,1,0,0,0-1,1V31a1,1,0,0,0,1,1h8v8H1a1,1,0,0,0-1,1V53a1,1,0,0,0,1,1H12v5a5,5,0,0,0,5,5H47a5,5,0,0,0,5-5V54.59c10.67-3.05,10.58-18.16,0-21.16V28H63a1,1,0,0,0,1-1V13A1,1,0,0,0,63,12ZM14,5a3,3,0,0,1,3-3H47a3,3,0,0,1,3,3v7H48V5a1,1,0,0,0-1-1H40a1,1,0,0,0-1,1,1,1,0,0,1-1,1H26a1,1,0,0,1-1-1,1,1,0,0,0-1-1H17a1,1,0,0,0-1,1v7H14Zm21,7a1,1,0,0,0-1,1V27a1,1,0,0,0,1,1H46v5.43c-10.54,3-10.65,17.89-.22,21.09.31.09.22-.37.22,3.48H18V54H31a1,1,0,0,0,1-1V41a1,1,0,0,0-1-1H18V32h8a1,1,0,0,0,1-1V13a1,1,0,0,0-1-1H18V6h5.17A3,3,0,0,0,26,8H38a3,3,0,0,0,2.83-2H46v6ZM51.64,42.18a2.64,2.64,0,1,1-5.28,0v-.91a2.64,2.64,0,1,1,5.28,0ZM54,50.45l.27.8a8.93,8.93,0,0,1-10.61,0l.28-.81A5.31,5.31,0,0,1,54,50.45ZM5,14H25V30H5Zm9,18h2v8H14ZM2,42H30V52H2ZM47,62H17a3,3,0,0,1-3-3V54h2v5a1,1,0,0,0,1,1H47a1,1,0,0,0,1-1V55a9.55,9.55,0,0,0,2,0v4a3,3,0,0,1-3,3Zm8.91-12.24a7.23,7.23,0,0,0-3.73-4.22,5.09,5.09,0,0,0,1.46-4.27,4.64,4.64,0,1,0-9.28,0,5.1,5.1,0,0,0,1.46,4.27,7.2,7.2,0,0,0-3.73,4.22,9,9,0,1,1,13.82,0ZM50,33.05a9.55,9.55,0,0,0-2,0V28h2Zm12-7H36V14H62Z"/>
      <path id="Trazado_998366" data-name="Trazado 998366" d="M22,48H6a1,1,0,0,0,0,2H22a1,1,0,0,0,0-2Z"/>
      <path id="Trazado_998367" data-name="Trazado 998367" d="M6,46H26a1,1,0,0,0,0-2H6a1,1,0,0,0,0,2Z"/>
      <path id="Trazado_998368" data-name="Trazado 998368" d="M14,27V21a1,1,0,0,0-2,0v6a1,1,0,0,0,2,0Z"/>
      <path id="Trazado_998369" data-name="Trazado 998369" d="M8,25v2a1,1,0,0,0,2,0V25a1,1,0,0,0-2,0Z"/>
      <path id="Trazado_998370" data-name="Trazado 998370" d="M18,27V22a1,1,0,0,0-2,0v5a1,1,0,0,0,2,0Z"/>
      <path id="Trazado_998371" data-name="Trazado 998371" d="M22,27V17a1,1,0,0,0-2,0V27a1,1,0,0,0,2,0Z"/>
      <path id="Trazado_998372" data-name="Trazado 998372" d="M42.29,16.29l-3,3a1,1,0,0,0,0,1.42l3,3a1,1,0,1,0,1.42-1.42L41.41,20l2.3-2.29a1,1,0,1,0-1.42-1.42Z"/>
      <path id="Trazado_998373" data-name="Trazado 998373" d="M55.71,23.71l3-3a1,1,0,0,0,0-1.42l-3-3a1,1,0,0,0-1.42,1.42L56.59,20l-2.3,2.29a1,1,0,1,0,1.42,1.42Z"/>
      <path id="Trazado_998374" data-name="Trazado 998374" d="M46.17,22.45A1,1,0,0,0,47,24c.73,0,.46.12,4.83-6.45a1,1,0,0,0-1.66-1.1Z"/>
    </g>
  </g>
</svg>
