<svg xmlns="http://www.w3.org/2000/svg" xmlns:xlink="http://www.w3.org/1999/xlink" width="108" height="108" viewBox="0 0 108 108">
  <defs>
    <filter id="Trazado_982547" x="0" y="0" width="108" height="108" filterUnits="userSpaceOnUse">
      <feOffset dy="3" input="SourceAlpha"/>
      <feGaussianBlur stdDeviation="3" result="blur"/>
      <feFlood flood-opacity="0.161"/>
      <feComposite operator="in" in2="blur"/>
      <feComposite in="SourceGraphic"/>
    </filter>
  </defs>
  <g id="Grupo_1163394" data-name="Grupo 1163394" transform="translate(-616 -313)">
    <g id="Grupo_1161777" data-name="Grupo 1161777" transform="translate(625 319)">
      <g id="Grupo_1155782" data-name="Grupo 1155782" transform="translate(0)">
        <g id="Grupo_1154033" data-name="Grupo 1154033">
          <g id="Grupo_1153177" data-name="Grupo 1153177">
            <g id="Grupo_1149598" data-name="Grupo 1149598">
              <g id="Grupo_1148770" data-name="Grupo 1148770" transform="translate(0)">
                <g id="Grupo_1146954" data-name="Grupo 1146954">
                  <g transform="matrix(1, 0, 0, 1, -9, -6)" filter="url(#Trazado_982547)">
                    <g id="Trazado_982547-2" data-name="Trazado 982547" transform="translate(9 6)" fill="#f6fde5">
                      <path d="M 45.00000381469727 88.5 C 39.12688064575195 88.5 33.43022918701172 87.35007476806641 28.06830406188965 85.08217620849609 C 22.88852882385254 82.89131164550781 18.23630332946777 79.75458526611328 14.24085426330566 75.75914764404297 C 10.24541664123535 71.76370239257812 7.108691215515137 67.11147308349609 4.917829036712646 61.93170166015625 C 2.64992880821228 56.56977462768555 1.500003814697266 50.87312316894531 1.500003814697266 45 C 1.500003814697266 39.12687683105469 2.64992880821228 33.43022537231445 4.917829036712646 28.06830024719238 C 7.108691215515137 22.88852500915527 10.24541664123535 18.23629951477051 14.24085426330566 14.2408504486084 C 18.23630332946777 10.24541282653809 22.88852882385254 7.108687400817871 28.06830406188965 4.917825222015381 C 33.43022918701172 2.649924993515015 39.12688064575195 1.5 45.00000381469727 1.5 C 50.87312698364258 1.5 56.56977844238281 2.649924993515015 61.93170547485352 4.917825222015381 C 67.11148071289062 7.108687400817871 71.76370239257812 10.24541282653809 75.7591552734375 14.2408504486084 C 79.75459289550781 18.23629951477051 82.89131927490234 22.88852500915527 85.08217620849609 28.06830024719238 C 87.35008239746094 33.43022537231445 88.5 39.12687683105469 88.5 45 C 88.5 50.87312316894531 87.35008239746094 56.56977462768555 85.08217620849609 61.93170166015625 C 82.89131927490234 67.11147308349609 79.75459289550781 71.76370239257812 75.7591552734375 75.75914764404297 C 71.76370239257812 79.75458526611328 67.11148071289062 82.89131164550781 61.93170547485352 85.08217620849609 C 56.56977844238281 87.35007476806641 50.87312698364258 88.5 45.00000381469727 88.5 Z" stroke="none"/>
                      <path d="M 45.00000381469727 3 C 39.32871627807617 3 33.82865905761719 4.110054016113281 28.65263366699219 6.299339294433594 C 23.65166473388672 8.414573669433594 19.15969085693359 11.44334411621094 15.30152130126953 15.301513671875 C 11.44334411621094 19.15968322753906 8.414573669433594 23.65165710449219 6.299346923828125 28.65262985229492 C 4.110061645507812 33.82865524291992 3.000007629394531 39.32871246337891 3.000007629394531 45 C 3.000007629394531 50.67128753662109 4.110061645507812 56.17134475708008 6.299346923828125 61.34737396240234 C 8.414573669433594 66.34834289550781 11.44334411621094 70.84031677246094 15.30152130126953 74.698486328125 C 19.15969085693359 78.55665588378906 23.65166473388672 81.58542633056641 28.65263366699219 83.70066070556641 C 33.82865905761719 85.88994598388672 39.32871627807617 87 45.00000381469727 87 C 50.67129135131836 87 56.17134857177734 85.88994598388672 61.34737396240234 83.70066070556641 C 66.34834289550781 81.58542633056641 70.84031677246094 78.55665588378906 74.698486328125 74.698486328125 C 78.55666351318359 70.84031677246094 81.58543395996094 66.34834289550781 83.70066070556641 61.34737396240234 C 85.88994598388672 56.17134475708008 87 50.67128753662109 87 45 C 87 39.32871246337891 85.88994598388672 33.82865524291992 83.70066070556641 28.65262985229492 C 81.58543395996094 23.65165710449219 78.55666351318359 19.15968322753906 74.698486328125 15.301513671875 C 70.84031677246094 11.44334411621094 66.34834289550781 8.414573669433594 61.34737396240234 6.299339294433594 C 56.17134857177734 4.110054016113281 50.67129135131836 3 45.00000381469727 3 M 45.00000381469727 0 C 69.85281372070312 0 90 20.14718627929688 90 45 C 90 69.85281372070312 69.85281372070312 90 45.00000381469727 90 C 20.14718627929688 90 7.62939453125e-06 69.85281372070312 7.62939453125e-06 45 C 7.62939453125e-06 20.14718627929688 20.14718627929688 0 45.00000381469727 0 Z" stroke="none" fill="#618307"/>
                    </g>
                  </g>
                </g>
              </g>
            </g>
          </g>
        </g>
      </g>
    </g>
    <g id="software-de-diseno" transform="translate(638.077 334.754)">
      <g id="Grupo_1163380" data-name="Grupo 1163380" transform="translate(40.464 38.119)">
        <path id="Trazado_997908" data-name="Trazado 997908" d="M332.2,335.11a4.918,4.918,0,0,0,0,6.952,4.85,4.85,0,0,0,2.2,1.273,4.916,4.916,0,0,0,6.021-6.023,4.914,4.914,0,0,0-8.222-2.2Z" transform="translate(-330.764 -333.669)" fill="#fff" fill-rule="evenodd"/>
      </g>
      <g id="Grupo_1163381" data-name="Grupo 1163381" transform="translate(10.892 16.883)">
        <path id="Trazado_997909" data-name="Trazado 997909" d="M79.087,147.783,71.9,152.116l7.186,4.329,7.189-4.329Z" transform="translate(-71.901 -147.783)" fill="#beece1" fill-rule="evenodd"/>
      </g>
      <g id="Grupo_1163382" data-name="Grupo 1163382" transform="translate(10.892 21.215)">
        <path id="Trazado_997910" data-name="Trazado 997910" d="M71.9,185.708v8.464l7.186,4.333v-8.468Z" transform="translate(-71.901 -185.708)" fill="#7dd9c2" fill-rule="evenodd"/>
      </g>
      <g id="Grupo_1163383" data-name="Grupo 1163383" transform="translate(18.078 21.215)">
        <path id="Trazado_997911" data-name="Trazado 997911" d="M134.8,190.037v8.468l7.189-4.333v-8.464Z" transform="translate(-134.803 -185.708)" fill="#7dd9c2" fill-rule="evenodd"/>
      </g>
      <g id="Grupo_1163384" data-name="Grupo 1163384" transform="translate(46.65 29.214)">
        <path id="Trazado_997912" data-name="Trazado 997912" d="M387.34,255.72l-2.431,9.073a4.917,4.917,0,0,1,3.476,3.474l9.067-2.429A14.338,14.338,0,0,0,387.34,255.72Z" transform="translate(-384.909 -255.72)" fill="#beece1" fill-rule="evenodd"/>
      </g>
      <g id="Grupo_1163385" data-name="Grupo 1163385" transform="translate(31.076 28.725)">
        <path id="Trazado_997913" data-name="Trazado 997913" d="M259.182,251.931a14.3,14.3,0,0,0-10.112,17.521l9.067-2.432a4.915,4.915,0,0,1,6.017-6.02l2.431-9.073A14.206,14.206,0,0,0,259.182,251.931Z" transform="translate(-248.579 -251.439)" fill="#cfd3df" fill-rule="evenodd"/>
      </g>
      <g id="Grupo_1163386" data-name="Grupo 1163386" transform="translate(31.566 44.307)">
        <path id="Trazado_997914" data-name="Trazado 997914" d="M252.871,390.266a14.306,14.306,0,0,0,10.112,10.119l2.428-9.073a4.917,4.917,0,0,1-3.473-3.478Z" transform="translate(-252.871 -387.834)" fill="#beece1" fill-rule="evenodd"/>
      </g>
      <g id="Grupo_1163387" data-name="Grupo 1163387" transform="translate(41.678 39.333)">
        <path id="Trazado_997915" data-name="Trazado 997915" d="M343.815,352.749l-2.428,9.073c.382.1.767.188,1.159.259h5.069q.587-.107,1.175-.262A14.308,14.308,0,0,0,358.9,344.3l-9.067,2.429a4.916,4.916,0,0,1-6.021,6.023Z" transform="translate(-341.387 -344.298)" fill="#cfd3df" fill-rule="evenodd"/>
      </g>
      <g id="Grupo_1163388" data-name="Grupo 1163388" transform="translate(4.165 1.142)">
        <path id="Trazado_997916" data-name="Trazado 997916" d="M15.268,10a2.252,2.252,0,0,0-2.246,2.247v8.471H60.8V12.246A2.254,2.254,0,0,0,58.549,10Z" transform="translate(-13.022 -9.999)" fill="#ff7b79" fill-rule="evenodd"/>
      </g>
      <g id="Grupo_1163389" data-name="Grupo 1163389" transform="translate(4.165 11.86)">
        <path id="Trazado_997917" data-name="Trazado 997917" d="M60.8,103.82H13.022v24.927a2.252,2.252,0,0,0,2.246,2.247H40.5A14.283,14.283,0,0,1,60.8,122.284Zm-33.861,5.022,7.189,4.333v8.464l-7.189,4.333-7.186-4.333v-8.464Z" transform="translate(-13.022 -103.82)" fill="#fff" fill-rule="evenodd"/>
      </g>
      <g id="Grupo_1163390" data-name="Grupo 1163390" transform="translate(30.369 18.593)">
        <path id="Trazado_997918" data-name="Trazado 997918" d="M257.235,165.041h-13.7a1.142,1.142,0,0,1,0-2.285h13.7a1.142,1.142,0,0,1,0,2.285Z" transform="translate(-242.391 -162.756)"/>
      </g>
      <g id="Grupo_1163391" data-name="Grupo 1163391" transform="translate(30.369 24.305)">
        <path id="Trazado_997919" data-name="Trazado 997919" d="M248.181,215.041h-4.648a1.142,1.142,0,1,1,0-2.285h4.648a1.142,1.142,0,1,1,0,2.285Z" transform="translate(-242.391 -212.756)"/>
      </g>
      <g id="Grupo_1163392" data-name="Grupo 1163392" transform="translate(44.236 41.892)">
        <path id="Trazado_997920" data-name="Trazado 997920" d="M364.917,368.983a1.135,1.135,0,0,1-.805-.334l0,0a1.14,1.14,0,1,1,.809.337Z" transform="translate(-363.774 -366.696)"/>
      </g>
      <g id="Grupo_1163393" data-name="Grupo 1163393" transform="translate(3.023 0)">
        <path id="Trazado_997921" data-name="Trazado 997921" d="M321.72,48.053a1.142,1.142,0,0,0-1.142-1.142h-.007a1.142,1.142,0,1,0,1.149,1.142Z" transform="translate(-283.285 -41.552)"/>
        <path id="Trazado_997922" data-name="Trazado 997922" d="M369.787,48.053a1.142,1.142,0,0,0-1.142-1.142h0a1.142,1.142,0,1,0,1.145,1.142Z" transform="translate(-325.863 -41.552)"/>
        <path id="Trazado_997923" data-name="Trazado 997923" d="M273.665,48.053a1.142,1.142,0,0,0-1.142-1.142h-.007a1.142,1.142,0,1,0,1.149,1.142Z" transform="translate(-240.72 -41.552)"/>
        <path id="Trazado_997924" data-name="Trazado 997924" d="M56.716,48.053A1.142,1.142,0,0,0,57.858,49.2H73.143a1.142,1.142,0,0,0,0-2.285H57.858a1.142,1.142,0,0,0-1.142,1.142Z" transform="translate(-50.582 -41.552)"/>
        <path id="Trazado_997925" data-name="Trazado 997925" d="M78.008,142.28l-7.189-4.333a1.142,1.142,0,0,0-1.18,0l-7.186,4.333a1.143,1.143,0,0,0-.553.978v8.465a1.142,1.142,0,0,0,.553.978l7.186,4.333a1.155,1.155,0,0,0,1.18,0l7.189-4.333a1.142,1.142,0,0,0,.553-.978v-8.465A1.156,1.156,0,0,0,78.008,142.28Zm-8.921,11.753-4.9-2.955v-5.8l4.9,2.953Zm1.143-7.779-4.973-3,4.973-3,4.975,3Zm6.047,4.823-4.9,2.956v-5.8l4.9-2.954Z" transform="translate(-55.175 -122.043)"/>
        <path id="Trazado_997926" data-name="Trazado 997926" d="M60.3,39.038h0a15.352,15.352,0,0,0-7.2-9.381l-.019-.011V3.39A3.393,3.393,0,0,0,49.693,0H23.069a1.142,1.142,0,0,0,0,2.285H49.693a1.106,1.106,0,0,1,1.1,1.1v7.329H5.308V3.39a1.106,1.106,0,0,1,1.1-1.1h6.4a1.142,1.142,0,0,0,0-2.285h-6.4A3.393,3.393,0,0,0,3.023,3.39v33.4a3.393,3.393,0,0,0,3.389,3.39H30.195a15.448,15.448,0,1,0,30.1-1.14Zm-2.551-.5-6.919,1.853a6.066,6.066,0,0,0-2.806-2.809l1.854-6.92a13.3,13.3,0,0,1,2.082.973A13.068,13.068,0,0,1,57.746,38.538Zm-9.7,7.166a3.774,3.774,0,1,1,0-5.337h0a3.779,3.779,0,0,1,0,5.337ZM30.813,37.892H6.412a1.106,1.106,0,0,1-1.1-1.1V13H50.8V28.565A15.451,15.451,0,0,0,32,35.311a15.639,15.639,0,0,0-1.192,2.582Zm1.922,1.489.006-.022a13.242,13.242,0,0,1,1.241-2.907,13.07,13.07,0,0,1,7.991-6.133,13.221,13.221,0,0,1,3.428-.455,12.98,12.98,0,0,1,2.268.2l-1.856,6.927c-.144-.01-.289-.017-.434-.017a6.051,6.051,0,0,0-6.036,6.493l-6.922,1.857a13.045,13.045,0,0,1,.314-5.945Zm8.147,16.03a13.314,13.314,0,0,1-2.083-.974,13.059,13.059,0,0,1-5.787-6.9l6.918-1.856a6.063,6.063,0,0,0,2.8,2.811Zm7.9.34a13.111,13.111,0,0,1-5.7.255l1.854-6.929c.145.01.29.017.437.017a6.051,6.051,0,0,0,6.036-6.5l6.921-1.854a13.185,13.185,0,0,1-9.551,15.006Z" transform="translate(-3.023 0)"/>
        <path id="Trazado_997927" data-name="Trazado 997927" d="M124.756,2.285h.007a1.146,1.146,0,1,0-.007,0Z" transform="translate(-109.838 0)"/>
      </g>
    </g>
  </g>
</svg>
