<svg xmlns="http://www.w3.org/2000/svg" xmlns:xlink="http://www.w3.org/1999/xlink" width="110" height="110" viewBox="0 0 110 110">
  <defs>
    <filter id="Trazado_982547" x="0" y="0" width="110" height="110" filterUnits="userSpaceOnUse">
      <feOffset dy="3" input="SourceAlpha"/>
      <feGaussianBlur stdDeviation="3" result="blur"/>
      <feFlood flood-opacity="0.161"/>
      <feComposite operator="in" in2="blur"/>
      <feComposite in="SourceGraphic"/>
    </filter>
  </defs>
  <g id="Grupo_1163398" data-name="Grupo 1163398" transform="translate(-800 -967)">
    <g id="Grupo_1162100" data-name="Grupo 1162100" transform="translate(0 -3371)">
      <g id="Grupo_1157015" data-name="Grupo 1157015" transform="translate(0 3549)">
        <g id="Grupo_1155792" data-name="Grupo 1155792" transform="translate(-1 -3894.666)">
          <g id="Grupo_1154703" data-name="Grupo 1154703" transform="translate(0 1465.666)">
            <g id="Grupo_1150789" data-name="Grupo 1150789" transform="translate(3 2320)">
              <g id="Grupo_1154212" data-name="Grupo 1154212" transform="translate(-236 -5809)">
                <g id="Grupo_1152583" data-name="Grupo 1152583" transform="translate(1043 6713)">
                  <g id="Grupo_1146973" data-name="Grupo 1146973" transform="translate(0 0)">
                    <g id="Grupo_1146954" data-name="Grupo 1146954">
                      <g transform="matrix(1, 0, 0, 1, -9, -6)" filter="url(#Trazado_982547)">
                        <g id="Trazado_982547-2" data-name="Trazado 982547" transform="translate(9 6)" fill="#f0ebfe">
                          <path d="M 46 90.49987030029297 C 39.99187850952148 90.49987030029297 34.16426849365234 89.32350921630859 28.67905426025391 87.00345611572266 C 23.38019943237305 84.76224517822266 18.62104034423828 81.55341339111328 14.53374671936035 77.46613311767578 C 10.44646644592285 73.37885284423828 7.237639904022217 68.61969757080078 4.996413230895996 63.32085418701172 C 2.676359891891479 57.83565521240234 1.5 52.008056640625 1.5 45.99993515014648 C 1.5 39.99181365966797 2.676359891891479 34.16421508789062 4.996413230895996 28.67901420593262 C 7.237639904022217 23.38017463684082 10.44646644592285 18.62101554870605 14.53374671936035 14.53373527526855 C 18.62104034423828 10.44645500183105 23.38019943237305 7.23762845993042 28.67905426025391 4.996415138244629 C 34.16426849365234 2.676361799240112 39.99187850952148 1.500001788139343 46 1.500001788139343 C 52.00812149047852 1.500001788139343 57.83573150634766 2.676361799240112 63.32094573974609 4.996415138244629 C 68.61979675292969 7.23762845993042 73.37895965576172 10.44645500183105 77.46625518798828 14.53373527526855 C 81.55353546142578 18.62101554870605 84.76235961914062 23.38017463684082 87.00358581542969 28.67901420593262 C 89.32363891601562 34.16421508789062 90.5 39.99181365966797 90.5 45.99993515014648 C 90.5 52.008056640625 89.32363891601562 57.83565521240234 87.00358581542969 63.32085418701172 C 84.76235961914062 68.61969757080078 81.55353546142578 73.37885284423828 77.46625518798828 77.46613311767578 C 73.37895965576172 81.55341339111328 68.61979675292969 84.76224517822266 63.32094573974609 87.00345611572266 C 57.83573150634766 89.32350921630859 52.00812149047852 90.49987030029297 46 90.49987030029297 Z" stroke="none"/>
                          <path d="M 46 2.999992370605469 C 40.1937141418457 2.999992370605469 34.56269836425781 4.136489868164062 29.26337051391602 6.377906799316406 C 24.14332580566406 8.543502807617188 19.54441070556641 11.64437866210938 15.59439849853516 15.59437561035156 C 11.64440155029297 19.54439544677734 8.54351806640625 24.14329528808594 6.377914428710938 29.26333618164062 C 4.136497497558594 34.56264877319336 3 40.19366455078125 3 45.99993515014648 C 3 51.80620574951172 4.136497497558594 57.43720626831055 6.377914428710938 62.73651885986328 C 8.54351806640625 67.8565673828125 11.64440155029297 72.45545959472656 15.59439849853516 76.40547943115234 C 19.54441070556641 80.35547637939453 24.14332580566406 83.45635223388672 29.26337051391602 85.6219482421875 C 34.56269836425781 87.86336517333984 40.1937141418457 88.99986267089844 46 88.99986267089844 C 51.8062858581543 88.99986267089844 57.43730163574219 87.86336517333984 62.73661422729492 85.6219482421875 C 67.85667419433594 83.45635223388672 72.45557403564453 80.35547637939453 76.40558624267578 76.40547943115234 C 80.35559844970703 72.45545959472656 83.45647430419922 67.8565673828125 85.6220703125 62.73651885986328 C 87.86350250244141 57.43720626831055 89 51.80620574951172 89 45.99993515014648 C 89 40.19366455078125 87.86350250244141 34.56264877319336 85.6220703125 29.26333618164062 C 83.45647430419922 24.14329528808594 80.35559844970703 19.54439544677734 76.40558624267578 15.59437561035156 C 72.45557403564453 11.64437866210938 67.85667419433594 8.543502807617188 62.73661422729492 6.377906799316406 C 57.43730163574219 4.136489868164062 51.8062858581543 2.999992370605469 46 2.999992370605469 M 46 -7.62939453125e-06 C 71.40509033203125 -7.62939453125e-06 92 20.59486389160156 92 45.99993515014648 C 92 71.40499114990234 71.40509033203125 91.99986267089844 46 91.99986267089844 C 20.59490203857422 91.99986267089844 0 71.40499114990234 0 45.99993515014648 C 0 20.59486389160156 20.59490203857422 -7.62939453125e-06 46 -7.62939453125e-06 Z" stroke="none" fill="#7145fe"/>
                        </g>
                      </g>
                    </g>
                  </g>
                </g>
              </g>
            </g>
          </g>
        </g>
      </g>
    </g>
    <g id="funcion" transform="translate(828 967.005)">
      <path id="Trazado_997928" data-name="Trazado 997928" d="M58.586,35.495H9.194A1.694,1.694,0,0,0,7.5,37.189v7.8H60.281v-7.8A1.7,1.7,0,0,0,58.586,35.495Z" transform="translate(-6.704 -6.704)" fill="#ffe177"/>
      <path id="Trazado_997929" data-name="Trazado 997929" d="M462.625,35.495h-3.08a1.694,1.694,0,0,1,1.694,1.694v7.8h3.08v-7.8A1.7,1.7,0,0,0,462.625,35.495Z" transform="translate(-410.742 -6.704)" fill="#ffd15b"/>
      <path id="Trazado_997930" data-name="Trazado 997930" d="M26.253,79.152l-.863-1.871a.961.961,0,0,0-.873-.558H15.753a.961.961,0,0,0-.873.558l-.863,1.871a.961.961,0,0,1-.873.558H7.5v37.774a1.694,1.694,0,0,0,1.694,1.694H58.586a1.694,1.694,0,0,0,1.694-1.694V79.71H27.126a.961.961,0,0,1-.873-.558Z" transform="translate(-6.703 -43.553)" fill="#f5f8f9"/>
      <g id="Grupo_1163395" data-name="Grupo 1163395" transform="translate(48.803 36.157)">
        <path id="Trazado_997931" data-name="Trazado 997931" d="M461.239,104.853v37.774a1.694,1.694,0,0,1-1.694,1.694h3.08a1.694,1.694,0,0,0,1.694-1.694V104.853Z" transform="translate(-459.545 -104.853)" fill="#e8edf2"/>
      </g>
      <g id="Grupo_1163396" data-name="Grupo 1163396" transform="translate(38.716 41.126)">
        <path id="Trazado_997932" data-name="Trazado 997932" d="M373.983,156.133h-8.357a1.061,1.061,0,0,1-1.061-1.061v-2.367a1.061,1.061,0,0,1,1.061-1.061h8.357a1.061,1.061,0,0,1,1.061,1.061v2.367A1.061,1.061,0,0,1,373.983,156.133Z" transform="translate(-364.564 -151.644)" fill="#ffe177"/>
        <path id="Trazado_997933" data-name="Trazado 997933" d="M433.481,151.643h-2.349a1.061,1.061,0,0,1,1.061,1.061v2.367a1.061,1.061,0,0,1-1.061,1.061h2.349a1.061,1.061,0,0,0,1.061-1.061V152.7A1.061,1.061,0,0,0,433.481,151.643Z" transform="translate(-424.063 -151.643)" fill="#ffd15b"/>
      </g>
      <g id="Grupo_1163397" data-name="Grupo 1163397" transform="translate(0 27.995)">
        <path id="Trazado_997934" data-name="Trazado 997934" d="M51.883,28H7.506a.8.8,0,1,0,0,1.593H51.883a.9.9,0,0,1,.9.9v4.875H20.423a.165.165,0,0,1-.15-.1l-.863-1.871a1.763,1.763,0,0,0-1.6-1.021H9.05a1.763,1.763,0,0,0-1.6,1.021l-.863,1.87a.165.165,0,0,1-.15.1H1.593V30.486a.9.9,0,0,1,.9-.9H4.426a.8.8,0,1,0,0-1.593H2.491A2.494,2.494,0,0,0,0,30.486V73.932a2.494,2.494,0,0,0,2.491,2.491H51.883a2.494,2.494,0,0,0,2.491-2.491V69.054a.8.8,0,1,0-1.593,0v4.877a.9.9,0,0,1-.9.9H2.491a.9.9,0,0,1-.9-.9V36.954H6.441a1.763,1.763,0,0,0,1.6-1.021l.863-1.87a.165.165,0,0,1,.15-.1h8.764a.165.165,0,0,1,.15.1l.863,1.871a1.763,1.763,0,0,0,1.6,1.021H52.781V65.974a.8.8,0,1,0,1.593,0V30.486A2.494,2.494,0,0,0,51.883,28Z" transform="translate(0 -27.995)"/>
        <path id="Trazado_997935" data-name="Trazado 997935" d="M359.831,64.267a.8.8,0,1,0,0-1.593h-.772a.8.8,0,0,0,0,1.593Z" transform="translate(-320.216 -58.991)"/>
        <path id="Trazado_997936" data-name="Trazado 997936" d="M395.831,64.267a.8.8,0,0,0,0-1.593h-.772a.8.8,0,1,0,0,1.593Z" transform="translate(-352.393 -58.991)"/>
        <path id="Trazado_997937" data-name="Trazado 997937" d="M431.831,64.267a.8.8,0,0,0,0-1.593h-.772a.8.8,0,1,0,0,1.593Z" transform="translate(-384.57 -58.991)"/>
        <path id="Trazado_997938" data-name="Trazado 997938" d="M43.4,134.089a.8.8,0,0,0-1.109.2L40.525,136.8a.8.8,0,0,0,0,.914l1.763,2.516a.8.8,0,0,0,1.3-.914l-1.442-2.059,1.442-2.059A.8.8,0,0,0,43.4,134.089Z" transform="translate(-36.092 -122.693)"/>
        <path id="Trazado_997939" data-name="Trazado 997939" d="M120.664,140.427a.8.8,0,0,0,1.109-.2l1.763-2.516a.8.8,0,0,0,0-.914l-1.763-2.516a.8.8,0,1,0-1.3.914l1.442,2.059-1.442,2.059A.8.8,0,0,0,120.664,140.427Z" transform="translate(-107.546 -122.695)"/>
        <path id="Trazado_997940" data-name="Trazado 997940" d="M81.241,135.157a.8.8,0,0,0-1.064.37l-2.318,4.791a.8.8,0,1,0,1.434.694l2.318-4.791A.8.8,0,0,0,81.241,135.157Z" transform="translate(-69.52 -123.705)"/>
        <path id="Trazado_997941" data-name="Trazado 997941" d="M204.05,134.742a.8.8,0,0,0-.8-.8H190.838a.8.8,0,0,0,0,1.593h12.416A.8.8,0,0,0,204.05,134.742Z" transform="translate(-169.859 -122.694)"/>
        <path id="Trazado_997942" data-name="Trazado 997942" d="M369.138,146a1.86,1.86,0,0,0-1.858-1.858h-8.357A1.86,1.86,0,0,0,357.065,146v2.367a1.86,1.86,0,0,0,1.858,1.858h2.639a.8.8,0,0,0,0-1.593h-2.639a.265.265,0,0,1-.265-.265V146a.265.265,0,0,1,.265-.265h8.357a.265.265,0,0,1,.265.265v2.367a.265.265,0,0,1-.265.265h-2.639a.8.8,0,0,0,0,1.593h2.639a1.86,1.86,0,0,0,1.858-1.858Z" transform="translate(-319.145 -131.808)"/>
        <path id="Trazado_997943" data-name="Trazado 997943" d="M33.9,217.887a.8.8,0,0,0,.27.6l.922.813a.131.131,0,0,1,.044.1,3.023,3.023,0,0,0,3.019,3.019.8.8,0,0,0,0-1.593,1.428,1.428,0,0,1-1.426-1.426,1.725,1.725,0,0,0-.584-1.293l-.245-.216.245-.216a1.725,1.725,0,0,0,.584-1.293,1.428,1.428,0,0,1,1.426-1.426.8.8,0,1,0,0-1.593,3.023,3.023,0,0,0-3.019,3.019.131.131,0,0,1-.044.1l-.922.814A.8.8,0,0,0,33.9,217.887Z" transform="translate(-30.304 -193.673)"/>
        <path id="Trazado_997944" data-name="Trazado 997944" d="M432.745,376.122a1.428,1.428,0,0,1-1.426,1.426.8.8,0,1,0,0,1.593,3.023,3.023,0,0,0,3.019-3.019.131.131,0,0,1,.044-.1l.922-.814a.8.8,0,0,0,0-1.195l-.923-.814a.13.13,0,0,1-.044-.1,3.023,3.023,0,0,0-3.019-3.019.8.8,0,1,0,0,1.593,1.428,1.428,0,0,1,1.426,1.426,1.724,1.724,0,0,0,.583,1.293l.245.216-.245.216A1.725,1.725,0,0,0,432.745,376.122Z" transform="translate(-384.801 -333.755)"/>
        <path id="Trazado_997945" data-name="Trazado 997945" d="M89.475,239.047h.819a.8.8,0,0,0,0-1.593h-.819a.8.8,0,1,0,0,1.593Z" transform="translate(-79.261 -215.21)"/>
        <path id="Trazado_997946" data-name="Trazado 997946" d="M137.593,238.25a.8.8,0,0,0,.8.8h5.067a.8.8,0,0,0,0-1.593h-5.067A.8.8,0,0,0,137.593,238.25Z" transform="translate(-122.981 -215.21)"/>
        <path id="Trazado_997947" data-name="Trazado 997947" d="M234.495,239.047a.8.8,0,0,0,0-1.593H227.3a.8.8,0,1,0,0,1.593Z" transform="translate(-202.453 -215.21)"/>
        <path id="Trazado_997948" data-name="Trazado 997948" d="M335.422,238.25a.8.8,0,0,0,.8.8h2.943a.8.8,0,1,0,0-1.593h-2.943A.8.8,0,0,0,335.422,238.25Z" transform="translate(-299.801 -215.21)"/>
        <path id="Trazado_997949" data-name="Trazado 997949" d="M410.2,237.454h-5.066a.8.8,0,1,0,0,1.593H410.2a.8.8,0,0,0,0-1.593Z" transform="translate(-361.396 -215.21)"/>
        <path id="Trazado_997950" data-name="Trazado 997950" d="M88.679,275.307a.8.8,0,0,0,.8.8h4a.8.8,0,1,0,0-1.593h-4A.8.8,0,0,0,88.679,275.307Z" transform="translate(-79.261 -248.331)"/>
        <path id="Trazado_997951" data-name="Trazado 997951" d="M176.376,275.307a.8.8,0,0,0-.8-.8h-7.19a.8.8,0,1,0,0,1.593h7.19A.8.8,0,0,0,176.376,275.307Z" transform="translate(-149.795 -248.331)"/>
        <path id="Trazado_997952" data-name="Trazado 997952" d="M281.043,275.307a.8.8,0,0,0-.8-.8H277.3a.8.8,0,0,0,0,1.593h2.943A.8.8,0,0,0,281.043,275.307Z" transform="translate(-247.142 -248.331)"/>
        <path id="Trazado_997953" data-name="Trazado 997953" d="M351.285,274.511h-5.066a.8.8,0,1,0,0,1.593h5.066a.8.8,0,1,0,0-1.593Z" transform="translate(-308.739 -248.331)"/>
        <path id="Trazado_997954" data-name="Trazado 997954" d="M437.013,274.511h-1.881a.8.8,0,0,0,0,1.593h1.881a.8.8,0,0,0,0-1.593Z" transform="translate(-388.21 -248.331)"/>
        <path id="Trazado_997955" data-name="Trazado 997955" d="M49.475,313.162h7.19a.8.8,0,1,0,0-1.593h-7.19a.8.8,0,1,0,0,1.593Z" transform="translate(-43.509 -281.454)"/>
        <path id="Trazado_997956" data-name="Trazado 997956" d="M162.129,312.365a.8.8,0,0,0-.8-.8h-2.943a.8.8,0,1,0,0,1.593h2.943A.8.8,0,0,0,162.129,312.365Z" transform="translate(-140.857 -281.454)"/>
        <path id="Trazado_997957" data-name="Trazado 997957" d="M227.3,313.162h7.19a.8.8,0,1,0,0-1.593H227.3a.8.8,0,1,0,0,1.593Z" transform="translate(-202.453 -281.454)"/>
        <path id="Trazado_997958" data-name="Trazado 997958" d="M336.219,313.162h2.943a.8.8,0,1,0,0-1.593h-2.943a.8.8,0,0,0,0,1.593Z" transform="translate(-299.801 -281.454)"/>
        <path id="Trazado_997959" data-name="Trazado 997959" d="M405.133,313.162H410.2a.8.8,0,0,0,0-1.593h-5.066a.8.8,0,1,0,0,1.593Z" transform="translate(-361.396 -281.454)"/>
        <path id="Trazado_997960" data-name="Trazado 997960" d="M49.475,350.218h1.881a.8.8,0,0,0,0-1.593H49.475a.8.8,0,0,0,0,1.593Z" transform="translate(-43.509 -314.575)"/>
        <path id="Trazado_997961" data-name="Trazado 997961" d="M114.252,349.422a.8.8,0,0,0-.8-.8h-5.067a.8.8,0,1,0,0,1.593h5.067A.8.8,0,0,0,114.252,349.422Z" transform="translate(-96.167 -314.575)"/>
        <path id="Trazado_997962" data-name="Trazado 997962" d="M206.353,349.422a.8.8,0,0,0-.8-.8H197.3a.8.8,0,0,0,0,1.593h8.252A.8.8,0,0,0,206.353,349.422Z" transform="translate(-175.639 -314.575)"/>
        <path id="Trazado_997963" data-name="Trazado 997963" d="M318.1,350.218a.8.8,0,0,0,0-1.593h-1.881a.8.8,0,1,0,0,1.593Z" transform="translate(-281.925 -314.575)"/>
        <path id="Trazado_997964" data-name="Trazado 997964" d="M384.181,349.422a.8.8,0,0,0-.8-.8h-8.252a.8.8,0,1,0,0,1.593h8.252A.8.8,0,0,0,384.181,349.422Z" transform="translate(-334.582 -314.575)"/>
        <path id="Trazado_997965" data-name="Trazado 997965" d="M49.475,387.275h7.19a.8.8,0,0,0,0-1.593h-7.19a.8.8,0,0,0,0,1.593Z" transform="translate(-43.509 -347.696)"/>
        <path id="Trazado_997966" data-name="Trazado 997966" d="M164.518,387.275a.8.8,0,0,0,0-1.593h-6.129a.8.8,0,0,0,0,1.593Z" transform="translate(-140.857 -347.696)"/>
        <path id="Trazado_997967" data-name="Trazado 997967" d="M257.3,387.275h4a.8.8,0,0,0,0-1.593h-4a.8.8,0,1,0,0,1.593Z" transform="translate(-229.266 -347.696)"/>
        <path id="Trazado_997968" data-name="Trazado 997968" d="M343.409,385.682h-7.19a.8.8,0,0,0,0,1.593h7.19a.8.8,0,1,0,0-1.593Z" transform="translate(-299.801 -347.696)"/>
        <path id="Trazado_997969" data-name="Trazado 997969" d="M49.475,424.332H59.852a.8.8,0,0,0,0-1.593H49.475a.8.8,0,0,0,0,1.593Z" transform="translate(-43.509 -380.818)"/>
        <path id="Trazado_997970" data-name="Trazado 997970" d="M188.389,424.332h5.067a.8.8,0,1,0,0-1.593h-5.067a.8.8,0,0,0,0,1.593Z" transform="translate(-167.671 -380.818)"/>
        <path id="Trazado_997971" data-name="Trazado 997971" d="M277.3,424.332h2.943a.8.8,0,0,0,0-1.593H277.3a.8.8,0,0,0,0,1.593Z" transform="translate(-247.142 -380.818)"/>
        <path id="Trazado_997972" data-name="Trazado 997972" d="M352.347,422.739h-6.128a.8.8,0,1,0,0,1.593h6.128a.8.8,0,1,0,0-1.593Z" transform="translate(-308.739 -380.818)"/>
      </g>
    </g>
  </g>
</svg>
