<svg xmlns="http://www.w3.org/2000/svg" xmlns:xlink="http://www.w3.org/1999/xlink" width="113" height="113" viewBox="0 0 113 113">
  <defs>
    <filter id="Trazado_982547" x="0" y="0" width="113" height="113" filterUnits="userSpaceOnUse">
      <feOffset dy="3" input="SourceAlpha"/>
      <feGaussianBlur stdDeviation="3" result="blur"/>
      <feFlood flood-opacity="0.161"/>
      <feComposite operator="in" in2="blur"/>
      <feComposite in="SourceGraphic"/>
    </filter>
  </defs>
  <g id="Grupo_1164263" data-name="Grupo 1164263" transform="translate(-272 -2387)">
    <g id="Grupo_1163948" data-name="Grupo 1163948" transform="translate(0 -91)">
      <g id="Grupo_1158168" data-name="Grupo 1158168" transform="translate(281 2484)">
        <g id="Grupo_1152576" data-name="Grupo 1152576" transform="translate(0)">
          <g id="Grupo_1148633" data-name="Grupo 1148633">
            <g id="Grupo_1148525" data-name="Grupo 1148525">
              <g transform="matrix(1, 0, 0, 1, -9, -6)" filter="url(#Trazado_982547)">
                <g id="Trazado_982547-2" data-name="Trazado 982547" transform="translate(9 6)" fill="#f0ebfe">
                  <path d="M 47.5 93.5 C 41.28937149047852 93.5 35.26533508300781 92.28397369384766 29.59518623352051 89.88570404052734 C 24.11771965026855 87.56893157958984 19.19813346862793 84.25196075439453 14.97309303283691 80.02691650390625 C 10.74804019927979 75.80186462402344 7.431066513061523 70.88229370117188 5.114293098449707 65.40481567382812 C 2.716026782989502 59.73468017578125 1.5 53.71062850952148 1.5 47.5 C 1.5 41.28937149047852 2.716026782989502 35.26533508300781 5.114293098449707 29.59518623352051 C 7.431066513061523 24.11771965026855 10.74804019927979 19.19813346862793 14.97309303283691 14.97309303283691 C 19.19813346862793 10.74804019927979 24.11771965026855 7.431066513061523 29.59518623352051 5.114293098449707 C 35.26533508300781 2.716026782989502 41.28937149047852 1.5 47.5 1.5 C 53.71062850952148 1.5 59.73468017578125 2.716026782989502 65.40481567382812 5.114293098449707 C 70.88229370117188 7.431066513061523 75.80186462402344 10.74804019927979 80.02691650390625 14.97309303283691 C 84.25196075439453 19.19813346862793 87.56893157958984 24.11771965026855 89.88570404052734 29.59518623352051 C 92.28397369384766 35.26533508300781 93.5 41.28937149047852 93.5 47.5 C 93.5 53.71062850952148 92.28397369384766 59.73468017578125 89.88570404052734 65.40481567382812 C 87.56893157958984 70.88229370117188 84.25196075439453 75.80186462402344 80.02691650390625 80.02691650390625 C 75.80186462402344 84.25196075439453 70.88229370117188 87.56893157958984 65.40481567382812 89.88570404052734 C 59.73468017578125 92.28397369384766 53.71062850952148 93.5 47.5 93.5 Z" stroke="none"/>
                  <path d="M 47.5 3 C 41.49121475219727 3 35.66376876831055 4.176155090332031 30.17950439453125 6.495796203613281 C 24.88084411621094 8.736953735351562 20.12152099609375 11.94598388671875 16.03375244140625 16.03375244140625 C 11.94598388671875 20.12152099609375 8.736953735351562 24.88084411621094 6.495796203613281 30.17950439453125 C 4.176155090332031 35.66376876831055 3 41.49121475219727 3 47.5 C 3 53.50878524780273 4.176155090332031 59.33623123168945 6.495796203613281 64.82049560546875 C 8.736953735351562 70.11915588378906 11.94598388671875 74.87847900390625 16.03375244140625 78.96624755859375 C 20.12152099609375 83.05401611328125 24.88084411621094 86.26304626464844 30.17950439453125 88.50419616699219 C 35.66376876831055 90.82384490966797 41.49121475219727 92 47.5 92 C 53.50878524780273 92 59.33623123168945 90.82384490966797 64.82049560546875 88.50419616699219 C 70.11915588378906 86.26304626464844 74.87847900390625 83.05401611328125 78.96624755859375 78.96624755859375 C 83.05401611328125 74.87847900390625 86.26304626464844 70.11915588378906 88.50419616699219 64.82049560546875 C 90.82384490966797 59.33623123168945 92 53.50878524780273 92 47.5 C 92 41.49121475219727 90.82384490966797 35.66376876831055 88.50419616699219 30.17950439453125 C 86.26304626464844 24.88084411621094 83.05401611328125 20.12152099609375 78.96624755859375 16.03375244140625 C 74.87847900390625 11.94598388671875 70.11915588378906 8.736953735351562 64.82049560546875 6.495796203613281 C 59.33623123168945 4.176155090332031 53.50878524780273 3 47.5 3 M 47.5 0 C 73.7335205078125 0 95 21.2664794921875 95 47.5 C 95 73.7335205078125 73.7335205078125 95 47.5 95 C 21.2664794921875 95 0 73.7335205078125 0 47.5 C 0 21.2664794921875 21.2664794921875 0 47.5 0 Z" stroke="none" fill="#7145fe"/>
                </g>
              </g>
            </g>
          </g>
        </g>
      </g>
    </g>
    <g id="distribuido-" transform="translate(299 2411)">
      <g id="Grupo_1164262" data-name="Grupo 1164262" transform="translate(1.904 1.904)">
        <path id="Trazado_999596" data-name="Trazado 999596" d="M60.849,2V12.849H50V2Z" transform="translate(-6.603 -2)" fill="#ffeaa7"/>
        <path id="Trazado_999597" data-name="Trazado 999597" d="M36.849,7.425v5.425H26V2H36.849Z" transform="translate(-4.302 -2)" fill="#ffeaa7"/>
        <path id="Trazado_999598" data-name="Trazado 999598" d="M12.849,7.425v5.425H2V2H12.849Z" transform="translate(-2 -2)" fill="#ffeaa7"/>
      </g>
      <path id="Trazado_999599" data-name="Trazado 999599" d="M12,28V44.274a1.814,1.814,0,0,0,1.808,1.808H46.356a1.814,1.814,0,0,0,1.808-1.808V28Z" transform="translate(-1.055 -2.589)" fill="#e6e9ed"/>
      <path id="Trazado_999600" data-name="Trazado 999600" d="M48.164,21.808v5.425H12V23.616a1.814,1.814,0,0,1,1.808-1.808H31.89l1.275-1.275A1.814,1.814,0,0,1,34.449,20H46.356A1.814,1.814,0,0,1,48.164,21.808Z" transform="translate(-1.055 -1.822)" fill="#ff826e"/>
      <path id="Trazado_999601" data-name="Trazado 999601" d="M41.973,42.533a1.768,1.768,0,0,1,.533,1.275A1.814,1.814,0,0,1,40.7,45.616H20.808A1.821,1.821,0,0,1,19,43.808,1.814,1.814,0,0,1,20.808,42H40.7A1.768,1.768,0,0,1,41.973,42.533Z" transform="translate(-1.726 -3.932)" fill="#5cd6b3"/>
      <path id="Trazado_999602" data-name="Trazado 999602" d="M41.973,52.533a1.768,1.768,0,0,1,.533,1.275A1.814,1.814,0,0,1,40.7,55.616H20.808A1.821,1.821,0,0,1,19,53.808,1.814,1.814,0,0,1,20.808,52H40.7A1.768,1.768,0,0,1,41.973,52.533Z" transform="translate(-1.726 -4.891)" fill="#5cd6b3"/>
      <path id="Trazado_999603" data-name="Trazado 999603" d="M44.931,57.808v1.808a1.814,1.814,0,0,1-1.808,1.808H17.808A1.814,1.814,0,0,1,16,59.616V57.808A1.814,1.814,0,0,1,17.808,56H43.123A1.814,1.814,0,0,1,44.931,57.808Z" transform="translate(-1.439 -5.275)" fill="#fcd770"/>
      <path id="Trazado_999604" data-name="Trazado 999604" d="M44.931,47.808v1.808a1.814,1.814,0,0,1-1.808,1.808H17.808A1.814,1.814,0,0,1,16,49.616V47.808A1.814,1.814,0,0,1,17.808,46H43.123A1.814,1.814,0,0,1,44.931,47.808Z" transform="translate(-1.439 -4.316)" fill="#fcd770"/>
      <path id="Trazado_999605" data-name="Trazado 999605" d="M44.931,37.808v1.808a1.814,1.814,0,0,1-1.808,1.808H17.808A1.814,1.814,0,0,1,16,39.616V37.808A1.814,1.814,0,0,1,17.808,36H43.123A1.814,1.814,0,0,1,44.931,37.808Z" transform="translate(-1.439 -3.357)" fill="#fcd770"/>
      <path id="Trazado_999606" data-name="Trazado 999606" d="M47,23h1.808v1.808H47Z" transform="translate(-4.412 -2.11)"/>
      <path id="Trazado_999607" data-name="Trazado 999607" d="M43,23h1.808v1.808H43Z" transform="translate(-4.028 -2.11)"/>
      <path id="Trazado_999608" data-name="Trazado 999608" d="M39,23h1.808v1.808H39Z" transform="translate(-3.644 -2.11)"/>
      <path id="Trazado_999609" data-name="Trazado 999609" d="M5,5h5.425V6.808H5Z" transform="translate(-0.384 -0.384)"/>
      <path id="Trazado_999610" data-name="Trazado 999610" d="M5,9h5.425v1.808H5Z" transform="translate(-0.384 -0.767)"/>
      <path id="Trazado_999611" data-name="Trazado 999611" d="M29,5h5.425V6.808H29Z" transform="translate(-2.685 -0.384)"/>
      <path id="Trazado_999612" data-name="Trazado 999612" d="M29,9h5.425v1.808H29Z" transform="translate(-2.685 -0.767)"/>
      <path id="Trazado_999613" data-name="Trazado 999613" d="M57.054,13.657V1H44.4V6.425H35.356V1H22.7V6.425H13.657V1H1V13.657H13.657V8.233H22.7v5.425h5.425v5.425H12.753a2.716,2.716,0,0,0-2.712,2.712v19.89A2.716,2.716,0,0,0,12.753,44.4h.9v.9a2.716,2.716,0,0,0,2.712,2.712h.166a2.54,2.54,0,0,0,0,1.808H16.37a2.716,2.716,0,0,0-2.712,2.712v1.808a2.716,2.716,0,0,0,2.712,2.712H41.684A2.716,2.716,0,0,0,44.4,54.342V52.533a2.716,2.716,0,0,0-2.712-2.712h-.166a2.54,2.54,0,0,0,0-1.808h.166A2.716,2.716,0,0,0,44.4,45.3v-.9h.9a2.716,2.716,0,0,0,2.712-2.712v-21.7A2.716,2.716,0,0,0,45.3,17.274H33.392a2.692,2.692,0,0,0-1.918.795l-1.013,1.013h-.53V13.657h5.425V8.233H44.4v5.425Zm-45.2-1.808H2.808V2.808h9.041ZM42.588,52.533v1.808a.905.905,0,0,1-.9.9H16.37a.905.905,0,0,1-.9-.9V52.533a.905.905,0,0,1,.9-.9H41.684A.905.905,0,0,1,42.588,52.533Zm-2.712-3.616a.905.905,0,0,1-.9.9H19.082a.9.9,0,1,1,0-1.808h19.89A.905.905,0,0,1,39.876,48.917ZM42.588,45.3a.905.905,0,0,1-.9.9H16.37a.905.905,0,0,1-.9-.9V43.493a.905.905,0,0,1,.9-.9H41.684a.905.905,0,0,1,.9.9ZM18.178,39.876a.905.905,0,0,1,.9-.9h19.89a.9.9,0,1,1,0,1.808H19.082A.905.905,0,0,1,18.178,39.876Zm20.794-2.712H16.37a.905.905,0,0,1-.9-.9V34.452a.905.905,0,0,1,.9-.9H41.684a.905.905,0,0,1,.9.9V36.26a.905.905,0,0,1-.9.9ZM45.3,42.588H44.23a2.709,2.709,0,0,0-2.546-1.808h-.166a2.54,2.54,0,0,0,0-1.808h.166A2.716,2.716,0,0,0,44.4,36.26V34.452a2.716,2.716,0,0,0-2.712-2.712H16.37a2.716,2.716,0,0,0-2.712,2.712V36.26a2.716,2.716,0,0,0,2.712,2.712h.166a2.54,2.54,0,0,0,0,1.808H16.37a2.709,2.709,0,0,0-2.546,1.808h-1.07a.905.905,0,0,1-.9-.9V26.315H46.2v15.37A.905.905,0,0,1,45.3,42.588ZM31.209,20.89l1.543-1.543a.913.913,0,0,1,.639-.265H45.3a.905.905,0,0,1,.9.9v4.52H11.849V21.794a.905.905,0,0,1,.9-.9Zm2.338-9.041H24.506V2.808h9.041ZM46.2,2.808h9.041v9.041H46.2Z"/>
      <path id="Trazado_999614" data-name="Trazado 999614" d="M53,5h5.425V6.808H53Z" transform="translate(-4.987 -0.384)"/>
      <path id="Trazado_999615" data-name="Trazado 999615" d="M53,9h5.425v1.808H53Z" transform="translate(-4.987 -0.767)"/>
      <path id="Trazado_999616" data-name="Trazado 999616" d="M15,31h1.808v1.808H15Z" transform="translate(-1.343 -2.877)"/>
      <path id="Trazado_999617" data-name="Trazado 999617" d="M19,31h1.808v1.808H19Z" transform="translate(-1.726 -2.877)"/>
      <path id="Trazado_999618" data-name="Trazado 999618" d="M23,31h1.808v1.808H23Z" transform="translate(-2.11 -2.877)"/>
    </g>
  </g>
</svg>
