<svg xmlns="http://www.w3.org/2000/svg" xmlns:xlink="http://www.w3.org/1999/xlink" width="113" height="113" viewBox="0 0 113 113">
  <defs>
    <filter id="Trazado_982547" x="0" y="0" width="113" height="113" filterUnits="userSpaceOnUse">
      <feOffset dy="3" input="SourceAlpha"/>
      <feGaussianBlur stdDeviation="3" result="blur"/>
      <feFlood flood-opacity="0.161"/>
      <feComposite operator="in" in2="blur"/>
      <feComposite in="SourceGraphic"/>
    </filter>
  </defs>
  <g id="Grupo_1164268" data-name="Grupo 1164268" transform="translate(-587 -2386.893)">
    <g id="Grupo_1163949" data-name="Grupo 1163949" transform="translate(0 -91.107)">
      <g id="Grupo_1161819" data-name="Grupo 1161819" transform="translate(596 2484)">
        <g id="Grupo_1152576" data-name="Grupo 1152576" transform="translate(0)">
          <g id="Grupo_1148633" data-name="Grupo 1148633">
            <g id="Grupo_1148525" data-name="Grupo 1148525">
              <g transform="matrix(1, 0, 0, 1, -9, -6)" filter="url(#Trazado_982547)">
                <g id="Trazado_982547-2" data-name="Trazado 982547" transform="translate(9 6)" fill="#f0ebfe">
                  <path d="M 47.5 93.5 C 41.28937149047852 93.5 35.26533508300781 92.28397369384766 29.59518623352051 89.88570404052734 C 24.11771965026855 87.56893157958984 19.19813346862793 84.25196075439453 14.97309303283691 80.02691650390625 C 10.74804019927979 75.80186462402344 7.431066513061523 70.88229370117188 5.114293098449707 65.40481567382812 C 2.716026782989502 59.73468017578125 1.5 53.71062850952148 1.5 47.5 C 1.5 41.28937149047852 2.716026782989502 35.26533508300781 5.114293098449707 29.59518623352051 C 7.431066513061523 24.11771965026855 10.74804019927979 19.19813346862793 14.97309303283691 14.97309303283691 C 19.19813346862793 10.74804019927979 24.11771965026855 7.431066513061523 29.59518623352051 5.114293098449707 C 35.26533508300781 2.716026782989502 41.28937149047852 1.5 47.5 1.5 C 53.71062850952148 1.5 59.73468017578125 2.716026782989502 65.40481567382812 5.114293098449707 C 70.88229370117188 7.431066513061523 75.80186462402344 10.74804019927979 80.02691650390625 14.97309303283691 C 84.25196075439453 19.19813346862793 87.56893157958984 24.11771965026855 89.88570404052734 29.59518623352051 C 92.28397369384766 35.26533508300781 93.5 41.28937149047852 93.5 47.5 C 93.5 53.71062850952148 92.28397369384766 59.73468017578125 89.88570404052734 65.40481567382812 C 87.56893157958984 70.88229370117188 84.25196075439453 75.80186462402344 80.02691650390625 80.02691650390625 C 75.80186462402344 84.25196075439453 70.88229370117188 87.56893157958984 65.40481567382812 89.88570404052734 C 59.73468017578125 92.28397369384766 53.71062850952148 93.5 47.5 93.5 Z" stroke="none"/>
                  <path d="M 47.5 3 C 41.49121475219727 3 35.66376876831055 4.176155090332031 30.17950439453125 6.495796203613281 C 24.88084411621094 8.736953735351562 20.12152099609375 11.94598388671875 16.03375244140625 16.03375244140625 C 11.94598388671875 20.12152099609375 8.736953735351562 24.88084411621094 6.495796203613281 30.17950439453125 C 4.176155090332031 35.66376876831055 3 41.49121475219727 3 47.5 C 3 53.50878524780273 4.176155090332031 59.33623123168945 6.495796203613281 64.82049560546875 C 8.736953735351562 70.11915588378906 11.94598388671875 74.87847900390625 16.03375244140625 78.96624755859375 C 20.12152099609375 83.05401611328125 24.88084411621094 86.26304626464844 30.17950439453125 88.50419616699219 C 35.66376876831055 90.82384490966797 41.49121475219727 92 47.5 92 C 53.50878524780273 92 59.33623123168945 90.82384490966797 64.82049560546875 88.50419616699219 C 70.11915588378906 86.26304626464844 74.87847900390625 83.05401611328125 78.96624755859375 78.96624755859375 C 83.05401611328125 74.87847900390625 86.26304626464844 70.11915588378906 88.50419616699219 64.82049560546875 C 90.82384490966797 59.33623123168945 92 53.50878524780273 92 47.5 C 92 41.49121475219727 90.82384490966797 35.66376876831055 88.50419616699219 30.17950439453125 C 86.26304626464844 24.88084411621094 83.05401611328125 20.12152099609375 78.96624755859375 16.03375244140625 C 74.87847900390625 11.94598388671875 70.11915588378906 8.736953735351562 64.82049560546875 6.495796203613281 C 59.33623123168945 4.176155090332031 53.50878524780273 3 47.5 3 M 47.5 0 C 73.7335205078125 0 95 21.2664794921875 95 47.5 C 95 73.7335205078125 73.7335205078125 95 47.5 95 C 21.2664794921875 95 0 73.7335205078125 0 47.5 C 0 21.2664794921875 21.2664794921875 0 47.5 0 Z" stroke="none" fill="#7145fe"/>
                </g>
              </g>
            </g>
          </g>
        </g>
      </g>
    </g>
    <g id="alto-rendimiento" transform="translate(601.446 2406.909)">
      <path id="Trazado_999619" data-name="Trazado 999619" d="M72.047,32.439A27.136,27.136,0,0,1,57.2,56.619q-.605.31-1.23.588V42.977a1.231,1.231,0,0,0-1.23-1.23H52.281a1.231,1.231,0,0,0-1.23,1.23V58.856q-.609.14-1.23.253c-.394.071-.79.133-1.191.187s-.817.1-1.23.138V50.443a1.229,1.229,0,0,0-1.23-1.23H43.708a1.231,1.231,0,0,0-1.23,1.23v8.991c-.413-.037-.824-.081-1.23-.138s-.8-.116-1.191-.187q-.62-.114-1.23-.253V47a1.231,1.231,0,0,0-1.23-1.23H35.135A1.231,1.231,0,0,0,33.905,47V57.207q-.624-.277-1.23-.588a27.11,27.11,0,1,1,39.372-24.18Z" transform="translate(-1.885 -1.904)" fill="#efefef"/>
      <path id="Trazado_999620" data-name="Trazado 999620" d="M110.143,88.922a8.469,8.469,0,0,1-2.242,5.869,8.654,8.654,0,1,1-6.417-14.461,8.477,8.477,0,0,1,6.663,3.137,8.742,8.742,0,0,1,.733,1.043,8.988,8.988,0,0,1,1.152,3.145A8.39,8.39,0,0,1,110.143,88.922Z" transform="translate(-58.43 -58.45)" fill="#7d7b79"/>
      <path id="Trazado_999621" data-name="Trazado 999621" d="M170.759,77.745l-13.683,4.98a8.39,8.39,0,0,0-.111-1.267,8.988,8.988,0,0,0-1.152-3.145,8.743,8.743,0,0,0-.733-1.043l13.693-4.985a2.9,2.9,0,1,1,1.986,5.46Z" transform="translate(-105.363 -52.253)" fill="#afafaf"/>
      <g id="Grupo_1164264" data-name="Grupo 1164264" transform="translate(30.79 38.612)">
        <path id="Trazado_999622" data-name="Trazado 999622" d="M83.081,164.67H80.621a2.465,2.465,0,0,0-2.461,2.461v9.621q.605.31,1.23.588V167.131a1.231,1.231,0,0,1,1.23-1.23h2.461a1.231,1.231,0,0,1,1.23,1.23v11.858c.406.094.817.177,1.23.253V167.131A2.465,2.465,0,0,0,83.081,164.67Z" transform="translate(-78.16 -160.649)" fill="#afafaf"/>
        <path id="Trazado_999623" data-name="Trazado 999623" d="M152.761,148.33H150.3a2.465,2.465,0,0,0-2.461,2.461v16.132c.413-.076.824-.16,1.23-.253V150.791a1.231,1.231,0,0,1,1.23-1.23h2.461a1.231,1.231,0,0,1,1.23,1.23v14.23q.624-.277,1.23-.588V150.791A2.465,2.465,0,0,0,152.761,148.33Z" transform="translate(-130.694 -148.33)" fill="#afafaf"/>
        <path id="Trazado_999624" data-name="Trazado 999624" d="M117.921,178.67h-2.461A2.465,2.465,0,0,0,113,181.131v8.853c.406.057.817.1,1.23.138v-8.991a1.231,1.231,0,0,1,1.23-1.23h2.461a1.229,1.229,0,0,1,1.23,1.23v8.991c.413-.037.824-.081,1.23-.138v-8.853A2.465,2.465,0,0,0,117.921,178.67Z" transform="translate(-104.427 -171.204)" fill="#afafaf"/>
      </g>
      <g id="Grupo_1164265" data-name="Grupo 1164265" transform="translate(49.465 16.668)">
        <path id="Trazado_999625" data-name="Trazado 999625" d="M158.557,61.831c-.861-.285-1.751-.533-2.251-2.685-.46,1.982-1.2,2.337-2.251,2.685a2.989,2.989,0,0,1,2.251,2.685C156.777,62.487,157.556,62.162,158.557,61.831Z" transform="translate(-154.056 -59.146)" fill="#f0c020"/>
      </g>
      <g id="Grupo_1164266" data-name="Grupo 1164266" transform="translate(18.325 53.227)">
        <path id="Trazado_999626" data-name="Trazado 999626" d="M32,210.408c-.861-.285-1.751-.533-2.251-2.685-.46,1.982-1.2,2.337-2.251,2.685a2.989,2.989,0,0,1,2.251,2.685C30.225,211.064,31,210.739,32,210.408Z" transform="translate(-27.503 -207.723)" fill="#f0c020"/>
      </g>
      <g id="Grupo_1164267" data-name="Grupo 1164267" transform="translate(63.281 53.227)">
        <path id="Trazado_999627" data-name="Trazado 999627" d="M214.7,210.408c-.861-.285-1.751-.533-2.251-2.685-.46,1.982-1.2,2.337-2.251,2.685a2.989,2.989,0,0,1,2.251,2.685C212.924,211.064,213.7,210.739,214.7,210.408Z" transform="translate(-210.203 -207.723)" fill="#f0c020"/>
      </g>
      <path id="Trazado_999628" data-name="Trazado 999628" d="M197.631,56.768a27.014,27.014,0,0,1-7.94,19.168l-3.647-3.647a2.446,2.446,0,0,1-.2-3.253,19.659,19.659,0,0,0,3.915-16.181c-.084-.406-.177-.807-.285-1.2l2.972-1.083a1.675,1.675,0,0,0-1.147-3.147l-2.972,1.083c-.175-.376-.359-.746-.559-1.107A19.48,19.48,0,0,0,184.4,42.89l5.29-5.29a27.014,27.014,0,0,1,7.94,19.168Z" transform="translate(-127.468 -26.234)" fill="#fc5d3d"/>
      <path id="Trazado_999629" data-name="Trazado 999629" d="M203.186,77.745l-3.105,1.129c-.084-.406-.177-.807-.285-1.2l2.972-1.083a1.675,1.675,0,0,0-1.147-3.147l-2.972,1.083c-.175-.376-.359-.746-.559-1.107l3.11-1.132a2.9,2.9,0,1,1,1.986,5.46Z" transform="translate(-137.79 -52.253)" fill="#b34f33"/>
      <path id="Trazado_999630" data-name="Trazado 999630" d="M25.77,37.6a27.106,27.106,0,0,0,0,38.336l3.647-3.647a2.446,2.446,0,0,0,.2-3.253A19.626,19.626,0,0,1,31.061,42.89Z" transform="translate(-1.885 -26.234)" fill="#13bf6d"/>
      <path id="Trazado_999631" data-name="Trazado 999631" d="M88.436,13.27l-5.29,5.29a19.621,19.621,0,0,0-27.756,0L50.1,13.27a27.106,27.106,0,0,1,38.336,0Z" transform="translate(-26.214 -1.904)" fill="#f0c020"/>
      <circle id="Elipse_12283" data-name="Elipse 12283" cx="3.401" cy="3.401" r="3.401" transform="translate(39.652 24.82)" fill="#feb69f"/>
      <path id="Trazado_999632" data-name="Trazado 999632" d="M114.753,124.641a8.656,8.656,0,0,1-12.835,0,6.724,6.724,0,0,1,12.835,0Z" transform="translate(-65.282 -88.301)" fill="#72c2e9"/>
      <path id="Trazado_999633" data-name="Trazado 999633" d="M172.587,80.358l-2.972,1.083-10.4,3.787a8.988,8.988,0,0,0-1.152-3.145l10.408-3.789,2.972-1.083a1.675,1.675,0,0,1,1.147,3.147Z" transform="translate(-107.61 -56.022)" fill="#72c2e9"/>
      <path id="Trazado_999634" data-name="Trazado 999634" d="M91.687,238.558a1.563,1.563,0,0,1-1.558,1.56H58.058a1.56,1.56,0,0,1-1.558-1.56A1.563,1.563,0,0,1,58.058,237H90.129A1.559,1.559,0,0,1,91.687,238.558Z" transform="translate(-31.04 -176.569)" fill="#7d7b79"/>
      <path id="Trazado_999635" data-name="Trazado 999635" d="M88.081,170.9v15.337H83.16V170.9a1.231,1.231,0,0,1,1.23-1.23h2.461A1.231,1.231,0,0,1,88.081,170.9Z" transform="translate(-51.14 -125.807)" fill="#13bf6d"/>
      <path id="Trazado_999636" data-name="Trazado 999636" d="M157.761,154.563V173.92H152.84V154.563a1.231,1.231,0,0,1,1.23-1.23h2.461a1.231,1.231,0,0,1,1.23,1.23Z" transform="translate(-103.674 -113.49)" fill="#fc5d3d"/>
      <path id="Trazado_999637" data-name="Trazado 999637" d="M122.921,184.9v11.892H118V184.9a1.231,1.231,0,0,1,1.23-1.23h2.461A1.229,1.229,0,0,1,122.921,184.9Z" transform="translate(-77.407 -136.362)" fill="#f0c020"/>
      <path id="Trazado_999638" data-name="Trazado 999638" d="M196.107,76.994a.615.615,0,0,1-.118-.862c.256-.338.507-.687.744-1.039a.615.615,0,0,1,1.02.688c-.25.37-.513.738-.784,1.094a.615.615,0,0,1-.862.118Zm2.114-3.121a.615.615,0,0,1-.253-.832A23.141,23.141,0,0,0,193.91,45.82a.615.615,0,1,1,.87-.87,24.372,24.372,0,0,1,4.273,28.671.615.615,0,0,1-.832.253Z" transform="translate(-134.503 -31.639)" fill="#ffcbc3"/>
      <path id="Trazado_999639" data-name="Trazado 999639" d="M34.018,76.956a24.36,24.36,0,0,1,2.141-31.988h0a.63.63,0,0,1,.869,0,.619.619,0,0,1,0,.871A23.123,23.123,0,0,0,35,76.208a.616.616,0,0,1-.979.748Z" transform="translate(-10.329 -31.659)" fill="#76ffbb"/>
      <path id="Trazado_999640" data-name="Trazado 999640" d="M91.027,24.5a23.317,23.317,0,0,0-2.46-2.139.615.615,0,0,1,.74-.983A24.578,24.578,0,0,1,91.9,23.63a.615.615,0,1,1-.87.87Zm-33.142.18a.615.615,0,0,1-.435-1.05,24.345,24.345,0,0,1,29.766-3.663.615.615,0,0,1-.634,1.054A23.115,23.115,0,0,0,58.32,24.5a.613.613,0,0,1-.435.18Z" transform="translate(-31.62 -10.319)" fill="#f8e5b0"/>
      <path id="Trazado_999641" data-name="Trazado 999641" d="M31.405,55.692v4.123H27.018a2.174,2.174,0,0,0,0,4.348H59.09a2.174,2.174,0,0,0,0-4.348H54.7V55.692a27.723,27.723,0,0,0,7.959-44.757l0,0,0,0a27.706,27.706,0,0,0-39.2,0l-.006,0,0,.006a27.723,27.723,0,0,0,7.96,44.756Zm1.23-10.6a.616.616,0,0,1,.615-.615h2.461a.616.616,0,0,1,.615.615V59.815H32.635ZM37.557,57.71c.805.162,1.615.285,2.421.373v1.732H37.557Zm8.573.373c.806-.088,1.616-.212,2.421-.373v2.105H46.129ZM44.9,59.815H41.208V48.538a.616.616,0,0,1,.615-.615h2.461a.616.616,0,0,1,.615.615Zm15.133,2.173a.946.946,0,0,1-.942.945H27.018a.944.944,0,0,1,0-1.887H59.09A.943.943,0,0,1,60.032,61.988ZM49.781,59.815V41.074a.616.616,0,0,1,.615-.615h2.461a.616.616,0,0,1,.615.615V59.815ZM62.217,48.827,59.01,45.621a1.825,1.825,0,0,1-.155-2.433,20.258,20.258,0,0,0,3.883-17.381l2.448-.892a2.29,2.29,0,0,0-1.567-4.3l-2.449.892A20.066,20.066,0,0,0,57.8,16.663l4.421-4.421a26.489,26.489,0,0,1,0,36.585Zm-.871-37.456-4.422,4.422a20.184,20.184,0,0,0-3.465-2.625.633.633,0,0,0-.844.212.616.616,0,0,0,.209.844,19.055,19.055,0,0,1,7.18,7.7l-9.3,3.387a9.158,9.158,0,0,0-7.647-4.049,9.269,9.269,0,1,0,9.224,8.349l3.025-1.1a.614.614,0,0,0,.369-.787.629.629,0,0,0-.79-.369l-2.822,1.029a9.515,9.515,0,0,0-.728-1.989l12.712-4.628a1.059,1.059,0,0,1,.724,1.991l-5.258,1.914a.615.615,0,1,0,.421,1.156l1.645-.6a19.043,19.043,0,0,1,.493,4.3A18.807,18.807,0,0,1,57.9,42.418a3.053,3.053,0,0,0,.244,4.073l3.2,3.2a26.409,26.409,0,0,1-6.64,4.639V41.074a1.847,1.847,0,0,0-1.845-1.845H50.4a1.847,1.847,0,0,0-1.845,1.845V56.453c-.8.169-1.615.3-2.421.394V48.538a1.847,1.847,0,0,0-1.845-1.845H41.823a1.847,1.847,0,0,0-1.845,1.845v8.308c-.807-.092-1.616-.224-2.421-.394V45.094a1.847,1.847,0,0,0-1.845-1.845H33.251a1.847,1.847,0,0,0-1.845,1.845v9.237a26.4,26.4,0,0,1-6.64-4.639l3.2-3.2a3.063,3.063,0,0,0,.244-4.072A19.424,19.424,0,0,1,26.3,39.533a.615.615,0,1,0-1.083.583,20.294,20.294,0,0,0,2.035,3.071A1.829,1.829,0,0,1,27.1,45.62L23.89,48.827a26.491,26.491,0,0,1,0-36.585l4.425,4.425A20.138,20.138,0,0,0,22.81,30.534a20.385,20.385,0,0,0,.586,4.857.616.616,0,0,0,1.2-.3,19.028,19.028,0,0,1,23.885-22.79.625.625,0,0,0,.765-.413.618.618,0,0,0-.414-.766,20.21,20.21,0,0,0-19.645,4.666l-4.422-4.422a26.474,26.474,0,0,1,36.585,0Zm-18.293,27.2a8.083,8.083,0,0,1-5.715-2.386,6.074,6.074,0,0,1,5.715-3.948,6.156,6.156,0,0,1,5.715,3.948,8.09,8.09,0,0,1-5.715,2.386ZM40.267,28.221a2.786,2.786,0,1,1,2.786,2.786A2.789,2.789,0,0,1,40.267,28.221Zm9.384,6.91a7.271,7.271,0,0,0-4.174-3.715,4.017,4.017,0,1,0-4.847,0,7.277,7.277,0,0,0-4.171,3.711,8.039,8.039,0,1,1,13.193,0Z"/>
      <path id="Trazado_999642" data-name="Trazado 999642" d="M51.432,141.719a.615.615,0,1,0,.795.352A.628.628,0,0,0,51.432,141.719Z" transform="translate(-26.922 -104.704)"/>
      <path id="Trazado_999643" data-name="Trazado 999643" d="M158,41.157a.616.616,0,0,0,.5-1.127.63.63,0,0,0-.812.315A.619.619,0,0,0,158,41.157Z" transform="translate(-107.286 -28.029)"/>
      <path id="Trazado_999644" data-name="Trazado 999644" d="M184.652,100.213a.616.616,0,0,0,.369-.787.626.626,0,0,0-.79-.367.614.614,0,0,0,.421,1.154Z" transform="translate(-127.037 -72.543)"/>
      <path id="Trazado_999645" data-name="Trazado 999645" d="M151.981,60.535c1.435.474,1.6,1.177,1.844,2.24a.615.615,0,0,0,1.2,0c.41-1.766.981-1.955,1.844-2.24a.616.616,0,0,0,0-1.168c-.808-.265-1.427-.442-1.845-2.24a.616.616,0,0,0-1.2,0c-.41,1.766-.981,1.955-1.844,2.24A.616.616,0,0,0,151.981,60.535Zm2.446-1.5a2.969,2.969,0,0,0,.8.925,2.878,2.878,0,0,0-.793.892,3.017,3.017,0,0,0-.84-.884,2.875,2.875,0,0,0,.831-.933Z" transform="translate(-102.709 -40.599)"/>
      <path id="Trazado_999646" data-name="Trazado 999646" d="M28.472,205.7a.616.616,0,0,0-1.2,0c-.41,1.766-.981,1.955-1.844,2.24a.616.616,0,0,0,0,1.168c1.435.474,1.6,1.177,1.844,2.24a.615.615,0,0,0,1.2,0c.41-1.766.981-1.955,1.844-2.24a.616.616,0,0,0,0-1.168C29.509,207.68,28.889,207.5,28.472,205.7Zm-.588,3.722a3.017,3.017,0,0,0-.84-.884,2.878,2.878,0,0,0,.831-.933,2.97,2.97,0,0,0,.8.925A2.881,2.881,0,0,0,27.883,209.426Z" transform="translate(-7.297 -152.617)"/>
      <path id="Trazado_999647" data-name="Trazado 999647" d="M211.171,205.7a.616.616,0,0,0-1.2,0c-.41,1.766-.981,1.955-1.844,2.24a.616.616,0,0,0,0,1.168c1.435.474,1.6,1.177,1.844,2.24a.615.615,0,0,0,1.2,0c.41-1.766.981-1.955,1.844-2.24a.616.616,0,0,0,0-1.168C212.208,207.68,211.589,207.5,211.171,205.7Zm-.588,3.722a3.017,3.017,0,0,0-.84-.884,2.878,2.878,0,0,0,.831-.933,2.97,2.97,0,0,0,.8.925A2.884,2.884,0,0,0,210.583,209.426Z" transform="translate(-145.041 -152.617)"/>
    </g>
  </g>
</svg>
