<svg xmlns="http://www.w3.org/2000/svg" width="32.015" height="30.909" viewBox="0 0 32.015 30.909">
  <g id="development" transform="translate(-5 -12.6)">
    <g id="Grupo_1158407" data-name="Grupo 1158407" transform="translate(5 12.6)">
      <path id="Trazado_992536" data-name="Trazado 992536" d="M34.483,38.118H27.716a.364.364,0,1,1,0-.728h6.767a1.8,1.8,0,0,0,1.8-1.8V15.132a1.8,1.8,0,0,0-1.8-1.8H7.532a1.8,1.8,0,0,0-1.8,1.8V35.586a1.8,1.8,0,0,0,1.8,1.8H14.3a.364.364,0,0,1,0,.728H7.532A2.54,2.54,0,0,1,5,35.578V15.132A2.534,2.534,0,0,1,7.532,12.6H34.483a2.534,2.534,0,0,1,2.532,2.532V35.586A2.539,2.539,0,0,1,34.483,38.118Z" transform="translate(-5 -12.6)"/>
    </g>
    <g id="Grupo_1158412" data-name="Grupo 1158412" transform="translate(7.569 14.252)">
      <g id="Grupo_1158408" data-name="Grupo 1158408" transform="translate(0 0)">
        <path id="Trazado_992537" data-name="Trazado 992537" d="M41.806,38.312a1.506,1.506,0,1,1,1.506-1.506A1.509,1.509,0,0,1,41.806,38.312Zm0-2.285a.779.779,0,1,0,.779.779A.779.779,0,0,0,41.806,36.028Z" transform="translate(-40.3 -35.3)"/>
      </g>
      <g id="Grupo_1158409" data-name="Grupo 1158409" transform="translate(4.046 0)">
        <path id="Trazado_992538" data-name="Trazado 992538" d="M97.406,38.312a1.506,1.506,0,1,1,1.506-1.506A1.509,1.509,0,0,1,97.406,38.312Zm0-2.285a.779.779,0,1,0,.779.779A.779.779,0,0,0,97.406,36.028Z" transform="translate(-95.9 -35.3)"/>
      </g>
      <g id="Grupo_1158410" data-name="Grupo 1158410" transform="translate(8.098 0)">
        <path id="Trazado_992539" data-name="Trazado 992539" d="M153.106,38.312a1.506,1.506,0,1,1,1.506-1.506A1.509,1.509,0,0,1,153.106,38.312Zm0-2.285a.779.779,0,1,0,.779.779A.779.779,0,0,0,153.106,36.028Z" transform="translate(-151.6 -35.3)"/>
      </g>
      <g id="Grupo_1158411" data-name="Grupo 1158411" transform="translate(17.223 0)">
        <path id="Trazado_992540" data-name="Trazado 992540" d="M285.149,38.312h-6.643a1.506,1.506,0,1,1,0-3.012h6.643a1.506,1.506,0,1,1,0,3.012Zm-6.643-2.285a.779.779,0,1,0,0,1.557h6.643a.779.779,0,1,0,0-1.557Z" transform="translate(-277 -35.3)"/>
      </g>
    </g>
    <g id="Grupo_1158413" data-name="Grupo 1158413" transform="translate(5 18.195)">
      <path id="Trazado_992541" data-name="Trazado 992541" d="M36.652,90.228H5.364a.364.364,0,1,1,0-.728H36.652a.36.36,0,0,1,.364.364A.365.365,0,0,1,36.652,90.228Z" transform="translate(-5 -89.5)"/>
    </g>
    <g id="Grupo_1158414" data-name="Grupo 1158414" transform="translate(17.268 29.743)">
      <path id="Trazado_992542" data-name="Trazado 992542" d="M177.34,255.68a3.74,3.74,0,1,1,3.74-3.74A3.743,3.743,0,0,1,177.34,255.68Zm0-6.745a3.009,3.009,0,1,0,3.012,3.005A3.018,3.018,0,0,0,177.34,248.935Z" transform="translate(-173.6 -248.2)"/>
    </g>
    <g id="Grupo_1158415" data-name="Grupo 1158415" transform="translate(14.954 27.436)">
      <path id="Trazado_992543" data-name="Trazado 992543" d="M147.854,228.608a6.054,6.054,0,1,1,6.054-6.054A6.059,6.059,0,0,1,147.854,228.608Zm0-11.387a5.326,5.326,0,1,0,5.326,5.326A5.333,5.333,0,0,0,147.854,217.22Z" transform="translate(-141.8 -216.5)"/>
    </g>
    <g id="Grupo_1158416" data-name="Grupo 1158416" transform="translate(10.981 23.456)">
      <path id="Trazado_992544" data-name="Trazado 992544" d="M98.937,181.853h-3.42a.36.36,0,0,1-.364-.364v-1.608A8.327,8.327,0,0,1,93,178.986l-1.135,1.135a.36.36,0,0,1-.517,0l-2.416-2.416a.374.374,0,0,1,0-.517l1.135-1.135a8.327,8.327,0,0,1-.895-2.154H87.564a.36.36,0,0,1-.364-.364v-3.42a.36.36,0,0,1,.364-.364h1.608a8.326,8.326,0,0,1,.895-2.154l-1.135-1.135a.374.374,0,0,1,0-.517l2.416-2.416a.374.374,0,0,1,.517,0L93,164.667a8.327,8.327,0,0,1,2.154-.895v-1.608a.36.36,0,0,1,.364-.364h3.42a.36.36,0,0,1,.364.364v1.615a8.325,8.325,0,0,1,2.154.895l1.135-1.135a.374.374,0,0,1,.517,0l2.416,2.416a.36.36,0,0,1,0,.517l-1.135,1.135a8.326,8.326,0,0,1,.895,2.154h1.608a.36.36,0,0,1,.364.364v3.42a.36.36,0,0,1-.364.364h-1.608a8.327,8.327,0,0,1-.895,2.154l1.135,1.135a.36.36,0,0,1,0,.517l-2.416,2.416a.36.36,0,0,1-.517,0l-1.135-1.135a8.326,8.326,0,0,1-2.154.895V181.5A.359.359,0,0,1,98.937,181.853Zm-3.056-.728h2.692V179.59a.36.36,0,0,1,.284-.357,7.4,7.4,0,0,0,2.452-1.019.353.353,0,0,1,.451.051l1.084,1.084,1.906-1.906-1.084-1.077a.365.365,0,0,1-.051-.451,7.556,7.556,0,0,0,1.019-2.452.36.36,0,0,1,.357-.284h1.535v-2.692H104.99a.36.36,0,0,1-.357-.284,7.4,7.4,0,0,0-1.019-2.452.353.353,0,0,1,.051-.451l1.084-1.084-1.906-1.906-1.084,1.084a.365.365,0,0,1-.451.051,7.558,7.558,0,0,0-2.452-1.019.36.36,0,0,1-.284-.357v-1.535H95.881v1.535a.36.36,0,0,1-.284.357,7.4,7.4,0,0,0-2.452,1.019.353.353,0,0,1-.451-.051l-1.084-1.084L89.7,166.217l1.084,1.084a.365.365,0,0,1,.051.451,7.556,7.556,0,0,0-1.019,2.452.36.36,0,0,1-.357.284H87.928v2.692h1.535a.36.36,0,0,1,.357.284,7.4,7.4,0,0,0,1.019,2.452.353.353,0,0,1-.051.451L89.7,177.451l1.906,1.906,1.084-1.084a.365.365,0,0,1,.451-.051,7.556,7.556,0,0,0,2.452,1.019.36.36,0,0,1,.284.357Z" transform="translate(-87.2 -161.8)"/>
    </g>
    <g id="Grupo_1158417" data-name="Grupo 1158417" transform="translate(19.216 32.268)">
      <path id="Trazado_992545" data-name="Trazado 992545" d="M201.519,285.709a.341.341,0,0,1-.255-.109l-.786-.786a.374.374,0,0,1,0-.517.36.36,0,0,1,.517,0l.531.531,1.819-1.819a.365.365,0,0,1,.517.517l-2.081,2.074A.369.369,0,0,1,201.519,285.709Z" transform="translate(-200.375 -282.9)"/>
    </g>
    <g id="Grupo_1158418" data-name="Grupo 1158418" transform="translate(7.525 20.822)">
      <path id="Trazado_992546" data-name="Trazado 992546" d="M42.974,126.328h-2.91a.364.364,0,0,1,0-.728h2.91a.36.36,0,0,1,.364.364A.365.365,0,0,1,42.974,126.328Z" transform="translate(-39.7 -125.6)"/>
    </g>
    <g id="Grupo_1158419" data-name="Grupo 1158419" transform="translate(7.525 22.685)">
      <path id="Trazado_992547" data-name="Trazado 992547" d="M42.974,151.928h-2.91a.364.364,0,1,1,0-.728h2.91a.36.36,0,0,1,.364.364A.365.365,0,0,1,42.974,151.928Z" transform="translate(-39.7 -151.2)"/>
    </g>
  </g>
</svg>
