<svg xmlns="http://www.w3.org/2000/svg" xmlns:xlink="http://www.w3.org/1999/xlink" width="505" height="421" viewBox="0 0 505 421">
  <defs>
    <clipPath id="clip-path">
      <rect id="Rectángulo_412379" data-name="Rectángulo 412379" width="505" height="421" transform="translate(915 282)" fill="#fff" stroke="#707070" stroke-width="1" opacity="0.26"/>
    </clipPath>
    <clipPath id="clip-path-2">
      <rect id="Rectángulo_412377" data-name="Rectángulo 412377" width="1044.868" height="686.59" fill="none"/>
    </clipPath>
    <clipPath id="clip-path-3">
      <rect id="Rectángulo_412363" data-name="Rectángulo 412363" width="514.904" height="399.409" fill="#c5b4fe"/>
    </clipPath>
    <clipPath id="clip-path-4">
      <rect id="Rectángulo_412364" data-name="Rectángulo 412364" width="47.218" height="47.217" fill="#c5b4fe"/>
    </clipPath>
    <clipPath id="clip-path-5">
      <rect id="Rectángulo_412365" data-name="Rectángulo 412365" width="29.984" height="29.985" fill="#c5b4fe"/>
    </clipPath>
    <clipPath id="clip-path-6">
      <rect id="Rectángulo_412366" data-name="Rectángulo 412366" width="20.406" height="20.404" fill="#c5b4fe"/>
    </clipPath>
    <clipPath id="clip-path-7">
      <rect id="Rectángulo_412367" data-name="Rectángulo 412367" width="140.426" height="122.562" fill="none"/>
    </clipPath>
    <clipPath id="clip-path-8">
      <rect id="Rectángulo_412369" data-name="Rectángulo 412369" width="129.339" height="89.308" fill="none"/>
    </clipPath>
    <clipPath id="clip-path-11">
      <rect id="Rectángulo_412374" data-name="Rectángulo 412374" width="39.611" height="15.829" fill="none"/>
    </clipPath>
    <clipPath id="clip-path-12">
      <rect id="Rectángulo_412375" data-name="Rectángulo 412375" width="7.979" height="15.207" fill="none"/>
    </clipPath>
    <clipPath id="clip-path-13">
      <rect id="Rectángulo_412376" data-name="Rectángulo 412376" width="9.437" height="4.149" fill="none"/>
    </clipPath>
  </defs>
  <g id="Enmascarar_grupo_1098792" data-name="Enmascarar grupo 1098792" transform="translate(-915 -282)" clip-path="url(#clip-path)">
    <g id="Grupo_1164437" data-name="Grupo 1164437" transform="translate(440.462 170.092)">
      <g id="Grupo_1164436" data-name="Grupo 1164436">
        <g id="Grupo_1164435" data-name="Grupo 1164435" clip-path="url(#clip-path-2)">
          <g id="Grupo_1164404" data-name="Grupo 1164404" transform="translate(475.977 119.453)" opacity="0.41">
            <g id="Grupo_1164403" data-name="Grupo 1164403" transform="translate(-11.343)">
              <g id="Grupo_1164402" data-name="Grupo 1164402" clip-path="url(#clip-path-3)">
                <path id="Trazado_1000115" data-name="Trazado 1000115" d="M34.022,361.592c-2.844-63.506,28.6-118.049,76.052-148.786a35.354,35.354,0,0,0,15.842-25.78q.1-.854.2-1.712C134.821,115.586,199.99,66.6,269.4,76.048c66.4,9.034,114.2,44.121,107.135,111.688-.032.317-.069.78-.108,1.365a32.267,32.267,0,0,0,31.612,34.329q5.783.136,11.645.747c79.214,8.278,136.675,79.464,128.24,158.938a144.081,144.081,0,0,1-46.073,91.176H88.941c-31.388-30.038-53.083-71.707-54.919-112.7" transform="translate(-33.845 -74.882)" fill="#c5b4fe"/>
              </g>
            </g>
          </g>
          <g id="Grupo_1164407" data-name="Grupo 1164407" transform="translate(912.163 190.356)" opacity="0.63">
            <g id="Grupo_1164406" data-name="Grupo 1164406">
              <g id="Grupo_1164405" data-name="Grupo 1164405" clip-path="url(#clip-path-4)">
                <path id="Trazado_1000116" data-name="Trazado 1000116" d="M53.589,142.937A23.609,23.609,0,1,0,77.2,119.328a23.609,23.609,0,0,0-23.609,23.609" transform="translate(-53.589 -119.33)" fill="#c5b4fe"/>
              </g>
            </g>
          </g>
          <g id="Grupo_1164410" data-name="Grupo 1164410" transform="translate(520.63 132.743)" opacity="0.63">
            <g id="Grupo_1164409" data-name="Grupo 1164409">
              <g id="Grupo_1164408" data-name="Grupo 1164408" clip-path="url(#clip-path-5)">
                <path id="Trazado_1000117" data-name="Trazado 1000117" d="M309.835,98.2a14.992,14.992,0,1,0,14.992-14.992A14.992,14.992,0,0,0,309.835,98.2" transform="translate(-309.835 -83.213)" fill="#c5b4fe"/>
              </g>
            </g>
          </g>
          <g id="Grupo_1164413" data-name="Grupo 1164413" transform="translate(478.361 213.121)" opacity="0.63">
            <g id="Grupo_1164412" data-name="Grupo 1164412">
              <g id="Grupo_1164411" data-name="Grupo 1164411" clip-path="url(#clip-path-6)">
                <path id="Trazado_1000118" data-name="Trazado 1000118" d="M342.337,143.8a10.2,10.2,0,1,0,10.2-10.2,10.2,10.2,0,0,0-10.2,10.2" transform="translate(-342.337 -133.601)" fill="#c5b4fe"/>
              </g>
            </g>
          </g>
          <path id="Trazado_1000119" data-name="Trazado 1000119" d="M57.744,356.247c-2.426-54.161,24.389-100.679,64.86-126.893a30.152,30.152,0,0,0,13.513-21.985q.081-.73.172-1.46c7.421-59.468,63-101.244,122.2-93.19,56.627,7.707,97.391,37.628,91.371,95.254-.029.271-.061.665-.094,1.165a27.518,27.518,0,0,0,26.961,29.277q4.934.12,9.932.638c67.557,7.059,116.564,67.771,109.37,135.551a122.879,122.879,0,0,1-39.293,77.759H104.581c-26.769-25.618-45.271-61.156-46.837-96.115" transform="translate(456.268 66.501)" fill="#c5b4fe"/>
          <path id="Trazado_1000120" data-name="Trazado 1000120" d="M43.872,327.191H531.644a1.405,1.405,0,1,0,0-2.811H43.872a1.405,1.405,0,1,0,0,2.811" transform="translate(444.075 193.077)" fill="#243762"/>
          <path id="Trazado_1000121" data-name="Trazado 1000121" d="M420.432,216.079V205.921c0-2.966-3.13-5.368-6.989-5.368H262.18c-3.86,0-6.99,2.4-6.99,5.368v100.44c0,2.964,3.13,5.366,6.99,5.366H413.444c3.859,0,6.989-2.4,6.989-5.366V290.239" transform="translate(217.352 119.373)" fill="#fff"/>
          <path id="Trazado_1000122" data-name="Trazado 1000122" d="M420.432,216.079V205.921c0-2.966-3.13-5.368-6.989-5.368H262.18c-3.86,0-6.99,2.4-6.99,5.368v100.44c0,2.964,3.13,5.366,6.99,5.366H413.444c3.859,0,6.989-2.4,6.989-5.366V290.239" transform="translate(217.352 119.373)" fill="none" stroke="#243762" stroke-miterlimit="10" stroke-width="1"/>
          <path id="Trazado_1000123" data-name="Trazado 1000123" d="M420.432,221.71V205.919c0-2.964-3.13-5.366-6.989-5.366H262.18c-3.86,0-6.99,2.4-6.99,5.366v15.1" transform="translate(217.352 119.373)" fill="#c5d9ff"/>
          <path id="Trazado_1000124" data-name="Trazado 1000124" d="M420.432,221.71V205.919c0-2.964-3.13-5.366-6.989-5.366H262.18c-3.86,0-6.99,2.4-6.99,5.366v15.1" transform="translate(217.352 119.373)" fill="none" stroke="#243762" stroke-miterlimit="10" stroke-width="1"/>
          <path id="Trazado_1000125" data-name="Trazado 1000125" d="M255.19,213.384h0Z" transform="translate(218.351 127.01)" fill="#f7a9b4"/>
          <path id="Trazado_1000126" data-name="Trazado 1000126" d="M255.19,213.384h0Z" transform="translate(218.351 127.01)" fill="none" stroke="#243762" stroke-miterlimit="10" stroke-width="1"/>
          <path id="Trazado_1000127" data-name="Trazado 1000127" d="M261.038,208.509a2.6,2.6,0,1,0,2.6-2.6A2.6,2.6,0,0,0,261.038,208.509Z" transform="translate(362.222 122.563)" fill="none" stroke="#fff" stroke-miterlimit="10" stroke-width="1"/>
          <path id="Trazado_1000128" data-name="Trazado 1000128" d="M267.148,208.509a2.6,2.6,0,1,0,2.6-2.6A2.6,2.6,0,0,0,267.148,208.509Z" transform="translate(346.365 122.563)" fill="none" stroke="#fff" stroke-miterlimit="10" stroke-width="1"/>
          <path id="Trazado_1000129" data-name="Trazado 1000129" d="M273.142,208.509a2.6,2.6,0,1,0,2.6-2.6A2.6,2.6,0,0,0,273.142,208.509Z" transform="translate(330.81 122.563)" fill="none" stroke="#fff" stroke-miterlimit="10" stroke-width="1"/>
          <path id="Trazado_1000130" data-name="Trazado 1000130" d="M290.806,250.759V224.205a26.554,26.554,0,1,1-26.554,26.554Z" transform="translate(305.969 133.451)" fill="#af9cda"/>
          <path id="Trazado_1000131" data-name="Trazado 1000131" d="M282.731,247.484a22.689,22.689,0,0,1,22.689-22.689v22.689Z" transform="translate(288.431 133.802)" fill="#f7a9b4"/>
          <line id="Línea_998" data-name="Línea 998" x1="56.302" transform="translate(497.664 368.337)" fill="#f7a9b4"/>
          <line id="Línea_999" data-name="Línea 999" x1="56.302" transform="translate(497.664 368.337)" fill="none" stroke="#243762" stroke-linecap="round" stroke-miterlimit="10" stroke-width="1"/>
          <line id="Línea_1000" data-name="Línea 1000" x1="28.151" transform="translate(525.815 394.234)" fill="#f7a9b4"/>
          <line id="Línea_1001" data-name="Línea 1001" x1="28.151" transform="translate(525.815 394.234)" fill="none" stroke="#243762" stroke-linecap="round" stroke-miterlimit="10" stroke-width="1"/>
          <line id="Línea_1002" data-name="Línea 1002" x1="21.019" transform="translate(532.947 381.489)" fill="#f7a9b4"/>
          <line id="Línea_1003" data-name="Línea 1003" x1="21.019" transform="translate(532.947 381.489)" fill="none" stroke="#243762" stroke-linecap="round" stroke-miterlimit="10" stroke-width="1"/>
          <line id="Línea_1004" data-name="Línea 1004" x1="21.02" transform="translate(497.663 381.489)" fill="#f7a9b4"/>
          <line id="Línea_1005" data-name="Línea 1005" x1="21.02" transform="translate(497.663 381.489)" fill="none" stroke="#243762" stroke-linecap="round" stroke-miterlimit="10" stroke-width="1"/>
          <path id="Trazado_1000132" data-name="Trazado 1000132" d="M174.14,215.479H302.686a5.928,5.928,0,0,0,5.939-5.917V98.834a5.926,5.926,0,0,0-5.939-5.917H174.14a5.927,5.927,0,0,0-5.939,5.917V209.563a5.928,5.928,0,0,0,5.939,5.917" transform="translate(467.926 55.306)" fill="#fff"/>
          <g id="Grupo_1164416" data-name="Grupo 1164416" transform="translate(636.125 148.223)" opacity="0.36">
            <g id="Grupo_1164415" data-name="Grupo 1164415">
              <g id="Grupo_1164414" data-name="Grupo 1164414" clip-path="url(#clip-path-7)">
                <path id="Trazado_1000133" data-name="Trazado 1000133" d="M174.14,215.479H302.686a5.928,5.928,0,0,0,5.939-5.917V98.834a5.926,5.926,0,0,0-5.939-5.917H174.14a5.927,5.927,0,0,0-5.939,5.917V209.563a5.928,5.928,0,0,0,5.939,5.917" transform="translate(-168.199 -92.917)" fill="#ecf1f7"/>
              </g>
            </g>
          </g>
          <path id="Trazado_1000134" data-name="Trazado 1000134" d="M308.627,110.9V97.478c0-2.519-2.659-4.561-5.939-4.561H174.142c-3.281,0-5.941,2.042-5.941,4.561v12.834" transform="translate(467.924 55.306)" fill="#af9cda"/>
          <path id="Trazado_1000135" data-name="Trazado 1000135" d="M308.627,110.9V97.478c0-2.519-2.659-4.561-5.939-4.561H174.142c-3.281,0-5.941,2.042-5.941,4.561v12.834" transform="translate(467.924 55.306)" fill="none" stroke="#243762" stroke-miterlimit="10" stroke-width="1"/>
          <path id="Trazado_1000136" data-name="Trazado 1000136" d="M168.2,103.821h0Z" transform="translate(468.773 61.796)" fill="#f7a9b4"/>
          <path id="Trazado_1000137" data-name="Trazado 1000137" d="M168.2,103.821h0Z" transform="translate(468.773 61.796)" fill="none" stroke="#243762" stroke-miterlimit="10" stroke-width="1"/>
          <path id="Trazado_1000138" data-name="Trazado 1000138" d="M173.17,99.679a2.208,2.208,0,1,0,2.208-2.208A2.209,2.209,0,0,0,173.17,99.679Z" transform="translate(591.039 58.017)" fill="none" stroke="#fff" stroke-miterlimit="10" stroke-width="1"/>
          <path id="Trazado_1000139" data-name="Trazado 1000139" d="M178.362,99.679a2.208,2.208,0,1,0,2.208-2.208A2.209,2.209,0,0,0,178.362,99.679Z" transform="translate(577.564 58.017)" fill="none" stroke="#fff" stroke-miterlimit="10" stroke-width="1"/>
          <path id="Trazado_1000140" data-name="Trazado 1000140" d="M183.456,99.679a2.208,2.208,0,1,0,2.208-2.208A2.208,2.208,0,0,0,183.456,99.679Z" transform="translate(564.344 58.017)" fill="none" stroke="#fff" stroke-miterlimit="10" stroke-width="1"/>
          <g id="Grupo_1164419" data-name="Grupo 1164419" transform="translate(641.669 173.906)" opacity="0.31">
            <g id="Grupo_1164418" data-name="Grupo 1164418">
              <g id="Grupo_1164417" data-name="Grupo 1164417" clip-path="url(#clip-path-8)">
                <path id="Rectángulo_412368" data-name="Rectángulo 412368" d="M3.021,0h121.7a3.022,3.022,0,0,1,3.022,3.022v81.67a3.021,3.021,0,0,1-3.021,3.021H3.021A3.021,3.021,0,0,1,0,84.692V3.021A3.021,3.021,0,0,1,3.021,0Z" transform="translate(0.798 0.797)" fill="none" stroke="#243762" stroke-miterlimit="10" stroke-width="1"/>
                <path id="Trazado_1000141" data-name="Trazado 1000141" d="M187.674,173.091h80.768V122.406H187.674Z" transform="translate(-164.624 -101.048)" fill="none" stroke="#243762" stroke-miterlimit="10" stroke-width="1"/>
                <line id="Línea_1006" data-name="Línea 1006" y1="49.862" x2="78.912" transform="translate(24.905 21.357)" fill="none" stroke="#243762" stroke-miterlimit="10" stroke-width="1"/>
                <line id="Línea_1007" data-name="Línea 1007" x1="80.768" y1="50.685" transform="translate(23.05 21.358)" fill="none" stroke="#243762" stroke-miterlimit="10" stroke-width="1"/>
              </g>
            </g>
          </g>
          <path id="Trazado_1000142" data-name="Trazado 1000142" d="M202.668,356.091H331.214a5.929,5.929,0,0,0,5.941-5.917V239.446a5.928,5.928,0,0,0-5.941-5.917H202.668a5.927,5.927,0,0,0-5.939,5.917V350.175a5.928,5.928,0,0,0,5.939,5.917" transform="translate(393.888 139.001)" fill="#fff"/>
          <g id="Grupo_1164422" data-name="Grupo 1164422" transform="translate(590.617 372.53)" opacity="0.36">
            <g id="Grupo_1164421" data-name="Grupo 1164421">
              <g id="Grupo_1164420" data-name="Grupo 1164420" clip-path="url(#clip-path-7)">
                <path id="Trazado_1000143" data-name="Trazado 1000143" d="M202.668,356.091H331.214a5.929,5.929,0,0,0,5.941-5.917V239.446a5.928,5.928,0,0,0-5.941-5.917H202.668a5.927,5.927,0,0,0-5.939,5.917V350.175a5.928,5.928,0,0,0,5.939,5.917" transform="translate(-196.729 -233.529)" fill="#ecf1f7"/>
              </g>
            </g>
          </g>
          <path id="Trazado_1000144" data-name="Trazado 1000144" d="M337.155,251.509V238.09c0-2.519-2.659-4.561-5.939-4.561H202.668c-3.28,0-5.939,2.042-5.939,4.561v12.834" transform="translate(393.888 139.001)" fill="#af9cda"/>
          <path id="Trazado_1000145" data-name="Trazado 1000145" d="M337.155,251.509V238.09c0-2.519-2.659-4.561-5.939-4.561H202.668c-3.28,0-5.939,2.042-5.939,4.561v12.834" transform="translate(393.888 139.001)" fill="none" stroke="#243762" stroke-miterlimit="10" stroke-width="1"/>
          <path id="Trazado_1000146" data-name="Trazado 1000146" d="M196.729,244.433h0Z" transform="translate(394.737 145.491)" fill="#f7a9b4"/>
          <path id="Trazado_1000147" data-name="Trazado 1000147" d="M196.729,244.433h0Z" transform="translate(394.737 145.491)" fill="none" stroke="#243762" stroke-miterlimit="10" stroke-width="1"/>
          <circle id="Elipse_12316" data-name="Elipse 12316" cx="2.208" cy="2.208" r="2.208" transform="translate(718.699 379.794)" fill="none" stroke="#fff" stroke-miterlimit="10" stroke-width="1"/>
          <circle id="Elipse_12317" data-name="Elipse 12317" cx="2.208" cy="2.208" r="2.208" transform="translate(710.417 379.794)" fill="none" stroke="#fff" stroke-miterlimit="10" stroke-width="1"/>
          <circle id="Elipse_12318" data-name="Elipse 12318" cx="2.208" cy="2.208" r="2.208" transform="translate(702.29 379.794)" fill="none" stroke="#fff" stroke-miterlimit="10" stroke-width="1"/>
          <g id="Grupo_1164425" data-name="Grupo 1164425" transform="translate(596.16 398.213)" opacity="0.31">
            <g id="Grupo_1164424" data-name="Grupo 1164424">
              <g id="Grupo_1164423" data-name="Grupo 1164423" clip-path="url(#clip-path-8)">
                <path id="Rectángulo_412371" data-name="Rectángulo 412371" d="M3.021,0h121.7a3.022,3.022,0,0,1,3.022,3.022V84.691a3.022,3.022,0,0,1-3.022,3.022H3.022A3.022,3.022,0,0,1,0,84.691V3.021A3.021,3.021,0,0,1,3.021,0Z" transform="translate(0.797 0.797)" fill="none" stroke="#243762" stroke-miterlimit="10" stroke-width="1"/>
                <path id="Trazado_1000148" data-name="Trazado 1000148" d="M210.8,313.7H242.47V263.018H210.8Z" transform="translate(-130.029 -241.66)" fill="none" stroke="#243762" stroke-miterlimit="10" stroke-width="1"/>
                <line id="Línea_1008" data-name="Línea 1008" y1="49.862" x2="30.947" transform="translate(81.495 21.357)" fill="none" stroke="#243762" stroke-miterlimit="10" stroke-width="1"/>
                <line id="Línea_1009" data-name="Línea 1009" x1="31.673" y1="50.685" transform="translate(80.769 21.358)" fill="none" stroke="#243762" stroke-miterlimit="10" stroke-width="1"/>
                <path id="Trazado_1000149" data-name="Trazado 1000149" d="M291.8,292.458V260.784H241.113v31.673Z" transform="translate(-227.719 -242.989)" fill="none" stroke="#243762" stroke-miterlimit="10" stroke-width="1"/>
                <line id="Línea_1010" data-name="Línea 1010" x1="49.862" y1="30.946" transform="translate(13.393 17.796)" fill="none" stroke="#243762" stroke-miterlimit="10" stroke-width="1"/>
                <line id="Línea_1011" data-name="Línea 1011" x1="50.685" y2="31.673" transform="translate(13.394 17.795)" fill="none" stroke="#243762" stroke-miterlimit="10" stroke-width="1"/>
                <path id="Trazado_1000150" data-name="Trazado 1000150" d="M291.8,301.7V285.863H241.113V301.7Z" transform="translate(-227.719 -228.062)" fill="none" stroke="#243762" stroke-miterlimit="10" stroke-width="1"/>
                <line id="Línea_1012" data-name="Línea 1012" x1="49.862" y1="15.474" transform="translate(13.393 57.801)" fill="none" stroke="#243762" stroke-miterlimit="10" stroke-width="1"/>
                <line id="Línea_1013" data-name="Línea 1013" x1="50.685" y2="15.837" transform="translate(13.394 57.802)" fill="none" stroke="#243762" stroke-miterlimit="10" stroke-width="1"/>
              </g>
            </g>
          </g>
          <path id="Trazado_1000151" data-name="Trazado 1000151" d="M200.445,218.793,212.457,230.8a16.988,16.988,0,1,1,0-24.024Z" transform="translate(539.757 120.118)" fill="#af9cda"/>
          <path id="Trazado_1000152" data-name="Trazado 1000152" d="M289.026,110.731V84.177a26.554,26.554,0,1,1-26.554,26.554Z" transform="translate(310.588 50.104)" fill="#af9cda"/>
          <path id="Trazado_1000153" data-name="Trazado 1000153" d="M280.951,107.456A22.689,22.689,0,0,1,303.64,84.767v22.689Z" transform="translate(293.05 50.455)" fill="#f7a9b4"/>
          <path id="Trazado_1000154" data-name="Trazado 1000154" d="M325.133,184.529a26.43,26.43,0,0,0-21.805-26.01l1.027-6.055a32.523,32.523,0,0,1,26.632,37.5l-6.247-1.059a26.361,26.361,0,0,0,.392-4.374" transform="translate(229.543 90.749)" fill="#af9cda"/>
          <path id="Trazado_1000155" data-name="Trazado 1000155" d="M343.839,175.732a32.674,32.674,0,0,1,.443-6.572,32.674,32.674,0,0,0-.443,6.572" transform="translate(152.118 100.687)" fill="#fff"/>
          <path id="Trazado_1000156" data-name="Trazado 1000156" d="M308.82,197.375a26.426,26.426,0,0,0,26.05-22.068l6.247,1.059A32.523,32.523,0,0,1,303.618,203l1.014-5.987a26.435,26.435,0,0,0,4.187.364" transform="translate(219.414 104.346)" fill="#fff"/>
          <path id="Trazado_1000157" data-name="Trazado 1000157" d="M320.775,179.269h0a32.523,32.523,0,0,1,37.5-26.634l-1.027,6.055a26.417,26.417,0,1,0-8.825,52.09l-1.013,5.987a32.487,32.487,0,0,1-26.634-37.5" transform="translate(175.625 90.576)" fill="#f7a9b4"/>
          <path id="Trazado_1000158" data-name="Trazado 1000158" d="M397.573,273.665l-40.63,41.913-44.674-41.913-52.4,40.63" transform="translate(232.741 162.891)" fill="none" stroke="#243762" stroke-linecap="round" stroke-miterlimit="10" stroke-width="1"/>
          <path id="Trazado_1000159" data-name="Trazado 1000159" d="M252.9,277.816a11.126,11.126,0,1,0,11.125-11.125A11.124,11.124,0,0,0,252.9,277.816" transform="translate(366.291 158.74)" fill="#f7a9b4"/>
          <path id="Trazado_1000160" data-name="Trazado 1000160" d="M306.373,277.816A11.126,11.126,0,1,0,317.5,266.691a11.125,11.125,0,0,0-11.125,11.125" transform="translate(227.512 158.74)" fill="#f7a9b4"/>
          <path id="Trazado_1000161" data-name="Trazado 1000161" d="M278.368,303.286a11.126,11.126,0,1,0,11.125-11.125,11.124,11.124,0,0,0-11.125,11.125" transform="translate(300.191 173.9)" fill="#af9cda"/>
          <path id="Trazado_1000162" data-name="Trazado 1000162" d="M339.22,303.286a11.125,11.125,0,1,0,11.125-11.125,11.124,11.124,0,0,0-11.125,11.125" transform="translate(142.268 173.9)" fill="#af9cda"/>
          <path id="Trazado_1000163" data-name="Trazado 1000163" d="M256.651,212.333a42.124,42.124,0,0,0-.081-18.849l-7.908-17.158a6.007,6.007,0,0,0-7.175-3.288l-.128.04c-4.652,1.519-9.436-1.042-13.845-2.2-2.5-.656-5.258-.892-7.6.211a12,12,0,0,0-4.416,4.154c-3.219,4.559-5.239,9.782-7.923,14.644-2.38,4.312-6.13,9.3-2.292,14.008a10.1,10.1,0,0,0,4.467,3.06l3.034,1.082-3.218,21.508,44.389-2.313Z" transform="translate(462.344 101.38)" fill="#f9d9eb"/>
          <path id="Trazado_1000164" data-name="Trazado 1000164" d="M215.5,223.2H344.047c3.28,0,5.939-2.042,5.939-4.561V133.288c0-2.519-2.659-4.561-5.939-4.561H215.5c-3.28,0-5.939,2.042-5.939,4.561v85.355c0,2.519,2.659,4.561,5.939,4.561" transform="translate(360.585 76.621)" fill="#fff"/>
          <rect id="Rectángulo_412373" data-name="Rectángulo 412373" width="35.91" height="43.133" transform="translate(656.855 237.573)" fill="none" stroke="#243762" stroke-miterlimit="10" stroke-width="1"/>
          <line id="Línea_1014" data-name="Línea 1014" x1="35.91" y2="43.133" transform="translate(656.855 237.573)" fill="none" stroke="#243762" stroke-miterlimit="10" stroke-width="1"/>
          <line id="Línea_1015" data-name="Línea 1015" x2="35.91" y2="43.133" transform="translate(656.855 237.573)" fill="none" stroke="#243762" stroke-miterlimit="10" stroke-width="1"/>
          <path id="Trazado_1000165" data-name="Trazado 1000165" d="M349.988,146.707V133.288c0-2.519-2.659-4.561-5.939-4.561H215.5c-3.281,0-5.941,2.042-5.941,4.561v12.834" transform="translate(360.584 76.621)" fill="#f9d9eb"/>
          <path id="Trazado_1000166" data-name="Trazado 1000166" d="M349.988,146.707V133.288c0-2.519-2.659-4.561-5.939-4.561H215.5c-3.281,0-5.941,2.042-5.941,4.561v12.834" transform="translate(360.584 76.621)" fill="none" stroke="#243762" stroke-miterlimit="10" stroke-width="1"/>
          <path id="Trazado_1000167" data-name="Trazado 1000167" d="M209.562,139.631h0Z" transform="translate(361.432 83.111)" fill="#f7a9b4"/>
          <path id="Trazado_1000168" data-name="Trazado 1000168" d="M209.562,139.631h0Z" transform="translate(361.432 83.111)" fill="none" stroke="#243762" stroke-miterlimit="10" stroke-width="1"/>
          <path id="Trazado_1000169" data-name="Trazado 1000169" d="M214.531,135.489a2.208,2.208,0,1,0,2.208-2.208A2.207,2.207,0,0,0,214.531,135.489Z" transform="translate(483.698 79.331)" fill="none" stroke="#243762" stroke-miterlimit="10" stroke-width="1"/>
          <path id="Trazado_1000170" data-name="Trazado 1000170" d="M219.723,135.489a2.209,2.209,0,1,0,2.209-2.208A2.21,2.21,0,0,0,219.723,135.489Z" transform="translate(470.222 79.331)" fill="none" stroke="#243762" stroke-miterlimit="10" stroke-width="1"/>
          <path id="Trazado_1000171" data-name="Trazado 1000171" d="M224.818,135.489a2.208,2.208,0,1,0,2.208-2.208A2.208,2.208,0,0,0,224.818,135.489Z" transform="translate(457.001 79.331)" fill="none" stroke="#243762" stroke-miterlimit="10" stroke-width="1"/>
          <line id="Línea_1016" data-name="Línea 1016" x1="56.302" transform="translate(589.105 246.32)" fill="#f7a9b4"/>
          <line id="Línea_1017" data-name="Línea 1017" x1="56.302" transform="translate(589.105 246.32)" fill="none" stroke="#243762" stroke-linecap="round" stroke-miterlimit="10" stroke-width="1"/>
          <line id="Línea_1018" data-name="Línea 1018" x1="28.151" transform="translate(617.256 272.217)" fill="#f7a9b4"/>
          <line id="Línea_1019" data-name="Línea 1019" x1="28.151" transform="translate(617.256 272.217)" fill="none" stroke="#243762" stroke-linecap="round" stroke-miterlimit="10" stroke-width="1"/>
          <line id="Línea_1020" data-name="Línea 1020" x1="21.019" transform="translate(624.388 259.473)" fill="#f7a9b4"/>
          <line id="Línea_1021" data-name="Línea 1021" x1="21.019" transform="translate(624.388 259.473)" fill="none" stroke="#243762" stroke-linecap="round" stroke-miterlimit="10" stroke-width="1"/>
          <line id="Línea_1022" data-name="Línea 1022" x1="21.02" transform="translate(589.104 259.473)" fill="#f7a9b4"/>
          <line id="Línea_1023" data-name="Línea 1023" x1="21.02" transform="translate(589.104 259.473)" fill="none" stroke="#243762" stroke-linecap="round" stroke-miterlimit="10" stroke-width="1"/>
          <path id="Trazado_1000172" data-name="Trazado 1000172" d="M232.518,189.611s3.107,5.464-3.257,6.942" transform="translate(445.871 112.86)" fill="none" stroke="#243762" stroke-linecap="round" stroke-miterlimit="10" stroke-width="1"/>
          <path id="Trazado_1000173" data-name="Trazado 1000173" d="M203.777,206.83c1.938-12.293,9.5-15.175,9.5-15.175s-1.688-3.824-3.911-9.322a10.4,10.4,0,0,1,.241-8.858,2.425,2.425,0,0,1,.863-.936c1.181-.737,4.111-1.806,7.214,2.86a61.169,61.169,0,0,1,4.57,8.766,47.946,47.946,0,0,1,4.144,22.118,29.69,29.69,0,0,1-.809,5.577c-2,7.788-21.813-5.028-21.813-5.028" transform="translate(493.322 102.307)" fill="#f9d9eb"/>
          <path id="Trazado_1000174" data-name="Trazado 1000174" d="M206.424,206.83c1.938-12.293,9.5-15.175,9.5-15.175s-1.688-3.824-3.911-9.322a10.4,10.4,0,0,1,.241-8.858,2.425,2.425,0,0,1,.863-.936c1.18-.737,4.111-1.806,7.214,2.86a61.165,61.165,0,0,1,4.57,8.766" transform="translate(490.676 102.307)" fill="#f9d9eb"/>
          <path id="Trazado_1000175" data-name="Trazado 1000175" d="M206.424,206.83c1.938-12.293,9.5-15.175,9.5-15.175s-1.688-3.824-3.911-9.322a10.4,10.4,0,0,1,.241-8.858,2.425,2.425,0,0,1,.863-.936c1.18-.737,4.111-1.806,7.214,2.86a61.165,61.165,0,0,1,4.57,8.766" transform="translate(490.676 102.307)" fill="none" stroke="#243762" stroke-linecap="round" stroke-miterlimit="10" stroke-width="1"/>
          <path id="Trazado_1000176" data-name="Trazado 1000176" d="M63.3,304.57c1.19-11.543,2.222-23.1,3.178-34.666.828-10.05,3.73-51.443,4.814-65.051a4.288,4.288,0,0,1,4.709-3.923l39.561,3.975a4.041,4.041,0,0,1,3.621,4.39l-6.912,75.65L169.244,241.7a17.762,17.762,0,0,1,3.594-3.112,45.208,45.208,0,0,1,24.316-7.242l76.122-.233c34.056,0,63.646,30.556,63.646,68.251l9.9,100.422H144.326l7.726-65.008c-13.681,5.207-34.178,14.767-48.852,15.3-7.223.265-14.352-1.887-20.907-4.932-6.089-2.83-12-6.638-15.582-12.32-5.365-8.523-4.387-18.736-3.406-28.261" transform="translate(598.295 119.584)" fill="#243762"/>
          <line id="Línea_1024" data-name="Línea 1024" x1="36.422" y1="2.442" transform="translate(668.68 336.468)" fill="none" stroke="#fff" stroke-linecap="round" stroke-miterlimit="10" stroke-width="1"/>
          <path id="Trazado_1000177" data-name="Trazado 1000177" d="M229.261,207.051a2.169,2.169,0,1,0,2.168-2.168A2.168,2.168,0,0,0,229.261,207.051Z" transform="translate(445.548 121.95)" fill="none" stroke="#fff" stroke-linecap="round" stroke-miterlimit="10" stroke-width="1"/>
          <line id="Línea_1025" data-name="Línea 1025" x2="9.275" y2="106.972" transform="translate(887.444 411.15)" fill="none" stroke="#fff" stroke-linecap="round" stroke-miterlimit="10" stroke-width="1"/>
          <line id="Línea_1026" data-name="Línea 1026" x1="10.618" y2="21.902" transform="translate(889.936 417.978)" fill="none" stroke="#fff" stroke-linecap="round" stroke-miterlimit="10" stroke-width="1"/>
          <line id="Línea_1027" data-name="Línea 1027" x1="11.267" y2="100.207" transform="translate(743.403 417.978)" fill="none" stroke="#fff" stroke-linecap="round" stroke-miterlimit="10" stroke-width="1"/>
          <path id="Trazado_1000178" data-name="Trazado 1000178" d="M82.656,237.571a20.228,20.228,0,0,1,5.826-12.341,52.289,52.289,0,0,0,14.63-31.919l1.329-13.628A36.876,36.876,0,0,1,119.1,153.723a48.064,48.064,0,0,1,53.047-9.358c1.031.459,2.028.964,3.009,1.487-.013-.357-.04-.71-.033-1.07a18.829,18.829,0,1,1,29.046,16.185c.517-.335,4.864,6.113,5.258,6.761a37.14,37.14,0,0,1,3.766,8.38c1.509,4.92,1.474,9.925,1.436,15.014q-.048,6.427-.338,12.848c-.166,3.674-.142,7.387,1.3,10.849,2.155,5.245,6.8,9.353,10.688,13.307,12,12.221,1.72,27.778-1.6,32.058-.033.041-.065.085-.1.128A25.428,25.428,0,0,1,204.636,270.6l-22.328.313c-1.4,0-2.68-.043-3.9-.105-12.6-.641-15.786-4.419-16.23-8.059-.1-.831-14.126-1.192-15.349-1.007-1.614.242-3.186.713-4.79,1.018-8.123,1.543-16.67-.881-24.8-1.4-5.44-.346-10.876-1.035-16.3-1.565a20.408,20.408,0,0,1-18.28-22.226" transform="translate(681.222 75.189)" fill="#243762"/>
          <path id="Trazado_1000179" data-name="Trazado 1000179" d="M110.153,200.109l8.246-35.553a32.2,32.2,0,0,1,1.514-4.685c8.337,9.008,28.861,24.972,58.363,6.493,0,0-8.1,13.065,6.893,23.477l-.016.072.169.04a13.024,13.024,0,1,1-5.885,25.375l-.169-.04-.094.407c-.368.514-1.126,1.6-2.064,3.05-.212.327-.432.673-.66,1.035-.027.043-.054.089-.081.131q-.3.486-.622,1.007c-.1.156-.195.325-.292.487-.15.25-.3.5-.453.759-.233.4-.467.806-.7,1.222l-.07.121c-.345.616-.689,1.251-1.029,1.9l-.037.072c-.279.534-.55,1.082-.818,1.63-.035.075-.073.145-.108.219-.025.051-.051.1-.075.153-.191.4-.368.81-.552,1.217-.092.207-.191.413-.281.622-.054.126-.107.252-.16.378-.262.624-.514,1.251-.74,1.874a24.352,24.352,0,0,0-1.326,5.124,33.357,33.357,0,0,0-.841,4.936c-.073,3.953,2.364,8.5,16.3,9.209,1.822,13.689-6.843,26.5-20.025,29.065-13.709,2.667-27.077-6.759-29.859-21.054l-4.047-20.8c-15.179-5.955-24.18-21.949-20.473-37.936" transform="translate(675.073 95.158)" fill="#f9d9eb"/>
          <g id="Grupo_1164428" data-name="Grupo 1164428" transform="translate(805.89 326.726)" opacity="0.46">
            <g id="Grupo_1164427" data-name="Grupo 1164427">
              <g id="Grupo_1164426" data-name="Grupo 1164426" clip-path="url(#clip-path-11)">
                <path id="Trazado_1000180" data-name="Trazado 1000180" d="M133.176,213.661a33.649,33.649,0,0,0,31.415-8.846,24.4,24.4,0,0,0-1.326,5.127,33.059,33.059,0,0,0-.841,4.936,27.155,27.155,0,0,1-16.357,5.752c-9.187.279-17.217-3.529-21.089-9.255a34.884,34.884,0,0,0,4.607,1.455Z" transform="translate(-124.98 -204.816)" fill="#ef92c7"/>
              </g>
            </g>
          </g>
          <g id="Grupo_1164431" data-name="Grupo 1164431" transform="translate(855.422 290.572)" opacity="0.46">
            <g id="Grupo_1164430" data-name="Grupo 1164430">
              <g id="Grupo_1164429" data-name="Grupo 1164429" clip-path="url(#clip-path-12)">
                <path id="Trazado_1000181" data-name="Trazado 1000181" d="M121.558,191.155h0c-.772,3.328-3.9,5.631-7.8,6.2l3.527-15.207c3.253,2.232,5.046,5.676,4.274,9" transform="translate(-113.757 -182.152)" fill="#ef92c7"/>
              </g>
            </g>
          </g>
          <path id="Trazado_1000182" data-name="Trazado 1000182" d="M112.133,182.526a4.427,4.427,0,0,1,3.182,5.653" transform="translate(750.501 108.643)" fill="none" stroke="#243762" stroke-linecap="round" stroke-miterlimit="10" stroke-width="0.5"/>
          <path id="Trazado_1000183" data-name="Trazado 1000183" d="M154.156,181.918h0a1.844,1.844,0,0,1-1.38-2.213l.834-3.592a1.844,1.844,0,1,1,3.592.833l-.834,3.592a1.844,1.844,0,0,1-2.213,1.38" transform="translate(643.983 103.976)" fill="#243762"/>
          <path id="Trazado_1000184" data-name="Trazado 1000184" d="M134.4,186.987h0a1.844,1.844,0,0,1-1.38-2.213l.834-3.592a1.844,1.844,0,0,1,3.592.833l-.834,3.592a1.844,1.844,0,0,1-2.213,1.38" transform="translate(695.254 106.993)" fill="#243762"/>
          <path id="Trazado_1000185" data-name="Trazado 1000185" d="M159.87,174.96a6.809,6.809,0,0,1-2.453-.554c-.841-.3-1.693-.576-2.441-.8s-1.621-.448-2.492-.656a6.635,6.635,0,0,1-2.342-.86c-.562-.429-.585-1.193.469-1.812a7.679,7.679,0,0,1,5.663-.228c2.477.737,4.01,2.171,4.412,3.2.44,1.061-.081,1.662-.817,1.71" transform="translate(645.12 100.976)" fill="#243762"/>
          <path id="Trazado_1000186" data-name="Trazado 1000186" d="M137.78,180.452a6.451,6.451,0,0,1-2.436-.678c-.825-.348-1.662-.675-2.4-.936s-1.6-.536-2.465-.79a6.246,6.246,0,0,1-2.3-1c-.53-.475-.49-1.284.63-1.9a7.522,7.522,0,0,1,5.749-.024c2.444.873,3.872,2.45,4.192,3.549.354,1.137-.227,1.755-.973,1.777" transform="translate(702.056 103.914)" fill="#243762"/>
          <path id="Trazado_1000187" data-name="Trazado 1000187" d="M149.5,195.988l-4.757-1.748a2.984,2.984,0,0,1-1.219-4.763,19.916,19.916,0,0,0,8.624-14.343l.279-2.57" transform="translate(664.659 102.713)" fill="none" stroke="#243762" stroke-linecap="round" stroke-miterlimit="10" stroke-width="1"/>
          <g id="Grupo_1164434" data-name="Grupo 1164434" transform="translate(811.148 318.007)" opacity="0.46">
            <g id="Grupo_1164433" data-name="Grupo 1164433">
              <g id="Grupo_1164432" data-name="Grupo 1164432" clip-path="url(#clip-path-13)">
                <path id="Trazado_1000188" data-name="Trazado 1000188" d="M149.49,203.493a.468.468,0,0,0,.514-.63,5.442,5.442,0,0,0-9.3-1.52.469.469,0,0,0,.724.6,4.5,4.5,0,0,1,7.7,1.257.469.469,0,0,0,.364.3" transform="translate(-140.597 -199.351)" fill="#ef92c7"/>
              </g>
            </g>
          </g>
          <path id="Trazado_1000189" data-name="Trazado 1000189" d="M153.093,191.122s-9.3,7.742-19.829,1.616" transform="translate(679.19 113.759)" fill="none" stroke="#f7a9b4" stroke-linecap="round" stroke-miterlimit="10" stroke-width="1"/>
          <path id="Trazado_1000190" data-name="Trazado 1000190" d="M123.706,186.418a13.241,13.241,0,1,0,13.24-13.242A13.24,13.24,0,0,0,123.706,186.418Z" transform="translate(697.342 103.078)" fill="none" stroke="#fff" stroke-linecap="round" stroke-miterlimit="10" stroke-width="1"/>
          <path id="Trazado_1000191" data-name="Trazado 1000191" d="M145.953,180.595a13.241,13.241,0,1,0,13.24-13.242A13.24,13.24,0,0,0,145.953,180.595Z" transform="translate(639.606 99.612)" fill="none" stroke="#fff" stroke-linecap="round" stroke-miterlimit="10" stroke-width="1"/>
          <line id="Línea_1028" data-name="Línea 1028" x1="9.803" y1="3.182" transform="translate(811.867 282.301)" fill="none" stroke="#fff" stroke-linecap="round" stroke-miterlimit="10" stroke-width="1"/>
          <line id="Línea_1029" data-name="Línea 1029" y1="6.494" x2="15.104" transform="translate(847.53 283.893)" fill="none" stroke="#fff" stroke-linecap="round" stroke-miterlimit="10" stroke-width="1"/>
          <path id="Trazado_1000192" data-name="Trazado 1000192" d="M138.376,309.942a28.276,28.276,0,0,0-35.565,5.285c-.064.072-.128.145-.19.219L88.763,331.429a3.794,3.794,0,0,0,.193,5.346l.7.652a3.851,3.851,0,0,0,5.427-.2l13.041-14.02,1.112,1.051-14.41,15.494a3.848,3.848,0,0,0,.2,5.425l.657.613a3.852,3.852,0,0,0,5.429-.2l14.359-15.438,1.113,1.053L103.61,345.158a3.855,3.855,0,0,0,.2,5.429l.659.613a3.848,3.848,0,0,0,5.425-.2l11.581-12.451a1.957,1.957,0,0,1,2.777-.089,1.271,1.271,0,0,1,.014,1.831l-6.166,6.022a4.712,4.712,0,0,0-.759,5.628,4.3,4.3,0,0,0,6.569.691l7.528-7.354a.046.046,0,0,1,.022-.013l11.629-3.643a60.824,60.824,0,0,1,21.02-2.584c22.537,1.046-8.282-18.776-25.731-29.1" transform="translate(732.832 182.088)" fill="#f9d9eb"/>
          <path id="Trazado_1000193" data-name="Trazado 1000193" d="M138.376,309.942a28.276,28.276,0,0,0-35.565,5.285c-.064.072-.128.145-.19.219L88.763,331.429a3.794,3.794,0,0,0,.193,5.346l.7.652a3.851,3.851,0,0,0,5.427-.2l13.041-14.02,1.112,1.051-14.41,15.494a3.848,3.848,0,0,0,.2,5.425l.657.613a3.852,3.852,0,0,0,5.429-.2l14.359-15.438,1.113,1.053L103.61,345.158a3.855,3.855,0,0,0,.2,5.429l.659.613a3.848,3.848,0,0,0,5.425-.2l11.581-12.451a1.957,1.957,0,0,1,2.777-.089,1.271,1.271,0,0,1,.014,1.831l-6.166,6.022a4.712,4.712,0,0,0-.759,5.628,4.3,4.3,0,0,0,6.569.691l7.528-7.354a.046.046,0,0,1,.022-.013l11.629-3.643a60.824,60.824,0,0,1,21.02-2.584C186.644,340.086,155.825,320.264,138.376,309.942Z" transform="translate(732.832 182.088)" fill="none" stroke="#243762" stroke-linejoin="round" stroke-width="1"/>
        </g>
      </g>
      <rect id="Rectángulo_412378" data-name="Rectángulo 412378" width="1044.868" height="686.59" fill="none"/>
    </g>
  </g>
</svg>
