<svg xmlns="http://www.w3.org/2000/svg" xmlns:xlink="http://www.w3.org/1999/xlink" width="110" height="110" viewBox="0 0 110 110">
  <defs>
    <filter id="Trazado_982547" x="0" y="0" width="110" height="110" filterUnits="userSpaceOnUse">
      <feOffset dy="3" input="SourceAlpha"/>
      <feGaussianBlur stdDeviation="3" result="blur"/>
      <feFlood flood-opacity="0.161"/>
      <feComposite operator="in" in2="blur"/>
      <feComposite in="SourceGraphic"/>
    </filter>
  </defs>
  <g id="Grupo_1164154" data-name="Grupo 1164154" transform="translate(-1392 -2894)">
    <g id="Grupo_1163922" data-name="Grupo 1163922" transform="translate(279.182 -7730)">
      <g id="Grupo_1162275" data-name="Grupo 1162275" transform="translate(312.818 6286)">
        <g id="Grupo_1157015" data-name="Grupo 1157015" transform="translate(0 3549)">
          <g id="Grupo_1155792" data-name="Grupo 1155792" transform="translate(-1 -3894.666)">
            <g id="Grupo_1154703" data-name="Grupo 1154703" transform="translate(0 1465.666)">
              <g id="Grupo_1150789" data-name="Grupo 1150789" transform="translate(3 2320)">
                <g id="Grupo_1154212" data-name="Grupo 1154212" transform="translate(-236 -5809)">
                  <g id="Grupo_1152583" data-name="Grupo 1152583" transform="translate(1043 6713)">
                    <g id="Grupo_1146973" data-name="Grupo 1146973" transform="translate(0 0)">
                      <g id="Grupo_1146954" data-name="Grupo 1146954">
                        <g transform="matrix(1, 0, 0, 1, -9, -6)" filter="url(#Trazado_982547)">
                          <g id="Trazado_982547-2" data-name="Trazado 982547" transform="translate(9 6)" fill="#f0ebfe">
                            <path d="M 46 90.49987030029297 C 39.99187850952148 90.49987030029297 34.16426849365234 89.32350921630859 28.67905426025391 87.00345611572266 C 23.38019943237305 84.76224517822266 18.62104034423828 81.55341339111328 14.53374671936035 77.46613311767578 C 10.44646644592285 73.37885284423828 7.237639904022217 68.61969757080078 4.996413230895996 63.32085418701172 C 2.676359891891479 57.83565521240234 1.5 52.008056640625 1.5 45.99993515014648 C 1.5 39.99181365966797 2.676359891891479 34.16421508789062 4.996413230895996 28.67901420593262 C 7.237639904022217 23.38017463684082 10.44646644592285 18.62101554870605 14.53374671936035 14.53373527526855 C 18.62104034423828 10.44645500183105 23.38019943237305 7.23762845993042 28.67905426025391 4.996415138244629 C 34.16426849365234 2.676361799240112 39.99187850952148 1.500001788139343 46 1.500001788139343 C 52.00812149047852 1.500001788139343 57.83573150634766 2.676361799240112 63.32094573974609 4.996415138244629 C 68.61979675292969 7.23762845993042 73.37895965576172 10.44645500183105 77.46625518798828 14.53373527526855 C 81.55353546142578 18.62101554870605 84.76235961914062 23.38017463684082 87.00358581542969 28.67901420593262 C 89.32363891601562 34.16421508789062 90.5 39.99181365966797 90.5 45.99993515014648 C 90.5 52.008056640625 89.32363891601562 57.83565521240234 87.00358581542969 63.32085418701172 C 84.76235961914062 68.61969757080078 81.55353546142578 73.37885284423828 77.46625518798828 77.46613311767578 C 73.37895965576172 81.55341339111328 68.61979675292969 84.76224517822266 63.32094573974609 87.00345611572266 C 57.83573150634766 89.32350921630859 52.00812149047852 90.49987030029297 46 90.49987030029297 Z" stroke="none"/>
                            <path d="M 46 2.999992370605469 C 40.1937141418457 2.999992370605469 34.56269836425781 4.136489868164062 29.26337051391602 6.377906799316406 C 24.14332580566406 8.543502807617188 19.54441070556641 11.64437866210938 15.59439849853516 15.59437561035156 C 11.64440155029297 19.54439544677734 8.54351806640625 24.14329528808594 6.377914428710938 29.26333618164062 C 4.136497497558594 34.56264877319336 3 40.19366455078125 3 45.99993515014648 C 3 51.80620574951172 4.136497497558594 57.43720626831055 6.377914428710938 62.73651885986328 C 8.54351806640625 67.8565673828125 11.64440155029297 72.45545959472656 15.59439849853516 76.40547943115234 C 19.54441070556641 80.35547637939453 24.14332580566406 83.45635223388672 29.26337051391602 85.6219482421875 C 34.56269836425781 87.86336517333984 40.1937141418457 88.99986267089844 46 88.99986267089844 C 51.8062858581543 88.99986267089844 57.43730163574219 87.86336517333984 62.73661422729492 85.6219482421875 C 67.85667419433594 83.45635223388672 72.45557403564453 80.35547637939453 76.40558624267578 76.40547943115234 C 80.35559844970703 72.45545959472656 83.45647430419922 67.8565673828125 85.6220703125 62.73651885986328 C 87.86350250244141 57.43720626831055 89 51.80620574951172 89 45.99993515014648 C 89 40.19366455078125 87.86350250244141 34.56264877319336 85.6220703125 29.26333618164062 C 83.45647430419922 24.14329528808594 80.35559844970703 19.54439544677734 76.40558624267578 15.59437561035156 C 72.45557403564453 11.64437866210938 67.85667419433594 8.543502807617188 62.73661422729492 6.377906799316406 C 57.43730163574219 4.136489868164062 51.8062858581543 2.999992370605469 46 2.999992370605469 M 46 -7.62939453125e-06 C 71.40509033203125 -7.62939453125e-06 92 20.59486389160156 92 45.99993515014648 C 92 71.40499114990234 71.40509033203125 91.99986267089844 46 91.99986267089844 C 20.59490203857422 91.99986267089844 0 71.40499114990234 0 45.99993515014648 C 0 20.59486389160156 20.59490203857422 -7.62939453125e-06 46 -7.62939453125e-06 Z" stroke="none" fill="#7145fe"/>
                          </g>
                        </g>
                      </g>
                    </g>
                  </g>
                </g>
              </g>
            </g>
          </g>
        </g>
      </g>
    </g>
    <g id="php" transform="translate(1417.311 2917)">
      <path id="Trazado_999285" data-name="Trazado 999285" d="M54.741,54H56.56a7.265,7.265,0,0,1-7.275,7.275H9.275A7.273,7.273,0,0,1,2,54H19.277a3.636,3.636,0,0,0,3.637,3.637H35.645A3.636,3.636,0,0,0,39.282,54Z" transform="translate(-0.091 -4.806)" fill="#969faa"/>
      <path id="Trazado_999286" data-name="Trazado 999286" d="M21,54H41.005a3.636,3.636,0,0,1-3.637,3.637H24.637A3.636,3.636,0,0,1,21,54Z" transform="translate(-1.813 -4.806)" fill="#fcd770"/>
      <path id="Trazado_999287" data-name="Trazado 999287" d="M7.637,14A3.636,3.636,0,0,0,4,17.637V50.373H54.922V14Z" transform="translate(-0.272 -1.179)" fill="#ccd1d9"/>
      <path id="Trazado_999288" data-name="Trazado 999288" d="M22.549,21.637V18H8.909A.912.912,0,0,0,8,18.909v27.28a.912.912,0,0,0,.909.909H50.738a.912.912,0,0,0,.909-.909V21.637Z" transform="translate(-0.635 -1.541)" fill="#69d6f4"/>
      <path id="Trazado_999289" data-name="Trazado 999289" d="M48,42h3.637v3.637H48Z" transform="translate(-4.262 -3.718)" fill="#ff826e"/>
      <path id="Trazado_999290" data-name="Trazado 999290" d="M48,34h3.637v3.637H48Z" transform="translate(-4.262 -2.992)" fill="#fcd770"/>
      <path id="Trazado_999291" data-name="Trazado 999291" d="M48,26h3.637v3.637H48Z" transform="translate(-4.262 -2.267)" fill="#fcd770"/>
      <path id="Trazado_999292" data-name="Trazado 999292" d="M12,22H33.824V43.824H12Z" transform="translate(-0.997 -1.904)" fill="#ff826e"/>
      <path id="Trazado_999293" data-name="Trazado 999293" d="M54.917,2H27.637A3.636,3.636,0,0,0,24,5.637v18.15a1.854,1.854,0,0,0,3.283,1.182l3.992-4.783H54.917a3.646,3.646,0,0,0,3.637-3.637V5.637A3.636,3.636,0,0,0,54.917,2Z" transform="translate(-2.086 -0.091)" fill="#f0d0b4"/>
      <path id="Trazado_999294" data-name="Trazado 999294" d="M30.819,12.275h1.819a3.637,3.637,0,1,0,0-7.275H29V17.731h1.819Zm0-5.456h1.819a1.819,1.819,0,1,1,0,3.637H30.819Z" transform="translate(-2.539 -0.363)"/>
      <path id="Trazado_999295" data-name="Trazado 999295" d="M50.819,12.275h1.819a3.637,3.637,0,0,0,0-7.275H49V17.731h1.819Zm0-5.456h1.819a1.819,1.819,0,0,1,0,3.637H50.819Z" transform="translate(-4.352 -0.363)"/>
      <path id="Trazado_999296" data-name="Trazado 999296" d="M40.819,12.275h3.637v5.456h1.819V5H44.456v5.456H40.819V5H39V17.731h1.819Z" transform="translate(-3.446 -0.363)"/>
      <path id="Trazado_999297" data-name="Trazado 999297" d="M57.378,16.459V5.547A4.552,4.552,0,0,0,52.832,1H25.552a4.552,4.552,0,0,0-4.547,4.547v6.365H7.365a4.552,4.552,0,0,0-4.547,4.547V48.285H1v.909a8.193,8.193,0,0,0,8.184,8.184h40.01a8.193,8.193,0,0,0,8.184-8.184v-.909H55.56V20.072A4.525,4.525,0,0,0,57.378,16.459ZM22.824,5.547a2.731,2.731,0,0,1,2.728-2.728h27.28A2.731,2.731,0,0,1,55.56,5.547V16.459a2.731,2.731,0,0,1-2.728,2.728H28.763L24.5,24.3a.948.948,0,0,1-1.676-.607Zm-1.819,13.64H10.093V42.829H33.736V21.005H50.1V44.648H8.275V17.368H21.005Zm2.767,7.275a2.758,2.758,0,0,0,2.126-1l3.717-4.46h2.3V41.01H11.912V21.005h9.093v2.689a2.77,2.77,0,0,0,2.767,2.767Zm25.422,29.1H9.184a6.375,6.375,0,0,1-6.3-5.456H18.369a4.554,4.554,0,0,0,4.455,3.637H35.554A4.555,4.555,0,0,0,40.009,50.1H55.495A6.375,6.375,0,0,1,49.194,55.56ZM20.263,50.1H38.114a2.724,2.724,0,0,1-2.561,1.819H22.824A2.724,2.724,0,0,1,20.263,50.1Zm33.478-1.819H4.637V16.459a2.731,2.731,0,0,1,2.728-2.728h13.64v1.819H8.275a1.82,1.82,0,0,0-1.819,1.819v27.28a1.82,1.82,0,0,0,1.819,1.819H50.1a1.82,1.82,0,0,0,1.819-1.819V21.005h.909a4.542,4.542,0,0,0,.909-.092Z"/>
      <path id="Trazado_999298" data-name="Trazado 999298" d="M52.456,41H47v5.456h5.456Zm-1.819,3.637H48.819V42.819h1.819Z" transform="translate(-4.171 -3.627)"/>
      <path id="Trazado_999299" data-name="Trazado 999299" d="M39,45h5.456v1.819H39Z" transform="translate(-3.446 -3.99)"/>
      <path id="Trazado_999300" data-name="Trazado 999300" d="M39,41h5.456v1.819H39Z" transform="translate(-3.446 -3.627)"/>
      <path id="Trazado_999301" data-name="Trazado 999301" d="M52.456,33H47v5.456h5.456Zm-1.819,3.637H48.819V34.819h1.819Z" transform="translate(-4.171 -2.902)"/>
      <path id="Trazado_999302" data-name="Trazado 999302" d="M39,37h5.456v1.819H39Z" transform="translate(-3.446 -3.264)"/>
      <path id="Trazado_999303" data-name="Trazado 999303" d="M39,33h5.456v1.819H39Z" transform="translate(-3.446 -2.902)"/>
      <path id="Trazado_999304" data-name="Trazado 999304" d="M52.456,25H47v5.456h5.456Zm-1.819,3.637H48.819V26.819h1.819Z" transform="translate(-4.171 -2.176)"/>
      <path id="Trazado_999305" data-name="Trazado 999305" d="M39,29h5.456v1.819H39Z" transform="translate(-3.446 -2.539)"/>
      <path id="Trazado_999306" data-name="Trazado 999306" d="M39,25h5.456v1.819H39Z" transform="translate(-3.446 -2.176)"/>
      <path id="Trazado_999307" data-name="Trazado 999307" d="M15,25h5.456v1.819H15Z" transform="translate(-1.269 -2.176)"/>
      <path id="Trazado_999308" data-name="Trazado 999308" d="M15,29h5.456v1.819H15Z" transform="translate(-1.269 -2.539)"/>
      <path id="Trazado_999309" data-name="Trazado 999309" d="M15,33H31.368v1.819H15Z" transform="translate(-1.269 -2.902)"/>
      <path id="Trazado_999310" data-name="Trazado 999310" d="M15,37H31.368v1.819H15Z" transform="translate(-1.269 -3.264)"/>
      <path id="Trazado_999311" data-name="Trazado 999311" d="M15,41h9.093v1.819H15Z" transform="translate(-1.269 -3.627)"/>
      <path id="Trazado_999312" data-name="Trazado 999312" d="M31,41h1.819v1.819H31Z" transform="translate(-2.72 -3.627)"/>
      <path id="Trazado_999313" data-name="Trazado 999313" d="M27,41h1.819v1.819H27Z" transform="translate(-2.358 -3.627)"/>
    </g>
  </g>
</svg>
