<svg xmlns="http://www.w3.org/2000/svg" xmlns:xlink="http://www.w3.org/1999/xlink" width="113" height="113" viewBox="0 0 113 113">
  <defs>
    <filter id="Trazado_982547" x="0" y="0" width="113" height="113" filterUnits="userSpaceOnUse">
      <feOffset dy="3" input="SourceAlpha"/>
      <feGaussianBlur stdDeviation="3" result="blur"/>
      <feFlood flood-opacity="0.161"/>
      <feComposite operator="in" in2="blur"/>
      <feComposite in="SourceGraphic"/>
    </filter>
  </defs>
  <g id="Grupo_1164280" data-name="Grupo 1164280" transform="translate(-1217 -2386.893)">
    <g id="Grupo_1163951" data-name="Grupo 1163951" transform="translate(0 -91.107)">
      <g id="Grupo_1161821" data-name="Grupo 1161821" transform="translate(1226 2484)">
        <g id="Grupo_1152576" data-name="Grupo 1152576" transform="translate(0)">
          <g id="Grupo_1148633" data-name="Grupo 1148633">
            <g id="Grupo_1148525" data-name="Grupo 1148525">
              <g transform="matrix(1, 0, 0, 1, -9, -6)" filter="url(#Trazado_982547)">
                <g id="Trazado_982547-2" data-name="Trazado 982547" transform="translate(9 6)" fill="#f0ebfe">
                  <path d="M 47.5 93.5 C 41.28937149047852 93.5 35.26533508300781 92.28397369384766 29.59518623352051 89.88570404052734 C 24.11771965026855 87.56893157958984 19.19813346862793 84.25196075439453 14.97309303283691 80.02691650390625 C 10.74804019927979 75.80186462402344 7.431066513061523 70.88229370117188 5.114293098449707 65.40481567382812 C 2.716026782989502 59.73468017578125 1.5 53.71062850952148 1.5 47.5 C 1.5 41.28937149047852 2.716026782989502 35.26533508300781 5.114293098449707 29.59518623352051 C 7.431066513061523 24.11771965026855 10.74804019927979 19.19813346862793 14.97309303283691 14.97309303283691 C 19.19813346862793 10.74804019927979 24.11771965026855 7.431066513061523 29.59518623352051 5.114293098449707 C 35.26533508300781 2.716026782989502 41.28937149047852 1.5 47.5 1.5 C 53.71062850952148 1.5 59.73468017578125 2.716026782989502 65.40481567382812 5.114293098449707 C 70.88229370117188 7.431066513061523 75.80186462402344 10.74804019927979 80.02691650390625 14.97309303283691 C 84.25196075439453 19.19813346862793 87.56893157958984 24.11771965026855 89.88570404052734 29.59518623352051 C 92.28397369384766 35.26533508300781 93.5 41.28937149047852 93.5 47.5 C 93.5 53.71062850952148 92.28397369384766 59.73468017578125 89.88570404052734 65.40481567382812 C 87.56893157958984 70.88229370117188 84.25196075439453 75.80186462402344 80.02691650390625 80.02691650390625 C 75.80186462402344 84.25196075439453 70.88229370117188 87.56893157958984 65.40481567382812 89.88570404052734 C 59.73468017578125 92.28397369384766 53.71062850952148 93.5 47.5 93.5 Z" stroke="none"/>
                  <path d="M 47.5 3 C 41.49121475219727 3 35.66376876831055 4.176155090332031 30.17950439453125 6.495796203613281 C 24.88084411621094 8.736953735351562 20.12152099609375 11.94598388671875 16.03375244140625 16.03375244140625 C 11.94598388671875 20.12152099609375 8.736953735351562 24.88084411621094 6.495796203613281 30.17950439453125 C 4.176155090332031 35.66376876831055 3 41.49121475219727 3 47.5 C 3 53.50878524780273 4.176155090332031 59.33623123168945 6.495796203613281 64.82049560546875 C 8.736953735351562 70.11915588378906 11.94598388671875 74.87847900390625 16.03375244140625 78.96624755859375 C 20.12152099609375 83.05401611328125 24.88084411621094 86.26304626464844 30.17950439453125 88.50419616699219 C 35.66376876831055 90.82384490966797 41.49121475219727 92 47.5 92 C 53.50878524780273 92 59.33623123168945 90.82384490966797 64.82049560546875 88.50419616699219 C 70.11915588378906 86.26304626464844 74.87847900390625 83.05401611328125 78.96624755859375 78.96624755859375 C 83.05401611328125 74.87847900390625 86.26304626464844 70.11915588378906 88.50419616699219 64.82049560546875 C 90.82384490966797 59.33623123168945 92 53.50878524780273 92 47.5 C 92 41.49121475219727 90.82384490966797 35.66376876831055 88.50419616699219 30.17950439453125 C 86.26304626464844 24.88084411621094 83.05401611328125 20.12152099609375 78.96624755859375 16.03375244140625 C 74.87847900390625 11.94598388671875 70.11915588378906 8.736953735351562 64.82049560546875 6.495796203613281 C 59.33623123168945 4.176155090332031 53.50878524780273 3 47.5 3 M 47.5 0 C 73.7335205078125 0 95 21.2664794921875 95 47.5 C 95 73.7335205078125 73.7335205078125 95 47.5 95 C 21.2664794921875 95 0 73.7335205078125 0 47.5 C 0 21.2664794921875 21.2664794921875 0 47.5 0 Z" stroke="none" fill="#7145fe"/>
                </g>
              </g>
            </g>
          </g>
        </g>
      </g>
    </g>
    <g id="ram" transform="translate(1204.885 2408.711)">
      <g id="Grupo_1164277" data-name="Grupo 1164277" transform="translate(44.194 6.534)">
        <path id="Trazado_999660" data-name="Trazado 999660" d="M59,411.111H52.36a1.782,1.782,0,0,0-1.782,1.782v2.389a1.782,1.782,0,0,0,1.782,1.782H59v-5.952Z" transform="translate(-50.578 -366.768)" fill="#ff901e"/>
        <path id="Trazado_999661" data-name="Trazado 999661" d="M50.578,56.966V54.578A1.782,1.782,0,0,1,52.36,52.8H59v5.952H52.36A1.781,1.781,0,0,1,50.578,56.966Z" transform="translate(-50.578 -52.796)" fill="#ff901e"/>
        <path id="Trazado_999662" data-name="Trazado 999662" d="M50.578,146.545v-2.389a1.782,1.782,0,0,1,1.782-1.782H59v5.952H52.36A1.781,1.781,0,0,1,50.578,146.545Z" transform="translate(-50.578 -131.289)" fill="#ff901e"/>
        <path id="Trazado_999663" data-name="Trazado 999663" d="M50.578,236.124v-2.388a1.782,1.782,0,0,1,1.782-1.782H59v5.952H52.36A1.782,1.782,0,0,1,50.578,236.124Z" transform="translate(-50.578 -209.782)" fill="#ff901e"/>
        <path id="Trazado_999664" data-name="Trazado 999664" d="M50.578,325.7v-2.389a1.782,1.782,0,0,1,1.782-1.782H59v5.952H52.36A1.781,1.781,0,0,1,50.578,325.7Z" transform="translate(-50.578 -288.275)" fill="#ff901e"/>
      </g>
      <g id="Grupo_1164278" data-name="Grupo 1164278" transform="translate(86.611 6.534)">
        <path id="Trazado_999665" data-name="Trazado 999665" d="M401.755,56.966V54.578a1.782,1.782,0,0,0-1.782-1.782h-6.645V58.72l6.645.027A1.781,1.781,0,0,0,401.755,56.966Z" transform="translate(-393.328 -52.796)" fill="#ff6d3a"/>
        <path id="Trazado_999666" data-name="Trazado 999666" d="M401.755,146.545v-2.389a1.782,1.782,0,0,0-1.782-1.782h-6.645v5.952h6.645A1.782,1.782,0,0,0,401.755,146.545Z" transform="translate(-393.328 -131.289)" fill="#ff6d3a"/>
        <path id="Trazado_999667" data-name="Trazado 999667" d="M401.755,236.124v-2.388a1.782,1.782,0,0,0-1.782-1.782h-6.645v5.952h6.645A1.782,1.782,0,0,0,401.755,236.124Z" transform="translate(-393.328 -209.782)" fill="#ff6d3a"/>
        <path id="Trazado_999668" data-name="Trazado 999668" d="M401.755,325.7v-2.389a1.782,1.782,0,0,0-1.782-1.782h-6.645v5.952h6.645A1.782,1.782,0,0,0,401.755,325.7Z" transform="translate(-393.328 -288.275)" fill="#ff6d3a"/>
        <path id="Trazado_999669" data-name="Trazado 999669" d="M401.755,415.281v-2.389a1.782,1.782,0,0,0-1.782-1.782h-6.645v5.952h6.645A1.782,1.782,0,0,0,401.755,415.281Z" transform="translate(-393.328 -366.768)" fill="#ff6d3a"/>
      </g>
      <path id="Trazado_999670" data-name="Trazado 999670" d="M150.065,68.846h-28.8a2.6,2.6,0,0,1-2.6-2.6V9.882a2.6,2.6,0,0,1,2.6-2.6h28.8a2.6,2.6,0,0,1,2.6,2.6V66.251A2.6,2.6,0,0,1,150.065,68.846Z" transform="translate(-66.05 -6.385)" fill="#ffb124"/>
      <path id="Trazado_999671" data-name="Trazado 999671" d="M164.191,7.287h-28.8a2.6,2.6,0,0,0-.6.073H159.6a2.6,2.6,0,0,1,2.6,2.6V66.323a2.594,2.594,0,0,1-2,2.523h3.986a2.6,2.6,0,0,0,2.6-2.6V9.882A2.6,2.6,0,0,0,164.191,7.287Z" transform="translate(-80.176 -6.385)" fill="#ff901e"/>
      <path id="Trazado_999672" data-name="Trazado 999672" d="M182.826,115.57V72.994a1.552,1.552,0,0,1,1.552-1.552h15.007a1.552,1.552,0,0,1,1.552,1.552v42.575a1.552,1.552,0,0,1-1.552,1.552H184.378A1.552,1.552,0,0,1,182.826,115.57Z" transform="translate(-122.266 -62.601)" fill="#2d5872"/>
      <path id="Trazado_999673" data-name="Trazado 999673" d="M284.207,71.442h-4.579a1.552,1.552,0,0,1,1.552,1.552v42.575a1.552,1.552,0,0,1-1.552,1.552h4.579a1.552,1.552,0,0,0,1.552-1.552V72.994A1.552,1.552,0,0,0,284.207,71.442Z" transform="translate(-207.088 -62.601)" fill="#1d4859"/>
      <g id="Grupo_1164279" data-name="Grupo 1164279" transform="translate(65.655 23.328)">
        <path id="Trazado_999674" data-name="Trazado 999674" d="M231.788,297.28h-7.316a.474.474,0,0,1-.474-.474v-1.344a4.544,4.544,0,0,1,.117-1.091,2.425,2.425,0,0,1,.367-.824,1.572,1.572,0,0,1,.675-.537,2.554,2.554,0,0,1,1.017-.184q.257,0,.459.018a2.975,2.975,0,0,1,.461.085,1.834,1.834,0,0,1,.459.181,1.617,1.617,0,0,1,.393.331,1.906,1.906,0,0,1,.322.51q1.928-.608,3.372-1.087a.474.474,0,0,1,.623.45v.7a.474.474,0,0,1-.36.46l-3.447.856v.275h3.332a.474.474,0,0,1,.474.474v.723A.475.475,0,0,1,231.788,297.28Zm-4.352-1.671v-.478a.467.467,0,0,0-.129-.331.738.738,0,0,0-.326-.2,2.458,2.458,0,0,0-.363-.087,2.069,2.069,0,0,0-.312-.025,2.317,2.317,0,0,0-.3.021,2.583,2.583,0,0,0-.347.073.7.7,0,0,0-.312.174.4.4,0,0,0-.122.3v.556h2.213Z" transform="translate(-223.997 -279.915)" fill="#fffcfd"/>
        <path id="Trazado_999675" data-name="Trazado 999675" d="M231.793,250.325l-7.49-1.619a.388.388,0,0,1-.306-.379v-.853a.388.388,0,0,1,.306-.379l7.49-1.614a.388.388,0,0,1,.469.379v.848a.388.388,0,0,1-.315.381l-1.453.279v1.079l1.449.263a.388.388,0,0,1,.318.382v.854A.388.388,0,0,1,231.793,250.325Zm-2.327-1.992v-.854l-3.067.418Z" transform="translate(-223.998 -238.422)" fill="#fffcfd"/>
        <path id="Trazado_999676" data-name="Trazado 999676" d="M231.974,194.267h-7.69a.287.287,0,0,1-.287-.287v-1.47a.287.287,0,0,1,.242-.284l5.268-.843-5.272-.909a.287.287,0,0,1-.238-.283v-1.4a.287.287,0,0,1,.287-.287h7.69a.287.287,0,0,1,.287.287v.658a.287.287,0,0,1-.286.287l-5.528.035q.9.138,2.907.482,1.759.3,2.664.444a.287.287,0,0,1,.242.284v.761a.287.287,0,0,1-.238.283l-5.612.973,5.564.035a.287.287,0,0,1,.286.287v.662A.288.288,0,0,1,231.974,194.267Z" transform="translate(-223.996 -188.5)" fill="#fffcfd"/>
      </g>
      <path id="Trazado_999677" data-name="Trazado 999677" d="M182.97,109.835h-4.978a.651.651,0,0,1-.651-.65V66.609a.651.651,0,0,1,.651-.65h4.967a.9.9,0,0,0,0-1.8h-4.967a2.457,2.457,0,0,0-2.454,2.454v42.575a2.457,2.457,0,0,0,2.454,2.454h4.978a.9.9,0,1,0,0-1.8Z" transform="translate(-115.88 -56.216)"/>
      <path id="Trazado_999678" data-name="Trazado 999678" d="M271.7,64.156h-5.444a.9.9,0,0,0,0,1.8H271.7a.651.651,0,0,1,.65.65v42.575a.651.651,0,0,1-.65.65h-5.433a.9.9,0,0,0,0,1.8H271.7a2.457,2.457,0,0,0,2.454-2.454V66.61A2.457,2.457,0,0,0,271.7,64.156Z" transform="translate(-194.577 -56.216)"/>
      <path id="Trazado_999679" data-name="Trazado 999679" d="M93.256,13.387A2.686,2.686,0,0,0,95.939,10.7V8.315a2.686,2.686,0,0,0-2.683-2.683H87.512V3.5a3.5,3.5,0,0,0-3.5-3.5h-28.8a3.5,3.5,0,0,0-3.5,3.5V5.632H45.975a2.686,2.686,0,0,0-2.683,2.683V10.7a2.686,2.686,0,0,0,2.683,2.683h5.743v3.331H45.975A2.686,2.686,0,0,0,43.292,19.4V21.79a2.686,2.686,0,0,0,2.683,2.683h5.743V27.8H45.975a2.686,2.686,0,0,0-2.683,2.683v2.389a2.686,2.686,0,0,0,2.683,2.683h5.743v3.331H45.975a2.686,2.686,0,0,0-2.683,2.683v2.389a2.686,2.686,0,0,0,2.683,2.683h5.743v3.331H45.975a2.686,2.686,0,0,0-2.683,2.683v2.389a2.686,2.686,0,0,0,2.683,2.683h5.743v2.135a3.5,3.5,0,0,0,3.5,3.5h28.8a3.5,3.5,0,0,0,3.5-3.5V57.73h5.743a2.686,2.686,0,0,0,2.683-2.683V52.658a2.686,2.686,0,0,0-2.683-2.683H87.512V46.645h5.743a2.686,2.686,0,0,0,2.683-2.683V41.573a2.686,2.686,0,0,0-2.683-2.683H87.512V35.559h5.743a2.686,2.686,0,0,0,2.683-2.683V30.487A2.686,2.686,0,0,0,93.256,27.8H87.512V24.473h5.743a2.686,2.686,0,0,0,2.683-2.683V19.4a2.686,2.686,0,0,0-2.683-2.683H87.512V13.387ZM87.512,7.436h5.743a.881.881,0,0,1,.88.88V10.7a.881.881,0,0,1-.88.88H87.512ZM51.719,55.927H45.975a.881.881,0,0,1-.88-.88V52.658a.881.881,0,0,1,.88-.88h5.743v4.148Zm0-11.086H45.975a.881.881,0,0,1-.88-.88V41.573a.881.881,0,0,1,.88-.88h5.743v4.148Zm0-11.086H45.975a.881.881,0,0,1-.88-.88V30.487a.881.881,0,0,1,.88-.88h5.743v4.148Zm0-11.086H45.975a.881.881,0,0,1-.88-.88V19.4a.881.881,0,0,1,.88-.88h5.743v4.148Zm0-11.086H45.975a.881.881,0,0,1-.88-.88V8.315a.881.881,0,0,1,.88-.88h5.743v4.148Zm33.99,48.282a1.7,1.7,0,0,1-1.693,1.694h-28.8a1.7,1.7,0,0,1-1.694-1.694V3.5A1.7,1.7,0,0,1,55.216,1.8h28.8A1.7,1.7,0,0,1,85.709,3.5Zm1.8-8.087h5.743a.881.881,0,0,1,.88.88v2.389a.881.881,0,0,1-.88.88H87.512Zm0-11.086h5.743a.881.881,0,0,1,.88.88v2.389a.881.881,0,0,1-.88.88H87.512Zm0-11.086h5.743a.881.881,0,0,1,.88.88v2.389a.881.881,0,0,1-.88.88H87.512Zm0-11.086h5.743a.881.881,0,0,1,.88.88V21.79a.881.881,0,0,1-.88.88H87.512Z"/>
    </g>
  </g>
</svg>
