<svg xmlns="http://www.w3.org/2000/svg" xmlns:xlink="http://www.w3.org/1999/xlink" width="113" height="113" viewBox="0 0 113 113">
  <defs>
    <filter id="Trazado_982547" x="0" y="0" width="113" height="113" filterUnits="userSpaceOnUse">
      <feOffset dy="3" input="SourceAlpha"/>
      <feGaussianBlur stdDeviation="3" result="blur"/>
      <feFlood flood-opacity="0.161"/>
      <feComposite operator="in" in2="blur"/>
      <feComposite in="SourceGraphic"/>
    </filter>
  </defs>
  <g id="Grupo_1164341" data-name="Grupo 1164341" transform="translate(-325 -4007)">
    <g id="Grupo_1164021" data-name="Grupo 1164021" transform="translate(334 4013)">
      <g id="Grupo_1158168" data-name="Grupo 1158168" transform="translate(0)">
        <g id="Grupo_1152576" data-name="Grupo 1152576">
          <g id="Grupo_1148633" data-name="Grupo 1148633">
            <g id="Grupo_1148525" data-name="Grupo 1148525">
              <g transform="matrix(1, 0, 0, 1, -9, -6)" filter="url(#Trazado_982547)">
                <g id="Trazado_982547-2" data-name="Trazado 982547" transform="translate(9 6)" fill="#f0ebfe">
                  <path d="M 47.5 93.5 C 41.28937149047852 93.5 35.26533508300781 92.28397369384766 29.59518623352051 89.88570404052734 C 24.11771965026855 87.56893157958984 19.19813346862793 84.25196075439453 14.97309303283691 80.02691650390625 C 10.74804019927979 75.80186462402344 7.431066513061523 70.88229370117188 5.114293098449707 65.40481567382812 C 2.716026782989502 59.73468017578125 1.5 53.71062850952148 1.5 47.5 C 1.5 41.28937149047852 2.716026782989502 35.26533508300781 5.114293098449707 29.59518623352051 C 7.431066513061523 24.11771965026855 10.74804019927979 19.19813346862793 14.97309303283691 14.97309303283691 C 19.19813346862793 10.74804019927979 24.11771965026855 7.431066513061523 29.59518623352051 5.114293098449707 C 35.26533508300781 2.716026782989502 41.28937149047852 1.5 47.5 1.5 C 53.71062850952148 1.5 59.73468017578125 2.716026782989502 65.40481567382812 5.114293098449707 C 70.88229370117188 7.431066513061523 75.80186462402344 10.74804019927979 80.02691650390625 14.97309303283691 C 84.25196075439453 19.19813346862793 87.56893157958984 24.11771965026855 89.88570404052734 29.59518623352051 C 92.28397369384766 35.26533508300781 93.5 41.28937149047852 93.5 47.5 C 93.5 53.71062850952148 92.28397369384766 59.73468017578125 89.88570404052734 65.40481567382812 C 87.56893157958984 70.88229370117188 84.25196075439453 75.80186462402344 80.02691650390625 80.02691650390625 C 75.80186462402344 84.25196075439453 70.88229370117188 87.56893157958984 65.40481567382812 89.88570404052734 C 59.73468017578125 92.28397369384766 53.71062850952148 93.5 47.5 93.5 Z" stroke="none"/>
                  <path d="M 47.5 3 C 41.49121475219727 3 35.66376876831055 4.176155090332031 30.17950439453125 6.495796203613281 C 24.88084411621094 8.736953735351562 20.12152099609375 11.94598388671875 16.03375244140625 16.03375244140625 C 11.94598388671875 20.12152099609375 8.736953735351562 24.88084411621094 6.495796203613281 30.17950439453125 C 4.176155090332031 35.66376876831055 3 41.49121475219727 3 47.5 C 3 53.50878524780273 4.176155090332031 59.33623123168945 6.495796203613281 64.82049560546875 C 8.736953735351562 70.11915588378906 11.94598388671875 74.87847900390625 16.03375244140625 78.96624755859375 C 20.12152099609375 83.05401611328125 24.88084411621094 86.26304626464844 30.17950439453125 88.50419616699219 C 35.66376876831055 90.82384490966797 41.49121475219727 92 47.5 92 C 53.50878524780273 92 59.33623123168945 90.82384490966797 64.82049560546875 88.50419616699219 C 70.11915588378906 86.26304626464844 74.87847900390625 83.05401611328125 78.96624755859375 78.96624755859375 C 83.05401611328125 74.87847900390625 86.26304626464844 70.11915588378906 88.50419616699219 64.82049560546875 C 90.82384490966797 59.33623123168945 92 53.50878524780273 92 47.5 C 92 41.49121475219727 90.82384490966797 35.66376876831055 88.50419616699219 30.17950439453125 C 86.26304626464844 24.88084411621094 83.05401611328125 20.12152099609375 78.96624755859375 16.03375244140625 C 74.87847900390625 11.94598388671875 70.11915588378906 8.736953735351562 64.82049560546875 6.495796203613281 C 59.33623123168945 4.176155090332031 53.50878524780273 3 47.5 3 M 47.5 0 C 73.7335205078125 0 95 21.2664794921875 95 47.5 C 95 73.7335205078125 73.7335205078125 95 47.5 95 C 21.2664794921875 95 0 73.7335205078125 0 47.5 C 0 21.2664794921875 21.2664794921875 0 47.5 0 Z" stroke="none" fill="#7145fe"/>
                </g>
              </g>
            </g>
          </g>
        </g>
      </g>
    </g>
    <g id="plataforma_1_" data-name="plataforma (1)" transform="translate(350 4029)">
      <g id="Grupo_1164339" data-name="Grupo 1164339" transform="translate(1.967 1.967)">
        <g id="Grupo_1164325" data-name="Grupo 1164325" transform="translate(36.732 42.532)">
          <path id="Trazado_999975" data-name="Trazado 999975" d="M47.25,46.213,47.733,46h2.9a2.9,2.9,0,0,0-2.9,2.9v6.766H40a11.876,11.876,0,0,1,1.266-3.905A12.09,12.09,0,0,1,47.25,46.213Z" transform="translate(-40 -46)" fill="#fcd770"/>
        </g>
        <g id="Grupo_1164326" data-name="Grupo 1164326" transform="translate(34.799 42.532)">
          <path id="Trazado_999976" data-name="Trazado 999976" d="M39.933,55.666h7.733V48.9a2.9,2.9,0,1,1,5.8,0v6.766a5.8,5.8,0,0,1-5.8,5.8H38v-5.8Z" transform="translate(-38 -46)" fill="#fcd770"/>
        </g>
        <g id="Grupo_1164327" data-name="Grupo 1164327" transform="translate(11.6 52.198)">
          <path id="Trazado_999977" data-name="Trazado 999977" d="M31.4,57.933v1.933H14V56H33.333A1.939,1.939,0,0,0,31.4,57.933Z" transform="translate(-14 -56)" fill="#aab2bd"/>
        </g>
        <g id="Grupo_1164328" data-name="Grupo 1164328" transform="translate(0 44.465)">
          <path id="Trazado_999978" data-name="Trazado 999978" d="M39.989,51.828H40a11.876,11.876,0,0,0-1.266,3.905H5.867A3.865,3.865,0,0,1,2,51.867V48H35.2a5.79,5.79,0,0,0,4.785,3.828Z" transform="translate(-2 -48)" fill="#ccd1d9"/>
        </g>
        <g id="Grupo_1164329" data-name="Grupo 1164329" transform="translate(0 21.266)">
          <path id="Trazado_999979" data-name="Trazado 999979" d="M7.8,24V47.2H2V27.867A3.865,3.865,0,0,1,5.867,24Z" transform="translate(-2 -24)" fill="#69d6f4"/>
        </g>
        <g id="Grupo_1164330" data-name="Grupo 1164330" transform="translate(32.866 15.466)">
          <path id="Trazado_999980" data-name="Trazado 999980" d="M49.533,45.066a7.731,7.731,0,0,0,7.733-7.733V29.6a11.678,11.678,0,0,1-8.255-3.422l-.445-.445-.454.454A11.662,11.662,0,0,1,39.867,29.6v7.733A7.731,7.731,0,0,0,47.6,45.066l-.483.213a12.09,12.09,0,0,0-5.983,5.548h-.01A5.79,5.79,0,0,1,36.338,47,5.569,5.569,0,0,1,36,45.066v-14.5a12.6,12.6,0,0,1,7.723-11.6h.01a12.566,12.566,0,0,1,17.4,11.6v14.5a5.8,5.8,0,0,1-5.8,5.8H53.4v-2.9a2.9,2.9,0,0,0-2.9-2.9Z" transform="translate(-36 -18)" fill="#656d78"/>
        </g>
        <g id="Grupo_1164331" data-name="Grupo 1164331" transform="translate(5.8 16.433)">
          <path id="Trazado_999981" data-name="Trazado 999981" d="M35.066,45.1a5.569,5.569,0,0,0,.338,1.933H8V19H42.789a12.6,12.6,0,0,0-7.723,11.6Z" transform="translate(-8 -19)" fill="#e6e9ed"/>
        </g>
        <g id="Grupo_1164332" data-name="Grupo 1164332" transform="translate(5.8 8.7)">
          <path id="Trazado_999982" data-name="Trazado 999982" d="M8,18.733V11.967A.969.969,0,0,1,8.967,11H41.832a.969.969,0,0,1,.967.967v6.766H8Z" transform="translate(-8 -11)" fill="#5cd6b3"/>
        </g>
        <g id="Grupo_1164333" data-name="Grupo 1164333" transform="translate(21.266 36.732)">
          <path id="Trazado_999983" data-name="Trazado 999983" d="M24,40h7.733v3.867H24Z" transform="translate(-24 -40)" fill="#ff826e"/>
        </g>
        <g id="Grupo_1164334" data-name="Grupo 1164334" transform="translate(9.666 20.299)">
          <ellipse id="Elipse_12303" data-name="Elipse 12303" cx="4.5" cy="5" rx="4.5" ry="5" transform="translate(0.367 -0.335)" fill="#fcd770"/>
        </g>
        <g id="Grupo_1164335" data-name="Grupo 1164335" transform="translate(44.465)">
          <path id="Trazado_999984" data-name="Trazado 999984" d="M61.533,3.933v7.733A1.939,1.939,0,0,1,59.6,13.6H57.666L56.11,15.939a1.268,1.268,0,0,1-1.054.561A1.254,1.254,0,0,1,53.8,15.243V13.6H49.933A1.939,1.939,0,0,1,48,11.666V3.933A1.939,1.939,0,0,1,49.933,2H59.6A1.939,1.939,0,0,1,61.533,3.933Z" transform="translate(-48 -2)" fill="#e6e9ed"/>
        </g>
        <g id="Grupo_1164336" data-name="Grupo 1164336" transform="translate(28.999 52.198)">
          <path id="Trazado_999985" data-name="Trazado 999985" d="M37.8,56v3.867H32V57.933A1.939,1.939,0,0,1,33.933,56Z" transform="translate(-32 -56)" fill="#f0d0b4"/>
        </g>
        <g id="Grupo_1164337" data-name="Grupo 1164337" transform="translate(36.732 23.199)">
          <path id="Trazado_999986" data-name="Trazado 999986" d="M40,37.6V29.867a11.662,11.662,0,0,0,8.245-3.412L48.7,26l.445.445A11.678,11.678,0,0,0,57.4,29.867V37.6a7.731,7.731,0,0,1-7.733,7.733H47.733A7.731,7.731,0,0,1,40,37.6Z" transform="translate(-40 -26)" fill="#f0d0b4"/>
        </g>
        <g id="Grupo_1164338" data-name="Grupo 1164338" transform="translate(41.565 34.799)">
          <path id="Trazado_999987" data-name="Trazado 999987" d="M45,38h7.733A3.867,3.867,0,1,1,45,38Z" transform="translate(-45 -38)" fill="#ff826e"/>
        </g>
      </g>
      <g id="Grupo_1164340" data-name="Grupo 1164340" transform="translate(1 1)">
        <path id="Trazado_999988" data-name="Trazado 999988" d="M52.9,32A2.9,2.9,0,0,0,50,34.9h1.933a.967.967,0,0,1,1.933,0H55.8A2.9,2.9,0,0,0,52.9,32Z" transform="translate(-2.635 -2.034)"/>
        <path id="Trazado_999989" data-name="Trazado 999989" d="M44.9,33.933a.968.968,0,0,1,.967.967H47.8a2.9,2.9,0,1,0-5.8,0h1.933A.968.968,0,0,1,44.9,33.933Z" transform="translate(-2.368 -2.034)"/>
        <path id="Trazado_999990" data-name="Trazado 999990" d="M44,37.967a4.833,4.833,0,0,0,9.666,0V37H44Zm7.568.967a2.9,2.9,0,0,1-5.469,0Z" transform="translate(-2.435 -2.201)"/>
        <circle id="Elipse_12304" data-name="Elipse 12304" cx="1" cy="1" r="1" transform="translate(19 47.931)"/>
        <circle id="Elipse_12305" data-name="Elipse 12305" cx="1" cy="1" r="1" transform="translate(23 47.931)"/>
        <circle id="Elipse_12306" data-name="Elipse 12306" cx="1" cy="1" r="1" transform="translate(27 47.931)"/>
        <path id="Trazado_999991" data-name="Trazado 999991" d="M51,5h7.733V6.933H51Z" transform="translate(-2.668 -1.133)"/>
        <path id="Trazado_999992" data-name="Trazado 999992" d="M51,9h7.733v1.933H51Z" transform="translate(-2.668 -1.267)"/>
        <path id="Trazado_999993" data-name="Trazado 999993" d="M59.566,1H49.9A2.9,2.9,0,0,0,47,3.9v7.733a2.9,2.9,0,0,0,2.9,2.9h2.9v.674a2.226,2.226,0,0,0,4.078,1.235l1.272-1.909h1.416a2.9,2.9,0,0,0,2.9-2.9V3.9a2.9,2.9,0,0,0-2.9-2.9Zm.967,10.633a.968.968,0,0,1-.967.967h-2.45L55.27,15.37a.3.3,0,0,1-.536-.163V12.6H49.9a.968.968,0,0,1-.967-.967V3.9a.968.968,0,0,1,.967-.967h9.666a.968.968,0,0,1,.967.967Z" transform="translate(-2.535 -1)"/>
        <path id="Trazado_999994" data-name="Trazado 999994" d="M47.4,16.766a13.453,13.453,0,0,0-3.867.57v-5.4A1.935,1.935,0,0,0,41.6,10H8.733A1.935,1.935,0,0,0,6.8,11.933V22.566H5.833A4.839,4.839,0,0,0,1,27.4V50.6a4.839,4.839,0,0,0,4.833,4.833H12.6v1.933H8.733V59.3H35.8v1.934H46.431A6.775,6.775,0,0,0,53.2,54.466v-2.9h.968A6.775,6.775,0,0,0,60.931,44.8V30.3A13.548,13.548,0,0,0,47.4,16.766Zm-13.457,29H8.733v-26.1H39.055A13.505,13.505,0,0,0,33.866,30.3V44.8A6.792,6.792,0,0,0,33.942,45.766ZM41.6,11.933v5.8H8.733v-5.8ZM5.833,24.5H6.8V45.766H2.933V27.4A2.9,2.9,0,0,1,5.833,24.5Zm-2.9,26.1V47.7H34.521a6.766,6.766,0,0,0,4.063,3.55,12.925,12.925,0,0,0-.7,2.251H36.766v0H5.833A2.9,2.9,0,0,1,2.933,50.6Zm45.43-6.766H46.431a6.776,6.776,0,0,1-6.767-6.766v-6.8A12.53,12.53,0,0,0,47.4,26.827a12.522,12.522,0,0,0,7.732,3.435v6.8A6.775,6.775,0,0,1,48.363,43.832Zm-2.9,3.867v5.8H39.888a11.251,11.251,0,0,1,5.891-7.323A3.838,3.838,0,0,0,45.464,47.7ZM14.533,57.365V55.432H30.178A2.844,2.844,0,0,0,30,56.4v.967Zm17.4,0V56.4a.968.968,0,0,1,.968-.967l2.9,0v1.931Zm19.332-2.9A4.839,4.839,0,0,1,46.431,59.3h-8.7V55.432h8.3l1.649,1.651,1.369-1.366-1.65-1.65V47.7a1.935,1.935,0,0,1,1.915-1.931h.018v0A1.935,1.935,0,0,1,51.264,47.7ZM59,44.8a4.839,4.839,0,0,1-4.833,4.833H53.2V47.7a3.85,3.85,0,0,0-1.163-2.757,8.7,8.7,0,0,0,5.028-7.876v-8.7H56.1a10.635,10.635,0,0,1-7.568-3.135L47.4,24.1l-1.135,1.135A10.635,10.635,0,0,1,38.7,28.366h-.967v8.7a8.708,8.708,0,0,0,5.767,8.18,13.253,13.253,0,0,0-4.026,4.228A4.817,4.817,0,0,1,35.8,44.8V30.3a11.6,11.6,0,0,1,23.2,0Z" transform="translate(-1 -1.3)"/>
        <path id="Trazado_999995" data-name="Trazado 999995" d="M11,14h1.933v1.933H11Z" transform="translate(-1.334 -1.434)"/>
        <path id="Trazado_999996" data-name="Trazado 999996" d="M19,14h1.933v1.933H19Z" transform="translate(-1.601 -1.434)"/>
        <path id="Trazado_999997" data-name="Trazado 999997" d="M15,14h1.933v1.933H15Z" transform="translate(-1.467 -1.434)"/>
        <path id="Trazado_999998" data-name="Trazado 999998" d="M16.8,22a5.8,5.8,0,1,0,5.8,5.8A5.806,5.806,0,0,0,16.8,22Zm0,9.666A3.867,3.867,0,1,1,20.666,27.8,3.87,3.87,0,0,1,16.8,31.666Z" transform="translate(-1.334 -1.701)"/>
        <path id="Trazado_999999" data-name="Trazado 999999" d="M23,44.8h9.666V39H23Zm1.933-3.867h5.8v1.933h-5.8Z" transform="translate(-1.734 -2.268)"/>
        <path id="Trazado_1000000" data-name="Trazado 1000000" d="M11,39h9.666v1.933H11Z" transform="translate(-1.334 -2.268)"/>
        <path id="Trazado_1000001" data-name="Trazado 1000001" d="M11,43h9.666v1.933H11Z" transform="translate(-1.334 -2.401)"/>
        <path id="Trazado_1000002" data-name="Trazado 1000002" d="M25,22h7.733v1.933H25Z" transform="translate(-1.801 -1.701)"/>
        <path id="Trazado_1000003" data-name="Trazado 1000003" d="M25,26h7.733v1.933H25Z" transform="translate(-1.801 -1.834)"/>
        <path id="Trazado_1000004" data-name="Trazado 1000004" d="M25,30h7.733v1.933H25Z" transform="translate(-1.801 -1.968)"/>
      </g>
    </g>
  </g>
</svg>
