<svg xmlns="http://www.w3.org/2000/svg" xmlns:xlink="http://www.w3.org/1999/xlink" width="113" height="113" viewBox="0 0 113 113">
  <defs>
    <filter id="Trazado_982547" x="0" y="0" width="113" height="113" filterUnits="userSpaceOnUse">
      <feOffset dy="3" input="SourceAlpha"/>
      <feGaussianBlur stdDeviation="3" result="blur"/>
      <feFlood flood-opacity="0.161"/>
      <feComposite operator="in" in2="blur"/>
      <feComposite in="SourceGraphic"/>
    </filter>
  </defs>
  <g id="Grupo_1164364" data-name="Grupo 1164364" transform="translate(-1165 -4007)">
    <g id="Grupo_1164023" data-name="Grupo 1164023" transform="translate(1174 4013)">
      <g id="Grupo_1158168" data-name="Grupo 1158168" transform="translate(0)">
        <g id="Grupo_1152576" data-name="Grupo 1152576">
          <g id="Grupo_1148633" data-name="Grupo 1148633">
            <g id="Grupo_1148525" data-name="Grupo 1148525">
              <g transform="matrix(1, 0, 0, 1, -9, -6)" filter="url(#Trazado_982547)">
                <g id="Trazado_982547-2" data-name="Trazado 982547" transform="translate(9 6)" fill="#f0ebfe">
                  <path d="M 47.5 93.5 C 41.28937149047852 93.5 35.26533508300781 92.28397369384766 29.59518623352051 89.88570404052734 C 24.11771965026855 87.56893157958984 19.19813346862793 84.25196075439453 14.97309303283691 80.02691650390625 C 10.74804019927979 75.80186462402344 7.431066513061523 70.88229370117188 5.114293098449707 65.40481567382812 C 2.716026782989502 59.73468017578125 1.5 53.71062850952148 1.5 47.5 C 1.5 41.28937149047852 2.716026782989502 35.26533508300781 5.114293098449707 29.59518623352051 C 7.431066513061523 24.11771965026855 10.74804019927979 19.19813346862793 14.97309303283691 14.97309303283691 C 19.19813346862793 10.74804019927979 24.11771965026855 7.431066513061523 29.59518623352051 5.114293098449707 C 35.26533508300781 2.716026782989502 41.28937149047852 1.5 47.5 1.5 C 53.71062850952148 1.5 59.73468017578125 2.716026782989502 65.40481567382812 5.114293098449707 C 70.88229370117188 7.431066513061523 75.80186462402344 10.74804019927979 80.02691650390625 14.97309303283691 C 84.25196075439453 19.19813346862793 87.56893157958984 24.11771965026855 89.88570404052734 29.59518623352051 C 92.28397369384766 35.26533508300781 93.5 41.28937149047852 93.5 47.5 C 93.5 53.71062850952148 92.28397369384766 59.73468017578125 89.88570404052734 65.40481567382812 C 87.56893157958984 70.88229370117188 84.25196075439453 75.80186462402344 80.02691650390625 80.02691650390625 C 75.80186462402344 84.25196075439453 70.88229370117188 87.56893157958984 65.40481567382812 89.88570404052734 C 59.73468017578125 92.28397369384766 53.71062850952148 93.5 47.5 93.5 Z" stroke="none"/>
                  <path d="M 47.5 3 C 41.49121475219727 3 35.66376876831055 4.176155090332031 30.17950439453125 6.495796203613281 C 24.88084411621094 8.736953735351562 20.12152099609375 11.94598388671875 16.03375244140625 16.03375244140625 C 11.94598388671875 20.12152099609375 8.736953735351562 24.88084411621094 6.495796203613281 30.17950439453125 C 4.176155090332031 35.66376876831055 3 41.49121475219727 3 47.5 C 3 53.50878524780273 4.176155090332031 59.33623123168945 6.495796203613281 64.82049560546875 C 8.736953735351562 70.11915588378906 11.94598388671875 74.87847900390625 16.03375244140625 78.96624755859375 C 20.12152099609375 83.05401611328125 24.88084411621094 86.26304626464844 30.17950439453125 88.50419616699219 C 35.66376876831055 90.82384490966797 41.49121475219727 92 47.5 92 C 53.50878524780273 92 59.33623123168945 90.82384490966797 64.82049560546875 88.50419616699219 C 70.11915588378906 86.26304626464844 74.87847900390625 83.05401611328125 78.96624755859375 78.96624755859375 C 83.05401611328125 74.87847900390625 86.26304626464844 70.11915588378906 88.50419616699219 64.82049560546875 C 90.82384490966797 59.33623123168945 92 53.50878524780273 92 47.5 C 92 41.49121475219727 90.82384490966797 35.66376876831055 88.50419616699219 30.17950439453125 C 86.26304626464844 24.88084411621094 83.05401611328125 20.12152099609375 78.96624755859375 16.03375244140625 C 74.87847900390625 11.94598388671875 70.11915588378906 8.736953735351562 64.82049560546875 6.495796203613281 C 59.33623123168945 4.176155090332031 53.50878524780273 3 47.5 3 M 47.5 0 C 73.7335205078125 0 95 21.2664794921875 95 47.5 C 95 73.7335205078125 73.7335205078125 95 47.5 95 C 21.2664794921875 95 0 73.7335205078125 0 47.5 C 0 21.2664794921875 21.2664794921875 0 47.5 0 Z" stroke="none" fill="#7145fe"/>
                </g>
              </g>
            </g>
          </g>
        </g>
      </g>
    </g>
    <g id="apoyo-tecnico_3_" data-name="apoyo-tecnico (3)" transform="translate(1171.41 4027)">
      <g id="Grupo_1164361" data-name="Grupo 1164361" transform="translate(19.574 0.987)">
        <g id="Grupo_1164360" data-name="Grupo 1164360" transform="translate(0)">
          <g id="Grupo_1164354" data-name="Grupo 1164354" transform="translate(0 39.851)">
            <g id="Grupo_1164353" data-name="Grupo 1164353">
              <g id="Grupo_1164352" data-name="Grupo 1164352">
                <g id="Grupo_1164351" data-name="Grupo 1164351">
                  <g id="Grupo_1164350" data-name="Grupo 1164350">
                    <g id="Grupo_1164349" data-name="Grupo 1164349">
                      <g id="Grupo_1164348" data-name="Grupo 1164348" transform="translate(4.978 3.304)">
                        <path id="Trazado_1000025" data-name="Trazado 1000025" d="M63.878,351.879l13.651,5.081a10.389,10.389,0,0,0,3.624.652H95.221a10.387,10.387,0,0,0,5.56-1.613l17.615-9.964a3.092,3.092,0,0,0,.5-4.051c-.957-1.406-2.539-1.65-4.281-.827l-17.15,7.551.02-2.782a4.98,4.98,0,0,0-4.258-4.438l-10.444-1.2c-2.409-.341-3.613-1.148-5.713-2.377a18.718,18.718,0,0,0-9.451-2.561H63.878Z" transform="translate(-63.878 -335.347)" fill="#ffddce"/>
                      </g>
                      <path id="Trazado_1000026" data-name="Trazado 1000026" d="M118.9,377.207c-.957-1.406-2.539-1.65-4.281-.827l-4.187,1.844a3.089,3.089,0,0,1-.565,3.95l-11.371,6.433a10.385,10.385,0,0,1-3.274.53H83.5a10.388,10.388,0,0,1-3.624-.653l-13.064-5.43H63.878V387.1l13.651,5.081a10.389,10.389,0,0,0,3.624.652H95.221a10.387,10.387,0,0,0,5.56-1.613l17.615-9.964a3.092,3.092,0,0,0,.5-4.051Z" transform="translate(-58.9 -367.266)" fill="#ffcbbe"/>
                      <path id="Trazado_1000027" data-name="Trazado 1000027" d="M33.978,332.8a1.793,1.793,0,0,1-1.793,1.793H27.856a1.793,1.793,0,0,1-1.793-1.793V312.041a1.793,1.793,0,0,1,1.793-1.793h4.328a1.793,1.793,0,0,1,1.793,1.793Z" transform="translate(-26.063 -310.248)" fill="#e07f84"/>
                      <path id="Trazado_1000028" data-name="Trazado 1000028" d="M26.063,416.562v8.561a1.793,1.793,0,0,0,1.793,1.793h4.328a1.793,1.793,0,0,0,1.793-1.793v-6.768H27.856A1.793,1.793,0,0,1,26.063,416.562Z" transform="translate(-26.063 -402.568)" fill="#db636e"/>
                    </g>
                  </g>
                </g>
              </g>
            </g>
          </g>
          <g id="Grupo_1164359" data-name="Grupo 1164359" transform="translate(8.877)">
            <g id="Grupo_1164356" data-name="Grupo 1164356">
              <path id="Trazado_1000029" data-name="Trazado 1000029" d="M136.263,26.452a2.073,2.073,0,0,0-2.077-2.075H134.1a.893.893,0,0,1-.817-.661,18.991,18.991,0,0,0-1.793-4.285.905.905,0,0,1,.125-1.073l.027-.028h0a2.088,2.088,0,0,0-.015-2.949l-3.365-3.341a2.062,2.062,0,0,0-2.93.025l-.028.028a.9.9,0,0,1-1.072.132,18.99,18.99,0,0,0-4.3-1.763.893.893,0,0,1-.667-.812c0-.028,0-.057,0-.086A2.073,2.073,0,0,0,117.179,7.5l-4.728.017a2.073,2.073,0,0,0-2.075,2.077c0,.009,0,.019,0,.029a.911.911,0,0,1-.664.874,19,19,0,0,0-4.257,1.777.94.94,0,0,1-1.122-.131l-.006-.006h0a2.089,2.089,0,0,0-2.949.015L98.051,15.5a2.082,2.082,0,0,0,.01,2.944h0l.027.028a.905.905,0,0,1,.132,1.072,18.984,18.984,0,0,0-1.762,4.3.912.912,0,0,1-.87.67h-.029A2.073,2.073,0,0,0,93.5,26.6l.017,4.728A2.073,2.073,0,0,0,95.593,33.4h.086a.893.893,0,0,1,.817.661,18.983,18.983,0,0,0,1.793,4.286.9.9,0,0,1-.125,1.072l-.027.028h0a2.075,2.075,0,0,0,.005,2.939l3.345,3.322a2.1,2.1,0,0,0,2.959,0h0l.027-.027a.906.906,0,0,1,1.073-.133,18.987,18.987,0,0,0,4.3,1.762.894.894,0,0,1,.668.814q0,.042,0,.084a2.074,2.074,0,0,0,2.089,2.063l4.728-.017a2.073,2.073,0,0,0,2.075-2.077c0-.009,0-.019,0-.029a.911.911,0,0,1,.664-.874,18.99,18.99,0,0,0,4.284-1.793.9.9,0,0,1,1.072.125l.028.028h0a2.082,2.082,0,0,0,2.944-.01l3.336-3.359a2.076,2.076,0,0,0-.015-2.94h0l-.028-.028a.9.9,0,0,1-.132-1.071,18.988,18.988,0,0,0,1.763-4.3.911.911,0,0,1,.869-.669h.029a2.073,2.073,0,0,0,2.063-2.089Z" transform="translate(-93.499 -7.501)" fill="#7fb2f9"/>
              <path id="Trazado_1000030" data-name="Trazado 1000030" d="M252.325,26.451a2.073,2.073,0,0,0-2.077-2.075h-.086a.893.893,0,0,1-.817-.661,18.992,18.992,0,0,0-1.793-4.285.905.905,0,0,1,.125-1.073l.027-.028h0a2.088,2.088,0,0,0-.015-2.949l-3.365-3.341a2.062,2.062,0,0,0-2.93.025l-.028.028a.9.9,0,0,1-1.072.132A18.989,18.989,0,0,0,236,10.46a.893.893,0,0,1-.667-.812c0-.028,0-.057,0-.086A2.073,2.073,0,0,0,233.241,7.5l-4.728.017a2.087,2.087,0,0,0-1.359.509,21.4,21.4,0,0,1,.092,41.708,2.086,2.086,0,0,0,1.416.547l4.728-.017a2.073,2.073,0,0,0,2.075-2.077c0-.009,0-.019,0-.029a.911.911,0,0,1,.664-.874,18.99,18.99,0,0,0,4.284-1.793.9.9,0,0,1,1.072.125l.028.028h0a2.082,2.082,0,0,0,2.944-.01l3.336-3.359a2.075,2.075,0,0,0-.015-2.94h0l-.028-.028a.9.9,0,0,1-.132-1.071,18.983,18.983,0,0,0,1.763-4.3.911.911,0,0,1,.869-.669h.029a2.073,2.073,0,0,0,2.063-2.089Z" transform="translate(-209.561 -7.5)" fill="#60a0f7"/>
              <g id="Grupo_1164355" data-name="Grupo 1164355" transform="translate(8.527 8.527)">
                <path id="Trazado_1000031" data-name="Trazado 1000031" d="M171.189,98.008A12.863,12.863,0,1,1,184.007,85.1,12.863,12.863,0,0,1,171.189,98.008Z" transform="translate(-158.281 -72.282)" fill="#eaf2ff"/>
              </g>
            </g>
            <g id="Grupo_1164358" data-name="Grupo 1164358" transform="translate(10.265 13.699)">
              <g id="Grupo_1164357" data-name="Grupo 1164357">
                <path id="Trazado_1000032" data-name="Trazado 1000032" d="M176.15,130.386l1.287-1.287a8.76,8.76,0,0,1,5.741-2.544l.049,0a7.5,7.5,0,0,0,6.805-9.483.645.645,0,0,0-1.077-.288l-3.944,3.944a1.693,1.693,0,0,1-2.394,0l-1.472-1.472a1.693,1.693,0,0,1,0-2.394l3.944-3.944a.645.645,0,0,0-.288-1.077,7.5,7.5,0,0,0-9.482,6.805c0,.016,0,.033,0,.049a8.759,8.759,0,0,1-2.544,5.741l-1.287,1.287A12.923,12.923,0,0,0,176.15,130.386Z" transform="translate(-171.485 -111.571)" fill="#bcd6f9"/>
              </g>
            </g>
          </g>
        </g>
      </g>
      <g id="Grupo_1164363" data-name="Grupo 1164363" transform="translate(18.59 0)">
        <g id="Grupo_1164362" data-name="Grupo 1164362" transform="translate(0)">
          <path id="Trazado_1000033" data-name="Trazado 1000033" d="M89.075,27.878a20.014,20.014,0,0,0,1.841,4.4,3.061,3.061,0,0,0,.043,4.3L94.3,39.9a3.1,3.1,0,0,0,4.322.032,20,20,0,0,0,4.412,1.81,3.059,3.059,0,0,0,3.069,3.011h.011l4.728-.017a3.06,3.06,0,0,0,3.058-3.033,20,20,0,0,0,4.4-1.841,3.069,3.069,0,0,0,4.307-.048l3.336-3.359a3.062,3.062,0,0,0,.013-4.3,20,20,0,0,0,1.81-4.412,3.059,3.059,0,0,0,3.011-3.08l-.016-4.728a3.059,3.059,0,0,0-3.033-3.059,20,20,0,0,0-1.841-4.4,3.081,3.081,0,0,0-.052-4.311l-3.365-3.341a3.048,3.048,0,0,0-4.293,0,20,20,0,0,0-4.412-1.81A3.059,3.059,0,0,0,110.7,0h-.011l-4.728.016A3.06,3.06,0,0,0,102.9,3.049,20.006,20.006,0,0,0,98.5,4.89a3.081,3.081,0,0,0-4.312.052l-3.327,3.35a3.067,3.067,0,0,0-.018,4.307,20,20,0,0,0-1.81,4.412,3.059,3.059,0,0,0-3.011,3.08l.017,4.728a3.06,3.06,0,0,0,3.033,3.059Zm0-8.892h.043a1.907,1.907,0,0,0,1.811-1.4A18.031,18.031,0,0,1,92.6,13.517a1.9,1.9,0,0,0-.283-2.241l-.036-.036-.007-.007a1.1,1.1,0,0,1-.005-1.548l3.327-3.35a1.1,1.1,0,0,1,1.555-.008l.007.007a1.931,1.931,0,0,0,2.3.286,18.025,18.025,0,0,1,4.036-1.685,1.908,1.908,0,0,0,1.384-1.825V3.072a1.086,1.086,0,0,1,1.091-1.081l4.728-.017h0a1.085,1.085,0,0,1,1.094,1.075,1.871,1.871,0,0,0,1.4,1.85,18.023,18.023,0,0,1,4.075,1.671,1.9,1.9,0,0,0,2.243-.285,1.1,1.1,0,0,1,1.574-.06l3.365,3.341a1.1,1.1,0,0,1,.009,1.553,1.9,1.9,0,0,0-.309,2.286,18.022,18.022,0,0,1,1.7,4.062,1.871,1.871,0,0,0,1.873,1.383,1.086,1.086,0,0,1,1.07,1.091l.016,4.728a1.1,1.1,0,0,1-1.116,1.1,1.907,1.907,0,0,0-1.81,1.4,18.017,18.017,0,0,1-1.671,4.074,1.9,1.9,0,0,0,.281,2.238,1.092,1.092,0,0,1,.055,1.589l-3.336,3.359a1.094,1.094,0,0,1-1.548.005,1.9,1.9,0,0,0-2.286-.31,18.031,18.031,0,0,1-4.062,1.7,1.908,1.908,0,0,0-1.384,1.825v.038a1.086,1.086,0,0,1-1.091,1.081l-4.728.017h0a1.1,1.1,0,0,1-1.1-1.2,1.87,1.87,0,0,0-1.394-1.728,18.031,18.031,0,0,1-4.073-1.671,1.905,1.905,0,0,0-2.278.318,1.119,1.119,0,0,1-1.57,0L92.35,35.178a1.087,1.087,0,0,1,0-1.544l.041-.042a1.9,1.9,0,0,0,.268-2.244,18.017,18.017,0,0,1-1.7-4.063A1.869,1.869,0,0,0,89.224,25.9H89.1a1.086,1.086,0,0,1-1.08-1.091L88,20.085a1.085,1.085,0,0,1,1.072-1.1Z" transform="translate(-77.149 0)"/>
          <path id="Trazado_1000034" data-name="Trazado 1000034" d="M164.658,92.483h.049a13.858,13.858,0,0,0,13.625-11.634.987.987,0,0,0-1.949-.314A11.883,11.883,0,0,1,164.7,90.509h-.042a11.807,11.807,0,0,1-4.8-1.015l.325-.325a7.763,7.763,0,0,1,5.094-2.256,8.688,8.688,0,0,0,5.575-2.474,8.507,8.507,0,0,0,2.18-8.259,1.632,1.632,0,0,0-2.727-.724L166.361,79.4a.705.705,0,0,1-1,0l-1.472-1.472a.705.705,0,0,1,0-1l3.944-3.944a1.632,1.632,0,0,0-.724-2.727,8.485,8.485,0,0,0-10.73,7.7,8.047,8.047,0,0,1-2.259,5.146l-.325.325a11.873,11.873,0,0,1,10.819-16.676h.042A11.89,11.89,0,0,1,176.306,76.3a.987.987,0,0,0,1.937-.385,13.868,13.868,0,0,0-13.584-11.137h-.049a13.85,13.85,0,0,0,.048,27.7ZM155.519,84.5a10.1,10.1,0,0,0,2.834-6.433A6.51,6.51,0,0,1,166,72.03l-3.5,3.5a2.683,2.683,0,0,0,0,3.79l1.471,1.472a2.683,2.683,0,0,0,3.79,0l3.5-3.5a6.53,6.53,0,0,1-1.805,5.75,6.625,6.625,0,0,1-4.281,1.9,9.735,9.735,0,0,0-6.387,2.832l-.728.728a11.973,11.973,0,0,1-3.268-3.268Z" transform="translate(-133.404 -56.256)"/>
          <path id="Trazado_1000035" data-name="Trazado 1000035" d="M80.392,313.12c-1.214-1.784-3.271-2.221-5.506-1.17l-15.742,6.931c.008-1.325.014-1.268,0-1.362a5.953,5.953,0,0,0-5.1-5.318l-.025,0L43.59,311c-2.207-.314-3.286-1.048-5.341-2.25a19.725,19.725,0,0,0-9.77-2.694v-.526a2.784,2.784,0,0,0-2.781-2.781H21.371a2.784,2.784,0,0,0-2.781,2.781v20.762a2.784,2.784,0,0,0,2.781,2.781H25.7a2.784,2.784,0,0,0,2.781-2.781v-.2l9.382,3.492a11.337,11.337,0,0,0,3.968.715H55.9c4.8,0,5.844-2.01,23.661-11.706a4.053,4.053,0,0,0,.833-5.466Zm-1.905,3.8c-17.913,9.81-18.643,11.393-22.589,11.393H41.829a9.368,9.368,0,0,1-3.279-.591l-10.071-3.748v-8.183a.987.987,0,1,0-1.974,0V326.29a.807.807,0,0,1-.806.806H21.371a.807.807,0,0,1-.806-.806V305.528a.807.807,0,0,1,.806-.806H25.7a.807.807,0,0,1,.806.806v5.69a.987.987,0,1,0,1.974,0v-3.189a17.747,17.747,0,0,1,8.773,2.423c2.16,1.264,3.477,2.135,6.073,2.5l.025,0,10.43,1.2a3.983,3.983,0,0,1,3.4,3.507l-.013,1.747H45.47a.987.987,0,0,0,0,1.974H58.145c.443,0-.446.251,17.548-7.635l.024-.011c.935-.442,2.222-.716,3.042.49a2.109,2.109,0,0,1-.273,2.693Z" transform="translate(-18.59 -262.896)"/>
        </g>
      </g>
    </g>
  </g>
</svg>
