<svg xmlns="http://www.w3.org/2000/svg" xmlns:xlink="http://www.w3.org/1999/xlink" width="113" height="113" viewBox="0 0 113 113">
  <defs>
    <filter id="Trazado_982547" x="0" y="0" width="113" height="113" filterUnits="userSpaceOnUse">
      <feOffset dy="3" input="SourceAlpha"/>
      <feGaussianBlur stdDeviation="3" result="blur"/>
      <feFlood flood-opacity="0.161"/>
      <feComposite operator="in" in2="blur"/>
      <feComposite in="SourceGraphic"/>
    </filter>
  </defs>
  <g id="Grupo_1164236" data-name="Grupo 1164236" transform="translate(-272 -956.5)">
    <g id="Grupo_1163939" data-name="Grupo 1163939" transform="translate(0 -1521.5)">
      <g id="Grupo_1158168" data-name="Grupo 1158168" transform="translate(281 2484)">
        <g id="Grupo_1152576" data-name="Grupo 1152576" transform="translate(0)">
          <g id="Grupo_1148633" data-name="Grupo 1148633">
            <g id="Grupo_1148525" data-name="Grupo 1148525">
              <g transform="matrix(1, 0, 0, 1, -9, -6)" filter="url(#Trazado_982547)">
                <g id="Trazado_982547-2" data-name="Trazado 982547" transform="translate(9 6)" fill="#f0ebfe">
                  <path d="M 47.5 93.5 C 41.28937149047852 93.5 35.26533508300781 92.28397369384766 29.59518623352051 89.88570404052734 C 24.11771965026855 87.56893157958984 19.19813346862793 84.25196075439453 14.97309303283691 80.02691650390625 C 10.74804019927979 75.80186462402344 7.431066513061523 70.88229370117188 5.114293098449707 65.40481567382812 C 2.716026782989502 59.73468017578125 1.5 53.71062850952148 1.5 47.5 C 1.5 41.28937149047852 2.716026782989502 35.26533508300781 5.114293098449707 29.59518623352051 C 7.431066513061523 24.11771965026855 10.74804019927979 19.19813346862793 14.97309303283691 14.97309303283691 C 19.19813346862793 10.74804019927979 24.11771965026855 7.431066513061523 29.59518623352051 5.114293098449707 C 35.26533508300781 2.716026782989502 41.28937149047852 1.5 47.5 1.5 C 53.71062850952148 1.5 59.73468017578125 2.716026782989502 65.40481567382812 5.114293098449707 C 70.88229370117188 7.431066513061523 75.80186462402344 10.74804019927979 80.02691650390625 14.97309303283691 C 84.25196075439453 19.19813346862793 87.56893157958984 24.11771965026855 89.88570404052734 29.59518623352051 C 92.28397369384766 35.26533508300781 93.5 41.28937149047852 93.5 47.5 C 93.5 53.71062850952148 92.28397369384766 59.73468017578125 89.88570404052734 65.40481567382812 C 87.56893157958984 70.88229370117188 84.25196075439453 75.80186462402344 80.02691650390625 80.02691650390625 C 75.80186462402344 84.25196075439453 70.88229370117188 87.56893157958984 65.40481567382812 89.88570404052734 C 59.73468017578125 92.28397369384766 53.71062850952148 93.5 47.5 93.5 Z" stroke="none"/>
                  <path d="M 47.5 3 C 41.49121475219727 3 35.66376876831055 4.176155090332031 30.17950439453125 6.495796203613281 C 24.88084411621094 8.736953735351562 20.12152099609375 11.94598388671875 16.03375244140625 16.03375244140625 C 11.94598388671875 20.12152099609375 8.736953735351562 24.88084411621094 6.495796203613281 30.17950439453125 C 4.176155090332031 35.66376876831055 3 41.49121475219727 3 47.5 C 3 53.50878524780273 4.176155090332031 59.33623123168945 6.495796203613281 64.82049560546875 C 8.736953735351562 70.11915588378906 11.94598388671875 74.87847900390625 16.03375244140625 78.96624755859375 C 20.12152099609375 83.05401611328125 24.88084411621094 86.26304626464844 30.17950439453125 88.50419616699219 C 35.66376876831055 90.82384490966797 41.49121475219727 92 47.5 92 C 53.50878524780273 92 59.33623123168945 90.82384490966797 64.82049560546875 88.50419616699219 C 70.11915588378906 86.26304626464844 74.87847900390625 83.05401611328125 78.96624755859375 78.96624755859375 C 83.05401611328125 74.87847900390625 86.26304626464844 70.11915588378906 88.50419616699219 64.82049560546875 C 90.82384490966797 59.33623123168945 92 53.50878524780273 92 47.5 C 92 41.49121475219727 90.82384490966797 35.66376876831055 88.50419616699219 30.17950439453125 C 86.26304626464844 24.88084411621094 83.05401611328125 20.12152099609375 78.96624755859375 16.03375244140625 C 74.87847900390625 11.94598388671875 70.11915588378906 8.736953735351562 64.82049560546875 6.495796203613281 C 59.33623123168945 4.176155090332031 53.50878524780273 3 47.5 3 M 47.5 0 C 73.7335205078125 0 95 21.2664794921875 95 47.5 C 95 73.7335205078125 73.7335205078125 95 47.5 95 C 21.2664794921875 95 0 73.7335205078125 0 47.5 C 0 21.2664794921875 21.2664794921875 0 47.5 0 Z" stroke="none" fill="#7145fe"/>
                </g>
              </g>
            </g>
          </g>
        </g>
      </g>
    </g>
    <g id="codigo_1_" data-name="codigo (1)" transform="translate(295.653 954.308)">
      <path id="Trazado_999536" data-name="Trazado 999536" d="M200.968,379.385H185.25l-1.084,7.275h17.886Z" transform="translate(-161.238 -308.332)" fill="#4e5660"/>
      <path id="Trazado_999537" data-name="Trazado 999537" d="M173.525,442.736H149.792a1.548,1.548,0,0,1-1.485-1.985l.216-.733a3.059,3.059,0,0,1,2.934-2.2h20.4a3.059,3.059,0,0,1,2.934,2.2l.216.733A1.548,1.548,0,0,1,173.525,442.736Z" transform="translate(-129.788 -359.495)" fill="#c6c6c6"/>
      <path id="Trazado_999538" data-name="Trazado 999538" d="M159.569,437.823h-8.111a3.059,3.059,0,0,0-2.934,2.2l-.216.733a1.548,1.548,0,0,0,1.485,1.985h10.991A5.653,5.653,0,0,1,159.569,437.823Z" transform="translate(-129.788 -359.495)" fill="#9aa3b1"/>
      <path id="Trazado_999539" data-name="Trazado 999539" d="M61.994,77.62H14.88A7.38,7.38,0,0,1,7.5,70.24V42.089a7.38,7.38,0,0,1,7.38-7.38H61.994a7.38,7.38,0,0,1,7.38,7.38V70.24A7.38,7.38,0,0,1,61.994,77.62Z" transform="translate(-6.566 -6.566)" fill="#4e5660"/>
      <path id="Trazado_999540" data-name="Trazado 999540" d="M27.483,34.71H14.88A7.38,7.38,0,0,0,7.5,42.09V70.241a7.38,7.38,0,0,0,7.38,7.38H33.057c-7.015-7.341-10.1-27.948-5.573-42.91Z" transform="translate(-6.566 -6.567)" fill="#383c43"/>
      <path id="Trazado_999541" data-name="Trazado 999541" d="M48.044,104.806V78.517a3.263,3.263,0,0,1,3.263-3.263H96.56a3.263,3.263,0,0,1,3.263,3.263v26.29a3.263,3.263,0,0,1-3.263,3.263H51.307a3.263,3.263,0,0,1-3.263-3.263Z" transform="translate(-42.063 -42.064)" fill="#f7ef87"/>
      <path id="Trazado_999542" data-name="Trazado 999542" d="M65.217,108.069c-3.934-8.177-5.531-21.412-3.446-32.815H51.308a3.263,3.263,0,0,0-3.263,3.263v26.29a3.263,3.263,0,0,0,3.263,3.263Z" transform="translate(-42.064 -42.064)" fill="#efd176"/>
      <path id="Trazado_999543" data-name="Trazado 999543" d="M278.627,75.254H256v32.815h22.627a3.263,3.263,0,0,0,3.263-3.263V78.517A3.263,3.263,0,0,0,278.627,75.254Z" transform="translate(-224.129 -42.064)" fill="#383c43"/>
      <path id="Trazado_999544" data-name="Trazado 999544" d="M7.5,303.52v2.065a7.38,7.38,0,0,0,7.38,7.38H61.994a7.38,7.38,0,0,0,7.38-7.38V303.52Z" transform="translate(-6.566 -241.912)" fill="#c6c6c6"/>
      <path id="Trazado_999545" data-name="Trazado 999545" d="M7.5,303.52v2.065a7.38,7.38,0,0,0,7.38,7.38H33.057a24.967,24.967,0,0,1-5.078-9.445Z" transform="translate(-6.566 -241.912)" fill="#9aa3b1"/>
      <circle id="Elipse_12279" data-name="Elipse 12279" cx="2.698" cy="2.698" r="2.698" transform="translate(29.173 63.633)" fill="#fff"/>
      <path id="Trazado_999546" data-name="Trazado 999546" d="M386.072,211.278h-3.711a.934.934,0,0,1,0-1.867h3.711a.934.934,0,0,1,0,1.867Z" transform="translate(-333.941 -159.519)" fill="#fff"/>
      <path id="Trazado_999547" data-name="Trazado 999547" d="M302.221,211.278h-7.571a.934.934,0,0,1,0-1.867h7.571a.934.934,0,0,1,0,1.867Z" transform="translate(-257.151 -159.519)" fill="#a3defe"/>
      <path id="Trazado_999548" data-name="Trazado 999548" d="M353.3,238.553h-4.618a.934.934,0,0,1,0-1.867H353.3a.934.934,0,0,1,0,1.867Z" transform="translate(-304.457 -183.398)" fill="#a3defe"/>
      <path id="Trazado_999549" data-name="Trazado 999549" d="M298.029,238.553h-3.378a.934.934,0,0,1,0-1.867h3.378a.934.934,0,0,1,0,1.867Z" transform="translate(-257.151 -183.398)" fill="#fff"/>
      <path id="Trazado_999550" data-name="Trazado 999550" d="M353.645,184h-6.851a.934.934,0,1,1,0-1.867h6.851a.934.934,0,0,1,0,1.867Z" transform="translate(-302.802 -135.639)" fill="#89d47f"/>
      <path id="Trazado_999551" data-name="Trazado 999551" d="M297.794,184h-3.143a.934.934,0,1,1,0-1.867h3.143a.934.934,0,1,1,0,1.867Z" transform="translate(-257.151 -135.639)" fill="#e8899e"/>
      <path id="Trazado_999552" data-name="Trazado 999552" d="M384.609,156.727H380.69a.934.934,0,0,1,0-1.867h3.919a.934.934,0,0,1,0,1.867Z" transform="translate(-332.478 -111.759)" fill="#e8899e"/>
      <path id="Trazado_999553" data-name="Trazado 999553" d="M302.013,156.727h-7.362a.934.934,0,0,1,0-1.867h7.362a.934.934,0,0,1,0,1.867Z" transform="translate(-257.151 -111.759)" fill="#fff"/>
      <path id="Trazado_999554" data-name="Trazado 999554" d="M352.857,129.452h-4.173a.934.934,0,1,1,0-1.867h4.173a.934.934,0,1,1,0,1.867Z" transform="translate(-304.457 -87.88)" fill="#89d47f"/>
      <path id="Trazado_999555" data-name="Trazado 999555" d="M298.029,129.452h-3.378a.934.934,0,1,1,0-1.867h3.378a.934.934,0,1,1,0,1.867Z" transform="translate(-257.151 -87.88)" fill="#a3defe"/>
      <path id="Trazado_999556" data-name="Trazado 999556" d="M21.406,40.54a.933.933,0,0,0-1.2.558L15.888,52.971a.934.934,0,1,0,1.755.639l4.321-11.873a.934.934,0,0,0-.558-1.2Zm-5.92,2.307a.934.934,0,0,0-1.321,0l-3.847,3.847a.934.934,0,0,0,0,1.321l3.847,3.847a.934.934,0,0,0,1.321-1.32L12.3,47.354l3.187-3.187a.934.934,0,0,0,0-1.321ZM55.428,27.209h-8.34a.934.934,0,1,0,0,1.867h8.34a6.453,6.453,0,0,1,6.446,6.446V60.675h-3.18V36.453a4.2,4.2,0,0,0-4.2-4.2H9.244a4.2,4.2,0,0,0-4.2,4.2V60.675H1.867V35.523a6.453,6.453,0,0,1,6.446-6.446H42.39a.934.934,0,1,0,0-1.867H8.314A8.323,8.323,0,0,0,0,35.523V63.673a8.324,8.324,0,0,0,4.947,7.6A.934.934,0,0,0,5.7,69.569a6.455,6.455,0,0,1-3.836-5.9V62.542H61.874v1.131a6.454,6.454,0,0,1-6.446,6.446H9.681a.934.934,0,0,0,0,1.867H22.929l-.806,5.408H21.67a4.015,4.015,0,0,0-3.83,2.865l-.216.733A2.482,2.482,0,0,0,20,84.176H43.737a2.482,2.482,0,0,0,2.381-3.182L45.9,80.26a4.015,4.015,0,0,0-3.83-2.865h-.453l-.806-5.408H55.428a8.323,8.323,0,0,0,8.314-8.314V35.523a8.323,8.323,0,0,0-8.314-8.313Zm1.4,33.466H6.915V36.453a2.332,2.332,0,0,1,2.329-2.329H54.5a2.332,2.332,0,0,1,2.329,2.329ZM24.817,71.987H38.925l.806,5.408H24.011Zm16,7.275h1.258a2.137,2.137,0,0,1,2.039,1.525l.216.733a.6.6,0,0,1-.1.541.609.609,0,0,1-.492.246H20a.609.609,0,0,1-.492-.246.6.6,0,0,1-.1-.541l.216-.733a2.137,2.137,0,0,1,2.039-1.525H40.814ZM23.687,42.847a.934.934,0,0,0-1.321,1.32l3.187,3.187-3.187,3.187a.934.934,0,0,0,1.321,1.32l3.847-3.847a.934.934,0,0,0,0-1.321Z"/>
    </g>
  </g>
</svg>
