<svg xmlns="http://www.w3.org/2000/svg" xmlns:xlink="http://www.w3.org/1999/xlink" width="113" height="113" viewBox="0 0 113 113">
  <defs>
    <filter id="Trazado_982547" x="0" y="0" width="113" height="113" filterUnits="userSpaceOnUse">
      <feOffset dy="3" input="SourceAlpha"/>
      <feGaussianBlur stdDeviation="3" result="blur"/>
      <feFlood flood-opacity="0.161"/>
      <feComposite operator="in" in2="blur"/>
      <feComposite in="SourceGraphic"/>
    </filter>
  </defs>
  <g id="Grupo_1164254" data-name="Grupo 1164254" transform="translate(-587 -956.5)">
    <g id="Grupo_1163940" data-name="Grupo 1163940" transform="translate(0 -1521.5)">
      <g id="Grupo_1161819" data-name="Grupo 1161819" transform="translate(596 2484)">
        <g id="Grupo_1152576" data-name="Grupo 1152576" transform="translate(0)">
          <g id="Grupo_1148633" data-name="Grupo 1148633">
            <g id="Grupo_1148525" data-name="Grupo 1148525">
              <g transform="matrix(1, 0, 0, 1, -9, -6)" filter="url(#Trazado_982547)">
                <g id="Trazado_982547-2" data-name="Trazado 982547" transform="translate(9 6)" fill="#f0ebfe">
                  <path d="M 47.5 93.5 C 41.28937149047852 93.5 35.26533508300781 92.28397369384766 29.59518623352051 89.88570404052734 C 24.11771965026855 87.56893157958984 19.19813346862793 84.25196075439453 14.97309303283691 80.02691650390625 C 10.74804019927979 75.80186462402344 7.431066513061523 70.88229370117188 5.114293098449707 65.40481567382812 C 2.716026782989502 59.73468017578125 1.5 53.71062850952148 1.5 47.5 C 1.5 41.28937149047852 2.716026782989502 35.26533508300781 5.114293098449707 29.59518623352051 C 7.431066513061523 24.11771965026855 10.74804019927979 19.19813346862793 14.97309303283691 14.97309303283691 C 19.19813346862793 10.74804019927979 24.11771965026855 7.431066513061523 29.59518623352051 5.114293098449707 C 35.26533508300781 2.716026782989502 41.28937149047852 1.5 47.5 1.5 C 53.71062850952148 1.5 59.73468017578125 2.716026782989502 65.40481567382812 5.114293098449707 C 70.88229370117188 7.431066513061523 75.80186462402344 10.74804019927979 80.02691650390625 14.97309303283691 C 84.25196075439453 19.19813346862793 87.56893157958984 24.11771965026855 89.88570404052734 29.59518623352051 C 92.28397369384766 35.26533508300781 93.5 41.28937149047852 93.5 47.5 C 93.5 53.71062850952148 92.28397369384766 59.73468017578125 89.88570404052734 65.40481567382812 C 87.56893157958984 70.88229370117188 84.25196075439453 75.80186462402344 80.02691650390625 80.02691650390625 C 75.80186462402344 84.25196075439453 70.88229370117188 87.56893157958984 65.40481567382812 89.88570404052734 C 59.73468017578125 92.28397369384766 53.71062850952148 93.5 47.5 93.5 Z" stroke="none"/>
                  <path d="M 47.5 3 C 41.49121475219727 3 35.66376876831055 4.176155090332031 30.17950439453125 6.495796203613281 C 24.88084411621094 8.736953735351562 20.12152099609375 11.94598388671875 16.03375244140625 16.03375244140625 C 11.94598388671875 20.12152099609375 8.736953735351562 24.88084411621094 6.495796203613281 30.17950439453125 C 4.176155090332031 35.66376876831055 3 41.49121475219727 3 47.5 C 3 53.50878524780273 4.176155090332031 59.33623123168945 6.495796203613281 64.82049560546875 C 8.736953735351562 70.11915588378906 11.94598388671875 74.87847900390625 16.03375244140625 78.96624755859375 C 20.12152099609375 83.05401611328125 24.88084411621094 86.26304626464844 30.17950439453125 88.50419616699219 C 35.66376876831055 90.82384490966797 41.49121475219727 92 47.5 92 C 53.50878524780273 92 59.33623123168945 90.82384490966797 64.82049560546875 88.50419616699219 C 70.11915588378906 86.26304626464844 74.87847900390625 83.05401611328125 78.96624755859375 78.96624755859375 C 83.05401611328125 74.87847900390625 86.26304626464844 70.11915588378906 88.50419616699219 64.82049560546875 C 90.82384490966797 59.33623123168945 92 53.50878524780273 92 47.5 C 92 41.49121475219727 90.82384490966797 35.66376876831055 88.50419616699219 30.17950439453125 C 86.26304626464844 24.88084411621094 83.05401611328125 20.12152099609375 78.96624755859375 16.03375244140625 C 74.87847900390625 11.94598388671875 70.11915588378906 8.736953735351562 64.82049560546875 6.495796203613281 C 59.33623123168945 4.176155090332031 53.50878524780273 3 47.5 3 M 47.5 0 C 73.7335205078125 0 95 21.2664794921875 95 47.5 C 95 73.7335205078125 73.7335205078125 95 47.5 95 C 21.2664794921875 95 0 73.7335205078125 0 47.5 C 0 21.2664794921875 21.2664794921875 0 47.5 0 Z" stroke="none" fill="#7145fe"/>
                </g>
              </g>
            </g>
          </g>
        </g>
      </g>
    </g>
    <g id="desarrollando_1_" data-name="desarrollando (1)" transform="translate(610.75 977.943)">
      <g id="Grupo_1164252" data-name="Grupo 1164252">
        <g id="Grupo_1164237" data-name="Grupo 1164237">
          <path id="Trazado_999557" data-name="Trazado 999557" d="M55,2l5,8H58V27H52V10H50Z" fill="#b4dd7f"/>
        </g>
        <g id="Grupo_1164238" data-name="Grupo 1164238">
          <path id="Trazado_999558" data-name="Trazado 999558" d="M9,38l5,8H12V63H6V46H4Z" fill="#b4dd7f"/>
        </g>
        <g id="Grupo_1164239" data-name="Grupo 1164239">
          <path id="Trazado_999559" data-name="Trazado 999559" d="M49.23,36.28a18.09,18.09,0,0,0,1.66-3.43,3.947,3.947,0,0,0,.46.23,3.843,3.843,0,0,0,3.72-.43l.12-.09,4.25,4.25-.09.12a3.874,3.874,0,0,0-.43,3.72,3.867,3.867,0,0,0,2.93,2.33L62,43v6l-.15.03a3.845,3.845,0,0,0-2.5,6.04l.09.12-4.25,4.24-.12-.08a3.874,3.874,0,0,0-3.72-.43,3.867,3.867,0,0,0-2.33,2.93L49,62H43l-.03-.16a3.836,3.836,0,0,0-2.32-2.92,3.95,3.95,0,0,0-2.17-.23A8.01,8.01,0,0,0,40,54a10,10,0,1,0,9.1-17.51h-.01c.05-.07.1-.14.14-.21Z" fill="#ffc729"/>
        </g>
        <g id="Grupo_1164240" data-name="Grupo 1164240">
          <path id="Trazado_999560" data-name="Trazado 999560" d="M12.67,21.6,12,26.54c0,.13,0,.27.01.4H12a1.922,1.922,0,0,0-1.2-1.78c-.01,0-.01-.01-.02-.01a1.923,1.923,0,0,0-2.1.41l-.75.75L3.69,22.07l.75-.75a1.923,1.923,0,0,0,.41-2.1c0-.01-.01-.01-.01-.02A1.922,1.922,0,0,0,3.06,18H2V12H3.06a1.922,1.922,0,0,0,1.78-1.2c0-.01.01-.01.01-.02a1.923,1.923,0,0,0-.41-2.1l-.75-.75L7.93,3.69l.75.75a1.923,1.923,0,0,0,2.1.41c.01,0,.01-.01.02-.01A1.922,1.922,0,0,0,12,3.06V2h6V3.06a1.922,1.922,0,0,0,1.2,1.78c.01,0,.01.01.02.01a1.923,1.923,0,0,0,2.1-.41l.75-.75,4.24,4.24-.75.75a18.3,18.3,0,0,0-4.92,2.19v-.01A7,7,0,1,0,12.67,21.6Z" fill="#ffc729"/>
        </g>
        <g id="Grupo_1164241" data-name="Grupo 1164241">
          <path id="Trazado_999561" data-name="Trazado 999561" d="M20.64,10.86v.01a18.256,18.256,0,0,0-3.13,2.48,3,3,0,1,0-3.36,4.53,17.929,17.929,0,0,0-1.48,3.72,7,7,0,1,1,7.97-10.74Z" fill="#fcd770"/>
        </g>
        <g id="Grupo_1164242" data-name="Grupo 1164242">
          <path id="Trazado_999562" data-name="Trazado 999562" d="M40,46a6,6,0,1,0,6.21-6l-.01-.01a17.949,17.949,0,0,0,2.89-3.5h.01A10,10,0,1,1,40,54V53a1,1,0,0,0-1-1H38V48h1a1,1,0,0,0,1-1Z" fill="#fcd770"/>
        </g>
        <g id="Grupo_1164243" data-name="Grupo 1164243">
          <path id="Trazado_999563" data-name="Trazado 999563" d="M40,53v1a8.01,8.01,0,0,1-1.52,4.69,8.414,8.414,0,0,1-.82.97A8,8,0,0,1,24,54V53a1,1,0,0,1,1-1H39A1,1,0,0,1,40,53Z" fill="#aab2bd"/>
        </g>
        <g id="Grupo_1164244" data-name="Grupo 1164244">
          <path id="Trazado_999564" data-name="Trazado 999564" d="M38,48v4H26V48H38Z" fill="#ccd1d9"/>
        </g>
        <g id="Grupo_1164245" data-name="Grupo 1164245">
          <path id="Trazado_999565" data-name="Trazado 999565" d="M40,46v1a1,1,0,0,1-1,1H34V38H30V48H25a1,1,0,0,1-1-1V36H20v5.78a18.485,18.485,0,0,1-7.99-14.84c-.01-.13-.01-.27-.01-.4l.67-4.94a17.929,17.929,0,0,1,1.48-3.72,18.5,18.5,0,0,1,3.28-4.45l.08-.08a18.716,18.716,0,0,1,8.05-4.67A18.6,18.6,0,0,1,30.54,8h2.92A18.533,18.533,0,0,1,50.89,32.85a18.09,18.09,0,0,1-1.66,3.43c-.04.07-.09.14-.14.21a17.949,17.949,0,0,1-2.89,3.5A16.385,16.385,0,0,1,44,41.78V28H40V46Z" fill="#ffeaa7"/>
        </g>
        <g id="Grupo_1164246" data-name="Grupo 1164246">
          <path id="Trazado_999566" data-name="Trazado 999566" d="M42,16a4,4,0,1,1-4,4A4,4,0,0,1,42,16Z" fill="#ff826e"/>
        </g>
        <g id="Grupo_1164247" data-name="Grupo 1164247">
          <path id="Trazado_999567" data-name="Trazado 999567" d="M34.83,27.17A4,4,0,1,1,32,26,4.025,4.025,0,0,1,34.83,27.17Z" fill="#ff826e"/>
        </g>
        <g id="Grupo_1164248" data-name="Grupo 1164248">
          <circle id="Elipse_12280" data-name="Elipse 12280" cx="2" cy="2" r="2" transform="translate(20 28)" fill="#ff826e"/>
        </g>
        <g id="Grupo_1164249" data-name="Grupo 1164249">
          <path id="Trazado_999568" data-name="Trazado 999568" d="M44,41.78v.01a17.983,17.983,0,0,1-2.25,1.33L40,44V28h4Z" fill="#e6e9ed"/>
        </g>
        <g id="Grupo_1164250" data-name="Grupo 1164250">
          <path id="Trazado_999569" data-name="Trazado 999569" d="M30,38h4V48H30Z" fill="#e6e9ed"/>
        </g>
        <g id="Grupo_1164251" data-name="Grupo 1164251">
          <path id="Trazado_999570" data-name="Trazado 999570" d="M24,36v8l-1.75-.88A17.982,17.982,0,0,1,20,41.79V36Z" fill="#e6e9ed"/>
        </g>
      </g>
      <g id="Grupo_1164253" data-name="Grupo 1164253">
        <circle id="Elipse_12281" data-name="Elipse 12281" cx="1" cy="1" r="1" transform="translate(31 29)"/>
        <path id="Trazado_999571" data-name="Trazado 999571" d="M32,35a4.992,4.992,0,0,0,4.167-7.753l3.08-3.08a5.015,5.015,0,1,0-1.414-1.414l-3.08,3.08A4.991,4.991,0,0,0,27.1,29H24.816a3,3,0,1,0,0,2H27.1A5.009,5.009,0,0,0,32,35ZM42,17a3,3,0,1,1-3,3A3,3,0,0,1,42,17ZM32,27a3,3,0,1,1-3,3A3,3,0,0,1,32,27ZM22,31a1,1,0,1,1,1-1A1,1,0,0,1,22,31Z"/>
        <circle id="Elipse_12282" data-name="Elipse 12282" cx="1" cy="1" r="1" transform="translate(41 19)"/>
        <path id="Trazado_999572" data-name="Trazado 999572" d="M2.195,47H5V64h8V47h2.805L9,36.113ZM11,45V62H7V45H5.8L9,39.887,12.195,45Z"/>
        <path id="Trazado_999573" data-name="Trazado 999573" d="M62.015,41.989a2.856,2.856,0,0,1-1.854-4.477l.58-.812L55.3,31.259l-.813.581a2.822,2.822,0,0,1-2.342.426,19.547,19.547,0,0,0,.8-4.266H59V11h2.805L55,.113,48.2,11H51v6.984A19.545,19.545,0,0,0,33.459,7H30.541a19.591,19.591,0,0,0-3.422.319L22.072,2.272,20.613,3.73a.934.934,0,0,1-1.035.184A.918.918,0,0,1,19,3.063V1H11V3.063a.955.955,0,0,1-1.612.667L7.929,2.272,2.272,7.928,3.73,9.388a.933.933,0,0,1,.185,1.035A.921.921,0,0,1,3.063,11H1v8H3.063a.932.932,0,0,1,.862.6.921.921,0,0,1-.2,1.009L2.272,22.072l5.656,5.656L9.387,26.27a.934.934,0,0,1,1.035-.184.918.918,0,0,1,.578.851h.014A19.425,19.425,0,0,0,21.8,44.019l1.2.6V47a2,2,0,0,0,2,2v2a2,2,0,0,0-2,2v1a8.993,8.993,0,0,0,16,5.639,2.867,2.867,0,0,1,1.267.209,2.825,2.825,0,0,1,1.717,2.162l.166.99h7.695l.161-.984a2.857,2.857,0,0,1,4.478-1.854l.813.58L60.742,55.3l-.579-.81a2.856,2.856,0,0,1,1.847-4.479l.99-.164V42.153ZM39,51V49a1.969,1.969,0,0,0,.631-.112,7,7,0,1,0,8.587-9.531,19.471,19.471,0,0,0,1.29-1.647A9,9,0,1,1,41,53.477V53A2,2,0,0,0,39,51Zm4-9.749a17.8,17.8,0,0,1-1.7.979l-.3.152V29h2Zm-2,3.367,1.2-.6a19.723,19.723,0,0,0,4.355-2.966A4.989,4.989,0,1,1,41,46ZM55,3.887,58.195,9H57V26H53V9H51.805ZM7.974,24.854l-.045.045L5.1,22.07l.044-.044A2.955,2.955,0,0,0,3.063,17H3V13h.063A2.955,2.955,0,0,0,5.145,7.974L5.1,7.929,7.929,5.1l.045.044A2.955,2.955,0,0,0,13,3.063V3h4v.063a2.956,2.956,0,0,0,5.027,2.083l.045-.045,2.756,2.756A19.4,19.4,0,0,0,20.877,9.58a7.991,7.991,0,1,0-9.368,12.6,19.148,19.148,0,0,0-.358,2.047,2.917,2.917,0,0,0-3.177.631Zm5.8-8.3A1.986,1.986,0,0,1,15,13a1.979,1.979,0,0,1,1.142.377A19.6,19.6,0,0,0,13.773,16.559Zm3.81-4.6a3.992,3.992,0,1,0-4.757,6.39,19.537,19.537,0,0,0-.76,1.883,5.993,5.993,0,1,1,7.09-9.536,19.708,19.708,0,0,0-1.573,1.263ZM22.7,42.23a17.891,17.891,0,0,1-1.7-.979V37h2v5.382ZM19,35v4.749A17.54,17.54,0,0,1,30.541,9h2.918A17.54,17.54,0,0,1,45,39.749V27H39V47H35V37H29V47H25V35ZM33,47H31V39h2Zm-6,2H37v2H27Zm5,12a7.008,7.008,0,0,1-7-7V53H39v1A7.008,7.008,0,0,1,32,61ZM61,48.2a4.859,4.859,0,0,0-2.834,6.845l-3.118,3.117A4.859,4.859,0,0,0,48.2,61H43.8a4.754,4.754,0,0,0-3.624-3.256,8.93,8.93,0,0,0,.659-2.034A10.891,10.891,0,0,0,46,57a11,11,0,0,0,4.569-21,19.244,19.244,0,0,0,.888-1.827,4.819,4.819,0,0,0,3.591-.337l3.117,3.117A4.859,4.859,0,0,0,61,43.8Z"/>
      </g>
    </g>
  </g>
</svg>
