<svg xmlns="http://www.w3.org/2000/svg" xmlns:xlink="http://www.w3.org/1999/xlink" width="113" height="113" viewBox="0 0 113 113">
  <defs>
    <filter id="Trazado_982547" x="0" y="0" width="113" height="113" filterUnits="userSpaceOnUse">
      <feOffset dy="3" input="SourceAlpha"/>
      <feGaussianBlur stdDeviation="3" result="blur"/>
      <feFlood flood-opacity="0.161"/>
      <feComposite operator="in" in2="blur"/>
      <feComposite in="SourceGraphic"/>
    </filter>
  </defs>
  <g id="Grupo_1164256" data-name="Grupo 1164256" transform="translate(-902 -957)">
    <g id="Grupo_1163941" data-name="Grupo 1163941" transform="translate(-0.234 -1521.467)">
      <g id="Grupo_1161820" data-name="Grupo 1161820" transform="translate(911.234 2484.467)">
        <g id="Grupo_1152576" data-name="Grupo 1152576" transform="translate(0)">
          <g id="Grupo_1148633" data-name="Grupo 1148633">
            <g id="Grupo_1148525" data-name="Grupo 1148525">
              <g transform="matrix(1, 0, 0, 1, -9, -6)" filter="url(#Trazado_982547)">
                <g id="Trazado_982547-2" data-name="Trazado 982547" transform="translate(9 6)" fill="#f0ebfe">
                  <path d="M 47.5 93.5 C 41.28937149047852 93.5 35.26533508300781 92.28397369384766 29.59518623352051 89.88570404052734 C 24.11771965026855 87.56893157958984 19.19813346862793 84.25196075439453 14.97309303283691 80.02691650390625 C 10.74804019927979 75.80186462402344 7.431066513061523 70.88229370117188 5.114293098449707 65.40481567382812 C 2.716026782989502 59.73468017578125 1.5 53.71062850952148 1.5 47.5 C 1.5 41.28937149047852 2.716026782989502 35.26533508300781 5.114293098449707 29.59518623352051 C 7.431066513061523 24.11771965026855 10.74804019927979 19.19813346862793 14.97309303283691 14.97309303283691 C 19.19813346862793 10.74804019927979 24.11771965026855 7.431066513061523 29.59518623352051 5.114293098449707 C 35.26533508300781 2.716026782989502 41.28937149047852 1.5 47.5 1.5 C 53.71062850952148 1.5 59.73468017578125 2.716026782989502 65.40481567382812 5.114293098449707 C 70.88229370117188 7.431066513061523 75.80186462402344 10.74804019927979 80.02691650390625 14.97309303283691 C 84.25196075439453 19.19813346862793 87.56893157958984 24.11771965026855 89.88570404052734 29.59518623352051 C 92.28397369384766 35.26533508300781 93.5 41.28937149047852 93.5 47.5 C 93.5 53.71062850952148 92.28397369384766 59.73468017578125 89.88570404052734 65.40481567382812 C 87.56893157958984 70.88229370117188 84.25196075439453 75.80186462402344 80.02691650390625 80.02691650390625 C 75.80186462402344 84.25196075439453 70.88229370117188 87.56893157958984 65.40481567382812 89.88570404052734 C 59.73468017578125 92.28397369384766 53.71062850952148 93.5 47.5 93.5 Z" stroke="none"/>
                  <path d="M 47.5 3 C 41.49121475219727 3 35.66376876831055 4.176155090332031 30.17950439453125 6.495796203613281 C 24.88084411621094 8.736953735351562 20.12152099609375 11.94598388671875 16.03375244140625 16.03375244140625 C 11.94598388671875 20.12152099609375 8.736953735351562 24.88084411621094 6.495796203613281 30.17950439453125 C 4.176155090332031 35.66376876831055 3 41.49121475219727 3 47.5 C 3 53.50878524780273 4.176155090332031 59.33623123168945 6.495796203613281 64.82049560546875 C 8.736953735351562 70.11915588378906 11.94598388671875 74.87847900390625 16.03375244140625 78.96624755859375 C 20.12152099609375 83.05401611328125 24.88084411621094 86.26304626464844 30.17950439453125 88.50419616699219 C 35.66376876831055 90.82384490966797 41.49121475219727 92 47.5 92 C 53.50878524780273 92 59.33623123168945 90.82384490966797 64.82049560546875 88.50419616699219 C 70.11915588378906 86.26304626464844 74.87847900390625 83.05401611328125 78.96624755859375 78.96624755859375 C 83.05401611328125 74.87847900390625 86.26304626464844 70.11915588378906 88.50419616699219 64.82049560546875 C 90.82384490966797 59.33623123168945 92 53.50878524780273 92 47.5 C 92 41.49121475219727 90.82384490966797 35.66376876831055 88.50419616699219 30.17950439453125 C 86.26304626464844 24.88084411621094 83.05401611328125 20.12152099609375 78.96624755859375 16.03375244140625 C 74.87847900390625 11.94598388671875 70.11915588378906 8.736953735351562 64.82049560546875 6.495796203613281 C 59.33623123168945 4.176155090332031 53.50878524780273 3 47.5 3 M 47.5 0 C 73.7335205078125 0 95 21.2664794921875 95 47.5 C 95 73.7335205078125 73.7335205078125 95 47.5 95 C 21.2664794921875 95 0 73.7335205078125 0 47.5 C 0 21.2664794921875 21.2664794921875 0 47.5 0 Z" stroke="none" fill="#7145fe"/>
                </g>
              </g>
            </g>
          </g>
        </g>
      </g>
    </g>
    <g id="version" transform="translate(930 982)">
      <path id="Trazado_999574" data-name="Trazado 999574" d="M252.917,172.551V143.075a2.233,2.233,0,0,0-2.233-2.233h-26.8a2.233,2.233,0,0,0-2.233,2.233v29.476Z" transform="translate(-197.156 -125.275)" fill="#c8effe"/>
      <path id="Trazado_999575" data-name="Trazado 999575" d="M227.013,169.871a5.812,5.812,0,0,0,5.806-5.806V140.842h-8.932a2.233,2.233,0,0,0-2.233,2.233v26.8Z" transform="translate(-197.155 -125.275)" fill="#99e6fc"/>
      <path id="Trazado_999576" data-name="Trazado 999576" d="M252.917,433.979v-6.253H221.655v6.253a2.233,2.233,0,0,0,2.233,2.233h26.8A2.233,2.233,0,0,0,252.917,433.979Z" transform="translate(-197.156 -380.451)" fill="#fd8087"/>
      <path id="Trazado_999577" data-name="Trazado 999577" d="M455.544,140.842h-3.573a2.233,2.233,0,0,1,2.233,2.233v29.476h3.573V143.075A2.233,2.233,0,0,0,455.544,140.842Z" transform="translate(-402.015 -125.275)" fill="#99e6fc"/>
      <path id="Trazado_999578" data-name="Trazado 999578" d="M454.2,427.727v6.253a2.233,2.233,0,0,1-2.233,2.233h3.573a2.233,2.233,0,0,0,2.233-2.233v-6.253Z" transform="translate(-402.015 -380.451)" fill="#fe646f"/>
      <path id="Trazado_999579" data-name="Trazado 999579" d="M38.763,39.208V9.732A2.233,2.233,0,0,0,36.53,7.5H9.734A2.233,2.233,0,0,0,7.5,9.732V39.208Z" transform="translate(-6.672 -6.67)" fill="#dff6fd"/>
      <path id="Trazado_999580" data-name="Trazado 999580" d="M38.763,300.637v-6.253H7.5v6.253a2.233,2.233,0,0,0,2.233,2.233h26.8A2.233,2.233,0,0,0,38.763,300.637Z" transform="translate(-6.672 -261.846)" fill="#bbec6c"/>
      <path id="Trazado_999581" data-name="Trazado 999581" d="M241.39,7.5h-3.573a2.233,2.233,0,0,1,2.233,2.233V39.208h3.573V9.732A2.233,2.233,0,0,0,241.39,7.5Z" transform="translate(-211.531 -6.67)" fill="#c8effe"/>
      <path id="Trazado_999582" data-name="Trazado 999582" d="M240.05,294.384v6.253a2.233,2.233,0,0,1-2.233,2.233h3.573a2.233,2.233,0,0,0,2.233-2.233v-6.253Z" transform="translate(-211.531 -261.846)" fill="#a2e62e"/>
      <g id="Grupo_1164255" data-name="Grupo 1164255" transform="translate(0 0)">
        <path id="Trazado_999583" data-name="Trazado 999583" d="M53.529,14.738H41.542a.829.829,0,1,0,0,1.658H53.529a1.406,1.406,0,0,1,1.4,1.4V46.448H51.89a.829.829,0,0,0,0,1.658h3.043v5.424a1.405,1.405,0,0,1-1.4,1.4h-26.8a1.406,1.406,0,0,1-1.4-1.4V48.105H48.021a.829.829,0,0,0,0-1.658H25.328V41.853h4.53a3.066,3.066,0,0,0,3.063-3.063V16.4h4.753a.829.829,0,0,0,0-1.658H32.921V6.347H44.373a.288.288,0,0,1,.288.288V9.993l-.682-.682a.829.829,0,0,0-1.172,1.172l2.1,2.1a.829.829,0,0,0,1.172,0l2.1-2.1A.829.829,0,0,0,47,9.311l-.682.682V6.635a1.948,1.948,0,0,0-1.946-1.946H32.921V3.062A3.066,3.066,0,0,0,29.858,0H3.062A3.065,3.065,0,0,0,0,3.062v20.4a.829.829,0,0,0,1.658,0V3.062a1.405,1.405,0,0,1,1.4-1.4h26.8a1.406,1.406,0,0,1,1.4,1.4V31.709H1.658V27.326a.829.829,0,0,0-1.658,0V38.79a3.066,3.066,0,0,0,3.062,3.063H23.67v8.391H12.217a.288.288,0,0,1-.288-.288V46.6l.682.682a.829.829,0,1,0,1.172-1.172l-2.1-2.1a.829.829,0,0,0-1.172,0l-2.1,2.1A.829.829,0,0,0,9.59,47.28l.682-.682v3.358A1.948,1.948,0,0,0,12.217,51.9H23.67v1.628a3.066,3.066,0,0,0,3.063,3.062h26.8a3.065,3.065,0,0,0,3.062-3.062V17.8a3.066,3.066,0,0,0-3.062-3.063ZM1.658,38.79V33.367H31.263V38.79a1.406,1.406,0,0,1-1.4,1.4H3.062a1.406,1.406,0,0,1-1.4-1.4Z" transform="translate(0 0)"/>
        <path id="Trazado_999584" data-name="Trazado 999584" d="M40.3,42.426H33.156a.829.829,0,0,0,0,1.658H40.3a.829.829,0,0,0,0-1.658Z" transform="translate(-28.754 -37.737)"/>
        <path id="Trazado_999585" data-name="Trazado 999585" d="M33.155,76.408h1.117a.829.829,0,0,0,0-1.658H33.155a.829.829,0,1,0,0,1.658Z" transform="translate(-28.753 -66.488)"/>
        <path id="Trazado_999586" data-name="Trazado 999586" d="M84.735,74.75H75.579a.829.829,0,0,0,0,1.658h9.156a.829.829,0,0,0,0-1.658Z" transform="translate(-66.488 -66.488)"/>
        <path id="Trazado_999587" data-name="Trazado 999587" d="M33.155,108.734h8.821a.829.829,0,1,0,0-1.658H33.155a.829.829,0,1,0,0,1.658Z" transform="translate(-28.753 -95.241)"/>
        <path id="Trazado_999588" data-name="Trazado 999588" d="M146.732,107.076H145.28a.829.829,0,0,0,0,1.658h1.452a.829.829,0,0,0,0-1.658Z" transform="translate(-128.485 -95.241)"/>
      </g>
    </g>
  </g>
</svg>
