<svg xmlns="http://www.w3.org/2000/svg" xmlns:xlink="http://www.w3.org/1999/xlink" width="113" height="113" viewBox="0 0 113 113">
  <defs>
    <filter id="Trazado_982547" x="0" y="0" width="113" height="113" filterUnits="userSpaceOnUse">
      <feOffset dy="3" input="SourceAlpha"/>
      <feGaussianBlur stdDeviation="3" result="blur"/>
      <feFlood flood-opacity="0.161"/>
      <feComposite operator="in" in2="blur"/>
      <feComposite in="SourceGraphic"/>
    </filter>
  </defs>
  <g id="Grupo_1164261" data-name="Grupo 1164261" transform="translate(-1217 -956.5)">
    <g id="Grupo_1163938" data-name="Grupo 1163938" transform="translate(0 -1521.5)">
      <g id="Grupo_1161821" data-name="Grupo 1161821" transform="translate(1226 2484)">
        <g id="Grupo_1152576" data-name="Grupo 1152576" transform="translate(0)">
          <g id="Grupo_1148633" data-name="Grupo 1148633">
            <g id="Grupo_1148525" data-name="Grupo 1148525">
              <g transform="matrix(1, 0, 0, 1, -9, -6)" filter="url(#Trazado_982547)">
                <g id="Trazado_982547-2" data-name="Trazado 982547" transform="translate(9 6)" fill="#f0ebfe">
                  <path d="M 47.5 93.5 C 41.28937149047852 93.5 35.26533508300781 92.28397369384766 29.59518623352051 89.88570404052734 C 24.11771965026855 87.56893157958984 19.19813346862793 84.25196075439453 14.97309303283691 80.02691650390625 C 10.74804019927979 75.80186462402344 7.431066513061523 70.88229370117188 5.114293098449707 65.40481567382812 C 2.716026782989502 59.73468017578125 1.5 53.71062850952148 1.5 47.5 C 1.5 41.28937149047852 2.716026782989502 35.26533508300781 5.114293098449707 29.59518623352051 C 7.431066513061523 24.11771965026855 10.74804019927979 19.19813346862793 14.97309303283691 14.97309303283691 C 19.19813346862793 10.74804019927979 24.11771965026855 7.431066513061523 29.59518623352051 5.114293098449707 C 35.26533508300781 2.716026782989502 41.28937149047852 1.5 47.5 1.5 C 53.71062850952148 1.5 59.73468017578125 2.716026782989502 65.40481567382812 5.114293098449707 C 70.88229370117188 7.431066513061523 75.80186462402344 10.74804019927979 80.02691650390625 14.97309303283691 C 84.25196075439453 19.19813346862793 87.56893157958984 24.11771965026855 89.88570404052734 29.59518623352051 C 92.28397369384766 35.26533508300781 93.5 41.28937149047852 93.5 47.5 C 93.5 53.71062850952148 92.28397369384766 59.73468017578125 89.88570404052734 65.40481567382812 C 87.56893157958984 70.88229370117188 84.25196075439453 75.80186462402344 80.02691650390625 80.02691650390625 C 75.80186462402344 84.25196075439453 70.88229370117188 87.56893157958984 65.40481567382812 89.88570404052734 C 59.73468017578125 92.28397369384766 53.71062850952148 93.5 47.5 93.5 Z" stroke="none"/>
                  <path d="M 47.5 3 C 41.49121475219727 3 35.66376876831055 4.176155090332031 30.17950439453125 6.495796203613281 C 24.88084411621094 8.736953735351562 20.12152099609375 11.94598388671875 16.03375244140625 16.03375244140625 C 11.94598388671875 20.12152099609375 8.736953735351562 24.88084411621094 6.495796203613281 30.17950439453125 C 4.176155090332031 35.66376876831055 3 41.49121475219727 3 47.5 C 3 53.50878524780273 4.176155090332031 59.33623123168945 6.495796203613281 64.82049560546875 C 8.736953735351562 70.11915588378906 11.94598388671875 74.87847900390625 16.03375244140625 78.96624755859375 C 20.12152099609375 83.05401611328125 24.88084411621094 86.26304626464844 30.17950439453125 88.50419616699219 C 35.66376876831055 90.82384490966797 41.49121475219727 92 47.5 92 C 53.50878524780273 92 59.33623123168945 90.82384490966797 64.82049560546875 88.50419616699219 C 70.11915588378906 86.26304626464844 74.87847900390625 83.05401611328125 78.96624755859375 78.96624755859375 C 83.05401611328125 74.87847900390625 86.26304626464844 70.11915588378906 88.50419616699219 64.82049560546875 C 90.82384490966797 59.33623123168945 92 53.50878524780273 92 47.5 C 92 41.49121475219727 90.82384490966797 35.66376876831055 88.50419616699219 30.17950439453125 C 86.26304626464844 24.88084411621094 83.05401611328125 20.12152099609375 78.96624755859375 16.03375244140625 C 74.87847900390625 11.94598388671875 70.11915588378906 8.736953735351562 64.82049560546875 6.495796203613281 C 59.33623123168945 4.176155090332031 53.50878524780273 3 47.5 3 M 47.5 0 C 73.7335205078125 0 95 21.2664794921875 95 47.5 C 95 73.7335205078125 73.7335205078125 95 47.5 95 C 21.2664794921875 95 0 73.7335205078125 0 47.5 C 0 21.2664794921875 21.2664794921875 0 47.5 0 Z" stroke="none" fill="#7145fe"/>
                </g>
              </g>
            </g>
          </g>
        </g>
      </g>
    </g>
    <g id="cognitivo" transform="translate(1209.953 966.047)">
      <g id="Grupo_1164260" data-name="Grupo 1164260" transform="translate(39.255 20.757)">
        <g id="Grupo_1164257" data-name="Grupo 1164257" transform="translate(25.388 0)">
          <path id="Trazado_999589" data-name="Trazado 999589" d="M263.558,96H266.7l1.48,3.844a19.8,19.8,0,0,1,5.8,2.4l3.767-1.673,4.44,4.439-1.673,3.766a19.794,19.794,0,0,1,2.4,5.8l3.843,1.479v6.279l-3.844,1.48a19.8,19.8,0,0,1-2.4,5.8l1.673,3.767-4.44,4.44-3.766-1.672a19.794,19.794,0,0,1-5.8,2.4l-1.479,3.843h-3.139V130.146a10.95,10.95,0,1,0,0-21.9Z" transform="translate(-263.558 -96)" fill="#ffe177" fill-rule="evenodd"/>
          <path id="Trazado_999590" data-name="Trazado 999590" d="M280.506,129.612l1.673,3.767-.6.6-1.564-3.522Q280.271,130.04,280.506,129.612Zm0-20.833a19.793,19.793,0,0,1,2.4,5.8l3.843,1.479v1.953l-3.843-1.479a26.351,26.351,0,0,0-2.9-6.644ZM263.557,96H266.7l1.48,3.844a19.8,19.8,0,0,1,5.8,2.4l3.767-1.673,4.44,4.44-.6,1.352-3.839-3.839-3.767,1.673a19.8,19.8,0,0,0-5.8-2.4l-1.48-3.844h-3.139V96Z" transform="translate(-263.557 -96)" fill="#ffd064" fill-rule="evenodd"/>
        </g>
        <g id="Grupo_1164258" data-name="Grupo 1164258">
          <path id="Trazado_999591" data-name="Trazado 999591" d="M103.662,99.625a5.224,5.224,0,0,0-4.765,4.012,5.217,5.217,0,0,0-6.437,4.92,5.226,5.226,0,0,0-4.02,5.068,5.562,5.562,0,0,0,5.552,5.571h14.63a5.206,5.206,0,0,0,5.206-5.206V101.2a5.206,5.206,0,0,0-10.167-1.58Z" transform="translate(-88.441 -95.999)" fill="#fe646f" fill-rule="evenodd"/>
          <path id="Trazado_999592" data-name="Trazado 999592" d="M147.614,103.491a5.12,5.12,0,0,0-.544.048c.169.024.338.056.507.1C147.588,103.588,147.6,103.539,147.614,103.491Zm9.689,15.7h1.45a5.206,5.206,0,0,0,5.206-5.206V101.2a5.208,5.208,0,0,0-5.933-5.155,5.224,5.224,0,0,1,4.484,5.155V113.99A5.205,5.205,0,0,1,157.3,119.2Z" transform="translate(-138.57 -95.999)" fill="#fd4755" fill-rule="evenodd"/>
        </g>
        <g id="Grupo_1164259" data-name="Grupo 1164259" transform="translate(0 23.196)">
          <path id="Trazado_999593" data-name="Trazado 999593" d="M103.662,275.569a5.224,5.224,0,0,1-4.765-4.012,5.217,5.217,0,0,1-6.437-4.92,5.226,5.226,0,0,1-4.02-5.068A5.562,5.562,0,0,1,93.993,256h14.63a5.206,5.206,0,0,1,5.206,5.206v12.785a5.206,5.206,0,0,1-10.167,1.58Z" transform="translate(-88.441 -255.998)" fill="#fe646f" fill-rule="evenodd"/>
          <path id="Trazado_999594" data-name="Trazado 999594" d="M147.614,271.7a5.124,5.124,0,0,1-.544-.048c.169-.024.338-.056.507-.1C147.588,271.608,147.6,271.656,147.614,271.7ZM157.3,256h1.45a5.206,5.206,0,0,1,5.206,5.206v12.785a5.208,5.208,0,0,1-5.933,5.155,5.224,5.224,0,0,0,4.484-5.155V261.206A5.205,5.205,0,0,0,157.3,256Z" transform="translate(-138.57 -256)" fill="#fd4755" fill-rule="evenodd"/>
        </g>
      </g>
      <path id="Trazado_999595" data-name="Trazado 999595" d="M59.391,51.869a1.159,1.159,0,0,0-1.64-.044,4.019,4.019,0,0,1-3.833.972,4.067,4.067,0,0,1-2.935-3.188,1.16,1.16,0,0,0-2.283.415,6.385,6.385,0,0,0,6.283,5.235,6.326,6.326,0,0,0,4.363-1.75A1.16,1.16,0,0,0,59.391,51.869Zm.046,14.121A4.045,4.045,0,0,1,56.4,59.273a1.159,1.159,0,1,0-1.741-1.532,6.4,6.4,0,0,0-1.58,4.249,4.076,4.076,0,0,1-2.237-2.743,1.161,1.161,0,0,0-1.4-.861,3.888,3.888,0,0,1-3.546-6.757A1.16,1.16,0,0,0,44.4,49.85a6.387,6.387,0,0,0-2.037,3.124,4.086,4.086,0,0,1-1.949-3.45,4.407,4.407,0,0,1,4.393-4.41h9.715a6.407,6.407,0,0,0-.708,1.06,1.159,1.159,0,1,0,2.047,1.089,4.047,4.047,0,0,1,7.621,1.9V61.949a4.051,4.051,0,0,1-4.046,4.041Zm-14.63-23.2h9.715a6.4,6.4,0,0,1-.708-1.06,1.159,1.159,0,1,1,2.047-1.089,4.047,4.047,0,0,0,7.621-1.9V25.956A4.047,4.047,0,1,0,56.4,28.634a1.159,1.159,0,1,1-1.741,1.531,6.391,6.391,0,0,1-1.58-4.249A4.079,4.079,0,0,0,50.84,28.66a1.161,1.161,0,0,1-1.4.861,3.966,3.966,0,0,0-.955-.117,3.86,3.86,0,0,0-2.592,6.874A1.16,1.16,0,0,1,44.4,38.058a6.394,6.394,0,0,1-2.037-3.124,4.082,4.082,0,0,0-1.949,3.449,4.407,4.407,0,0,0,4.393,4.411Zm21-20.877V31.9a12.108,12.108,0,0,1,0,24.106v9.985h1.183l1.193-3.1a1.155,1.155,0,0,1,.813-.712,18.623,18.623,0,0,0,5.458-2.263,1.156,1.156,0,0,1,1.079-.072l3.037,1.349,3.313-3.314-1.35-3.039a1.162,1.162,0,0,1,.072-1.079A18.626,18.626,0,0,0,82.867,48.3a1.163,1.163,0,0,1,.712-.813l3.1-1.193V41.611l-3.1-1.193a1.158,1.158,0,0,1-.71-.815,18.609,18.609,0,0,0-2.264-5.458,1.158,1.158,0,0,1-.072-1.079l1.348-3.039-3.313-3.313-3.039,1.35a1.159,1.159,0,0,1-1.078-.072,18.656,18.656,0,0,0-5.458-2.263,1.159,1.159,0,0,1-.813-.71l-1.193-3.1ZM63.094,43.953A6.36,6.36,0,0,1,65.8,49.159v4.513a9.787,9.787,0,0,0,0-19.437v4.513a6.361,6.361,0,0,1-2.709,5.206ZM59.438,68.31a6.34,6.34,0,0,1-5.792-3.72,6.424,6.424,0,0,1-4.726-3.784,6.388,6.388,0,0,1-6.726-5.336,6.434,6.434,0,0,1-4.1-5.946,6.733,6.733,0,0,1,2.949-5.57A6.733,6.733,0,0,1,38.1,38.382a6.435,6.435,0,0,1,4.1-5.946A6.391,6.391,0,0,1,48.919,27.1a6.429,6.429,0,0,1,4.726-3.784,6.365,6.365,0,0,1,9.838-2.264v-.294a1.16,1.16,0,0,1,1.16-1.16h3.138a1.158,1.158,0,0,1,1.082.742l1.264,3.284A20.879,20.879,0,0,1,75.137,25.7l3.217-1.43a1.161,1.161,0,0,1,1.292.24l4.439,4.44a1.162,1.162,0,0,1,.241,1.292L82.9,33.459a20.881,20.881,0,0,1,2.076,5.009l3.284,1.264A1.159,1.159,0,0,1,89,40.814v6.279a1.161,1.161,0,0,1-.743,1.083L84.972,49.44A20.956,20.956,0,0,1,82.9,54.447l1.43,3.218a1.16,1.16,0,0,1-.241,1.29L79.646,63.4a1.162,1.162,0,0,1-1.292.24l-3.217-1.43a20.92,20.92,0,0,1-5.009,2.078l-1.262,3.282a1.162,1.162,0,0,1-1.084.744H64.644a1.16,1.16,0,0,1-1.16-1.16v-.3A6.335,6.335,0,0,1,59.438,68.31ZM48.464,70.253a1.16,1.16,0,0,1-.58,2.166,1.142,1.142,0,0,1-.577-.156,32.624,32.624,0,0,1-16.392-28.31A32.634,32.634,0,0,1,63.548,11.321c1.065,0,2.134.055,3.2.158L65.207,9.991A1.159,1.159,0,1,1,66.82,8.326l4.171,4.038A1.16,1.16,0,0,1,70.8,14.18l-4.92,3.08a1.147,1.147,0,0,1-.615.177,1.16,1.16,0,0,1-.617-2.143l2.333-1.46A30.317,30.317,0,0,0,48.464,70.253ZM91.655,27.366A32.636,32.636,0,0,1,63.548,76.585c-1.066,0-2.135-.054-3.2-.158l1.535,1.488a1.16,1.16,0,1,1-1.614,1.666L56.1,75.543a1.158,1.158,0,0,1,.192-1.815l4.92-3.082a1.16,1.16,0,0,1,1.231,1.965l-2.33,1.46A30.317,30.317,0,0,0,78.631,17.654a1.16,1.16,0,1,1,1.155-2.011A32.824,32.824,0,0,1,91.655,27.366ZM53.918,35.109A4.066,4.066,0,0,0,50.983,38.3a1.16,1.16,0,0,1-1.141.952,1.065,1.065,0,0,1-.207-.019,1.159,1.159,0,0,1-.936-1.348,6.4,6.4,0,0,1,4.618-5.014,6.327,6.327,0,0,1,6.028,1.53,1.159,1.159,0,1,1-1.595,1.683A4.024,4.024,0,0,0,53.918,35.109Z" transform="translate(0)" fill-rule="evenodd"/>
    </g>
  </g>
</svg>
