<svg xmlns="http://www.w3.org/2000/svg" xmlns:xlink="http://www.w3.org/1999/xlink" width="110" height="110" viewBox="0 0 110 110">
  <defs>
    <filter id="Trazado_982547" x="0" y="0" width="110" height="110" filterUnits="userSpaceOnUse">
      <feOffset dy="3" input="SourceAlpha"/>
      <feGaussianBlur stdDeviation="3" result="blur"/>
      <feFlood flood-opacity="0.161"/>
      <feComposite operator="in" in2="blur"/>
      <feComposite in="SourceGraphic"/>
    </filter>
  </defs>
  <g id="Grupo_1164147" data-name="Grupo 1164147" transform="translate(-800 -2521)">
    <g id="Grupo_1163798" data-name="Grupo 1163798" transform="translate(0 -8103)">
      <g id="Grupo_1162274" data-name="Grupo 1162274" transform="translate(0 6286)">
        <g id="Grupo_1157015" data-name="Grupo 1157015" transform="translate(0 3549)">
          <g id="Grupo_1155792" data-name="Grupo 1155792" transform="translate(-1 -3894.666)">
            <g id="Grupo_1154703" data-name="Grupo 1154703" transform="translate(0 1465.666)">
              <g id="Grupo_1150789" data-name="Grupo 1150789" transform="translate(3 2320)">
                <g id="Grupo_1154212" data-name="Grupo 1154212" transform="translate(-236 -5809)">
                  <g id="Grupo_1152583" data-name="Grupo 1152583" transform="translate(1043 6713)">
                    <g id="Grupo_1146973" data-name="Grupo 1146973" transform="translate(0 0)">
                      <g id="Grupo_1146954" data-name="Grupo 1146954">
                        <g transform="matrix(1, 0, 0, 1, -9, -6)" filter="url(#Trazado_982547)">
                          <g id="Trazado_982547-2" data-name="Trazado 982547" transform="translate(9 6)" fill="#f0ebfe">
                            <path d="M 46 90.49987030029297 C 39.99187850952148 90.49987030029297 34.16426849365234 89.32350921630859 28.67905426025391 87.00345611572266 C 23.38019943237305 84.76224517822266 18.62104034423828 81.55341339111328 14.53374671936035 77.46613311767578 C 10.44646644592285 73.37885284423828 7.237639904022217 68.61969757080078 4.996413230895996 63.32085418701172 C 2.676359891891479 57.83565521240234 1.5 52.008056640625 1.5 45.99993515014648 C 1.5 39.99181365966797 2.676359891891479 34.16421508789062 4.996413230895996 28.67901420593262 C 7.237639904022217 23.38017463684082 10.44646644592285 18.62101554870605 14.53374671936035 14.53373527526855 C 18.62104034423828 10.44645500183105 23.38019943237305 7.23762845993042 28.67905426025391 4.996415138244629 C 34.16426849365234 2.676361799240112 39.99187850952148 1.500001788139343 46 1.500001788139343 C 52.00812149047852 1.500001788139343 57.83573150634766 2.676361799240112 63.32094573974609 4.996415138244629 C 68.61979675292969 7.23762845993042 73.37895965576172 10.44645500183105 77.46625518798828 14.53373527526855 C 81.55353546142578 18.62101554870605 84.76235961914062 23.38017463684082 87.00358581542969 28.67901420593262 C 89.32363891601562 34.16421508789062 90.5 39.99181365966797 90.5 45.99993515014648 C 90.5 52.008056640625 89.32363891601562 57.83565521240234 87.00358581542969 63.32085418701172 C 84.76235961914062 68.61969757080078 81.55353546142578 73.37885284423828 77.46625518798828 77.46613311767578 C 73.37895965576172 81.55341339111328 68.61979675292969 84.76224517822266 63.32094573974609 87.00345611572266 C 57.83573150634766 89.32350921630859 52.00812149047852 90.49987030029297 46 90.49987030029297 Z" stroke="none"/>
                            <path d="M 46 2.999992370605469 C 40.1937141418457 2.999992370605469 34.56269836425781 4.136489868164062 29.26337051391602 6.377906799316406 C 24.14332580566406 8.543502807617188 19.54441070556641 11.64437866210938 15.59439849853516 15.59437561035156 C 11.64440155029297 19.54439544677734 8.54351806640625 24.14329528808594 6.377914428710938 29.26333618164062 C 4.136497497558594 34.56264877319336 3 40.19366455078125 3 45.99993515014648 C 3 51.80620574951172 4.136497497558594 57.43720626831055 6.377914428710938 62.73651885986328 C 8.54351806640625 67.8565673828125 11.64440155029297 72.45545959472656 15.59439849853516 76.40547943115234 C 19.54441070556641 80.35547637939453 24.14332580566406 83.45635223388672 29.26337051391602 85.6219482421875 C 34.56269836425781 87.86336517333984 40.1937141418457 88.99986267089844 46 88.99986267089844 C 51.8062858581543 88.99986267089844 57.43730163574219 87.86336517333984 62.73661422729492 85.6219482421875 C 67.85667419433594 83.45635223388672 72.45557403564453 80.35547637939453 76.40558624267578 76.40547943115234 C 80.35559844970703 72.45545959472656 83.45647430419922 67.8565673828125 85.6220703125 62.73651885986328 C 87.86350250244141 57.43720626831055 89 51.80620574951172 89 45.99993515014648 C 89 40.19366455078125 87.86350250244141 34.56264877319336 85.6220703125 29.26333618164062 C 83.45647430419922 24.14329528808594 80.35559844970703 19.54439544677734 76.40558624267578 15.59437561035156 C 72.45557403564453 11.64437866210938 67.85667419433594 8.543502807617188 62.73661422729492 6.377906799316406 C 57.43730163574219 4.136489868164062 51.8062858581543 2.999992370605469 46 2.999992370605469 M 46 -7.62939453125e-06 C 71.40509033203125 -7.62939453125e-06 92 20.59486389160156 92 45.99993515014648 C 92 71.40499114990234 71.40509033203125 91.99986267089844 46 91.99986267089844 C 20.59490203857422 91.99986267089844 0 71.40499114990234 0 45.99993515014648 C 0 20.59486389160156 20.59490203857422 -7.62939453125e-06 46 -7.62939453125e-06 Z" stroke="none" fill="#7145fe"/>
                          </g>
                        </g>
                      </g>
                    </g>
                  </g>
                </g>
              </g>
            </g>
          </g>
        </g>
      </g>
    </g>
    <g id="apoyo-tecnico_2_" data-name="apoyo-tecnico (2)" transform="translate(826 2543.687)">
      <g id="Grupo_1164144" data-name="Grupo 1164144" transform="translate(0.861 1.173)">
        <g id="Grupo_1164143" data-name="Grupo 1164143">
          <g id="Grupo_1164135" data-name="Grupo 1164135">
            <g id="Grupo_1164123" data-name="Grupo 1164123" transform="translate(37.546)">
              <path id="Trazado_999210" data-name="Trazado 999210" d="M351.712,7.812H337.239a2.5,2.5,0,0,0-2.5,2.5v7.238a2.5,2.5,0,0,0,2.5,2.5,1.461,1.461,0,0,1,1.461,1.462v4.476a.56.56,0,0,0,1.041.288l3.308-5.516a1.462,1.462,0,0,1,1.253-.71h7.409a2.5,2.5,0,0,0,2.5-2.5V10.315a2.5,2.5,0,0,0-2.5-2.5Z" transform="translate(-334.736 -7.812)" fill="#b3e59f"/>
              <path id="Trazado_999211" data-name="Trazado 999211" d="M371.02,7.812h-7.5a2.5,2.5,0,0,1,2.5,2.5v7.238a2.5,2.5,0,0,1-2.5,2.5h-6.977a1.462,1.462,0,0,1,1.462,1.462v4.476a.56.56,0,0,0,1.041.288l3.308-5.516a1.462,1.462,0,0,1,1.253-.71h7.41a2.5,2.5,0,0,0,2.5-2.5V10.315a2.5,2.5,0,0,0-2.5-2.5Z" transform="translate(-354.044 -7.812)" fill="#95d6a4"/>
            </g>
            <g id="Grupo_1164134" data-name="Grupo 1164134" transform="translate(0 25.671)">
              <g id="Grupo_1164133" data-name="Grupo 1164133">
                <g id="Grupo_1164132" data-name="Grupo 1164132">
                  <g id="Grupo_1164127" data-name="Grupo 1164127" transform="translate(15.347)">
                    <g id="Grupo_1164126" data-name="Grupo 1164126">
                      <g id="Grupo_1164125" data-name="Grupo 1164125">
                        <g id="Grupo_1164124" data-name="Grupo 1164124">
                          <path id="Trazado_999212" data-name="Trazado 999212" d="M154.906,240.894a2.506,2.506,0,0,1-2.032-2.461v-6.882h-9.58v6.882a2.511,2.511,0,0,1-2.032,2.461S155.553,241.019,154.906,240.894Z" transform="translate(-141.261 -231.551)" fill="#ffddce"/>
                        </g>
                      </g>
                    </g>
                  </g>
                  <g id="Grupo_1164131" data-name="Grupo 1164131" transform="translate(0.689 9.796)">
                    <g id="Grupo_1164130" data-name="Grupo 1164130">
                      <g id="Grupo_1164129" data-name="Grupo 1164129">
                        <g id="Grupo_1164128" data-name="Grupo 1164128">
                          <path id="Trazado_999213" data-name="Trazado 999213" d="M44.461,316.988c-.682-.131-18.957,0-18.957,0a14.8,14.8,0,0,0-12,14.533V336.4a2,2,0,0,0,2,2H54.458a2,2,0,0,0,2-2v-4.881A14.8,14.8,0,0,0,44.461,316.988Z" transform="translate(-13.501 -316.93)" fill="#ffd064"/>
                        </g>
                      </g>
                    </g>
                  </g>
                  <path id="Trazado_999214" data-name="Trazado 999214" d="M76.171,330.587H41.217l-.927-17.081a2.641,2.641,0,0,1,2.638-2.785H74.461a2.641,2.641,0,0,1,2.638,2.785Z" transform="translate(-36.525 -301.638)" fill="#eaf2ff"/>
                  <path id="Trazado_999215" data-name="Trazado 999215" d="M280.3,310.722h-7.5a2.641,2.641,0,0,1,2.638,2.785l-.927,17.081h7.5l.927-17.081A2.641,2.641,0,0,0,280.3,310.722Z" transform="translate(-242.363 -301.638)" fill="#dbe8f9"/>
                  <path id="Trazado_999216" data-name="Trazado 999216" d="M49.989,471.934H9.35a1.85,1.85,0,0,0,0,3.7H49.989a1.85,1.85,0,1,0,0-3.7Z" transform="translate(-7.5 -444.353)" fill="#9bc4f9"/>
                  <path id="Trazado_999217" data-name="Trazado 999217" d="M319.563,471.934h-5.7v1.85a1.85,1.85,0,0,1-1.85,1.85h7.55a1.85,1.85,0,0,0,0-3.7Z" transform="translate(-277.074 -444.353)" fill="#7fb2f9"/>
                </g>
              </g>
              <path id="Trazado_999218" data-name="Trazado 999218" d="M162.536,377.426a6.131,6.131,0,0,1,1.583-4.1l.023-.025a5.249,5.249,0,0,0-1.325-8.062.451.451,0,0,0-.676.391v3.9a1.185,1.185,0,0,1-1.185,1.185H159.5a1.185,1.185,0,0,1-1.185-1.185v-3.9a.451.451,0,0,0-.676-.391,5.249,5.249,0,0,0-1.325,8.062l.023.025a6.131,6.131,0,0,1,1.583,4.1Z" transform="translate(-138.058 -349.845)" fill="#7fb2f9"/>
            </g>
          </g>
          <g id="Grupo_1164142" data-name="Grupo 1164142" transform="translate(8.981 3.228)">
            <g id="Grupo_1164141" data-name="Grupo 1164141" transform="translate(0 0)">
              <g id="Grupo_1164140" data-name="Grupo 1164140">
                <g id="Grupo_1164139" data-name="Grupo 1164139">
                  <path id="Trazado_999219" data-name="Trazado 999219" d="M120.217,61.466l-.64,0-.011-2.58a9.391,9.391,0,0,0-18.778.08l.008,1.819,0,.761-.64,0a1.71,1.71,0,0,0-1.692,1.727l.008,1.906A1.71,1.71,0,0,0,100.18,66.9l.643,0a8.888,8.888,0,0,0,2.989,6.518,9.529,9.529,0,0,0,12.85-.055,8.889,8.889,0,0,0,2.934-6.543l.643,0a1.71,1.71,0,0,0,1.692-1.727l-.008-1.906A1.71,1.71,0,0,0,120.217,61.466Z" transform="translate(-97.01 -48.126)" fill="#ffddce"/>
                  <path id="Trazado_999220" data-name="Trazado 999220" d="M192.179,66.754a1.71,1.71,0,0,0-1.706-1.713l-.64,0-.011-2.58a9.124,9.124,0,0,0-6.515-8.721,9.017,9.017,0,0,1,1.245,4.59l.031,12.056a8.889,8.889,0,0,1-2.934,6.543,10.047,10.047,0,0,1-3.82,2.134,9.437,9.437,0,0,0,9.09-2.133,8.89,8.89,0,0,0,2.934-6.543l.643,0a1.71,1.71,0,0,0,1.692-1.727Z" transform="translate(-167.267 -51.702)" fill="#ffcbbe"/>
                  <g id="Grupo_1164138" data-name="Grupo 1164138" transform="translate(0 11.786)">
                    <g id="Grupo_1164136" data-name="Grupo 1164136" transform="translate(22.58)">
                      <path id="Trazado_999221" data-name="Trazado 999221" d="M282.575,138.669v7.094h1.884a1.913,1.913,0,0,0,1.913-1.913v-3.268a1.913,1.913,0,0,0-1.913-1.913Z" transform="translate(-282.575 -138.669)" fill="#9bc4f9"/>
                    </g>
                    <g id="Grupo_1164137" data-name="Grupo 1164137">
                      <path id="Trazado_999222" data-name="Trazado 999222" d="M89.575,138.669v7.094H87.691a1.913,1.913,0,0,1-1.913-1.913v-3.268a1.913,1.913,0,0,1,1.913-1.913Z" transform="translate(-85.778 -138.669)" fill="#9bc4f9"/>
                    </g>
                  </g>
                  <path id="Trazado_999223" data-name="Trazado 999223" d="M119.8,39.773h-.1a.967.967,0,0,1-.967-.967,2.863,2.863,0,0,0-2.863-2.863H106.76a7.344,7.344,0,0,0-7.344,7.344V48.14a1.675,1.675,0,0,0,1.124,1.582l1.809.63a.972.972,0,0,0,1.291-.919l0-3.422a3,3,0,0,1,2.964-3.026h.036a4.755,4.755,0,0,1,1.476.229,8.391,8.391,0,0,0,2.6.431h.652a8.387,8.387,0,0,0,2.6-.431,4.759,4.759,0,0,1,1.476-.229h.036a3,3,0,0,1,2.964,3.026l0,3.422a.972.972,0,0,0,1.292.919l1.808-.63a1.675,1.675,0,0,0,1.124-1.582v-5.5a2.863,2.863,0,0,0-2.863-2.863Z" transform="translate(-97.851 -35.943)" fill="#756e78"/>
                  <path id="Trazado_999224" data-name="Trazado 999224" d="M218.734,39.773h-.1a.967.967,0,0,1-.967-.967,2.863,2.863,0,0,0-2.863-2.863h-3.634a8.95,8.95,0,0,1,2.9,6.632v.418c.1-.006.2-.01.3-.009h.036a3,3,0,0,1,2.964,3.026l0,3.422a.972.972,0,0,0,1.292.919l1.808-.63A1.675,1.675,0,0,0,221.6,48.14v-5.5A2.863,2.863,0,0,0,218.734,39.773Z" transform="translate(-196.786 -35.943)" fill="#665e66"/>
                  <path id="Trazado_999225" data-name="Trazado 999225" d="M229.149,223.054h-2.16a1.492,1.492,0,1,1,0-2.984h2.16a1.492,1.492,0,1,1,0,2.984Z" transform="translate(-209.467 -198.944)" fill="#db636e"/>
                </g>
              </g>
            </g>
          </g>
        </g>
      </g>
      <g id="Grupo_1164146" data-name="Grupo 1164146" transform="translate(0 0.313)">
        <g id="Grupo_1164145" data-name="Grupo 1164145" transform="translate(0 0)">
          <path id="Trazado_999226" data-name="Trazado 999226" d="M406.347,37.252h-7.508a.861.861,0,1,0,0,1.721h7.508a.861.861,0,0,0,0-1.721Z" transform="translate(-352.315 -33.014)"/>
          <path id="Trazado_999227" data-name="Trazado 999227" d="M361.677,38.973h.915a.861.861,0,1,0,0-1.721h-.915a.861.861,0,1,0,0,1.721Z" transform="translate(-319.417 -33.014)"/>
          <path id="Trazado_999228" data-name="Trazado 999228" d="M361.677,74.205h11.772a.861.861,0,0,0,0-1.721H361.677a.861.861,0,1,0,0,1.721Z" transform="translate(-319.417 -64.203)"/>
          <path id="Trazado_999229" data-name="Trazado 999229" d="M45.372,76.132A15.717,15.717,0,0,0,42.134,66.6l.159-2.938a3.5,3.5,0,0,0-3.5-3.692h-9.42a1.641,1.641,0,0,1-.7-1.341v-2.4a9.75,9.75,0,0,0,3.239-3.3h1.665a3.5,3.5,0,0,0,3.494-3.494V43a2.772,2.772,0,0,0-1.565-2.5V36a3.728,3.728,0,0,0-3.724-3.724h-.1a.107.107,0,0,1-.106-.106,3.728,3.728,0,0,0-3.724-3.724H18.75a8.213,8.213,0,0,0-8.2,8.2v3.86A2.772,2.772,0,0,0,8.981,43v3.268a2.776,2.776,0,0,0,2.773,2.773h1.111a9.664,9.664,0,0,0,3.215,6.2,11.8,11.8,0,0,0,1.3.975v2.413a1.643,1.643,0,0,1-.7,1.341H7.264a3.5,3.5,0,0,0-3.5,3.692L3.927,66.6A15.717,15.717,0,0,0,.689,76.132v3.241a2.709,2.709,0,0,0,2.022,4.514H43.349a2.709,2.709,0,0,0,2.022-4.513Zm-1.721,0v2.35a2.72,2.72,0,0,0-.3-.017H41.49l.486-8.948A13.983,13.983,0,0,1,43.651,76.132ZM35.27,42.581a1.047,1.047,0,0,1,.088.42v3.268a1.053,1.053,0,0,1-1.052,1.052H33.282V44.078l.53-.185A2.535,2.535,0,0,0,35.27,42.581Zm-5.745,9.97h-2.16a.631.631,0,1,1,0-1.263h2.16a.631.631,0,1,1,0,1.263ZM33.585,51.2h-.87a10.129,10.129,0,0,0,.5-2.158h1.093a2.758,2.758,0,0,0,1.052-.208v.593A1.775,1.775,0,0,1,33.585,51.2ZM12.267,36.645a6.49,6.49,0,0,1,6.483-6.483h9.113a2.005,2.005,0,0,1,2,2,1.83,1.83,0,0,0,1.828,1.828h.1a2.005,2.005,0,0,1,2,2v5.5a.815.815,0,0,1-.547.769l-1.808.63a.111.111,0,0,1-.148-.106l0-3.42c.01-2.5-2.326-4.672-5.6-3.621a9.147,9.147,0,0,1-5.326,0c-3.24-1.041-5.611,1.1-5.6,3.618l0,3.422a.111.111,0,0,1-.148.105l-1.809-.63a.815.815,0,0,1-.547-.769V36.645ZM10.7,46.269V43a1.047,1.047,0,0,1,.088-.42,2.536,2.536,0,0,0,1.457,1.312l.53.185v3.244H11.755A1.053,1.053,0,0,1,10.7,46.269Zm3.813,1.779c-.029-1.131-.011-2.332-.016-3.432.053,0,.106.007.159.007a1.833,1.833,0,0,0,1.833-1.835l0-3.425c-.006-1.4,1.248-2.651,3.353-1.975a10.833,10.833,0,0,0,6.379,0c2.006-.644,3.359.49,3.353,1.978l0,3.422a1.832,1.832,0,0,0,1.992,1.827v3.5a8.488,8.488,0,0,1-.355,2.16,2.344,2.344,0,0,0-1.682-.711h-2.16a2.352,2.352,0,1,0,0,4.7h1.093a8.806,8.806,0,0,1-5.383,1.92,8.438,8.438,0,0,1-8.56-8.144ZM19.1,58.628V57.122a10.489,10.489,0,0,0,3.972.792h.02a10.5,10.5,0,0,0,3.867-.785v1.5a3.357,3.357,0,0,0,.279,1.341H18.82a3.35,3.35,0,0,0,.28-1.341ZM4.085,69.517l.136,2.5a.861.861,0,1,0,1.719-.093l-.454-8.36A1.78,1.78,0,0,1,7.264,61.69H38.8a1.78,1.78,0,0,1,1.778,1.877l-.809,14.9H26.272A5.285,5.285,0,0,1,27.561,75.8l.025-.028a6.114,6.114,0,0,0-1.542-9.384,1.312,1.312,0,0,0-1.961,1.139v3.9a.325.325,0,0,1-.325.324H22.3a.325.325,0,0,1-.325-.324v-3.9a1.312,1.312,0,0,0-1.961-1.139,6.114,6.114,0,0,0-1.539,9.387l.022.025a5.284,5.284,0,0,1,1.289,2.665H6.294l-.138-2.544a.861.861,0,0,0-1.719.093l.133,2.451H2.711a2.748,2.748,0,0,0-.3.017v-2.35a13.985,13.985,0,0,1,1.675-6.615Zm17.442,8.948a7,7,0,0,0-1.748-3.816l-.021-.023a4.389,4.389,0,0,1,.5-6.322v3.129A2.048,2.048,0,0,0,22.3,73.478h1.457A2.048,2.048,0,0,0,25.8,71.432V68.3a4.39,4.39,0,0,1,.5,6.325l-.019.021a7,7,0,0,0-1.749,3.816Zm21.823,3.7H2.711a.99.99,0,1,1,0-1.98H43.349a.99.99,0,1,1,0,1.98Z" transform="translate(0 -25.214)"/>
          <path id="Trazado_999230" data-name="Trazado 999230" d="M347.574,6.2a.861.861,0,0,0,.861-.861V3.676A3.367,3.367,0,0,0,345.071.313H330.6a3.367,3.367,0,0,0-3.363,3.363v7.238a3.367,3.367,0,0,0,3.363,3.363.6.6,0,0,1,.6.6v4.476a1.421,1.421,0,0,0,2.639.731l3.308-5.516a.6.6,0,0,1,.516-.292h7.409a3.367,3.367,0,0,0,3.363-3.363V9.365a.861.861,0,1,0-1.721,0v1.55a1.644,1.644,0,0,1-1.642,1.642h-7.41a2.334,2.334,0,0,0-1.991,1.128l-2.75,4.586V14.879a2.325,2.325,0,0,0-2.322-2.322,1.644,1.644,0,0,1-1.642-1.642V3.676A1.644,1.644,0,0,1,330.6,2.034h14.473a1.644,1.644,0,0,1,1.642,1.642V5.342a.861.861,0,0,0,.861.861Z" transform="translate(-289.689 -0.313)"/>
        </g>
      </g>
    </g>
  </g>
</svg>
