<svg xmlns="http://www.w3.org/2000/svg" xmlns:xlink="http://www.w3.org/1999/xlink" width="110" height="110" viewBox="0 0 110 110">
  <defs>
    <filter id="Trazado_982547" x="0" y="0" width="110" height="110" filterUnits="userSpaceOnUse">
      <feOffset dy="3" input="SourceAlpha"/>
      <feGaussianBlur stdDeviation="3" result="blur"/>
      <feFlood flood-opacity="0.161"/>
      <feComposite operator="in" in2="blur"/>
      <feComposite in="SourceGraphic"/>
    </filter>
  </defs>
  <g id="Grupo_1164153" data-name="Grupo 1164153" transform="translate(-1079 -2894)">
    <g id="Grupo_1163921" data-name="Grupo 1163921" transform="translate(279 -7730)">
      <g id="Grupo_1162274" data-name="Grupo 1162274" transform="translate(0 6286)">
        <g id="Grupo_1157015" data-name="Grupo 1157015" transform="translate(0 3549)">
          <g id="Grupo_1155792" data-name="Grupo 1155792" transform="translate(-1 -3894.666)">
            <g id="Grupo_1154703" data-name="Grupo 1154703" transform="translate(0 1465.666)">
              <g id="Grupo_1150789" data-name="Grupo 1150789" transform="translate(3 2320)">
                <g id="Grupo_1154212" data-name="Grupo 1154212" transform="translate(-236 -5809)">
                  <g id="Grupo_1152583" data-name="Grupo 1152583" transform="translate(1043 6713)">
                    <g id="Grupo_1146973" data-name="Grupo 1146973" transform="translate(0 0)">
                      <g id="Grupo_1146954" data-name="Grupo 1146954">
                        <g transform="matrix(1, 0, 0, 1, -9, -6)" filter="url(#Trazado_982547)">
                          <g id="Trazado_982547-2" data-name="Trazado 982547" transform="translate(9 6)" fill="#f0ebfe">
                            <path d="M 46 90.49987030029297 C 39.99187850952148 90.49987030029297 34.16426849365234 89.32350921630859 28.67905426025391 87.00345611572266 C 23.38019943237305 84.76224517822266 18.62104034423828 81.55341339111328 14.53374671936035 77.46613311767578 C 10.44646644592285 73.37885284423828 7.237639904022217 68.61969757080078 4.996413230895996 63.32085418701172 C 2.676359891891479 57.83565521240234 1.5 52.008056640625 1.5 45.99993515014648 C 1.5 39.99181365966797 2.676359891891479 34.16421508789062 4.996413230895996 28.67901420593262 C 7.237639904022217 23.38017463684082 10.44646644592285 18.62101554870605 14.53374671936035 14.53373527526855 C 18.62104034423828 10.44645500183105 23.38019943237305 7.23762845993042 28.67905426025391 4.996415138244629 C 34.16426849365234 2.676361799240112 39.99187850952148 1.500001788139343 46 1.500001788139343 C 52.00812149047852 1.500001788139343 57.83573150634766 2.676361799240112 63.32094573974609 4.996415138244629 C 68.61979675292969 7.23762845993042 73.37895965576172 10.44645500183105 77.46625518798828 14.53373527526855 C 81.55353546142578 18.62101554870605 84.76235961914062 23.38017463684082 87.00358581542969 28.67901420593262 C 89.32363891601562 34.16421508789062 90.5 39.99181365966797 90.5 45.99993515014648 C 90.5 52.008056640625 89.32363891601562 57.83565521240234 87.00358581542969 63.32085418701172 C 84.76235961914062 68.61969757080078 81.55353546142578 73.37885284423828 77.46625518798828 77.46613311767578 C 73.37895965576172 81.55341339111328 68.61979675292969 84.76224517822266 63.32094573974609 87.00345611572266 C 57.83573150634766 89.32350921630859 52.00812149047852 90.49987030029297 46 90.49987030029297 Z" stroke="none"/>
                            <path d="M 46 2.999992370605469 C 40.1937141418457 2.999992370605469 34.56269836425781 4.136489868164062 29.26337051391602 6.377906799316406 C 24.14332580566406 8.543502807617188 19.54441070556641 11.64437866210938 15.59439849853516 15.59437561035156 C 11.64440155029297 19.54439544677734 8.54351806640625 24.14329528808594 6.377914428710938 29.26333618164062 C 4.136497497558594 34.56264877319336 3 40.19366455078125 3 45.99993515014648 C 3 51.80620574951172 4.136497497558594 57.43720626831055 6.377914428710938 62.73651885986328 C 8.54351806640625 67.8565673828125 11.64440155029297 72.45545959472656 15.59439849853516 76.40547943115234 C 19.54441070556641 80.35547637939453 24.14332580566406 83.45635223388672 29.26337051391602 85.6219482421875 C 34.56269836425781 87.86336517333984 40.1937141418457 88.99986267089844 46 88.99986267089844 C 51.8062858581543 88.99986267089844 57.43730163574219 87.86336517333984 62.73661422729492 85.6219482421875 C 67.85667419433594 83.45635223388672 72.45557403564453 80.35547637939453 76.40558624267578 76.40547943115234 C 80.35559844970703 72.45545959472656 83.45647430419922 67.8565673828125 85.6220703125 62.73651885986328 C 87.86350250244141 57.43720626831055 89 51.80620574951172 89 45.99993515014648 C 89 40.19366455078125 87.86350250244141 34.56264877319336 85.6220703125 29.26333618164062 C 83.45647430419922 24.14329528808594 80.35559844970703 19.54439544677734 76.40558624267578 15.59437561035156 C 72.45557403564453 11.64437866210938 67.85667419433594 8.543502807617188 62.73661422729492 6.377906799316406 C 57.43730163574219 4.136489868164062 51.8062858581543 2.999992370605469 46 2.999992370605469 M 46 -7.62939453125e-06 C 71.40509033203125 -7.62939453125e-06 92 20.59486389160156 92 45.99993515014648 C 92 71.40499114990234 71.40509033203125 91.99986267089844 46 91.99986267089844 C 20.59490203857422 91.99986267089844 0 71.40499114990234 0 45.99993515014648 C 0 20.59486389160156 20.59490203857422 -7.62939453125e-06 46 -7.62939453125e-06 Z" stroke="none" fill="#7145fe"/>
                          </g>
                        </g>
                      </g>
                    </g>
                  </g>
                </g>
              </g>
            </g>
          </g>
        </g>
      </g>
    </g>
    <g id="esfuerzo-conjunto" transform="translate(1074.007 2885.639)">
      <path id="Trazado_999278" data-name="Trazado 999278" d="M358.238,194.827l-5.268,3.042a2.372,2.372,0,0,0-.866,3.231l9.246,16.014a2.373,2.373,0,0,0,3.231.866l5.268-3.042a2.372,2.372,0,0,0,.866-3.231l-9.246-16.014A2.373,2.373,0,0,0,358.238,194.827Z" transform="translate(-277.281 -143.111)" fill="#fd4755" fill-rule="evenodd"/>
      <path id="Trazado_999279" data-name="Trazado 999279" d="M43.793,194.827l5.268,3.042a2.372,2.372,0,0,1,.866,3.231l-9.246,16.014a2.372,2.372,0,0,1-3.231.866l-5.268-3.042a2.373,2.373,0,0,1-.866-3.231l9.246-16.014A2.373,2.373,0,0,1,43.793,194.827Z" transform="translate(-4.262 -143.111)" fill="#60b7ff" fill-rule="evenodd"/>
      <path id="Trazado_999280" data-name="Trazado 999280" d="M188.576,177.748l-3.334,5.1-1.464-3.63-3.913.117,2.966-4.54a1.613,1.613,0,0,0,.316.093l1.894.356a1.487,1.487,0,0,1,.888.513l1.255,1.463A1.517,1.517,0,0,0,188.576,177.748Zm5.253,0,3.334,5.1,1.465-3.63,3.913.117-2.966-4.54a1.613,1.613,0,0,1-.316.093l-1.894.356a1.488,1.488,0,0,0-.888.513l-1.255,1.463A1.517,1.517,0,0,1,193.829,177.748Z" transform="translate(-130.958 -126.333)" fill="#ffd266" fill-rule="evenodd"/>
      <path id="Trazado_999281" data-name="Trazado 999281" d="M186.995,32.087l1.818-.639a1.521,1.521,0,0,1,1.686.452l1.255,1.463a1.488,1.488,0,0,0,.888.513l1.894.356a1.521,1.521,0,0,1,1.234,1.234l.356,1.894a1.488,1.488,0,0,0,.513.888L198.1,39.5a1.521,1.521,0,0,1,.452,1.686l-.639,1.818a1.488,1.488,0,0,0,0,1.025l.639,1.818a1.521,1.521,0,0,1-.452,1.686l-1.463,1.255a1.487,1.487,0,0,0-.513.888l-.356,1.894a1.521,1.521,0,0,1-1.234,1.234l-1.894.356a1.488,1.488,0,0,0-.888.513L190.5,55.141a1.521,1.521,0,0,1-1.686.452l-1.818-.639a1.488,1.488,0,0,0-1.025,0l-1.818.639a1.521,1.521,0,0,1-1.686-.452l-1.255-1.463a1.488,1.488,0,0,0-.888-.513l-1.894-.356a1.521,1.521,0,0,1-1.234-1.234l-.356-1.894a1.488,1.488,0,0,0-.513-.888l-1.463-1.255a1.521,1.521,0,0,1-.452-1.686l.639-1.818a1.488,1.488,0,0,0,0-1.025l-.639-1.818a1.521,1.521,0,0,1,.452-1.686l1.463-1.255a1.487,1.487,0,0,0,.513-.888l.356-1.894a1.521,1.521,0,0,1,1.234-1.234l1.894-.356a1.488,1.488,0,0,0,.888-.513l1.255-1.463a1.521,1.521,0,0,1,1.686-.452l1.818.639a1.487,1.487,0,0,0,1.025,0Z" transform="translate(-126.238 -4.252)" fill="#fd4755" fill-rule="evenodd"/>
      <circle id="Elipse_12277" data-name="Elipse 12277" cx="8.055" cy="8.055" r="8.055" transform="matrix(0.16, -0.987, 0.987, 0.16, 50.997, 45.931)" fill="#ffd266"/>
      <path id="Trazado_999282" data-name="Trazado 999282" d="M141.856,257.953a2.739,2.739,0,0,1-2.752,4.735l-4.815-2.8,4.815,2.8,1.259.733a2.738,2.738,0,0,1-2.756,4.733l-1.559-.908-4.863-2.831,4.863,2.832a2.739,2.739,0,0,1-2.757,4.733l-5.21-3.034,3.967,2.31a2.739,2.739,0,0,1-2.758,4.733l-4.034-2.35.319-.627a2.485,2.485,0,0,0,.044-2.26,3,3,0,0,0-2.532-1.671l-1.32-.051.727-1.1a2.536,2.536,0,0,0,.21-2.614,2.97,2.97,0,0,0-2.852-1.623l-.958.092.151-.95a2.7,2.7,0,0,0-1.188-2.59,2.629,2.629,0,0,0-3.306.085l-.821.723-.371-1.029a2.932,2.932,0,0,0-1.073-1.381,2.62,2.62,0,0,0-3.8.649l-2.12,3.013-5.588-6.978,8.355-14.47,8.46,3.022-3.791,3.713,0,0-.315,6.64a1.863,1.863,0,0,0,.7,1.76c.93.585,2.379.013,3.237-.45,1.235-.667,2.049-2.535,2.619-3.754.175-.375.351-.75.538-1.119l.116-.228.232-.109.43-.2c1.841-.874,3.8-1.84,5.767-.7Z" transform="translate(-63.649 -182.552)" fill="#f1cbbc" fill-rule="evenodd"/>
      <path id="Trazado_999283" data-name="Trazado 999283" d="M135.553,266.412a2.739,2.739,0,0,1-4.446-3.2l2.736-3.889a2.739,2.739,0,0,1,4.492,3.133l1.078-1.532a2.738,2.738,0,0,1,4.48,3.15l-.581.826-1.513,2.151,1.512-2.15a2.739,2.739,0,0,1,4.479,3.153l-1.8,2.563h0l-2.019,2.872a2.74,2.74,0,0,1-4.571-3.016l0-.01-.144.205a2.739,2.739,0,0,1-4.48-3.151Zm16.927-16.951,14.735,8.529,5.15-2.63L164.014,240.9l-.564.169a23.07,23.07,0,0,1-11.933.212,8.84,8.84,0,0,0-4.5-.062,8.416,8.416,0,0,0-2.869,1.656c-1.144.939-2.221,2.033-3.276,3.072q-.753.742-1.51,1.48l-.211.2-.316,6.64a1.87,1.87,0,0,0,.7,1.759c.92.578,2.386.01,3.236-.449,1.517-.818,2.477-3.6,3.278-5.1C148.06,249.548,150.3,248.2,152.48,249.461Zm-6.272,20.844-1.372,1.951a2.581,2.581,0,0,0-.3,2.64,3.018,3.018,0,0,0,2.283,1.678,2.592,2.592,0,0,0,2.5-1.168l1.372-1.95a2.739,2.739,0,0,0-4.48-3.151Z" transform="translate(-89.006 -182.588)" fill="#d9b7a9" fill-rule="evenodd"/>
      <path id="Trazado_999284" data-name="Trazado 999284" d="M56.572,39.794a.745.745,0,1,1,1.053-1.053l1.571,1.57,3.667-3.668A.745.745,0,0,1,63.916,37.7l-4.194,4.193a.744.744,0,0,1-1.053,0Zm3.672-7.837a7.311,7.311,0,1,0,7.31,7.311A7.319,7.319,0,0,0,60.244,31.957Zm0,16.11a8.8,8.8,0,1,0-8.8-8.8A8.809,8.809,0,0,0,60.244,48.067ZM49.108,35.815a.778.778,0,0,0-.234.875l.639,1.818a2.239,2.239,0,0,1,0,1.519l-.639,1.819a.777.777,0,0,0,.234.874l1.463,1.255a2.242,2.242,0,0,1,.76,1.316l.356,1.894a.778.778,0,0,0,.64.64l1.894.356a2.242,2.242,0,0,1,1.316.76L56.792,50.4a.777.777,0,0,0,.874.234L59.484,50A2.239,2.239,0,0,1,61,50l1.819.639A.778.778,0,0,0,63.7,50.4l1.255-1.463a2.243,2.243,0,0,1,1.316-.76l1.894-.356a.778.778,0,0,0,.64-.64l.356-1.894a2.239,2.239,0,0,1,.76-1.316L71.38,42.72a.777.777,0,0,0,.234-.874l-.639-1.819a2.239,2.239,0,0,1,0-1.519l.639-1.818a.778.778,0,0,0-.234-.875L69.917,34.56a2.238,2.238,0,0,1-.76-1.316L68.8,31.35a.778.778,0,0,0-.64-.64l-1.894-.356a2.238,2.238,0,0,1-1.315-.759L63.7,28.132a.777.777,0,0,0-.874-.234L61,28.537a2.238,2.238,0,0,1-1.519,0L57.666,27.9a.841.841,0,0,0-.279-.049.778.778,0,0,0-.6.283l-1.255,1.463a2.238,2.238,0,0,1-1.316.759l-1.894.356a.778.778,0,0,0-.64.64l-.356,1.894a2.238,2.238,0,0,1-.76,1.316ZM67.691,52.143a.743.743,0,0,0-.713.466l-.931,2.307L64.1,51.937a2.313,2.313,0,0,0,.725-.563l1.255-1.463a.744.744,0,0,1,.461-.266l1.742-.327,1.894,2.9ZM54.44,54.916l-.931-2.307a.747.747,0,0,0-.713-.466l-2.487.075,1.894-2.9,1.741.327a.742.742,0,0,1,.461.266l1.255,1.463a2.3,2.3,0,0,0,.725.562ZM48.108,39a.744.744,0,0,1,0,.531l-.639,1.819a2.278,2.278,0,0,0,.669,2.5L49.6,45.105a.745.745,0,0,1,.266.461l.356,1.894a2.286,2.286,0,0,0,.632,1.2L48.284,52.6a.744.744,0,0,0,.645,1.151l3.394-.1,1.27,3.149a.743.743,0,0,0,.618.462.633.633,0,0,0,.073,0,.746.746,0,0,0,.623-.337l3.173-4.857.08-.024,1.818-.639a.744.744,0,0,1,.532,0l1.818.639c.026.01.053.017.08.025l3.173,4.857a.746.746,0,0,0,.623.337.624.624,0,0,0,.073,0,.743.743,0,0,0,.618-.462l1.27-3.149,3.394.1A.745.745,0,0,0,72.2,52.6l-2.571-3.936a2.282,2.282,0,0,0,.632-1.2l.356-1.894a.744.744,0,0,1,.266-.461L72.35,43.85a2.277,2.277,0,0,0,.669-2.5l-.639-1.819a.744.744,0,0,1,0-.531l.639-1.819a2.276,2.276,0,0,0-.669-2.5L70.887,33.43a.743.743,0,0,1-.266-.46l-.356-1.894a2.278,2.278,0,0,0-1.829-1.829l-1.894-.356a.744.744,0,0,1-.461-.266l-1.255-1.463a2.279,2.279,0,0,0-2.5-.669l-1.818.639a.736.736,0,0,1-.532,0l-1.818-.639a2.277,2.277,0,0,0-2.5.669l-1.255,1.463a.742.742,0,0,1-.461.266l-1.894.356a2.278,2.278,0,0,0-1.829,1.829l-.356,1.894a.741.741,0,0,1-.266.46l-1.462,1.256a2.275,2.275,0,0,0-.669,2.5ZM92.949,70.2a1.615,1.615,0,0,1-.753.986l-5.268,3.041a1.623,1.623,0,0,1-2.214-.593L75.468,57.616a1.622,1.622,0,0,1,.593-2.214l5.268-3.042a1.623,1.623,0,0,1,2.214.593l9.246,16.014a1.609,1.609,0,0,1,.159,1.229ZM78.231,74.555l4.091-2.089L74.657,59.19a23.963,23.963,0,0,1-12.307.226c-4.431-.976-5.712.287-9.957,4.469-.479.472-.972.958-1.514,1.484l-.3,6.347c-.018.386.028.889.354,1.093.342.215,1.2.22,2.486-.473.938-.506,1.661-2.052,2.3-3.415.228-.488.445-.95.675-1.383a.744.744,0,0,1,.346-.326c.218-.1.434-.2.651-.306,1.962-.932,4.186-1.987,6.459-.675Zm.305,4.205a1.881,1.881,0,0,0-.7-2.715L63.1,67.518c-1.6-.921-3.207-.155-5.075.731l-.434.205c-.174.342-.346.71-.527,1.1-.772,1.648-1.57,3.354-2.94,4.094-1.618.873-3.034,1.023-3.987.425a2.487,2.487,0,0,1-1.048-2.426L49.407,65a.744.744,0,0,1,.225-.5c.621-.6,1.178-1.151,1.716-1.68.432-.425.837-.825,1.224-1.2l-6.754-2.413L38.028,72.7l4.65,5.807,1.549-2.2a3.363,3.363,0,0,1,4.839-.83,3.678,3.678,0,0,1,1.345,1.738,3.373,3.373,0,0,1,4.227-.135,3.436,3.436,0,0,1,1.5,3.316,3.617,3.617,0,0,1,2.4.663,3.359,3.359,0,0,1,.931,4.725,3.689,3.689,0,0,1,1.965.676A3.358,3.358,0,0,1,62.591,90.8l3.426,2a1.994,1.994,0,0,0,2.008-3.446h0l-3.966-2.31a.744.744,0,1,1,.749-1.286l3.966,2.309h0l0,0,1.24.722a1.994,1.994,0,0,0,2.007-3.446l-4.863-2.832a.744.744,0,0,1,.749-1.286l4.863,2.831s0,0,0,0h0l1.559.907a1.994,1.994,0,0,0,2.006-3.446l-1.259-.733s0,0,0,0l-4.815-2.8a.744.744,0,1,1,.749-1.286l4.815,2.8a1.881,1.881,0,0,0,2.707-.733ZM59.7,92.39a1.818,1.818,0,0,1-1.707.867A2.262,2.262,0,0,1,56.2,92a1.817,1.817,0,0,1,.238-1.9s0,0,0,0l1.372-1.95a1.994,1.994,0,0,1,3.262,2.295Zm-5.348-1.915a1.994,1.994,0,0,1-3.263-2.294h0l3.824-5.436h0a1.994,1.994,0,0,1,3.261,2.3l-1.581,2.247h0l-1.372,1.951Zm-4.713-2.82a1.994,1.994,0,0,1-3.262-2.295l.81-1.152v0h0l2.738-3.892h0v0l1.088-1.545a1.994,1.994,0,0,1,3.262,2.293l-.58.825s0,0,0,0h0l-3.825,5.437Zm-6.434-3.839a1.882,1.882,0,0,1-.5-2.761l2.736-3.889a1.994,1.994,0,0,1,3.263,2.292s0,0,0,0L45.972,83.35h0A1.882,1.882,0,0,1,43.206,83.816ZM33.56,74.223l-5.268-3.041a1.629,1.629,0,0,1-.594-2.215l9.246-16.014a1.612,1.612,0,0,1,.985-.752,1.653,1.653,0,0,1,.426-.056,1.6,1.6,0,0,1,.8.215L44.427,55.4a1.627,1.627,0,0,1,.593,2.214L35.775,73.63a1.623,1.623,0,0,1-2.214.593Zm60.519-6a3.117,3.117,0,0,1-1.138,4.249l-5.268,3.041a3.081,3.081,0,0,1-1.55.417,3.113,3.113,0,0,1-2.7-1.555l-.356-.618-3.516,1.8a3.4,3.4,0,0,1,.272,3.956,3.651,3.651,0,0,1-1.738,1.543,3.53,3.53,0,0,1-3.579,5.589,3.665,3.665,0,0,1-.495,2.164,3.4,3.4,0,0,1-3.519,1.729,3.652,3.652,0,0,1-.482,2.28,3.466,3.466,0,0,1-2.947,1.781,3.557,3.557,0,0,1-1.8-.514l-3.5-2.039-.848,1.206a3.35,3.35,0,0,1-2.759,1.505c-.1,0-.2,0-.3-.013a3.74,3.74,0,0,1-3.011-2.119,3.224,3.224,0,0,1-.153-.392,3.4,3.4,0,0,1-3.968-.07,3.579,3.579,0,0,1-1.5-2.346,3.492,3.492,0,0,1-3.214-.475,3.4,3.4,0,0,1-1.429-3.631,3.648,3.648,0,0,1-2.239-.674,3.363,3.363,0,0,1-.857-4.835l.294-.418-4.557-5.692-.165.286a3.113,3.113,0,0,1-2.7,1.555,3.082,3.082,0,0,1-1.55-.417l-5.268-3.041a3.113,3.113,0,0,1-1.554-2.7v-.007a3.092,3.092,0,0,1,.416-1.543l9.246-16.014A3.117,3.117,0,0,1,39.9,51.071l5.268,3.041a3.112,3.112,0,0,1,1.359,3.772l7.26,2.594c2.776-2.516,4.758-3.424,8.881-2.516a22.628,22.628,0,0,0,11.273-.115,3.113,3.113,0,0,1,1.373-3.735l5.268-3.041a3.114,3.114,0,0,1,4.248,1.138Z" transform="translate(0)" fill-rule="evenodd"/>
    </g>
  </g>
</svg>
